<svg xmlns="http://www.w3.org/2000/svg" width="143.19" height="92.08" viewBox="0 0 143.19 92.08">
  <defs>
    <style>
      .cls-1 {
        fill: #050105;
      }

      .cls-2 {
        fill: #fddf8d;
      }

      .cls-3 {
        fill: #fa0102;
      }

      .cls-4 {
        fill: #fb02b1;
      }

      .cls-5 {
        fill: #fdf804;
      }

      .cls-6 {
        fill: #90eea0;
      }
    </style>
  </defs>
  <g id="Layer_2" data-name="Layer 2">
    <g id="Layer_1-2" data-name="Layer 1">
      <g>
        <path class="cls-1" d="M37,23.73c3.26-1.55,6.41-3.28,8.29-6.54a6.55,6.55,0,0,0,1.08-4.57C45,5.74,48.46,2.7,53.6,1c1,.05,2,.42,3.11-.13C59.87-.71,62.83,0,65.59,2l.93.57a1.65,1.65,0,0,0,.71.36c.47,1.48.45,3.12,1.89,4.24,3.63,2.8,3.75,6.51,2,10.29-.92,2-1,3.44.86,4.8a5.55,5.55,0,0,1,1.73,2.58c1.14,2.79,2.7,3,4.56.53A31.69,31.69,0,0,1,80.46,23c3-1.47,5.71-.86,8.38.73,1.85,2.09,1,4.61,1,6.93,0,4,.16,4.05,4.13,2.87,6-1.78,12-4,18.51-2.75,2.37-.79,4.36,1.85,7.17.26,3.16-1.79,4.1-4.49,5.14-7.41l5.46-7.86c3.18-1.26,9.16-.45,11,2a8.94,8.94,0,0,1,1.12,9.33c-1,2.36-2.05,4.6-1.9,7.45s-2.31,5-4.58,6.56a7.12,7.12,0,0,0-3.19,4.32c-4.23.91-3.41,4-3.24,7s2.59,2.45,4.21,2.91c3.13.9,6.56,1,8.68,4,.51,3.42-1.13,6.87.07,10.29-3.57,4.6-6.35,9.81-10.64,13.86-1.24-.34-2.67-1.07-3.13.92-.33,1.44-1.66,1.93-2.4,3a16.52,16.52,0,0,1-12.78-2.88c-2.48-1.74-4.67-3.89-7-5.85a3.13,3.13,0,0,0-4.4-1.39c-6.61,3.26-13.36,3.28-20.25,1.08-1.16-1.44-3.19.16-4.36-1.25-1-1.21-1.86-2.33-3.53-.83C69,80.74,63,83.21,56.57,84.63a6.71,6.71,0,0,0-4.24,2.73c-2,2.75-4.53,4.94-8.3,4.7-1.42-.09-11.51-6.5-12-7.57-.12-.24-.1-.54-.24-.76C29.5,80,27.09,76.36,22,76.25l-1.54-.84c-.13-2.73.06-5.56-3.21-6.89-1.18-.48-.82-1.82-1-2.82.2-4.59,2.43-6.86,7-7.23,1-.08,2.16.56,2.84-.71,1.72.32,2.2-2.2,4-1.73,1.4.46,2.39-.83,3.74-.85a1.81,1.81,0,0,0,1.67-2.25c-.16-1.37-1.37-.91-2.19-.94-1.84-.08-3.68-.05-5.52-.06A15.39,15.39,0,0,1,17.5,41.73c-.85-2.68.59-5.82-1.23-8.2a8.8,8.8,0,0,1-1.47-8.2c2.95-2.89,6.32-3.9,10.28-2.31C28.83,26.77,32.8,26.8,37,23.73ZM65.74,77.27a5.68,5.68,0,0,0,4.39-1.87c2.39-.41,3-4.31,6.19-3.14,8.15,5.85,16.84,5.26,25.67,2,2.47-.91,4.28-.65,6,1.45,3.45,4.25,7.57,7.58,13.19,8.53,1.23.84,2.38.43,3.51-.23,1.51-.93,2.18-2,.71-3.57l.09-1.75h0l2.34-.12c1,.68,2.05,1.48,3-.09.6-1,1.87-1.28,1.44-3.23-.77-3.5-3.28-4.93-5.77-6.62-2.06-3.27-1.7-6.7-.67-10.17.66-4.14,1.47-8.29-1-12.16,1.4-2,4.79-1.29,5.56-4.12a10.34,10.34,0,0,1,4.14-3.94,4.83,4.83,0,0,0,3-4.94c.28-3,.41-6.06,1.89-8.82,1.15-1.85.92-3.48-.9-4.73a5.82,5.82,0,0,0-6.92-.15c-3.38,2.13-4.09,5.72-5.24,9.1-1,3-7.26,7.57-9.5,6.6A21.38,21.38,0,0,0,103,34.43c-5,1.24-11.69.26-13.66,7.44-.15.54-1,.89-1.46,1.33L86.7,44.34A15.66,15.66,0,0,0,83,45.72c-3.4,2.35-7.75,3.25-9.37,8.19a13.79,13.79,0,0,1-7.35,7.81c-2.46,1.18-6.47-.4-7.32,3.86,0,.12-.74.11-1.14.16A38.62,38.62,0,0,0,46.38,69c-3.8,1.7-7.3,4.19-11.94,3.51a4.09,4.09,0,0,0-4.17,2.58c-.31.87-.72,2.09.56,2.81.87.49,1.65.74,2.39-.25.54-.73,1.36-1.93,2.15-1.09s.44,2.12-.31,3.3c-1.54,2.45-.52,4.13,2.28,4.55,1.88.29,3-.78,4.15-1.82,1.77-.22,1.71,1,1.64,2.15-1,1.09-1.52,2.39-.46,3.56.89,1,2.31.58,3.43.31a5.72,5.72,0,0,0,4.08-3.43,6.78,6.78,0,0,1,5.36-3.39c2.11-.24,4.13-1.41,6.19-2.17,1.7-.27,3.49-.38,4.12-2.44ZM86,36.43l.06-.11c0-1.23-.07-2.46-.11-3.7,1.86-2.23,2.16-4.79,0-6.67s-4.17-.12-5.83,1.46a18.36,18.36,0,0,1-8.23,4.5c-3-.79-7.08,1.56-9.07-3.24L67,28.46c1.66.18,3.86,1,4.66-.71.58-1.28-1.13-2.65-2.2-3.88C64.32,18,57.64,19.44,51.23,20.12c-6.14.66-10.55,5.18-15.85,7.74C34.56,29,33,28.12,32.08,29c-1.67.28-1.38,1.78-1.71,2.84-1.22,3.94-4.3,6.26-8.08,5.1S19.53,38,19.85,39.75c1.56,8.33,10.65,11.45,19.92,7.53,1.92-.88,3.94-1.4,5.55-3.11.55-.58,2.26-3.15,4.17-1-.92,1.1-1,2.59-2.09,3.72-3.27,3.47-4.25,7.81-4.26,12.48,0,1.27.08,2.23,1.61,1.86,2.15-.51,4.54.23,6.52-1.2,5.16-1.28,9.68-3.55,12.92-8,1.53-2.1,2.06-3.82-.11-5.94-1.5-1.47-2-3.47.11-5.13l.11.14.21-.06c.75,1.39.68,3.27,2.41,4.09,4.14,3.8,8.71,3.24,12-1.49l3.21-.91c4.52-.24,6-1.86,4.84-5.33C86.76,37,86.73,36.36,86,36.43Zm50.92,27.34c1-.44,2.85-.15,2.24-2-1.3-3.92-5.35-1.77-7.84-3.24-.76-.44-2.54-2-2.74.74-1.36,2.57-2.11,5.2.36,7.49,1.77,1.65,4.23,2,6.4,2.86,1,.42,2.06,1.83,3,.38a2.31,2.31,0,0,0-1-3.41C136,65.79,135.84,64.91,136.91,63.77ZM22.82,66.44c1.21.44,2.43-1.38,3.63,0,.86,1-.17,1.63-.5,2.39-1.1,1-3.62,1.81-2.45,3.55s3.46,2.65,5.16,0a11,11,0,0,1,8.47-2.51c1.61.21,3.17,0,4.24-1.47,3.36-1.52,6.46-3.58,10-4.83-3.24.87-6.54.69-9.8.85-2-.18-3.94-.48-4.84-2.66-.11-3.21-1.63-3.64-4.49-2.75S27,62.23,23.69,61.81l-.91,0c-2,.3-3.89,1.37-3.73,3.37C19.14,66.35,21.27,66.79,22.82,66.44ZM56.18,16.33l5.35.16c.49.2,1,.59,1.47.57,1.93-.06,4,2.79,5.8-.69,1.56-3.09.49-5.08-1.88-6.85a2.85,2.85,0,0,1-1.45-2.21C65.31,5.07,63.58,4,61.81,3.58c-4-.86-7.53,1.1-11,2.58-2.13.91-3.57,8.18-2.06,10.29s3.84.14,5.81,0C55.11,16.45,55.65,16.38,56.18,16.33Zm15.35,35c-6.18-1.49-4.82,5.41-8.11,7.19C67.72,57.88,71.26,56.37,71.53,51.36ZM40.35,59.61c.35-2.42.66-4.84,1.07-7.25.11-.64,1.21-1.35-.25-1.69a1.49,1.49,0,0,0-1.85,1.12C39.08,54.4,37.93,57.08,40.35,59.61Z"/>
        <path class="cls-2" d="M66.92,9.52a2.85,2.85,0,0,1-1.45-2.21C65.31,5.07,63.58,4,61.81,3.58c-4-.86-7.53,1.1-11,2.58-2.13.91-3.57,8.18-2.06,10.29s3.84.14,5.81,0c.53,0,1.07-.1,1.6-.15l5.35.16c.49.2,1,.59,1.47.57,1.93-.06,4,2.79,5.8-.69C70.36,13.28,69.29,11.29,66.92,9.52Z"/>
        <path class="cls-3" d="M71.53,51.36c-.27,5-3.81,6.52-8.11,7.19C66.71,56.77,65.35,49.87,71.53,51.36Z"/>
        <path class="cls-2" d="M139.15,61.78c-1.3-3.92-5.35-1.77-7.84-3.24-.76-.44-2.54-2-2.74.74-1.36,2.57-2.11,5.2.36,7.49,1.77,1.65,4.23,2,6.4,2.86,1,.42,2.06,1.83,3,.38a2.31,2.31,0,0,0-1-3.41c-1.38-.81-1.53-1.69-.46-2.83C137.87,63.33,139.76,63.62,139.15,61.78Z"/>
        <path class="cls-4" d="M40.35,59.61c-2.42-2.53-1.27-5.21-1-7.82a1.49,1.49,0,0,1,1.85-1.12c1.46.34.36,1,.25,1.69C41,54.77,40.7,57.19,40.35,59.61Z"/>
        <path class="cls-2" d="M86,36.43l.06-.11c0-1.23-.07-2.46-.11-3.7,1.86-2.23,2.16-4.79,0-6.67s-4.17-.12-5.83,1.46a18.36,18.36,0,0,1-8.23,4.5c-3-.79-7.08,1.56-9.07-3.24L67,28.46c1.66.18,3.86,1,4.66-.71.58-1.28-1.13-2.65-2.2-3.88C64.32,18,57.64,19.44,51.23,20.12c-6.14.66-10.55,5.18-15.85,7.74C34.56,29,33,28.12,32.08,29c-1.67.28-1.38,1.78-1.71,2.84-1.22,3.94-4.3,6.26-8.08,5.1S19.53,38,19.85,39.75c1.56,8.33,10.65,11.45,19.92,7.53,1.92-.88,3.94-1.4,5.55-3.11.55-.58,2.26-3.15,4.17-1-.92,1.1-1,2.59-2.09,3.72-3.27,3.47-4.25,7.81-4.26,12.48,0,1.27.08,2.23,1.61,1.86,2.15-.51,4.54.23,6.52-1.2,5.16-1.28,9.68-3.55,12.92-8,1.53-2.1,2.06-3.82-.11-5.94-1.5-1.47-2-3.47.11-5.13l.63-.28a1.19,1.19,0,0,0-.31.36c.75,1.39.68,3.27,2.41,4.09,4.14,3.8,8.71,3.24,12-1.49l3.21-.91c4.52-.24,6-1.86,4.84-5.33ZM22.28,39.27c0-.22,0-.58.11-.63.51-.22,1-.24,1.22.42Zm1.37-.18h0L26,38.72Zm22.55-9.7c-.24,2.1-1.8,2.41-3.5,2.51,0,.9-.08,1.93.67,2.38-.75-.45-.62-1.48-.67-2.38a3.32,3.32,0,0,1-1.4-3c.59-1.38,1.36-2.85,3.1-2.36A2.57,2.57,0,0,1,46.2,29.39ZM53,34.94c-.07,1.69-1.33,2.09-2.6,2.46-1.54-.37-1.78-1.5-1.7-2.76.12-1.75,1.38-2.1,2.8-2S53.05,33.82,53,34.94Zm13.23,6-1.36-.25c.5-1.1,1.09-.87,1.7-.08.17.18.51.48.49.52C66.66,41.69,66.46,41.22,66.23,40.93Z"/>
        <path class="cls-2" d="M41.57,64.36c-2-.18-3.94-.48-4.84-2.66-.11-3.21-1.63-3.64-4.49-2.75S27,62.23,23.69,61.81a31.51,31.51,0,0,0,3.67.68,31.51,31.51,0,0,1-3.67-.68l-.91,0c-2,.3-3.89,1.37-3.73,3.37.09,1.14,2.22,1.58,3.77,1.23,1.21.44,2.43-1.38,3.63,0,.86,1-.17,1.63-.5,2.39-1.1,1-3.62,1.81-2.45,3.55s3.46,2.65,5.16,0a11,11,0,0,1,8.47-2.51c1.61.21,3.17,0,4.24-1.47,3.36-1.52,6.46-3.58,10-4.83C48.13,64.38,44.83,64.2,41.57,64.36Z"/>
        <path class="cls-5" d="M125.47,78.7c.72-1.28,1.5-1.18,2.34-.12Z"/>
        <path class="cls-2" d="M64.19,41l.67-.3v0a1.32,1.32,0,0,0-.34.4l-.21.06Z"/>
        <path class="cls-6" d="M66.52,2.52c.63-.64.6,0,.71.36A1.65,1.65,0,0,1,66.52,2.52Z"/>
        <path class="cls-5" d="M87,37.44l-1-1C86.73,36.36,86.76,37,87,37.44Z"/>
        <path class="cls-1" d="M.19,38.26c2.79.51,5.15,2.4,8.06,2.5,1.54,1.31,3.49,1.82,5.27,2.66a1.74,1.74,0,0,1,1,2,1.33,1.33,0,0,1-1.94.82c-3-1.3-6.78-.42-9.32-3.1C2,41.7-.73,41.13.19,38.26Z"/>
        <path class="cls-1" d="M8.08,63.06c-2.38.48-3.9,3.67-7,2.27.09-1.75,2-2.17,2.37-3.56,3-.92,5-3.39,7.7-4.83,1.56-.85,2.93-1.24,4.42,0C14.11,60.2,10.17,60.51,8.08,63.06Z"/>
        <path class="cls-2" d="M138.47,19.76a5.82,5.82,0,0,0-6.92-.15c-3.38,2.13-4.09,5.72-5.24,9.1-1,3-7.26,7.57-9.5,6.6A21.38,21.38,0,0,0,103,34.43c-5,1.24-11.69.26-13.66,7.44-.15.54-1,.89-1.46,1.33L86.7,44.34a2.4,2.4,0,0,0,.11.23,2.4,2.4,0,0,1-.11-.23A15.66,15.66,0,0,0,83,45.72c-3.4,2.35-7.75,3.25-9.37,8.19a13.79,13.79,0,0,1-7.35,7.81c-2.46,1.18-6.47-.4-7.32,3.86,0,.12-.74.11-1.14.16A38.62,38.62,0,0,0,46.38,69c-3.8,1.7-7.3,4.19-11.94,3.51a4.09,4.09,0,0,0-4.17,2.58c-.31.87-.72,2.09.56,2.81.87.49,1.65.74,2.39-.25.54-.73,1.36-1.93,2.15-1.09s.44,2.12-.31,3.3c-1.54,2.45-.52,4.13,2.28,4.55,1.88.29,3-.78,4.15-1.82,1.77-.22,1.71,1,1.64,2.15-1,1.09-1.52,2.39-.46,3.56.89,1,2.31.58,3.43.31a5.72,5.72,0,0,0,4.08-3.43,6.78,6.78,0,0,1,5.36-3.39c2.11-.24,4.13-1.41,6.19-2.17,1.67-.27,3.42-.39,4.08-2.36a5.65,5.65,0,0,0,4.32-1.86c2.39-.41,3-4.31,6.19-3.14,8.15,5.85,16.84,5.26,25.67,2,2.47-.91,4.28-.65,6,1.45,3.45,4.25,7.57,7.58,13.19,8.53,1.23.84,2.38.43,3.51-.23,1.51-.93,2.18-2,.71-3.57l.09-1.75h0c.71-1.27,1.5-1.17,2.33-.11,1,.68,2.05,1.48,3-.09.6-1,1.87-1.28,1.44-3.23-.77-3.5-3.28-4.93-5.77-6.63-2.06-3.26-1.7-6.69-.67-10.16.66-4.14,1.47-8.29-1-12.16,1.4-2,4.79-1.29,5.56-4.12h0a10.34,10.34,0,0,1,4.14-3.94,4.83,4.83,0,0,0,3-4.94c.28-3,.41-6.06,1.89-8.82C140.52,22.64,140.29,21,138.47,19.76ZM83.38,48.66a9.13,9.13,0,0,1-1.16-.08c.31-.19.45-.36.62-.38a2.71,2.71,0,0,1,.69.08C83.48,48.42,83.44,48.66,83.38,48.66Zm4-2.35-.35.08-.35,0c0-.43,0-.86,0-1.29h.74c1-.7,1.09.4,1.09.73C88.58,46.53,87.89,46.31,87.42,46.31Zm5.74-6.9h0c1.47-.41,2.93-1,4.4-1.48C96.09,38.45,94.63,39,93.16,39.41Zm29-2.87h0a1.55,1.55,0,0,1,0-.47A1.55,1.55,0,0,0,122.15,36.54Z"/>
        <path class="cls-2" d="M87.47,45.07c1-.7,1.09.4,1.09.73,0,.73-.67.51-1.14.51C87.43,45.9,87.45,45.48,87.47,45.07Z"/>
        <path class="cls-1" d="M41.3,28.91c.59-1.38,1.36-2.85,3.1-2.36a2.57,2.57,0,0,1,1.8,2.84c-.24,2.1-1.8,2.41-3.5,2.51A3.32,3.32,0,0,1,41.3,28.91Z"/>
        <path class="cls-1" d="M50.4,37.4c-1.54-.37-1.78-1.5-1.7-2.76.12-1.75,1.38-2.1,2.8-2s1.55,1.2,1.5,2.32C52.93,36.63,51.67,37,50.4,37.4Z"/>
        <path class="cls-2" d="M66.23,40.93l-1.38-.25v0c.51-1.13,1.09-.89,1.71-.1Z"/>
        <path class="cls-2" d="M66.57,40.6c.17.18.51.48.49.52-.4.57-.6.1-.83-.19Z"/>
        <path class="cls-5" d="M82.22,48.58c.31-.19.45-.36.62-.38a2.71,2.71,0,0,1,.69.08c0,.14-.09.38-.15.38A9.13,9.13,0,0,1,82.22,48.58Z"/>
        <path class="cls-5" d="M23.65,39.05l-1.37.22c0-.22,0-.58.11-.63.52-.22,1-.24,1.23.45Z"/>
      </g>
    </g>
  </g>
</svg>
