<svg xmlns="http://www.w3.org/2000/svg" width="130.91" height="97" viewBox="0 0 130.91 97">
  <defs>
    <style>
      .cls-1 {
        fill: #050105;
      }

      .cls-2 {
        fill: #2622f6;
      }

      .cls-3 {
        fill: #fa0102;
      }

      .cls-4 {
        fill: #fcc;
      }

      .cls-5 {
        fill: #fddf8d;
      }

      .cls-6 {
        fill: #710020;
      }

      .cls-7 {
        fill: #fefefe;
      }
    </style>
  </defs>
  <g id="Layer_2" data-name="Layer 2">
    <g id="Layer_1-2" data-name="Layer 1">
      <g>
        <path class="cls-1" d="M97,21.84c1.72-1,2.29-2.1.78-3.81-1.31-1.48-3.85-2.7-1.4-5.26s6.31-3.64,8.23-1.69c3.66,3.72,4.45.26,5.86-1.46,3.34-4,5.24-4.77,9.8-3.14-.32,1.46.71,2.61.93,3.95-.7.38-1,1.38-.66,1.63,1,.66,2.13.09,3.14-.3,2.72-1,5-.59,6.48,2,1.33,2.38.13,4.52-1.73,5.81-3.49,2.42-.27,1.83.86,2.24l1.53,1.57c.55,3.4-1.17,5.31-4.19,6.36-3.05.25-6.55-1-8.64,2.51-1,4.55-1.82,9.21-4.85,13-2.53,1.27-1.36,2.61,0,3.86,3.63,3.41,4.86,7.64,4.93,12.54,0,1.9-1.62,2.9-1.45,4.62-.43,1.31-2.87,1.56-2.09,3.38,2.13,5-.43,9.16-1.94,13.55a31.36,31.36,0,0,1-4.34,6.48,10.41,10.41,0,0,1-6.06,1.54A132.54,132.54,0,0,0,80.1,93l-17.17.84-.89.29C51.33,95,40.63,96,29.92,96.9c-1.42.12-3,.37-4.11-.92C20.47,92.6,18.62,87.1,17,81.48c-.46-4,2.66-8.78-2.39-11.93-.26-.16,0-1-.14-1.55-.91-3-.52-6,0-9a12.92,12.92,0,0,1,1.72-2.66c3.74-3.42,3.59-6.84.36-10.49a10.78,10.78,0,0,1-2.15-5.52,4.63,4.63,0,0,0-2.47-3.22c-.74-2.45-2.61-1.34-4.2-1.44-2.7-.15-5.9.93-7.51-2.52-.06-.29-.13-.58-.19-.87,1-1.71.83-4.12,3.21-5,1-.36,1-1.3,0-1.71-3.56-1.52-2.53-4.35-2.15-7,3.07-2.65,6.34-1.37,9.91-.31-1.13-2.75-.43-5.33-.46-7.91,3.49.31,7.23-.58,10.21,2.25.28.26,1.25-.21,1.89-.34-.83,1.07-1.13,2,.17,3.07a2.58,2.58,0,0,0,3.62-.16c1-.87,2-2.1,3.34-2.05,2.18.08,4.54.1,5.84,2.48s.29,4.21-1.72,5.41c-2.21,1.32-1.57,2.43-.41,4.1,2.86,4.1,7.12,6,11.64,7.83.43-2.42,1.56-4.73-1.2-6.86a3.52,3.52,0,0,1-.59-4.75c2.52-3.52,3.6-7.52,4.29-11.68.6-.26,1.32-.88,1.77-.72,5.71,1.93,6.55-2.37,7.9-6,0-.12.09-.25.13-.38C61.9-2.29,67.7,1.5,72.81.3c2.94-.69,5.58,2,6.87,5.17.76,1.85,1.4,3.67,4.25,2.24,1.95-1,4,1.26,3.65,2.39-1.31,3.75.87,6,2.61,8.53C91,21.93,89,24,86.71,25.52s-1.18,2.89-.38,4.27c1.09,1.88,1.91.06,2.74-.44,1.32-.8,2.56-1.73,3.83-2.6v-.06C95.49,26.12,95.7,23.52,97,21.84Zm13.24,51v.37c-5.65,0-11.29,0-16.94,0-2.14,0-4.52-.29-6.37.52-6.81,3-13.88,1.42-20.69,1-2.79-.17-5-.82-8.11,0-4.68,1.25-9.53,2.5-14.74,1.92-6.24-.69-12.62-.11-18.94,0-1.15,0-2.77-.32-3.23,1C19.44,82.67,24.52,93.3,30,93c8.49-.54,17,.11,25.51-1.12,8.93-1.28,18.14-1.28,27.22-1.74C90,89.72,97,88,104.26,88.08a3.64,3.64,0,0,0,3.09-1.6c2.6-3.67,4.62-7.63,4.91-12.25.07-1,.38-2.3-1.33-2.3H91.8v.94ZM86.78,38.22C88.65,40.05,89,42,89.63,43.81c.55,1.61,0,2-1.55,2.32-2.46.54-4.19-1.76-6.55-1.31-2.67.52-2,4.16-4.62,4.73-.11,0-.2.2-.32.24a60.63,60.63,0,0,0-10.18,4.29c-1.66.79-2.65,1.52-2.69,3.39A10.33,10.33,0,0,1,63.1,61c-2.72,7,.06,9.51,6.77,11.66C74,74,77.67,72.18,81.56,72c3-.17,6.84-1.08,6.77-3.37s-3.73-4-7-3.41a3.38,3.38,0,0,1-4-2.07c-.77-1.81-.69-3.7,1.09-5.06a10.7,10.7,0,0,0,3.69-4.54c1.38-3.46,3.49-4.33,6.72-2.52,1.4.79,2.42,1.47,4.24.86a3.82,3.82,0,0,1,5,2.18,3.93,3.93,0,0,1-1.62,5.46c-3,1.85-2,5.47-3.59,8C92.12,68.6,93.9,69,95,68.94c3.47-.15,7,.45,10.4-.4.93-.23,2.38.75,2.73-.81S107,65.93,106,65.25c-3.36-2.26-3.48-4.53-.55-7,5.41-4.65,5.12-8.91-.7-13.19-1.6-1.18-3.44-1.91-5-3-.9-.66-3.14-.91-2.31-2.68s2.25-.06,3.43.1c2.68.37,3.58,3.1,5.74,4.19,1.35.67,2.47,1,3.6-.16.53-.55,1.28-1.15.53-2-1.39-1.58-3.24-3.71-4.94-3.5-3.93.48-7.74-.88-11.64-.09C92,38.26,89.7,38.09,86.78,38.22Zm-39,35.31c4.06.09,7-1.53,10-2.81a1.58,1.58,0,0,0,1-2.28c-.64-1.24-1.28-.08-1.92.13-2.08.67-4.28,0-4.56-1.9-.67-4.52-3.65-4.52-7-4.51-3.65,0-5.39-2.73-3.56-5.84,1.53-2.63,3.21-5,.11-7.66-.6-.52-.16-1.51-.14-2.31a13.5,13.5,0,0,0-4.86-10.92,4,4,0,0,0-6,.69c-1.07,1.77-1.18,5.85.44,6,4.73.52,1.85,2.3,1.13,3.81-.2.44-1,.71-.56,1.32a3.53,3.53,0,0,0,1.13.79c1.83,1.16,3.74,2.58,3.07,5.14s-2.89,3.63-5.34,4.12c-1.24.25-2.69-.24-3.51,1.27-1.72,3.19-4.43,4.23-8,3.64-.79-.13-2.08-.45-2.26.95-.14,1.15-.52,2.48.29,3.49,1.06,1.32,8.48.28,9-1.3.63-1.9,1.3-3.29,3.71-3.25s4.18.13,4.9,2.88c.37,1.45,1.49,2.21,3.26,2.09,2.28-.17,4.35.91,4.86,3.14C43.74,73.46,45.81,73.72,47.78,73.53Zm24.07-55.8c.93,1.44,2.22,2.55,1.12,4.17a1.76,1.76,0,0,1-2.15.69c-1.53-.62-1.7-1.79-1.09-3.31.22-.57-.25-.84-1.54-.71-3.25.33-5,2.86-6.75,5.11-1.09,1.43-3,3.45-1.22,5.3a4.59,4.59,0,0,0,6.24.05c3.73-3.12,5.6-.35,7.78,1.91C76,32.76,76.65,35,75.41,37.16s-3.78,2.21-5.8,1.58c-4-1.25-7.82.27-11.72.27-2.46,0-5.09,1.73-6.63-1.38-1.44-2.88,0-5.14,2.31-7,.73-.58,1.46-1.18,2.14-1.82,1.7-1.64,2.71-3.36,1.71-5.93-.92-2.37-.59-4.19,2.75-3.07.94.31,1.95-.69,1.61-1-1.45-1.4-3.48-1-5.33-1.08-1.31,0-2.7.12-2.29,1.87.54,2.35-.84,2.75-2.54,3-2.23.29-3.27,1.12-1.84,3.42.8,1.3-.46,2.23-.79,3.33-.94,3.21-2,6.49.57,9.45,2.35,2.72,5.1,3.14,8.82,2.72,4.42-.48,9.06,1.26,13.41-1.06.14-.08.45.25.7.34,4,1.3,7.94.23,9.78-2.64,2-3.2,2.07-8.69-.47-11.2-1.58-1.55-1.29-2.21.13-3.39,2.23-1.85,0-3.06-1.05-2.77-3.9,1.1-3.35-1.64-3.53-3.94C75.47,17.28,73.9,18.11,71.85,17.73Zm56.35,7.52c-.46-.28-.9-.75-1.38-.8-1.73-.15-3.47-.18-5.2-.23-1.06,0-2.29.22-2.55-1.26a2.3,2.3,0,0,1,1.59-2.84c1.61-.62,3.08-1.58,4.67-2.24,1.09-.45,2.72-.7,2-2.17a2.29,2.29,0,0,0-3.45-.62c-1.77,1.14-3.83,1.81-5.69,2.83-1.07.59-1.84.89-2.73-.29-.75-1-.94-1.73-.07-2.8s1.25-2.3,2-3.38c.58-.86,1-1.75.1-2.44a2.11,2.11,0,0,0-2.62.15,51.53,51.53,0,0,0-4,4c-3.78,4.06-3.79,4.11-7.72.68-1.22-1.05-2.12-1.23-3.44-.09-1.83,1.58,0,2.12.65,3,1.66,2.5,2.59,4.69-.71,6.91s-3,4.17.55,6.09,6.51,4.58,9.7,7c1.14.84,1.9,2.74,3.57,1.93s1.55-3,1.11-4.34c-.92-2.79.67-3.92,2.36-5.49,2.07-1.92,4.3-1.93,6.72-1.5C125.64,27.64,127.29,27.36,128.2,25.25ZM3.12,32.06c4.34.78,8.75-1,12.16,3.15,1,1.28,3.13,1.16,1.77,3.63a3,3,0,0,0,1,3.63c.94.65,1.68-.92,2.38-1.67a43.93,43.93,0,0,1,11.3-8.88c2.86-1.56,2.29-2.69.05-4.17-3.39-2.23-3.49-5.36-.45-8.34.67-.66,2.74-1.06,1.13-2.64a2.72,2.72,0,0,0-3.68-.14,7.5,7.5,0,0,0-1.59,2.24c-1.4,2.38-3,2.72-5.19.87a39.17,39.17,0,0,1-5.14-5.08,2.22,2.22,0,0,0-3.18-.58c-1.34.86-.64,1.77.15,2.62,1.36,1.49,2.27,3,.58,4.92S11,22,9.31,21.54c-1.88-.57-4.41-3-5.42-.35-.84,2.19,2.62,2.31,4.32,2.95s3.16,1.53,2.92,3.29-2,2.41-3.69,2.43C5.86,29.87,4.25,29.75,3.12,32.06ZM96,54.41a5.38,5.38,0,0,0-1.54-.27c-2.8.43-5.8,2.67-7.83-1.62-.52-1.11-2.37.22-2.3,1.09.25,3.1-1.35,4.63-3.85,5.82-.58.27-1.55.9-1.23,1.79.39,1.07,1.5,1,2.42.83a6.41,6.41,0,0,0,2.18-.94c1.73-1.19,2.72-.66,3.18,1.22.41,1.67,1.33,3.34,3.08,2.58s1.44-2.47.34-4.07-.81-2.78,1.45-2.82A3.77,3.77,0,0,0,96,54.41ZM20.74,71.1c5.7,2.56,11.5,2,17.35.85.85-.17,2.54.59,2.08-1.37-.33-1.39-1.79-1.4-2.68-1C34,71.23,32.9,69.8,33,66.41c.06-1.37-.81-1.86-2.09-1.85-1.08,0-2.66-.12-2.62,1.19.16,4.44-2.13,4.71-5.51,3.72C22,69.22,21.26,69.73,20.74,71.1Zm94.54-11.22a13.71,13.71,0,0,0-2-5.71c-.56-.92-.5-2.81-2.14-2-1.16.6-.31,2,.29,2.82,1.94,2.74,1.53,4-2.06,4-1.54,0-3.84.6-3.55,2.44.56,3.59,5.54-.26,6.65,3.41.26.84,1-.27,1.29-.65A7.42,7.42,0,0,0,115.28,59.88Zm-87-5.68c.9,0,1.57,0,2.23,0a2.85,2.85,0,0,0,3-2.14c.13-1-1.58-1.59-2.69-2-4.4-1.57-6.95,1.26-9.61,4a4.42,4.42,0,0,0-1,4.78c.29.92,1.17,1,2,.92a3.21,3.21,0,0,0,2.65-3.13C25.17,54.21,26.44,53.83,28.23,54.2Zm18-4.23c-.21,3.49.36,5.84-2.21,7-.6.26-1,1.17-.59,1.67a1.89,1.89,0,0,0,1.82.29c1.88-1.15,3.44-1.16,4.81.75.35.51.79,1.16,1.59.64s1.15-1.48.65-2.07c-2.89-3.37.38-4.3,3-5.91C52,51.27,48.91,53.92,46.26,50ZM102,34.35c-3.71-4.5-8.44-5.45-11.56-2.43-.85.82-1.51,1.75-.75,2.76a1.9,1.9,0,0,0,3,.09c1.64-2.38,3.22-1.49,5.08-.48A4.75,4.75,0,0,0,102,34.35ZM58.78,54.2c1.79-3.9-.58-6.35-2.74-7.66-2.41-1.45-5.68-1.26-8.1,1.69C51.42,50.51,57.64,47.45,58.78,54.2ZM60.19,6.9H75.91c-2.13-3.07-4.09-4.1-6.69-1.51-.93.93-2.26,1.66-3.09.4C63.48,1.8,62,5.34,60.19,6.9ZM75.87,46.13c-.13-1.05-.81-1.43-1.82-1.73-4.09-1.19-5.69,2-7.68,4.36-.37.44-1.34,1.29-.38,2a1.34,1.34,0,0,0,2-.64c1.24-2.44,3.34-2.76,5.73-2.51A1.88,1.88,0,0,0,75.87,46.13ZM60.08,10.82c5.7,2.13,11.22,1.28,16.68-.75C71.13,9.06,65.65,10.7,60.08,10.82ZM62.37,51c1-2.33,3.11-3.91,2-5.65-.62-1-3.85-2-4.59-.73C58.39,47,61.67,48.24,62.37,51Zm-2,8.46c-1.75,1.87-5.13,0-6.16,3.81,2.5-1.28,3.34,1.4,5.16,1.85A7.28,7.28,0,0,0,60.4,59.44Zm-35-15c1.18,0,2.71.19,2.65-1.52a2.69,2.69,0,0,0-5.35-.13C22.67,44.13,24.25,44.27,25.44,44.4Zm1.92,30.95c5.06.77,9.93,1.21,14.79,0Z"/>
        <path class="cls-2" d="M110.23,72.86H91.81v-.94h19.13c1.71,0,1.4,1.28,1.33,2.3-.29,4.62-2.31,8.58-4.91,12.25a3.64,3.64,0,0,1-3.09,1.6C97,88,90,89.72,82.74,90.09c-9.08.46-18.29.46-27.22,1.74C47,93.06,38.5,92.41,30,93c-5.49.35-10.57-10.28-8.8-15.35.46-1.29,2.08-.95,3.23-1,6.32-.07,12.7-.65,18.94,0,5.21.58,10.06-.67,14.74-1.92,3.08-.82,5.32-.17,8.11,0,6.81.44,13.88,2,20.69-1,1.85-.81,4.23-.5,6.37-.52,5.65-.06,11.29,0,16.94,0ZM80.64,76.42l0-.22H66.29v.22Z"/>
        <path class="cls-3" d="M86.78,38.22c2.92-.13,5.21,0,7.38-.4,3.9-.79,7.71.57,11.64.09,1.7-.21,3.55,1.92,4.94,3.5.75.87,0,1.47-.53,2-1.13,1.17-2.25.83-3.6.16-2.16-1.09-3.06-3.82-5.74-4.19-1.18-.16-2.56-1.93-3.43-.1s1.41,2,2.31,2.68c1.55,1.13,3.39,1.86,5,3,5.82,4.28,6.11,8.54.7,13.19-2.93,2.51-2.81,4.78.55,7,1,.68,2.44,1,2.11,2.48s-1.8.58-2.73.81c-3.43.85-6.93.25-10.4.4-1.07,0-2.85-.34-2.13-1.45,1.62-2.52.6-6.14,3.59-8A3.93,3.93,0,0,0,98.05,54a3.82,3.82,0,0,0-5-2.18c-1.82.61-2.84-.07-4.24-.86-3.23-1.81-5.34-.94-6.72,2.52a10.7,10.7,0,0,1-3.69,4.54c-1.78,1.36-1.86,3.25-1.09,5.06a3.38,3.38,0,0,0,4,2.07c3.3-.64,7,1.21,7,3.41S84.51,71.8,81.56,72c-3.89.21-7.52,2-11.69.68C63.16,70.5,60.38,68,63.1,61a10.33,10.33,0,0,0,.62-3.52c0-1.87,1-2.6,2.69-3.39a60.63,60.63,0,0,1,10.18-4.29c.12,0,.21-.21.32-.24,2.57-.57,2-4.21,4.62-4.73,2.36-.45,4.09,1.85,6.55,1.31,1.55-.34,2.1-.71,1.55-2.32C89,42,88.65,40.05,86.78,38.22Z"/>
        <path class="cls-3" d="M47.78,73.53c-2,.19-4-.07-4.79-3.29-.51-2.23-2.58-3.31-4.86-3.14-1.77.12-2.89-.64-3.26-2.09-.72-2.75-2.62-2.83-4.9-2.88s-3.08,1.35-3.71,3.25c-.51,1.58-7.93,2.62-9,1.3-.81-1-.43-2.34-.29-3.49.18-1.4,1.47-1.08,2.26-.95,3.52.59,6.23-.45,8-3.64.82-1.51,2.27-1,3.51-1.27,2.45-.49,4.67-1.5,5.34-4.12s-1.24-4-3.07-5.14a3.53,3.53,0,0,1-1.13-.79c-.4-.61.36-.88.56-1.32.72-1.51,3.6-3.29-1.13-3.81-1.62-.18-1.51-4.26-.44-6a4,4,0,0,1,6-.69,13.5,13.5,0,0,1,4.86,10.92c0,.8-.46,1.79.14,2.31,3.1,2.66,1.42,5-.11,7.66-1.83,3.11-.09,5.85,3.56,5.84,3.33,0,6.31,0,7,4.51.28,1.92,2.48,2.57,4.56,1.9.64-.21,1.28-1.37,1.92-.13a1.58,1.58,0,0,1-1,2.28C54.77,72,51.84,73.62,47.78,73.53Z"/>
        <path class="cls-4" d="M71.85,17.73c2.05.38,3.62-.45,5.5-.88.18,2.3-.37,5,3.53,3.94,1.06-.29,3.28.92,1.05,2.77-1.42,1.18-1.71,1.84-.13,3.39,2.54,2.51,2.52,8,.47,11.2-1.84,2.87-5.79,3.94-9.78,2.64-.25-.09-.56-.42-.7-.34-4.35,2.32-9,.58-13.41,1.06-3.72.42-6.47,0-8.82-2.72-2.55-3-1.51-6.24-.57-9.45.33-1.1,1.59-2,.79-3.33-1.43-2.3-.39-3.13,1.84-3.42,1.7-.23,3.08-.63,2.54-3-.41-1.75,1-1.91,2.29-1.87,1.85.06,3.88-.32,5.33,1.08.34.33-.67,1.33-1.61,1-3.34-1.12-3.67.7-2.75,3.07,1,2.57,0,4.29-1.71,5.93-.68.64-1.41,1.24-2.14,1.82-2.3,1.83-3.75,4.09-2.31,7C52.8,40.74,55.43,39,57.89,39c3.9,0,7.74-1.52,11.72-.27,2,.63,4.55.61,5.8-1.58s.57-4.4-1.17-6.22c-2.18-2.26-4-5-7.78-1.91A4.59,4.59,0,0,1,60.22,29c-1.81-1.85.13-3.87,1.22-5.3,1.73-2.25,3.5-4.78,6.75-5.11,1.29-.13,1.76.14,1.54.71-.61,1.52-.44,2.69,1.09,3.31A1.76,1.76,0,0,0,73,21.9C74.07,20.28,72.78,19.17,71.85,17.73Z"/>
        <path class="cls-4" d="M128.2,25.25c-.91,2.11-2.56,2.39-4.58,2-2.42-.43-4.65-.42-6.72,1.5-1.69,1.57-3.28,2.7-2.36,5.49.44,1.34.61,3.51-1.11,4.34s-2.43-1.09-3.57-1.93c-3.19-2.37-6.17-5-9.7-6.95s-3.82-3.88-.55-6.09,2.37-4.41.71-6.91c-.6-.91-2.48-1.45-.65-3,1.32-1.14,2.22-1,3.44.09,3.93,3.43,3.94,3.38,7.72-.68a51.53,51.53,0,0,1,4-4A2.11,2.11,0,0,1,117.45,9c.89.69.48,1.58-.1,2.44-.73,1.08-1.17,2.38-2,3.38s-.68,1.8.07,2.8c.89,1.18,1.66.88,2.73.29,1.86-1,3.92-1.69,5.69-2.83a2.29,2.29,0,0,1,3.45.62c.74,1.47-.89,1.72-2,2.17-1.59.66-3.06,1.62-4.67,2.24A2.3,2.3,0,0,0,119.07,23c.26,1.48,1.49,1.23,2.55,1.26,1.73.05,3.47.08,5.2.23C127.3,24.5,127.74,25,128.2,25.25Zm-15.91-3.43c0-.63.82-1.79-.58-1.67-3,.26-1.41,3.85-3.37,5-.25.14-.17,1.61.72,1.36C111.34,25.9,112.25,24.11,112.29,21.82Z"/>
        <path class="cls-4" d="M3.12,32.06c1.13-2.31,2.74-2.19,4.32-2.2,1.74,0,3.45-.69,3.69-2.43S9.9,24.77,8.21,24.14s-5.16-.76-4.32-2.95c1-2.64,3.54-.22,5.42.35,1.65.5,3.29,2.15,5.08.08s.78-3.43-.58-4.92c-.79-.85-1.49-1.76-.15-2.62a2.22,2.22,0,0,1,3.18.58A39.17,39.17,0,0,0,22,19.74c2.23,1.85,3.79,1.51,5.19-.87a7.5,7.5,0,0,1,1.59-2.24,2.72,2.72,0,0,1,3.68.14c1.61,1.58-.46,2-1.13,2.64-3,3-2.94,6.11.45,8.34,2.24,1.48,2.81,2.61-.05,4.17a43.93,43.93,0,0,0-11.3,8.88c-.7.75-1.44,2.32-2.38,1.67a3,3,0,0,1-1-3.63c1.36-2.47-.72-2.35-1.77-3.63C11.87,31,7.46,32.84,3.12,32.06ZM19.52,24a7.26,7.26,0,0,0-.05,4.56c.39,1,.83,2.65,2.38,2.06a1.76,1.76,0,0,0,.38-3C21.06,26.66,21.51,24.74,19.52,24Z"/>
        <path class="cls-5" d="M96,54.41A3.77,3.77,0,0,1,91.93,58c-2.26,0-2.5,1.29-1.45,2.82s1.34,3.34-.34,4.07-2.67-.91-3.08-2.58c-.46-1.88-1.45-2.41-3.18-1.22a6.41,6.41,0,0,1-2.18.94c-.92.2-2,.24-2.42-.83-.32-.89.65-1.52,1.23-1.79,2.5-1.19,4.1-2.72,3.85-5.82-.07-.87,1.78-2.2,2.3-1.09,2,4.29,5,2,7.83,1.62A5.38,5.38,0,0,1,96,54.41Z"/>
        <path class="cls-5" d="M20.74,71.1c.52-1.37,1.22-1.88,2.08-1.63,3.38,1,5.67.72,5.51-3.72,0-1.31,1.54-1.17,2.62-1.19,1.28,0,2.15.48,2.09,1.85-.14,3.39.92,4.82,4.45,3.18.89-.41,2.35-.4,2.68,1,.46,2-1.23,1.2-2.08,1.37C32.24,73.13,26.44,73.66,20.74,71.1Z"/>
        <path class="cls-5" d="M115.28,59.88a7.42,7.42,0,0,1-1.54,4.37c-.28.38-1,1.49-1.29.65-1.11-3.67-6.09.18-6.65-3.41-.29-1.84,2-2.43,3.55-2.44,3.59,0,4-1.3,2.06-4-.6-.85-1.45-2.22-.29-2.82,1.64-.83,1.58,1.06,2.14,2A13.71,13.71,0,0,1,115.28,59.88Z"/>
        <path class="cls-5" d="M28.23,54.2c-1.79-.37-3.06,0-3.35,2.46a3.21,3.21,0,0,1-2.65,3.13c-.84.11-1.72,0-2-.92a4.42,4.42,0,0,1,1-4.78c2.66-2.75,5.21-5.58,9.61-4,1.11.39,2.82,1,2.69,2a2.85,2.85,0,0,1-3,2.14C29.8,54.17,29.13,54.2,28.23,54.2Z"/>
        <path class="cls-5" d="M46.26,50c2.65,4,5.74,1.3,9.08,2.34-2.63,1.61-5.9,2.54-3,5.91.5.59.14,1.57-.65,2.07s-1.24-.13-1.59-.64c-1.37-1.91-2.93-1.9-4.81-.75a1.89,1.89,0,0,1-1.82-.29c-.42-.5,0-1.41.59-1.67C46.62,55.81,46.05,53.46,46.26,50Z"/>
        <path class="cls-5" d="M102,34.35a4.75,4.75,0,0,1-4.18-.06c-1.86-1-3.44-1.9-5.08.48a1.9,1.9,0,0,1-3-.09c-.76-1-.1-1.94.75-2.76C93.55,28.9,98.28,29.85,102,34.35Z"/>
        <path class="cls-6" d="M58.78,54.2c-1.14-6.75-7.36-3.69-10.84-6,2.42-2.95,5.69-3.14,8.1-1.69C58.2,47.85,60.57,50.3,58.78,54.2Z"/>
        <path class="cls-6" d="M60.19,6.9C62,5.34,63.48,1.8,66.13,5.79c.83,1.26,2.16.53,3.09-.4,2.6-2.59,4.56-1.56,6.69,1.51Z"/>
        <path class="cls-5" d="M75.87,46.13a1.88,1.88,0,0,1-2.12,1.5c-2.39-.25-4.49.07-5.73,2.51a1.34,1.34,0,0,1-2,.64c-1-.73,0-1.58.38-2,2-2.39,3.59-5.55,7.68-4.36C75.06,44.7,75.74,45.08,75.87,46.13Z"/>
        <path class="cls-7" d="M60.08,10.82c5.57-.12,11-1.76,16.68-.75C71.3,12.1,65.78,13,60.08,10.82Z"/>
        <path class="cls-5" d="M62.37,51c-.7-2.74-4-4-2.56-6.38.74-1.26,4-.27,4.59.73C65.48,47.07,63.37,48.65,62.37,51Z"/>
        <path class="cls-6" d="M60.4,59.44a7.28,7.28,0,0,1-1,5.66c-1.82-.45-2.66-3.13-5.16-1.85C55.27,59.48,58.65,61.31,60.4,59.44Z"/>
        <path class="cls-5" d="M25.43,44.41c-1.18-.14-2.76-.28-2.69-1.66a2.69,2.69,0,0,1,5.35.13C28.15,44.59,26.62,44.39,25.43,44.41Z"/>
        <path class="cls-2" d="M27.36,75.35H42.15C37.29,76.56,32.42,76.12,27.36,75.35Z"/>
        <path class="cls-1" d="M112.28,21.82c0,2.29-.94,4.08-3.22,4.71-.89.25-1-1.22-.72-1.36,2-1.17.39-4.76,3.37-5C113.11,20,112.27,21.19,112.28,21.82Z"/>
        <path class="cls-1" d="M19.52,24c2,.75,1.54,2.67,2.71,3.63a1.76,1.76,0,0,1-.38,3c-1.55.59-2-1-2.38-2.06A7.26,7.26,0,0,1,19.52,24Z"/>
      </g>
    </g>
  </g>
</svg>
