<svg xmlns="http://www.w3.org/2000/svg" width="145.86" height="115.25" viewBox="0 0 145.86 115.25">
  <defs>
    <style>
      .cls-1 {
        fill: #050105;
      }

      .cls-2 {
        fill: #fcc;
      }

      .cls-3 {
        fill: #fa0102;
      }

      .cls-4 {
        fill: #fefefe;
      }

      .cls-5 {
        fill: #fddf8d;
      }

      .cls-6 {
        fill: #2622f6;
      }
    </style>
  </defs>
  <g id="Layer_2" data-name="Layer 2">
    <g id="Layer_1-2" data-name="Layer 1">
      <g>
        <path class="cls-1" d="M144.27,62.64c1.67,4.69,1.44,5.12-4.19,7.82-5.49,1-11.06.8-16.61.89a48.77,48.77,0,0,0-15.7,3.94l8,3.36c3.74,1.13,6.51,3.63,9.09,6.4.2,3.63.35,7.18-3.93,8.91-1.6.65-1.08,2.3-1,3.56.2,3.79,2.58,13,1,16.32-1.29,2.8-8.5.58-12.13.55l-60.86-.51c-6.52,0-14.93,1.32-21.25-.17-4.63-1.1-4.19-6.48-4.45-10.71-.1-1.69.55-3.52-.79-5l0-.2c0-2.92-.08-5.84,0-8.77.07-4.72-1.06-8.85-5.48-11.41l-.09.06c.14-2.13-.27-3.23-3-3.34-3.44-.14-7-.71-9.79-3.28a5.89,5.89,0,0,0-1.1-3.33c1.18-4.41,5.12-2.36,8.1-3.28-4.5-3-11.24-3.89-9.84-11.5l1.14-1.11a20.5,20.5,0,0,1,7.86.88c.25.76.76.84,1.42.56L9.9,52.18,5.28,47.54c0-.94,0-1.88,0-2.82l2.26-2.58.07,0c1.05.06,2.11.06,3.15.2,2.42.3,5,4,6.2,2.5,1.4-1.76-1.59-4.73-2.14-7.36a4.49,4.49,0,0,0-.79-1.28c-.58-3.85-2.53-7.2-3.95-10.74-2.21-5.52-.66-8.14,5.24-8.24,2.88-.05,4.47-1.31,5.24-3.92,3.08-2.25,6.45-2.74,9.76-.82,2.55,1.48,2.49-.85,3.39-1.85,3.48-1.82,7-2.26,10.7-.53.35.16.88.6,1,.5,3.86-3,6.76-.88,9.86,1.52,1.28,1,1.56-.41,1.7-1.6.56-4.67,4.82-9.34,9.22-10.26,4.8-1,11.52,1.61,14.07,5.53a19.45,19.45,0,0,1,3.18,6.68c2.08-1.21,3.35-4.2,5.14-3.7,4.43,1.26,8.55-1.43,12.61-.55,3.63.79,6.68,3.61,10.82.75,1.4-1,4.1.41,6,1.36,4,3.33,4.78,6.6,2.87,11.26-.36.86-1.16,1.91.21,2.7,2.23,5,1.95,7.92-3.59,10.62,0,2.15-3.6,5.24,1.57,6a8.39,8.39,0,0,1,4.41,5.3c2.18-2.35,4.86-3.83,7.36-5.55,2.12-1.46,4.53-2.25,6.37.06s2.08,4.82-.67,6.91a28.91,28.91,0,0,0-2.69,2.79c4-.77,7.17-5.1,10.78-1,1.53,1.73,1.38,3.57.38,5.48l-8.74,6.66C139.72,61.19,142.3,60.3,144.27,62.64ZM97,26l.9.44c6.23,1.62,10,5.8,11.48,11.85.8,3.25,2.3,1.73,3.4.74,2.73-2.42,1.24-4.63-.71-6.67l5.38-1.62c2.73-.34,2-2.55,1.67-3.9-.33-1.52-1.54-2.81-3.54-1.84-.78-.76-2.44-1.17-1.12-2.78,2.84-.05,4.44-1.4,4.57-4.32,0-.28,0-.56,0-.84.38-3.69-2.4-4.82-5-5.48-3.18-.8-4.75,1.53-5.81,4.15-1-.23-2.11-.26-2.84-1.17-2.32-4.41-5.49-5.35-9-2.58a9.89,9.89,0,0,0-3.08,3.47l-2.43,2.32-5.22,3.47c.81,5.46,3.87,6.62,8.54,4.78A8.14,8.14,0,0,1,97,26ZM38.43,31.57l3.44-2.76,4.64-1.95a14,14,0,0,1,4.75.42c1.23.35,3.46,1.59,4-.94.37-1.93,2-4.3-1.09-5.83a39.94,39.94,0,0,1-9.52-7.12c-3.42-3.23-7.82-2.54-9.86,1.63-1.2,2.45-2.12,2-3.85.69-2.15-1.62-4.76-2.24-7.12-.66a5.86,5.86,0,0,0-2.36,6c.43,3,2.94,3.41,5.23,4.06L27.17,27c-.24.38-.15,1-1,.89-1.14-.14-2.31-1.13-3.31.77a3.83,3.83,0,0,0,.39,4.4c.85,1.28,2.17,2.38,3.73,1.71,3.72-1.6,3.81-.84,2.52,2.69-1,2.71,1.75,4.44,4,5,2.89.67,1.19-2.12,1.71-3.27.93-2,1.58-4.22,2.35-6.34Zm69.41,12.37c.19-4.27-.57-7.95-3.19-11.11-3.08-3.7-7.27-5.41-11.7-4.28a22.25,22.25,0,0,0-12.63,9.38C76.67,43.41,70,45.35,66.25,40.06c-2.59-3.62-6.15-5.31-9.3-7.72-7-5.38-14.68-3.4-18.32,4.23-4.18,8.75,1,21.28,10.2,24.48,1.85.64,4.17,1.25,5.44.2,4.43-3.67,8.35-1.46,12.66.06s8.9,2.11,13.31-.55c3.83-2.31,7.79-3.86,12.32-1.2,1.87,1.1,10.11-1.74,11.28-3.62C106.17,52.19,108.39,48.35,107.84,43.94Zm-85,13c0-6.89-5.52-8.38-10-10.87-1.31-.73-3-2.15-4.2-.47-1.38,1.91.43,3,1.89,4a36.2,36.2,0,0,1,4.31,3.5,2.61,2.61,0,0,1,.63,3.3c-.8,1.39-1.85.84-3,.31-1.78-.8-3.66-1.38-5.51-2-1.47-.5-3.28-1.31-4.17.47s.85,3,2.12,3.83c1.66,1.06,3.64,1.58,5.36,2.56s4.44,1.47,4.09,3.7c-.4,2.48-3.11,1.88-5.07,1.92h-.4c-1.4.08-3.4-.44-3.49,1.57-.08,1.67,1.82,2,3.21,2.45,3.12,1,6.27.09,9.38.23,2.64.11,5.65,1.23,7.84.06C28.45,70.08,27,66.35,28,64c2.25-5.08,3.49-10,.64-15.16-.48-.87.83-2.55-1.34-2.69-2-.12-2.41,1-2.79,2.64-.46,2-1.29,3.79-.18,5.8C24.9,55.53,24.08,56,22.85,56.93ZM129.32,68.54a39.16,39.16,0,0,1,4.33.28c1.83.28,3.41-.56,5.08-.91,1.49-.3,3.73-.8,3.67-2.41-.08-2.22-2.4-1.4-3.88-1.54a12.15,12.15,0,0,1-2-.06c-1.4-.37-3-.71-3.46-2.27s1.18-2.1,2.25-2.87c2.17-1.55,4.6-2.73,6.47-4.71a2.77,2.77,0,0,0,.7-3.29c-.85-1.36-2.22-.42-3.14.22-1.88,1.32-4.09,1.8-6.09,2.75a2.49,2.49,0,0,1-3.36-.87c-.7-.92-.32-2.25.72-3.21,1.67-1.55,3.2-3.25,4.86-4.82.71-.67.94-1.45.39-2.1a2.43,2.43,0,0,0-1.81-.55c-2.8.19-9.65,6.71-10,9.58-.11.85-.17,1.87-1,1.93-1.11.06-1.36-1-1.32-1.95.08-2.29.17-4.55-1.06-6.64-.74-1.25-1.87-2.3-3.15-2-.94.24-1.28,1.7-1.5,2.92a23.07,23.07,0,0,0,2.3,16C121.74,68.56,121.21,68.84,129.32,68.54Zm-76.21,1c0-5-.56-5.69-5.45-6.43a15.47,15.47,0,0,1-2.33-.55c-7.22-2.3-7.26-2.28-8.73,5-.93,4.6.74,6.73,5.38,6.93,2.26.1,4.54-.33,6.77.48,2.74,1,4.48.32,4.36-3C53.08,71.15,53.1,70.35,53.11,69.55ZM101,72.77c2.68.64,4.94-.9,7.39-1.3,2.8-.45,4.47-1.44,3.47-4.31s.32-7.18-4.8-7.55c-3.84-.28-7,2.53-10.81,2.13a1.15,1.15,0,0,0-.86.72,20.88,20.88,0,0,0,.91,9.44C96.83,73.83,99.39,72.44,101,72.77ZM64.79,80.43c.65,1,1.85.62,2.84.62,9.53,0,19.07,0,28.6-.17,1.19,0,2.85.75,3.42-1.14a2.87,2.87,0,0,0-1.3-3.16,2.58,2.58,0,0,0-3.64.17c-4,4-7.88,2.41-11.88-.09-1.3-.81-2.58-2.69-4.16-2C74.12,76.73,68.13,74.94,64.79,80.43Zm8.57-45.1c1-.67,0-2.42,2-2.48.73,0,.9-.14.6-.89-1-2.51-5.06-3.49-7.41-1.8s-3.39,4.13-2.37,6.57c1.38,3.28,4.39,4.29,8,3.8,1.76-.24,3.07-1,3.57-2.56.35-1.07.53-2.83-.07-3.45C76.17,33,75.42,36.09,73.36,35.33ZM57.62,26.61c.11,1.77-.08,2.69.26,3.35.78,1.53,1.71,3.06,3.69,3.27.76.08,1.37.18,1.92-.84,1.08-2-.1-2.82-1.41-3.86a1.78,1.78,0,0,1-.16-2.74c1.17-1.39,2.2-.6,2.93.44,1.5,2.12,3,1.4,4.29,0,1.86-2.08-.69-2.88-1.62-3.65a5.72,5.72,0,0,0-6.68-.48C58.55,23.27,57.4,25,57.62,26.61Zm21.29-5.52a6.89,6.89,0,0,0-4.71,2.46c-.83.94-2.19,2.13-.28,3.13,1,.49,2.41,2.66,3.48-.35.68-1.91,2.29-1.33,3.56-.2s.87,2.36-.38,2.81c-2.22.8-1.59,2.09-.72,3.22,1.17,1.54,2.56.93,3.73-.17A6.07,6.07,0,0,0,85,25,6.47,6.47,0,0,0,78.91,21.09Zm14.44,45.4c-4.06,1.38-7.45,1.24-9.86-2.63-.43-.68-1-1.85-2.13-1.19-.66.37-1.5,1.11-1.54,1.73-.06,1,1,1.49,1.82,1.89,3.27,1.56,5.61,3.49,3.8,7.64-.56,1.3.5,1.95,1.64,2.09.68.08,2.23.17,1.91-.56C87,70.82,90.11,68.77,93.35,66.49ZM78.9,69.86c-.16-2.5-.57-4.29-2-4.92s-1.53,1.45-2.4,2.17a8.74,8.74,0,0,1-2.74,1.53c-2.65.93-1.92,2.4-.51,3.84,1.62,1.66,3.59.71,5.24.23S79.11,70.94,78.9,69.86Zm-20.3,2c2.46.43,5.13-.6,7.07,1.65.35.4,1.61.27,2.11-.54.62-1-.31-1.46-.91-1.77a5.8,5.8,0,0,1-3.58-6c.26-4,.19-4-4-3.17C62.46,68.28,62.44,68.71,58.6,71.9Zm58.85-5.68a22.9,22.9,0,0,0-3.51-8.69,1.71,1.71,0,0,0-2.1-.73,1.07,1.07,0,0,0-.52,1.66,24,24,0,0,1,2.46,9.13,2.26,2.26,0,0,0,2.27,1.91C117.26,69.35,117.68,68.29,117.45,66.22ZM29.71,68.89c.4,1.1.26,3.09,2.18,3s1.45-2,1.48-3.13c.06-2.69.26-5.27,1.63-7.71a1.87,1.87,0,0,0-1.1-2.65c-1.12-.44-1.58.61-2,1.45C30.59,62.66,30.33,65.69,29.71,68.89Zm78.05-14.44c5.45-1.18,6.53-3.78,5.34-12.08C108,45.09,112,51.54,107.76,54.45ZM62.4,81.8c-2.65-1.61-4.73-2-6.26-3.59a2.44,2.44,0,0,0-3-.19,1.78,1.78,0,0,0-.9,2c.29,1.54,1.59,1.13,2.55,1.22C57.07,81.49,59.32,81.59,62.4,81.8ZM87.12,64.5c2.73.53,4.2.12,4.42-1.66s-1.13-2.67-2.71-2.74-3.21.31-3.47,2A2.1,2.1,0,0,0,87.12,64.5ZM73,5.79A2.32,2.32,0,0,0,70.7,8.22C70.63,10,72,10.43,73.29,10.55a1.85,1.85,0,0,0,2.18-2.17A3.21,3.21,0,0,0,73,5.79ZM64.14,76.25c0-1.34-1.32-1.2-2-1.48-1.21-.5-2.08.52-2.27,1.59s.78,1.15,1.61,1.2A2.4,2.4,0,0,0,64.14,76.25Zm-6.4-11.33c-.8,1.37-1.84,2.75-.52,4.5C58.85,68,58.42,66.44,57.74,64.92Z"/>
        <path class="cls-2" d="M107.84,43.94c.55,4.41-1.67,8.25-4,12-1.17,1.88-9.41,4.72-11.28,3.62-4.53-2.66-8.49-1.11-12.32,1.2-4.41,2.66-8.93,2.1-13.31.55s-8.23-3.73-12.66-.06c-1.27,1-3.59.44-5.44-.2-9.17-3.2-14.38-15.73-10.2-24.48C42.27,28.94,49.91,27,57,32.34c3.15,2.41,6.71,4.1,9.3,7.72,3.78,5.29,10.42,3.35,14.07-2.13A22.25,22.25,0,0,1,93,28.55c4.43-1.13,8.62.58,11.7,4.28C107.27,36,108,39.67,107.84,43.94Zm-7.15-8.06c-3.26-4.88-7.5-5.43-10.63-1.42-1.61,2.06-1.16,4.6-.64,6.53,1.51,5.58-2.1,8.11-5.71,10.44A19.06,19.06,0,0,1,67,53.81c-6-1.89-11.74-4.08-11.61-12A14.75,14.75,0,0,0,55.25,39a5.83,5.83,0,0,0-4.32-4.75c-2.3-.65-4.69-.66-6.67,1.47-3.21,3.46-1.54,8.36,3.31,10.47,2.86,1.24,6,1,8.75,3.41,11,9.88,25.32,9.54,34.51-2.11a7.62,7.62,0,0,1,2.85-1.78c2-.89,5-.56,6.17-3.14C101.69,40.56,101.76,38.29,100.69,35.88Z"/>
        <path class="cls-2" d="M22.85,56.93c1.23-.89,2-1.4,1.52-2.34-1.11-2-.28-3.85.18-5.8.38-1.61.82-2.76,2.79-2.64,2.17.14.86,1.82,1.34,2.69C31.53,54.05,30.29,58.92,28,64c-1,2.35.41,6.08-2.22,7.5-2.19,1.17-5.2,0-7.84-.06-3.11-.14-6.26.8-9.38-.23-1.39-.46-3.29-.78-3.21-2.45.09-2,2.09-1.49,3.49-1.57h.4c2,0,4.67.56,5.07-1.92.35-2.23-2.45-2.76-4.09-3.7S6.56,60.07,4.9,59c-1.27-.82-3-2-2.12-3.83s2.7-1,4.17-.47c1.85.64,3.73,1.22,5.51,2,1.16.53,2.21,1.08,3-.31a2.61,2.61,0,0,0-.63-3.3,36.2,36.2,0,0,0-4.31-3.5c-1.46-1-3.27-2.12-1.89-4,1.21-1.68,2.89-.26,4.2.47C17.33,48.55,22.86,50,22.85,56.93Z"/>
        <path class="cls-2" d="M129.32,68.54c-8.11.3-7.58,0-11.1-6.51a23.07,23.07,0,0,1-2.3-16c.22-1.22.56-2.68,1.5-2.92,1.28-.32,2.41.73,3.15,2,1.23,2.09,1.14,4.35,1.06,6.64,0,.95.21,2,1.32,1.95.87-.06.93-1.08,1-1.93.4-2.87,7.25-9.39,10-9.58a2.43,2.43,0,0,1,1.81.55c.55.65.32,1.43-.39,2.1-1.66,1.57-3.19,3.27-4.86,4.82-1,1-1.42,2.29-.72,3.21a2.49,2.49,0,0,0,3.36.87c2-.95,4.21-1.43,6.09-2.75.92-.64,2.29-1.58,3.14-.22a2.77,2.77,0,0,1-.7,3.29c-1.87,2-4.3,3.16-6.47,4.71-1.07.77-2.71,1.18-2.25,2.87s2.06,1.9,3.46,2.27a12.15,12.15,0,0,0,2,.06c1.48.14,3.8-.68,3.88,1.54.06,1.61-2.18,2.11-3.67,2.41-1.67.35-3.25,1.19-5.08.91A39.16,39.16,0,0,0,129.32,68.54Z"/>
        <path class="cls-3" d="M53.11,69.55c0,.8,0,1.6,0,2.41.12,3.3-1.62,4-4.36,3-2.23-.81-4.51-.38-6.77-.48-4.64-.2-6.31-2.33-5.38-6.93,1.47-7.24,1.51-7.26,8.73-5a15.47,15.47,0,0,0,2.33.55C52.55,63.86,53.13,64.52,53.11,69.55Z"/>
        <path class="cls-3" d="M101,72.77c-1.59-.33-4.15,1.06-4.7-.87a20.88,20.88,0,0,1-.91-9.44,1.15,1.15,0,0,1,.86-.72c3.83.4,7-2.41,10.81-2.13,5.12.37,3.81,4.74,4.8,7.55s-.67,3.86-3.47,4.31C105.92,71.87,103.66,73.41,101,72.77Z"/>
        <path class="cls-3" d="M64.79,80.43c3.34-5.49,9.33-3.7,13.88-5.75,1.58-.71,2.86,1.17,4.16,2,4,2.5,7.86,4.14,11.88.09a2.58,2.58,0,0,1,3.64-.17,2.87,2.87,0,0,1,1.3,3.16c-.57,1.89-2.23,1.13-3.42,1.14-9.53.12-19.07.16-28.6.17C66.64,81.05,65.44,81.45,64.79,80.43Z"/>
        <path class="cls-3" d="M73.36,35.33c2.06.76,2.81-2.29,4.23-.81.6.62.42,2.38.07,3.45-.5,1.57-1.81,2.32-3.57,2.56-3.57.49-6.58-.52-8-3.8-1-2.44.05-4.9,2.37-6.57s6.4-.71,7.41,1.8c.3.75.13.86-.6.89C73.33,32.91,74.4,34.66,73.36,35.33Zm-.18-4.65-.59.47c.25.26.46.64.77.76.52.2.66-.31.55-.62S73.42,30.87,73.18,30.68Z"/>
        <path class="cls-4" d="M57.62,26.61c-.22-1.64.93-3.34,3.22-4.52a5.72,5.72,0,0,1,6.68.48c.93.77,3.48,1.57,1.62,3.65-1.26,1.41-2.79,2.13-4.29,0-.73-1-1.76-1.83-2.93-.44a1.78,1.78,0,0,0,.16,2.74c1.31,1,2.49,1.85,1.41,3.86-.55,1-1.16.92-1.92.84-2-.21-2.91-1.74-3.69-3.27C57.54,29.3,57.73,28.38,57.62,26.61Z"/>
        <path class="cls-4" d="M78.91,21.09A6.47,6.47,0,0,1,85,25a6.07,6.07,0,0,1-1.45,7c-1.17,1.1-2.56,1.71-3.73.17-.87-1.13-1.5-2.42.72-3.22,1.25-.45,1.68-1.67.38-2.81s-2.88-1.71-3.56.2c-1.07,3-2.53.84-3.48.35-1.91-1-.55-2.19.28-3.13A6.89,6.89,0,0,1,78.91,21.09Z"/>
        <path class="cls-4" d="M93.35,66.49c-3.24,2.28-6.35,4.33-4.36,9,.32.73-1.23.64-1.91.56-1.14-.14-2.2-.79-1.64-2.09,1.81-4.15-.53-6.08-3.8-7.64-.84-.4-1.88-.93-1.82-1.89,0-.62.88-1.36,1.54-1.73,1.16-.66,1.7.51,2.13,1.19C85.9,67.73,89.29,67.87,93.35,66.49Z"/>
        <path class="cls-4" d="M78.9,69.86c.21,1.08-.9,2.4-2.43,2.85s-3.62,1.43-5.24-.23c-1.41-1.44-2.14-2.91.51-3.84a8.74,8.74,0,0,0,2.74-1.53c.87-.72,1.07-2.75,2.4-2.17S78.74,67.36,78.9,69.86Z"/>
        <path class="cls-4" d="M58.6,71.9c3.84-3.19,3.86-3.62.69-9.88,4.19-.83,4.26-.83,4,3.17a5.8,5.8,0,0,0,3.58,6c.6.31,1.53.76.91,1.77-.5.81-1.76.94-2.11.54C63.73,71.3,61.06,72.33,58.6,71.9Z"/>
        <path class="cls-4" d="M117.45,66.22c.23,2.07-.19,3.13-1.4,3.28a2.26,2.26,0,0,1-2.27-1.91,24,24,0,0,0-2.46-9.13,1.07,1.07,0,0,1,.52-1.66,1.71,1.71,0,0,1,2.1.73A22.9,22.9,0,0,1,117.45,66.22Z"/>
        <path class="cls-4" d="M29.71,68.89c.62-3.2.88-6.23,2.2-9,.41-.84.87-1.89,2-1.45A1.87,1.87,0,0,1,35,61.09c-1.37,2.44-1.57,5-1.63,7.71,0,1.18.37,3.1-1.48,3.13S30.11,70,29.71,68.89Z"/>
        <path class="cls-5" d="M107.76,54.45c4.22-2.91.24-9.36,5.34-12.08C114.29,50.67,113.21,53.27,107.76,54.45Z"/>
        <path class="cls-3" d="M62.4,81.8c-3.08-.21-5.33-.31-7.57-.53-1-.09-2.26.32-2.55-1.22a1.78,1.78,0,0,1,.9-2,2.44,2.44,0,0,1,3,.19C57.67,79.75,59.75,80.19,62.4,81.8Z"/>
        <path class="cls-6" d="M87.12,64.5a2.1,2.1,0,0,1-1.76-2.38c.26-1.71,2-2.07,3.47-2s2.93,1,2.71,2.74S89.85,65,87.12,64.5Z"/>
        <path class="cls-4" d="M73,5.79a3.21,3.21,0,0,1,2.51,2.59,1.85,1.85,0,0,1-2.18,2.17C72,10.43,70.63,10,70.7,8.22A2.32,2.32,0,0,1,73,5.79Z"/>
        <path class="cls-6" d="M64.14,76.25a2.4,2.4,0,0,1-2.65,1.31c-.83,0-1.77-.28-1.61-1.2s1.06-2.09,2.27-1.59C62.82,75.05,64.16,74.91,64.14,76.25Z"/>
        <path class="cls-6" d="M57.74,64.92c.68,1.52,1.11,3-.52,4.5C55.9,67.67,56.94,66.29,57.74,64.92Z"/>
        <path class="cls-5" d="M119.16,26.79c-.33-1.52-1.54-2.81-3.54-1.84-.78-.76-2.44-1.17-1.12-2.78,2.84-.05,4.44-1.4,4.57-4.32,0-.28,0-.56,0-.84.38-3.69-2.4-4.82-5-5.48-3.18-.8-4.75,1.53-5.81,4.15-1-.23-2.11-.26-2.84-1.17-2.32-4.41-5.49-5.35-9-2.58a9.89,9.89,0,0,0-3.08,3.47l-2.43,2.32-5.22,3.47c.81,5.46,3.87,6.62,8.54,4.78A8.14,8.14,0,0,1,97,26h0l.9.44c6.23,1.62,10,5.8,11.48,11.85.8,3.25,2.3,1.73,3.4.74,2.73-2.42,1.24-4.63-.72-6.68l5.39-1.61C120.22,30.35,119.45,28.14,119.16,26.79Zm-2.39-8.68.09.46a.94.94,0,0,1-.34-.07s0-.17-.07-.27Zm-9.25-1.41a.48.48,0,0,1,0-.22,1.58,1.58,0,0,1,.29-.22h0C107.75,16.41,107.63,16.55,107.52,16.7Z"/>
        <path class="cls-5" d="M37.56,32.78c-.21-.76.12-1.14.87-1.21Z"/>
        <path class="cls-1" d="M99.85,42.61c-1.19,2.58-4.15,2.25-6.17,3.14a7.62,7.62,0,0,0-2.85,1.78c-9.19,11.65-23.49,12-34.51,2.11-2.74-2.46-5.89-2.17-8.75-3.41-4.85-2.11-6.52-7-3.31-10.47,2-2.13,4.37-2.12,6.67-1.47A5.83,5.83,0,0,1,55.25,39a14.75,14.75,0,0,1,.18,2.81C55.3,49.73,61,51.92,67,53.81a19.06,19.06,0,0,0,16.67-2.38c3.61-2.33,7.22-4.86,5.71-10.44-.52-1.93-1-4.47.64-6.53,3.13-4,7.37-3.46,10.63,1.42-1.41.33-2-1-3-1.44-2.15-.85-4.38-.84-5.92,1.23a5.71,5.71,0,0,0-.3,6.25c1.22,2.25,3.47,2.26,5.52,1C98,42.26,98.81,41.85,99.85,42.61Zm-50.46-7c-3.36-.06-4.51,1-4.63,4.07a5.27,5.27,0,0,0,4.93,5.61c2.89.1,4.63-1.8,4.5-4.21C54,38.55,53.24,35.48,49.39,35.66Z"/>
        <path class="cls-3" d="M99.85,42.61c-1-.76-1.86-.35-2.86.28-2,1.29-4.3,1.28-5.52-1a5.71,5.71,0,0,1,.3-6.25c1.54-2.07,3.77-2.08,5.92-1.23,1,.4,1.59,1.77,3,1.44C101.76,38.29,101.69,40.56,99.85,42.61Z"/>
        <path class="cls-4" d="M116.45,18.23l.32-.12.09.46a.94.94,0,0,1-.34-.07S116.47,18.33,116.45,18.23Z"/>
        <path class="cls-4" d="M107.87,16.26l-.35.44a.48.48,0,0,1,0-.22,1.58,1.58,0,0,1,.29-.22Z"/>
        <path class="cls-5" d="M54.12,20.51a39.94,39.94,0,0,1-9.52-7.12c-3.42-3.23-7.82-2.54-9.86,1.63-1.2,2.45-2.12,2-3.85.69-2.15-1.62-4.76-2.24-7.12-.66a5.86,5.86,0,0,0-2.36,6c.43,3,2.94,3.41,5.23,4.07.18.62.35,1.24.53,1.87-.24.38-.15,1-1,.89-1.14-.14-2.31-1.13-3.31.77a3.83,3.83,0,0,0,.39,4.4c.85,1.28,2.17,2.38,3.73,1.71,3.72-1.6,3.81-.84,2.52,2.69-1,2.71,1.75,4.44,4,5,2.89.67,1.19-2.12,1.71-3.27.93-2,1.58-4.22,2.35-6.34-.21-.76.12-1.14.87-1.21l3.45-2.76,4.63-1.95a14,14,0,0,1,4.75.42c1.23.35,3.46,1.59,4-.93C55.58,24.41,57.21,22,54.12,20.51Z"/>
        <path class="cls-1" d="M73.18,30.68c.24.19.64.35.73.61s0,.82-.55.62c-.31-.12-.52-.5-.77-.76Z"/>
        <path class="cls-3" d="M49.39,35.66c3.85-.18,4.65,2.89,4.8,5.47.13,2.41-1.61,4.31-4.5,4.21a5.27,5.27,0,0,1-4.93-5.61C44.88,36.61,46,35.6,49.39,35.66Z"/>
      </g>
    </g>
  </g>
</svg>
