<svg xmlns="http://www.w3.org/2000/svg" width="148.81" height="97.26" viewBox="0 0 148.81 97.26">
  <defs>
    <style>
      .cls-1 {
        fill: #050105;
      }

      .cls-2 {
        fill: #fefefe;
      }

      .cls-3 {
        fill: #fc6;
      }

      .cls-4 {
        fill: #03c6fd;
      }

      .cls-5 {
        fill: #fe77fe;
      }

      .cls-6 {
        fill: #fa0102;
      }

      .cls-7 {
        fill: #2622f6;
      }

      .cls-8 {
        fill: #fe94fe;
      }

      .cls-9 {
        fill: #fddf8d;
      }

      .cls-10 {
        fill: #710020;
      }

      .cls-11 {
        fill: #fdf804;
      }

      .cls-12 {
        fill: #02e9fd;
      }
    </style>
  </defs>
  <g id="Layer_2" data-name="Layer 2">
    <g id="Layer_1-2" data-name="Layer 1">
      <g>
        <path class="cls-1" d="M51.64,97.25c-1.4.14-1.51-1.19-2.18-1.9.19-2.26-.68-3.15-3-4.19-4.73-2.12-9.12-.77-13.7-.25s-9.32-3.61-8.18-7.86,0-8.36-.75-12.24c-.44-2.35-2.57-5.66-6.28-5.88H16.1a2.31,2.31,0,0,0-2.43.7c-2.22-.06-4.6.51-6.29-1.62s-.58-4,.81-5.72c2-.87,4.58-.32,6.48-2.51-2.5-1.26-4.86-1.08-7.18-.88A7.81,7.81,0,0,1,.72,52.47C-.34,50.74-.08,49,.56,47.18c1.85-2.6,4.51-1.85,6.91-1.45,3.09.51,3.06.68,6.52.07-4.36-1-8.52-1.8-11.46-5.21a6.24,6.24,0,0,1-.11-5.4C9,31.28,12.89,36.81,18,39.76c-1.1-3.48-5.77-4.69-4.81-8.82a9.82,9.82,0,0,0,3.45-4.17c2-4.54,5.92-8.12,6.46-13.52.19-2,2.34-3.48,3.85-5l3-1.56.07,0,3-.12,2.63,0a2.91,2.91,0,0,0,3.37-1.28A14,14,0,0,1,47.43,0c2.48.49,5.13-.17,7.48,1.14l4.2,3.23C60.17,5.51,60,8,61.55,8.12c3.09.35,5.3,2.26,7.91,3.44l.42.45,0-.5-.51.17c0-2.87-1.82-4.7-3.59-6.59-.09-.48-.17-1-.25-1.45,2.48-.27,4.85-.46,7.12,1.21,1,.77,2.65.76,2.54-1.43,1.86-2.39,3.4-4.11,5.47.11.87,1.77,4.1,1,5.72,2.64-.06,1.23.33,2.15,1.73,2.16,1.73,0,4-.28,4.42,1.66.35,1.61-2.06,2-3.2,3-.37.32-.41.58.09,1.13,2.47-.75,4.92-2.34,7.78-1.82,3.14.58,5.54-.06,7-3.3a6,6,0,0,1,4.78-3.26c.88-.25,1.81-.81,2.63-.68,6.51,1,13,2.26,19.62,1.34l1.29.37c5.52,3.54,7.79,8.33,5.67,14.8-1.72,3.41-1.17,7.52-1.22,10.79-.06,3.91-1.41,6.15-3.33,8.91,2.65-1.41,5.1-3.11,7.95-3.88s5,.73,6,3.33-1.09,3.67-2.93,4.94c-1.06.73-2.61-.14-3.69,1.53h6c1.39,2.34,3,4.67.64,7.35L137.1,58.12c4.69.42,5.21,3,5.05,6a8.25,8.25,0,0,1-4.26,2.52c-3.2.53-4.92-2.16-7.45-3.68-.45,1.9-.83,3.53-1.22,5.16l.05-.08c-1.75,3.4-.29,7-.66,10.48v1c0,.87-.5,1.87.58,2.5-.12,5.54-1.4,6.81-8.84,8.73-4.68-3.45-9.5-2-14.32-.41-.76.26-1.86.55-1.44,1.53,2.37,5.61-2.06,4.54-4.88,5.08-.26,0-.51.15-.77.22ZM28.21,39a.29.29,0,0,0,.37.22c.4,1.37.57,3.17,2.06,3.55s1.53-1.8,2.52-2.54a4.3,4.3,0,0,0,.7-.92c.65-.41,1.29-.83,1.93-1.25,1.06-.11,2.39-.7,3.12-.26,3.35,2,4.4-.24,5.46-2.66a1.16,1.16,0,0,0,.73-1.37A14.43,14.43,0,0,1,51,30a6.13,6.13,0,0,1,3.46-.73l4.52.67v-4.4a48.59,48.59,0,0,0,6-8.93c.61-1.08,2.69-1.53,1.84-3.16a4.06,4.06,0,0,0-4.47-2c-2.71.42-3.85-1.08-4.76-3.27-1.62-3.87-4.7-5.88-8.82-5.45s-7.15,2.61-8,7c-1,.8-2.22.05-3.3.33C32,7.72,25,11.36,25,16.89c0,3.31-.74,5.78-3.54,7.67a4.13,4.13,0,0,0-1.91,4.18A8.14,8.14,0,0,1,26.67,27c-.3.21-.59.61-.9.62-1.45,0-3-.18-3.71,1.53s1.11,2.42,1.92,3.48,1.77,2.1,2.65,3.14l0,0C26.48,37.18,27.35,38.1,28.21,39Zm80-29.18,0,0c-1.59,1.29-3.31,2.38-3.31,4.88,0,1.87-1.58,1.72-2.92,1.59l-.08,0c-3.35-1.69-6.68-2.14-10,.11a1.82,1.82,0,0,0-1.42,1.42c-2.45,1.33-1.88,3.2-.89,5.1.81,1.52,1.79,2.93,2,4.74s1.18,2.7,3.19,2.5A14.28,14.28,0,0,1,103,31.27h.16c2.25,2,2.47,6.33,6.8,6l3,0a8.2,8.2,0,0,1,5.61,4.59c.39.78.74,2.28,1.56,1.8a8.32,8.32,0,0,0,2.69-3.28c.62-1.17-.46-1.56-1.4-1.82a8,8,0,0,0,6.64-5.2,1.07,1.07,0,0,0,1.46-.62c2.84-1.73,7.08-2.7,5-7.47a5,5,0,0,1,.3-5c2.26-4.29,1.28-7.53-2.51-10.12a7.85,7.85,0,0,0-8.21,0c-1,.32-1.84,1.23-3,.85C117,7.92,112.87,5.8,108.19,9.86ZM40.46,55.2c1.25,1.36,2.82,2.24,4.54,1.29a8.15,8.15,0,0,0,2.45-2.75c-1.83-2-2.07-5-4.55-6.5C38.45,48.3,37.73,50.63,40.46,55.2Zm71.73-5.44c-.58-2.13-2.36-3.77-4.12-3.56s-2,2.75-2.36,4.52a6.76,6.76,0,0,0,0,1.19c-1.6-.08-2.36,1.11-3.08,2.19s-.41,2,1,1.8c1.81-.34,3.64,0,5.36-.26C112.85,55.09,113.57,53.5,112.19,49.76ZM30.77,71.24c-1.45.4-4-.79-3.91,2s2.35,2.27,4.17,2.07,3.92-.54,5.87-.81a1.85,1.85,0,0,1-2.25,1.6c-5.37-1-6.52,1.39-6.49,6.39,0,4.77,2.07,6.93,6.84,5.4,2-.64,4-1.43,6.19-.61,3.52,1.52,4.64,1.46,4.54-.28-.14-2.67.65-5.13,1.24-7.65,1.5-.06,1.32.79,1.1,1.85C47.65,83.1,47.45,85.1,47,87s.76,1.87,2,2.24,2.23.89,2.62-.58c1.21-4.51,4.16-8,6.86-11.56,1.11-1.49.13-1.79-1-2.15C54.67,73.8,53,76,51,77.16l-2.67.76c-1.93-1.42-3.86-2.39-5.81,0l-3-.35c-.36-1.41-2-2.26-1.74-3.93-.57-1.65-.73-3.78-3.43-3-.93-.35,2-1.59-.39-1.62-2,0-4.1-.6-5.92.81C28.67,71.17,30.31,69.92,30.77,71.24Zm94.28,3.28c.35-3.89-.37-4.62-6.13-4.83-3-.11-4.64,1.64-4,4.88.14.56.28,1.12.41,1.69-1.91,2-.6,4.31-.51,6.48.13,3.15,3.37,5.25,7.29,4.78,3.23-.39,4.52-2.41,3.48-6.15-.48-1.75,0-3.47-.42-5.15C125.1,75.65,125.08,75.09,125.05,74.52ZM58.94,81.11c-1.77.92-2.41,2.69-3.27,4.3-2.05.92-2.21,2.2-.72,3.79-.64.85-1.84,1.41-1.48,2.8.57,2.51,2.49,2.83,4.6,2.8,12.28-.18,24.58-.23,36.86-.62,7.19-.23,7.18-.48,4.83-7.2a2.66,2.66,0,0,0-.49-.64l-1.4-1.73a5.43,5.43,0,0,0-2.6-3.8c-1.73-1.52-3-4.28-5.81-3.38s-5.93,1.06-8.82,1.94l-8.6,0c-2.13-.54-4.3-1-6.39-1.64-3.41-1.1-5.54.07-6.62,3.4Zm51.12,5.43c3.19-.94,4.12-3.16,3-7.8-.74-2.89-2.79-3.56-5.48-2.57-1.34,0-2.45,2.5-3.85.69-3.07-4-6.46-2.4-10.15-1.06C95.6,78.3,98,80.38,99.35,83,101.92,87.84,105.47,88.42,110.06,86.54Zm-46-19.18a2.88,2.88,0,0,0,0,2.37l0,2.34c-1.12,2.14-1.16,2.22.6,2.92,7.63,3,15.32,2.43,23,.19,1.33-.39,3.6-1.17,2.46-2.74s-.42-5.56-4.31-5c-.47-1.62,1-1.57,1.76-1.78,1.13-.31,1.79-.89,1.33-1.93-.38-.87-1.41-.49-2.12-.28a8,8,0,0,0-2.13,1c-4.71,3.16-9.51,3.57-14.51.68a9.73,9.73,0,0,0-2.57-1.1C64.79,63.44,63,63.9,64.05,67.36ZM42,61.45c-3.05,2.65-3.8,9.08-1.36,12.15.65.82,1.5,1.74,2.46.22,2.43-.73,4.88,1.57,7.3,0a10.74,10.74,0,0,1,6-1.71c1.78,0,3.94-.38,4.29-2.64s-.3-4.58-.36-6.9c0-1.36-2.55-.92-3.69-1.88A5.44,5.44,0,0,0,55.13,60C52.08,56.55,49,56,45.92,59.91Zm26.89-24.6a21.7,21.7,0,0,1-8.78-3.61,8.65,8.65,0,0,0-10.41.39c-3.14,2.3-4.57,5.41-4,9.76,1,8.43,9.81,15.19,17.75,17.33a2,2,0,0,0,2.25-.41c1.57-2,2.22-.44,3.22.66,4.55,5,9.36,5.13,14.13.47.8-.77,1.31-1.73,2.92-1.68,9.41.34,19.41-9.7,19.28-19.12-.08-5.77-5.17-9.36-10.88-8.26-3.54.69-5.82,3.78-9.38,4.15-.92.09-.81.72-.73,1.45.56,5.41-1.46,8.24-6.79,8.72a11.13,11.13,0,0,1-9.32-3.81C66.23,40.89,67.45,38.9,68.85,36.85ZM32,57.29c3.41.19,5.2-1.51,4.13-4.41-1.53-4.17.13-6.48,3.61-8.36,1-.52,3.09-1.16,1.81-2.77A3.51,3.51,0,0,0,37.15,41a5.33,5.33,0,0,0-1.64,1.73c-1,1.55-1.76,3.6-4,3.21a5.78,5.78,0,0,1-5-4.32A19.24,19.24,0,0,0,21,32.88c-1.11-1-2.62-2-3.87-.69-1.06,1.12-.15,2.48.88,3.47s1.91,1.9,2.95,2.74c1.64,1.34,3.43,2.9,1.65,5s-3.83.86-5.62-.6c-2.16-1.75-4.37-3.45-6.63-5.07-1.79-1.27-4-1.93-5,.51s1.79,2.48,3.14,3.12c2.48,1.17,5.2,1.84,7.67,3,1.09.54,2.33,1.66,1.89,3.23s-1.89,1.87-3.51,2c-2.73.21-5.24-.81-7.88-1.07-1.68-.16-3.23.1-3.29,1.91-.06,2,1.85,1.54,3.08,1.48a23.73,23.73,0,0,1,9.36,1.66,3,3,0,0,1,2.32,2.89c.12,1.7-1.25,2-2.15,2.51-1.37.76-3,1-4.45,1.65-.71.31-1.88.62-1.33,1.83.38.86,1.51,1.19,2,.63,5.07-5.3,13.33-.54,18.38-5.85C30.8,57,31.53,57.25,32,57.29Zm95.15,2.8a7.43,7.43,0,0,1,6,1.89c1.79,1.5,4.85,2.09,5.38.9,1-2.25-2.09-2.2-3.52-3.09s-3.54-1.12-3.05-3.13c.37-1.5,2.27-1.36,3.74-1.57A23,23,0,0,0,144,52.63c1-.56,1.86-1.55,1.32-2.61s-1.54-.35-2.45,0a49.37,49.37,0,0,1-5.72,1.69,3.83,3.83,0,0,1-4.42-1.93c-.87-1.8.85-2.93,2.3-3.62a38.72,38.72,0,0,1,5.88-2.25,5.65,5.65,0,0,0,3.37-1.86c.44-.63-.39-1.21-.86-1.53-1.49-1.05-2.72,0-3.91.74-2.14,1.32-4.18,2.8-6.35,4.05-1.59.93-3.3,1.23-4.62-.55s0-2.89,1.05-4,2.4-2.54,3.71-3.7a2.11,2.11,0,0,0,.62-2.86c-1-1.35-1.87,0-2.58.61-3.31,2.62-5.54,6.15-7.66,9.71-.91,1.52-1.93,2.63-3.7,2.57s-2.45-1.34-3-2.81a6.27,6.27,0,0,0-2.92-3.68c-1.58-.84-3.34-1.61-4.67.18s.43,2.72,1.47,3.6c3.55,3,6,6.46,5.24,11.41-.19,1.32.82,1.78,1.6,2.51C120.81,61.18,124.29,61.41,127.16,60.09Zm-15.78,10c1.36-2.85-1.86-4.44-2.37-7-1-5-8-7.11-12.33-4.22-3.07,2-4.63,4.42-4.71,8.15-.07,3.44,1.06,4.75,4.63,4.43a7.86,7.86,0,0,1,3.52.48c2.75,1,5.37,1.94,8.64,1.4C111.15,72.93,112,72.76,111.38,70.13ZM85.73,20.34c-3.48-7.34-11.37-8-17-3.73-1,.73-2.36,1.48-2.26,2.66.15,1.71,1.89.87,3,1.16a12,12,0,0,1,4.81,2.76c.5.45,1,1.55,1.77.34C78.32,20.1,81.88,20.29,85.73,20.34Zm-.34,2.6c-.71,0-1.36,0-2-.11-3.8-.42-5.82,1.86-6.47,5-.6,2.91,1.2,5.26,3.93,6.1,3.2,1,6-.18,7.81-3.1.57-.91,1.14-2.22-.67-2.32C83.67,28.32,84.4,25.79,85.39,22.94Zm-24,5.91c0,2.48,1.74,3.86,3.67,4.72,2.66,1.19,1.45-1.6,2.19-2.43,1-1.05,1.78-2.45,3.53-1s2.74,1.06,2.79-1.4c.06-3.42-2.45-6.63-5.44-6.69C64.89,22,61.41,25.51,61.38,28.85Zm49.9,30.72c.26,5.49,1.91,6.85,7.45,5.76,1.39-.27,1.82.74,2.61,1.21,1.66,1,3.18,1.27,4.72-.13a2.13,2.13,0,0,0,.74-2.15c-.24-1.06-1.11-1.06-1.89-1-4.58.4-7.42-2.9-10.79-5.05-.58-.37-.77-1.62-1.75-1A2.05,2.05,0,0,0,111.28,59.57ZM75.75,43.82c2.56.39,4.83-.4,5.78-3s-1.57-3.51-3-5c-3.39-3.49-4.5-.43-5.86,1.9-.78,1.34-3.37,2-2,4.21C71.8,43.74,73.68,44.05,75.75,43.82ZM31.88,66.3c2.07.46,3.67,0,3.93-1.35.42-2.2,1.16-3.81,3.24-4.82A1.42,1.42,0,0,0,39.4,58c-.77-1-1.32.18-2,.38-4.22,1.26-7.91,4.16-12.56,4.09-1.43,0-2.39.66-2.2,2.15.26,2.09,2.63,2.78,3.52,2.17C28.41,65.27,30.3,65.26,31.88,66.3Z"/>
        <path class="cls-1" d="M109.05,5.79c.06-.42.13-.85.19-1.26,3.67-1.89,7.25-2.18,10.77.45,2.52,1.89,5.08-.2,7.64-.13,1.18,0,2.41-.48,3.55-.28,2,.34.39,1.22.11,1.88-6.64.92-13.12-.35-19.63-1.34C110.86,5,109.93,5.54,109.05,5.79Z"/>
        <path class="cls-2" d="M131,67.31l-1.73.79c.39-1.63.77-3.26,1.22-5.16,2.53,1.52,4.25,4.21,7.45,3.68C135.67,67.78,133.22,66.66,131,67.31Z"/>
        <path class="cls-3" d="M68.85,36.85c-1.4,2-2.62,4-.78,6a11.13,11.13,0,0,0,9.32,3.81c5.33-.48,7.35-3.31,6.79-8.72-.08-.73-.19-1.36.73-1.45,3.56-.37,5.84-3.46,9.38-4.15,5.71-1.1,10.8,2.49,10.88,8.26.13,9.42-9.87,19.46-19.28,19.12-1.61,0-2.12.91-2.92,1.68C78.2,66.1,73.39,66,68.84,61c-1-1.1-1.65-2.7-3.22-.66a2,2,0,0,1-2.25.41c-7.94-2.14-16.74-8.9-17.75-17.33-.53-4.35.9-7.46,4-9.76a8.65,8.65,0,0,1,10.41-.39A21.7,21.7,0,0,0,68.85,36.85Zm-18,10c0,4.62,4.15,7.11,7.65,5.27a41.18,41.18,0,0,1,4.13-2.42c1.2-.46,2.59-.45,1.67,1.68-1.89,4.35,1.87,5,4.36,5.94s5.31,1,5.63-3c.08-1.08.3-2.26,1.74-2.27,1.14,0,1.35,1,1.78,1.87,2,4,7.87,4.31,10.46.71a1.73,1.73,0,0,0,.07-2.17c-1.34-2.32-1-4,1.61-5.37a8.31,8.31,0,0,0,3.51-4.28C94.18,41.1,95,40,96.83,41.74c.43.42.93.6,1.38.12.23-.25.47-.86.34-1A6.82,6.82,0,0,0,93,38.22c-2.13,0-3.09,1-2.51,3.24.33,1.29-.75,1.9-1.47,2.66a17.38,17.38,0,0,1-24.34,1c-1-.9-2.49-1.38-2.56-3.31-.1-3.22-3.15-5.18-5.36-3.18C54.15,41,52.51,44.41,50.83,46.82Z"/>
        <path class="cls-3" d="M32,57.29c-.48,0-1.21-.3-1.42-.08-5.05,5.31-13.31.55-18.38,5.85-.53.56-1.66.23-2-.63-.55-1.21.62-1.52,1.33-1.83C13,60,14.58,59.71,16,59c.9-.5,2.27-.81,2.15-2.51a3,3,0,0,0-2.32-2.89,23.73,23.73,0,0,0-9.36-1.66c-1.23.06-3.14.54-3.08-1.48C3.4,48.6,5,48.34,6.63,48.5c2.64.26,5.15,1.28,7.88,1.07,1.62-.12,3-.29,3.51-2s-.8-2.69-1.89-3.23c-2.47-1.2-5.19-1.87-7.67-3-1.35-.64-4.07-.83-3.14-3.12s3.26-1.78,5-.51C12.63,39.3,14.84,41,17,42.75c1.79,1.46,3.86,2.61,5.62.6s0-3.61-1.65-5c-1-.84-2-1.82-2.95-2.74s-1.94-2.35-.88-3.47c1.25-1.3,2.76-.31,3.87.69a19.24,19.24,0,0,1,5.42,8.78,5.78,5.78,0,0,0,5,4.32c2.28.39,3-1.66,4-3.21A5.33,5.33,0,0,1,37.15,41a3.51,3.51,0,0,1,4.41.71c1.28,1.61-.86,2.25-1.81,2.77-3.48,1.88-5.14,4.19-3.61,8.36C37.21,55.78,35.42,57.48,32,57.29Z"/>
        <path class="cls-3" d="M127.16,60.09c-2.87,1.32-6.35,1.09-9.44-1.81-.78-.73-1.79-1.19-1.6-2.51.74-5-1.69-8.4-5.24-11.41-1-.88-2.73-1.89-1.47-3.6s3.09-1,4.67-.18A6.27,6.27,0,0,1,117,44.26c.52,1.47,1.28,2.75,3,2.81s2.79-1,3.7-2.57c2.12-3.56,4.35-7.09,7.66-9.71.71-.56,1.6-2,2.58-.61a2.11,2.11,0,0,1-.62,2.86c-1.31,1.16-2.5,2.44-3.71,3.7s-2.33,2.29-1.05,4,3,1.48,4.62.55c2.17-1.25,4.21-2.73,6.35-4.05,1.19-.73,2.42-1.79,3.91-.74.47.32,1.3.9.86,1.53a5.65,5.65,0,0,1-3.37,1.86A38.72,38.72,0,0,0,135,46.16c-1.45.69-3.17,1.82-2.3,3.62a3.83,3.83,0,0,0,4.42,1.93A49.37,49.37,0,0,0,142.86,50c.91-.35,2-1,2.45,0s-.32,2-1.32,2.61a23,23,0,0,1-8.28,2.46c-1.47.21-3.37.07-3.74,1.57-.49,2,1.76,2.33,3.05,3.13s4.52.84,3.52,3.09c-.53,1.19-3.59.6-5.38-.9A7.43,7.43,0,0,0,127.16,60.09Z"/>
        <path class="cls-2" d="M97.87,84.61l1.4,1.73c-.24,1,1,2.46-1.06,2.73l-21.71.11H75.4L55,89.2c-1.5-1.59-1.34-2.87.71-3.79,9.18-.32,18.4-1.22,27.54-.75C88.14,84.92,93,83.44,97.87,84.61Z"/>
        <path class="cls-2" d="M85.76,67.48c3.9-.6,3.09,3.24,4.32,5S89,74.79,87.62,75.18C80,77.42,72.26,78,64.63,75c-1.76-.7-1.72-.78-.6-2.92.22.45.38,1.26.67,1.31,4.92.82,9.75,3.24,14.79,1.93,3.33-.86,7.22-.46,10.16-3.14-1.12-1.09-1.87-.6-2.79-.32a34.77,34.77,0,0,1-18.07,1c-2-.44-4.15-.6-4.73-3.14a2.88,2.88,0,0,1,0-2.37l.22.06.22-.08c1.22,1.27,3.11,1,4.43,1.15,5.6.44,11.37,2,16.76-1.12Z"/>
        <path class="cls-4" d="M125.13,76.22c.43,1.68-.06,3.4.42,5.15,1,3.74-.25,5.76-3.48,6.15-3.92.47-7.16-1.63-7.29-4.78-.09-2.17-1.4-4.46.51-6.49Z"/>
        <path class="cls-3" d="M85.73,20.34c-3.85-.05-7.41-.24-9.71,3.19-.82,1.21-1.27.11-1.77-.34a12,12,0,0,0-4.81-2.76c-1.06-.29-2.8.55-3-1.16-.1-1.18,1.31-1.93,2.26-2.66C74.36,12.37,82.25,13,85.73,20.34Z"/>
        <path class="cls-2" d="M85.39,22.94c-1,2.85-1.72,5.38,2.59,5.61,1.81.1,1.24,1.41.67,2.32C86.83,33.79,84,35,80.84,34c-2.73-.84-4.53-3.19-3.93-6.1.65-3.18,2.67-5.46,6.47-5C84,22.91,84.68,22.9,85.39,22.94Z"/>
        <path class="cls-2" d="M61.38,28.85c0-3.34,3.51-6.86,6.74-6.79,3,.06,5.5,3.27,5.44,6.69,0,2.46-.93,2.95-2.79,1.4s-2.58-.06-3.53,1c-.74.83.47,3.62-2.19,2.43C63.12,32.71,61.42,31.33,61.38,28.85Z"/>
        <path class="cls-2" d="M111.28,59.57a2.05,2.05,0,0,1,1.09-2.36c1-.61,1.17.64,1.75,1,3.37,2.15,6.21,5.45,10.79,5.05.78-.07,1.65-.07,1.89,1a2.13,2.13,0,0,1-.74,2.15c-1.54,1.4-3.06,1.12-4.72.13-.79-.47-1.22-1.48-2.61-1.21C113.19,66.42,111.54,65.06,111.28,59.57Z"/>
        <path class="cls-5" d="M75.75,43.82c-2.07.23-4-.08-5.06-1.86-1.4-2.24,1.19-2.87,2-4.21,1.36-2.33,2.47-5.39,5.86-1.9,1.44,1.48,4,2.35,3,5S78.31,44.21,75.75,43.82Z"/>
        <path class="cls-2" d="M31.88,66.3c-1.58-1-3.47-1-5.7.49-.89.61-3.26-.08-3.52-2.17-.19-1.49.77-2.18,2.2-2.15,4.65.07,8.34-2.83,12.56-4.09.66-.2,1.21-1.39,2-.38a1.42,1.42,0,0,1-.35,2.13c-2.08,1-2.82,2.62-3.24,4.82C35.55,66.27,34,66.76,31.88,66.3Z"/>
        <path class="cls-6" d="M37.23,27.59c1.84-1.14,3.59.06,5.38.18,2.28,1.42,1.12,4.25,2.49,6a1.16,1.16,0,0,1-.73,1.37c-2.49.79-4.94,2-7.6.57C34.67,32.9,33.38,30.1,37.23,27.59Z"/>
        <path class="cls-7" d="M93.74,82.66c1.42.13,1.84-.55,1.53-1.85a5.43,5.43,0,0,1,2.6,3.8c-4.87-1.17-9.73.31-14.66,0-9.14-.47-18.36.43-27.54.75.86-1.61,1.5-3.38,3.26-4.3-1.3,2.39.35,2.33,1.93,2.33l31.21,0C92.73,83.4,93.42,83.43,93.74,82.66Z"/>
        <path class="cls-8" d="M64.49,67.34l-.22.08-.22-.06c-1.08-3.46.74-3.92,3.48-3.27a9.73,9.73,0,0,1,2.57,1.1c5,2.89,9.8,2.48,14.51-.68a8,8,0,0,1,2.13-1c.71-.21,1.74-.59,2.12.28.46,1-.2,1.62-1.33,1.93-.79.21-2.23.16-1.77,1.78l-.08-.12c-.14-.22-.36-.66-.41-.64-5.93,2.23-11.91,1.67-17.91.34C66.42,66.85,65.33,66.13,64.49,67.34Z"/>
        <path class="cls-6" d="M52.8,20.59c2.1,1.34,3.73,3,3.72,5.72-.7,1-1.39,2-2.08,2.93A6.13,6.13,0,0,0,51,30c-.85-1.88-3.39-1.47-4.36-3.2.64.08,1.79.16,1.62-.49-.9-3.41.85-4.24,3.72-4.3C52.8,22,53,21.36,52.8,20.59Z"/>
        <path class="cls-6" d="M115.65,30.32c1.13,1.5.93,2.71-.47,4-.87.83-2.43,1.24-2.29,2.9l-3,0-2.51-3.79c.3-.22.75-.38.88-.67,1.88-4.32,3.18-4.59,6.35-1.2.46.48.65.82.87-.06A7.61,7.61,0,0,0,115.65,30.32Z"/>
        <path class="cls-4" d="M113,78.74c-.74-2.89-2.79-3.56-5.49-2.57-1.33,0-2.44,2.5-3.84.69-3.07-4-6.46-2.4-10.15-1.06C95.6,78.3,98,80.38,99.35,83c2.57,4.85,6.12,5.43,10.71,3.55h0C113.25,85.6,114.18,83.38,113,78.74Zm-6-.94c3.07,1.85,2.33,5.06,2.78,7.84C106.44,83.9,108.49,80.23,107,77.8Z"/>
        <path class="cls-2" d="M114.88,74.57c-.6-3.24,1-5,4-4.88,5.76.21,6.48.94,6.13,4.83C121.66,74.33,118.28,75.2,114.88,74.57Z"/>
        <path class="cls-6" d="M26.67,27c4.57,3.07,4.59,4.39.16,7.63-.22.16-.14.75-.2,1.14-.88-1-1.82-2.05-2.65-3.14s-2.69-1.62-1.92-3.48,2.26-1.49,3.71-1.53C26.08,27.65,26.37,27.25,26.67,27Z"/>
        <path class="cls-2" d="M37.75,73.61l-.85.84c-1.95.27-3.9.6-5.87.81s-4.1.61-4.17-2.07,2.46-1.55,3.91-2c1.23.05,2.56.7,3.55-.63C37,69.83,37.18,72,37.75,73.61Z"/>
        <path class="cls-7" d="M64.06,69.73c.58,2.54,2.77,2.7,4.73,3.14a34.77,34.77,0,0,0,18.07-1c.92-.28,1.67-.77,2.79.32-2.94,2.68-6.83,2.28-10.16,3.14-5,1.31-9.87-1.11-14.79-1.93-.29,0-.45-.86-.67-1.31Z"/>
        <path class="cls-9" d="M112.19,49.76c1.38,3.74.66,5.33-3.26,5.88-1.72.24-3.55-.08-5.36.26-1.37.25-1.6-.83-1-1.8s1.48-2.27,3.08-2.19C108.62,53.5,110,50.3,112.19,49.76Z"/>
        <path class="cls-6" d="M121.35,38.54l-2.27-2.32c.81.37,1.14,0,1.32-.77.92-4.22,1.52-4.53,5.36-2.64a3.23,3.23,0,0,0,2.23.53A8,8,0,0,1,121.35,38.54Z"/>
        <path class="cls-7" d="M55.74,91.49l-2.27.5c-.36-1.38.84-1.94,1.48-2.79l20.45,0c-.46,1.29-1.91.8-2.69,1.51C67.06,91.17,61.33,89.89,55.74,91.49Z"/>
        <path class="cls-9" d="M42.9,47.24c2.48,1.46,2.72,4.54,4.55,6.5A8.15,8.15,0,0,1,45,56.49c-1.72.95-3.29.07-4.54-1.29C42.74,53,44.35,50.59,42.9,47.24Z"/>
        <path class="cls-6" d="M112.19,49.76c-2.23.54-3.57,3.74-6.5,2.15a6.76,6.76,0,0,1,0-1.19c.37-1.77.58-4.31,2.36-4.52S111.61,47.63,112.19,49.76Z"/>
        <path class="cls-6" d="M42.9,47.24c1.45,3.35-.16,5.76-2.44,8C37.73,50.63,38.45,48.3,42.9,47.24Z"/>
        <path class="cls-10" d="M128,33.34a3.23,3.23,0,0,1-2.23-.53c-3.84-1.89-4.44-1.58-5.36,2.64-.18.81-.51,1.14-1.32.77-.76-1.74-.17-3.3.54-4.86C121.1,30,122.93,30,124.76,30c1.76.59,2.57,2.78,4.69,2.75A1.07,1.07,0,0,1,128,33.34Z"/>
        <path class="cls-7" d="M114.88,74.57c3.4.63,6.78-.24,10.17,0,0,.57,0,1.13.08,1.7l-9.84,0C115.16,75.69,115,75.13,114.88,74.57Z"/>
        <g>
          <path class="cls-9" d="M26.63,35.81v0h0Z"/>
          <path class="cls-9" d="M66.76,13.42a4.06,4.06,0,0,0-4.47-2c-2.71.42-3.85-1.08-4.76-3.27-1.62-3.87-4.7-5.88-8.82-5.45s-7.15,2.61-8,7c-1,.8-2.22.05-3.3.33C32,7.72,25,11.36,25,16.89c0,3.31-.74,5.78-3.54,7.67a4.13,4.13,0,0,0-1.91,4.18A8.14,8.14,0,0,1,26.67,27c4.57,3.07,4.59,4.39.16,7.63-.22.16-.14.72-.19,1.11,1.78.47,1.7,1.85,1.57,3.26a.29.29,0,0,0,.37.22c.4,1.37.57,3.17,2.06,3.55s1.53-1.8,2.52-2.54a4.69,4.69,0,0,0,.71-.92L35.8,38.1c1.05-.11,2.38-.7,3.11-.26,3.35,2,4.4-.24,5.46-2.66-2.49.79-4.94,2-7.6.57-2.1-2.85-3.39-5.65.46-8.16,1.84-1.14,3.59.06,5.38.18h0c2.28,1.42,1.12,4.25,2.49,6A14.43,14.43,0,0,1,51,30c-.85-1.88-3.39-1.47-4.36-3.2l-.33,0c-.71-3.17,0-5.62,3.38-6.77a4.12,4.12,0,0,1-3.8-2.92A4.12,4.12,0,0,0,49.67,20l3.13.56c2.1,1.34,3.73,3,3.72,5.72-.7,1-1.39,2-2.08,2.93l4.52.67v-4.4a48.59,48.59,0,0,0,6-8.93C65.53,15.5,67.61,15.05,66.76,13.42Zm-34.91,24c-1.15.16-1.53-.2-1.58-1.47-.07-1.61.85-1.68,1.93-1.75s1.68.38,1.7,1.58C33.91,37.27,33,37.43,31.85,37.4Zm1.87-15.29c-3,0-5.1-1.75-5.14-4.38,0-2.47,1.8-4.36,4.86-3.68,3.4-.4,5.2,1.55,5.12,4.51C38.48,21.08,36.34,22.15,33.72,22.11Zm14.92-7.39-.5-1c-.83-4,.16-5.42,4.49-6.37A30.73,30.73,0,0,0,48,6.64a30.73,30.73,0,0,1,4.62.73c2.33,0,2.83,2.07,4,3.41a2.77,2.77,0,0,1-.07,4l0,0C53.91,18.88,51.28,15.64,48.64,14.72ZM57.13,26c.14-.23.26-.53.39-.79C57.39,25.49,57.27,25.79,57.13,26Z"/>
        </g>
        <path class="cls-7" d="M34.32,70.61c-1,1.33-2.32.68-3.55.63-.46-1.32-2.1-.07-2.76-1.44,1.82-1.41,3.92-.84,5.92-.81C36.28,69,33.39,70.26,34.32,70.61Z"/>
        <path class="cls-7" d="M42.51,77.89c-.29,2.52-.59,5-.88,7.53-2.53-.74-1.53-3-1-3.92,1.18-2,0-2.87-1.14-4Z"/>
        <path class="cls-4" d="M95.27,80.81c-1.73-1.52-3-4.28-5.81-3.38s-5.93,1.06-8.82,1.94l-8.6,0c-2.13-.54-4.3-1-6.39-1.64-3.41-1.1-5.54.07-6.62,3.4a4.05,4.05,0,0,0,3.65,1.53A4.05,4.05,0,0,1,59,81.15l-.1,0c-1.3,2.39.35,2.33,1.93,2.33l31.21,0c.66,0,1.35,0,1.67-.74C95.16,82.79,95.58,82.11,95.27,80.81Z"/>
        <g>
          <path class="cls-4" d="M41.63,85.4c-2.53-.72-1.53-3-1-3.9,1.18-2,0-2.87-1.14-4-.36-1.41-2-2.26-1.74-3.93l-.85.84a1.85,1.85,0,0,1-2.25,1.6c-5.37-1-6.52,1.39-6.49,6.39,0,4.77,2.07,6.93,6.84,5.4,2-.64,4-1.43,6.19-.61C41.33,86.62,41.48,86,41.63,85.4Z"/>
          <path class="cls-4" d="M57.48,75C54.67,73.8,53,76,51,77.16l-2.67.76c-1.93-1.42-3.86-2.39-5.81,0-.29,2.52-.59,5-.88,7.53-.15.59-.3,1.2-.44,1.81,3.52,1.52,4.64,1.46,4.54-.28-.14-2.67.65-5.13,1.24-7.65,1.5-.06,1.32.79,1.1,1.85C47.65,83.1,47.45,85.1,47,87s.76,1.87,2,2.24,2.23.89,2.62-.58c1.21-4.51,4.16-8,6.86-11.56C59.56,75.65,58.58,75.35,57.48,75Z"/>
        </g>
        <path class="cls-2" d="M129.27,68c-.39,3.48.78,7.06-.66,10.48C129,75,127.52,71.42,129.27,68Z"/>
        <path class="cls-6" d="M26.6,35.77c1.82.45,1.74,1.85,1.61,3.27C27.35,38.1,26.48,37.18,26.6,35.77Z"/>
        <path class="cls-2" d="M128.62,79.52c.86.68.47,1.65.58,2.5C128.12,81.39,128.64,80.39,128.62,79.52Z"/>
        <path class="cls-2" d="M69.39,11.68l.51-.17,0,.5-.42-.45Z"/>
        <path class="cls-1" d="M50.83,46.82c1.68-2.41,3.32-5.81,5.91-8.16,2.21-2,5.26,0,5.36,3.18.07,1.93,1.54,2.41,2.56,3.31a17.38,17.38,0,0,0,24.34-1c.72-.76,1.8-1.37,1.47-2.66-.58-2.22.38-3.28,2.51-3.24a6.82,6.82,0,0,1,5.57,2.61c.13.17-.11.78-.34,1-.45.48-.95.3-1.38-.12C95,40,94.18,41.1,93.44,42.82a8.31,8.31,0,0,1-3.51,4.28c-2.61,1.35-3,3-1.61,5.37a1.73,1.73,0,0,1-.07,2.17c-2.59,3.6-8.49,3.26-10.46-.71-.43-.86-.64-1.87-1.78-1.87-1.44,0-1.66,1.19-1.74,2.27-.32,4-3.06,3.93-5.63,3s-6.25-1.59-4.36-5.94c.92-2.13-.47-2.14-1.67-1.68a41.18,41.18,0,0,0-4.13,2.42C55,53.93,50.79,51.44,50.83,46.82ZM67.05,53c.13,1.83,1.24,2.25,2.78,2.17s2.06-.93,2.09-2.37c0-2.17-1.82-2.22-3-2.34C67.38,50.3,67.27,51.87,67.05,53Zm16.61-2.61c-.94,1.21-3.7.22-3.34,2.64.14.93.77,2.74,2.37,1.95,1.12-.55,3.15-.52,3-2.67C85.52,51.09,85,50.35,83.66,50.38Z"/>
        <path class="cls-9" d="M134.79,20.26c2.26-4.29,1.28-7.53-2.5-10.12a7.86,7.86,0,0,0-8.23,0c-1,.31-1.83,1.22-3,.84h0c-4-3.1-8.14-5.21-12.8-1.2h0c-1.59,1.29-3.31,2.38-3.31,4.88,0,1.87-1.58,1.72-2.92,1.59l-.08,0c-3.35-1.69-6.68-2.14-10,.11a1.82,1.82,0,0,0-1.42,1.42c-2.45,1.33-1.88,3.2-.89,5.1.81,1.52,1.79,2.93,2,4.74s1.17,2.7,3.18,2.5A14.41,14.41,0,0,1,103,31.26a.71.71,0,0,0,.15,0h0c2.25,2,2.47,6.32,6.8,5.95l-2.51-3.79-.86-.65c-.42-2.77,1.54-4.27,3.52-5,2.25-.82,4.34.28,5.58,2.53,1.13,1.5.93,2.71-.47,4-.87.83-2.43,1.24-2.29,2.9a8.2,8.2,0,0,1,5.61,4.59c.39.78.74,2.28,1.56,1.8a8.32,8.32,0,0,0,2.69-3.28c.62-1.17-.46-1.56-1.4-1.82l-2.28-2.33c-.75-1.73-.16-3.29.55-4.85l.4-1.84c-.14.61-.27,1.22-.4,1.84C121.1,30,122.93,30,124.76,30c1.76.59,2.57,2.78,4.69,2.75,2.84-1.73,7.08-2.7,5-7.47A5,5,0,0,1,134.79,20.26ZM95.74,26h0c-1.07.55-1.39.15-1.18-.92l-.12-2c2.14-1.85,3.77-5.13,7.46-2.66,4.12,2.36,2.66,5.3.84,8.27C99.86,29.25,96.78,30.23,95.74,26Zm22.87-15.13c-3.45-.48-6.81-1.87-10.38-1h0C111.8,9,115.16,10.4,118.61,10.88Zm-1.85,10.49h0l-2.85,2.23c1.07.62,1.52,1.88,2,3.08-.49-1.2-.94-2.46-2-3.08-2.88.1-5.25-.67-6.2-3.76.33-4.47.66-4.65,7.19-4C117.66,17,117.72,19,116.76,21.37Zm1.85-10.49.75.09Zm.8.1.64,0Zm10,13.23c-2.67.71-5.14.79-6.68-2.1-1.17-.87-.44-2.17-.73-3.25.81-1.25,1.63-2.47,3.3-2.65,2.64-1.24,4.15.1,5.55,2.21C132.52,21,131.09,22.59,129.37,24.21Z"/>
        <path class="cls-6" d="M102.74,28.73c-2.88.52-6,1.5-7-2.72.55-3.52,3.42-4.46,6.16-5.55C106,22.82,104.56,25.76,102.74,28.73Z"/>
        <path class="cls-6" d="M129.37,24.21c-2.67.71-5.14.79-6.68-2.1,1.18-2.07,1.89-4.53,5.27-5.43l-2.7-.47c2.64-1.24,4.15.1,5.55,2.21C132.52,21,131.09,22.59,129.37,24.21Z"/>
        <path class="cls-6" d="M116.76,21.37l-2.85,2.23c-2.88.1-5.25-.67-6.2-3.75,2.15-1.77,4.08-4,7.19-4C117.66,17,117.72,19,116.76,21.37Z"/>
        <path class="cls-10" d="M107.41,33.43l-.86-.65c-.42-2.77,1.54-4.27,3.52-5,2.25-.82,4.34.28,5.58,2.53a7.61,7.61,0,0,1-.14,1.18c-.22.88-.41.54-.87.06-3.17-3.39-4.47-3.12-6.35,1.2C108.16,33.05,107.71,33.21,107.41,33.43Z"/>
        <path class="cls-10" d="M101.9,20.46c-2.74,1.09-5.61,2-6.16,5.55v0c-.39-.31-.79-.61-1.19-.91l-.12-2C96.58,21.27,98.21,18,101.9,20.46Z"/>
        <path class="cls-10" d="M125.26,16.21l2.7.47c-3.38.9-4.09,3.36-5.27,5.43-1.17-.87-.44-2.17-.73-3.25C122.77,17.61,123.59,16.39,125.26,16.21Z"/>
        <path class="cls-10" d="M114.9,15.82c-3.11.08-5,2.26-7.19,4C108,15.37,108.37,15.19,114.9,15.82Z"/>
        <path class="cls-6" d="M33.44,14.05c3.4-.4,5.2,1.55,5.12,4.51-.08,2.52-2.22,3.59-4.84,3.55-3,0-5.1-1.75-5.14-4.38C28.53,15.26,30.38,13.37,33.44,14.05Z"/>
        <path class="cls-11" d="M31.85,37.4c-1.15.16-1.53-.2-1.58-1.47-.07-1.61.85-1.68,1.93-1.75s1.68.38,1.7,1.58C33.91,37.27,33,37.43,31.85,37.4Z"/>
        <path class="cls-6" d="M48.64,14.72c-.17-.33-.34-.66-.49-1,.32-.16.9-.33.9-.5,0-2.43.73-4.51,3.53-4.08,2.22.33,3.31,1.95,2.45,4.47-.45,1.29.84.95,1.53,1.1C53.91,18.88,51.28,15.64,48.64,14.72Z"/>
        <path class="cls-10" d="M56.56,14.73c-.69-.15-2,.19-1.53-1.1.86-2.52-.23-4.14-2.45-4.47-2.8-.43-3.54,1.65-3.53,4.08,0,.17-.58.34-.9.5-.84-4,.15-5.42,4.48-6.37,2.33,0,2.83,2.07,4,3.41,0,1.33,0,2.66-.07,4Z"/>
        <path class="cls-10" d="M46.62,26.77l-.33,0c-.71-3.17,0-5.62,3.38-6.77l3.13.56C53,21.36,52.8,22,52,22c-2.87.06-4.62.89-3.72,4.3C48.41,26.93,47.26,26.85,46.62,26.77Z"/>
        <path class="cls-6" d="M56.54,14.77c0-1.33.05-2.66.07-4A2.77,2.77,0,0,1,56.54,14.77Z"/>
        <path class="cls-7" d="M76,90.75c.18-.52.35-1,.53-1.57l21.71-.11c-4.46,3-9.5.71-14.2,1.51Z"/>
        <path class="cls-4" d="M99.76,87a2.66,2.66,0,0,0-.49-.64c-.24,1,1,2.46-1.06,2.73-4.46,3-9.5.71-14.2,1.51-2.65,1.59-5.34,1.34-8,.17.18-.52.35-1,.53-1.57H75.4c-.46,1.29-1.91.8-2.69,1.51a1.82,1.82,0,0,1,.38.11,1.82,1.82,0,0,0-.38-.11c-5.65.48-11.38-.8-17,.8h0l-2.27.5c.57,2.52,2.49,2.84,4.6,2.81,12.28-.18,24.58-.23,36.86-.62C102.12,94,102.11,93.7,99.76,87Z"/>
        <path class="cls-12" d="M76,90.75l8-.17C81.36,92.17,78.67,91.92,76,90.75Z"/>
        <path class="cls-1" d="M64.49,67.34c.84-1.21,1.93-.49,2.87-.28,6,1.33,12,1.89,17.91-.34,0,0,.27.42.41.64-5.39,3.08-11.16,1.57-16.76,1.13C67.6,68.39,65.71,68.61,64.49,67.34Z"/>
        <path class="cls-7" d="M107,77.8c3.07,1.85,2.33,5.06,2.78,7.84C106.44,83.9,108.49,80.23,107,77.8Z"/>
        <path class="cls-6" d="M94.56,25.08c.4.3.8.6,1.19.91C94.67,26.55,94.35,26.15,94.56,25.08Z"/>
        <path class="cls-2" d="M67.05,53c.22-1.12.33-2.69,1.84-2.54,1.21.12,3.07.17,3,2.34,0,1.44-.56,2.29-2.09,2.37S67.18,54.82,67.05,53Z"/>
        <path class="cls-2" d="M83.66,50.38c1.29,0,1.86.71,2,1.92.2,2.15-1.83,2.12-3,2.67-1.6.79-2.23-1-2.37-1.95C80,50.6,82.72,51.59,83.66,50.38Z"/>
      </g>
    </g>
  </g>
</svg>
