<svg xmlns="http://www.w3.org/2000/svg" width="139.34" height="95.3" viewBox="0 0 139.34 95.3">
  <defs>
    <style>
      .cls-1 {
        fill: #050105;
      }

      .cls-2 {
        fill: #e5e5e5;
      }
    </style>
  </defs>
  <g id="Layer_2" data-name="Layer 2">
    <g id="Layer_1-2" data-name="Layer 1">
      <g>
        <path class="cls-1" d="M53.68,13c6.83,1.3,11,4.79,10.52,12.38-.09,1.52.75,3.1,1.22,4.64.69,2.28,2.1,3.92,4.63,3.62,2.69-.32,2.91-2.72,3.15-4.78.37-3.31.29-6.64.59-10,.75-8.45,6.43-12.57,12.72-16.41,4.71-2.88,9.74-3,15-1.71,8,2,11.58,12.83,8.7,19.06-2.76,6-6.42,11-12.81,13.73C95.76,34.28,93,36,94,37.82s3.74.73,5.47-.43c3.63-2.44,7.26-4.91,10.73-7.57,7-5.35,15.38-3.47,20.61,3.64,3.17,4.3,6.82,8.06,8.15,13.48a16.54,16.54,0,0,1-.42,8.28c-1.11,4.13-6.26,4.2-10,.52-.78-.76-1.13-2.45-2.77-1.65-1.42.7-1,2.12-.86,3.25a10.08,10.08,0,0,1-2.4,8.15c-1.36,1.63-2.61,3.22-5,2.42s-3-2.91-3-5c0-2.93.58-5.85.87-8.77.11-1.15.62-2.75-1.12-2.88-1.31-.09-1.37,1.45-1.46,2.45-.34,3.85-2.66,5.42-6.21,5.18s-5.06,1.73-6.37,4.45c-3.65,7.54-9.31,13-17.26,15.78-6.93,2.43-13.37.38-19.55-2.79s-12.24-2.43-18.33.35c-2.38,1.09-1.84,2.74-1,4.33,1.19,2.37.94,4.45-1,6.12-2.11,1.79-4.36,1.37-6.63,0C26.11,81.09,18.7,82.53,10.92,92c-1.75,2.12-3.65,4-6.84,3.09A5.29,5.29,0,0,1,0,89.75c0-2.94,2.38-5,4.12-7.14A35.15,35.15,0,0,1,17.8,71.85c2.77-1.17,2.09-2.5,1-4.19-3-4.87-2.55-6.26,1.58-9.86,8.12-7.07,16.9-7.31,26.31-3.3,4,2.06,7.82,2,11.33-1.13,3.09-4.09,3.2-8.18-.22-10.91-4-3.18-8.31-4.37-12.05-.2-1.6,1.79-3.49,3.71-6.32,3.82-3.92.17-5.09-1.41-3.72-5.16a21.2,21.2,0,0,1,1-2c-2.81-.28-4.22,1.38-5.46,3a13.1,13.1,0,0,1-7.64,4.7c-1.57.4-3.69,1-4.9-.68a4.87,4.87,0,0,1-.06-5,16.46,16.46,0,0,1,7.43-7.57c3.68-1.84,4-2.55,1.74-5.7-2.86-3.9-2.12-6.86,2.28-8.77A90.1,90.1,0,0,1,48.7,13.21Zm-2.3,2.33c-8.06-.08-14.49,2.73-20.74,6.1-1.21.65-2.3,1.58-2.13,3.14a3.29,3.29,0,0,0,2.73,2.64c1.83.5,3.36,1,3.35,3.29,0,2.45-2.11,2.32-3.63,3-3.2,1.41-6.34,3-8.61,5.78-1.17,1.45-2.69,3.33-1.38,4.93,1.11,1.35,3.19.34,4.8-.39A9.3,9.3,0,0,0,30,40.21c1.31-2.2,3.27-2.91,5.48-3.41,1.32-.3,2.77-.66,3.79.5,1.17,1.33-.44,2.14-.93,3.09s-1.18,2.2-.44,2.92,2.29.6,3.37-.11c1.79-1.18,3.55-2.41,5.28-3.66,3.15-2.27,7.63-2.08,11.64.53,3,2,5,6.84,4.22,10.21a9.62,9.62,0,0,1-8.52,7.28,18.91,18.91,0,0,1-9.35-1.72C37,52.69,29.66,53.29,23.08,58.32c-4.17,3.19-6.3,5.53-.16,9.29,2.54,1.56,2,3.17-.27,4.51a17.6,17.6,0,0,1-2.55,1.12c-7.46,2.82-12.87,8-17,14.65-.81,1.29-1.28,2.9.24,4.26s2.89.95,4.45.18a7.88,7.88,0,0,0,2.51-2.53,20.85,20.85,0,0,1,5.17-5c7-4.27,13.88-4,20.83,0,1.5.87,2.88,2.52,5,1s1.25-3.26.65-5.06c-1.16-3.48.7-5.36,3.66-6.41,6.83-2.42,13.64-2.74,20.18.92C75.57,80.8,84,78.53,91.8,71.47c3.42-3.1,5.41-7.24,8-11,1.33-1.95,2.65-4.19,5.58-3.89,3.47.35,5.78-.52,5.87-4.59a2.81,2.81,0,0,1,3-2.74c1.6-.07,2.34,1,2.86,2.38a12.8,12.8,0,0,1,.14,7.15,26.86,26.86,0,0,0-.31,5.21,2,2,0,0,0,1.35,2.18c1,.29,1.4-.57,2-1.11,2.13-2,2.48-4.69,2.7-7.37.18-2.26-.19-4.85,2.57-5.73s4.2,1,5.65,2.88c2.06,2.65,3.88,2.14,5-.7,2.18-5.4.71-10.25-2.67-14.7-1.69-2.23-3.94-4-5.22-6.59-1.67-3.33-4.64-4.22-8.06-4.06-4.89.23-8.9,2.47-12.68,5.42s-7.11,6.28-12.27,6.21c-1.14,0-2.62.52-3.27-.88a3.92,3.92,0,0,1,.6-4.17,13.37,13.37,0,0,1,4.6-3.82c5.22-2.45,9.14-6.36,10.85-11.85,2.59-8.29-.35-17.38-11.11-17.63S75.74,11.62,75.69,22.44a52.28,52.28,0,0,1-.07,6.86c-.41,3-.93,6.17-5.18,6.34-3.68.15-6.37-1.61-7.28-5.47a51.2,51.2,0,0,1-1.3-8c-.24-3.29-1.94-5.09-5-6A14.77,14.77,0,0,0,51.38,15.35Z"/>
        <path class="cls-2" d="M51.38,15.35a14.77,14.77,0,0,1,5.53.83c3,.94,4.71,2.74,5,6a51.2,51.2,0,0,0,1.3,8c.91,3.86,3.6,5.62,7.28,5.47,4.25-.17,4.77-3.3,5.18-6.34a52.28,52.28,0,0,0,.07-6.86c0-10.82,10.42-20.57,21.24-20.33s13.7,9.34,11.11,17.63c-1.71,5.49-5.63,9.4-10.85,11.85a13.37,13.37,0,0,0-4.6,3.82,3.92,3.92,0,0,0-.6,4.17c.65,1.4,2.13.86,3.27.88,5.16.07,8.61-3.36,12.27-6.21s7.79-5.19,12.68-5.42c3.42-.16,6.39.73,8.06,4.06,1.28,2.57,3.53,4.36,5.22,6.59,3.38,4.45,4.85,9.3,2.67,14.7-1.15,2.84-3,3.35-5,.7-1.45-1.86-3-3.72-5.65-2.88s-2.39,3.47-2.57,5.73c-.22,2.68-.57,5.36-2.7,7.37-.58.54-1,1.4-2,1.11A2,2,0,0,1,116.88,64a26.86,26.86,0,0,1,.31-5.21,12.8,12.8,0,0,0-.14-7.15c-.52-1.38-1.26-2.45-2.86-2.38a2.81,2.81,0,0,0-3,2.74c-.09,4.07-2.4,4.94-5.87,4.59-2.93-.3-4.25,1.94-5.58,3.89-2.56,3.72-4.55,7.86-8,11C84,78.53,75.57,80.8,65.72,75.28c-6.54-3.66-13.35-3.34-20.18-.92-3,1-4.82,2.93-3.66,6.41.6,1.8,1.44,3.57-.65,5.06s-3.46-.17-5-1c-7-4-13.88-4.31-20.83,0a20.85,20.85,0,0,0-5.17,5,7.88,7.88,0,0,1-2.51,2.53c-1.56.77-3,1.12-4.45-.18s-1.05-3-.24-4.26c4.16-6.61,9.57-11.83,17-14.65a17.6,17.6,0,0,0,2.55-1.12c2.3-1.34,2.81-3,.27-4.51-6.14-3.76-4-6.1.16-9.29,6.58-5,13.89-5.63,21.47-2.48a18.91,18.91,0,0,0,9.35,1.72,9.62,9.62,0,0,0,8.52-7.28c.83-3.37-1.17-8.22-4.22-10.21-4-2.61-8.49-2.8-11.64-.53-1.73,1.25-3.49,2.48-5.28,3.66-1.08.71-2.52.93-3.37.11s-.08-1.93.44-2.92,2.1-1.76.93-3.09c-1-1.16-2.47-.8-3.79-.5-2.21.5-4.17,1.21-5.48,3.41a9.3,9.3,0,0,1-4.24,3.61c-1.61.73-3.69,1.74-4.8.39-1.31-1.6.21-3.48,1.38-4.93,2.27-2.81,5.41-4.37,8.61-5.78,1.52-.66,3.62-.53,3.63-3,0-2.25-1.52-2.79-3.35-3.29a3.29,3.29,0,0,1-2.73-2.64c-.17-1.56.92-2.49,2.13-3.14C36.89,18.08,43.32,15.27,51.38,15.35ZM87.2,25.88c-3-.77-4.86,1.12-5.26,4.06-.27,2,1.4,3.19,3.57,3.24a5.49,5.49,0,0,0,5.52-5C91.21,25.23,89.2,26,87.2,25.88ZM87,18.64c2-.49,4.93-.64,5.65-4.1.28-1.34,0-2.31-1.79-2.27-3.11.05-7.18,2.64-7.11,4.67C83.78,18.71,85,18.64,87,18.64Zm14.49,1.82c.13-2.93.54-5.79-2.44-6.06-2.27-.2-2.46,2.31-2.37,4.2.12,2.32-.28,5.44,2.92,5.57C102.21,24.28,101.34,21.51,101.45,20.46Z"/>
        <path class="cls-1" d="M87.2,25.88c2,.08,4-.65,3.83,2.33a5.49,5.49,0,0,1-5.52,5c-2.17,0-3.84-1.2-3.57-3.24C82.34,27,84.18,25.11,87.2,25.88Z"/>
        <path class="cls-1" d="M87,18.64c-1.92,0-3.18.07-3.25-1.7-.07-2,4-4.62,7.11-4.67,1.77,0,2.07.93,1.79,2.27C91.89,18,89,18.15,87,18.64Z"/>
        <path class="cls-1" d="M101.45,20.46c-.11,1.05.76,3.82-1.89,3.71-3.2-.13-2.8-3.25-2.92-5.57-.09-1.89.1-4.4,2.37-4.2C102,14.67,101.58,17.53,101.45,20.46Z"/>
      </g>
    </g>
  </g>
</svg>
