<svg xmlns="http://www.w3.org/2000/svg" width="136.9" height="92.03" viewBox="0 0 136.9 92.03">
  <defs>
    <style>
      .cls-1 {
        fill: #050105;
      }

      .cls-2 {
        fill: #90eea0;
      }

      .cls-3 {
        fill: #fefefe;
      }

      .cls-4 {
        fill: #fdf804;
      }

      .cls-5 {
        fill: #fddf8d;
      }

      .cls-6 {
        fill: #c920f2;
      }
    </style>
  </defs>
  <g id="Layer_2" data-name="Layer 2">
    <g id="Layer_1-2" data-name="Layer 1">
      <g>
        <path class="cls-1" d="M132.62,36.86A9.49,9.49,0,0,0,135.76,40c.28,1,.61,2,.84,3,1,4.75-.6,7.74-5.38,8.89-1.86.45-2,1.17-1.91,2.7a10.43,10.43,0,0,0,1.58,4.82C133.43,64,135,68.06,132,73.51S127.3,80.09,123,76.2c-1.26-1.22-.75-2.8-.7-4.21s1.07-3.33.61-4.64c-1.15-3.28.08-5.64,1.35-8.57,1-2.35,4.14-5.36.73-8.41-.64-.44-1.25-.92-1.92-1.29-1-.57-1.43-2.67-3.15-1.62a3.79,3.79,0,0,0-1.7,4.52c.59,4.86-2.2,7.82-5.79,10.33C107.15,63.92,110,67,111,69.82c1,3.94-4.3,5.27-3.9,9.23,3.58-4.12,4.13-4,6.23.87a24.61,24.61,0,0,0,1.62,2.74c-.25,2.82.64,6.32-3.9,6.61-3.15,0-5.11-1.31-5.07-4.67,0-1.51-.46-2.28-2-2s-2.31-1-3.41-1.65c-2.77-2.8-1.22-6.67-2.47-9.88-1.11-2.86-3.79-5-5.19-3.58s-3.49,2.39-3.71,4.74c-5,1.63-4,4.92-2.32,8.4.11.21.4.32.61.47,1,5.62-.85,7.9-6.54,8l-2.12-1.61c-1.39-4.08.14-7.54,2.2-11,.42-.69,1.48-1.62.51-2.46s-1.94-.18-2.8.55a46.76,46.76,0,0,1-3.78,3c-5,3.43-10.25,2.43-13.26-2.46-2.23-3.62-4.14-4-7.27-1-2.2,2.12-4.4,2.87-7.2,1.55a23,23,0,0,1-3.27-2.29c-1.06-1-2.15-1.86-3.47-.89-1.11.82-1.33,2.1-1.16,3.59.44,3.78.63,7.6.91,11.4-2.54,4.4-7,5.83-10.49,3.07-3.05-2.4-2.17-6-2.07-9.24,1.54-2,.15-3.78-1.09-4.9C23.75,74,23.86,71.25,25,68.18c-4.49,1-5.43.6-9.15-3.53C14,59.16,16.87,53.79,16.94,47.8c-2.72,1.73-2.12,5-3.9,5.71-5.45,2.16-2.91,5.06-1.28,8.09A24.68,24.68,0,0,1,13,64.87C11.84,70,8,73.6,3.41,73.72A1.41,1.41,0,0,0,2,73c-1.63-3-3-6.49-1-9.4A17.18,17.18,0,0,0,3.34,47.38a36.75,36.75,0,0,1,1.62-4c2.79-5.17,2.81-5.14-1.94-9.3a14.13,14.13,0,0,1-1.28-1.49c-.18-2.18.77-4.08,1.44-6.05l.6-.6.1-.1L4.51,24c2-.82,3.84-1.88,6.13-2.12a6.05,6.05,0,0,0,4.48-3A15.71,15.71,0,0,1,20.22,14c3,.05,6-.09,9,.67,1.95.49,4.54.69,4-2.87a17.85,17.85,0,0,1,5-8c3.61-1.4,7.15-1.57,10.45.79.89.65,1.41.24,2.07-.23,1.45-1,2.92-2.06,4.39-3.09,3.53-.38,7.16.51,10.63-.77C68.8.25,71.86-.27,75,.18c6.16,1.1,12.27,2.73,18.63,1.68,1.75,2.5,4.66,4,5.91,7A2.38,2.38,0,0,0,102.27,10c2.23-.42,3.46.71,4.41,2.46,3.43,5.95,9,5.29,14.49,4.62l5.7,4.34a8.77,8.77,0,0,1,2,7.47C128.28,32.62,129.71,35,132.62,36.86ZM20.18,47.29l.11,1.06v0q-.7,3.44-1.42,6.85c0,.53,0,1-.05,1.58-1.5,2.62-1.44,5.1.65,7.4,2.37,3,3.81,1.07,4.78-1.11A13.12,13.12,0,0,1,27.73,58c3.36-.76,4.55.85,4.73,4,.14,2.44-1.1,3.93-2.76,5.38-2.64,2.3-4.38,4.58-.7,7.73a6.39,6.39,0,0,1,2.39,5.18c-.85.52-.47,1.36-.53,2.09-.07.44-.14.88-.2,1.32-.67,2.58.69,4,2.92,4.63,1.7.49,2.19,0,3-2.46,0-3.21-.08-6.42-.1-9.64,0-2.79.46-5.38,3.28-6.77s4.42.64,6.31,2c2.17,1.59,4.23,3,7,.73,5.45-4.46,7.26-4.08,11.12,1.83,2,3.1,4.85,3.8,8.22,2A12.62,12.62,0,0,0,77,72.29a11,11,0,0,1,4.79-1c1.78,0,3.8.89,4.95-1.38,1.24-.58,1.24-2,1.87-2.94,3.17-4.93,8-4.84,11,.17a12.66,12.66,0,0,1,1.62,6.5c.06,2.29.14,4.7,2.81,6,.69-5.09,6-9.06,2.68-14.62-.12-2.72,1-4.07,3.73-5.18,3-1.23,6.33-3.46,4.89-7.58-1.67-4.81,1.44-7.83,6.31-7.64,1.64,1.11,3.36,2.13,4.9,3.36,2.06,1.65,4.17,1.77,6.16.21,2.18-1.72,1.75-4,.61-6.12a9.31,9.31,0,0,0-2.66-2.93c-4-2.89-5.44-6.75-5.36-11.65s-5-8.5-9.79-7.32a8.43,8.43,0,0,1-4.32,0l-6.74-5.28c-2-.66-3.51-4.38-6-.7-3.26,4.76-7.81,6-13.3,3.79-2.45-2.88-5.43-5.58-3.57-10,.06-.71.12-1.42.19-2.14A18.11,18.11,0,0,0,70.17,3.33c-2.93.32-5.27,2.94-8.4,1.82-5.31-2.5-9.92-.29-9.92,4.76,0,7.36-3,10.31-10.66,10.51-1.66-1.07-3.65-1.57-5-3.13-.5-.58-1.07-1.14-2.05-.52-2.38,1.53-5,.92-7.39.22-4-1.21-6.78.13-8.86,3.34-1.48,2.28-3.45,4.08-6,4.12-3.92.06-5.32,2.69-6.6,5.47-1.36,2.95,1.53,3.94,3,5.37,2.61,2.45,3.29,4.76.4,7.47-1.26,1.18-2.56,2.47-2,4.51-.1,1.44-.52,2.93-.24,4.29.47,2.27,1.72,2.94,3.43.79,2.77-1.81,1.95-5.93,4.9-7.63l4.58.43a1.59,1.59,0,0,0,.84,2.11ZM43,6c-3.8,0-6.51,2.45-6.51,5.89a6.15,6.15,0,0,0,6.29,6.21c4-.07,7-2.88,6.91-6.62S47.58,5.94,43,6ZM90,16.44c3.83,0,6.34-2.39,6.36-6a5.79,5.79,0,0,0-6.24-6.12,6.48,6.48,0,0,0-6.74,6.79C83.44,14.16,86.31,16.46,90,16.44Zm37.52,42.87a5,5,0,0,0-.41.3c-3.65,4-.46,9.27-2.37,13.67-.29.66,1.13,1.91,2.18,1.87a2.28,2.28,0,0,0,2.33-2.63,2.47,2.47,0,0,1,1.07-2.94c1.44-1.18,1-3,.4-4.4A59.88,59.88,0,0,0,127.51,59.31ZM7,58.62c-2.12,3-3.88,5.9-3.69,9.6a2.41,2.41,0,0,0,1.25,2.3c.85.38,1.57-.06,2.34-.88C10.53,65.79,10.6,65.74,7,58.62ZM82.82,79.29c-1,2-2.85,3.79-1.28,6.16a1.56,1.56,0,0,0,2.45.12C85.27,83.34,84.4,81.27,82.82,79.29Zm27.63,1.21c-1,2-2.42,3.44-1.21,5.27a1.89,1.89,0,0,0,1.81.13C112.6,84.12,111.12,82.51,110.45,80.5ZM26.38,66.33c.46-.4.88-.71,1.24-1.09,1.05-1.1,2.66-1.89,2.34-3.8a1,1,0,0,0-.85-.53c-1.65.49-1.59,2.18-2.22,3.38C26.61,64.82,25.85,65.2,26.38,66.33Z"/>
        <path class="cls-2" d="M3.88,25.84l-.1.1Z"/>
        <path class="cls-3" d="M43,6c4.58,0,6.64,1.68,6.69,5.48S46.8,18,42.78,18.05a6.15,6.15,0,0,1-6.29-6.21C36.49,8.4,39.2,6,43,6Zm2.38,5.66c.09-1.65-1.09-2.22-2.45-2.41s-2.41.19-2.45,1.77a2.71,2.71,0,0,0,2.6,2.89A2.18,2.18,0,0,0,45.38,11.61Z"/>
        <path class="cls-3" d="M90,16.44c-3.68,0-6.55-2.28-6.62-5.32a6.48,6.48,0,0,1,6.74-6.79,5.79,5.79,0,0,1,6.24,6.12C96.33,14.05,93.82,16.41,90,16.44Zm2.67-5.53c-.39-1.3-.51-2.66-2.44-2.62-1.46,0-2.51.53-2.5,1.9a2.4,2.4,0,0,0,2.66,2.4A2,2,0,0,0,92.66,10.91Z"/>
        <path class="cls-4" d="M127.51,59.31a59.88,59.88,0,0,1,3.2,5.87c.59,1.41,1,3.22-.4,4.4a2.47,2.47,0,0,0-1.07,2.94,2.28,2.28,0,0,1-2.33,2.63c-1,0-2.47-1.21-2.18-1.87,1.91-4.4-1.28-9.64,2.37-13.67A5,5,0,0,1,127.51,59.31Z"/>
        <path class="cls-4" d="M7,58.62c3.6,7.12,3.53,7.17-.1,11-.77.82-1.49,1.26-2.34.88a2.41,2.41,0,0,1-1.25-2.3C3.12,64.52,4.88,61.64,7,58.62Z"/>
        <path class="cls-4" d="M82.82,79.29c1.58,2,2.45,4,1.17,6.28a1.56,1.56,0,0,1-2.45-.12C80,83.08,81.85,81.31,82.82,79.29Z"/>
        <path class="cls-4" d="M110.45,80.5c.67,2,2.15,3.62.6,5.4a1.89,1.89,0,0,1-1.81-.13C108,83.94,109.44,82.54,110.45,80.5Z"/>
        <path class="cls-4" d="M26.38,66.33c-.53-1.13.23-1.51.51-2,.63-1.2.57-2.89,2.22-3.38a1,1,0,0,1,.85.53c.32,1.91-1.29,2.7-2.34,3.8C27.26,65.62,26.84,65.93,26.38,66.33Z"/>
        <path class="cls-4" d="M79.2,7.4a2.5,2.5,0,0,1,2.5-1.6c-.07.72-.13,1.43-.19,2.14L79.4,7.63Z"/>
        <path class="cls-5" d="M31.39,80.28c.08.76.61,1.64-.53,2.09C30.92,81.64,30.54,80.8,31.39,80.28Z"/>
        <path class="cls-5" d="M20.18,47.29c.38-.23.8-.14.8.26s-.45.53-.69.79C20.25,48,20.21,47.64,20.18,47.29Z"/>
        <path class="cls-1" d="M104.2,43.87c-2.34-.73-4.67-1.51-7-2.16-1.63-.45-3-.6-3.51,1.82A4.31,4.31,0,0,1,89.76,47c-1.87.07-2-1.91-2.65-3.38-.93-2.22-2.26-4.39-5.37-3.61-2.65-.09-5.3-.23-7.95-.27-1,0-2.36-.29-1.62,1.62,1.36,3.48-.76,5.95-2.62,8.47-2.53,1.6-4.5,3.39-3.06,6.82,1.22,2.91,3.14,6.14-1.11,8.2-3,1.47-5.59-.24-7.79-4.78.36-2.06,1-4,.06-6.22a5.53,5.53,0,0,1,.7-5,4.26,4.26,0,0,0-.13-5.43c-1.89-2.92-8.67-3.82-11.07-1.4-.39.39,0,1,.59,1.14h0a39.09,39.09,0,0,1,0,5.19c-.28,2.23-1.41,4-3.84,4.45-2.83.56-3.23-1.63-3.86-3.51a22.79,22.79,0,0,0-1.21-3.72c-.7-1.3-1.29-3.22-3.51-2.1-3.79,1.91-7.63,1.24-11.48.22l-.09-.05c0-.09.13-.22.1-.28a3.47,3.47,0,0,0-.31-.44c-3.37-2.83-3.35-5.91.05-11l5.71-3.77,2.4-1.07c9.54-3.74,19.6-4.92,29.69-5.93l18,.05c8.67,1.42,17.49,2.32,25.52,6.26,3.79,1.86,7.61,3.73,7.57,9.2,0,4.24-3,5.47-5.73,7.21ZM75.41,28c2.53.88,5.15.63,7.75.54a2.2,2.2,0,0,0,2,.67l3,.1c3.57.88,7.18,1.59,10.68,2.7,1.83.58,4.43.52,4.72,3.4a.33.33,0,0,0-.47.26c-1.94.5-3.45-.37-5.13-1.25a3.05,3.05,0,0,0-4.54,1.73c-.77,2.18,1.17,2.49,2.68,2.91.76.21,1.53.39,2.29.58,1.68.4,3.35.83,5,1.19,2.89.6,5.36,0,6.67-2.87s-.23-4.67-2.48-6.15c-9.46-5.61-19.8-7.48-30.63-7.36-.27-.24-.53-.69-.8-.7-12.5-.55-25-.19-37,3.42C33.85,28.78,28.32,30.27,24.61,35c-1.83,2.33-1.64,4.26.83,6s10.75,1.07,12.76-1.22a2,2,0,0,0,.17-2.88c-.73-.86-1.41-2.13-2.93-1.16-1.12.72-2.27,1.38-3.4,2.08s-2.51.71-3.22-.42c-.89-1.4.68-1.76,1.51-2.21a26.58,26.58,0,0,1,4.37-2c10.23-3.41,20.79-4.61,31.53-4.6,1.2,0,2.73.78,3.61-.83ZM68,41.32c-1.22-1.48-2.72-2.64-3.41-4.69-.35-1.06-.92-1.53.19-2.25a7.8,7.8,0,0,0,3.11-3.44c-1.79,0-3.28.12-4.74,0A4.22,4.22,0,0,0,58.54,34c-.58,1.84-1.15,4.25,1,5.9,3.62,2.8,5.08,5.45,1.8,10-2,2.77-.62,7-.17,10.59a2.26,2.26,0,0,0,2.75,1.83c1.6-.51.76-2,.74-3.12,0-.59-.64-1.14-.91-1.75-1.44-3.24-1.56-6.14,1.74-8.51a10.68,10.68,0,0,0,3.69-4.15C69.93,43.17,69.82,42,68,41.32Zm.25-4.74c4.33,1.39,8.75.81,13.13.85,1.41,0,3.43.39,3.55-1.53a4.24,4.24,0,0,0-3.15-4.58C76.15,29.78,71.82,31.46,68.22,36.58ZM45.36,45.93c-1.94-3.82-1.23-7.49,3-10.5,1.08-.76.55-2.79-1.37-2.74s-4.19.18-5.82,1.11c-1.94,1.12.92,2,.8,3.21,0,.39.07.9-.13,1.15-2.58,3.13-.49,6,.38,9,.29,1,.24,2.46,1.63,2.33C45.45,49.34,45.36,47.86,45.36,45.93Zm46.16-5.1c-.17-2.4-1.51-4.61-.35-7.27.67-1.56-1.77-.73-2.64-1.45-.7-.58-1.65.36-1.35,1.21.94,2.72-.29,5.88,1.78,8.36.53.64.47,2.14,1.54,1.88S91.55,41.9,91.52,40.83Zm-41.1-3c5.59.9,4.43-3.31,5.37-5.86C48.89,29.7,53.24,36.73,50.42,37.85Z"/>
        <path class="cls-5" d="M23.54,42.93a3.47,3.47,0,0,1,.31.44c0,.06-.07.19-.1.28h-.86Z"/>
        <path class="cls-1" d="M59.85,15.75l-1.58-.1c-.86-2.85,1.1-6.21,3.79-6.16,1.23,0,2.68.42,1.61,2.44A8.18,8.18,0,0,1,59.85,15.75Z"/>
        <path class="cls-1" d="M76.22,14.19c-.31,1-1,1.11-1.91.88a10.93,10.93,0,0,1-4.38-4,1.51,1.51,0,0,1,0-1.85c.53-.6,1.17-.46,1.81-.16C74,10.08,76,11.41,76.22,14.19Z"/>
        <path class="cls-1" d="M92.18,60.66c-1.38,1.78-2.37,4.39-5.21,3.76s-3.9-2.86-4.12-5.58l.44-1.22c.57-1.47,1.13-2.95,1.7-4.43a5.38,5.38,0,0,0,1.88-3C90.61,52,90.67,56,92,59.14ZM85.84,59c-.06,1.08-.12,2.6,1.73,2.62a1.75,1.75,0,0,0,1.76-2.16c-.51-1.39.45-3.83-1.59-4C86,55.22,85.85,57.19,85.84,59Z"/>
        <path class="cls-4" d="M82.9,67.62c-.69-.65-.74-1.79-.15-2,1-.28.43.79.5,1.28C83.28,67.14,83,67.37,82.9,67.62Z"/>
        <path class="cls-4" d="M133.28,42.06a9.31,9.31,0,0,0-2.66-2.93c-4-2.89-5.44-6.75-5.36-11.65s-5-8.5-9.79-7.32a8.43,8.43,0,0,1-4.32,0l-6.74-5.28h0c-2-.66-3.51-4.38-6-.7-3.26,4.76-7.81,6-13.3,3.79-2.45-2.88-5.43-5.58-3.57-10L79.4,7.63l-.2-.23a2.5,2.5,0,0,1,2.5-1.6A18.11,18.11,0,0,0,70.17,3.33c-2.93.32-5.27,2.94-8.4,1.82-5.31-2.5-9.92-.29-9.92,4.76,0,7.36-3,10.31-10.67,10.51-1.65-1.07-3.64-1.57-5-3.13-.5-.58-1.07-1.14-2.05-.52-2.38,1.53-5,.92-7.39.22-4-1.21-6.78.13-8.86,3.34-1.48,2.28-3.45,4.08-6,4.12-3.92.06-5.32,2.69-6.6,5.47-1.36,2.95,1.53,3.94,3,5.37,2.61,2.45,3.29,4.76.4,7.47-1.26,1.18-2.56,2.47-2,4.51-.1,1.44-.52,2.93-.24,4.29.47,2.27,1.72,2.94,3.43.79,2.77-1.81,1.95-5.93,4.9-7.63l4.58.43a1.59,1.59,0,0,0,.84,2.11l0,0c.38-.23.8-.14.8.26s-.45.53-.69.79v0q-.7,3.44-1.42,6.85c0,.53,0,1-.05,1.58-1.5,2.62-1.44,5.1.65,7.4,2.37,3,3.81,1.07,4.78-1.11A13.12,13.12,0,0,1,27.73,58c3.36-.76,4.55.85,4.73,4,.14,2.44-1.1,3.93-2.76,5.38-2.64,2.3-4.38,4.58-.7,7.73a6.39,6.39,0,0,1,2.39,5.18c.08.76.61,1.64-.53,2.09-.07.44-.14.88-.2,1.32-.67,2.58.69,4,2.92,4.63,1.7.49,2.19,0,3-2.46,0-3.21-.08-6.42-.1-9.64,0-2.79.46-5.38,3.28-6.77s4.42.64,6.31,2c2.17,1.59,4.23,3,7,.73,5.45-4.46,7.26-4.08,11.12,1.83,2,3.1,4.85,3.8,8.22,2A12.62,12.62,0,0,0,77,72.29a11,11,0,0,1,4.79-1c1.78,0,3.8.89,4.95-1.38,1.24-.58,1.24-2,1.87-2.94,3.17-4.93,8-4.84,11,.17a12.66,12.66,0,0,1,1.62,6.5c.06,2.29.14,4.7,2.81,6,.69-5.09,6-9.06,2.68-14.62-.12-2.72,1-4.07,3.73-5.18,3-1.23,6.33-3.46,4.89-7.58-1.67-4.81,1.44-7.83,6.31-7.64,1.64,1.11,3.36,2.13,4.9,3.36,2.06,1.65,4.17,1.77,6.16.21C134.85,46.46,134.42,44.14,133.28,42.06ZM70,9.21c.53-.6,1.17-.46,1.81-.16,2.27,1,4.2,2.36,4.45,5.14-.31,1-1,1.11-1.91.88,0,.48-.08,1-.5,1.19.42-.16.5-.71.49-1.19a11,11,0,0,1-4.37-4A1.51,1.51,0,0,1,70,9.21Zm-7.9.28c1.23,0,2.68.42,1.61,2.44a8.18,8.18,0,0,1-3.82,3.82h0l-1.58-.1c0,.16,0,.36-.06.55,0-.19,0-.39.06-.55C57.41,12.8,59.37,9.44,62.06,9.49ZM69,53a4.23,4.23,0,0,1,.85-1.34h0A4.23,4.23,0,0,0,69,53ZM76,43.22h0Zm5.7,20.91c-.17,0-.32-.22-.47-.34.08-.08.18-.24.25-.23a4.31,4.31,0,0,1,.64.21C82,63.91,81.83,64.14,81.71,64.13Zm1.54,2.81c0,.2-.21.43-.35.68-.69-.65-.74-1.79-.15-2C83.72,65.38,83.18,66.45,83.25,66.94ZM87,64.42c-2.74-.61-3.9-2.86-4.12-5.58l.44-1.22c.57-1.47,1.13-2.95,1.7-4.43a5.38,5.38,0,0,0,1.88-3,6.64,6.64,0,0,1-1.37-.45,6.64,6.64,0,0,0,1.37.45C90.61,52,90.67,56,92,59.14l.15,1.52C90.8,62.44,89.81,65.05,87,64.42ZM106.79,43.9h0l-2.59,0c-2.34-.73-4.67-1.51-7-2.16-1.63-.45-3-.6-3.51,1.82A4.31,4.31,0,0,1,89.76,47c-1.87.07-2-1.91-2.65-3.38-.93-2.22-2.26-4.39-5.37-3.61a3.11,3.11,0,0,1-2.26.68A3.11,3.11,0,0,0,81.74,40c-2.65-.09-5.3-.23-7.95-.27-1,0-2.36-.29-1.62,1.62,1.36,3.48-.76,5.95-2.62,8.47-2.53,1.6-4.5,3.39-3.06,6.82,1.22,2.91,3.14,6.14-1.11,8.2-3,1.47-5.59-.24-7.79-4.78.36-2.06,1-4,.06-6.22a5.53,5.53,0,0,1,.7-5,4.26,4.26,0,0,0-.13-5.43h0c-1.9-2.92-8.67-3.82-11.07-1.4-.39.39,0,1,.59,1.14h0a39.09,39.09,0,0,1,0,5.19c-.28,2.23-1.41,4-3.84,4.45-2.83.56-3.23-1.63-3.86-3.51a23.8,23.8,0,0,0-1.21-3.72c-.7-1.3-1.29-3.22-3.51-2.1-3.79,1.91-7.63,1.24-11.48.22l-.09-.05h-.86l.65-.72c-3.37-2.83-3.35-5.91.05-11-.17-.27-.8-.18-1.31-.19.51,0,1.14-.08,1.31.19l5.71-3.77h0l2.4-1.07h0c9.54-3.74,19.6-4.92,29.69-5.93a10.49,10.49,0,0,1,4.45-.84,10.49,10.49,0,0,0-4.45.84l18,.05c8.67,1.42,17.49,2.32,25.52,6.26,3.79,1.86,7.61,3.73,7.57,9.2C112.48,40.93,109.52,42.16,106.79,43.9Z"/>
        <path class="cls-4" d="M82.13,63.77c-.16.14-.3.37-.42.36s-.32-.22-.47-.34c.08-.08.18-.24.25-.23A4.31,4.31,0,0,1,82.13,63.77Z"/>
        <path class="cls-1" d="M45.38,11.61a2.18,2.18,0,0,1-2.3,2.25A2.71,2.71,0,0,1,40.48,11c0-1.58,1.19-1.94,2.45-1.77S45.47,10,45.38,11.61Z"/>
        <path class="cls-1" d="M92.66,10.91a2,2,0,0,1-2.28,1.68,2.4,2.4,0,0,1-2.66-2.4c0-1.37,1-1.88,2.5-1.9C92.15,8.25,92.27,9.61,92.66,10.91Z"/>
        <path class="cls-6" d="M68.22,36.58c3.6-5.12,7.93-6.8,13.53-5.26A4.24,4.24,0,0,1,84.9,35.9c-.12,1.92-2.14,1.55-3.55,1.53C77,37.39,72.55,38,68.22,36.58Z"/>
        <path class="cls-4" d="M45.36,45.93c0,1.93.09,3.41-1.47,3.56-1.39.13-1.34-1.34-1.63-2.33-.87-3-3-5.87-.38-9,.2-.25.1-.76.13-1.15.12-1.21-2.74-2.09-.8-3.21,1.63-.93,3.85-1,5.82-1.11s2.45,2,1.37,2.74C44.13,38.44,43.42,42.11,45.36,45.93Z"/>
        <path class="cls-4" d="M68,41.32c-1.22-1.48-2.72-2.64-3.41-4.69-.35-1.06-.92-1.53.19-2.25a7.8,7.8,0,0,0,3.11-3.44c-1.79,0-3.28.12-4.74,0A4.22,4.22,0,0,0,58.54,34c-.58,1.84-1.15,4.25,1,5.9,3.62,2.8,5.08,5.45,1.8,10-2,2.77-.62,7-.17,10.59a2.26,2.26,0,0,0,2.75,1.83c1.6-.51.76-2,.74-3.12,0-.59-.64-1.14-.91-1.76-1.44-3.23-1.56-6.13,1.74-8.5a10.68,10.68,0,0,0,3.69-4.15C69.93,43.17,69.82,42,68,41.32Z"/>
        <path class="cls-4" d="M91.52,40.83c0,1.07.17,2.43-1,2.73s-1-1.24-1.54-1.88c-2.07-2.48-.84-5.64-1.78-8.36-.3-.85.65-1.79,1.35-1.21.87.72,3.31-.11,2.64,1.45C90,36.22,91.35,38.43,91.52,40.83Z"/>
        <path class="cls-6" d="M50.42,37.85c2.82-1.12-1.53-8.15,5.37-5.86C54.85,34.54,56,38.75,50.42,37.85Z"/>
        <path class="cls-6" d="M107.57,31.84c-9.46-5.61-19.8-7.48-30.63-7.36-.27-.24-.53-.69-.8-.7-12.5-.55-25-.19-37,3.42C33.85,28.78,28.32,30.27,24.61,35c-1.83,2.33-1.64,4.26.83,6s10.75,1.07,12.76-1.22a2,2,0,0,0,.17-2.88c-.73-.86-1.41-2.13-2.93-1.16-1.12.72-2.27,1.38-3.4,2.08s-2.51.71-3.22-.42c-.89-1.4.68-1.76,1.51-2.21a26.58,26.58,0,0,1,4.37-2c10.23-3.41,20.79-4.61,31.53-4.6,1.2,0,2.73.78,3.61-.83l5.57.31,5.5-.28h0l-5.5.28c2.53.88,5.15.63,7.75.54a2.2,2.2,0,0,0,2,.67l3,.1c3.56.88,7.17,1.59,10.67,2.7,1.83.58,4.43.52,4.72,3.4a.33.33,0,0,0-.47.26c-1.94.5-3.45-.37-5.13-1.25a3.05,3.05,0,0,0-4.54,1.73c-.77,2.18,1.17,2.49,2.68,2.91.76.21,1.53.39,2.3.58,1.67.4,3.34.83,5,1.19,2.89.6,5.36,0,6.67-2.87S109.82,33.32,107.57,31.84ZM81,27.83h0Zm.3.05a2.09,2.09,0,0,0,.49-.05A2.09,2.09,0,0,1,81.34,27.88Z"/>
        <path class="cls-4" d="M85.84,59c0-1.78.2-3.75,1.9-3.58,2,.21,1.08,2.65,1.59,4a1.75,1.75,0,0,1-1.76,2.16C85.72,61.57,85.78,60.05,85.84,59Z"/>
      </g>
    </g>
  </g>
</svg>
