<?xml version="1.0" encoding="utf-8"?>
<!-- Generator: Adobe Illustrator 26.0.3, SVG Export Plug-In . SVG Version: 6.00 Build 0)  -->
<svg version="1.1" id="Layer_1" xmlns="http://www.w3.org/2000/svg" xmlns:xlink="http://www.w3.org/1999/xlink" x="0px" y="0px"
	 viewBox="0 0 156 156" style="enable-background:new 0 0 156 156;" xml:space="preserve">
<style type="text/css">
	.st0{fill:#DDD700;stroke:#CCCC00;stroke-width:3;stroke-miterlimit:10;}
	.st1{fill:#9CFF00;stroke:#C4FF66;stroke-width:5;stroke-miterlimit:10;}
	.st2{opacity:0.78;}
	.st3{fill:url(#SVGID_1_);}
	.st4{opacity:0.81;enable-background:new    ;}
	.st5{fill:#FFFFFF;}
	.st6{opacity:0.28;enable-background:new    ;}
</style>
<g id="Layer_2_00000116943859272875637740000001135667553709324947_">
	<g id="Layer_1-2">
		<g>
			<circle class="st0" cx="78" cy="78" r="76.5"/>
			<g>
				<circle class="st1" cx="78.3" cy="78" r="60.6"/>
				<g class="st2">
					
						<radialGradient id="SVGID_1_" cx="94.74" cy="1891.36" r="136.86" gradientTransform="matrix(1 0 0 1 0 -1844)" gradientUnits="userSpaceOnUse">
						<stop  offset="0.27" style="stop-color:#FFFFFF;stop-opacity:0"/>
						<stop  offset="0.34" style="stop-color:#FFFFFF;stop-opacity:0.14"/>
						<stop  offset="0.48" style="stop-color:#FFFFFF;stop-opacity:0.49"/>
						<stop  offset="0.68" style="stop-color:#FFFFFF"/>
					</radialGradient>
					<circle class="st3" cx="77.7" cy="80.7" r="54.3"/>
				</g>
			</g>
		</g>
	</g>
</g>
<g class="st4">
	<path class="st5" d="M88.1,78.6c10.6,1.5,11,10.9,2.9,16.8c-8.2,5.8-25.8,12.7-37.2,14c-0.4-2.4,1.4-11.2,3-13.3
		C67,95.2,79,92.1,80.3,87c0.4-1.8-5.8-3.2-12.7-1.2c0.6-3.7,1.4-5.6,3.6-8.7c8.9-3.2,17.4-9.7,17.2-12.2c-0.1-1.5-7.9-1.5-21.5,4
		c0,0,0.9-7,6.3-13.2c17.1-7.6,33.6-6.2,34.3,1.6C108.5,65.1,101.6,71.6,88.1,78.6z"/>
</g>
<g class="st6">
	<path d="M85.7,77.5c10.6,1.5,11,10.9,2.9,16.8c-8.2,5.8-25.8,12.7-37.2,14c-0.4-2.4,1.4-11.2,3-13.3c10.2-0.9,22.2-4,23.5-9.1
		c0.4-1.8-5.8-3.2-12.7-1.2c0.6-3.7,1.4-5.6,3.6-8.7c8.9-3.2,17.4-9.7,17.2-12.2c-0.1-1.5-7.9-1.5-21.5,4c0,0,0.9-7,6.3-13.2
		c17.1-7.6,33.6-6.2,34.3,1.6C106.1,64,99.2,70.5,85.7,77.5z"/>
</g>
</svg>
