<svg xmlns="http://www.w3.org/2000/svg" width="134.15" height="106.64" viewBox="0 0 134.15 106.64">
  <defs>
    <style>
      .cls-1 {
        fill: #050105;
      }

      .cls-2 {
        fill: #fcc;
      }

      .cls-3 {
        fill: #fa0102;
      }

      .cls-4 {
        fill: #fefefe;
      }

      .cls-5 {
        fill: #2622f6;
      }

      .cls-6 {
        fill: #03c6fd;
      }

      .cls-7 {
        fill: #fac406;
      }

      .cls-8 {
        fill: #fddf8d;
      }

      .cls-9 {
        fill: #710020;
      }
    </style>
  </defs>
  <g id="Layer_2" data-name="Layer 2">
    <g id="Layer_1-2" data-name="Layer 1">
      <g>
        <path class="cls-1" d="M117.22,56.51c.23,1.5,3.34,1.58,1.92,3.89a10.58,10.58,0,0,1-4.63,1.91c-1.82.19-2.57,1.31-.9,2.88,1.06,5.25,1.73,10.44.91,15.87-.32,2.09.91,4.56,1.87,6.67,2.32,5.08,2.29,10.42,2.19,15.8,0,2-1.46,2.31-3,2.34l-9.66.21c-4.06-.7-8.12-.23-12.19-.15H77.82l-2.21-.06.31,0c-7-1.46-14-.86-21-.07l-10.21.07c-5.33-1.23-10.74-.68-16.12-.85-2.76-2-5.11-4.36-5.83-7.79-.46-2.18-1.94-2-3.36-1.86A14.72,14.72,0,0,1,8.2,92.05L3.14,85.57C-1.34,78.36-.22,70.35,1.55,63c1-4.06,3-8.18,4-12.46.09-.37.29-.9.58-1,4.71-2.08,5.06-6.48,6.09-10.72C13.66,33,22,29.12,27.16,31c3.17,1.12,5.53,1.8,6.17-3.15a9.8,9.8,0,0,1,5.83-7.22c1.11-.5,2.32-1.24,3.2.09,1.19,1.8-.91,1.84-1.63,2.44-2.25,1.86-5.29,2.44-4.73,7,.53,4.19,2.46,4.74,5.57,4.58,3.36-.16,6.42.33,9,2.74,3.5,3.34.89,7,.18,10.33-.38,1.74-.3,3,.7,3.77,3.47,2.81,2.41,5.92,1,9.15-1.29,3-4.06,5.58-2.09,9.26-.13,2.14-1.84,2.67-3.41,3.43-3.26,1.58-5.2,5.78-4.63,9.76q4.55,6.28,9.08,12.57c1.37,1.9,2.37,1.42,3-.52,1.13-3.64,2.14-7.33,3.2-11,2.21-4-.84-2.64-2.63-2.54-1.55,0-3.08.06-2.06-2.37s1.78-5,2.65-7.44c1.26-2.2,2.58-4.37,3.77-6.61a6.07,6.07,0,0,0,.34-5.38c-1.81-4.73.08-7.14,5.33-7.35S75.29,52,77.58,46.06c.44-1,1.72-1.66,1.25-3.29-4.48,3-9.38,3.78-14.56,3.1a2.89,2.89,0,0,1-1.94-4.34c2.33-4.15-1.08-5-3.33-5.84-3.52-1.3-6.65-2.83-6.52-6.95S56,22.67,59.4,20.82c4.65-2.51,9.46-1.24,14.21-1.36,2.55-.06,4-.69,5.21-3.24,1.91-4.11,5.54-6.48,10.07-7.38A28,28,0,0,0,103,1.69c2.52-2.4,5-1.88,7.32-.68a13.54,13.54,0,0,0,8.06,1.51c5.39-.64,8.64,2.83,11.82,6.35.32,2.31,1.73,4.55,1.07,6.9-.72,2.58.34,4.25,2.05,5.83,1,2.82,1.46,5.43-.39,8.32a7.41,7.41,0,0,0-1.1,5.88c.87,3.5-.77,6.42-3.72,8.52-3.1.46-5,1.91-4.51,5.38-1.11.24-1.64,1.17-2.29,1.95-1.11.37-2.26.65-3.33,1.13C116,53.65,115.21,54.84,117.22,56.51Zm-2.15-28c-.81,1.12-.36,1.83.74,2.35,2.18,3.93,3.78,7.88.3,12-2.34,1.18-4.53,2.56-7.48,1.92-2.19-.47-6,4.38-4.68,5.94,2.88,3.35,6.44,6.12,9.77,9.07a.85.85,0,0,0,1.24-.6l-1.84-3.88c.57-1.83.46-4.67,2.71-4.83,4.8-.35,4.83-3.43,4.8-6.84,2.14-.61,4.37-1,6.31-2.2,2.23-2.61,3.56-5.31.81-8.4a3.35,3.35,0,0,1,.94-3c1.84-1.11,3.72-3.63,2.8-4.74-3.56-4.3-4.35-9-3.79-14.22-.91-3.28-3-5.32-6.46-5.38-4.59-.08-9.21.25-13.14-2.92a1.83,1.83,0,0,0-2.79.49c-.85,1.39.61,1.7,1.38,2.3,2.06,2.34.68,4.22-.83,6.08a2.67,2.67,0,0,0-.87,2.23c-1.06.79-.66,1.54.07,2.28a1,1,0,0,0,.08.73l-.28.95c-2.83.56-5.86.92-4.8,5.15.13.49-.17,1.27-.76,1.21-4.6-.41-4.45,3.21-5.59,6.08-1.76,4.41-.84,6,4.08,5.93.87-.32,1.79-.55,2.26-1.48l.08-.08c3.22-3,6.53-5.83,10.77-7.36,1.76-.64,3.35-1.24,4.19,1.16ZM40.26,89.68c.69-.94,3.33-.71,1.78-3-1.24-1.84-2.6-1.26-4.15-.46-4.5,2.32-7.65,6.21-11.36,9.46-2.13,1.86-1.5,3,.21,4.42,1.69,3.49,5,3.06,8,3.22,5.22,1.48,8.53-2.09,12.36-4.52,2.65-1.69,2.93-3.09.46-5-.8-.94-1.84-1.64-2.37-2.88-.72-1.7-2-1.4-3.15-.41C41.35,90.42,40.39,91,40.26,89.68Zm69.65,13.59c1.53-.36,2.93,2.16,4.54.21,1.9.13,2-1,2-2.53.22-5.62-1.47-10.77-3.29-16-1.29-3.68-3.41-4.35-6.66-2.71a5.17,5.17,0,0,0-3.82.64L100.56,84c-.8,0-1.61,0-2.41,0-4.27.09-4.51.44-2.23,4.19,2.41,4,3.38,8.35,4.17,12.77.24,1.35.56,2.3,1.86,2.71s2.64.3,3.21-1.34c.49.32,1,.64,1.48,1A3.15,3.15,0,0,0,109.91,103.27ZM82.11,77.43c-.07,2.48,2.59,1.13,3.38,2.41C81.75,79.59,83,82.19,83.27,84c.39,2.58,2,1.24,3.28.83A160.47,160.47,0,0,1,109,79.32c2.85-.46,3.77-1.36,3.39-4l0-1.39c0-2.35-.64-3.37-3.49-3a29.35,29.35,0,0,1-9.54.1c3.12-1.18,6.41-1.29,9.68-1.61,1.06-.11,3,1.24,3.12-1.09.07-1.89-1.41-2.14-3.11-2.14-9.52,0-18.66,2.3-27.84,4.42-.94.22-2.68.47-1.87,2.28.53,1.21,1.34,1.52,2.89,1.14,5.66-1.39,11.3-3,17.19-3-4.64,2.26-9.82,2.33-14.72,3.58C83.08,75,81.29,75,82.11,77.43Zm10.55,26.09a13.24,13.24,0,0,1,2,0c3.27.48,4.42-.56,3.2-3.91-.89-2.45-1.38-5-2-7.57-3.56-6.4-3.56-6.4-9.28-5.15L83.34,88.1A1.83,1.83,0,0,1,81.2,86c.07-2.74-1.38-2.19-3-1.46a4.23,4.23,0,0,0-2.4,1.85c-4.74,4.7-8.71,9.8-8.69,16.95,5.91.73,11.81,1.51,17.74.14ZM64.53,88.46c-.81-.15-.1-2.9-1.9-1.22-3.23,3-6.31,6.2-7.07,10.79-.47,2.83.47,5,3.66,5.42,4,.82,5.48-1.26,6.56-4.83,2.16-7.07,6.14-13,12.61-16.93.82-.5,2.34-.43,2-1.78-.63-2.4-1.31-5-3.55-6.41-1.18-.75-2.15.53-3.06,1.33A32.52,32.52,0,0,0,64.53,88.46Zm-29-20.56c-.12-.75.27-1.18.82-1.67,2.39-2.14,5.29-1.65,8.07-1.61a4.84,4.84,0,0,0,4.79-4c.42-1.76-2.38-1.58-3.64-2.43a15.73,15.73,0,0,0-3-1,7.62,7.62,0,0,1-4.92-9.14,9.08,9.08,0,0,1,7.66-6.83c1.23-.1,2.77-.08,2.82-1.55s-1.44-2.09-2.71-2.49a6.65,6.65,0,0,0-2-.09,27.87,27.87,0,0,1-12.72-2.48c-7.41-3.43-15.93.88-16.76,8.44-1,9,1.75,17.11,7.15,24.27,2.23,3,5.3,3.56,9,2.38,1.86-.6,3.35-2.36,5.56-1.88-5.27,5.47-12.86,7.23-17.2-.2A55.41,55.41,0,0,1,12.1,53.49c-.39-1.5.16-4-1.88-4.13-2.49-.2-3,2.49-3.54,4.27a11,11,0,0,0,.54,7.1,37.44,37.44,0,0,0,4,8.67c.46.66,1.59,1.55.29,2.33a1.67,1.67,0,0,1-2.34-.94,66.58,66.58,0,0,0-3-6c-.6-.91.1-3-1.7-2.69s-1.31,2.1-1.35,3.36C3,69.56,4.48,73.21,6.6,76.67c.52.85,1,1.74-.26,2.33-.94.45-1.4-.15-1.82-1-.24-.47-.38-1.33-1.3-1.15C2.64,84.61,10.11,92.72,17.63,93c5.18.17,10.11.34,13.44-4.67a5.42,5.42,0,0,1,2.25-1.63c4.3-1.92,6.41-5.41,7.18-9.84.52-3.06,1.85-5.25,5.18-5.69,1-.14,1.91-.65,1.87-1.72s-1-1.28-2-1.62A14.74,14.74,0,0,0,35.52,67.9ZM77.05,32.64c3.88-.94,6.08.71,7.89,3.1,1.7,2.24,1.31,3.67-1.69,4.15-.35.06-.52,1.43-.71,2.2-2,7.95-6.35,11.5-14.66,12.15a42.81,42.81,0,0,0-4.36.64c-1.58.28-2.74,1.51-2,2.83,2.13,3.93.31,7.31-.77,10.94s1.47,6,4,7.56,4.74-.06,6.54-2.15,3.26-4.15,6.11-4.86c9.28-2.32,18.59-4.54,28.14-5.37,4-.35,4.71-1.5,2.8-5.17-1-1.94-2.87-2.76-4.36-4.08a6.1,6.1,0,0,1-2.44-5.5c.21-3.12,2.54-5.13,3.33-7.95.3-1.06,2.8,1.47,4.64.86a13.33,13.33,0,0,1,2-.05,4.43,4.43,0,0,0,3.91-3.52c.52-2.29.51-4.75-1.92-6-1.72-.9-3.29-2.47-5.79-.78-2.8,1.9-4.94,4.53-7.82,6.27a6.41,6.41,0,0,1-7.82-.56,5.61,5.61,0,0,1-1.66-7.18C92,26.81,92,22.42,96.75,21.42c.57-5.26,5.77-7.76,7.43-12.44.74-2.1.24-2.54-1.66-2.59s-3.29,1.1-4.85,1.76c-2,.85-3.5,3.2-6,3-5.14-.29-8.35,2.22-10.35,6.63-1.35,3-3.88,3.85-6.82,3.94-2.69.07-5.38,0-8.07-.05a16.1,16.1,0,0,0-7.36,1.66c-2.39,1.2-4.38,3.14-4,5.87s2.56,3.91,5.32,3.85a4.34,4.34,0,0,1,.79.13c5.86,1.19,6.41,1.83,4,7.34-1.36,3.11.42,3.46,2.29,3.31a16.72,16.72,0,0,0,9.92-3.77C81,37,81,36,77.05,32.64ZM44.89,43.56a4.73,4.73,0,0,0-5.15,3.18,6.52,6.52,0,0,0,2.85,8c2.22,1.37,4.61,2.76,7.39,1,1.64-1,.53-1.71-.22-2.42C48,51.7,46.83,49.6,48,47.33,49.73,43.78,47.7,43.6,44.89,43.56Zm9.44,59.73c-2.71-5.42-4.59-5.34-9.44,0ZM60,86.08a18,18,0,0,0,4.93-4.74c.62-.86,1.83-2,.08-2.84-1.16-.53-2.77-.75-3.4.91A16.12,16.12,0,0,0,60,86.08Zm.47-9.79c-1.06-1-.65-3.63-2.13-3.4-2.21.34-2.08,3-2.65,4.8-.27.85.34,1.74,1.34,1.16C58.26,78.15,60.44,78.62,60.47,76.29Z"/>
        <path class="cls-1" d="M44.74,105.85,55,105.78l21,.07-.31,0a154.71,154.71,0,0,1-27.56.24c-3.63-.29-7.12.91-10.69.37-1.42-.21-2.93.5-4.27-.47Z"/>
        <path class="cls-1" d="M123.55,49.7c-.49-3.47,1.41-4.92,4.51-5.38l.38.1C127,46.36,125.84,48.55,123.55,49.7Z"/>
        <path class="cls-1" d="M77.82,105.93H93.69a.37.37,0,0,1-.15.41C88.3,106.35,83,106.92,77.82,105.93Z"/>
        <path class="cls-1" d="M44.74,105.85,33.09,106c-1.45-.49-3.25.53-4.47-1C34,105.17,39.41,104.62,44.74,105.85Z"/>
        <path class="cls-1" d="M93.54,106.34a.37.37,0,0,0,.15-.41c4.07-.08,8.13-.55,12.19.15C101.78,107.09,97.65,106.43,93.54,106.34Z"/>
        <path class="cls-2" d="M77.05,32.64C81,36,81,37,77.38,40.11a16.72,16.72,0,0,1-9.92,3.77c-1.87.15-3.65-.2-2.29-3.31,2.41-5.51,1.86-6.15-4-7.34a4.34,4.34,0,0,0-.79-.13c-2.76.06-5-1.16-5.32-3.85s1.66-4.67,4-5.87a16.1,16.1,0,0,1,7.36-1.66c2.69,0,5.38.12,8.07.05,2.94-.09,5.47-.95,6.82-3.94,2-4.41,5.21-6.92,10.35-6.63,2.46.15,3.91-2.2,6-3,1.56-.66,3-1.8,4.85-1.76s2.4.49,1.66,2.59c-1.66,4.68-6.86,7.18-7.43,12.44-4.79,1-4.73,5.39-6.31,8.73a5.61,5.61,0,0,0,1.66,7.18,6.41,6.41,0,0,0,7.82.56c2.88-1.74,5-4.37,7.82-6.27,2.5-1.69,4.07-.12,5.79.78,2.43,1.27,2.44,3.73,1.92,6a4.43,4.43,0,0,1-3.91,3.52,13.33,13.33,0,0,0-2,.05c-1.84.61-4.34-1.92-4.64-.86-.79,2.82-3.12,4.83-3.33,7.95a6.1,6.1,0,0,0,2.44,5.5c1.49,1.32,3.36,2.14,4.36,4.08,1.91,3.67,1.21,4.82-2.8,5.17-9.55.83-18.86,3-28.14,5.37-2.85.71-4.4,2.87-6.11,4.86s-4,3.73-6.54,2.15-5.13-3.93-4-7.56,2.9-7,.77-10.94c-.71-1.32.45-2.55,2-2.83a42.81,42.81,0,0,1,4.36-.64c8.31-.65,12.62-4.2,14.66-12.15.19-.77.36-2.14.71-2.2,3-.48,3.39-1.91,1.69-4.15C83.13,33.35,80.93,31.7,77.05,32.64Zm9.39-9.36c.13-1.53-.54-2.47-2.26-2.44-1.92,0-2.42,1.35-2.49,2.94A2.39,2.39,0,0,0,84,26.46C85.5,26.39,86.52,25.12,86.44,23.28Z"/>
        <path class="cls-2" d="M35.52,67.9a14.74,14.74,0,0,1,10.06-.12c.92.34,1.92.58,2,1.62s-.84,1.58-1.87,1.72c-3.33.44-4.66,2.63-5.18,5.69-.77,4.43-2.88,7.92-7.18,9.84a5.42,5.42,0,0,0-2.25,1.63c-3.33,5-8.26,4.84-13.44,4.67-7.52-.23-15-8.34-14.41-16.07.92-.18,1.06.68,1.3,1.15.42.82.88,1.42,1.82,1,1.24-.59.78-1.48.26-2.33C4.48,73.21,3,69.56,3.08,65.43c0-1.26-.38-3.08,1.35-3.36s1.1,1.78,1.7,2.69a66.58,66.58,0,0,1,3,6,1.67,1.67,0,0,0,2.34.94c1.3-.78.17-1.67-.29-2.33a37.44,37.44,0,0,1-4-8.67,11,11,0,0,1-.54-7.1c.57-1.78,1.05-4.47,3.54-4.27,2,.16,1.49,2.63,1.88,4.13a55.41,55.41,0,0,0,6.27,14.16c4.34,7.43,11.93,5.67,17.2.2Z"/>
        <path class="cls-3" d="M35.57,67.85c-2.21-.48-3.7,1.28-5.56,1.88-3.65,1.18-6.72.58-9-2.38-5.4-7.16-8.13-15.29-7.15-24.27.83-7.56,9.35-11.87,16.76-8.44a27.87,27.87,0,0,0,12.72,2.48,6.65,6.65,0,0,1,2,.09c1.27.4,2.77,1,2.71,2.49s-1.59,1.45-2.82,1.55a9.08,9.08,0,0,0-7.66,6.83,7.62,7.62,0,0,0,4.92,9.14,15.73,15.73,0,0,1,3,1c1.26.85,4.06.67,3.64,2.43a4.84,4.84,0,0,1-4.79,4c-2.78,0-5.68-.53-8.07,1.61-.55.49-.94.92-.82,1.67ZM22.49,43.7c-.08.46-.88,1-.26,1.34,1.78.89,5.84-.93,6-2.91s1.39-5.11-2.63-5.25c-.57,1.34-1.87.7-2.82,1a3.68,3.68,0,0,0-2.6,3.18C20,42.67,20.92,43.52,22.49,43.7Z"/>
        <path class="cls-4" d="M64.53,88.46a32.52,32.52,0,0,1,9.23-13.63c.91-.8,1.88-2.08,3.06-1.33,2.24,1.43,2.92,4,3.55,6.41.36,1.35-1.16,1.28-2,1.78-6.47,3.93-10.45,9.86-12.61,16.93-1.08,3.57-2.57,5.65-6.56,4.83C61,98.46,63.3,93.65,64.53,88.46Z"/>
        <path class="cls-5" d="M84.9,103.46c-5.93,1.37-11.83.59-17.74-.14,1.24-.62,3.46,1.34,3.88-1.15.83-5,3.28-9.38,5.17-14,.35-.84.73-1.39-.36-1.83a4.23,4.23,0,0,1,2.4-1.85c1.57-.73,3-1.28,3,1.46a1.83,1.83,0,0,0,2.14,2.12c-1.27,2.71-2.6,5.39-3.79,8.13-3,7-3,7.06,4.47,7.11.27,0,.53,0,.8,0Z"/>
        <path class="cls-4" d="M112.34,75.33c.38,2.63-.54,3.53-3.39,4a160.47,160.47,0,0,0-22.4,5.48c-1.29.41-2.89,1.75-3.28-.83-.26-1.78-1.52-4.38,2.22-4.13a9,9,0,0,0,1.56-.07C95.42,77.92,103.62,75.17,112.34,75.33Z"/>
        <path class="cls-4" d="M106.55,82.27c3.25-1.64,5.37-1,6.66,2.71,1.82,5.2,3.51,10.35,3.29,16-.06,1.55-.15,2.66-2,2.53-1.55,0-2.71-.34-2.88-2.29-.24-2.55-.75-5.07-1.15-7.61C110.5,89.34,106.15,86.62,106.55,82.27Z"/>
        <path class="cls-4" d="M99.4,71c-5.9,0-11.54,1.64-17.2,3-1.55.38-2.36.07-2.89-1.14-.81-1.81.93-2.06,1.87-2.28,9.18-2.12,18.32-4.44,27.84-4.42,1.7,0,3.18.25,3.11,2.14-.08,2.33-2.06,1-3.12,1.09-3.27.32-6.56.43-9.68,1.61Z"/>
        <path class="cls-5" d="M86.53,86.86c5.72-1.25,5.72-1.25,9.27,5.14-.61-.61-1.78-1.08-1.91-.22-.6,3.88-2.54,7.66-1.23,11.74l-7.76-.06-.08-.09c1.83-4.9,1.79-10.18,3.14-15.18C88.23,87.18,87.46,86.83,86.53,86.86Z"/>
        <path class="cls-4" d="M105.16,102.33c-.57,1.64-1.8,1.8-3.21,1.34s-1.62-1.36-1.86-2.71c-.79-4.42-1.76-8.82-4.17-12.77-2.28-3.75-2-4.1,2.23-4.19.8,0,1.61,0,2.41,0C102.87,89.89,104.91,95.88,105.16,102.33Z"/>
        <path class="cls-6" d="M82.11,77.43c-.82-2.47,1-2.46,2.56-2.86,4.9-1.25,10.08-1.32,14.72-3.58l-.06,0a29.35,29.35,0,0,0,9.54-.1c2.85-.36,3.48.66,3.49,3-7.15-.82-14,.87-20.76,2.75C88.47,77.54,85.45,79.39,82.11,77.43Z"/>
        <path class="cls-4" d="M44.89,43.56c2.81,0,4.84.22,3.07,3.77-1.13,2.27,0,4.37,1.8,6.05.75.71,1.86,1.4.22,2.42-2.78,1.72-5.17.33-7.39-1a6.52,6.52,0,0,1-2.85-8A4.73,4.73,0,0,1,44.89,43.56Z"/>
        <path class="cls-4" d="M86.53,86.86c.93,0,1.7.32,1.43,1.33-1.35,5-1.31,10.28-3.14,15.18-.27,0-.53,0-.8,0-7.49,0-7.52-.06-4.47-7.11,1.19-2.74,2.52-5.42,3.79-8.13Z"/>
        <path class="cls-6" d="M106.55,82.27c-.4,4.35,4,7.07,3.87,11.31-2,.67-1.55,2.35-1.18,3.64a14.83,14.83,0,0,1,.67,6,3.15,3.15,0,0,1-3.27,0,43.71,43.71,0,0,0-3.87-17.82,3.67,3.67,0,0,1,0-2.55A5.17,5.17,0,0,1,106.55,82.27Z"/>
        <path class="cls-6" d="M42,90.48c1.2-1,2.43-1.29,3.15.41.53,1.24,1.57,1.94,2.37,2.88-1-.12-2-.19-2.71.7-4.78,0-9.72,3.67-10.19,7.63l.08,1.2c-3-.16-6.3.27-8-3.22,3.06-.25,4.52-2.59,6.15-4.72C36.39,94.58,39.06,92.26,42,90.48Z"/>
        <path class="cls-4" d="M32.89,95.36c-1.63,2.13-3.09,4.47-6.15,4.72-1.71-1.39-2.34-2.56-.21-4.42,3.71-3.25,6.86-7.14,11.36-9.46,1.55-.8,2.91-1.38,4.15.46,1.55,2.31-1.09,2.08-1.77,3C37.72,91.47,34.83,92.79,32.89,95.36Z"/>
        <path class="cls-5" d="M64.53,88.46c-1.23,5.19-3.53,10-5.31,15C56,103,55.09,100.86,55.56,98c.76-4.59,3.84-7.79,7.07-10.79C64.43,85.56,63.72,88.31,64.53,88.46Z"/>
        <path class="cls-4" d="M44.84,94.47c.73-.89,1.71-.82,2.71-.7,2.47,1.92,2.19,3.32-.46,5-3.83,2.43-7.14,6-12.36,4.52,0-.4-.06-.8-.08-1.2A52.44,52.44,0,0,1,44.84,94.47Z"/>
        <path class="cls-4" d="M75.85,86.37c1.09.44.71,1,.36,1.83-1.89,4.59-4.34,9-5.17,14-.42,2.49-2.64.53-3.88,1.15C67.14,96.17,71.11,91.07,75.85,86.37Z"/>
        <path class="cls-4" d="M92.66,103.52c-1.31-4.08.63-7.86,1.23-11.74.13-.86,1.3-.39,1.91.22.67,2.54,1.16,5.13,2,7.58,1.22,3.35.07,4.39-3.2,3.91A13.24,13.24,0,0,0,92.66,103.52Z"/>
        <path class="cls-5" d="M82.11,77.43c3.34,2,6.36.11,9.49-.75,6.79-1.88,13.61-3.57,20.76-2.75,0,.46,0,.93,0,1.4-8.72-.16-16.92,2.59-25.29,4.44a9,9,0,0,1-1.56.07C84.7,78.56,82,79.91,82.11,77.43Z"/>
        <path class="cls-5" d="M102.73,82.91a3.67,3.67,0,0,0,0,2.55,43.71,43.71,0,0,1,3.87,17.82c-.5-.31-1-.63-1.48-1-.25-6.45-2.29-12.44-4.6-18.36Z"/>
        <path class="cls-4" d="M54.33,103.29H44.89C49.74,98,51.62,97.87,54.33,103.29Z"/>
        <path class="cls-4" d="M60,86.08a16.12,16.12,0,0,1,1.61-6.67c.63-1.66,2.24-1.44,3.4-.91,1.75.79.54,2-.08,2.84A18,18,0,0,1,60,86.08Z"/>
        <path class="cls-4" d="M60.47,76.29c0,2.33-2.21,1.86-3.44,2.56-1,.58-1.61-.31-1.34-1.16.57-1.79.44-4.46,2.65-4.8C59.82,72.66,59.41,75.34,60.47,76.29Z"/>
        <path class="cls-5" d="M109.91,103.27a14.83,14.83,0,0,0-.67-6c-.37-1.29-.86-3,1.18-3.64.4,2.54.91,5.06,1.15,7.61.17,2,1.33,2.28,2.88,2.29C112.84,105.43,111.44,102.91,109.91,103.27Z"/>
        <path class="cls-1" d="M75.92,105.85l-21-.07C61.94,105,68.93,104.39,75.92,105.85Z"/>
        <path class="cls-5" d="M32.89,95.36c1.94-2.57,4.83-3.89,7.38-5.68.12,1.29,1.08.74,1.76.8C39.06,92.26,36.39,94.58,32.89,95.36Z"/>
        <path class="cls-7" d="M131.49,25.21c-3.56-4.3-4.35-9-3.79-14.22-.91-3.28-3-5.32-6.46-5.38-4.59-.08-9.21.25-13.14-2.92a1.83,1.83,0,0,0-2.79.49c-.85,1.39.61,1.7,1.38,2.3,2.06,2.34.68,4.22-.83,6.08a2.67,2.67,0,0,0-.87,2.23c-1.06.79-.66,1.54.07,2.28a1,1,0,0,0,.08.73l-.28.94c-2.83.57-5.86.93-4.8,5.16.13.49-.17,1.27-.76,1.21-4.6-.41-4.45,3.21-5.59,6.08-1.76,4.41-.84,6,4.08,5.93.87-.32,1.79-.55,2.26-1.48l-.57-.29.31-.31.34.52c3.22-3,6.53-5.83,10.77-7.36,1.76-.64,3.35-1.24,4.19,1.17l.2.29-.22-.19c-.81,1.12-.36,1.83.74,2.35,2.18,3.93,3.78,7.88.3,12-2.34,1.18-4.53,2.56-7.48,1.92-2.19-.47-6,4.38-4.68,5.94,2.88,3.35,6.44,6.12,9.77,9.07a.85.85,0,0,0,1.24-.6l-1.84-3.88c.57-1.83.46-4.67,2.71-4.83,4.8-.35,4.83-3.43,4.8-6.84,2.14-.61,4.37-1,6.31-2.2,2.23-2.61,3.56-5.31.81-8.4a3.35,3.35,0,0,1,.94-3C130.53,28.84,132.41,26.32,131.49,25.21Z"/>
        <path class="cls-8" d="M115.56,29.06a1.18,1.18,0,0,0-.49-.59l0-.1Z"/>
        <path class="cls-1" d="M86.44,23.28c.08,1.84-.94,3.11-2.42,3.18a2.39,2.39,0,0,1-2.33-2.68c.07-1.59.57-2.9,2.49-2.94C85.9,20.81,86.57,21.75,86.44,23.28Z"/>
        <path class="cls-4" d="M22.49,43.7c-1.57-.18-2.53-1-2.28-2.64a3.68,3.68,0,0,1,2.6-3.18c1-.3,2.25.34,2.82-1C27.85,40.94,27.15,42.46,22.49,43.7Z"/>
        <path class="cls-9" d="M22.49,43.7c4.66-1.24,5.36-2.76,3.14-6.82,4,.14,2.83,3.17,2.63,5.25s-4.25,3.8-6,2.91C21.61,44.73,22.41,44.16,22.49,43.7Z"/>
        <path class="cls-4" d="M100.05,34.64l-.57-.29.31-.31.34.52Z"/>
        <path class="cls-5" d="M44.84,94.47a52.44,52.44,0,0,0-10.19,7.63C35.12,98.14,40.06,94.43,44.84,94.47Z"/>
      </g>
    </g>
  </g>
</svg>
