<svg xmlns="http://www.w3.org/2000/svg" width="115.88" height="90.64" viewBox="0 0 115.88 90.64">
  <defs>
    <style>
      .cls-1 {
        fill: #050105;
      }

      .cls-2 {
        fill: #2622f6;
      }

      .cls-3 {
        fill: #4e9428;
      }

      .cls-4 {
        fill: #03c6fd;
      }

      .cls-5 {
        fill: #fefefe;
      }

      .cls-6 {
        fill: #fd11fb;
      }

      .cls-7 {
        fill: #fe4efe;
      }

      .cls-8 {
        fill: #58c955;
      }
    </style>
  </defs>
  <g id="Layer_2" data-name="Layer 2">
    <g id="Layer_1-2" data-name="Layer 1">
      <g>
        <path class="cls-1" d="M2.91,50.22C1.2,44.34,1.67,38.83,6,34.16c1.39-1.49.58-2.67,0-4-1.72-4.24-.39-8.07,2.46-11.06,3.07-3.23,7.3-3.56,11.54-2.58,1.46.34,3.21,2.29,4.23.87,1.16-1.61-.65-3.41-1.65-4.95L20.76,9.59l.9-.92c2.74,1.88,4,4.76,5.06,8,1.75-1.41,3.27-2.7,4.84-3.9,5.84-4.45,12.72-6,19.77-7.09l0,0c1.86,2,2.61,4.42.77,6.49-1.38,1.55-3.6,1-5.45-.06-4.75-2.74-8.84-2-13,2.62,3.86-.72,6.71.74,9.51,2.84,1.78,1.34,4,1.94,4.49-1.53a.9.9,0,0,1,1.39-.8c2.57,1.41,4.89-.57,7-.5,4.38.15,4.51-2,4.33-5l0,0c2.24-1,2.36,4.8,5.25,1.61C68.75,15.89,69,11,70.25,9.61c1.27,2.71,1.27,2.71,3.26,2.67,3.25,1.7,5,0,5.78-2.86,1.33.13,1.19.9,1.14,1.53-.31,3.51,2,3.23,3.84,2.2s2.13-1.17,3,.91S96,18,98.33,17.08c-1,3.76,1.78,6.9,8,9.18-2.6,4.65,0,9.94-1.72,14.73-.05.13.56.5.87.75.41,1.52.81,3-1.74,2.47-1.93-.4-3,1-3.81,2.29-1,1.54.11,2.71,1.45,3.57l5.68,10.18a12.35,12.35,0,0,0,4.25,7.4,20.28,20.28,0,0,1,3.18,3.62c1.9,2.74,2.12,5.32-1.16,7.29-4.93,1.15-9.86,2.13-15,1-2.23-.47-3.74-1.36-3.79-3.84.55-1.78.38-3.66,1.16-5.46,2-4.49.07-9.32-4.47-12.13-1-1.15-2.27-2.28-3.71-1.29-1,.74-.29,2.16,0,3.33.61,2.55,1.55,5.16,1.45,7.71-.19,4.46,1,8,4.65,10.65,1.69,1.25,1.57,3.26,1.66,5.12-3.41,3.4-7.42,5.13-12.3,4.46-2.36-.33-4.89,2-7.11-.45-3.45-.57-4.39-2.59-3.31-5.77,0,0,.08-.34.07-.34.68-2.76,3.6-4.43,3.68-7.48.07-4.89-.89-9.48-4.08-13.36-1-1.24-2.69-1.9-3.65-.47-1.51,2.25-3.29,4.91-1,7.64,1.68,2,2.33,4.38,3.23,6.69-1.07,4.37-4.68,5-8.24,5.26-2.24.18-3.82.22-2.61,3.09.92,2.19-.22,3.62-2.07,4.52a30.35,30.35,0,0,1-17.55,2.87c-5-.66-5.86-4.24-2.49-8,.95-1,2.31-1.78,2.71-3.29,1.27-1.57,4.63-1,4.19-4.4a30.36,30.36,0,0,1,1.91-14.58c-5.51,3.4-6.68,6.59-5.26,12,.61,2.32,1.68,5-.77,7.06a61.86,61.86,0,0,1-10.31,1.65c-1,0-2.22,0-2.59,1.36-.76,2.92-3.14,3.7-5.67,4.4a25.51,25.51,0,0,1-16.52-.89c-.08-1-.16-1.9-.25-2.85A2,2,0,0,0,6.38,81l0,.06c1.57-.36,2.19-1.81,3.22-2.78a.57.57,0,0,0,.48-.48l2-1.79a4.28,4.28,0,0,0,3-3.25c1-3.5,2.18-6.92,3.29-10.36.06-1.57-.22-2.13-2.26-2.61A21,21,0,0,1,2.91,50.22Zm62.3-22.06h-.07c-.64-2.13-1.24-4.28-1.93-6.4-1.39-4.21-8-5.59-11.13-2.39-.45.47-.58.89-.34,1.36,1,2,.55,4.38,2.1,6.14l.9,15.39c0,1.52-.53,3.16.86,4.43-2.77,3.1-2.59,5,2.06,5.23a3.36,3.36,0,0,1,2,1.24c.77.88,1.22,2.35,2.74,1.67,1.34-.6,1-2,1-3.21.79-2.11.48-4.52,1.74-6.51C67,39.47,66.16,33.82,65.21,28.16ZM82.94,85.52c2.74.52,5.17-.69,7.71-1.38s2.32-1.89,1.08-3.76c-2.39-3.61-5.61-4.44-9.58-3.38-4.18-.15-7.75,2.67-7.27,6.28.51,3.88,3.91,1.89,6.08,2.34A7.82,7.82,0,0,0,82.94,85.52ZM37.42,35.57c-2,.78-6.11-2.34-5.53,3.14.11,1-1.1,1-1.84.54-1.41-.9-2.63-2-2.08-3.92s-.44-3.23-1.85-3.42c-2.21-.29-1.29,1.83-1.45,2.94-.55,3.75-2.28,4.68-5.14,2.73a4.36,4.36,0,0,0-1.92-.35c-2.39-.19-4.87.49-7-1.6a2.53,2.53,0,0,0-3.68,1.11A10.91,10.91,0,0,0,5.27,47.51C6.78,54.45,12.58,56.14,18.19,58c4.09-.09,8.25,1.08,12.25-.68,7.22-1,13.15-3.8,16.08-11,1.6-1.54.53-3.5.84-5.25.6-3.31-1.65-5.54-3.43-7.57s-3.3,1.27-5.21,1.26C38.29,34.78,37.85,35.29,37.42,35.57Zm41.41.31c.3-5.82-1.89-11-4-16.25-1.2-3-7-5.19-9.65-3.3-2.21,1.61-.3,4.07.19,6.13,1.22,5.12,2.88,10.17,2.73,15.52a67.88,67.88,0,0,1-2.39,15.38c-.26,1-.94,1.94.44,2.16,2.31.38,5.19,1.92,6.1-2.06A4.14,4.14,0,0,1,75,50.62c2-.75,2.57-2.14,2.76-3.95C78.11,43.08,78.46,39.48,78.83,35.88Zm-3-19.58c4.33,8.63,5,17.91,3.81,27.09-.52,4-.35,6,3,8.25,2.39,1.62,3.79,1.36,5.3-.51a11.24,11.24,0,0,0,2.32-5,80.71,80.71,0,0,0,1-14c0-3-.75-4.2-3.66-2.24-.94.63-2.09,1.12-2.65-.33s.65-1.74,1.76-1.93c.39-.07.78-.36,1.15-.33,2.38.2,2.54-.87,2-2.88C88.2,18.21,84,15.66,75.82,16.3ZM7.24,26.16c-.15,5.79,3.82,7.91,8.55,8.43,4.26.46,8.77-4.48,8.89-9.05.11-4-4-7.78-8.41-7.77S7.3,22,7.24,26.16Zm27.63,7c5.11,0,9.27-3.93,9.21-8.61C44,20,40.59,17,35.62,17c-4.74,0-9.36,4.24-9.28,8.51C26.41,29.56,30.4,33.14,34.87,33.11ZM91.4,21a66.3,66.3,0,0,1,1.33,21.25c-.12,1.13-.79,2.56.51,3.33a3.88,3.88,0,0,0,4.17-.26c1.76-1.11,3.09-2.42,2.84-4.73-.08-.72-.52-1.53.74-1.83,2.25-.54,2.19-2.44,2.07-4.15C102.53,27.64,101.8,24,91.4,21ZM48,88.17c2.59-.65,5-1.08,7.36-1.9,2.86-1,2.86-2.79,1.45-5.36-2-3.59-4.88-1.39-7.38-1.74-4.63-.66-7.33,2.44-10.3,5.06-.58.51-1.27,1.19-.83,2a2.13,2.13,0,0,0,2.05,1C43,87.3,45.67,86.74,48,88.17Zm-33-2.8c2.44-.44,5.06-.82,7.63-1.42a3.34,3.34,0,0,0,2.74-4.22,4,4,0,0,0-4-3.66c-3-.23-5.48,1.32-8.11,2.18s-5.77,3-5.3,5.21C8.42,85.55,12.42,84.64,15,85.37Zm89-7.76a16.38,16.38,0,0,0,7.7-1.38c.76-.3,1.91-.19,1.86-1.62-.1-2.91-5-6.74-7.44-5.54a16.23,16.23,0,0,1-5.73,1.44c-2.69.23-3.52,2.35-3.46,4.6s2,2.39,3.85,2.31C101.57,77.38,102.37,77.51,104,77.61ZM50.31,47.24c.71-.43.89-.47.93-.57,3.57-7.63,1.38-15.28-.18-22.85-.39-1.85-3.85-1.44-3.93-.85-.37,2.82-2.49,5.77-1,8.44C49,36.26,52.78,40.65,50.31,47.24Zm-15,23.91a11.19,11.19,0,0,0-7.67,1.49c-2.39,1.27-2.15,2.75-.59,4.31,2.56,2.57,5.54,1,8.5.9,3.79-.19,3.93-2.27,3.68-5C38.93,69.34,36.34,71.69,35.32,71.15Zm26.84-1.56c-1.53.54-3.73-1-4.75.86a7.51,7.51,0,0,0-.8,6.15c.66,1.65,2.66.6,4,.74a23.5,23.5,0,0,0,3.56-.47c1.66-.11,3.54-.35,3.92-2.09s-.87-3.22-1.83-4.65C65.11,68.37,63.56,70,62.16,69.59ZM78,51.7c-1.7.38-3.71.66-4.56,2.87a3.66,3.66,0,0,0,.72,4c2,2.41,3.54-.41,5.32-.49,1.48-.07,4.12-.28,3.67-2.53A4.68,4.68,0,0,0,78,51.7Zm3.61,14.7c1.32-.67,4.72.76,4.52-3.24C86,60.85,85,59.39,82.43,59.79c-2.18.34-4.76.53-5.06,3.26C77.13,65.21,78.29,66.91,81.58,66.4ZM51.15,67.54c5,1.59,5.13-1.67,5.5-4.15.34-2.19-1.63-2-3-2-3.11,0-5.08,1.51-5.34,4.6S50.73,67.25,51.15,67.54Zm35.69,2.82C86.68,69.2,87,66.92,85,68s-6.08-.85-6.08,3.47c0,1.37-.41,3.71,2.27,3.26S87.4,75,86.84,70.36ZM47.37,73.59c-.44,2.35.42,3.34,3,3.42,3.2.09,4.18-1.33,4.29-4.3.1-3.14-2.27-2.52-3.83-2.66C48.52,69.85,46.86,70.8,47.37,73.59ZM99.53,52.25c-2-2.61-4-5.28-7.59-3.06a3.2,3.2,0,0,0-1,4.84C92.47,56.41,93.15,56.3,99.53,52.25ZM58.65,57c.58-2.43-1-3.54-2.81-3.44-2.55.14-5.35,2-5,4.27.46,2.78,4,.71,6.11,1.68S58.45,58.06,58.65,57Zm43.57,10.7c.84-.55,3.68.25,3.62-2.7,0-1.27-.37-3.62-2.25-3.12s-4.39.91-4.51,3.77C99,67.24,99.58,68.22,102.22,67.67Zm1-9.72c-.67-1-1.15-2.94-2.92-2.38-1.21.39-3.53.12-3.4,2.53.1,1.68,1,3.22,2.67,3.13S103,60.46,103.22,58ZM42.49,59.83A2.75,2.75,0,0,0,40,58.2c-2.14.09-2.34,2-2.64,3.37-.2.93,1.15,1.45,2.08,1.24C40.9,62.48,41.68,61.23,42.49,59.83ZM22.33,68.28c1-.5,2.94.21,2.72-2-.11-1-.58-1.68-1.83-1.56-1.62.15-3,.77-3.15,2.4C20,68.19,21.39,68.13,22.33,68.28Zm13.93-3.66c-1.82-.48-2.43.62-2.65,2.32s.62,1.75,1.88,1.75c1.7,0,2.85-.44,3-2.4C38.57,64.66,37.55,64.61,36.26,64.62ZM20.13,70.37c-1.29.18-2.54.32-2.42,2,.07,1,.4,2.13,1.53,1.85,1.39-.35,3.57-.12,3.79-2S20.74,71.6,20.13,70.37Zm40.59-3.1c1.17-.56,3.38.62,3.44-1.67,0-1.49-1.64-1-2.59-1-1.28,0-3-.34-3.26,1.47S59.78,67,60.72,67.27ZM26.24,69.84c4.91-1.09,4.54-4.63,5.2-7.49ZM65,60.68c.13-1.36-.76-1.24-1.56-1.37-1-.17-2-.24-2.34.89-.29.89.18,1.77,1.19,1.53S64.51,61.82,65,60.68ZM49.26,50.24c-1.28-.13-1.73,1.18-1.8,1.73-.13,1,1,1.29,1.92,1.33s1.89-.14,1.84-1.46S50.07,50.58,49.26,50.24Z"/>
        <path class="cls-1" d="M.57,6.33c-.43-2-1.42-4,1-5.61C3.69-.72,5.24.28,7,1.27a9.51,9.51,0,0,0,3.36,1.11C15,3,19,4.66,21.66,8.67l-.9.92c-3.05-2.3-6-4.66-10.11-5-1.73-.14-3.18-.19-3.9,1.71C4.69,7.76,2.63,7.42.57,6.33Z"/>
        <path class="cls-2" d="M78.83,35.88c-.37,3.6-.72,7.2-1.1,10.79-.19,1.81-.8,3.2-2.76,3.95a4.14,4.14,0,0,0-2.68,2.84c-.91,4-3.79,2.44-6.1,2.06-1.38-.22-.7-1.2-.44-2.16A67.88,67.88,0,0,0,68.14,38c.15-5.35-1.51-10.4-2.73-15.52-.49-2.06-2.4-4.52-.19-6.13,2.62-1.89,8.45.26,9.65,3.3C76.94,24.84,79.13,30.06,78.83,35.88ZM69.61,25c1.62.86,3,2.27,5.31,2.18C73.72,24.48,72,24,69.61,25Z"/>
        <path class="cls-3" d="M46.52,46.34c-2.93,7.22-8.86,10.07-16.08,11-4.07.45-8.25-1.13-12.25.68-5.61-1.9-11.41-3.59-12.92-10.53C5,46.19,4.83,44.9,6.11,44c2.79-.91,4.7-.29,6.15,2.58C14,50,16.41,50.14,19,46.89c2.23-2.84,3.9-3.29,6.72-.63,3.47,3.25,5.28,2.82,8.16-1.06.48-.64.85-1.37,1.35-2.19,1.53,2.06,1.52,4.46,3.9,4.61S41,45.13,42.17,44.1a7.43,7.43,0,0,0,1-1.2C45.45,42.88,46.83,43.78,46.52,46.34Z"/>
        <path class="cls-4" d="M75.82,16.3c8.14-.64,12.38,1.91,14,8.12.53,2,.37,3.08-2,2.88-.37,0-.76.26-1.15.33-1.11.19-2.35.41-1.76,1.93s1.71,1,2.65.33c2.91-2,3.7-.78,3.66,2.24a80.71,80.71,0,0,1-1,14,11.24,11.24,0,0,1-2.32,5c-1.51,1.87-2.91,2.13-5.3.51-3.36-2.26-3.53-4.3-3-8.25C80.84,34.21,80.15,24.93,75.82,16.3ZM87.17,35.44c-1.37-.22-2.25.82-2.18,1.14.41,1.69,2.18,1.56,3.44,2.06.67.26,1.56-.16,1.3-.91A4,4,0,0,0,87.17,35.44Z"/>
        <path class="cls-5" d="M7.24,26.16c.06-4.2,4.56-8.39,9-8.39s8.52,3.76,8.41,7.77c-.12,4.57-4.63,9.51-8.89,9.05C11.06,34.07,7.09,32,7.24,26.16Zm9.23-2.64c-1.34.5-2.63,1.25-2.59,2.65a2.23,2.23,0,0,0,2.37,2.1c1.8,0,2.17-1.28,2.14-2.69A2.08,2.08,0,0,0,16.47,23.52Z"/>
        <path class="cls-5" d="M34.87,33.11c-4.47,0-8.46-3.55-8.53-7.64C26.26,21.2,30.88,17,35.62,17c5,0,8.39,3,8.46,7.54C44.14,29.18,40,33.08,34.87,33.11Zm3.26-7.95c-.47-1.25-.69-2.62-2.53-2.58-1.6,0-2,.84-2.05,2.26s.57,1.87,1.91,1.84S37.86,26.74,38.13,25.16Z"/>
        <path class="cls-2" d="M91.4,21c10.4,2.91,11.13,6.6,11.66,13.61.12,1.71.18,3.61-2.07,4.15-1.26.3-.82,1.11-.74,1.83.25,2.31-1.08,3.62-2.84,4.73a3.88,3.88,0,0,1-4.17.26c-1.3-.77-.63-2.2-.51-3.33A66.3,66.3,0,0,0,91.4,21Zm10.5,12.35c-1.61-1.76-3-2.26-4.54-1.22a2.22,2.22,0,0,0-.45,1.31C98.38,34.17,99.86,34.08,101.9,33.39Z"/>
        <path class="cls-6" d="M48,88.17c-2.33-1.43-5-.87-7.65-.88a2.13,2.13,0,0,1-2.05-1c-.44-.86.25-1.54.83-2,3-2.62,5.67-5.72,10.3-5.06,2.5.35,5.41-1.85,7.38,1.74,1.41,2.57,1.41,4.35-1.45,5.36C53,87.09,50.59,87.52,48,88.17Z"/>
        <path class="cls-6" d="M15,85.37c-2.59-.73-6.59.18-7-1.91-.47-2.26,2.79-4.39,5.3-5.21s5.09-2.41,8.11-2.18a4,4,0,0,1,4,3.66A3.34,3.34,0,0,1,22.64,84C20.07,84.55,17.45,84.93,15,85.37Z"/>
        <path class="cls-6" d="M104,77.61c-1.62-.1-2.42-.23-3.22-.19-1.83.08-3.78.08-3.85-2.31s.77-4.37,3.46-4.6a16.23,16.23,0,0,0,5.73-1.44c2.49-1.2,7.34,2.63,7.44,5.54,0,1.43-1.1,1.32-1.86,1.62A16.38,16.38,0,0,1,104,77.61Z"/>
        <path class="cls-2" d="M50.31,47.24c2.47-6.59-1.33-11-4.13-15.83-1.54-2.67.58-5.62,1-8.44.08-.59,3.54-1,3.93.85,1.56,7.57,3.75,15.22.18,22.85C51.2,46.77,51,46.81,50.31,47.24Z"/>
        <path class="cls-6" d="M82.15,77c4-1.06,7.19-.23,9.58,3.38,1.24,1.87,1.47,3.08-1.08,3.76s-5,1.9-7.71,1.38c-.46-2.22-2.25-1.3-3.54-1.48-.93-.12-1.93-.05-2.08-1.32-.13-1.1.37-1.63,1.49-1.91A4,4,0,0,0,82.15,77Z"/>
        <path class="cls-7" d="M35.32,71.15c1,.54,3.61-1.81,3.92,1.65.25,2.78.11,4.86-3.68,5-3,.14-5.94,1.67-8.5-.9-1.56-1.56-1.8-3,.59-4.31A11.19,11.19,0,0,1,35.32,71.15Z"/>
        <path class="cls-7" d="M62.16,69.59c1.4.43,3-1.22,4.14.54,1,1.43,2.19,3,1.83,4.65s-2.26,2-3.92,2.09a23.5,23.5,0,0,1-3.56.47c-1.38-.14-3.38.91-4-.74a7.51,7.51,0,0,1,.8-6.15C58.43,68.57,60.63,70.13,62.16,69.59Z"/>
        <path class="cls-4" d="M78,51.7a4.68,4.68,0,0,1,5.15,3.81c.45,2.25-2.19,2.46-3.67,2.53-1.78.08-3.31,2.9-5.32.49a3.66,3.66,0,0,1-.72-4C74.26,52.36,76.27,52.08,78,51.7Z"/>
        <path class="cls-2" d="M81.58,66.4c-3.29.51-4.45-1.19-4.21-3.35.3-2.73,2.88-2.92,5.06-3.26,2.61-.4,3.55,1.06,3.67,3.37C86.3,67.16,82.9,65.73,81.58,66.4Z"/>
        <path class="cls-2" d="M51.15,67.54c-.42-.29-3.14,1.62-2.89-1.52s2.23-4.63,5.34-4.6c1.42,0,3.39-.22,3,2C56.28,65.87,56.13,69.13,51.15,67.54Z"/>
        <path class="cls-4" d="M86.84,70.36c.56,4.64-3.08,3.92-5.63,4.35s-2.27-1.89-2.27-3.26c0-4.32,4-2.39,6.08-3.47S86.68,69.2,86.84,70.36Z"/>
        <path class="cls-4" d="M47.37,73.59c-.51-2.79,1.15-3.74,3.42-3.54,1.56.14,3.93-.48,3.83,2.66-.11,3-1.09,4.39-4.29,4.3C47.79,76.93,46.93,75.94,47.37,73.59Z"/>
        <path class="cls-4" d="M99.53,52.25c-6.38,4-7.06,4.16-8.64,1.78a3.2,3.2,0,0,1,1-4.84C95.52,47,97.51,49.64,99.53,52.25Z"/>
        <path class="cls-7" d="M82.15,77a4,4,0,0,1-3.34,3.81c-1.12.28-1.62.81-1.49,1.91.15,1.27,1.15,1.2,2.08,1.32,1.29.18,3.08-.74,3.54,1.48a7.82,7.82,0,0,1-2,.1c-2.17-.45-5.57,1.54-6.08-2.34C74.4,79.67,78,76.85,82.15,77Z"/>
        <path class="cls-4" d="M58.65,57c-.2,1.09.35,3.45-1.68,2.51s-5.65,1.1-6.11-1.68c-.37-2.31,2.43-4.13,5-4.27C57.66,53.43,59.23,54.54,58.65,57Z"/>
        <path class="cls-4" d="M65.21,28.16h-.07c-.64-2.13-1.24-4.28-1.93-6.4-1.39-4.21-8-5.59-11.13-2.39-.45.47-.58.89-.34,1.36,1,2,.55,4.38,2.1,6.14,1.65,1.15-.12,3.55,1.69,4.64-.56,3.56.75,7.26-.79,10.75,0,1.52-.53,3.16.86,4.43-2.77,3.1-2.59,5,2.06,5.23a3.36,3.36,0,0,1,2,1.24c.77.88,1.22,2.35,2.74,1.67,1.34-.6,1-2,1-3.21.79-2.11.48-4.52,1.74-6.51Q65.17,36.64,65.21,28.16ZM54.79,21.33c2.51-1.23,4.3,1.84,7.43.37C57.19,26.79,56.72,26.71,54.79,21.33Z"/>
        <path class="cls-4" d="M102.22,67.67c-2.64.55-3.2-.43-3.14-2,.12-2.86,2.72-3.29,4.51-3.77s2.23,1.85,2.25,3.12C105.9,67.92,103.06,67.12,102.22,67.67Z"/>
        <path class="cls-2" d="M103.22,58c-.22,2.51-2,3.19-3.65,3.28S97,59.78,96.9,58.1c-.13-2.41,2.19-2.14,3.4-2.53C102.07,55,102.55,56.91,103.22,58Z"/>
        <path class="cls-2" d="M42.49,59.83c-.81,1.4-1.59,2.65-3.09,3-.93.21-2.28-.31-2.08-1.24.3-1.37.5-3.28,2.64-3.37A2.75,2.75,0,0,1,42.49,59.83Z"/>
        <path class="cls-2" d="M22.33,68.28c-.94-.15-2.34-.09-2.26-1.15.12-1.63,1.53-2.25,3.15-2.4,1.25-.12,1.72.54,1.83,1.56C25.27,68.49,23.34,67.78,22.33,68.28Z"/>
        <path class="cls-2" d="M36.26,64.62c1.29,0,2.31,0,2.21,1.67-.13,2-1.28,2.41-3,2.4-1.26,0-2.08-.19-1.88-1.75S34.44,64.14,36.26,64.62Z"/>
        <path class="cls-4" d="M20.13,70.37c.61,1.23,3.13-.1,2.9,1.83s-2.4,1.7-3.79,2c-1.13.28-1.46-.87-1.53-1.85C17.59,70.69,18.84,70.55,20.13,70.37Z"/>
        <path class="cls-2" d="M60.72,67.27c-.94-.28-2.61.47-2.41-1.25s2-1.52,3.26-1.47c1,0,2.63-.44,2.59,1C64.1,67.89,61.89,66.71,60.72,67.27Z"/>
        <path class="cls-8" d="M47.36,41.09c.6-3.31-1.65-5.54-3.43-7.57s-3.3,1.27-5.21,1.26c-.43,0-.87.51-1.3.78-2,.79-6.11-2.33-5.53,3.15.11,1-1.1,1-1.84.54-1.41-.9-2.63-2-2.08-3.92s-.44-3.23-1.85-3.42c-2.21-.29-1.29,1.83-1.45,2.94-.55,3.75-2.28,4.68-5.14,2.73a4.36,4.36,0,0,0-1.92-.35c-2.39-.19-4.87.49-7-1.6a2.53,2.53,0,0,0-3.68,1.11A10.91,10.91,0,0,0,5.27,47.51C5,46.19,4.83,44.9,6.11,44c-1.59-.79-.88-1.6,0-2.32a3.59,3.59,0,0,0,1.43-3.77c-.45-.11-.69-.35-.7-.71,0,.36.25.59.69.71,1.85-.16,2.68.87,3.64,2.38,2.67,4.19,4.05,4.47,8.36,1.85,2.84-1.72,4.82-.17,6.73,1.39,2.31,1.88,3.85,2.75,5.72-.76,1.63-3,4.38-2.82,7.57,0,1.82-2.12,2.89-4.33,1.14-7,4-1.48,3.84,2.39,4.95,4.14,1.64,2.56-2.07,1.69-2.53,3.1,2.32,0,3.7.88,3.39,3.44C48.12,44.8,47.05,42.84,47.36,41.09Z"/>
        <path class="cls-1" d="M65.11,45.1q.06-8.46.1-16.94C66.16,33.82,67,39.47,65.11,45.1Z"/>
        <path class="cls-1" d="M55.53,31.5c-.56,3.56.75,7.26-.79,10.75l-.9-15.39C55.49,28,53.72,30.41,55.53,31.5Z"/>
        <path class="cls-2" d="M65,60.68c-.5,1.14-1.78.84-2.71,1s-1.48-.64-1.19-1.53c.36-1.13,1.34-1.06,2.34-.89C64.25,59.44,65.14,59.32,65,60.68Z"/>
        <path class="cls-2" d="M49.26,50.24c.81.34,1.92.31,2,1.6s-.81,1.51-1.84,1.46S47.33,53,47.46,52C47.53,51.42,48,50.11,49.26,50.24Z"/>
        <path class="cls-1" d="M18.19,58c4-1.81,8.18-.23,12.25-.68C26.44,59.12,22.28,58,18.19,58Z"/>
        <path class="cls-1" d="M69.61,25c2.34-1,4.11-.5,5.31,2.18C72.61,27.25,71.23,25.84,69.61,25Z"/>
        <path class="cls-1" d="M6.11,44c-1.59-.79-.88-1.6,0-2.32a3.59,3.59,0,0,0,1.43-3.77c1.84-.16,2.67.87,3.63,2.38,2.67,4.19,4.05,4.47,8.36,1.85,2.84-1.72,4.82-.17,6.73,1.39,2.31,1.88,3.85,2.75,5.72-.76,1.63-3,4.38-2.82,7.57,0,1.82-2.12,2.89-4.33,1.14-7,4-1.48,3.84,2.39,4.95,4.14,1.64,2.56-2.07,1.69-2.53,3.1a7.43,7.43,0,0,1-1,1.2c-1.2,1-.64,3.69-3.08,3.52s-2.37-2.55-3.9-4.61c-.5.82-.87,1.55-1.35,2.19-2.88,3.88-4.69,4.31-8.16,1.06-2.82-2.66-4.49-2.21-6.72.63-2.55,3.25-5,3.1-6.7-.36C10.81,43.66,8.9,43,6.11,44Z"/>
        <path class="cls-1" d="M87.17,35.44a4,4,0,0,1,2.56,2.29c.26.75-.63,1.17-1.3.91-1.26-.5-3-.37-3.44-2.06C84.92,36.26,85.8,35.22,87.17,35.44Z"/>
        <path class="cls-2" d="M62.22,21.7c-5,5.09-5.5,5-7.43-.37C57.3,20.1,59.09,23.17,62.22,21.7Z"/>
        <path class="cls-1" d="M16.47,23.52a2.08,2.08,0,0,1,1.92,2.06c0,1.41-.34,2.68-2.14,2.69a2.23,2.23,0,0,1-2.37-2.1C13.84,24.77,15.13,24,16.47,23.52Z"/>
        <path class="cls-1" d="M38.13,25.16c-.27,1.58-1.45,1.5-2.67,1.52s-1.94-.47-1.91-1.84.45-2.23,2.05-2.26C37.44,22.54,37.66,23.91,38.13,25.16Z"/>
        <path class="cls-1" d="M101.9,33.39c-2,.69-3.52.78-5,.09a2.22,2.22,0,0,1,.45-1.31C98.94,31.13,100.29,31.63,101.9,33.39Z"/>
      </g>
    </g>
  </g>
</svg>
