<svg xmlns="http://www.w3.org/2000/svg" width="125.12" height="97.48" viewBox="0 0 125.12 97.48">
  <defs>
    <style>
      .cls-1 {
        fill: #050105;
      }

      .cls-2 {
        fill: #fd983f;
      }

      .cls-3 {
        fill: #fac406;
      }

      .cls-4 {
        fill: #fcfcfc;
      }

      .cls-5 {
        fill: #fe4efe;
      }

      .cls-6 {
        fill: #fe94fe;
      }

      .cls-7 {
        fill: #2622f6;
      }

      .cls-8 {
        fill: #03c6fd;
      }

      .cls-9 {
        fill: #fefefe;
      }

      .cls-10 {
        fill: #fddf8d;
      }

      .cls-11 {
        fill: #d8d8d8;
      }

      .cls-12 {
        fill: #fd11fb;
      }

      .cls-13 {
        fill: #fff;
      }

      .cls-14 {
        fill: #e2e2e2;
      }

      .cls-15 {
        fill: #710020;
      }
    </style>
  </defs>
  <g id="Layer_2" data-name="Layer 2">
    <g id="Layer_1-2" data-name="Layer 1">
      <g>
        <path class="cls-1" d="M9.74,44.65c-3.16-3-6.48-5.84-5.81-10.83a28.34,28.34,0,0,1,.69-3c1.84-2,3.94-3.73,5.08-6.66a41,41,0,0,0-5.39,1.87C1.58,27.47.56,26.31.22,23.74a3.9,3.9,0,0,1,1.16-4.15c2.5-2.33,2.1-4.4.92-7.27C.52,8,2.48,4.14,5.18.68c1.87.1,3.19.76,3.81,2.8,1.45,4.74,1.62,4.76,5.47,1.59A43.18,43.18,0,0,0,17.55,2l.19-.13,1.15-.42C22.43,1.25,26,1.82,29.5.8c2.91-.84,3.72,2,5.49,3.06,3.77,2.61,4,2.54,4.49-1.27.14-1.08.29-2.24,1.58-2.51a3.51,3.51,0,0,1,3,.73c3.51,2.72,3.12,6.61,2.33,10-.6,2.53-.61,4,1.14,6S51,21.73,49.39,24c-1.36,2-4.14.1-6.28-.38-.22,0-.49.12-1.26.34,2.36,2.17,3.76,5.13,7.24,5.28a41,41,0,0,0,12.15-1.68c3.88.68,6.1-.88,7.58-4.6,1.64-4.14,6.24-5,8.39-1.42,1.7,2.81,3.31,1.43,4.8.86,5.17-2,7.56-.67,8.23,4.94C90.41,28.81,90,30.44,92,31a2.77,2.77,0,0,0,2.25,1.79c3.85,2,6.28.72,6.61-3.5.2-2.63.07-5.29.09-7.94,1-3.73,3.82-6.34,5.89-9.39a18.92,18.92,0,0,1,7.08-6.06c2.12,0,4.32-.34,6.36.09,1.61.33,3.5-2.36,4.5.12.65,1.6.25,3.66.17,5.51a9.21,9.21,0,0,1-.68,2.27h0l-.86,1.57-.06.07c-2.06,4-6.11,5.35-9.71,7.31-3.73-.56-5.51,1.18-5.57,4.82a28.27,28.27,0,0,1-.81,8.15c-3.84,6.25-9.71,6.52-16,5.12-.22,1.71-.23,3,.63,4.2q.09,5.09.17,10.17c-.47,2.37,1.23,3.36,2.81,4.42l.59.62c1.4,3.14-.46,5.75-1.24,8.6C93.16,72.81,90,76.59,92.89,81c0,.86,0,1.72,0,2.58-.94,4.18-2.48,7.9-7.1,9.27-5.28,1.47-9.18.85-12.82-4.41-1.64-2.38-3.37-6-7-7.3C63.37,80.17,65.3,77,64,75c-1.82,1.31-3.23,4-6,2-3.15-2-1.26-4.83-.85-7.9-3.64,1.52-7.73,2.1-9.88,4.45A11.1,11.1,0,0,0,44.83,84c1.22,4.39.32,8.44-3.39,11.53A9.14,9.14,0,0,1,33,97.08c-.84-.59-1.61-1.5-2.53-1.72-2.95-.68-2.55-5.15-6-5.14-3.49-1.79-3.8-3.3-1.29-7.16,1.84-2.82,4.78-5.21,3.24-9.2a6.79,6.79,0,0,0-.6-1,7.84,7.84,0,0,1-.38-1.94c0-.56-1.06-1.21.32-1.83-1.08,3.71-3.84,4.26-6.88,4.38-1.95-.73-3.93-1.38-5.85-2.2-4.86-2.08-8-7.35-7.09-11.71l.75-.74,1.18-1,.24-.14c1.2-.25,2.54-.25,3.12-1.67l.13-.13c5.33-3.17,5.46-3.52,2.18-5.92C12.18,48.22,10.24,47,9.74,44.65Zm94.35-10.54c1.93-1.59,1.64-3.81,1.63-5.92,0-3-.44-6.09,2.68-8.1,1-.63,0-1.44-.24-2.09-.51-1.14-1.26-.62-1.94-.16a5,5,0,0,0-2.17,4.46c-.1,3.95.89,7.89.06,11.83-.27,0-.6-.05-.79.08-3.63,2.52-7.31,3.94-11.26.58-.4-.35-1-.55-1.37.07-.47.86.12,1.5.67,2.1C94.32,40.16,102.19,38.4,104.09,34.11ZM75.78,69.22c1.57-.48,2.9-1.61,2.22-3.13a4.27,4.27,0,0,0-4.24-2.56c-2.88.37-5.83.25-8.63,1.27-2.53.92-2.33,2.08-.68,3.71,2.68,2.64,5.75,3.11,9.19,1.85C74.65,70.52,75.2,69.85,75.78,69.22ZM39.42,26.85h0a14.9,14.9,0,0,0-10.89-.12,5.87,5.87,0,0,1-4.4,0c-4.18-1.56-8.17-.58-12,.89S4.78,35,6.64,37.09c3,3.31,4.66,7.64,8,10.47,6,5.15,12.93,4.61,19.87,1.8,5.14-3,7.46-8.41,10.75-12.91,2.22-3,.23-6.6-4-8.77A1.73,1.73,0,0,0,39.42,26.85ZM28.91,65.66l-.29-.19.33.16c0,1.8.33,4.18,2.06,4.4,4.07.52,3.86,3.93,5.07,6.36a23.15,23.15,0,0,1,1.65,4.92c.43,1.78,1.74,1.38,2.88,1.32a1.74,1.74,0,0,0,1.58-2.31c-.75-3.3,2.56-6.65-.22-10-.43-.51-.17-1.93.21-2.71.61-1.21,2.12-2,2.7-.36,1.22,3.48,3.33,2.16,5.5,1.56,3.69-1,7-2.63,9.38-5.77.37-.5,1.26-1.26,1.46-1.14,3.47,2,6.22-1.37,9.43-1.16,2.08.14,2.28-1,1.27-2.52-.61-.91-1.58-1.91-.47-2.8,1.32-1.05,2.42.28,2.93,1.2,3.34,5.93,10.33,9.88,9.68,18-.13,1.69.64,3.62,2.83,3.8s2.43-1.79,2.77-3.29A42.41,42.41,0,0,1,93.15,65a3.09,3.09,0,0,0-.59-3.71c-2.22-2.51-4.38-5-7.4-6.75-4.06-2.29-4.72-6.15-2.09-10.08,1.69-2.52,4.11-5.16,3.72-8.12-.43-3.28.58-6.32.43-9.49,0-1.1,1-2.43-.47-3.09s-2,1-2.82,1.75c-.57.56-.82,1.48-1.44,1.92-1.78,1.26-2.61,1.91-.29,3.93a5.94,5.94,0,0,1,1,7c-1.19,2.2-3.32,3-5.9,1.94S74.57,40,75,42.62C76,49.83,69.11,57,62.23,55.9c-2.81-.45-6.17-1-7.39-4.07C53.29,47.9,61.32,37.21,65.7,37.44c3,.17,5.64.9,5.81-3.45,0-.76,1.07-1.49,1.67-2.2S75.82,31,75.49,29C72,31,72,30.83,67.74,30.4c-2.2-.23-4.67-.44-6.62.33-1.77.69.32,2.58.09,3.94-.07.44-.7.76-.92,1.2C58.17,40,53.59,42,51.72,46.65a6.42,6.42,0,0,1-8.15,3.44c-3.51-1.15-6.29,1.46-9.37,2.46-2.07.67-1.94,2-.94,3.49a1.84,1.84,0,0,1-.87.73c-3.43.47-2.34,3.14-2.6,5.18C29.63,63.21,30.36,64.7,28.91,65.66Zm8.86-55a4,4,0,0,0-1.84-3,21.6,21.6,0,0,1-4-3.31c-1.73-1.64-11.76-1.22-13.48.48a5,5,0,0,0-.54.59,8.79,8.79,0,0,1-3.61,3,4.12,4.12,0,0,0-2.36,4.33c.09,1.25.92,2.77,2.28,1.63,3.47-2.9,6.39-.95,9.91-.08,3.09.76,6.26-3.37,10.08-1.66a6,6,0,0,0,.72.36C37,13.59,37.37,12.11,37.77,10.69Zm84.61-.88c-2.28.09-4.66,2.32-5.86-.06-1-1.95-1.76-1.07-2.72-.64-2.77,1.22-4.26,2.52-2.77,6.24,1.61,4,3.42,5.29,6.78,2.71A12.28,12.28,0,0,0,122.38,9.81ZM82.16,84.39a17.82,17.82,0,0,0-.54,3.26c0,1.08-1.44,1.64-.81,3a34.09,34.09,0,0,0,3.91,0c2.89-.31,5.43-3.94,5.22-7.38-.24-3.85-2.86-1-4.3-1.48a6.8,6.8,0,0,0-.8,0c-4-.61-4.61-.2-6.14,4.32C79.9,85.35,80.35,83.79,82.16,84.39Zm-62-31.53c-2.57,0-4.94,2.93-4.39,3.89,1.42,2.47,3.95,5.21,6.52,5.83,2,.49,3.86-2.92,4-5.43C26.56,52.94,22.73,53.82,20.18,52.86ZM31.63,86.54c1.25,1.37,3.73,1.08,2.86,3.52-.44,1.25-1.4,3.18.4,3.73s4.24.78,6-1S43.46,86.22,42,86.1C38.69,85.82,35.22,84.72,31.63,86.54ZM19,70c-2.08-1.7-3.74-3.37-1.63-6.09.66-.85.35-1.88-.75-2.72-2.15-1.66-4.55-1.41-6.9-1.12-1.53.19-.91,1.72-.88,2.66C8.93,66.24,14.28,70.11,19,70ZM18.8,23.61c3.37.46,4.9-1.69,4.91-4.66,0-2.76-2.11-4.2-4.79-4.17s-4.35,1.6-4.54,4.47C14.18,22.3,15.55,23.78,18.8,23.61Zm11.87.08c3.28-.29,5.48-1.67,5.44-4.8,0-2.73-2-4.18-4.7-4.22-3-.05-4.73,1.55-4.85,4.47S28.36,23.24,30.67,23.69ZM11.44,17.8A60,60,0,0,1,6.09,3.19C1.43,9.76,4.34,16.91,11.44,17.8Zm28-2.38c5.39-3.16,6.75-9.75,2.82-12.61C42.31,7.1,39.56,10.78,39.42,15.42Zm-7,66a5.93,5.93,0,0,0-6.82,4.69c-.15.82-.07,1.31.82,1.33,3.36.08,4.71-2.29,5.84-4.89A4.6,4.6,0,0,0,32.41,81.41ZM76.74,26.65c-1.14-1.74-.51-5.16-3.92-4.47a2.5,2.5,0,0,0-1.65,3.21C72.16,28.43,74.84,25.87,76.74,26.65ZM47.07,20.93c-.6-2.13-1.43-3.79-4-3.58a.78.78,0,0,0-.75,1.11C43,20.74,44.53,21.65,47.07,20.93Zm32.7,58.82c-3.33-.81-5,.53-6.42,2.91C76.42,83.42,77.74,81.37,79.77,79.75ZM69.05,73.27c-1.83.32-2.19,1.37-2,2.9.09,1.12.18,2.52,1.47,2.22,1.68-.39,1.12-2.32,1.5-3.59C70.26,73.8,69.83,73.33,69.05,73.27Zm-6.22-3.16c-2.18,1-3.73,1.87-4.72,3.6-.07.12.35.76.6.79,2.37.37,3-1.73,4.12-3.07A6.58,6.58,0,0,0,62.83,70.11Zm-58-46.7,1.07-.89a9.3,9.3,0,0,0-1.41-1.27c-.63-.36-.55.34-.57.62C3.92,22.48,3.74,23.21,4.87,23.41Zm2.72-1.75c.37-.41.76-.64.81-.93s-.34-.53-.53-.8c-.23.23-.59.42-.65.69S7.41,21.2,7.59,21.66Zm25,67.16c-.09-.19-.18-.54-.27-.54s-.62.17-.62.27a2.37,2.37,0,0,0,.28.81Z"/>
        <path class="cls-1" d="M11.22,56c-.58,1.42-1.92,1.42-3.12,1.67A3.42,3.42,0,0,1,11.22,56Z"/>
        <path class="cls-2" d="M18.89,1.41l-1.15.42C17.92,1.12,18.33,1.08,18.89,1.41Z"/>
        <path class="cls-3" d="M123.42,15.41l.86-1.57C124,14.37,124.51,15.33,123.42,15.41Z"/>
        <path class="cls-4" d="M28.91,65.66c1.45-1,.72-2.45.88-3.71.26-2-.83-4.71,2.6-5.18a1.84,1.84,0,0,0,.87-.73c-1-1.53-1.13-2.82.94-3.49,3.08-1,5.86-3.61,9.37-2.46a6.42,6.42,0,0,0,8.15-3.44C53.59,42,58.17,40,60.29,35.87c.22-.44.85-.76.92-1.2.23-1.36-1.86-3.25-.09-3.94,2-.77,4.42-.56,6.62-.33C72,30.83,72,31,75.49,29c.33,2-1.58,1.92-2.31,2.78s-1.64,1.44-1.67,2.2c-.17,4.35-2.79,3.62-5.81,3.45-4.38-.23-12.41,10.46-10.86,14.39,1.22,3.08,4.58,3.62,7.39,4.07C69.11,57,76,49.83,75,42.62c-.38-2.63,0-3.35,2.4-2.35s4.71.26,5.9-1.94a5.94,5.94,0,0,0-1-7c-2.32-2-1.49-2.67.29-3.93.62-.44.87-1.36,1.44-1.92.81-.79,1.37-2.4,2.82-1.75s.42,2,.47,3.09c.15,3.17-.86,6.21-.43,9.49.39,3-2,5.6-3.72,8.12-2.63,3.93-2,7.79,2.09,10.08,3,1.71,5.18,4.24,7.4,6.75A3.09,3.09,0,0,1,93.15,65a42.41,42.41,0,0,0-3.49,10.2c-.34,1.5-.52,3.49-2.77,3.29s-3-2.11-2.83-3.8c.65-8.14-6.34-12.09-9.68-18-.51-.92-1.61-2.25-2.93-1.2-1.11.89-.14,1.89.47,2.8,1,1.51.81,2.66-1.27,2.52-3.21-.21-6,3.18-9.43,1.16-.2-.12-1.09.64-1.46,1.14-2.39,3.14-5.69,4.73-9.38,5.77-2.17.6-4.28,1.92-5.5-1.56-.58-1.63-2.09-.85-2.7.36-.38.78-.64,2.2-.21,2.71,2.78,3.32-.53,6.67.22,10a1.74,1.74,0,0,1-1.58,2.31c-1.14.06-2.45.46-2.88-1.32a23.15,23.15,0,0,0-1.65-4.92C34.87,74,35.08,70.55,31,70c-1.73-.22-2-2.6-2.06-4.4Zm12.16-3.45c5.71-.27,8.23-1.8,8.2-4.67,0-2.08-4-6.42-5.82-6.43s-7.4,5.4-6.71,7A7,7,0,0,0,41.07,62.21Z"/>
        <path class="cls-5" d="M41.27,27.68c4.21,2.17,6.2,5.73,4,8.77C42,41,39.64,46.37,34.5,49.36c-2.36-.44.6-3.37-1.78-3.8,1.09-1.65,2.25-3.25,3.21-5,.44-.78.65-1.87-.55-2.37s-1.52.51-2,1.31c-.9,1.43-1.12,3.22-2.68,4.32-4.52,3.2-9.74,1.89-12.35-3-.59-1.11-.25-4.05-3.13-2.39-4.35-.49-6.73-3.4-4.54-5.92,1.8-2.07,4.32-4.54,7.8-2.41.89,1.79-.05,5.22,3.85,4.33,2.3.57,4.49-.07,6.68-.63,2.26,2.08,3.34.33,3.87-1.47.4-1.32,0-2.87,0-4.31,1.9-2.1,4.4-.71,6.59-1.15h0C39.75,27.76,40.59,27.54,41.27,27.68Z"/>
        <path class="cls-6" d="M39.44,26.86c-2.19.44-4.69-.95-6.59,1.15-3.31-.39-4.07.74-3.86,5.78-2.19.56-4.38,1.2-6.68.63,2.16-2.43.87-4.63-1-6.17s-2.27.63-2.89,1.84c-3.48-2.13-6,.34-7.8,2.41-2.19,2.52.19,5.43,4.54,5.92,1.66,8.94,9.78,12.26,17.52,7.14,2.38.43-.58,3.36,1.78,3.8-6.94,2.81-13.84,3.35-19.87-1.8-3.33-2.83-5-7.16-8-10.47-1.86-2.06,1.7-8,5.46-9.42s7.87-2.45,12-.89a5.87,5.87,0,0,0,4.4,0A14.9,14.9,0,0,1,39.44,26.86Z"/>
        <path class="cls-2" d="M37.77,10.69c-.4,1.42-.78,2.9-2.85,2.34a6,6,0,0,1-.72-.36c-3.82-1.71-7,2.42-10.08,1.66-3.52-.87-6.44-2.82-9.91.08C12.85,15.55,12,14,11.93,12.78a4.12,4.12,0,0,1,2.36-4.33,8.79,8.79,0,0,0,3.61-3,5,5,0,0,1,.54-.59c1.72-1.7,11.75-2.12,13.48-.48a21.6,21.6,0,0,0,4,3.31A4,4,0,0,1,37.77,10.69Z"/>
        <path class="cls-2" d="M122.38,9.81a12.28,12.28,0,0,1-4.57,8.25c-3.36,2.58-5.17,1.31-6.78-2.71-1.49-3.72,0-5,2.77-6.24,1-.43,1.73-1.31,2.72.64C117.72,12.13,120.1,9.9,122.38,9.81Z"/>
        <path class="cls-7" d="M82.16,84.39c-1.81-.6-2.26,1-3.46,1.7,1.53-4.52,2.17-4.93,6.14-4.32a6.8,6.8,0,0,1,.8,0c1.44.47,4.06-2.37,4.3,1.48.21,3.44-2.33,7.07-5.22,7.38a34.09,34.09,0,0,1-3.91,0c-.63-1.41.82-2,.81-3A17.82,17.82,0,0,1,82.16,84.39Z"/>
        <path class="cls-8" d="M20.18,52.86c2.55,1,6.38.08,6.14,4.29-.15,2.51-2,5.92-4,5.43-2.57-.62-5.1-3.36-6.52-5.83C15.24,55.79,17.61,52.9,20.18,52.86Z"/>
        <path class="cls-7" d="M31.63,86.54c3.59-1.82,7.06-.72,10.34-.44,1.49.12.75,4.87-1.06,6.68s-4.1,1.6-6,1-.84-2.48-.4-3.73C35.36,87.62,32.88,87.91,31.63,86.54Z"/>
        <path class="cls-7" d="M19,70c-4.68.08-10-3.79-10.16-7.27,0-.94-.65-2.47.88-2.66,2.35-.29,4.75-.54,6.9,1.12,1.1.84,1.41,1.87.75,2.72C15.22,66.66,16.88,68.33,19,70Z"/>
        <path class="cls-9" d="M18.8,23.61c-3.25.17-4.62-1.31-4.42-4.36.19-2.87,1.78-4.44,4.54-4.47s4.8,1.41,4.79,4.17C23.7,21.92,22.17,24.07,18.8,23.61ZM19,18a1.77,1.77,0,0,0-2.07,1.41c-.15,1.19.79,1.82,2,1.82a1.66,1.66,0,0,0,1.87-1.58C20.8,18.57,20,18.06,19,18Z"/>
        <path class="cls-9" d="M30.67,23.69c-2.31-.45-4.23-1.7-4.11-4.55s1.88-4.52,4.85-4.47c2.73,0,4.67,1.49,4.7,4.22C36.15,22,34,23.4,30.67,23.69Zm.23-3.14c1.46-.09,2.26-.45,2-1.68a1.87,1.87,0,0,0-2.19-1.71c-1,.1-1.85.74-1.71,1.72A1.91,1.91,0,0,0,30.9,20.55Z"/>
        <path class="cls-6" d="M73.64,70.36c-3.44,1.26-6.51.79-9.19-1.85-1.65-1.63-1.85-2.79.68-3.71,2.8-1,5.75-.9,8.63-1.27A4.27,4.27,0,0,1,78,66.09c.68,1.52-.65,2.65-2.22,3.13-2.16-4.32-2.25-4.34-9.41-2,.8,2.55,2.82,2.56,4.84,2.15C72.36,69.19,73.3,68.79,73.64,70.36Z"/>
        <path class="cls-10" d="M11.44,17.8c-7.1-.89-10-8-5.35-14.61A60,60,0,0,0,11.44,17.8Z"/>
        <path class="cls-9" d="M39.42,15.42c.14-4.64,2.89-8.32,2.82-12.61C46.17,5.67,44.81,12.26,39.42,15.42Z"/>
        <path class="cls-11" d="M104.11,34.13c.83-3.94-.16-7.88-.06-11.83a5,5,0,0,1,2.17-4.46c.68-.46,1.43-1,1.94.16.29.65,1.21,1.46.24,2.09-3.12,2-2.68,5.1-2.68,8.1,0,2.11.3,4.33-1.63,5.92Z"/>
        <path class="cls-7" d="M32.41,81.41a4.6,4.6,0,0,1-.16,1.13c-1.13,2.6-2.48,5-5.84,4.89-.89,0-1-.51-.82-1.33A5.93,5.93,0,0,1,32.41,81.41Z"/>
        <path class="cls-12" d="M73.64,70.36c-.34-1.57-1.28-1.17-2.43-1-2,.41-4,.4-4.84-2.15,7.16-2.38,7.25-2.36,9.41,2C75.2,69.85,74.65,70.52,73.64,70.36Z"/>
        <path class="cls-13" d="M104.09,34.11c-1.9,4.29-9.77,6-12.73,2.85-.55-.6-1.14-1.24-.67-2.1.33-.62,1-.42,1.37-.07,4,3.36,7.63,1.94,11.26-.58.19-.13.52-.06.79-.08Z"/>
        <path class="cls-14" d="M76.74,26.65c-1.9-.78-4.58,1.78-5.57-1.26a2.5,2.5,0,0,1,1.65-3.21C76.23,21.49,75.6,24.91,76.74,26.65Z"/>
        <path class="cls-15" d="M47.07,20.93c-2.54.72-4-.19-4.75-2.47a.78.78,0,0,1,.75-1.11C45.64,17.14,46.47,18.8,47.07,20.93Z"/>
        <path class="cls-7" d="M79.77,79.75c-2,1.62-3.35,3.67-6.42,2.91C74.77,80.28,76.44,78.94,79.77,79.75Z"/>
        <path class="cls-6" d="M69.05,73.27c.78.06,1.21.53.92,1.53-.38,1.27.18,3.2-1.5,3.59-1.29.3-1.38-1.1-1.47-2.22C66.86,74.64,67.22,73.59,69.05,73.27Z"/>
        <path class="cls-9" d="M62.83,70.11a6.58,6.58,0,0,1,0,1.32c-1.15,1.34-1.75,3.44-4.12,3.07-.25,0-.67-.67-.6-.79C59.1,72,60.65,71.06,62.83,70.11Z"/>
        <path class="cls-15" d="M4.87,23.41c-1.13-.2-1-.93-.91-1.54,0-.28-.06-1,.57-.62a9.3,9.3,0,0,1,1.41,1.27Z"/>
        <path class="cls-15" d="M7.59,21.66c-.18-.46-.43-.79-.37-1s.42-.46.65-.69c.19.27.56.57.53.8S8,21.25,7.59,21.66Z"/>
        <path class="cls-7" d="M32.56,88.82l-.61.54a2.37,2.37,0,0,1-.28-.81c0-.1.4-.27.62-.27S32.47,88.63,32.56,88.82Z"/>
        <path class="cls-6" d="M41.27,27.68c-.68-.14-1.52.08-1.85-.83A1.73,1.73,0,0,1,41.27,27.68Z"/>
        <path class="cls-15" d="M29,65.63l-.33-.16.29.19Z"/>
        <path class="cls-1" d="M41.07,62.21a7,7,0,0,1-4.33-4.14c-.69-1.56,4.82-7,6.71-7s5.8,4.35,5.82,6.43C49.3,60.41,46.78,61.94,41.07,62.21Z"/>
        <path class="cls-1" d="M32.72,45.56C25,50.68,16.86,47.36,15.2,38.42c2.88-1.66,2.54,1.28,3.13,2.39,2.61,4.93,7.83,6.24,12.35,3,1.56-1.1,1.78-2.89,2.68-4.32.5-.8.8-1.81,2-1.31s1,1.59.55,2.37C35,42.31,33.81,43.91,32.72,45.56Z"/>
        <path class="cls-1" d="M18.46,30.09c.62-1.21,1-3.48,2.89-1.84s3.12,3.74,1,6.17C18.41,35.31,19.35,31.88,18.46,30.09Z"/>
        <path class="cls-1" d="M29,33.79c-.21-5,.55-6.17,3.86-5.78,0,1.44.41,3,0,4.31C32.33,34.12,31.25,35.87,29,33.79Z"/>
        <path class="cls-1" d="M19,18c1,.11,1.83.62,1.8,1.65a1.66,1.66,0,0,1-1.87,1.58c-1.21,0-2.15-.63-2-1.82A1.77,1.77,0,0,1,19,18Z"/>
        <path class="cls-1" d="M30.9,20.55A1.91,1.91,0,0,1,29,18.88c-.14-1,.68-1.62,1.71-1.72a1.87,1.87,0,0,1,2.19,1.71C33.16,20.1,32.36,20.46,30.9,20.55Z"/>
      </g>
    </g>
  </g>
</svg>
