<svg xmlns="http://www.w3.org/2000/svg" width="91.09" height="106.9" viewBox="0 0 91.09 106.9">
  <defs>
    <style>
      .cls-1 {
        fill: #050105;
      }

      .cls-2 {
        fill: #8018fa;
      }

      .cls-3 {
        fill: #fcc;
      }

      .cls-4 {
        fill: #fefefe;
      }

      .cls-5 {
        fill: #fa0102;
      }

      .cls-6 {
        fill: #fddf8d;
      }

      .cls-7 {
        fill: #fe4efe;
      }
    </style>
  </defs>
  <g id="Layer_2" data-name="Layer 2">
    <g id="Layer_1-2" data-name="Layer 1">
      <g>
        <path class="cls-1" d="M23.42,106.84c-6.16,0-12.32,0-18.48.06-5.08,0-5.49-.25-4.53-5.07,1-5,2.47-9.83,6.12-13.67l3.05-1.78c.53.19.82-.08,1-.53l-.08,0a5.23,5.23,0,0,0,3.22-1.82c4.29.36,6.11-3.65,9.29-5.28a1.28,1.28,0,0,0,.3-1.82c-2.87-2.9-3.82-7.7-8.63-8.73a6,6,0,0,1-3.42-2c-2.23-2.6-4.64-5-7-7.55-2.7-2.91-2.57-6.09-1-9.48.95-2,2.15-4.2,1.19-6.46-.83-2-.1-3.08,1.35-4,6-4,7.34-9.47,6.28-16.36-1-6.17,1.23-11.91,5.19-16.7,5.57-6.75,12.4-7.11,19.48-2.56,2.63,1.7,4.32,2.06,7.05.1,8.09-5.8,17.1-3.59,23,5.26,2.82,4.23,4.53,8.79,3.88,14-.83,6.67,1,12,7.21,15.35,2.37,1.28,3.33,3.09,2.62,6S82,49,82.66,51.7s.42,4.9-1.79,6.76c-1.12.94-2.35,2-2.5,3.49-.33,3-2.32,4.46-4.82,5.3-4.11,1.39-4.16,6.51-7.84,8.31-.41.2.62,1,1,1.47,2.43,3.61,6,5.53,9.9,7.19,7.54,3.17,11.62,9.53,14.36,16.92C91.68,105,89.72,106,86.2,106c-15,.17-30.11.53-45.16.81ZM77,46.58,75,45.29c3.59-4.43,3.48-4.8-2.4-8.26-1.78-3.85-5.39-3.39-8.57-3.38-15.46,0-30.92.24-46.39.38-3.44,0-9.25,3.87-10.31,7-.3.88-.71,2.15.68,2.79,2.63.92,4.68,3,7.63,3.45-2.88,1.8-5.5-1.93-8.17.1-1.72,1.29-2,3.45-1,8,.54-2.61,2.23-3,4-2.52,1.5.41,2.81,1.51,4.28,2.12,3.37,1.4,4.55-1.9,5.91-3.5,1.83-2.15-1.56-1.8-2.39-2.85,1.58,0,3.06-.1,4.52,0,9,.77,17.92,1.44,26.87.65,4.66-.4,9.26-1.15,14-.58a.69.69,0,0,0,.1.54c.2,4.28,5.09,5,6.45,8.47.2.49,1.18.39,1.39-.57.81-3.69,4-4.13,6.88-5,.62.29,1.48.56,1.22-.54C79.17,49.77,78.78,47.78,77,46.58ZM5.45,94.67A12.17,12.17,0,0,0,3,102.41c.07,1.26.14,1.93,1.64,1.9,5.18-.1,10.37-.09,15.55-.13l.36.11.35-.13H37.94l.33.12.34-.12c1.64-.17,3.41.85,4.91-.55,3.12-1.5,1.8-4.18,1.12-6.11-.75-2.13-2.64-3.83-5.38-2.84C35.49,96,31.71,97.37,28.06,99a2.74,2.74,0,0,1-3.51-.63c-2.94-2.65-4.07-6.2-5.18-9.78.19-2.18-.75-3.62-2.95-2.79C11.84,87.53,7.57,89.82,5.45,94.67ZM67.7,83.85c-.16-3.16-2.07-5.55-4.9-4.45-4.42,1.72-8.84,3.86-11.06,8.86-1.49,3.33-.87,4.58,2.64,4.63,10.12,4.57,12.46,3.2,13.43-7.84A7,7,0,0,0,67.7,83.85Zm-31.18,9c1.19-.65,4.38.14,3-2.35S37,85,34.34,83.28c-1.14-1.46-3-1.61-4.48-2.44-3.75-2.1-5.46-1.58-8.18,1.85-1.76,2.22.43,4,.19,6,2.05,7.46,3.45,8.55,8.68,6.75C32.88,95.4,34.7,94.16,36.52,92.89Zm9.53-68.73c-9.69,0-19.38.14-29.07.05-2,0-3.78,1.16-3.11,2.37.94,1.72-1.19,5.3,3.15,5.24,16.42-.23,32.84-.21,49.26-.32.82,0,1.86.5,2.38-.8,1.27-3.23-.46-6.3-3.79-6.57A54.32,54.32,0,0,0,46.05,24.16Zm20.61,79.53c6-.06,12.11-.29,18.16-.11,3.63.11,3.69-1.48,2.79-4.14a22.17,22.17,0,0,0-9.47-12C71.64,83.33,70.88,83.7,69,91c-.67,2.59-1.43,5.46-3.45,7.13-1.84,1.52-3.9-.85-5.94-1.19a26.07,26.07,0,0,1-4.92-1.64c-6-2.36-7.23-1.52-7.76,4.8-.28,3.34.65,4.8,4.11,4.29a38.68,38.68,0,0,1,4-.16C58.93,104.05,62.84,104.87,66.66,103.69ZM57,22c1.87.06,3.92.63,5.56.05s4.15,2.48,5.2-1a11,11,0,0,0-.29-6.29,19.6,19.6,0,0,0-2.61-5.29c-3.39-5-9.94-8.81-15.52-6-3.16.06-5.16,1.7-6.28,4.56-1.57.07-3.21.58-4.55-.75-3.62-3.59-8.19-4-12.94-3.9a5.89,5.89,0,0,0-2.7.48c-4,2.47-6.2,6.37-7.39,10.53-2.16,7.56-1.56,8.05,6.26,8.15,1.21,0,2.42-.07,3.63-.11,7.29.28,14.59.82,21.87-.29C50.48,21.54,53.75,23.3,57,22ZM45.59,82.52A20.25,20.25,0,0,0,59.1,78.59c4.26-3.08,9.54-5.81,8.82-12.54-.12-1.1.53-1.34,1.49-1.3,4.88.19,7.15-1.59,7.43-6,.06-1.06.64-2.75-.86-3.13s-2.41.65-2.72,2.24c-.66,3.36-2.85,2.56-4.85,1.52-1-.54-1.6-1.9-2.44-2.56-3.14-2.45-4.33-7.7-10-6.67-8.62,1.57-17.37.94-26,.64a10.84,10.84,0,0,0-9.62,4.25c-.81,1-1.14,2.39-1.88,3.47s-1.56,2.29-3.16,2.09c-1.34-.18-1.5-1.32-1.72-2.38-.33-1.62-1.56-2.42-2.92-3-.64-.29-1.26-.28-1.6.58-1.24,3,2.66,10.77,5.43,9.84,5.51-1.86,5.09,2.14,6.41,4.74a4.05,4.05,0,0,0,.45.66C27.41,78.08,34.71,82.68,45.59,82.52Zm-7.69,1.6c2.14,3.2,3.79,5.75,5.54,8.24.78,1.12,1.87,2.43,3.1.62,1.81-2.66,4-5.19,4.47-9.2C46.69,86.15,42.67,84,37.9,84.12Z"/>
        <path class="cls-2" d="M10.59,85.85c-.19.45-.48.72-1,.53Z"/>
        <path class="cls-3" d="M45.59,82.52c-10.88.16-18.18-4.44-24.24-11.5a4.05,4.05,0,0,1-.45-.66c-1.32-2.6-.9-6.6-6.41-4.74-2.77.93-6.67-6.79-5.43-9.84.34-.86,1-.87,1.6-.58,1.36.61,2.59,1.41,2.92,3,.22,1.06.38,2.2,1.72,2.38,1.6.2,2.42-1,3.16-2.09s1.07-2.46,1.88-3.47A10.84,10.84,0,0,1,30,50.8c8.66.3,17.41.93,26-.64,5.65-1,6.84,4.22,10,6.67.84.66,1.4,2,2.44,2.56,2,1,4.19,1.84,4.85-1.52.31-1.59,1.3-2.59,2.72-2.24s.92,2.07.86,3.13c-.28,4.4-2.55,6.18-7.43,6-1,0-1.61.2-1.49,1.3.72,6.73-4.56,9.46-8.82,12.54A20.25,20.25,0,0,1,45.59,82.52Zm9.17-26c.68-1.21,2-2.62.22-3.67-.9-.53-2.22-1.68-3.59-.45-.69.62-1.72,1.21-1.27,2.22a3.14,3.14,0,0,0,3.89,2,7.11,7.11,0,0,1,.79-.1c-.63,2-3.24,3.27-2.3,5.9,0,2,.15,3.78-1.34,5.59-4.69,5.71-15.55,4-17.24-4.87,1-2.33-.92-3.82-1.59-5.68,2.32.06,3.75-1.06,3.29-3.36a2.39,2.39,0,0,0-3.25-1.54c-2.38.82-2.09,2.37-.88,4.06-.47.9-1.35.75-2.11.72-3.16-.15-5.69,1-6.32,4.19-.53,2.73,3.28,5.71,6.79,5.68a6.53,6.53,0,0,1,3.84.81c4.7,7.13,15.43,8,21.07-1.3a3,3,0,0,1,2.3.15c2.45.91,4.17-.54,5.47-2.18s.42-3.26-.39-4.84C60.55,56.7,57.3,57.41,54.76,56.49Z"/>
        <path class="cls-4" d="M64.87,24.13c3.33.27,5.06,3.34,3.79,6.57-.52,1.3-1.56.8-2.38.8-16.42.11-32.84.09-49.26.32-4.34.06-2.21-3.52-3.15-5.24C13.2,25.37,15,24.19,17,24.21c9.69.09,19.38,0,29.07-.05Z"/>
        <path class="cls-5" d="M72.63,37c-1.78-3.85-5.39-3.39-8.57-3.38-15.46,0-30.92.24-46.39.38-3.44,0-9.25,3.87-10.31,7-.3.88-.71,2.15.68,2.79,2.63.92,4.68,3,7.63,3.45-2.88,1.8-5.5-1.93-8.17.1-1.72,1.29-2,3.45-1,8,.54-2.61,2.23-3,4-2.52,1.5.41,2.81,1.51,4.28,2.12,3.37,1.4,4.55-1.9,5.91-3.5,1.83-2.15-1.56-1.8-2.39-2.85,1.58,0,3.06-.1,4.52,0,9,.77,17.92,1.44,26.87.65,4.66-.4,9.26-1.15,14-.58C67,46.39,71.26,46.63,75,45.29,78.62,40.86,78.51,40.49,72.63,37Z"/>
        <path class="cls-5" d="M78.39,52.18c-2.87.86-6.07,1.3-6.88,5-.21,1-1.19,1.06-1.39.57-1.36-3.45-6.25-4.19-6.45-8.47,4.29.47,8.08-1.82,12.22-2.17C74.88,49.7,77.11,50.7,78.39,52.18Z"/>
        <path class="cls-6" d="M67.7,83.85c-.16-3.16-2.07-5.55-4.9-4.45-4.42,1.72-8.84,3.86-11.06,8.86-1.49,3.33-.87,4.58,2.65,4.63,10.11,4.57,12.45,3.2,13.42-7.84A7,7,0,0,0,67.7,83.85Z"/>
        <path class="cls-3" d="M37.9,84.12c4.77-.1,8.79,2,13.11-.34-.45,4-2.66,6.54-4.47,9.2-1.23,1.81-2.32.5-3.1-.62C41.69,89.87,40,87.32,37.9,84.12Z"/>
        <path class="cls-5" d="M67.46,14.73a19.6,19.6,0,0,0-2.61-5.29c-3.39-5-9.94-8.81-15.52-6-3.16.06-5.16,1.7-6.28,4.56-1.57.07-3.21.58-4.55-.75-3.62-3.59-8.19-4-12.94-3.9a5.89,5.89,0,0,0-2.7.48c-4,2.47-6.2,6.37-7.39,10.53-2.16,7.56-1.56,8.05,6.26,8.15,1.21,0,2.42-.07,3.63-.11,7.29.28,14.59.82,21.87-.29,3.25-.53,6.52,1.23,9.77-.12,1.86.06,3.91.63,5.55.05s4.15,2.48,5.2-1A11,11,0,0,0,67.46,14.73Z"/>
        <path class="cls-1" d="M75.89,47.1c-4.14.35-7.93,2.64-12.22,2.17a.69.69,0,0,1-.1-.54C67,46.39,71.26,46.63,75,45.29L77,46.58Z"/>
        <path class="cls-5" d="M75.89,47.1,77,46.58c1.81,1.2,2.2,3.19,2.64,5.06.26,1.1-.6.83-1.22.54C77.11,50.7,74.88,49.7,75.89,47.1Z"/>
        <path class="cls-1" d="M64.87,24.13l-18.82,0A54.32,54.32,0,0,1,64.87,24.13Z"/>
        <path class="cls-6" d="M87.61,99.44a22.17,22.17,0,0,0-9.47-12C71.64,83.33,70.88,83.7,69,91c-.67,2.59-1.43,5.46-3.45,7.13-1.84,1.52-3.9-.85-5.94-1.19a26.07,26.07,0,0,1-4.92-1.64c-6-2.36-7.23-1.52-7.76,4.8-.28,3.34.65,4.8,4.11,4.29a36.11,36.11,0,0,1,4-.16c3.87-.14,7.78.68,11.6-.5,6-.06,12.11-.29,18.16-.11C88.45,103.69,88.51,102.1,87.61,99.44Z"/>
        <path class="cls-7" d="M33.69,68a6.53,6.53,0,0,0-3.84-.81c-3.51,0-7.32-3-6.79-5.68.63-3.17,3.16-4.34,6.32-4.19.76,0,1.64.18,2.11-.72l.84.84c.67,1.86,2.64,3.35,1.59,5.68-.65-.7-1.21-1.41-2.09-.13C30,65.56,32.9,66.35,33.69,68Z"/>
        <path class="cls-1" d="M33.69,68c-.79-1.6-3.65-2.39-1.86-5,.88-1.28,1.44-.57,2.09.13C35.61,72,46.47,73.65,51.16,67.94c1.49-1.81,1.31-3.63,1.34-5.59,1.28-1.13,2.36-1.35,2.51.8a24.44,24.44,0,0,1-.25,3.5C49.12,75.92,38.39,75.08,33.69,68Z"/>
        <path class="cls-7" d="M54.76,66.65a24.44,24.44,0,0,0,.25-3.5c-.15-2.15-1.23-1.93-2.51-.8-.94-2.63,1.67-3.88,2.3-5.9l0,0c2.54.92,5.79.21,7.38,3.29.81,1.58,1.59,3.33.39,4.84s-3,3.09-5.47,2.18A3,3,0,0,0,54.76,66.65Z"/>
        <path class="cls-1" d="M54.8,56.45a7.11,7.11,0,0,0-.79.1,3.14,3.14,0,0,1-3.89-2c-.45-1,.58-1.6,1.27-2.22,1.37-1.23,2.69-.08,3.59.45,1.8,1,.46,2.46-.22,3.67Z"/>
        <path class="cls-1" d="M32.33,57.39l-.84-.84c-1.21-1.69-1.5-3.24.88-4.06A2.39,2.39,0,0,1,35.62,54C36.08,56.33,34.65,57.45,32.33,57.39Z"/>
        <path class="cls-6" d="M44.64,97.5c-.75-2.13-2.64-3.83-5.38-2.84C35.49,96,31.71,97.37,28.06,99a2.74,2.74,0,0,1-3.51-.63c-2.94-2.65-4.07-6.2-5.18-9.78.19-2.18-.75-3.62-2.95-2.79-4.58,1.72-8.85,4-11,8.86A12.17,12.17,0,0,0,3,102.41c.07,1.26.14,1.93,1.64,1.9,5.18-.1,10.37-.09,15.55-.13l.36.11.35-.13H37.93l.34.12.34-.12c1.64-.17,3.41.85,4.91-.55C46.64,102.11,45.32,99.43,44.64,97.5Zm-38.2,5.89a2.83,2.83,0,0,1-.56-.19,2.83,2.83,0,0,0,.56.19,5.38,5.38,0,0,1,.64-.31A5.38,5.38,0,0,0,6.44,103.39Z"/>
        <path class="cls-6" d="M39.53,90.54C38.14,88,37,85,34.34,83.28h0c-1.14-1.46-3-1.61-4.48-2.44-3.75-2.1-5.46-1.58-8.18,1.85-1.76,2.22.43,4,.19,6,2.05,7.46,3.45,8.55,8.68,6.75,2.33-.06,4.15-1.3,6-2.57C37.71,92.24,40.9,93,39.53,90.54Z"/>
      </g>
    </g>
  </g>
</svg>
