<svg xmlns="http://www.w3.org/2000/svg" width="138.12" height="117.54" viewBox="0 0 138.12 117.54">
  <defs>
    <style>
      .cls-1 {
        fill: #050105;
      }

      .cls-2 {
        fill: #02e9fd;
      }

      .cls-3 {
        fill: #fa0102;
      }

      .cls-4 {
        fill: #fd11fb;
      }

      .cls-5 {
        fill: #fcc;
      }

      .cls-6 {
        fill: #58c955;
      }

      .cls-7 {
        fill: #fefefe;
      }

      .cls-8 {
        fill: #710020;
      }

      .cls-9 {
        fill: #fac406;
      }
    </style>
  </defs>
  <g id="Layer_2" data-name="Layer 2">
    <g id="Layer_1-2" data-name="Layer 1">
      <g>
        <path class="cls-1" d="M53.31,49.58A25.14,25.14,0,0,0,66.73,63.12c3.67,1.63,7.78,2.29,11.71,3.31a2.73,2.73,0,0,0,2-.21c3.9-2.74,7.93-5.31,11.43-8.57,1.37-1.28,1.75-1.86-.51-2.9-5.54-2.53-5.6-3.23-4.1-9.07a10,10,0,0,0-1.37-8.51c-2.08-2.85-1.08-4.38,1.58-5.63a16,16,0,0,1,2.28-.76c2.73-.82,4-2.17,2-5-1.79-2.57-2-5.19.34-7.63s1.78-6.54,5.48-7.88c.61-.22,1.23-1.14,1.66-1,6.27,1.7,12.45-2.81,18.71-.28.24.1.64-.07.78.07,5.66,5.67,14.14,8.32,17.57,16.37-.09,2.6.57,5.27-.68,7.78l-.08.07-.59.28.59.61c-2,1.62-1,3.93-.54,5.48,1.19,4.26-.94,7.06-3.38,9.81-3.17,3.58-3.48,5.4-.07,8.93,1.85,1.91,1.75,3.15.14,4.8-3.51,2.28-7.18,1.88-10.85.55-1-.36-2.06-1.06-2.81,0a2.48,2.48,0,0,0,.21,3.2,65.81,65.81,0,0,1,3.71,6c4.25,7,2.63,19.38.12,26.64a48.31,48.31,0,0,1-6.44,12.17c-.59.82-3.4,5.48-4.62,4.72-1.78-1.12,1.8-4.93,2.54-5.9a40.84,40.84,0,0,0,6.9-35c-.7-2.6-1.75-5.25-3.78-7-4.4-3.86-11.22-2.14-16.59.17,2.91.13,5.34,2.26,7.14,4.56s3.25,4.92,5.51,6.76c1.32,1.08,3,1.93,3.72,3.46a7,7,0,0,1,.55,3,23.43,23.43,0,0,1-4.31,14.25,17.23,17.23,0,0,1-12.83,7.06c-2.37.09-4.73-.39-7.09-.27s-4.9,1-6.1,3c-.31.53-.61,1.19-1.22,1.27a1.45,1.45,0,0,1-1-.28c-4.54-2.71-4.2-10.13-8.69-12.94-5.5-3.45-13.09,2.82-19,.08-2.38-1.1-3.89-3.46-5.25-5.71q-6.37-10.59-12-21.6a10.38,10.38,0,0,0-2.48-3.55c-2.73-2.21-7.88-2-8.46-5.49-.34-2,1.47-3.86,3.42-4.56-1.81-2.82-6.29-2.76-8.86-.62s-3.6,5.61-4.05,8.93C17,82,24.94,97.3,32.65,111.34a7.33,7.33,0,0,0,2.17,2.77c2.29,1.49,6.21.5,7.33,3-.07-.16-6.1.56-6.81.42-2.07-.41-2-.41-3.49-1.74-3.06-2.81-5-8.52-6.88-12.16-4.1-8.44-7.29-17.17-8.51-26.55-1.06-8.11,0-15.78,4.94-22.48,1.63-2.21.59-4.35,1-6.57-5.11,1.22-7.89.13-10.31-4.18-1.3-2.32-3.79-2.93-5.77-3.91C2,37.78.2,35.83.8,31.24,1.05,29.31.39,27.68.21,26c-.69-6.57.2-14.3,4.6-18.21A33.38,33.38,0,0,1,22.24.26C26-.2,29.85,1.22,33.72.18a5.2,5.2,0,0,1,5.89,2.58c1.57,2.65,3.88,4.77,5.27,7.41s2.56,4.83,5.93,5.89c2.75.87,2,4.3.91,6.36-3.4,6.57-3.53,6.5,2.09,11.2a25.68,25.68,0,0,1,1.82,7.1c-1.28,1.58-1.11,3.9-2.71,5.31C50.39,47.5,51.38,48.59,53.31,49.58ZM41.21,9.84c-.84-1.4-2.53-2.22-2.73-4-1.89-4.07-3.92-5-7.19-2.71a4,4,0,0,1-5.09.07C22.78.63,19.67,2,17.23,4.23,15.29,6,13.56,6.9,11,6.79,7.37,6.64,3.29,9.7,4.58,14c-.07,1.59-.14,3.19-.2,4.78-1.82,1.45-4.25,2.65-2.17,5.6,0,2.14,2.3,2.75,3,4.4-1.17,1.13-3.79,1.72-2.89,3.72S4,37.08,7,37.42c4,.45,7,2.33,7.87,6.57,1.17,2.2,3.14,1.66,4.84,1.15,2.81-.85,1.48-3.6,2.17-5.44,1.61-.07,2.57.44,2.32,2.31-.31,2.26,1,2.72,2.94,2.61a24.65,24.65,0,0,1,4,.18c5.4.58,10.74,1.72,16.25.68,3.78-.71,6.15-3.34,5.66-6.85-.59-4.15-4-6.85-7.6-6.23A12.31,12.31,0,0,1,36,30.32c-.67-.47-1.71-1.21-.81-2.28.69-.82,1.37-.15,2.06.28a12.33,12.33,0,0,0,6.41,1.75c2.33.06,3.12-1.07,2-2.83-1.49-2.28-.23-3,1.42-4a13.1,13.1,0,0,0,2.19-1.76c.76-.7,2-1.33,1.23-2.61a3.19,3.19,0,0,0-2.57-1.71,29,29,0,0,0-3.23,0c-3.82.18-7.64.73-9.78-3.79-.75-1.59-2.5-1.59-3.62,0S28.35,15.55,26.51,16c-3.36.79-4.31,2.81-2.76,6C24.27,23,25,24,25.38,25.16c.79,2.06.25,3.95-1.91,4.52-1.81.47-4.25,2.49-5.54-1-1.23-3.35-3.3-2-4.87-.47a3.3,3.3,0,0,0-.46,4.44c1.59,2.2,3.84,2.16,6.08,1.35.95-.34,2-1.62,2.71-.34s-.66,2.13-1.66,2.76a6.17,6.17,0,0,1-7.48-.57,6.67,6.67,0,0,1-2-8.63l3.94-3.38c-.63-.31-1.08-.58-1.57-.76-1.05-.39-2.17-1-1.55-2.2.49-1,1.59-.35,2.43.1,1.15.62,2.35,1.15,3.52,1.72a16.83,16.83,0,0,1,2,2.37c.84,1.4,1.42,3.75,3.48,2.26s-.27-2.91-.9-4.31c-.15-.33-.57-.53-.86-.79L20,20.28c2.39-1.93.84-4.93,2-7.21,2.65.75,5.5,1.28,7.32-1.24,2.4-3.33,4.64-1.89,7.06-.38,1.1.68,1.65,2.1,3.1,2.3,1.25.85,2.88,1.85,3.82.24C44.36,12.12,42.7,10.85,41.21,9.84Zm62.94,2.45c-5.09-1.38-7,1.57-8.89,5.59-2.8,5.76-1.27,9.27,5.11,9.74,1.46.11,3.63,0,3.21,2-.93,4.4,4.66,9.49-1.42,13.28a1.12,1.12,0,0,0-.41.66c-.62,3,.56,6.12-.81,9.12-.36.8.91,1.75,1.88,1.57,3.14-.58,4.89,1.62,7,3.2,1.17.88,2.3,2,3.93,1.71,3.41-.61,6.21,1.12,9,2.47a5.81,5.81,0,0,0,3.81.7c2.07-.43,3.61-1.14,1.63-3.74-2.78-3.64-2.38-7.83,1.15-10.62,3.29-2.59,3.7-5.85,2.72-9.31a6.62,6.62,0,0,1,.41-4.92c3.08-6.74,1.24-12-5.72-14.8a11.46,11.46,0,0,1-5-4.1c-2.11-2.74-4.55-4.78-8.69-4C110.09,11.31,107.33,13.49,104.15,12.29ZM34.86,57.74c3.5,1.89,6.55,3.31,8.79,5.91.44.5,1.12,1.06.48,1.64a2,2,0,0,1-1.83.16c-.92-.51-1.57-1.51-2.5-2C37.44,62.2,35.21,60.17,32,61c.5,1.83,1.64,2,2.57,2.43,3.52,1.73,6.34,3.33,7.82,8,1.18,3.67,5.19,6.77,6.58,11a36,36,0,0,0,5.12,9.33c1.5,2.11,3.12,4.83,6.2,4.52,5.55-.56,11.12-1.31,16.4-3.94-1.75-1.78-3.07-3.75-3.2-5.73-.26-3.68-1.83-3.42-4.43-2.41-2.31.89-5,2.2-7.08,0-4.81-5-9.36-10.12-11.56-17C48.59,61.53,40.94,56.79,34.86,57.74Zm78.86,35.84c-2,1.67-3.34,2.92-4.82,3.91-.88.59-2,2.1-3,.83-.86-1.06.76-1.7,1.42-2.45,2.35-2.66,5.65-4.53,6.67-8.33.28-1,1.16-2.2.17-2.9-1.43-1-2.15.74-2.75,1.52-2,2.5-3.24,5.55-5.91,7.51-.84.61-1.87,1.74-2.77.72s.41-1.86,1.14-2.54c3-2.77,5.65-5.7,5.76-10.31-3,4.45-8,6-12,9-.64.48-1.32,1.35-2.06.82-1.17-.82,0-1.66.38-2.4,1-2,2.15-4,3.1-6a1.74,1.74,0,0,0-.64-2.15c-.79-.59-1.31,0-1.54.54-1.64,3.48-5.22,4.93-7.67,7.52-1.91,2-4.87,4.39-3.69,7.41,1.24,3.17,2.15,7.38,5.84,8.63C99.75,107.81,109.13,103.1,113.72,93.58Zm-8-14.8c0-4.93-4.91-8.28-10.73-7.17-5.51,1-10.4,3.62-15.44,5.94-3.45,1.58-4.13,3.62-3.66,6.84a12.41,12.41,0,0,0,3.27,6.7c1.8,1.92,4,2.09,5.53-.62A17.49,17.49,0,0,1,90.31,85a11.69,11.69,0,0,0,4.4-4.54c.91-2,2.21-3.09,4.35-2.64s2,2.56,2.28,4.19c.14.68-.87,1.56.26,2.05s1.92-.31,2.53-.86A4.47,4.47,0,0,0,105.67,78.78ZM92.76,51.06c5.6,0,5.63-.21,6-5.58a8.14,8.14,0,0,1,2.12-5.42c1-1,1.07-8.34.15-9.36a3.07,3.07,0,0,0-1.36-.58c-5.17-1.69-7.92,3.36-12.12,4.43-.78.2-.38,1.05.22,1.55,1,.87,7.29,0,1.13,3.39-.52.28.21,1.19.82,1.53A2.81,2.81,0,0,0,93,40.57c1-.78,2.1-1.15,2.7.08s-.57,1.89-1.52,2.35-1.81.51-2.61,1c-2.25,1.26-2.74,3.85-2.74,5.8S91.43,50.82,92.76,51.06ZM29.91,47c-3.38.26-6.79-1.17-5.83,3.63.46,2.27,2.17,2.62,3.81,2.85A136.45,136.45,0,0,1,43,56.4c1.5.38,3.73,1.11,3.49-1.44-.21-2.14,2.37-5.72-2.22-6.33C39.16,48,34,47.43,29.91,47ZM67.76,66.62C69.88,70.05,74,71.33,76,74.8c.73,1.27,2.19.39,3.19-.29a41,41,0,0,1,10.35-4.86c3.09-1,3.21-2.88.87-5.2-2-2-3-.41-4.25.77-3.4,3.31-6.77,5.66-12,3.28C72.32,67.69,70.34,65.87,67.76,66.62Zm46.51-3.71c-6.28-5.26-12-2.62-17.78.66-.68.38-1.51.75-1.23,1.8a1.17,1.17,0,0,0,1.61.76A94.36,94.36,0,0,1,114.27,62.91ZM55,69.56c2.61,4.67,5.36,9.19,9.5,12.71.6.52,1.23.21,1.79-.26s.87-1.08.36-1.72C63.35,76.13,60.67,71.32,55,69.56ZM80.3,94.74c-.42.87-2.64.54-1.68,2.38,1.56,3,3.2,6,4.86,8.91.75,1.33,2.07,1.17,3.14.68s.61-1.52.15-2.36c-1.53-2.75-3-5.53-4.58-8.27A2.05,2.05,0,0,0,80.3,94.74ZM59.22,67.18C61.3,67.24,61,66,60.94,65c-.18-3-2.73-3.86-4.67-5.3a2.38,2.38,0,0,0-2.6-.21c-.93.55-.69,1.82-.39,2.58C54.4,64.84,57,66.07,59.22,67.18ZM65.72,70c-.36,4.35,2.32,6.4,4.17,8.84a1.65,1.65,0,0,0,2.74,0c.71-.83,1.13-1.74,0-2.72C70.42,74.27,68.34,72.32,65.72,70Zm-15-17.27c-.47,0-1.36,0-1.32.86,0,1.06.46,2.14,1.74,2.31a1.2,1.2,0,0,0,1.5-1.36A1.77,1.77,0,0,0,50.68,52.7Z"/>
        <path class="cls-1" d="M43.87,117.15c.7-.9-1.73-2.47.72-3.11.5-.13.08-1.11-.33-1.71-5.5-8-10.92-16-16.46-24C26.14,86,25.18,83.15,23.11,81a1.82,1.82,0,0,1,.19-2.86c1.3-1,1.9,0,2.51,1,4.09,6.17,8.72,12,12.64,18.26,2.42,3.89,4.81,7.9,8.14,11.17,1.87,1.83,1.6,5.94,5.73,5.36.55,1.39,1.75,1,2.74.9,6.3-.54,12.58.46,19-.65,3-.51,6.86.73,10.4.47,0,1.78-1.43,1.16-2.24,1.18-4.25.07-8.5-.07-12.74,0-1.09,0-2.54-.75-3.32.8-2,1.36-4.43-2.54-6.31.5Z"/>
        <path class="cls-1" d="M110.12,115.27c.25.46.51.91.77,1.36-4.61,1.46-9.33.38-14,.57-1.6-1.12-3.42-.52-5.15-.64s-3.28.39-4.66-.86c.19-.46.37-.93.56-1.4,1.73,0,3.66-.5,5.17.08C98.53,116.57,104.32,115.63,110.12,115.27Z"/>
        <path class="cls-1" d="M91.74,116.56c1.73.12,3.55-.48,5.15.64C95.16,117.1,93.29,118.1,91.74,116.56Z"/>
        <path class="cls-1" d="M78.73,8.1l-.13-.2-.24,0-6-1.14C70,6,68.93,6.84,69.21,9.45a22.41,22.41,0,0,1,0,4.41,6.08,6.08,0,0,1-6.37,5.67A4.33,4.33,0,0,1,59,16.92c-.52-1.84,1.16-4.13,2.89-4,5.93.44,6.26-3.59,6.37-7.51.09-3.6,1.1-4.15,4.45-3,2.43.85,5.28.45,7.82,1.38q0,8.46,0,16.91a14,14,0,0,1-4.82,2.6,3.66,3.66,0,0,1-4.61-2.05c-1.31-2.71,1.12-3.9,3-5.1C80.29,16.43,81.73,13.9,78.73,8.1Z"/>
        <path class="cls-1" d="M69.6,35.7c1.1,1.66,2.12,3.38,3.31,5,1.42,1.89,2,3.65.28,5.73a8.19,8.19,0,0,1-7.44,2.75c-2.69-.31-2.69-3.73-.5-6.38,1.24-1.5,4.28-1.81,3.93-3.86-.29-1.68-2.42-3-3.64-4.58-.8-1-1.44-2.17-2.15-3.27-.55-.86-2.22-1.64-1.66-2.4.66-.91,2.21-1.18,3.63-1.09,3,.17,6.56-.86,6.58,4C67.26,33.08,67.26,33.08,69.6,35.7Z"/>
        <path class="cls-1" d="M80.53,20.72q0-8.46,0-16.91A30.66,30.66,0,0,1,80.53,20.72Z"/>
        <path class="cls-1" d="M135.59,33.22c1.25-2.51.59-5.18.68-7.78C138.92,28.89,138.74,31,135.59,33.22Z"/>
        <path class="cls-1" d="M78.73,8.1c3,5.8,1.56,8.33-4.6,8.07C79.28,14.54,79.28,14.54,78.73,8.1Z"/>
        <path class="cls-2" d="M135.51,34.18l-.59-.61.59-.28Z"/>
        <path class="cls-3" d="M104.15,12.29c3.18,1.2,5.94-1,8.92-1.52,4.14-.74,6.58,1.3,8.69,4a11.46,11.46,0,0,0,5,4.1c7,2.82,8.8,8.06,5.72,14.8a6.62,6.62,0,0,0-.41,4.92c1,3.46.57,6.72-2.72,9.31-3.53,2.79-3.93,7-1.15,10.62,2,2.6.44,3.31-1.63,3.74a5.81,5.81,0,0,1-3.81-.7c-2.8-1.35-5.6-3.08-9-2.47-1.63.29-2.76-.83-3.93-1.71-2.1-1.58-3.85-3.78-7-3.2-1,.18-2.24-.77-1.88-1.57,1.37-3,.19-6.13.81-9.12a1.12,1.12,0,0,1,.41-.66c6.08-3.79.49-8.88,1.42-13.28.42-2-1.75-1.86-3.21-2-6.38-.47-7.91-4-5.11-9.74C97.2,13.86,99.06,10.91,104.15,12.29Z"/>
        <path class="cls-4" d="M87.64,114.3l-1.47-2.54c.92-2.82,3-4,5.83-4.07,2.41,0,4.83,0,7.24.18,7.13.63,15.91-7.49,16.91-14.15.39-2.64.47-5.33.85-8,.58-4-3.61-4.12-5.21-6.38-1.14-1.6-2.72-2.83-3.62-4.81-1.4-3-4.15-4.79-8.34-5.9,5-2.14,9.59-3.11,13.73-2,3.19.87,5.57,4.43,6.52,7.68,3.82,13.15,1.37,25.34-6.65,36.42-1.09,1.51-2.21,3-3.32,4.49-5.79.35-11.58,1.29-17.3-.9C91.3,113.8,89.37,114.3,87.64,114.3Z"/>
        <path class="cls-5" d="M34.86,57.74c6.08-1,13.73,3.79,15.55,9.48,2.2,6.83,6.75,12,11.56,17,2.13,2.2,4.77.89,7.08,0,2.6-1,4.17-1.27,4.43,2.41.13,2,1.45,4,3.2,5.73-5.28,2.63-10.85,3.38-16.4,3.94-3.08.31-4.7-2.41-6.2-4.52A36,36,0,0,1,49,82.4c-1.39-4.2-5.4-7.3-6.58-11-1.48-4.63-4.3-6.23-7.82-8C33.63,63,32.49,62.87,32,61c3.22-.87,5.45,1.16,7.81,2.41.93.49,1.58,1.49,2.5,2a2,2,0,0,0,1.83-.16c.64-.58,0-1.14-.48-1.64C41.41,61.05,38.36,59.63,34.86,57.74Z"/>
        <path class="cls-5" d="M113.72,93.58c-4.59,9.52-14,14.23-22.39,11.38-3.69-1.25-4.6-5.46-5.84-8.63-1.18-3,1.78-5.39,3.69-7.41,2.45-2.59,6-4,7.67-7.52.23-.5.75-1.13,1.54-.54A1.74,1.74,0,0,1,99,83c-1,2-2.1,4-3.1,6-.37.74-1.55,1.58-.38,2.4.74.53,1.42-.34,2.06-.82,4-3,9-4.59,12-9-.11,4.61-2.78,7.54-5.76,10.31-.73.68-2.11,1.44-1.14,2.54s1.93-.11,2.77-.72c2.67-2,3.94-5,5.91-7.51.6-.78,1.32-2.53,2.75-1.52,1,.7.11,1.87-.17,2.9-1,3.8-4.32,5.67-6.67,8.33-.66.75-2.28,1.39-1.42,2.45,1,1.27,2.16-.24,3-.83C110.38,96.5,111.69,95.25,113.72,93.58Z"/>
        <path class="cls-4" d="M105.67,78.78a4.47,4.47,0,0,1-1.54,4.4c-.61.55-1.51,1.3-2.53.86s-.12-1.37-.26-2.05c-.33-1.63-.06-3.72-2.28-4.19s-3.44.66-4.35,2.64A11.69,11.69,0,0,1,90.31,85a17.49,17.49,0,0,0-5.67,5.49c-1.58,2.71-3.73,2.54-5.53.62a12.41,12.41,0,0,1-3.27-6.7c-.47-3.22.21-5.26,3.66-6.84,5-2.32,9.93-4.89,15.44-5.94C100.76,70.5,105.65,73.85,105.67,78.78Z"/>
        <path class="cls-5" d="M92.76,51.06c-1.33-.24-3.9.73-3.89-1.31s.49-4.54,2.74-5.8c.8-.44,1.78-.55,2.61-1s2.06-1.22,1.52-2.35S94,39.79,93,40.57a2.81,2.81,0,0,1-3.35.45c-.61-.34-1.34-1.25-.82-1.53,6.16-3.36-.1-2.52-1.13-3.39-.6-.5-1-1.35-.22-1.55,4.2-1.07,7-6.12,12.12-4.43a3.07,3.07,0,0,1,1.36.58c.92,1,.86,8.36-.15,9.36a8.14,8.14,0,0,0-2.12,5.42C98.39,50.85,98.36,51.05,92.76,51.06Zm2.38-18.54a1.12,1.12,0,0,0-.91,1.5c.53,1.95,1.5,3.49,3.87,3.29,1-.08,2.26-1.11,1.76-1.61A26.35,26.35,0,0,0,95.14,32.52Z"/>
        <path class="cls-5" d="M29.91,47c4.11.48,9.25,1,14.37,1.68,4.59.61,2,4.19,2.22,6.33.24,2.55-2,1.82-3.49,1.44a136.45,136.45,0,0,0-15.12-3c-1.64-.23-3.35-.58-3.81-2.85C23.12,45.78,26.53,47.21,29.91,47Z"/>
        <path class="cls-6" d="M67.76,66.62c2.58-.75,4.56,1.07,6.35,1.88,5.26,2.38,8.63,0,12-3.28,1.22-1.18,2.24-2.77,4.25-.77,2.34,2.32,2.22,4.2-.87,5.2a41,41,0,0,0-10.35,4.86c-1,.68-2.46,1.56-3.19.29C74,71.33,69.88,70.05,67.76,66.62Z"/>
        <path class="cls-4" d="M114.27,62.91a94.36,94.36,0,0,0-17.4,3.22,1.17,1.17,0,0,1-1.61-.76c-.28-1.05.55-1.42,1.23-1.8C102.22,60.29,108,57.65,114.27,62.91Z"/>
        <path class="cls-6" d="M55,69.56c5.67,1.76,8.35,6.57,11.65,10.73.51.64.22,1.23-.36,1.72s-1.19.78-1.79.26C60.36,78.75,57.61,74.23,55,69.56Z"/>
        <path class="cls-7" d="M80.3,94.74a2.05,2.05,0,0,1,1.89,1.34c1.56,2.74,3,5.52,4.58,8.27.46.84,1,1.82-.15,2.36s-2.39.65-3.14-.68c-1.66-2.94-3.3-5.91-4.86-8.91C77.66,95.28,79.88,95.61,80.3,94.74Z"/>
        <path class="cls-3" d="M59.22,67.18C57,66.07,54.4,64.84,53.28,62c-.3-.76-.54-2,.39-2.58a2.38,2.38,0,0,1,2.6.21c1.94,1.44,4.49,2.35,4.67,5.3C61,66,61.3,67.24,59.22,67.18Z"/>
        <path class="cls-6" d="M65.72,70c2.62,2.35,4.7,4.3,6.87,6.14,1.17,1,.75,1.89,0,2.72a1.65,1.65,0,0,1-2.74,0C68,76.37,65.36,74.32,65.72,70Z"/>
        <path class="cls-5" d="M53.09,38.63c-.59-4.15-4-6.85-7.6-6.23A12.31,12.31,0,0,1,36,30.32c-.67-.47-1.71-1.21-.81-2.28.69-.82,1.37-.15,2.06.28a12.33,12.33,0,0,0,6.41,1.75c2.33.06,3.12-1.07,2-2.83-1.49-2.28-.23-3,1.42-4a13.1,13.1,0,0,0,2.19-1.76c.76-.7,2-1.33,1.23-2.61a3.19,3.19,0,0,0-2.57-1.71,29,29,0,0,0-3.23,0c-3.82.18-7.64.73-9.78-3.79-.75-1.59-2.5-1.59-3.62,0S28.35,15.55,26.51,16c-3.36.79-4.31,2.81-2.76,6C24.27,23,25,24,25.38,25.16c.79,2.06.25,3.95-1.91,4.52-1.81.47-4.25,2.49-5.54-1-1.23-3.35-3.3-2-4.87-.47a3.3,3.3,0,0,0-.46,4.44c1.59,2.2,3.84,2.16,6.08,1.35.95-.34,2-1.62,2.71-.34s-.66,2.13-1.66,2.76a6.17,6.17,0,0,1-7.48-.57,6.67,6.67,0,0,1-2-8.63c-1.9-.21-4.08-1.25-5,1.62-1.17,1.12-3.79,1.71-2.89,3.71S4,37.08,7,37.42c4,.45,7,2.33,7.87,6.57,1.17,2.2,3.14,1.66,4.84,1.15,2.81-.85,1.48-3.6,2.17-5.44,1.61-.07,2.57.44,2.32,2.31-.31,2.26,1,2.72,2.94,2.61a24.65,24.65,0,0,1,4,.18c5.4.58,10.74,1.72,16.25.68C51.21,44.77,53.58,42.14,53.09,38.63ZM34.31,20.23a5.13,5.13,0,0,1-3.86,2.49c-1.94.29-3.16-.86-4.05-2.86,2.46-.79,5,.63,6.64-1.72a.81.81,0,0,1,1.34.2A2.56,2.56,0,0,1,34.31,20.23Z"/>
        <path class="cls-8" d="M50.68,52.7a1.77,1.77,0,0,1,1.92,1.81,1.2,1.2,0,0,1-1.5,1.36c-1.28-.17-1.69-1.25-1.74-2.31C49.32,52.68,50.21,52.74,50.68,52.7Z"/>
        <path class="cls-6" d="M80,105.06c-3.23-7.94-4.71-8.48-12.89-6.63-1,.24-2.22,0-3.18.38-6,2.46-9.71-3.33-12.92-7.29s-4.2-7-6.27-11.53c-1.32-2.89-3.78-6.18-5.4-8.95-1.95-3.33-2.49-3.85-5.84-4.87-2.13-.64-4.89-1.25-4.78-4.53-.07-2.41,1.85-3.15,3.77-4-6.49-4-11.65-2-12.69,3.85-3.49,7.17-1.18,14.49.61,21.71,2.57,10.43,7.55,19.87,12.92,29.09.79,1.34,1.88,2.82,3.78,2.54,2.3-.34,3.75,1,5.32,2.24l1.49.05c.7-.9-1.73-2.47.72-3.11.5-.13.08-1.11-.33-1.71-5.5-8-10.92-16-16.46-24C26.14,86,25.18,83.15,23.11,81a1.82,1.82,0,0,1,.19-2.86c1.3-1,1.9,0,2.51,1,4.09,6.17,8.72,12,12.64,18.26,2.42,3.89,4.81,7.9,8.14,11.17h0c1.87,1.83,1.6,5.94,5.73,5.36.55,1.39,1.75,1,2.74.9,6.3-.54,12.58.46,19-.65,3-.51,6.86.73,10.39.47.26-.83.51-1.66.76-2.48C82.59,110.42,81.16,108,80,105.06Zm-29.28,4.86a5.5,5.5,0,0,1,1.07,1.73A5.5,5.5,0,0,0,50.67,109.92Z"/>
        <path class="cls-1" d="M26.4,19.86c2.46-.79,5,.63,6.64-1.72a.81.81,0,0,1,1.34.2,2.56,2.56,0,0,1-.07,1.89,5.13,5.13,0,0,1-3.86,2.49C28.51,23,27.29,21.86,26.4,19.86Z"/>
        <path class="cls-9" d="M41.21,9.84c-.84-1.4-2.53-2.22-2.73-4a4.29,4.29,0,0,0-2.59-1.43A4.29,4.29,0,0,1,38.48,5.8c-1.89-4.07-3.92-5-7.19-2.71a4,4,0,0,1-5.09.07C22.78.63,19.67,2,17.23,4.23,15.29,6,13.56,6.9,11,6.79,7.37,6.64,3.29,9.7,4.58,14c-.07,1.6-.14,3.2-.2,4.79-1.82,1.45-4.25,2.65-2.17,5.6,0,2.14,2.3,2.75,3,4.41.89-2.87,3.07-1.83,5-1.62,1.3-1.11,2.6-2.22,3.94-3.38-.63-.31-1.08-.58-1.57-.76-1.05-.39-2.17-1-1.55-2.2.49-1,1.59-.35,2.43.1,1.15.62,2.35,1.15,3.52,1.72a16.83,16.83,0,0,1,2,2.37c.84,1.4,1.42,3.75,3.48,2.26s-.27-2.91-.9-4.31c-.15-.33-.57-.53-.87-.79-.24-.64-.49-1.28-.74-1.93,2.39-1.93.84-4.93,2-7.21,2.65.75,5.5,1.28,7.32-1.24,2.4-3.33,4.64-1.89,7.06-.38,1.1.68,1.65,2.1,3.1,2.3,1.25.85,2.88,1.85,3.82.24C44.36,12.12,42.7,10.85,41.21,9.84Zm-10-3.93h0a.34.34,0,0,0,.16-.06A.34.34,0,0,1,31.2,5.91Z"/>
        <path class="cls-1" d="M95.14,32.52a26.35,26.35,0,0,1,4.72,3.18c.5.5-.72,1.53-1.76,1.61-2.37.2-3.34-1.34-3.87-3.29A1.12,1.12,0,0,1,95.14,32.52Z"/>
      </g>
    </g>
  </g>
</svg>
