<svg xmlns="http://www.w3.org/2000/svg" width="118.13" height="96.59" viewBox="0 0 118.13 96.59">
  <defs>
    <style>
      .cls-1 {
        fill: #fcc;
      }

      .cls-2 {
        fill: #050105;
      }

      .cls-3 {
        fill: #2622f6;
      }

      .cls-4 {
        fill: #fefefe;
      }

      .cls-5 {
        fill: #fac406;
      }

      .cls-6 {
        fill: #a120fd;
      }

      .cls-7 {
        fill: #5b1dee;
      }
    </style>
  </defs>
  <g id="Layer_2" data-name="Layer 2">
    <g id="Layer_1-2" data-name="Layer 1">
      <g>
        <path class="cls-1" d="M19.65,44.37a81.72,81.72,0,0,0-11.53-8.1c-1.07-.58-2.59-1.36-1.49-3.11,1-1.54,2.28-1,3.5-.32,2.68,1.46,5.37,2.92,8,4.47S18.5,41.38,19.65,44.37Z"/>
        <path class="cls-2" d="M44.43,93.42c1.66-6.67,1.65-6.86-5.26-6.5-5.8.3-11.13-2.41-17-2.06-2.35.13-4.29-2-4.37-4.91s2.47-3.25,4.35-3.79c3.48-1,5.16-3.11,3.43-5.94-1.56-2.56-1.51-5.07-1.23-7.61.33-2.92-.89-3.91-3.37-3.25-4.64,1.22-9.52.79-14.13,2.26-1.23.4-2.64.43-3.27-1.34s-1.83-3.36-.18-5.21a8.18,8.18,0,0,1,7.11-3c.82.06,2,.45,2.36-.85a2.67,2.67,0,0,0-.81-2.55C10,46.06,6.87,44.91,4.32,43,2.11,41.32-1.84,40.1,1,36,4.7,30.63,8.7,29.58,12.51,33c1.75,1.55,3.11,2.75,4.88,0A4.64,4.64,0,0,1,22.72,31c1.72.59,1.67,2.8,1.72,4.57.22,7.87,1,8.84,8.62,11.35,2.4.79,4.66,2,7,2.83,1.61.59,1.86,0,2.69-1.79,2.61-5.75-2.17-9.61-2.77-14.46C38.7,23,42.84,11.3,53.51,8.19c4.7-1.37,8.62-3.82,13-5.41C79-1.75,91-1.27,101.44,8.16A23.45,23.45,0,0,0,108,11.92C117.26,16,120.34,30,116.54,37c-1.43,2.63-3.07,5.15-2.23,8.58.47,1.92-.86,4-2.5,5.2a6.31,6.31,0,0,0-3,4.52c-.57,4.24-3.21,7.14-6.3,9.74-1.21,1.22-3.48.89-4.22,3,3.89,2.6,5,6.25,3.77,10.69-.93,3.65-2.13,7.25-2.69,11s-1.62,5.88-5.81,5.31a5.53,5.53,0,0,0-4.55.91l-17,0c-4,1.47-8.26.24-12.37.77-4.09,0-8.2-.23-12.28,0C44.81,96.73,44.15,95.69,44.43,93.42ZM109,44.71c-.15.78-1.47,1.77,0,2.24.61.2,2.34.38,2.52-1.17a18.58,18.58,0,0,0-.16-3.15c-.75-1.16-.64-2,.42-3.11a13.65,13.65,0,0,0,3.78-10.81c-.16-3.44.07-7-3.68-9-3.26-6.62-10.64-7.74-15.79-11.83-.22-2-2.06-2.1-3.34-2.75-2.35-1.2-5-1.34-7.55-1.86-7.48-1.49-14.41-.8-20.86,3.44-2.1,1.39-4.16,3-6.73,3.24C43.51,11.17,38.69,29.62,44.9,40c.76,1.26,8.43,2.91,9.54,2.06.74-.55.53-1.44.38-2.23,0-1.77,0-3.43,2.4-3.7,6.27-.7,9.1-4.45,9.13-10.54,0-1.56.9-1.79,2.07-1.69s2.07.9,1.47,2.1c-1.11,2.22.23,3.92,1,5.66,1.48,3.26,4.31,5.24,7.34,6.94,1.78,1.57,4.1,1.48,6.21,2,2.57.62,3.79-.37,3.35-3.09l2-3c3.48,2.31,7.08,5.09,11.44,3.44,4.09-1.55,4.14,1.1,4.71,3.52.26,1.12-.66,3,1.83,2.41ZM73.5,70.61c-2.56.28-4.74-.42-5.91,3.79-1.08,3.89-.8,8.56-4.66,12.07,4.84.06,8.93,1.14,13-.39,2.35.48,3.35-1,4-2.85,1.24-3.85,1.08-7.84,1-11.81,0-.84-.1-1.71-1.25-1.57C77.61,70.11,75.4,69.09,73.5,70.61Zm.64-2.5c4.74-.27,8.62-.7,12.5-.65a27,27,0,0,0,11.24-2.55c6-2.56,9.17-7.65,8.82-13.48-.23-3.69-4.87-5.89-3.44-10.26.17-.52-1.65-.46-2.53-.4-2.86.18-5.67-.1-8.06-1.71-2.08-1.4-2.65-.42-2.66,1.41,0,2.52-1.53,2.73-3.48,2.71-6.89-.07-12.55-2.79-16.29-8.49-2-3.06-3-2.46-4.85-.18-1.07,1.35-2.26,2.85-4,3.2-2.61.52-3.92,1.49-4.32,4.53C56.58,45.7,54,46.4,51.14,44.5a3.72,3.72,0,0,0-3.8-.17c-2.47,1.1-3.51,5.19-2.08,7.68,1.7,3,3.93,3.33,6.91,1.13.6-.45,1-1.41,2-.94s.33,1.24.27,2c-.22,2.57,1.14,4.56,2.74,6.4A22,22,0,0,0,74.14,68.11ZM41.27,73.53c-3.25-4-3.33-8-4.41-11.52-.38-1.26-.08-2.94-1.94-2.83-1.69.1-2.45,1.43-2.51,3.09-.1,2.82.76,5.51,1.35,8.22.21,1,1.2,2.17-.42,2.56-1.34.32-1.77-1-2-2.06-.51-2.47-.87-5-1.41-7.45-.19-.88.77-2.42-1-2.54A2.94,2.94,0,0,0,26,63.3a4.4,4.4,0,0,0,.39,3.44,13.5,13.5,0,0,1,2,7.58c-.33,4.1-3.77,3.1-6.24,3.88-.92.29-2.63.76-2.57,2.13A2.68,2.68,0,0,0,22,82.62a62.62,62.62,0,0,1,14.05,1.8c3.38.76,8.6,1.75,12-2.13a1.16,1.16,0,0,1,1.09-.09c3.43,2,7.12.41,10.65.84,2.14.25,2.81-1,3.1-2.81.49-3,1.94-5.92.13-8.86-.49-.79-1.5-.31-2.27-.2a28.73,28.73,0,0,1-8.83-.07c-1.29-.22-2.22-.39-3,1-1,1.63-1.65,1.38-2.13-.52A14.44,14.44,0,0,1,46.32,66c.21-1.58,1.15-3.35-1.5-3.46a3.11,3.11,0,0,0-3.55,3.39C41.24,68.13,41.27,70.32,41.27,73.53ZM95.85,84c-2.86,2.76-5.35,4-8.7,4a242.9,242.9,0,0,0-24.4,1.56c-1.45.16-3,.2-3.82-1.48-1.36-2.61-4.21-2.85-6.24-2.23-2.67.82-5.38,2.28-5.79,6-.29,2.68.31,3,2.85,3,5.91.07,11.75-.63,17.62-.92,9.09-.45,18.2-.45,27.26-1.45,1.56-.18,2.35-.48,2.41-2.31C97.17,86,98.68,82,100,78s-.64-7.64-4.95-8c-1.73-.15-3.49,0-5.24,0-6.2,0-6.18,0-7,6.09-.13.91-.65,1.75-.86,2.65-1.23,5.25,0,6.44,5.23,6.67C90,85.53,92.23,83.08,95.85,84ZM39.39,60.3c3.12-6.49,2.69-7.61-3.59-10-2.13-.79-4.2-1.77-6.38-2.34-5.81-1.51-7.62-5.62-7.55-11.07,0-.54,0-1.08,0-1.61,0-.79.21-1.63-.94-1.83a2.21,2.21,0,0,0-2.13.82c-1,1.09-1,2.44-1,3.78,0,2.93.32,5.86.13,8.76-.32,4.88-3.06,7.37-7.92,7.63-1.31.07-2.66-.25-3.89.64a2.51,2.51,0,0,0-1.1,3.12c.49,1.31,1.63,1,2.73.81a22.24,22.24,0,0,1,5.45-1c4.52.21,9-3,13.64.18,1.15.8,3.22.5,4.93-.57C35.08,55.66,37.08,56.45,39.39,60.3ZM15.84,48.61c-1.14-3,1.28-5.42-1.5-7.06s-5.33-3-8-4.47c-1.21-.66-2.51-1.22-3.49.33-1.11,1.74.42,2.52,1.48,3.1A81.15,81.15,0,0,1,15.84,48.61ZM48.66,63.47h-.07c0,1.2,0,2.4,0,3.6s.89,1.14,1.58,1.46a1.45,1.45,0,0,0,2.06-.6c.77-2.49,1.75-5,1.78-7.58a3.44,3.44,0,0,0-3.52-3.48c-3,0-1,2.36-1.73,3.47C48.26,61.09,48.66,62.4,48.66,63.47ZM14.74,38.25a23.63,23.63,0,0,0-5.05-4.88c-.7-.5-1.49-.76-2.11,0s0,1.62.58,2C10,36.8,12,38.1,14.74,38.25Z"/>
        <path class="cls-1" d="M74.14,68.11a22,22,0,0,1-17-7.53c-1.6-1.84-3-3.83-2.74-6.4.06-.74.8-1.47-.27-2s-1.38.49-2,.94C49.19,55.34,47,55,45.26,52c-1.43-2.49-.39-6.58,2.08-7.68a3.72,3.72,0,0,1,3.8.17C54,46.4,56.58,45.7,57,42.24c.4-3,1.71-4,4.32-4.53,1.78-.35,3-1.85,4-3.2,1.81-2.28,2.84-2.88,4.85.18,3.74,5.7,9.4,8.42,16.29,8.49,2,0,3.46-.19,3.48-2.71,0-1.83.58-2.81,2.66-1.41,2.39,1.61,5.2,1.89,8.06,1.71.88-.06,2.7-.12,2.53.4-1.43,4.37,3.21,6.57,3.44,10.26.35,5.83-2.87,10.92-8.82,13.48a27,27,0,0,1-11.24,2.55C82.76,67.41,78.88,67.84,74.14,68.11Zm29.32-19.57-.77-.42c-.82-1.93-3.44.51-4.14-1.71.68-.86.11-1.48-.46-2-1-1-1.85-2.4-3.59-2-.44.1-1.14.61-1.12.88.15,1.82,2,1.78,3.09,2.54a8.3,8.3,0,0,0,1.42.64c.54,2.42-3.1,2.92-2.48,5.38,0,.62-.07,1.23-.1,1.84-1.08-.45-2.15-.94-3.24-1.36-5.85-2.27-14.21-.82-17.51,3-.49.56-1.37,1.06-.53,2,.64.68,1.2.16,1.74-.2.89-.57,1.74-1.21,2.66-1.72,4.49-2.47,9.27-3,13.52-.1a8.78,8.78,0,0,0,7.88,1.53c2.15.52,4.23-.19,5.1-1.92a5.12,5.12,0,0,0-1.25-6.09Zm-35.7,1.09c-3.33-.9-5.29.18-5.44,3.68-.14,3.33,1.92,4.84,4.86,5.13s5.58-1,5.78-4.19S71.71,48.54,67.76,49.63ZM84.1,56.79c-1.51.18-3.54-.64-4.07,1.43-.23.92,1.25,1.28,2.18,1.07C83.65,59,85.85,60,86.36,58,86.78,56.25,84.93,57.08,84.1,56.79ZM75.7,43.67c-3.18-1.18-4.87,0-6,2.18a2,2,0,0,0,.18,1.86c.52.65,1.1.07,1.61-.39C72.69,46.2,74,45.14,75.7,43.67Z"/>
        <path class="cls-1" d="M41.27,73.53c0-3.21,0-5.4,0-7.59a3.11,3.11,0,0,1,3.55-3.39c2.65.11,1.71,1.88,1.5,3.46a14.44,14.44,0,0,0,.44,5.53c.48,1.9,1.14,2.15,2.13.52.83-1.35,1.76-1.18,3-1a28.73,28.73,0,0,0,8.83.07c.77-.11,1.78-.59,2.27.2,1.81,2.94.36,5.91-.13,8.86-.29,1.8-1,3.06-3.1,2.81-3.53-.43-7.22,1.11-10.65-.84a1.16,1.16,0,0,0-1.09.09c-3.4,3.88-8.62,2.89-12,2.13a62.62,62.62,0,0,0-14-1.8,2.68,2.68,0,0,1-2.4-2.29c-.06-1.37,1.65-1.84,2.57-2.13,2.47-.78,5.91.22,6.24-3.88a13.5,13.5,0,0,0-2-7.58A4.4,4.4,0,0,1,26,63.3,2.94,2.94,0,0,1,29,61c1.76.12.8,1.66,1,2.54.54,2.47.9,5,1.41,7.45.21,1.06.64,2.38,2,2.06,1.62-.39.63-1.57.42-2.56-.59-2.71-1.45-5.4-1.35-8.22.06-1.66.82-3,2.51-3.09,1.86-.11,1.56,1.57,1.94,2.83C37.94,65.58,38,69.57,41.27,73.53Z"/>
        <path class="cls-3" d="M95.85,84c-3.62-1-5.82,1.5-8.68,1.37C82,85.17,80.71,84,81.94,78.73c.21-.9.73-1.74.86-2.65.82-6,.8-6,7-6.09,1.75,0,3.51-.17,5.24,0,4.31.39,6.31,3.89,4.95,8S97.17,86,97,90.3c-.06,1.83-.85,2.13-2.41,2.31-9.06,1-18.17,1-27.26,1.45-5.87.29-11.71,1-17.62.92-2.54,0-3.14-.35-2.85-3,.41-3.74,3.12-5.2,5.79-6,2-.62,4.88-.38,6.24,2.23.87,1.68,2.37,1.64,3.82,1.48a242.9,242.9,0,0,1,24.4-1.56C90.5,88.05,93,86.79,95.85,84Z"/>
        <path class="cls-1" d="M39.39,60.3c-2.31-3.85-4.31-4.64-7.57-2.61-1.71,1.07-3.78,1.37-4.93.57-4.62-3.22-9.12,0-13.64-.18a22.24,22.24,0,0,0-5.45,1c-1.1.23-2.24.5-2.73-.81a2.51,2.51,0,0,1,1.1-3.12c1.23-.89,2.58-.57,3.89-.64,4.86-.26,7.6-2.75,7.92-7.63.19-2.9-.1-5.83-.13-8.76,0-1.34,0-2.69,1-3.78A2.21,2.21,0,0,1,21,33.49c1.15.2,1,1,.94,1.83,0,.53,0,1.07,0,1.61-.07,5.45,1.74,9.56,7.55,11.07,2.18.57,4.25,1.55,6.38,2.34C42.08,52.69,42.51,53.81,39.39,60.3Z"/>
        <path class="cls-4" d="M73.5,70.61c1.9-1.52,4.11-.5,6.16-.76,1.15-.14,1.25.73,1.25,1.57,0,4,.19,8-1,11.81-.61,1.89-1.61,3.33-4,2.85-5.33.27-5.29.28-3.55-4.73A26.2,26.2,0,0,0,73.5,70.61Z"/>
        <path class="cls-3" d="M73.5,70.61a26.2,26.2,0,0,1-1.15,10.74c-1.74,5-1.78,5,3.55,4.73-4,1.53-8.13.45-13,.39,3.86-3.51,3.58-8.18,4.66-12.07C68.76,70.19,70.94,70.89,73.5,70.61Z"/>
        <path class="cls-1" d="M15.84,48.61a81.15,81.15,0,0,0-11.53-8.1c-1.06-.58-2.59-1.36-1.48-3.1,1-1.55,2.28-1,3.49-.33,2.69,1.46,5.38,2.92,8,4.47S14.7,45.63,15.84,48.61Z"/>
        <path class="cls-4" d="M48.66,63.47c0-1.07-.4-2.38.09-3.13.72-1.11-1.3-3.5,1.73-3.47A3.44,3.44,0,0,1,54,60.35c0,2.54-1,5.09-1.78,7.58a1.45,1.45,0,0,1-2.06.6c-.69-.32-1.61-.34-1.58-1.46s0-2.4,0-3.6Z"/>
        <path class="cls-5" d="M115.54,28.71c-.16-3.44.07-7-3.69-9-3.25-6.61-10.63-7.73-15.78-11.82-.22-2-2.06-2.1-3.34-2.75-2.35-1.2-5-1.34-7.55-1.86-7.48-1.49-14.41-.8-20.86,3.44-2.1,1.39-4.16,3-6.73,3.24C43.51,11.17,38.69,29.62,44.9,40c.76,1.26,8.43,2.9,9.54,2.06.74-.55.53-1.44.38-2.23,0-1.77,0-3.43,2.4-3.7,6.27-.7,9.1-4.45,9.13-10.54,0-1.56.9-1.79,2.07-1.69s2.07.9,1.47,2.1c-1.11,2.22.23,3.92,1,5.66,1.48,3.26,4.31,5.24,7.34,6.94,1.78,1.57,4.1,1.48,6.21,2,2.57.62,3.79-.37,3.35-3.1.65-1,1.3-2,2-3,3.48,2.31,7.08,5.09,11.44,3.44,4.09-1.55,4.14,1.1,4.71,3.52.26,1.12-.66,3,1.83,2.41l1.29.85c-.15.78-1.47,1.77,0,2.24.61.2,2.34.38,2.52-1.17a17.62,17.62,0,0,0-.17-3.15c-.74-1.16-.63-2,.43-3.11A13.65,13.65,0,0,0,115.54,28.71Z"/>
        <path class="cls-6" d="M67.76,49.63c3.95-1.09,5.4,1.37,5.2,4.62s-2.75,4.5-5.78,4.19-5-1.8-4.86-5.13C62.47,49.81,64.43,48.73,67.76,49.63Z"/>
        <path class="cls-2" d="M99.84,56.81A8.8,8.8,0,0,1,92,55.28c-4.25-2.9-9-2.37-13.52.1-.92.51-1.77,1.15-2.66,1.72-.54.36-1.1.88-1.74.2-.84-.91,0-1.41.53-2,3.3-3.85,11.66-5.3,17.51-3,1.09.42,2.16.91,3.24,1.37,1.28,1.12,2.91,1.43,4.47,1.88Z"/>
        <path class="cls-2" d="M84.1,56.79c.83.29,2.68-.54,2.26,1.17-.51,2-2.71,1-4.15,1.33-.93.21-2.41-.15-2.18-1.07C80.56,56.15,82.59,57,84.1,56.79Z"/>
        <path class="cls-2" d="M75.7,43.67c-1.71,1.47-3,2.53-4.25,3.65-.51.46-1.09,1-1.61.39a2,2,0,0,1-.18-1.86C70.83,43.7,72.52,42.49,75.7,43.67Z"/>
        <path class="cls-6" d="M103.68,48.8l-.23-.28c-.2.07-.4.14-.6.19a1,1,0,0,1-.16-.59c-.82-1.93-3.44.51-4.14-1.71l-.34-.07-.32.1c.54,2.42-3.1,2.92-2.48,5.38,0,.62-.07,1.23-.1,1.85,1.28,1.12,2.91,1.43,4.47,1.88,0,.42,0,.84,0,1.26,2.15.52,4.23-.19,5.1-1.92A5.12,5.12,0,0,0,103.68,48.8Z"/>
        <path class="cls-2" d="M98.55,46.41l-.34-.07-.32.1a8.3,8.3,0,0,1-1.42-.64c-1.12-.76-2.94-.72-3.09-2.54,0-.27.68-.78,1.12-.88,1.74-.39,2.57,1,3.59,2C98.66,44.93,99.23,45.55,98.55,46.41Z"/>
        <path class="cls-7" d="M102.85,48.71a1,1,0,0,1-.16-.59l.76.41Z"/>
      </g>
    </g>
  </g>
</svg>
