<svg xmlns="http://www.w3.org/2000/svg" width="149.27" height="88.21" viewBox="0 0 149.27 88.21">
  <defs>
    <style>
      .cls-1 {
        fill: #050105;
      }

      .cls-2 {
        fill: #2622f6;
      }

      .cls-3 {
        fill: #5b1dee;
      }

      .cls-4 {
        fill: #fd11fb;
      }

      .cls-5 {
        fill: #fe77fe;
      }

      .cls-6 {
        fill: #fdf804;
      }

      .cls-7 {
        fill: #fe94fe;
      }

      .cls-8 {
        fill: #fefefe;
      }

      .cls-9 {
        fill: #fd9402;
      }

      .cls-10 {
        fill: #fe4efe;
      }

      .cls-11 {
        fill: #8018fa;
      }
    </style>
  </defs>
  <g id="Layer_2" data-name="Layer 2">
    <g id="Layer_1-2" data-name="Layer 1">
      <g>
        <path class="cls-1" d="M44.16,64.81a12.94,12.94,0,0,0-6.7-5c-2.61-.9-4.94-3.17-8-3.62-5.64-.5-10.43-2.34-12.67-8.14l-.11-.17c-.54-6.06-.29-6.41,4.8-7l4.38,1.75c-.62-3.05-2.71-3.92-4.41-4.9-4.9-2.85-10.4-4-15.89-5C-.24,31.56-.3,31.48.19,25.32L.58,22.6c3.23-6.06,9-8.08,15.16-9,2.63-.4,3.8-1.49,4.91-3.75C23.19,4.61,26.82.44,33.18,0a11.25,11.25,0,0,1,8,2.11c1,2.17.53,4.47.47,6.69-.15,5.23,1.12,9.9,4.67,13.83a11.41,11.41,0,0,0,2.77,2.21c2.28.86,4.2,2,6.37-1.33A16.22,16.22,0,0,1,70.33,15.8c3.55.21,5.8-3.5,9.4-2.64,1.55.36,3,.35,3.78-1.36l1.36-1.27c5.29-1,7.24-.09,9.47,4.67q2.37,5.06,4.41,10.26c1,2.56,2.46,4.62,5.06,5.72a19.87,19.87,0,0,1,4.58,3.48c3.44,3.17,4.68,8,8.27,11,1.61,2.22,3.39,3.35,6.48,2.7,2.38-.5,4.51,1,5.94,3.27,2.16,3.44,1.23,7,.64,10.51-.54,1-1.07,1.91-1.61,2.87l-3.19,3.2a.81.81,0,0,0-.84.81h0c-.51,0-.87.24-.88.82v-.07c-1.75.76-1.92,2.24-1.3,3.67,1.42,3.26.09,6.32-.38,9.45-.6,4-4.11,4.22-6.92,5.35a26,26,0,0,1-5.09-.8c-6.76-2.5-13.73-3.2-20.59-1.28A26.45,26.45,0,0,1,73,86c-4.67-1.55-9.26-1.65-13.63.83-1.87,1.07-3.5.74-5.24-.09-1.72-1.3-4.51-2.08-3.19-5.11,1.11-2.53-.41-3-2.21-3.51-1.27-.33-2.56-.59-3.84-.88A4.85,4.85,0,0,1,44.56,72C46.57,69.23,45.4,67.12,44.16,64.81ZM45.59,39c-.65,0-.73.54-1,1-1.51,2-1.66,4.83-3.79,6.48.76-7.1,4.74-12.46,9.65-17.27-4.66-3.35-8.08-2.53-12.83,4.09-5.15,7.17-6.14,13.3,1,19,1.38-1.73.49-4.33,2.25-5.91a29.17,29.17,0,0,0,.09,4c.61,3.88.61,7.93,3.72,11.06,1.37,1.38,1.91,1,2.32-.48.78-2.83,1.36-5.72,2.17-8.54,2.19-7.64,5.24-14.77,11.94-19.68.87,1.07-.18,1.8-.68,2.3C55,40.37,52.53,47.36,50.31,54.49c-1.13,3.63-.57,4.39,3,4.12a12.43,12.43,0,0,1,3.58.37c2,.45,3-.4,3.38-2.3,1-5.38,3.39-10.22,6-15,.41-.74.36-2.39,2-1.83C66.58,44,64.83,48.1,63,52.18c-2.23,5-1.62,7,2.56,9.6,2.22,1.39,3,.69,3.59-1.54,3.49-12.65,9.42-23.5,22-29.3.43-.2,1-.71,1-1.1,0-.7-.61-1.11-1.31-1.16-6-.44-11.75-.13-16.38,4.57-2.15,2.18-3.59,5-6.24,6.73.84-4.54,4.48-6.87,7.56-9.65,1-.9,2.85-1.11,2.6-3.33a45.88,45.88,0,0,0-7.31,1c-3.76,1-6.42,3.77-10,4.68-.81-2.71,3-2.31,3.07-4.58-5.22.3-10.39.44-14.41,4.41a3.63,3.63,0,0,0-1.89,2.12l-.16.19c-2.12.62-2,2.47-2.25,4.11ZM30.47,48c-.23-.89-1-.68-1.59-.76-1.8-1.94-4.22-2.4-6.65-3-1.08-.26-2.24-.65-2.91.15a3,3,0,0,0,0,3c1.86,4,5.08,6,9.44,6.15l8.51,2.36c-2.28-3.33-3.37-6.69-6.91-8ZM28.84,3.72l-1.35.75a11.47,11.47,0,0,0-4.11,4.68c-1.64,4.11-3.58,7.65-9.08,6.75-1.11-.18-2.42.89-3.63,1.38-1.25,0-2.5.06-3,1.53H7.5c-3.07.18-4,3-5.25,4.89C.56,26.38,2.39,30,5.09,30.25c6,.54,11.57,2.69,17,5.12,1.43.64,2.26.94,3.12-.78s.39-2.53-.95-3.3a16.71,16.71,0,0,0-7.15-2.22c-1-1-3.36.33-3.52-1.75s1.11-3.39,2.93-4.24c1-.49,2.1-1,3.15-1.51,3.66.21,6.69-.16,6.8-5,0-1.35,1.54-2.67,2.37-4l1.38-.78c1.83-.2,3.63-.27,5,1.32a11.4,11.4,0,0,0,1,6.19,3,3,0,0,0,4.27,1.69c2.21-.91.31-2.15.08-3.2-.36-1.68-.87-3.32-1.32-5L39.12,4C35.77,1,32.33,1.66,28.84,3.72Zm-2.58,20.2c-3.31-.18-6.71-.75-10,2.53l7.37,1.3c2,3.05,3.79,2.43,5.66-.15a9.28,9.28,0,0,1,2.23-2.19c3.09-2.11,3.63-4.57,1.26-7.55-.4-1.17.62-3.13-.95-3.44s-2.2,1.47-2.8,2.73A8.89,8.89,0,0,0,28.63,19C27.62,20.55,28,22.77,26.26,23.92ZM78.8,80.42q0-4.38-.07-8.76c-.27-5,1.86-9.47,2.57-14.24,3-3.93.62-7.35-1.28-10.6-1-1.66-2.18-1.47-3.45.5a41.86,41.86,0,0,0-6.2,17.94c-.71,6.17-.62,12.88,5,17.59,1.08.91,2.76,2.16,3.82,1.49C80.64,83.39,79.1,81.75,78.8,80.42Zm40.38-10.37c2.83-2.92,6.52-5.11,7.94-9.25a14.39,14.39,0,0,0,.52-2.71c0-2.81.22-5.74-3-7.21s-4.42,1.41-5.87,3c-4.24,4.51-8.76,8.4-14.92,10A2.77,2.77,0,0,0,101.41,67c.47,5.48,1.79,10.62,5.59,14.85a5.89,5.89,0,0,0,2.33,2.65c2.56,1.6,5.37,2,7.92.4,1.79-1.08,3.25-2.86,2-5.35C121.27,76.36,118.57,73.22,119.18,70.05ZM78.94,42.66c5.83,4.51,7.25,8.59,5.11,15.3-2,6.44-3.32,12.94-2.76,19.72.2,2.4.3,4.95,1.93,6.79,1.82,2.08,3.21-.89,4.94-.88.4,0,.81-.09,1.21-.06,4.13.28,8.21-1.29,12.41-.21,1.64.43,2.52-.32,1.51-2.3a54.66,54.66,0,0,1-3.09-7.37c-2.43-7.25-.85-10.27,6.31-12.72,4.14-1.41,7.31-4.2,10.15-7.43,1.61-1.85,1.59-3.57-.35-5.11-2.77-2.19-4.43-5.17-6.19-8.15C104.75,31.1,95.6,29,87.06,34.93,83.89,37.11,81.76,40.18,78.94,42.66ZM61,77.74c.6-3,3.27-1.8,4.6-2.94.55-.47,1.93.52,1.93-1.21S66.48,72,65.43,71.84c-1.2-.16-2.4-.32-3.61-.37s-2.3-.49-2.19-1.75,1.39-1.54,2.5-1.49c.65,0,1.28.51,1.91.48,1.17,0,2.84,1.27,3.42-.56.49-1.53-.54-2.73-2-3.5-3.29-1.72-6.34-3.75-10.37-3.82-4.3-.09-6.16,1.53-4.23,5.2,1.31,2.51,1,3.71-1.36,4.47A3.9,3.9,0,0,0,47,74.16c-.1,1.28,2.13,1.48,3.37,2a5.17,5.17,0,0,0,2.39,0,3.14,3.14,0,0,1,2.9,1.08c.76,1.14-.39,1.93-1.12,2.66-2.39,2.39-1,3.57,1.38,4.45,2.08.76,10.92-2.87,11.94-4.94a2.16,2.16,0,0,0,.2-1.5c-.3-.82-1.14-.72-1.7-.42C64.66,78.46,63,77.88,61,77.74ZM31.61,41.36C33.51,34.91,37,29.58,43,26.14c.65-.37,1.13-.72,1-1.49s-1-.71-1.6-.86c-4.3-1-11.26,3.68-12.83,8.09C28.27,35.45,25.32,39.11,31.61,41.36Zm65.67-13.1c-2.21-5.23-3.66-9.76-6-13.8-2-3.42-6-2.69-7.29,1.08a15.32,15.32,0,0,0-1.16,6.16c.19,2.14.81,3.49,3.17,3.81A44.67,44.67,0,0,1,97.28,28.26ZM56.87,26.18c4-.52,7.7-.76,11.26-1.53C71,24,70.57,21,70.54,19.14s-2.43-1.23-3.49-.91C62.86,19.51,58.85,21.22,56.87,26.18Zm23.54-6.07c-.18-1.86,1-4.62-2.23-4.9-2.37-.21-5.93,4.85-5.69,7.85s2.63,1.12,4,1.47C80.36,25.55,81,23.35,80.41,20.11Z"/>
        <path class="cls-1" d="M129.21,33.36C130.5,30,133.1,28,136.53,28c3.63,0,5.93,2.23,7.31,5.73.87,2.21-2,3.17-1.1,5.11-4.13,3.35-8.05,3.4-11,.47C130,37.62,130.66,35.08,129.21,33.36Zm6.71,5.44c2.2.74,4.19.4,4.92-2,.55-1.79,1.24-4.07-1.56-5-1.34-1.67-3-2.15-4.88-1.07-1.68,1-2.07,2.68-1.91,4.5C132.68,37.32,133.63,38.72,135.92,38.8Z"/>
        <path class="cls-1" d="M144.28,53.79c-2.6-1.93-3-4.4-1.81-7.27,1.59-.94,3.08-1.89,5-.48a4,4,0,0,1,1.59,4.53C148.51,52.93,146.53,53.68,144.28,53.79Z"/>
        <path class="cls-2" d="M78.94,42.66c2.82-2.48,5-5.55,8.12-7.73,8.54-5.89,17.69-3.83,23.06,5.31,1.76,3,3.42,6,6.19,8.15,1.94,1.54,2,3.26.35,5.11-2.84,3.23-6,6-10.15,7.43-7.16,2.45-8.74,5.47-6.31,12.72A54.66,54.66,0,0,0,103.29,81c1,2,.13,2.73-1.51,2.3-4.2-1.08-8.28.49-12.41.21-.4,0-.81.06-1.21.06-1.73,0-3.12,3-4.94.88-1.63-1.84-1.73-4.39-1.93-6.79C80.73,70.9,82,64.4,84.05,58,86.19,51.25,84.77,47.17,78.94,42.66Zm19-1.88c.26,1.65.24,2.8-.74,3-2.3.58-1.92,2.42-2.53,4-1.63,4.33.82,7.45,5.39,8.92,3.12,1,7.68-1.78,8.61-4.9.68-2.32-2.8-9.34-5-10.1a1.24,1.24,0,0,0-1.08.21C100.71,44.31,99.63,42.34,97.9,40.78ZM95.67,61.26c.49-3.48-2.42-4.5-4.93-4.6a4,4,0,0,0-4.16,4.15c.13,3.26,2.45,4.78,5.32,4.82C94.16,65.66,96,64.33,95.67,61.26Z"/>
        <path class="cls-2" d="M68.35,39.9c-1.69-.56-1.64,1.09-2,1.83-2.59,4.73-5,9.57-6,15C60,58.58,59,59.43,56.94,59a12.43,12.43,0,0,0-3.58-.37c-3.62.27-4.18-.49-3-4.12C52.53,47.36,55,40.37,60.47,35c.5-.5,1.55-1.23.68-2.3l-.06.05c3.62-.91,6.28-3.7,10-4.68a45.88,45.88,0,0,1,7.31-1c.25,2.22-1.6,2.43-2.6,3.33-3.08,2.78-6.72,5.11-7.56,9.65Z"/>
        <path class="cls-3" d="M68.28,40c2.65-1.71,4.09-4.55,6.24-6.73,4.63-4.7,10.38-5,16.38-4.57.7.05,1.34.46,1.31,1.16,0,.39-.57.9-1,1.1-12.63,5.8-18.56,16.65-22,29.3-.62,2.23-1.37,2.93-3.59,1.54-4.18-2.61-4.79-4.62-2.56-9.6C64.83,48.1,66.58,44,68.35,39.9Z"/>
        <path class="cls-3" d="M61,77.74c2,.14,3.64.72,5.35-.16.56-.3,1.4-.4,1.7.42a2.16,2.16,0,0,1-.2,1.5c-1,2.07-9.86,5.7-11.94,4.94-2.38-.88-3.77-2.06-1.38-4.45.73-.73,1.88-1.52,1.12-2.66a3.14,3.14,0,0,0-2.9-1.08,5.17,5.17,0,0,1-2.39,0c-1.24-.56-3.47-.76-3.37-2a3.9,3.9,0,0,1,2.47-3.66c2.36-.76,2.67-2,1.36-4.47-1.93-3.67-.07-5.29,4.23-5.2,4,.07,7.08,2.1,10.37,3.82,1.48.77,2.51,2,2,3.5-.58,1.83-2.25.51-3.42.56-.63,0-1.26-.45-1.91-.48-1.11,0-2.38.25-2.5,1.49s1,1.69,2.19,1.75,2.41.21,3.61.37c1,.14,2.12.12,2.12,1.75s-1.38.74-1.93,1.21C64.29,75.94,61.62,74.69,61,77.74Z"/>
        <path class="cls-3" d="M40.85,46.39c2.13-1.65,2.28-4.46,3.8-6.48l.94-1h-.14c2.41-.46,3.31-1.75,2.25-4.11,0,0,.16-.19.17-.19,2.3.78,1.7-1,1.88-2.12,4-4,9.19-4.11,14.41-4.41-.06,2.27-3.88,1.87-3.07,4.58l.06-.05c-6.7,4.91-9.75,12-11.94,19.68C48.4,55.15,47.82,58,47,60.87c-.41,1.49-.95,1.86-2.32.48-3.11-3.13-3.11-7.18-3.72-11.06a29.17,29.17,0,0,1-.09-4Z"/>
        <path class="cls-2" d="M40.91,46.32c-1.76,1.58-.87,4.18-2.25,5.91-7.13-5.72-6.14-11.85-1-19,4.75-6.62,8.17-7.44,12.83-4.09-4.91,4.81-8.89,10.17-9.65,17.27Z"/>
        <path class="cls-3" d="M31.61,41.36c-6.29-2.25-3.34-5.91-2.07-9.48,1.57-4.41,8.53-9.11,12.83-8.09.61.15,1.43,0,1.6.86s-.33,1.12-1,1.49C37,29.58,33.51,34.91,31.61,41.36Z"/>
        <path class="cls-4" d="M32.82,17.86c2.37,3,1.83,5.44-1.26,7.55a9.28,9.28,0,0,0-2.23,2.19c-1.87,2.58-3.69,3.2-5.66.15,2.54-.15,1.84-2.47,2.59-3.83C28,22.77,27.62,20.55,28.63,19c.15,1.83,1.47,1.43,2.63,1.42C33.26,20.45,32.45,18.81,32.82,17.86Z"/>
        <path class="cls-5" d="M26.26,23.92c-.75,1.36-.05,3.68-2.59,3.83l-7.37-1.3C19.55,23.17,23,23.74,26.26,23.92Z"/>
        <path class="cls-6" d="M30.46,48h0l-.07,0h0c-.57-.13-1.7.91-1.52-.75-1.8-1.94-4.22-2.4-6.65-3-1.08-.26-2.24-.65-2.91.15a3,3,0,0,0,0,3c1.86,4,5.08,6,9.44,6.15l8.51,2.36C35.05,52.61,34,49.28,30.46,48Z"/>
        <path class="cls-7" d="M32.82,17.86c-.37.95.44,2.59-1.56,2.59-1.16,0-2.48.41-2.63-1.42a8.89,8.89,0,0,1,.44-1.88c.6-1.26,1.35-3,2.8-2.73S32.42,16.69,32.82,17.86Z"/>
        <path class="cls-1" d="M47.7,34.84c1.06,2.36.16,3.65-2.25,4.11C45.7,37.31,45.58,35.46,47.7,34.84Z"/>
        <path class="cls-6" d="M40.53,17.74c-.36-1.68-.87-3.32-1.32-5L39.12,4c-3.35-3-6.79-2.34-10.28-.27l-1.36.74h0a11.52,11.52,0,0,0-4.1,4.68c-1.64,4.11-3.58,7.65-9.08,6.75-1.11-.18-2.42.89-3.63,1.38-1.25,0-2.5.06-3,1.53H7.5c-3.07.18-4,3-5.25,4.89C.56,26.38,2.39,30,5.09,30.25c6,.54,11.57,2.69,17,5.12,1.43.64,2.26.94,3.12-.78s.39-2.53-.95-3.3a16.71,16.71,0,0,0-7.15-2.22c-1-1-3.36.33-3.52-1.75s1.11-3.39,2.93-4.24c1-.49,2.1-1,3.15-1.51,3.66.21,6.69-.16,6.8-5,0-1.35,1.54-2.67,2.37-4a2.9,2.9,0,0,0-1.51-.17,2.9,2.9,0,0,1,1.51.17l1.38-.79c1.83-.19,3.63-.26,5,1.33a11.4,11.4,0,0,0,1,6.19,3,3,0,0,0,4.27,1.69C42.66,20,40.76,18.79,40.53,17.74ZM28,7.23c-.71-.12-1-.3-1.07-.53.07.23.36.41,1.07.53.18,1.33,0,2.84.91,3.78C27.92,10.07,28.12,8.56,28,7.23Z"/>
        <path class="cls-1" d="M49.75,32.53c-.18,1.1.42,2.9-1.88,2.12A3.58,3.58,0,0,1,49.75,32.53Z"/>
        <path class="cls-8" d="M30.47,48c-.54-.24-1.77,1-1.59-.76C29.49,47.28,30.24,47.07,30.47,48Z"/>
        <path class="cls-2" d="M45.59,39l-.94,1C44.86,39.49,44.94,38.94,45.59,39Z"/>
        <polygon class="cls-9" points="89.58 87.26 89.9 87.17 89.88 87.41 89.58 87.26"/>
        <path class="cls-1" d="M129.42,65.62c.17-.81.33-1.62.5-2.44,1.84-1.48,3.55-3.31,6.3-2,1.51.7,2.67,1.61,2.8,3.47s-.09,3.84-1.92,4.86a4.68,4.68,0,0,1-5.53-.48c-.62-.5-1.17-1.08-1.75-1.63C129.69,66.78,129.55,66.2,129.42,65.62Zm5.18-1.45c-1.25-.12-1.52.6-1.57,1.69s.48,1.62,1.63,1.59,1.6-.66,1.65-1.75C136.37,64.45,135.72,64.07,134.6,64.17Z"/>
        <path class="cls-10" d="M139.28,31.82c2.8,1,2.11,3.23,1.56,5-.73,2.36-2.72,2.7-4.92,2,.22-.3.67-.79.61-.87-.89-1.08-3.3-1.48-2.21-3.44A5.13,5.13,0,0,1,139.28,31.82Z"/>
        <path class="cls-7" d="M139.28,31.82a5.13,5.13,0,0,0-5,2.67c-1.09,2,1.32,2.36,2.21,3.44.06.08-.39.57-.61.87-2.29-.08-3.24-1.48-3.43-3.55-.16-1.82.23-3.53,1.91-4.5C136.26,29.67,137.94,30.15,139.28,31.82Z"/>
        <path class="cls-9" d="M104.68,30.17l-.27.06h-.28C104.27,29.65,104.47,29.79,104.68,30.17Z"/>
        <path class="cls-1" d="M97.9,40.78c1.73,1.56,2.81,3.53,4.61,1.2a1.24,1.24,0,0,1,1.08-.21c2.24.76,5.72,7.78,5,10.1-.93,3.12-5.49,5.9-8.61,4.9-4.57-1.47-7-4.59-5.39-8.92.61-1.61.23-3.45,2.53-4C98.14,43.58,98.16,42.43,97.9,40.78ZM106.42,50a5.15,5.15,0,0,0-5.64-5.32c-3.1.22-4.81,2-5,5.08-.13,2.82,2.81,5.53,5.83,5.35S106.51,53.29,106.42,50Z"/>
        <path class="cls-4" d="M95.67,61.26c.3,3.07-1.51,4.4-3.77,4.37-2.87,0-5.19-1.56-5.32-4.82a4,4,0,0,1,4.16-4.15C93.25,56.76,96.16,57.78,95.67,61.26Z"/>
        <path class="cls-1" d="M113.61,80.17c-2.13.4-3.88-.57-5.63-1.56-.29-.74-.62-1.46-.86-2.21-2.54-8.09-2.54-8.11,5-12A20.24,20.24,0,0,0,119.7,58a8.65,8.65,0,0,1,2.76-2.82,2,2,0,0,1,2.87.46c.9,1.35-.31,1.63-1.27,2.25-3,1.95-5.11,5-7.62,7.54-1.7,1.72-.78,5.13.08,7.66C117.66,76.41,116.76,78.7,113.61,80.17Zm-2.31-12c-2.9-.12-3.76,2.67-1.86,6.44.73,1.46,1.19,3.82,3.49,3s1.54-2.62.81-4.35a13.74,13.74,0,0,1-.86-3.88C112.77,68.39,112.24,68.12,111.3,68.22Z"/>
        <path class="cls-6" d="M80,46.82c-1-1.66-2.18-1.47-3.45.5a41.86,41.86,0,0,0-6.2,17.94c-.71,6.17-.62,12.88,5,17.59,1.08.91,2.76,2.16,3.82,1.49,1.48-1-.06-2.59-.36-3.92q0-4.38-.07-8.77c-.27-4.94,1.86-9.46,2.57-14.23C84.25,53.49,81.92,50.07,80,46.82Zm-5.75,9.92A4.75,4.75,0,0,0,74,59.22a20.2,20.2,0,0,1,2.11.14A20.2,20.2,0,0,0,74,59.22,4.75,4.75,0,0,1,74.27,56.74ZM73.83,77a1.23,1.23,0,0,0,.82.23c.22-.84,0-2,.45-2.67-.45.7-.23,1.83-.45,2.68A1.29,1.29,0,0,1,73.83,77Z"/>
        <path class="cls-6" d="M91.31,14.46c-2-3.42-6-2.69-7.29,1.08a15.32,15.32,0,0,0-1.16,6.16c.19,2.14.81,3.49,3.17,3.81a44.67,44.67,0,0,1,11.25,2.75C95.07,23,93.62,18.5,91.31,14.46Z"/>
        <path class="cls-6" d="M70.54,19.14c0-1.93-2.43-1.23-3.49-.91-4.19,1.28-8.2,3-10.18,8,4-.52,7.7-.76,11.26-1.53C71,24,70.57,21,70.54,19.14Z"/>
        <path class="cls-6" d="M124.59,50.88c-3.19-1.43-4.42,1.41-5.87,3-4.24,4.51-8.76,8.4-14.92,10A2.77,2.77,0,0,0,101.41,67c.47,5.48,1.79,10.62,5.58,14.85,1.25-.8-.8-2.6,1-3.23-.29-.74-.62-1.46-.86-2.21-2.54-8.09-2.54-8.11,5-12A20.24,20.24,0,0,0,119.7,58a8.65,8.65,0,0,1,2.76-2.82,2,2,0,0,1,2.87.46c.9,1.35-.31,1.63-1.27,2.25-3,1.95-5.11,5-7.62,7.54-1.7,1.72-.78,5.13.08,7.66,1.14,3.33.24,5.62-2.91,7.09-2.13.4-3.88-.57-5.63-1.56-1.79.63.26,2.43-1,3.23a6,6,0,0,0,2.34,2.65c2.56,1.6,5.37,2,7.92.4,1.79-1.08,3.25-2.86,2-5.35,2-3.18-.68-6.32-.07-9.49,2.83-2.92,6.52-5.11,7.94-9.25a14.39,14.39,0,0,0,.52-2.71C127.64,55.28,127.86,52.35,124.59,50.88Z"/>
        <path class="cls-6" d="M80.41,20.11c-.18-1.86,1-4.62-2.23-4.9-2.37-.21-5.93,4.85-5.69,7.85s2.63,1.12,4,1.47C80.36,25.55,81,23.35,80.41,20.11Z"/>
        <path class="cls-11" d="M134.6,64.17c1.12-.1,1.77.28,1.71,1.53-.05,1.09-.46,1.71-1.65,1.75S133,67.1,133,65.86,133.35,64.05,134.6,64.17Z"/>
        <path class="cls-8" d="M106.42,50c.09,3.26-1.66,4.93-4.76,5.11s-6-2.53-5.83-5.35c.14-3.07,1.85-4.86,5-5.08A5.15,5.15,0,0,1,106.42,50Zm-5.22,2.25a2.1,2.1,0,0,0,2-2.09c.16-1.51-.7-2.51-1.85-2.52a2.56,2.56,0,0,0-2.53,2.58A2.06,2.06,0,0,0,101.2,52.28Z"/>
        <path class="cls-5" d="M111.3,68.23c.94-.11,1.47.16,1.58,1.25a13.74,13.74,0,0,0,.86,3.88c.73,1.73,1.42,3.59-.81,4.35s-2.76-1.59-3.49-3C107.54,70.89,108.4,68.1,111.3,68.23Z"/>
        <path class="cls-1" d="M101.2,52.28a2.06,2.06,0,0,1-2.42-2,2.56,2.56,0,0,1,2.53-2.58c1.15,0,2,1,1.85,2.52A2.1,2.1,0,0,1,101.2,52.28Z"/>
      </g>
    </g>
  </g>
</svg>
