<svg xmlns="http://www.w3.org/2000/svg" width="136.81" height="101.59" viewBox="0 0 136.81 101.59">
  <defs>
    <style>
      .cls-1 {
        fill: #050105;
      }

      .cls-2 {
        fill: #23182a;
      }

      .cls-3 {
        fill: #010101;
      }

      .cls-4 {
        fill: #fec351;
      }

      .cls-5 {
        fill: #01c375;
      }

      .cls-6 {
        fill: #bcdcae;
      }

      .cls-7 {
        fill: #eee3e8;
      }

      .cls-8 {
        fill: #afddcc;
      }

      .cls-9 {
        fill: #00ba61;
      }

      .cls-10 {
        fill: #01ab7c;
      }

      .cls-11 {
        fill: #411b11;
      }

      .cls-12 {
        fill: #01bda7;
      }

      .cls-13 {
        fill: #5c0001;
      }

      .cls-14 {
        fill: #01ba9c;
      }

      .cls-15 {
        fill: #6f4571;
      }

      .cls-16 {
        fill: #330601;
      }

      .cls-17 {
        fill: #9e89ae;
      }

      .cls-18 {
        fill: #3b0000;
      }

      .cls-19 {
        fill: #01715b;
      }

      .cls-20 {
        fill: #f7df91;
      }

      .cls-21 {
        fill: #01ae8a;
      }

      .cls-22 {
        fill: #7a1c01;
      }

      .cls-23 {
        fill: #00ab91;
      }

      .cls-24 {
        fill: #010404;
      }

      .cls-25 {
        fill: #040a0c;
      }

      .cls-26 {
        fill: #010506;
      }

      .cls-27 {
        fill: #cdd8dc;
      }

      .cls-28 {
        fill: #dbeef7;
      }

      .cls-29 {
        fill: #99d8d7;
      }

      .cls-30 {
        fill: #00a482;
      }
    </style>
  </defs>
  <g id="Layer_2" data-name="Layer 2">
    <g id="Layer_1-2" data-name="Layer 1">
      <g>
        <path class="cls-1" d="M61.12,2.8l1,.18a2.19,2.19,0,0,0,0,.51C61.59,3.58,61.19,3.43,61.12,2.8Z"/>
        <path class="cls-1" d="M49.86.38a1,1,0,0,1-.14.7l-1.36.27-.25-.28A1.67,1.67,0,0,1,49.86.38Z"/>
        <path class="cls-1" d="M50.7,2.52l-2.4.41-.16-.24A2.56,2.56,0,0,0,48.23,2l0,.06,1.68-.09Z"/>
        <path class="cls-2" d="M56,3.49c0-.31.12-.52.42-.41s.3.35.4.56c0,0-.2.29-.21.28C56.44,3.79,56.24,3.64,56,3.49Z"/>
        <path class="cls-1" d="M49.86,1.93,48.18,2c0-.23.11-.45.18-.67l1.36-.27C49.76,1.36,49.81,1.65,49.86,1.93Z"/>
        <path class="cls-1" d="M48.23,2a2.56,2.56,0,0,1-.09.73C47.21,2.33,47.82,2.15,48.23,2Z"/>
        <path class="cls-1" d="M98.15,23.2a39.75,39.75,0,0,1,4.74,25.47,2.82,2.82,0,0,0,0,1,2.34,2.34,0,0,0,.56,1c2.16,2.59,6.08,3,8.08,5.74,1.22,1.66,1.11,4.24,1.28,6.25a61.91,61.91,0,0,1,.22,7.46c.48,3.92,1.77,4.78,6,4.05.81.19,1.33-.37,1.91-.77,1.37-.18,2.14-1.4,3.29-2l2.6-.84,2.26.26a1,1,0,0,0,.91.62c1.31,1.16-.15,2.16-.19,3.24-.48.54-1.32.9-.95,1.92a2.76,2.76,0,0,0,1.86-.42,16,16,0,0,1,2.77,0c2.34.4,3.86,1.54,3.18,4.25l-1.2-1a.94.94,0,0,0-.76-.88c-1.86-.86-3.47-.13-5,.81a21.89,21.89,0,0,1-10.92-.85c-2.66-1.57-5.81-2.3-8-4.73-.29-1.08-.2-2.29-1-3.2.39-2.38,1.16-4.72.64-7.18.17-2.48.09-5.1-2-6.61-2.79-2-5.52-4.25-9.1-4.81A4.89,4.89,0,0,0,96,50.68l-2.5-1c-.77-1.12-2.71-1.36-2.43-3.26a5.1,5.1,0,0,1,3.25.18,12,12,0,0,0,5.77,2.2c1.32-3.78,1.07-7.54.36-11.33L100,35.15a8.19,8.19,0,0,0-1.58-5.66c-.82-2.21-1.59-4.46-3.79-6-.91,2.24-1.9,4.36-4.33,5.22-3.54-.14-6.23-2.07-8.82-4.19a1,1,0,0,0-.27-.64c.08-.49-.2-.7-.61-.82l-.71-.93-.12-2.3,1.63-2.43a1,1,0,0,0,.82-.79c1-1.33,2.53-1.53,4.06-1.67.39,0,.8,0,1-.34-.21-.49-.64-.37-1-.4-2-.56-3.54-2.2-5.69-2.38a23.71,23.71,0,0,0-8.06.1c-1.09,1.43-.79,3.58-2.45,4.72l-1.59-.1,0,0L68.29,15a5.51,5.51,0,0,0,.16-3.36c.14-2.78-1.73-3.89-3.93-4.72-2.57-.83-5-1.06-6.85,1.49a.5.5,0,0,0-.54.22l-1,.69-.65.83c0,.22,0,.45,0,.67l-.79.24L53.05,11c-.8-1.7-2.15-2.1-3.88-1.67-1.39.34-2.79.63-4.18,1-.85-.18-1.25.53-1.83.89L41,11l-.84-.72c.39-.2.8-.39.85-.91h-.09c.72,0,1.42,0,1.66-.86v0c2.28.08,1.64-2.68,3.2-3.3.06.63-.23,1.47.86,1.51,1.89.33,2.35-2.07,3.82-2.09,1.44-.17,1.9,1.7,3.52,1.09C53.88,3.62,52.36,3,50.7,2.52l-.84-.59c-.26-.19-.19-1.23,0-1.43s1.86-.08,2.3-.12c1.68-.16,3.4-.68,5.07-.14s2.84,2,4.36,2.91,3.33,1.11,4.9,1.9a34.68,34.68,0,0,1,3.66,2.49C72.32,9,74.6,8.51,77,8.65a25,25,0,0,1,7.8,2.24,11.47,11.47,0,0,1,2.41,1.31c.6.47,1.12,1,1.69,1.54,1.53,1.36,3.42,2.27,4.94,3.64a16.46,16.46,0,0,1,2.55,3C97,21.31,97.6,22.25,98.15,23.2Zm24.53,51.54-1.57,1.13c.52.54,1,.35,1.46.2a2.37,2.37,0,0,0,2.79-1.45l2-1.14c.71-.39,1-.81.11-1.33-.24-.34-.49-.38-.75,0-1.83.19-3,1.44-4.17,2.64ZM85.34,23.35c1.12,2.15,2.88,2.44,5.3,1.79.2-3.12-.41-5.61-3.47-7a1.44,1.44,0,0,0-2.06-.6C82.4,18.74,82.49,20.64,85.34,23.35ZM56,3.49c.2.15.4.3.61.43,0,0,.24-.23.21-.28-.1-.21-.22-.5-.4-.56S56,3.18,56,3.49Z"/>
        <path class="cls-3" d="M109.7,54.58a20.43,20.43,0,0,1-5.6-3.26l3,.58C108.45,52.35,109.8,52.78,109.7,54.58Z"/>
        <path class="cls-3" d="M110.68,55.6c-.46-.24-1-.44-1-1.06A1.13,1.13,0,0,1,110.68,55.6Z"/>
        <path class="cls-4" d="M112.17,56.16l.12-.15c.1-.08,0,0-.14.13Z"/>
        <path class="cls-3" d="M99.89,98.65c-2.09,3.31-2.75,3.52-6.81,2.11-1.7-.59-2.84-2.92-4.07-4.12-1.58-1.53-3.36-2.83-5.05-4.25-2.75-2.31-5.4-5.21-5.76-8.79a20.85,20.85,0,0,1,0-2.85,30.94,30.94,0,0,0-.74-7.62,9,9,0,0,0-1.27-3.27c-1.28-1.81-3.46-2.71-5-4.3C68.76,63,67.43,59.18,64,57.88c-1.59-.6-3.38-1.14-4.3-2.57.17-.78,1.3-.89,2-.51a13,13,0,0,0,2,1.3,12.77,12.77,0,0,0,2,.18c.74.11,1.42.5,2.16.66a1.74,1.74,0,0,0,2-.71c.37-.8-.29-1.67-.52-2.52-.48-1.79,1-3.77.23-5.47A4,4,0,0,0,67,46.32a10.42,10.42,0,0,1-3-1.23c-.57-.42-1.06-1-1.75-1.15a2.93,2.93,0,0,0-2.24,1l-3.53,3A2.72,2.72,0,0,0,55.58,49c-.22.59,0,1.81-.66,2.14-.45.22-1.73-.48-2.26-.53a28.19,28.19,0,0,0-3.56,0,40.94,40.94,0,0,1-7.09,0,25.26,25.26,0,0,1-6.19-1.86c-.35-.15-5.45-2.13-5.45-1.15a53.92,53.92,0,0,1-.64,5.57,6.37,6.37,0,0,1-.16,1.15c-.15.47-1.81,2.73-2.38,2.71a8.35,8.35,0,0,1-3.33-.33l-1.4-2.9c-.19-.67.1-1.6-1.26-1.88A7.29,7.29,0,0,0,18.93,55l-3.85,2.69-.24-.09-.21.14c-2.69.41-4-.71-3.7-3.45.08-.61.43-1.24-.21-2L8.14,53.69c-1.73-.45-2.94-.8-2.91-2.86.06-3.6,2.67-4.85,4.14-7.65l0,0a.8.8,0,0,0,.87-.81c.08-1.6-.38-1.37-1.9-1.56-2-.24-3.75-.39-5.34-1.9.75-3.62,5-5.48,8.65-5.5s7.34,1.18,11,1q-1.78-2.17-3.73-4.23c-1.19-1.25-2.62-2.54-4.34-2.5a9.45,9.45,0,0,0-3.24,1.11,10.28,10.28,0,0,1-10-1.32C-.08,26.48.59,24,2.08,23.06s3.38-1,5.14-1.17a19.52,19.52,0,0,0,5.3-1.42,3,3,0,0,0,1.64-1.28c.72-1.49-1.07-3-2.7-3.26a21.13,21.13,0,0,0-5.25.35,6.74,6.74,0,0,1-5-1C-.17,14.12-.5,11.7.93,10.68a18.4,18.4,0,0,1,1.8-.83,1.42,1.42,0,0,0,.82-1.62,2.06,2.06,0,0,0-.68-.73c-1.47-1.25-2-3.94-.36-5A4.29,4.29,0,0,1,4.35,2C5.61,1.87,7,1.76,8,2.55A4.09,4.09,0,0,0,9,3.29c1.2.52,2.15-1,3.15-1.88,1.45-1.21,3.73-.9,5.26.2,3.68,2.63,5.51,8.16,4.8,12.48-.28,1.66-.85,3.42-.18,5a5.2,5.2,0,0,0,2.89,2.49c1.2.51,2.49.8,3.65,1.39.94.47,1.79,1.12,2.77,1.51a3.16,3.16,0,0,0,3-.15c1.21-.9,1.14-2.7.94-4.2-.07-.53-.26-1.2-.79-1.27-.37-.83.18-3,.31-3.84,1.47.16,3,3.32,4.13,4.37a17.81,17.81,0,0,0,5.82,3.7,15.87,15.87,0,0,0,12-.17,5.19,5.19,0,0,1,2-.63,1.43,1.43,0,0,1,1.51,1.18,2.06,2.06,0,0,1-.9,1.49L56,27.88a27.38,27.38,0,0,1-6.39,4.72,9.2,9.2,0,0,1-7.7.4c-2.41-1.12-4-4-3.2-6.54.16-.47.4-1,.16-1.43a1,1,0,0,0-1.44-.17,2.23,2.23,0,0,0-.73,1.42c-.81,4.08,2.38,8.25,6.37,9.42s8.39-.19,11.77-2.62c1.63-1.17,3.59-2.68,5.43-1.86.09,1.42-1.12,2.56-2.3,3.35a21.8,21.8,0,0,1-6.61,3,43.72,43.72,0,0,1-9.9,1.08l-11,.35a55.26,55.26,0,0,1-7.28-.1,4.8,4.8,0,0,0-1.69,0,4.71,4.71,0,0,0-1.11.53C17.74,41,14.76,42,12.15,43.69S7.25,48,7.08,51.11c1,.31,1.95-.62,2.65-1.42a25.13,25.13,0,0,1,6.78-5.4A2,2,0,0,1,18.16,44c1.1.45.62,2.1,0,3.09L14.27,53c-.57.87-1.15,2-.59,2.89A12.69,12.69,0,0,0,19,50.11a10.12,10.12,0,0,1,1.47-2.8,2.31,2.31,0,0,1,2.83-.64,3.11,3.11,0,0,1,1,1.62A37.83,37.83,0,0,1,26,54.38a9.27,9.27,0,0,0,.85-7.8,3.07,3.07,0,0,1-.28-2c.47-1.19,2.2-1,3.42-.61L40.39,47.4a21,21,0,0,0,6.94,1.46c4.37-.07,8.23-2.82,11.41-5.81,1.77-1.67,3.94-3.61,6.3-3A3.33,3.33,0,0,0,66.3,43a9.82,9.82,0,0,0,2.92,1.53,1.74,1.74,0,0,0,1,.18,1.85,1.85,0,0,0,.93-.71,27,27,0,0,1,7.36-6.24c3.19-1.74,4.1,2.27,2,3a14.25,14.25,0,0,0-7.25,5.6c-1.42,3.76-2.11,7.48.75,10.94a17.13,17.13,0,0,0,12.86,7.16c3.53,1.34,7.17.45,10.75.51,2.07.42,4.59.68,5.42,2.7,1.1,2.7,3.25,4.7,4.2,7.42l.29,1.35a3.67,3.67,0,0,0,1.36,2.47c2.32,2.92,4.92,5.41,8.91,5.74a9.62,9.62,0,0,0,5.71,1.59l5.67,3.25c.28.39.59.74,1.11.41,0,0-.1-.38-.16-.58-1-3.63-1.57-4-5.58-4.09l-5.91-1.36c-1.39-1.2-4.4-.68-4.13-3.63.79-.88,1.61-.42,2.35-.48a24,24,0,0,0,9.81,2.9c2.79.3,6.21.51,8-2.81l.82-.25,1.2,1c-.13,1.36-1.13,2.12-2,2.94-2.63.5-2.94,1.88-1.48,3.92-.49,2.58-1.62,4.6-4.45,4s-5.21-2.19-7.79-3.28a5.65,5.65,0,0,0-1.26-.42,15.1,15.1,0,0,0-1.65-.15,13.46,13.46,0,0,1-4.3-1.47l-3.84-1.84c-.52-.57-1.1-1-1.63-1.56a10.56,10.56,0,0,1-2.49-3.7,2.12,2.12,0,0,0-.72-1.11,29.2,29.2,0,0,0-2.92-6.29A5.24,5.24,0,0,0,97.9,68c-1.71-.37-3.39-.9-5.14-.49-1.05-.23-1.67.13-1.74,1.26a2.36,2.36,0,0,0-.61,2c-.85,2.27-3.49,3.86-2.61,6.8a2.7,2.7,0,0,0,.35,2c2.3,3.8,2.34,3.82,6.32,2.6.65-.1,1.38-.06,1.53-1l0,0c2.92-.37,6-1.54,8.05,1.92v1.19L102.85,86c-.92.21-1.93.33-1.77,1.68,1.08,1,2.59,1.1,3.84,1.73a.89.89,0,0,0,.74.73,1.57,1.57,0,0,0,.7,1.23,6.15,6.15,0,0,1-1.75,3.54l-.69.66C102.19,96.1,99.13,94.88,99.89,98.65ZM25.53,31.93h0a.88.88,0,0,0,.83.8h0a.72.72,0,0,0,.83.59.86.86,0,0,0,.64.28,1.11,1.11,0,0,0,1,.69l0,0a1,1,0,0,0,.78.79c1.72,1.56,3.54.95,5.24.6.36-1.1-.22-1.57-.48-2.16-1-1.4-.28-3.42-1.58-4.74a13.59,13.59,0,0,0-4-2.47.51.51,0,0,0-.55-.19,4.47,4.47,0,0,0-3.32-1.7l0,.06a.88.88,0,0,0-1-.58.5.5,0,0,0-.52-.2,1,1,0,0,0-1.07-.55,4.08,4.08,0,0,1-2.57-1.75,1.44,1.44,0,0,0-.7-1.62h0a20.35,20.35,0,0,1,.43-5.16c.73-3.14.43-6.09-1.85-8.6a1.14,1.14,0,0,0-.3-.74A5,5,0,0,0,13.9,2.84c-.75,1.26-.1,2.12.56,3A30.05,30.05,0,0,1,15.9,10.4c.82,3.6,2.06,7.34-.22,10.92a1.5,1.5,0,0,0-1.41,1.08L4.49,25.32C8,27.74,9.37,27.63,14.3,24.9l3.07-.23c1.37,1.88,3.75,2.74,4.92,4.82a3.2,3.2,0,0,0,2.32,1.71A1.14,1.14,0,0,0,25.53,31.93ZM97.81,82.79l-.33.78-.07-.06-1.36.2a.83.83,0,0,0-.87.7c-.44.36-.85.83-.24,1.25a1.31,1.31,0,0,0,1.79-.33l1.69-.23c1.08-.45,2.9-.29,2-2.39C99.5,81.87,98.64,81.57,97.81,82.79ZM2.2,12.33c-.33.73.15,1.05.69,1.33.69.72,1.2.25,1.72-.25a8.84,8.84,0,0,0,5-.73c-1.65-1.35-3.46-1-5.24-.89C3.63,11.79,2.77,11.47,2.2,12.33ZM4.53,5.24a1.65,1.65,0,0,0,1.52.83L7.5,7A6,6,0,0,0,12,9.59c-.65-2.19-2.23-2.65-3.5-3.44L7,5.13A2.87,2.87,0,0,0,4.65,3.64c-.47,0-1-.08-1,.62S4.06,5.06,4.53,5.24ZM92,95.79a12.57,12.57,0,0,0,4.39,4c.95-2.33.11-3.49-1.89-4.09C93.62,95.12,92.74,93.92,92,95.79ZM87.09,67.44c-1.22-1.09-2.69-.52-4.06-.62l-1.5-.24a68.14,68.14,0,0,1-10.76-7.06c.51,3.21,2.24,4.1,3.7,5.17,2,1.48,4.14,2.85,5.31,5.19v0c-.17,2.22.59,4.33.87,6.5l.06,3.22c.06,4.9,1.48,9.06,6.21,11.44a7.24,7.24,0,0,0,3.86,3.07c-.8-1.57-1.12-2.88-2.62-3.25l-.5-.7-.57-.93c-.06-.75-.37-1.56.45-2.13,2.15-.05,2.91,2,4.39,2.93a19.27,19.27,0,0,0,8,3.48c2.11,1.07,3,.11,3.38-1.77-1-1.3-2.18-1-3.32-.86-2.53.12-4.54-2-7.12-1.69-2.17-2.13-3.76-4.81-6.38-6.48L86,81.19l-.51-.84c-.36-1.55-1.1-3-.79-4.7.91-1.71,1.84-3.41,2.72-5.14.54-1.07,1-2.17-.31-3.07ZM7.57,36.69c-.82.11-2-.24-2.12,1-.09.88.82.73,1.42.79,4-.27,8.1.39,12-1.23C15.16,35.74,11.42,35.24,7.57,36.69ZM43.29,25.63c-3.11-.3-1.22,1.91-1.53,3,.34,2.27,2.26,2.13,3.7,2.05,2.95-.16,5.41-1.54,7.8-4.18C49.53,26.48,46.34,26.61,43.29,25.63ZM3.35,24.39C3.22,24.24,3.11,24,3,24s-.41.14-.62.22c.12.15.23.42.36.43A1.78,1.78,0,0,0,3.35,24.39Z"/>
        <path class="cls-1" d="M45.78,5.23c-1.56.62-.92,3.38-3.2,3.3V7.66l0,0C43.74,6.6,44,5,44.93,3.7s1.5-2.49,3.18-2.63l.25.28c-.07.22-.13.44-.18.67l0-.06c-.41.19-1,.37-.09.73l.16.24L46.62,4.71l-.48-.57-.37,1.11Z"/>
        <path class="cls-5" d="M42.57,7.66l-.16-.14.14.17Z"/>
        <path class="cls-6" d="M87.17,18.16c3.06,1.37,3.67,3.86,3.47,7-2.42.65-4.18.36-5.3-1.79C85.48,21.45,85.29,19.45,87.17,18.16Z"/>
        <path class="cls-7" d="M46.62,4.71,48.3,2.93l2.4-.41C52.36,3,53.88,3.62,54,5.74c-1.62.61-2.08-1.26-3.52-1.09-1.47,0-1.93,2.42-3.82,2.09,0-.55-.09-1.1-.13-1.65A.27.27,0,0,0,46.62,4.71Z"/>
        <path class="cls-1" d="M36.84,15.33l-.1,1.36c.1-1.44-3.47-1.48-1.37-3a6,6,0,0,0,1.19-.86,6.06,6.06,0,0,1,.72-.93c.34-.25.8-.27,1.15-.49s.55-.63.86-.91,1.85-.35,1.72.44a2.77,2.77,0,0,0,0,.76c-.29.43-.1,1.16-.84,1.29-.87-.58-1.42-.39-1.63.65,0,.19-.05.28-.23.29C37.58,14.17,36.74,14.25,36.84,15.33Z"/>
        <path class="cls-8" d="M87.17,18.16c-1.88,1.29-1.69,3.29-1.83,5.19-2.85-2.71-2.94-4.61-.23-5.79A1.44,1.44,0,0,1,87.17,18.16Z"/>
        <path class="cls-9" d="M127.51,72.15c.88.52.6.94-.11,1.33l-2,1.14-2.77.15c1.19-1.2,2.34-2.45,4.17-2.64l.37.06Z"/>
        <path d="M103.39,39.17c1,3,1.36,5.94-.18,8.86Z"/>
        <path class="cls-5" d="M78.88,23.91a2.2,2.2,0,0,1,1-1.82l.71.93.61.82a1,1,0,0,1,.27.64l-.07,1.79h0a3.14,3.14,0,0,1-.67-.17,3.87,3.87,0,0,0-.12-.68,1.19,1.19,0,0,0-1-.69A.88.88,0,0,1,78.88,23.91Z"/>
        <path class="cls-5" d="M67.69,11.66c.26,0,.51,0,.76-.05A5.51,5.51,0,0,1,68.29,15c-.69.62-.59,1.14.22,1.56l0,0c-1.31,1.26-1.51.18-1.74-.83C66.92,14.3,67.86,13.11,67.69,11.66Z"/>
        <path class="cls-5" d="M122.59,74.77l2.77-.15a2.37,2.37,0,0,1-2.79,1.45l.11-1.33Z"/>
        <path class="cls-5" d="M110.77,73.87c-1.5-.69-1-2.05-1-3.2C110.57,71.58,110.48,72.79,110.77,73.87Z"/>
        <path class="cls-5" d="M99.22,35.18a1.16,1.16,0,0,1,.78,0l.45,2.35a1.2,1.2,0,0,1-1.33-.71Z"/>
        <path class="cls-9" d="M122.68,74.74l-.11,1.33c-.47.15-.94.34-1.46-.2Z"/>
        <path class="cls-9" d="M133.21,79.48a2.16,2.16,0,0,1,1.48-.84.94.94,0,0,1,.76.88l-.82.25Z"/>
        <path class="cls-5" d="M41,11.72A2.77,2.77,0,0,1,41,11l2.15.17C42.58,11.85,41.74,11.63,41,11.72Z"/>
        <path class="cls-10" d="M68.51,16.53c-.81-.42-.91-.94-.22-1.56Z"/>
        <path class="cls-11" d="M86.28,14.9c0-.25,0-.5,0-.74.39,0,.82-.09,1,.4C87.08,14.94,86.67,14.9,86.28,14.9Z"/>
        <path class="cls-1" d="M46.51,5.09c0,.55.09,1.1.13,1.65-1.09,0-.8-.88-.86-1.51v0A3.76,3.76,0,0,0,46.51,5.09Z"/>
        <path class="cls-5" d="M54.67,11c-.57.7-1.11.68-1.62-.07Z"/>
        <path class="cls-5" d="M57.67,8.38l1.12.21a1,1,0,0,1-.89.7l-.77-.69A.5.5,0,0,1,57.67,8.38Z"/>
        <path class="cls-5" d="M56.16,9.29a.73.73,0,0,1-.65.83Z"/>
        <path class="cls-12" d="M81.4,17.36l.83-.8A1,1,0,0,1,81.4,17.36Z"/>
        <path class="cls-13" d="M129.07,70.88a.83.83,0,0,1,.91.62A1,1,0,0,1,129.07,70.88Z"/>
        <path class="cls-13" d="M127.51,72.15l-.38,0-.37-.06C127,71.77,127.27,71.81,127.51,72.15Z"/>
        <path class="cls-14" d="M81.21,23.84,80.6,23C81,23.14,81.29,23.35,81.21,23.84Z"/>
        <path class="cls-5" d="M91.93,90.05c-1.48-.94-2.24-3-4.39-2.93-.82.57-.51,1.38-.45,2.13a.9.9,0,0,0,.57.93l.5.7-1.24.18c-4.73-2.38-6.15-6.54-6.21-11.44,1.42.49,3.27.17,3.74,2.38.15.72,1.25.79,2.06.73,2.62,1.67,4.21,4.35,6.38,6.48Z"/>
        <path class="cls-15" d="M43.29,25.63c3.05,1,6.24.85,10,.88-2.39,2.64-4.85,4-7.8,4.18-1.44.08-3.36.22-3.7-2.05C44,28.49,43.09,26.8,43.29,25.63Z"/>
        <path class="cls-5" d="M86.51,82.73c-.81.06-1.91,0-2.06-.73-.47-2.21-2.32-1.89-3.74-2.38l-.06-3.22c1.69,0,2.6-.63,2.34-2.44.31-.56.57-1.17,1.53-.93l.16,2.62c-.31,1.66.43,3.15.79,4.7l.51.84Z"/>
        <path class="cls-5" d="M7.57,36.69c3.85-1.45,7.59-.95,11.31.57-3.91,1.62-8,1-12,1.23Z"/>
        <path class="cls-5" d="M79.78,69.88c-1.17-2.34-3.28-3.71-5.31-5.19-1.46-1.07-3.19-2-3.7-5.17a68.14,68.14,0,0,0,10.76,7.06l-.85.19c-.77.27-.86.88-.81,1.57Z"/>
        <path class="cls-5" d="M84.68,75.65,84.52,73c-1-.24-1.22.37-1.53.93a4.15,4.15,0,0,1-2.45-4,3,3,0,0,1,2.93-.13c2,.91,3.6.22,3.62-2.37,1.33.9.85,2,.31,3.07C86.52,72.24,85.59,73.94,84.68,75.65Z"/>
        <path class="cls-5" d="M91.93,90.05l1-.84C95.47,88.9,97.48,91,100,90.9L100,93.53A19.27,19.27,0,0,1,91.93,90.05Z"/>
        <path class="cls-5" d="M87.09,67.44c0,2.59-1.57,3.28-3.62,2.37a3,3,0,0,0-2.93.13l-.76,0v0l.09-1.54c1.24,0,1.19-.71.81-1.57l.85-.19,1.5.24c1.21,1.1,2.68.54,4.06.62Z"/>
        <path class="cls-5" d="M74.09,40.79a1,1,0,0,1-.21-1.7,11.27,11.27,0,0,1,4.9-3.49l.16,1.77-3.88,2.68-1,.73Z"/>
        <path class="cls-5" d="M94.48,95.69c2,.6,2.84,1.76,1.89,4.09a12.57,12.57,0,0,1-4.39-4Z"/>
        <path class="cls-5" d="M79.78,69.9l.76,0A4.15,4.15,0,0,0,83,74c.26,1.81-.65,2.49-2.34,2.44C80.37,74.23,79.61,72.12,79.78,69.9Z"/>
        <path class="cls-5" d="M100,93.53,100,90.9c1.14-.14,2.3-.44,3.32.86C102.94,93.64,102.06,94.6,100,93.53Z"/>
        <path class="cls-5" d="M65.3,56.08c.55-1,2.39-.63,2.39-2.22a1.63,1.63,0,0,1,.76,0l.93.48a2,2,0,0,1,.35,2.25C68.16,57.47,66.75,56.55,65.3,56.08Z"/>
        <path class="cls-16" d="M59.58,55.28c-1.68-1.24-3.74-2-4.77-4.05.61-.36.59-1,.69-1.58a2.83,2.83,0,0,0,.71.17l-.05-.06a1,1,0,0,0,.2.73.81.81,0,0,0,.79.83l0-.06a.89.89,0,0,0,.85.87l-.05-.05a.9.9,0,0,0,.85.87L59,53l1.71,1.53Z"/>
        <path class="cls-5" d="M4.4,11.79c1.78-.15,3.59-.46,5.24.89a8.84,8.84,0,0,1-5,.73Z"/>
        <path class="cls-5" d="M8.52,6.15c1.27.79,2.85,1.25,3.5,3.44A6,6,0,0,1,7.5,7Z"/>
        <path class="cls-5" d="M59.58,33.57c-.5,3.3-.63,3.38-3.47,2.24C56.78,34.32,58.39,34.26,59.58,33.57Z"/>
        <path class="cls-5" d="M86.92,91.06l1.24-.18c1.5.37,1.82,1.68,2.62,3.25A7.24,7.24,0,0,1,86.92,91.06Z"/>
        <path class="cls-17" d="M43.29,25.63c-.2,1.17.67,2.86-1.53,3C42.07,27.54,40.18,25.33,43.29,25.63Z"/>
        <path class="cls-5" d="M96.05,83.71l1.36-.2.14.86-.82,1a1.31,1.31,0,0,1-1.79.33c-.61-.42-.2-.89.24-1.25Z"/>
        <path class="cls-5" d="M97.55,84.37l-.14-.86.07.06L98.4,83l2-.25c.94,2.1-.88,1.94-2,2.39Z"/>
        <path class="cls-5" d="M66,38.38a2.41,2.41,0,0,1,1.1,1.89c-.79.73-1.36-.25-2-.26l-2.3,0C63.48,38.68,65.31,39.64,66,38.38Z"/>
        <path class="cls-5" d="M107.45,76.36c1.79.08,3.12.43,1.36,2.47A3.67,3.67,0,0,1,107.45,76.36Z"/>
        <path class="cls-5" d="M6.05,6.07a1.65,1.65,0,0,1-1.52-.83l.12-1.6A2.87,2.87,0,0,1,7,5.13Z"/>
        <path class="cls-5" d="M4.4,11.79l.21,1.62c-.52.5-1,1-1.72.25L2.2,12.33C2.77,11.47,3.63,11.79,4.4,11.79Z"/>
        <path class="cls-5" d="M6.05,6.07,7,5.13l1.54,1L7.5,7Z"/>
        <path class="cls-5" d="M7.57,36.69l-.7,1.8c-.6-.06-1.51.09-1.42-.79C5.58,36.45,6.75,36.8,7.57,36.69Z"/>
        <path class="cls-5" d="M15.07,5.69c.63-.84,1.5-.34,2.27-.4a1.14,1.14,0,0,1,.3.74C16.6,7.34,15.84,6.46,15.07,5.69Z"/>
        <path class="cls-5" d="M87.09,67.44c-1.38-.08-2.85.48-4.06-.62C84.4,66.92,85.87,66.35,87.09,67.44Z"/>
        <path class="cls-5" d="M68.45,44c.88-1.14,1.7-1,2.48.1C70.05,45.37,69.25,44.57,68.45,44Z"/>
        <path class="cls-5" d="M10,45.82l-.32-.12C9.91,44.4,11.21,44.53,12,44,11.74,45.05,10.81,45.38,10,45.82Z"/>
        <path class="cls-5" d="M100.38,82.71l-2,.25a1.22,1.22,0,0,0-.59-.17C98.64,81.57,99.5,81.87,100.38,82.71Z"/>
        <path class="cls-5" d="M94.48,95.69l-2.5.1C92.74,93.92,93.62,95.12,94.48,95.69Z"/>
        <path class="cls-5" d="M19.77,21.42a1.66,1.66,0,0,1-.7-1.62A1.44,1.44,0,0,1,19.77,21.42Z"/>
        <path class="cls-5" d="M4.65,3.64l-.12,1.6c-.47-.18-.9-.41-.89-1S4.18,3.63,4.65,3.64Z"/>
        <path class="cls-5" d="M37.75,24.83a1.57,1.57,0,0,1-.85,1.47C36.88,25.64,37,25,37.75,24.83Z"/>
        <path class="cls-5" d="M38.65,26.5c0-.62-.1-1.24-.16-1.87C39.82,25.15,39.32,25.82,38.65,26.5Z"/>
        <path class="cls-5" d="M97.55,84.37l.87.73-1.69.23Z"/>
        <path class="cls-5" d="M3.35,24.39a1.78,1.78,0,0,1-.64.23c-.13,0-.24-.28-.36-.43.21-.08.42-.24.62-.22S3.22,24.24,3.35,24.39Z"/>
        <path class="cls-18" d="M129.1,89.41l1-.17c.06.2.21.55.16.58C129.69,90.15,129.38,89.8,129.1,89.41Z"/>
        <path class="cls-5" d="M56.21,49.82a2.83,2.83,0,0,1-.71-.17c0-.63-.06-1.35.81-1.54C56.28,48.68,56.24,49.25,56.21,49.82Z"/>
        <path class="cls-5" d="M25.61,53l.76.83c0,.34-.19.6-.44.49C25.32,54,25.48,53.48,25.61,53Z"/>
        <g>
          <path class="cls-5" d="M56.21,49.82v0l-.05,0Z"/>
          <path class="cls-5" d="M57.15,51.32v-.06h0Z"/>
          <path class="cls-5" d="M68.46,47.2l0,0,0,0Z"/>
          <path class="cls-5" d="M69.29,48.06h0l-.81-.83-.9-.61a.69.69,0,0,0-.66-.13L63.5,44.83c-1.08-1.38-2.22-1.08-3.35-.08-1,.87-1.94,1.76-2.9,2.63a1.08,1.08,0,0,1-.9.7l0,0c0,.56-.07,1.12-.1,1.69l.84.76a1.53,1.53,0,0,1,.1.7,3,3,0,0,1,.73.07l1,.65.81-.79,1.42,1.09c-.52.71-1.36.48-2,.69l1.71,1.53a2.11,2.11,0,0,1,1.65.75,2.49,2.49,0,0,0,2.41.93l.27,0,.23-.12c.55-1,2.39-.63,2.39-2.22a1.63,1.63,0,0,1,.76,0,2.23,2.23,0,0,1,.77-.09c.08-1.16.17-2.31.25-3.47A1.61,1.61,0,0,0,69.29,48.06Zm-10.51.86c.22.53.43,1.07.65,1.61C58.41,50.31,57.54,50,58.78,48.92Zm0,0a1.35,1.35,0,0,1,.89-1.57C59.46,47.91,59.43,48.58,58.78,48.91Z"/>
        </g>
        <path class="cls-5" d="M13.4,55.22l1.17.16c-.21.34-.48.65-.91.48C13.51,55.8,13.48,55.44,13.4,55.22Z"/>
        <path class="cls-5" d="M69.38,54.34l-.93-.48a2.23,2.23,0,0,1,.77-.09A.38.38,0,0,1,69.38,54.34Z"/>
        <path class="cls-19" d="M87.66,90.18a.9.9,0,0,1-.57-.93Z"/>
        <path class="cls-5" d="M69.29,48.05l-.83-.85C69,47.28,69.38,47.41,69.29,48.05Z"/>
        <path class="cls-5" d="M57.25,47.38a1.08,1.08,0,0,1-.9.7A.88.88,0,0,1,57.25,47.38Z"/>
        <path class="cls-20" d="M68.51,47.24l-.93-.63C68.11,46.49,68.38,46.76,68.51,47.24Z"/>
        <path class="cls-5" d="M13.17,19.06l-.24.93-.3-.15Z"/>
        <path class="cls-21" d="M74.11,40.78l1-.73A1.06,1.06,0,0,1,74.11,40.78Z"/>
        <path class="cls-5" d="M28.83,34.31l.78.79A1,1,0,0,1,28.83,34.31Z"/>
        <path class="cls-5" d="M27.82,33.6a1.09,1.09,0,0,1,1,.69A1.11,1.11,0,0,1,27.82,33.6Z"/>
        <path class="cls-5" d="M26.35,32.73l.83.59A.72.72,0,0,1,26.35,32.73Z"/>
        <path class="cls-5" d="M25.52,31.93a1.11,1.11,0,0,1,.83.8A.88.88,0,0,1,25.52,31.93Z"/>
        <path class="cls-5" d="M2.2,12.33l.69,1.33C2.35,13.38,1.87,13.06,2.2,12.33Z"/>
        <path class="cls-5" d="M25.56,31.1l0,.83a1.14,1.14,0,0,1-.92-.73Z"/>
        <path class="cls-22" d="M96.05,83.71l-.87.7A.83.83,0,0,1,96.05,83.71Z"/>
        <path class="cls-5" d="M23.41,23.72l-1.07-.55A1,1,0,0,1,23.41,23.72Z"/>
        <path class="cls-5" d="M97.81,82.79a1.22,1.22,0,0,1,.59.17l-.92.61Z"/>
        <path class="cls-23" d="M86,81.19l-.51-.84Z"/>
        <path class="cls-5" d="M24.92,24.5a1.05,1.05,0,0,1-1-.58A.88.88,0,0,1,24.92,24.5Z"/>
        <path class="cls-1" d="M46.51,5.09a3.76,3.76,0,0,1-.74.16l.37-1.11.48.57A.27.27,0,0,1,46.51,5.09Z"/>
        <path class="cls-5" d="M104.05,63.43l-.84,0-.77-1.57C103.27,62.06,105.12,61.29,104.05,63.43Z"/>
        <path class="cls-5" d="M94.35,52.92c1.15,0,2.32,0,2.42,1.61C95.93,54,94.92,53.81,94.35,52.92Z"/>
        <path class="cls-5" d="M87.07,61.85c-.59-.12-1.3-.09-1.25-1a.36.36,0,0,1,.25-.26c.91-.07.89.65,1,1.23Z"/>
        <path class="cls-24" d="M99.22,35.18l-.1,1.61c-1.45,1.46-2.79,3.45-5.25,2.32-2.71-1.24-2.86-3.85-2.93-6.4,1.72-3.59,1.72-3.59,6.61-2.9A10.77,10.77,0,0,1,99.22,35.18Zm-4.92-3.5C94,34.8,94,34.79,95.69,36.43,97.31,34.48,96.64,33.12,94.3,31.68Z"/>
        <path class="cls-25" d="M57.9,9.29a1,1,0,0,0,.89-.7c1.84-.48,3.64-1.21,5.59-.7l3.31,3.77c.17,1.45-.77,2.64-.94,4l-2.36,2.47-2,.09c-2.19.16-4.61.32-5.69-2A5.74,5.74,0,0,1,57.9,9.29Zm6.45,3.15c-2.57-3-2.86-3-5.11,0,1.77-1.07,3.09-.89,4.27.16.33,1.94-1.69,2-2.95,3.24C63.45,15.9,65.07,15.38,64.35,12.44Z"/>
        <path class="cls-5" d="M36.84,15.33c-.1-1.08.74-1.16,1.45-1.38C38.18,14.8,37.54,15.09,36.84,15.33Z"/>
        <path class="cls-5" d="M38.52,13.66c.21-1,.76-1.23,1.63-.65Z"/>
        <path class="cls-24" d="M68.57,23.89l.91-.77c3.28-1.43,6.48-1.95,9.4.79a.88.88,0,0,0,.72.82,1.81,1.81,0,0,0,.33.7,2.46,2.46,0,0,0,.51,1.77c-.68,2.95-2.45,4.4-5.55,4.05L73.57,31a1.18,1.18,0,0,0-1.1-.63l0,0a1.68,1.68,0,0,0-1.55-.85c-1.31-1.05-1.66-2.72-2.55-4Zm8.58,4.68c-1.34-4.21-1.55-4.33-5.49-3.42C72.45,27.71,74.33,28.4,77.15,28.57Z"/>
        <path class="cls-26" d="M80,15.74a11.72,11.72,0,0,1-1.16,4c-1.58.05-3.2.48-4.59-.8-1-.93-2.09-1.78-1.73-3.35a2.93,2.93,0,0,1,3.24-2.39l1.6,0a.92.92,0,0,0,.65.22,1.15,1.15,0,0,0,1,.68l0,0,.77.8Zm-3.91,1.37c.11-.08.31-.19.3-.23a4.33,4.33,0,0,0-.3-.66c-.1.08-.24.15-.28.26A.42.42,0,0,0,76.06,17.11Z"/>
        <path class="cls-12" d="M79,14.09a1.15,1.15,0,0,1-1-.68Z"/>
        <path class="cls-12" d="M79.77,14.91l-.77-.8Z"/>
        <path class="cls-21" d="M80.44,27.2a2.46,2.46,0,0,1-.51-1.77h.68a3.87,3.87,0,0,1,.12.68l0,.82Z"/>
        <path class="cls-14" d="M80.69,26.92l0-.82a3.14,3.14,0,0,0,.67.17Z"/>
        <path class="cls-14" d="M80.61,25.42h-.68a1.81,1.81,0,0,1-.33-.7A1.19,1.19,0,0,1,80.61,25.42Z"/>
        <path class="cls-5" d="M35.37,39.3a1.85,1.85,0,0,0-.06.66c-.33-.09-.45-.28-.29-.52C35.08,39.35,35.25,39.34,35.37,39.3Z"/>
        <path class="cls-5" d="M61.08,52.28c-.52.71-1.36.48-2,.69l-.27,0a4.15,4.15,0,0,0-.07-.79l.16-.18.81-.79Z"/>
        <path class="cls-5" d="M59.43,50.53c-1-.22-1.89-.5-.65-1.61Z"/>
        <path class="cls-5" d="M58.78,48.91a1.35,1.35,0,0,1,.89-1.57C59.46,47.91,59.43,48.58,58.78,48.91Z"/>
        <g>
          <path class="cls-5" d="M134.69,78.64c-1.86-.86-3.47-.13-5,.81a21.89,21.89,0,0,1-10.92-.85c-2.66-1.57-5.81-2.3-8-4.73-1.5-.69-1-2-1-3.19h0c.39-2.38,1.16-4.72.64-7.18.17-2.48.09-5.1-2-6.61-2.79-2-5.52-4.25-9.1-4.82h0A4.89,4.89,0,0,0,96,50.68l-2.5-1c-.77-1.12-2.71-1.36-2.43-3.26a5.1,5.1,0,0,1,3.25.18,12,12,0,0,0,5.77,2.2c1.32-3.78,1.07-7.54.36-11.33a1.2,1.2,0,0,1-1.33-.71c-1.45,1.46-2.79,3.45-5.25,2.32-2.71-1.24-2.86-3.85-2.93-6.4,1.72-3.59,1.72-3.59,6.61-2.9a10.77,10.77,0,0,1,1.67,5.37,1.16,1.16,0,0,1,.78,0,8.19,8.19,0,0,0-1.58-5.66c-.82-2.21-1.59-4.46-3.79-6-.91,2.24-1.9,4.36-4.33,5.22-3.54-.14-6.23-2.07-8.82-4.19l-.07,1.79h0l-.71.65-.25.28c-.68,2.95-2.45,4.4-5.55,4L73.57,31a1.24,1.24,0,0,1-1.1-.63l0,0a1.62,1.62,0,0,1-1.55-.85c-1.31-1.05-1.66-2.72-2.55-4,.08-.52.16-1,.25-1.55l.91-.77c3.28-1.43,6.48-1.95,9.4.79a2.2,2.2,0,0,1,1-1.82l-.12-2.3,1.62-2.43h0l.82-.79h0c1-1.33,2.53-1.53,4.06-1.67,0-.25,0-.5,0-.74-2-.56-3.54-2.2-5.69-2.38a23.71,23.71,0,0,0-8.06.1c-1.09,1.43-.79,3.58-2.45,4.72l-1.59-.1c-1.31,1.26-1.51.18-1.74-.83l-2.36,2.47-2,.09c-2.19.16-4.61.32-5.69-2a5.74,5.74,0,0,1,1.21-7l-.77-.69-1,.69a.73.73,0,0,1-.65.83c0,.22,0,.45,0,.67l-.79.24c-.57.7-1.11.68-1.62-.07-.8-1.7-2.15-2.1-3.88-1.67-1.39.34-2.79.63-4.18,1-.85-.18-1.25.53-1.83.89-.58.72-1.42.5-2.17.59-.29.43-.1,1.16-.84,1.29l-1.63.65c0,.19-.05.28-.23.29-.11.85-.75,1.14-1.45,1.38l-.1,1.36.8.88c.81,3,3.6,3.41,5.85,4.53a7.79,7.79,0,0,0,6.35,1.8c1.1.84,2.23.48,3.38.08,1.49-.51,3-1,4.48-1.49,1.87-.58,2.79.11,2.65,2.1a5.56,5.56,0,0,0-4,3.19c-2.78,2.7-5.77,5-9.69,5.83-2.69-.13-5.31-.47-7.37-2.47a6.3,6.3,0,0,1-.56-4.64c0-.62-.1-1.24-.16-1.87l-.74.2a1.57,1.57,0,0,1-.85,1.47,6.12,6.12,0,0,0,1.6,6.4,5.68,5.68,0,0,0,3.77,2.56c5.38,1.93,9.94.31,14-3.28L58,31l2.34.2a5.08,5.08,0,0,1-.71,2.4c-.5,3.3-.63,3.38-3.47,2.24-4.76,2.47-9.86,3-15.13,2.81-3-.11-6.12-.63-9.09.48L24,39.33l-2.14-.92c-2.93,2.58-7,3-9.81,5.57-.26,1.07-1.19,1.4-2,1.84l-.32-.12A11.54,11.54,0,0,0,7,51.07c1.25.59,1.71-.4,2.38-.9,1.76-2.88,5-4,7.33-6.29.76.29,1.87-.23,2.28.93,0,1.38-1.34,2.17-1.49,3.47a.47.47,0,0,0-.16.42,15.18,15.18,0,0,0-3.25,5,1.72,1.72,0,0,0-.66,1.51l1.17.16,1.59-1.52A6.65,6.65,0,0,0,19,49.69a2.38,2.38,0,0,0,.28-.68c1.28-1.26,1.89-4.26,4.6-1.73.37,1.15.4,2.47,1.47,3.32.07.79.15,1.58.22,2.38l.76.83a5.41,5.41,0,0,0,.78-4.09c0-1.4.42-2.88-.69-4.09-.11-2,.88-2.28,2.54-1.79,3.45,1,7,1.74,10.31,3.22l3.29,1c4.38,2,8.24.55,12.07-1.71,3-1.77,5-4.75,8.11-6.35.7-1.31,2.53-.35,3.25-1.61a2.41,2.41,0,0,1,1.1,1.89c-.79.73-1.36-.25-2-.26.15.87-.4,2,.9,2.45A3.18,3.18,0,0,0,68.45,44c.88-1.14,1.7-1,2.48.1l3.16-3.33a1,1,0,0,1-.21-1.7,11.27,11.27,0,0,1,4.9-3.49c.07.74.12,1.25.16,1.77a.65.65,0,0,0,.83-.55c2.91.83,1.7,2.36.66,3.86a14.25,14.25,0,0,0-7.25,5.6c-1.42,3.76-2.11,7.48.75,10.94a17.13,17.13,0,0,0,12.86,7.16c3.53,1.34,7.17.45,10.75.51,2.07.42,4.59.68,5.42,2.7,1.1,2.7,3.25,4.7,4.2,7.42.09.45.19.9.29,1.35,1.79.08,3.12.43,1.36,2.47,2.32,2.92,4.92,5.41,8.91,5.74a9.62,9.62,0,0,0,5.71,1.59l5.67,3.25,1-.17c-1-3.63-1.57-4-5.58-4.09l-5.91-1.36c-1.39-1.2-4.4-.68-4.13-3.63.79-.88,1.61-.42,2.35-.48a24,24,0,0,0,9.81,2.9c2.79.3,6.21.51,8-2.81l-1.42-.29A2.16,2.16,0,0,1,134.69,78.64ZM72.49,15.56a2.93,2.93,0,0,1,3.24-2.39l1.6,0a.92.92,0,0,0,.65.22l1,.68,0,0,.77.8c.07.28.14.56.2.83a11.72,11.72,0,0,1-1.16,4c-1.58.05-3.2.48-4.59-.8C73.21,18,72.13,17.13,72.49,15.56ZM35.31,40c-.33-.09-.45-.28-.29-.52.06-.09.23-.1.35-.14A1.83,1.83,0,0,0,35.31,40ZM87.07,61.85c-.59-.12-1.3-.09-1.25-1a.36.36,0,0,1,.25-.26c.91-.07.89.65,1,1.23Zm7.28-8.93c1.15,0,2.32,0,2.42,1.61C95.93,54,94.92,53.81,94.35,52.92Zm9.7,10.51-.84,0c-.26-.52-.52-1-.77-1.57C103.27,62.06,105.12,61.29,104.05,63.43Z"/>
          <path class="cls-5" d="M64.38,7.88l3.31,3.78c.26,0,.51,0,.76-.05.14-2.78-1.73-3.89-3.93-4.72-2.57-.83-5-1.06-6.85,1.49l1.12.21C60.63,8.11,62.43,7.38,64.38,7.88Z"/>
        </g>
        <path class="cls-5" d="M34.37,33.54c-1-1.4-.28-3.42-1.58-4.74a13.59,13.59,0,0,0-4-2.47.51.51,0,0,0-.55-.19,4.47,4.47,0,0,0-3.32-1.7v0a1,1,0,0,1-.95-.57.5.5,0,0,0-.52-.2l-1.07-.55a4.08,4.08,0,0,1-2.57-1.75,1.66,1.66,0,0,1-.7-1.62h0a20.35,20.35,0,0,1,.43-5.16c.73-3.14.43-6.09-1.85-8.6-1,1.31-1.8.43-2.57-.34.63-.84,1.5-.34,2.27-.4A5,5,0,0,0,13.9,2.84c-.75,1.26-.1,2.12.56,3A30.05,30.05,0,0,1,15.9,10.4c.82,3.6,2.06,7.34-.22,10.92a1.5,1.5,0,0,0-1.41,1.08L4.49,25.32C8,27.74,9.37,27.63,14.3,24.9l3.07-.23c1.37,1.88,3.75,2.74,4.92,4.82a3.2,3.2,0,0,0,2.32,1.71l.95-.1,0,.83h0a1.11,1.11,0,0,1,.83.8l.83.59a.86.86,0,0,0,.64.28,1.09,1.09,0,0,1,1,.69l0,0,.78.79c1.72,1.56,3.54.95,5.24.6C35.21,34.6,34.63,34.13,34.37,33.54Zm-9.6-7.26-1.65,0a1.73,1.73,0,0,1,1.62-.8l.8.8ZM27.13,28c-.78-1.29.43-.75.86-.93Zm2.47,1.5q0,.4,0,.81h0c-.32-.11-.45-.31-.31-.57.05-.11.2-.16.3-.24s.15-.32.19-.31C30,29.23,30,29.35,29.6,29.48Z"/>
        <path class="cls-5" d="M24.77,26.28l-1.65,0a1.73,1.73,0,0,1,1.62-.8l.8.8Z"/>
        <path class="cls-5" d="M80.68,66.77c.38.86.43,1.54-.81,1.57C79.82,67.65,79.91,67,80.68,66.77Z"/>
        <path class="cls-5" d="M28,27.05l-.86.93C26.35,26.69,27.56,27.23,28,27.05Z"/>
        <path class="cls-5" d="M57.88,51.33l1,.65-.16.18a1.49,1.49,0,0,0-.78-.08l.05.05A1.68,1.68,0,0,0,57.88,51.33Z"/>
        <path class="cls-5" d="M57.88,51.33a1.68,1.68,0,0,1,.08.8.89.89,0,0,1-.85-.87A2.87,2.87,0,0,1,57.88,51.33Z"/>
        <path class="cls-5" d="M57.15,51.32a.81.81,0,0,1-.79-.83,4,4,0,0,1,.69.07A1.53,1.53,0,0,1,57.15,51.32Z"/>
        <path class="cls-5" d="M57.05,50.56a4,4,0,0,0-.69-.07,1,1,0,0,1-.2-.73Z"/>
        <path class="cls-5" d="M29.6,30.29c-.32-.11-.45-.31-.31-.57.05-.11.2-.16.3-.24h0q0,.4,0,.81Z"/>
        <path class="cls-5" d="M29.59,29.48c.07-.11.15-.32.19-.31.26.06.2.18-.18.31Z"/>
        <path class="cls-5" d="M57.91,52.08a1.49,1.49,0,0,1,.78.08,4.15,4.15,0,0,1,.07.79A.9.9,0,0,1,57.91,52.08Z"/>
        <path class="cls-5" d="M94.3,31.68c2.34,1.44,3,2.8,1.39,4.75C94,34.79,94,34.8,94.3,31.68Z"/>
        <path class="cls-27" d="M63.51,12.61c-1.18-1-2.5-1.23-4.27-.16,2.25-3,2.54-3,5.11,0Z"/>
        <path class="cls-28" d="M63.51,12.61l.84-.17c.72,2.94-.9,3.46-3.79,3.41C61.82,14.58,63.84,14.55,63.51,12.61Z"/>
        <path class="cls-29" d="M77.15,28.57c-2.82-.17-4.7-.86-5.49-3.42C75.6,24.24,75.81,24.36,77.15,28.57Z"/>
        <path class="cls-21" d="M72.42,30.33a1.62,1.62,0,0,1-1.55-.85A1.68,1.68,0,0,1,72.42,30.33Z"/>
        <path class="cls-21" d="M73.57,31a1.24,1.24,0,0,1-1.1-.63A1.18,1.18,0,0,1,73.57,31Z"/>
        <path class="cls-30" d="M76.06,17.11a.42.42,0,0,1-.28-.63c0-.11.18-.18.28-.26a4.33,4.33,0,0,1,.3.66S76.17,17,76.06,17.11Z"/>
      </g>
    </g>
  </g>
</svg>
