<svg xmlns="http://www.w3.org/2000/svg" width="150.04" height="94.07" viewBox="0 0 150.04 94.07">
  <defs>
    <style>
      .cls-1 {
        fill: #050105;
      }

      .cls-2 {
        fill: #fd983f;
      }

      .cls-3 {
        fill: #fddf8d;
      }

      .cls-4 {
        fill: #5b1dee;
      }

      .cls-5 {
        fill: #2622f6;
      }

      .cls-6 {
        fill: #fe77fe;
      }

      .cls-7 {
        fill: #fe94fe;
      }

      .cls-8 {
        fill: #fefefe;
      }

      .cls-9 {
        fill: #4e9428;
      }

      .cls-10 {
        fill: #58c955;
      }

      .cls-11 {
        fill: #710020;
      }
    </style>
  </defs>
  <g id="Layer_2" data-name="Layer 2">
    <g id="Layer_1-2" data-name="Layer 1">
      <g>
        <path class="cls-1" d="M141.69,28.7A7.37,7.37,0,0,0,137.48,30c-4.37.1-4.37.1-3.17,2.34.62,1.85-.5,3.33-1,5-1.5,4.87-4.83,10-1.53,14.87,4,5.92,3.34,10.85-1.09,15.86h0l-1.33,1c-5.29,2.85-11,1.32-16.37.9-3.62-.29-4.94.93-6.23,3.51l0,0-2.31,2.89-1.54,1.21c-2,.44-2.33-.74-2.75-2.36-.54-2.06-.1-4.55-2.2-6.07.94-3.92,3.47-6,7.47-6,4.74-.06,6.72-3.24,4.76-7.82A19.27,19.27,0,0,0,105,51c-.58-1.28-1.78-1.63-3-2a7.06,7.06,0,0,1-2.7-2.12c-3.31-3.91-7.66-4.84-12.51-3-3.14,2.27-3,6.77-6.17,9,1.25,5.58-1.51,11.25.4,16.79,1.32,3.81,1.49,8.12,4.69,11.13l.09.18c.81,2.14,3.75,4.16,1.92,6.43-2.14,2.65-5.33,4.26-9.09,2.92-4.47-1.58-7.25-4.43-8.23-9.31A60.77,60.77,0,0,1,69.71,68c.05-2.52-1.51-2.68-3.34-2.89-2.17-.25-2.5,1.09-2.4,2.7.38,5.92,0,12,5,16.64a8.39,8.39,0,0,1,2.55,5.3c.08.82.53,1.76-.4,2.06-2.79.91-5.48,3.34-8.57,1.75-3.45-1.77-7.22-3.26-8.31-7.88-.81-3.46.08-7.11-1.49-10.41v0c-.36-3.51.65-7.1-.57-10.57a4.13,4.13,0,0,0-2.65-1.57c-.51-.3-.88-1-1.63-.6-2.1,3.34-3.73.8-5.68-.43,2.25,5.7,4.91,11.06,9.11,15.53,2,5,1.61,6-2.26,7.62-1.17.48-2.31.29-3.42.62-2.24-.26-4.48-.5-6-2.47-.91-1.39-1.91-2.73-2.71-4.19a46.93,46.93,0,0,1-4.41-11.79c-.32-1.36-.58-4-2.48-3.48-2.47.63-1.29,2.93-.46,4.34,3.27,5.52,5.33,11.71,9.29,16.85.34,2,.27,3.22-2.11,4.47s-4.38,1-6.63.42c-4.57-1.66-6.86-5.11-8-9.7C21,76,20.29,71.5,18.84,67.17c-1.61-4.84-4.83-9.57-2.5-15.12,3-3.78-.53-6.38-1.89-9.22C13.23,40.3,11.51,38,11.71,35c.14-2.1,1.27-5.34.37-6.05-1.48-1.16-4.25-.68-6.48-.89C3.09,27.82,5,25,3.38,24.21,1.13,21.74,2.9,17.94.51,15.52A7.25,7.25,0,0,1,.3,10.78C.94,8.54,1.42,5.51,3.88,4.87s2.4,2.59,3.54,4c.65.83,1.1,1.84,1.8,2.62,3.39,3.76,7.37,7.71,12.62,6.23A32.07,32.07,0,0,1,39,17.8c7.58,2.46,15.24.38,22.76-.2,2.65-.2,5.26-1.48,8-.42a9.22,9.22,0,0,1,5.29,3.95l1.07,1c3.51,3.55,7,7.16,13.2,7-1.93-1.63-3.39-3-4.08-4.87,1.63-3.16,5-4.2,7.55-6.27,3.6.17,7,1.33,10.78,2.41C100.15,13,94.82,8.61,87.16,7.15c-2.09-1.39-1.94-2.35.53-2.93,6.79-1.61,12.9,0,18.52,3.91a20.32,20.32,0,0,1,6.24,7.11c.5.92.82,2.29,2.15,1.7s1.12-1.83.67-3.12a20.18,20.18,0,0,0-5.7-8.49,4.65,4.65,0,0,0-2.11-2.07c-1.17-.7-2.57-1.2-2.95-2.79,7.87-1.69,13.66,1.27,18.52,7,2.44,2.87,3.47,6.23,4.3,9.69.45,1.89,1.22,2.68,3.24,2.45,3.6-.41,6.89.84,9.94,2.55C143.76,24,144,26,141.69,28.7Zm-21.59,2c-2.59-3.34-3-3.28-5,.72l-.79,1.06c-2.2-3.53-6-4.76-9.4-6.65-.17,4.23-3.37,4.87-6.47,4.92-5.37.1-10.76,1.58-16.14.09-.16-.38-.31-.75-.47-1.12-2.94-3.34-5.29-2.8-8,.6s-6.55,4.54-10.68,2c-1.62-1-3.35-.81-5.06-.76-4.75.14-8.5-1.64-10.18-6.17-1.45-3.9-4.05-5.24-7.91-5.1a10.86,10.86,0,0,1-2.73-.62c-5.31-1.31-10.59-1.81-15.65.92-1,.54-2.12.89-3.06.26C14.22,18,9.19,16.12,6.38,11.3c-.63-1.07-.79-3.51-2.62-2.82-1.66.61-1,2.84-1.16,4.4a8,8,0,0,0,1.34,4.57c.67,1.15,1.64,2.25,1.9,3.49,1,4.93,2.84,6.16,7.5,4.7,1.08-.33,2.08-1.28,3.26-.42.2,1.47-2.13,2.54-.53,4.08,1.28,1.24,2.76.56,4.19.32,1-.18,2.12-.27,3.18-.39,2.87-.31,3.95,1,4.34,3.86.77,5.89-1.94,9.72-6.51,12.75-.67.44-1.48.34-1.72,1.71-1.24,7.16-1.71,14.13,2.12,20.78a11.12,11.12,0,0,1,1.15,4.23c.66,5.63.61,5.64,5.41,4.59,3.09-.67,3.07-.66,1.49-3.54a24.21,24.21,0,0,1-2.51-5c-.63-2.33-1.81-4.95.89-6.94,3.66-1.11,6-3.53,7.8-6.92,2.59-5,1.31-9.88.54-14.86l.83-.42.92.63c.28,1.11.49,2.24.86,3.31.61,1.79,1.18,1.43,1.63-.1,3.21-.89,1.71,1.7,1.67,2.61-.21,4.08-3.79,6.67-4.91,10.41-.28,1-1.51,1.68-.44,2.79,1.24,1.28,1.73-.64,2.64-.68,1.15-.06,2.14-3.23,3.51,0,1.57,3.66,3.49,3.06,5-.11C50,59.21,49.88,62,52.67,62c-2-4.27.33-7.2,3.2-10.12-2.81,5.51-1.94,10.88.07,16.22,0,3.08.05,6.17.08,9.25,0,1.56.7,4.47,1.09,4.12,1.78-1.65,4.87-.2,6-2.79A38.5,38.5,0,0,1,61.72,66c.39-4,1.09-7.93,3.56-11.29.24,2,.48,4,.74,6.2,1.82-.92,1.81-2.53,2.48-3.71,1.88-1.45,3.36-3.66,5.84-4s3.49-2.33,5-4c2.74-2.93,4.32-6.84,7.75-9.15,1.57-1,2.3-1.23,2.82-.32,1.53,2.68,3.92,1,5.73,1,1.52,0,.6-2.21.71-3.42a7.17,7.17,0,0,1,1-3.37c2.29.77,1.3,2.61,1.19,4-.33,4.08.93,7.24,4.74,9.12l7.58,5.12c2.76,2.63,3.21,5.67,1.53,9a7.83,7.83,0,0,0-.79,4.63c.09.69.21,1.3,1.11,1.29.56,0,1.31-.14,1.23-.69-.54-3.79,2.89-6.5,2.67-10.18,2.21.2,2.73,1.77,3,3.62s.56,3.4.94,5.08c.7,3.08,3,3.73,5.51,2.87,5.56-1.9,7.6-7.37,5-12.58-1.39-2.82-2.57-5.5-2.6-8.63A34.88,34.88,0,0,1,131.26,36c.5-1.17.93-2,.11-3.3-1.73-2.67-3.21-5.5-4.85-8.22-.48-.79-.65-1.87-2.33-1.22-1.88.72-.86,1.55-.6,2.42.71,2.39.91,4.73-.6,6.91-.48.68-.54,2.12-1.81,1.51-.45-.22-.43-1.42-.62-2.17C120.41,31.54,120.25,31.14,120.1,30.73Zm-41.46,41c0-.3-.07-.61-.1-.91l-.87-5.19a21.51,21.51,0,0,1,1-6.27c.27-1.1,1.29-2.9,0-3.15s-2.8-1.55-4.48-.48a10.93,10.93,0,0,0-3,2.55c-1,1-1.54,2-.76,3.38C72.36,64.85,72.39,68.4,72.3,72c-.06.53-.11,1.07-.17,1.6-.24,2,0,4.16,1.9,4.87,2.13.79,4-1.31,6-2,.91-.3-.38-3-1.4-4.41l.13-.19ZM42.12,68.57c-2-2.85-1.63-7.88-7.28-7.57-1.72.1-2.07.73-1.47,1.66,2,3.1,1.79,6.86,3.4,10,.43,1.11,1,2.79,2.21,2.31,1.81-.72,3.64-1.22,5.46-1.8a2.93,2.93,0,0,0-.2-1.8A28.69,28.69,0,0,0,42.12,68.57ZM67,31.09c1.09-.09,1.5-.09,1.89-.17,2.15-.4,6.65-4.66,6.38-6C74.76,22.32,68.75,18,66,19a49.55,49.55,0,0,1-15.32,2.59c-1,0-2.18.22-1.44,1.55,1.22,2.17,2,5.14,4.76,5.62C58.56,29.53,63.31,29.17,67,31.09ZM14,35.18c0,3.77,3.1,9,5.22,9,2.5,0,6.08-5.32,6-8.92-.05-3.87-.32-4-9.48-3.63C13.07,31.71,13.93,33.67,14,35.18Zm102.17-13c3.25-1.74,6.23-.72,9-1.3-3.17-3.26-6.35-4-8.88-1.54s-5,4.63-8.57,5.38c1.82,2.43,5.87-.09,6.67,4.41,2.3-7.48,4.78-1.22,7.27-.65C121.68,24.78,119,23.84,116.15,22.16ZM84.88,85.58c-2.6-5.35-2.6-5.35-11.21-3.31.45,1.13.61,2.5,1.37,3.27,1.57,1.6,3.62,3.55,5.85,2.5,2.59-1.22-.34-3.1-.25-4.74,0-.18.31-.35.6-.66C82.84,83,82.49,85.69,84.88,85.58Zm-19.71.07c.62,1.49.43,3.31,2.58,4.1a8.06,8.06,0,0,0-2.67-5.66c-1.39-1.17-6.42-.29-7.23,1.32s.54,2.46,1.37,3.41c1.34,1.55,3.18,2.92,5.09,2.37,1.43-.41-.17-2-.2-3.11C64.08,87.36,63.72,86.48,65.17,85.65Zm69-58c2.72,0,5.52-.19,5.81-2.38.24-1.9-2.61-2-4.35-2.48a23.29,23.29,0,0,0-3-.79c-1-.13-2.46-.47-2.14,1.27.21,1.17-1.62,2.89.82,3.53C132.4,27.11,133.52,27.46,134.15,27.65ZM25.6,82.14c1.59,4.46,4.21,6.34,7.6,5.44-.07-1.4-2.55-2.29-.93-4.09,1.55.36,1.36,2.86,3.34,2.55C34,81.26,33.36,81,25.6,82.14Zm80.9-16.51c-2.69,0-5.63,3.58-5.18,6.52.12.82.23,2,1.26,2.2s1.24-.85,1.71-1.46c1.14-1.46,2.27-2.93,3.35-4.44.47-.66,1.77-1,1-2.2C108.13,65.36,107.25,65.71,106.5,65.63Zm1.24-53c-1.45-1.76-3.15-3.52-5.4-4.17-.9-.26-3.25,1.15-2.54,2.27,1.1,1.73,2,4.35,4.36,4.58A3.24,3.24,0,0,0,107.74,12.63Zm-59,66c-1.69-3.06-4.28-1.72-6.42-1.54a2.23,2.23,0,0,0-1.84,2.26c.16,2.37,2.25,2.65,3.93,3.3.79.31,1.73,1.33,2.44.17a2,2,0,0,0-.58-2.53,2,2,0,0,1-.58-2.16C46.94,77.29,47.13,79.75,48.76,78.67ZM89.43,25.45c3.4,4,7.4,3.4,12,2C97.65,23.33,93.28,26,89.43,25.45Zm22.32-6.66c-.84-1.09-.8-3.48-2.89-2.91-1.34.36-3.78.16-3.6,2.85.13,1.89,1.2,3.24,2.92,3.1C109.7,21.71,111.65,21.2,111.75,18.79Zm12.92-3.35c-.12-2.44-1.65-3.73-4.14-3.95-1.51-.13-3.29.1-3.07,2.11.41,3.58,4,2.06,6,3.31C124.56,17.62,124.6,16.43,124.67,15.44ZM90,22.67c5,.41,9.88-1.13,13.86,2.58C99.59,20.6,94.28,19.64,90,22.67ZM118.39,9.79c.92-.33,3,.72,2.71-1a4.36,4.36,0,0,0-3.93-3.3c-1.28-.1-2.93.34-2.74,1.55C114.71,8.86,115.94,10.47,118.39,9.79ZM99.33,7.54C97,5.81,94.94,5.46,92.67,6.4,94.58,7.31,96.26,9.15,99.33,7.54Z"/>
        <path class="cls-1" d="M110.16,80.05c.41-3.45,2.92-2.12,4.85-2.14,5.23,2.54,5.2,2.52,8.68-2.08,1.46-1.93,3.46-2.16,4.27.23,1.64,4.89,3.79,3.32,6.28,1,3.11-1.34,6.13-3.32,9.89-1.49l-5,5.84c-.66.75-1.15,1.55-.53,2.51s1.35.43,2.13.38a62.33,62.33,0,0,1,6.83-.13c1.27.06,3.32-.14,2.16,2.35-3.82,1.55-7.78,2.83-10.64,6-2.9,1-5.8,2.25-8.76.17-2.28-2.21-4.44,0-6.65.21-.78.07-2.06,1.26-2-.37,0-2.48-1.74-1.83-3-2.19-2.23-.65-4.8.42-6.81-1.36a1,1,0,0,0,.12-.65l5-1.27c-2.2-2.81-3.49-5.83-6.8-6.93Zm23,4.29c2-1.2,2.07-3.77,3.75-5.21-2.33,1.11-4.69,2.16-5,5.19a3.89,3.89,0,0,0-1,4.42C133,87.9,134.18,86.71,133.18,84.34Zm-8.51-.11c.86,1.42-1.18,4.24,1.13,4.26,1.57,0,1.81-3.2,2-5.14.17-1.37-.32-3.08-1.86-2.95C123.07,80.63,125.76,83.05,124.67,84.23Z"/>
        <path class="cls-2" d="M67,31.09c-3.7-1.92-8.45-1.56-13-2.37-2.75-.48-3.54-3.45-4.76-5.62-.74-1.33.42-1.53,1.44-1.55A49.55,49.55,0,0,0,66,19c2.74-.92,8.75,3.36,9.27,5.95.27,1.35-4.23,5.61-6.38,6C68.51,31,68.1,31,67,31.09Z"/>
        <path class="cls-2" d="M14,35.18c-.05-1.51-.91-3.47,1.77-3.57,9.16-.35,9.43-.24,9.48,3.63.05,3.6-3.53,8.88-6,8.92C17.08,44.19,14,39,14,35.18Z"/>
        <path class="cls-3" d="M116.15,22.16c2.8,1.68,5.53,2.62,5.51,6.3-2.49-.57-5-6.83-7.27.65-.8-4.5-4.85-2-6.67-4.41,3.57-.75,6.06-3,8.57-5.38s5.71-1.72,8.88,1.54C122.38,21.44,119.4,20.42,116.15,22.16Z"/>
        <path class="cls-3" d="M36.77,72.7c-1.61-3.18-1.42-6.94-3.4-10-.6-.93-.25-1.56,1.47-1.66,5.65-.31,5.24,4.72,7.28,7.58C40.21,69.79,37.34,69.76,36.77,72.7Z"/>
        <path class="cls-4" d="M84.88,85.58c-2.39.11-2-2.58-3.64-2.94-.29.31-.59.48-.6.66-.09,1.64,2.84,3.52.25,4.74-2.23,1-4.28-.9-5.85-2.5-.76-.77-.92-2.14-1.37-3.27C82.28,80.23,82.28,80.23,84.88,85.58Z"/>
        <path class="cls-2" d="M78,71.56c-.15-.43-.05-.8.53-.8l-.87-5.18a21.51,21.51,0,0,1,1-6.27c.27-1.1,1.29-2.9,0-3.15s-2.8-1.55-4.48-.48a10.93,10.93,0,0,0-3,2.55c-1,1-1.54,2-.76,3.38C72.36,64.85,72.39,68.4,72.3,72c.46-.1,1-.53,1.36.09.66,1-1.13,3.17,1.36,3.34,2.29.16,3.3-1.3,3.64-3.37l.13-.19-.15-.17C78.42,71.64,78,71.66,78,71.56Z"/>
        <path class="cls-5" d="M65.17,85.65c-1.45.83-1.09,1.71-1.06,2.43,0,1.09,1.63,2.7.2,3.11-1.91.55-3.75-.82-5.09-2.37-.83-.95-2.14-1.89-1.37-3.41s5.84-2.49,7.23-1.32a8.06,8.06,0,0,1,2.67,5.66C65.6,89,65.79,87.14,65.17,85.65Z"/>
        <path class="cls-6" d="M134.15,27.65c-.63-.19-1.75-.54-2.89-.85-2.44-.64-.61-2.36-.82-3.53-.32-1.74,1.17-1.4,2.14-1.27a23.29,23.29,0,0,1,3,.79c1.74.46,4.59.58,4.35,2.48C139.67,27.46,136.87,27.64,134.15,27.65Z"/>
        <path class="cls-5" d="M25.6,82.14c7.76-1.13,8.41-.88,10,3.9-2,.31-1.79-2.19-3.34-2.55-1.62,1.8.86,2.69.93,4.09C29.81,88.48,27.19,86.6,25.6,82.14Z"/>
        <path class="cls-3" d="M106.5,65.63c.75.08,1.63-.27,2.16.62.75,1.24-.55,1.54-1,2.2-1.08,1.51-2.21,3-3.35,4.44-.47.61-.82,1.64-1.71,1.46s-1.14-1.38-1.26-2.2C100.87,69.21,103.81,65.59,106.5,65.63Z"/>
        <path class="cls-3" d="M107.74,12.63a3.24,3.24,0,0,1-3.58,2.68c-2.37-.23-3.26-2.85-4.36-4.58-.71-1.12,1.64-2.53,2.54-2.27C104.59,9.11,106.29,10.87,107.74,12.63Z"/>
        <path class="cls-5" d="M48.76,78.67c-1.63,1.08-1.82-1.38-3-.5a2,2,0,0,0,.58,2.16,2,2,0,0,1,.58,2.53c-.71,1.16-1.65.14-2.44-.17-1.68-.65-3.77-.93-3.93-3.3a2.23,2.23,0,0,1,1.84-2.26C44.48,77,47.07,75.61,48.76,78.67Z"/>
        <path class="cls-2" d="M36.77,72.7c.57-2.94,3.44-2.91,5.35-4.12a27.45,27.45,0,0,1,2.12,2.83,2.93,2.93,0,0,1,.2,1.8c-1.82.58-3.65,1.08-5.46,1.8C37.78,75.49,37.2,73.81,36.77,72.7Z"/>
        <path class="cls-7" d="M89.43,25.45c3.85.55,8.22-2.12,12,2C96.83,28.85,92.83,29.45,89.43,25.45Z"/>
        <path class="cls-3" d="M111.75,18.79c-.1,2.41-2,2.92-3.57,3-1.72.14-2.79-1.21-2.92-3.1-.18-2.69,2.26-2.49,3.6-2.85C111,15.31,110.91,17.7,111.75,18.79Z"/>
        <path class="cls-3" d="M124.67,15.44c-.07,1-.11,2.18-1.23,1.47-1.94-1.25-5.57.27-6-3.31-.22-2,1.56-2.24,3.07-2.11C123,11.71,124.55,13,124.67,15.44Z"/>
        <path class="cls-3" d="M72.3,72c.46-.1,1-.53,1.36.09.66,1-1.13,3.17,1.36,3.34,2.29.16,3.3-1.3,3.64-3.37,1,1.39,2.31,4.11,1.4,4.41-2,.69-3.9,2.79-6,2-1.9-.71-2.14-2.89-1.9-4.87C72.19,73.05,72.24,72.51,72.3,72Z"/>
        <path class="cls-8" d="M90,22.67c4.32-3,9.63-2.07,13.86,2.58C99.84,21.54,94.92,23.08,90,22.67Z"/>
        <path class="cls-3" d="M118.39,9.79c-2.45.68-3.68-.93-4-2.73-.19-1.21,1.46-1.65,2.74-1.55a4.36,4.36,0,0,1,3.93,3.3C121.42,10.51,119.31,9.46,118.39,9.79Z"/>
        <path class="cls-3" d="M131.11,55.34c-1.39-2.82-2.57-5.5-2.6-8.63h0A34.88,34.88,0,0,1,131.26,36c.5-1.17.93-2,.11-3.3-1.73-2.67-3.21-5.5-4.85-8.22-.48-.79-.65-1.87-2.33-1.22-1.88.72-.86,1.55-.6,2.42.71,2.39.91,4.73-.6,6.91-.48.68-.54,2.12-1.81,1.51-.45-.22-.43-1.42-.62-2.17a3.19,3.19,0,0,1-.74-.3c-.27-.42-.22-.74.28-.91-2.59-3.35-3-3.29-5,.71-.26.36-.53.71-.79,1.06-2.2-3.53-6-4.76-9.4-6.65-.17,4.23-3.37,4.87-6.47,4.92-5.37.1-10.76,1.58-16.15.09-.15-.38-.3-.75-.46-1.12h0c-2.94-3.34-5.29-2.8-8,.6s-6.55,4.54-10.68,2c-1.62-1-3.35-.81-5.06-.76-4.75.14-8.5-1.64-10.18-6.17-1.45-3.9-4.05-5.24-7.91-5.1a10.86,10.86,0,0,1-2.73-.62c-5.32-1.31-10.59-1.81-15.65.92-1,.54-2.12.89-3.06.26C14.22,18,9.19,16.12,6.38,11.3c-.63-1.07-.79-3.51-2.62-2.82-1.66.61-1,2.84-1.16,4.4a8,8,0,0,0,1.34,4.57c.67,1.15,1.64,2.25,1.89,3.49,1,4.93,2.85,6.16,7.51,4.7,1.08-.33,2.08-1.28,3.26-.42.2,1.47-2.13,2.54-.53,4.08,1.28,1.24,2.76.56,4.19.32,1-.18,2.12-.27,3.18-.39,2.87-.31,3.95,1,4.34,3.86.77,5.89-1.94,9.72-6.51,12.75-.67.44-1.48.34-1.72,1.71-1.24,7.16-1.71,14.13,2.12,20.78a11.12,11.12,0,0,1,1.15,4.23c.66,5.63.61,5.64,5.41,4.59,3.09-.67,3.07-.66,1.49-3.54a24.21,24.21,0,0,1-2.51-5c-.63-2.33-1.81-4.95.89-6.94,3.66-1.11,6-3.53,7.8-6.92,2.59-5,1.31-9.88.54-14.86l-.39,0c.14.52-.39.67-.36.14.07-1.13.86-1.4,1.76-1.59-.06.33-.11.66-.17,1l.91.63c.28,1.11.49,2.24.86,3.31.61,1.79,1.18,1.43,1.63-.1,3.21-.89,1.71,1.7,1.67,2.61-.21,4.08-3.79,6.67-4.91,10.41-.28,1-1.51,1.68-.44,2.79,1.24,1.28,1.73-.64,2.64-.68,1.15-.06,2.14-3.23,3.51,0,1.57,3.66,3.49,3.06,5-.11C50,59.21,49.88,62,52.67,62c-2-4.27.33-7.2,3.2-10.12-2.81,5.51-1.94,10.88.07,16.22,0,3.08.05,6.17.08,9.25,0,1.56.7,4.47,1.09,4.12,1.78-1.65,4.87-.2,6-2.79A38.5,38.5,0,0,1,61.72,66c.39-4,1.09-7.93,3.56-11.29.24,2,.48,4,.74,6.2,1.82-.92,1.81-2.53,2.49-3.72,1.87-1.44,3.35-3.65,5.83-4s3.49-2.33,5-4c2.74-2.93,4.32-6.84,7.75-9.15,1.57-1,2.3-1.23,2.82-.32,1.53,2.68,3.92,1,5.73,1,1.52,0,.6-2.21.71-3.42a7.17,7.17,0,0,1,1-3.37c2.29.78,1.3,2.61,1.19,4-.33,4.08.93,7.24,4.74,9.12l7.58,5.12c2.76,2.63,3.21,5.67,1.53,9a7.83,7.83,0,0,0-.79,4.63c.09.69.21,1.3,1.11,1.29.56,0,1.31-.14,1.23-.69-.54-3.79,2.89-6.5,2.67-10.18,2.21.2,2.73,1.77,3,3.62s.56,3.4.94,5.08c.7,3.08,3,3.73,5.51,2.87C131.66,66,133.7,60.55,131.11,55.34ZM42.24,35.77l.67-.92,4.44-3.28a12.16,12.16,0,0,1,6.29,3C55.79,36.77,55.41,39,52.58,40c-3.11,1.13-8.28-1-10.26-4.29h0l-.08,0h0a1.61,1.61,0,0,0-.62.34A1.61,1.61,0,0,1,42.24,35.77Zm47-2.47.76,0Zm26.39,4.52c1,.22,2.13.61,1.84,2.14-.25,1.28-1,2.26-2.39,1.94-.86-.21-1.55-1.2-2.31-1.83C113.63,39.19,113.88,37.43,115.63,37.82ZM124.17,62a1.17,1.17,0,0,1-1.09-1.66c.39-.91.8-2,2.13-1.9.73.08,1.06.65,1,1.45C125.81,60.83,125.23,61.85,124.17,62Zm2.1-19.68c-3.23-.85-3.26-2.64-1.46-5,1.55,0,3,.33,3.28,2,.18,1.24,0,2.71-1.82,2.93a1.5,1.5,0,0,1,1.26,1.41A1.5,1.5,0,0,0,126.27,42.29Zm1.31,2.09c0-.21,0-.42,0-.62C127.57,44,127.57,44.17,127.58,44.38Z"/>
        <path class="cls-3" d="M99.33,7.54c-3.07,1.61-4.75-.23-6.66-1.14C94.94,5.46,97,5.81,99.33,7.54Z"/>
        <path class="cls-8" d="M36.44,39.88l-.39,0c.14.52-.39.67-.36.14.07-1.13.86-1.4,1.76-1.59-.06.33-.11.66-.17,1Z"/>
        <path class="cls-8" d="M78.64,71.68c-.22,0-.6,0-.63-.12-.15-.43-.05-.8.53-.8C78.57,71.07,78.61,71.38,78.64,71.68Z"/>
        <path class="cls-3" d="M119.82,31.65c-.27-.42-.22-.74.28-.91.15.4.31.8.46,1.21A3.19,3.19,0,0,1,119.82,31.65Z"/>
        <polygon class="cls-3" points="130.68 68.06 130.85 68.36 130.69 68.06 130.68 68.06"/>
        <path class="cls-9" d="M124.67,84.23c1.09-1.18-1.6-3.6,1.32-3.83,1.54-.13,2,1.58,1.86,2.95-.24,1.94-.48,5.16-2,5.14C123.49,88.47,125.53,85.65,124.67,84.23Z"/>
        <path class="cls-9" d="M133.18,84.34c1,2.37-.14,3.56-2.31,4.4a3.89,3.89,0,0,1,1-4.42Z"/>
        <path class="cls-10" d="M133.18,84.34l-1.26,0c.32-3,2.68-4.08,5-5.19C135.25,80.57,135.17,83.14,133.18,84.34Z"/>
        <path class="cls-1" d="M47.35,31.57a12.16,12.16,0,0,1,6.29,3C55.79,36.77,55.41,39,52.58,40c-3.11,1.13-8.28-1-10.26-4.29l-.1,0c.48-.13.84-.35.69-.94Zm4.43,5.27c-.42-1.81-2.09-2-3.38-2.55a1.32,1.32,0,0,0-1.95,1.26c.27,1.76,2.15,1.77,3.46,2.27A1.38,1.38,0,0,0,51.78,36.84Z"/>
        <path class="cls-8" d="M42.91,34.85c.15.59-.21.81-.69.94Z"/>
        <path class="cls-1" d="M124.81,37.32c1.55,0,3,.33,3.28,2,.18,1.24,0,2.71-1.82,2.93C123,41.44,123,39.65,124.81,37.32Z"/>
        <path class="cls-1" d="M117.47,40c-.25,1.28-1,2.26-2.39,1.94-.86-.21-1.55-1.2-2.31-1.83.86-.88,1.11-2.64,2.86-2.25C116.65,38,117.76,38.43,117.47,40Z"/>
        <path class="cls-11" d="M126.18,59.86c-.37,1-1,2-2,2.11a1.17,1.17,0,0,1-1.09-1.66c.39-.91.8-2,2.13-1.9C125.94,58.49,126.27,59.06,126.18,59.86Z"/>
        <path class="cls-3" d="M51.78,36.84a1.38,1.38,0,0,1-1.87,1c-1.31-.5-3.19-.51-3.46-2.27a1.32,1.32,0,0,1,1.95-1.26C49.69,34.87,51.36,35,51.78,36.84Z"/>
      </g>
    </g>
  </g>
</svg>
