<svg xmlns="http://www.w3.org/2000/svg" width="109.08" height="89.98" viewBox="0 0 109.08 89.98">
  <defs>
    <style>
      .cls-1 {
        fill: #050105;
      }

      .cls-2 {
        fill: #fe4efe;
      }

      .cls-3 {
        fill: #aeeeff;
      }

      .cls-4 {
        fill: #fefefe;
      }

      .cls-5 {
        fill: #03c6fd;
      }

      .cls-6 {
        fill: #eaea00;
      }

      .cls-7 {
        fill: #fe77fe;
      }
    </style>
  </defs>
  <g id="Layer_2" data-name="Layer 2">
    <g id="Layer_1-2" data-name="Layer 1">
      <g>
        <path class="cls-1" d="M9,81c-1.29-1.11-2.66-2.15-3.87-3.34-7.08-7-6.72-17.16.81-24,1.52-1.23,3.88-1.78,3.57-4.47-2.16-3.8-2.85-8.11-4.25-12.16-1-4.71,1.9-7.18,5.46-9s7.07-3.44,11.09-3.78C25,24,27,22.86,24.47,19.31a4.32,4.32,0,0,1-.34-.72,12.7,12.7,0,0,1,4.18-6.1C31.15,10.15,30.91,6,33.57,3c.18,1.24.3,2,.41,2.77l-2.64,7-.78.94,0,0c-.5.43-1,.83-1.48,1.3-1.17,1.19-2.86,2.25-2,4.29.95,2.29,2.8,2.72,5.2,2.62s5-.67,7.46-.88c1.78-.16,2.16-1.07,2.19-2.63a17.49,17.49,0,0,1,2.38-8.62l1.39-1.55c1.1-.73,1.82-2.82,3.62-1L47.41,9.88c-3,1.95-2.68,5.27-3.53,8.14-.58,2,.33,2.43,1.94,2.42q4.43,0,8.84-.12c2.5-.07,4.11-.71,2.55-3.7a37.06,37.06,0,0,1-1.68-4.45c.13-2,.27-4.09.41-6.13a24.08,24.08,0,0,1,1.69-4.93c1-1.6,2-1.55,2.12.68a14.52,14.52,0,0,0,2.46,17.8c1.5,1.42,3.35.73,5,.65,4.72-.22,9.34.7,14,1.05,2.37.18,3.28-.26,2-2.72-1.78-3.31-.49-6.41,1-9.38.31-.61,1.1-1.49,1.93-.71s-.49,1.36-.43,2.13a9.31,9.31,0,0,0,1.39,10.76c1.8,2.17,4.87,1.66,7.22,2.76l5,1.93c2.83,1.91,5.31,4,5,7.92-.68,2.39-1.23,4.83-2.08,7.15S99,46.05,99.5,47.87c.59,2.08,3.67,3.43,5.67,5.1l.65.64.6.62.2.19.6.6.18.16L109.08,60,108,69.49l0,0a38,38,0,0,1-6.13,6.8c-6.51,5.14-14.13,7.66-22,9.67l-1.56.82-1.67,0a119.27,119.27,0,0,1-18.35,2.42l-17.39,0C29.79,88.22,19,86,9,81ZM63.76,32.3a15.07,15.07,0,0,0-3.51,4.92c-.51.34-1.12,1.06-1.51,1-1.22-.33-.54-1.52-.75-2.33.71-2.08,3.27-3.14,3.29-5.79A26.65,26.65,0,0,0,49.4,32.27c2.58-.07,5,.11,7.07,1.82C54.4,38.32,50.63,35,47.85,36c-.11-2.79-1.38-4-4.33-3.75a91.05,91.05,0,0,1-10.45.07c-3.15-.11-5.05,1.12-5.56,4.29-1,1.31-2.22.76-2.29-.32-.16-2.46-1.66-1.18-2.69-1.28-3.6-.52-6,1.9-8.9,3.45a8.82,8.82,0,0,0,5.9,2.13c1.31,1.14,3,.43,4.44.92A39,39,0,0,0,31.87,43c2.39.19,2.75-1.7,2.69-2.84-.11-1.91-1.93-1.17-3.15-1-1,.11-2.05.38-3.08.58-1-1.79.4-2.32,1.56-3a11.21,11.21,0,0,0,1.18-.13,6.68,6.68,0,0,1,5.61,1.23c1.69,1.35-.48,2.54-.61,3.87-.27,2.56,1.51,1.24,2.47,1.48l0-.1c5.71,1.54,11.5.46,17.26.51L62.35,43c2.9-.21,5.89.38,8.67-.94a60.4,60.4,0,0,0,17-3,33.12,33.12,0,0,0,8.8-3c-2.35-2.43-5-2.09-7.69-1.87-.3,0-1.27-.06-1,.57.43.93.82,2.31-.26,2.09s-3.14-.1-3.31-2.17c.6-2-.54-2.3-2.09-2.2a35,35,0,0,1-7.91-.78.86.86,0,0,0-.54-.5c-2.46-.39-4.8-1.36-7.38-1.22C65,30.07,63.78,30.32,63.76,32.3Zm-27.4,22c-7.67-1.84-15.75-1.46-23.69-5.15,1.94,4.6,5.23,6,8.79,6.8C43,60.79,64.57,60.63,85.9,54.58c4.22-1.19,8.64-2.76,11-7.35-1.78-.45-3.07.45-4.41.89-3.67,1.23-7.44,2-11.18,3-6.87,1.77-14,1.62-20.85,3.17Zm4.83,6.59c-7.52,0-14.84-2.1-22.87-2.65,25,25.48,61,14.34,73.16-3.37a98.06,98.06,0,0,1-34.33,6ZM52.45,83.21c4.6-.45,10.18-.89,15.73-1.54,11.21-1.32,21.94-4.28,31.47-10.51,7-4.56,8.17-9,4.71-15.36-3-5.43-6.37-5.57-10-.78A49.28,49.28,0,0,1,56.42,75.13c-17.69,1-32.45-5.61-43.18-20.19-.5-.69-1-1.66-2.17-1.57-5.63.46-10.24,10-7.3,15,2.32,3.91,6.06,5.92,9.93,7.75C25.67,81.76,38.62,82.35,52.45,83.21ZM8,38.74c.23,3.66,1.36,6.14,4.23,7.71A41.45,41.45,0,0,0,27.71,51a171.9,171.9,0,0,0,31.61,1.15c11.41-.81,22.57-2.45,33.39-6.11,4.24-1.43,8.25-4,8.52-9.92-14.52,7.29-30.06,8.8-45.78,9.26C39.46,45.82,23.46,46.07,8,38.74ZM4,74.1c1.76,1.34,3.43,2.82,5.29,4,9,5.72,19.2,7.32,29.55,8.53,17.28,2,34-.43,50.44-5.75,3.9-1.26,7.48-3.48,8.46-5C66.6,87.47,35.25,90.37,4,74.1ZM68.23,21.91c-1.44.41-3.84-.92-4.13,1.06-.17,1.18-.4,4.27,1.25,4.42C71.39,28,77,30.48,83,30.84c2.43.14,3.39-.79,3.37-3.21,0-2.27-.38-3.88-3.13-4.11C78.26,23.09,73.26,22.46,68.23,21.91ZM29,28c0-1.44.06-3.18-1.91-2.78-6.47,1.31-13,2.53-18.35,6.9-1.21,1-1.86,2.3-.73,3.79s2.55,2,4.14.81c4-2.95,8.63-4.28,13.39-5.35C27.29,31,29.37,30.64,29,28ZM56.4,21.88l-9.58.86a2.67,2.67,0,0,1-.4,0c-.73,0-1.22.12-1.3,1.05-.15,2,3.12,5.6,5.13,5.36,3.63-.42,7.25-1,10.86-1.61,1.18-.19,1.68-.78,1.41-2.21C61.83,21.59,59.15,21.79,56.4,21.88ZM38,30.81,44.67,30c.58-.07,1.21-.66.88-1-1.81-1.59-1-5.44-4.37-5.47a89,89,0,0,0-9,.83c-.85.08-.89.5-1,1.29C30.8,29.55,32.35,30.84,38,30.81ZM88.08,27.9c-.8,2.2.64,2.88,2.45,3.4a55.66,55.66,0,0,1,7,2.28c1.65.73,2.65.58,3.66-.92,1.26-1.88-.33-2.63-1.33-3.43a25.5,25.5,0,0,0-8.51-4.09C88.69,24.32,87.53,24.94,88.08,27.9Z"/>
        <path class="cls-2" d="M106.42,54.23l-.6-.62Z"/>
        <path class="cls-2" d="M107.22,55l-.6-.6Z"/>
        <path class="cls-3" d="M52.45,83.21c-13.83-.86-26.78-1.45-38.75-7.11-3.87-1.83-7.61-3.84-9.93-7.75-2.94-4.94,1.67-14.52,7.3-15,1.16-.09,1.67.88,2.17,1.57C24,69.52,38.73,76.08,56.42,75.13A49.28,49.28,0,0,0,94.36,55c3.63-4.79,7-4.65,10,.78,3.46,6.33,2.28,10.8-4.71,15.36-9.53,6.23-20.26,9.19-31.47,10.51C62.63,82.32,57.05,82.76,52.45,83.21Z"/>
        <path class="cls-4" d="M57.15,60.85a98.06,98.06,0,0,0,34.33-6c-12.2,17.71-48.19,28.85-73.16,3.37,8,.55,15.35,2.7,22.87,2.65A40.26,40.26,0,0,0,57.15,60.85Z"/>
        <path class="cls-4" d="M8,38.74c15.49,7.33,31.49,7.08,47.48,6.61,15.72-.46,31.26-2,45.78-9.26C101,42,97,44.58,92.71,46c-10.82,3.66-22,5.3-33.39,6.11A171.9,171.9,0,0,1,27.71,51,41.45,41.45,0,0,1,12.2,46.45C9.33,44.88,8.2,42.4,8,38.74Z"/>
        <path class="cls-3" d="M4,74.1c31.25,16.27,62.6,13.37,93.74,1.73-1,1.57-4.56,3.79-8.46,5-16.43,5.32-33.16,7.76-50.44,5.75C28.49,85.42,18.3,83.82,9.29,78.1,7.43,76.92,5.76,75.44,4,74.1Z"/>
        <path class="cls-4" d="M68.23,21.91c5,.55,10,1.18,15,1.61,2.75.23,3.11,1.84,3.13,4.11,0,2.42-.94,3.35-3.37,3.21C77,30.48,71.39,28,65.35,27.39c-1.65-.15-1.42-3.24-1.25-4.42C64.39,21,66.79,22.32,68.23,21.91Z"/>
        <path class="cls-4" d="M29,28c.39,2.63-1.69,3-3.46,3.37-4.76,1.07-9.38,2.4-13.39,5.35-1.59,1.17-3,.68-4.14-.81s-.48-2.8.73-3.79c5.33-4.37,11.88-5.59,18.35-6.9C29,24.83,29,26.57,29,28Z"/>
        <path class="cls-4" d="M56.4,21.88c2.75-.09,5.43-.29,6.12,3.46.27,1.43-.23,2-1.41,2.21-3.61.59-7.23,1.19-10.86,1.61-2,.24-5.28-3.4-5.13-5.36.08-.93.57-1.06,1.3-1.05a2.67,2.67,0,0,0,.4,0Z"/>
        <path class="cls-4" d="M38,30.81c-5.64,0-7.19-1.26-6.82-5.14.08-.79.12-1.21,1-1.29a89,89,0,0,1,9-.83c3.33,0,2.56,3.88,4.37,5.47.33.3-.3.89-.88,1Z"/>
        <path class="cls-4" d="M88.08,27.9c-.55-3,.61-3.58,3.24-2.76a25.5,25.5,0,0,1,8.51,4.09c1,.8,2.59,1.55,1.33,3.43-1,1.5-2,1.65-3.66.92a55.66,55.66,0,0,0-7-2.28C88.72,30.78,87.28,30.1,88.08,27.9Z"/>
        <path class="cls-5" d="M92.47,48.12c-3.67,1.23-7.44,2-11.18,3-6.87,1.77-14,1.62-20.85,3.17H36.36c-7.67-1.84-15.75-1.46-23.69-5.15,1.94,4.6,5.23,6,8.79,6.8C43,60.79,64.57,60.63,85.9,54.58c4.22-1.19,8.64-2.76,11-7.35C95.1,46.78,93.81,47.68,92.47,48.12Z"/>
        <path class="cls-1" d="M58.29,89.17a46.23,46.23,0,0,1-17.39,0Z"/>
        <path class="cls-6" d="M89.14,34.18c-.3,0-1.27-.06-1,.57.43.93.82,2.31-.26,2.09s-3.14-.1-3.31-2.17c.6-2-.54-2.3-2.09-2.2a35,35,0,0,1-7.91-.78.86.86,0,0,0-.54-.5c-2.46-.39-4.8-1.36-7.38-1.22-1.68.1-2.89.35-2.91,2.33a15.07,15.07,0,0,0-3.51,4.92h0c-.51.34-1.12,1.06-1.51,1-1.22-.33-.54-1.52-.75-2.33.71-2.08,3.27-3.14,3.29-5.79A26.65,26.65,0,0,0,49.4,32.27c2.58-.07,5,.11,7.07,1.83C54.4,38.32,50.63,35,47.85,36c-.11-2.79-1.38-4-4.33-3.75a91.05,91.05,0,0,1-10.45.07c-3.15-.11-5.05,1.12-5.56,4.29-1,1.31-2.22.76-2.29-.32-.16-2.46-1.66-1.18-2.69-1.28-3.6-.52-6,1.9-8.9,3.45a8.82,8.82,0,0,0,5.9,2.13c1.31,1.14,3,.43,4.44.92A39,39,0,0,0,31.87,43c2.39.19,2.75-1.7,2.69-2.84-.11-1.91-1.93-1.17-3.15-1-1,.11-2.05.38-3.08.58-1-1.79.4-2.32,1.56-3a11.21,11.21,0,0,0,1.18-.13,6.68,6.68,0,0,1,5.61,1.23c1.69,1.35-.48,2.54-.61,3.87-.27,2.56,1.51,1.24,2.47,1.48l0-.1c5.71,1.54,11.5.46,17.26.51L62.35,43h0c2.9-.21,5.89.38,8.67-.94a60.4,60.4,0,0,0,17-3,33.12,33.12,0,0,0,8.8-3C94.48,33.62,91.78,34,89.14,34.18ZM64.76,40.52c-.26-.7-1.47-1.27-.87-2,.83-1,2.26-.62,3.32-.36,1.45.35.6,1.38.25,2.18Zm17.57-4.15-4.87.23c-.07.16-.17.34-.26.51.09-.17.19-.35.26-.51-.76-.39-2.13.45-2.32-.83-.15-1,.89-1.54,1.84-1.65,1.17-.15,2.36-.15,3.55-.21C82,34.08,82.76,34.79,82.33,36.37Z"/>
        <path class="cls-1" d="M57.15,60.85a40.26,40.26,0,0,1-16,0Z"/>
        <path class="cls-7" d="M31.34,12.83l-.78.94Z"/>
        <path class="cls-1" d="M80.53,33.91c1.48.17,2.23.88,1.8,2.46l-4.87.23c-.76-.39-2.13.45-2.32-.83-.15-1,.89-1.54,1.84-1.65C78.15,34,79.34,34,80.53,33.91Z"/>
        <path class="cls-1" d="M67.46,40.35l-2.7.17c-.26-.7-1.47-1.27-.87-2,.83-1,2.26-.62,3.32-.36C68.66,38.52,67.81,39.55,67.46,40.35Z"/>
      </g>
    </g>
  </g>
</svg>
