<svg xmlns="http://www.w3.org/2000/svg" width="132.73" height="63.03" viewBox="0 0 132.73 63.03">
  <defs>
    <style>
      .cls-1 {
        fill: #050105;
      }

      .cls-2 {
        fill: #fd9402;
      }

      .cls-3 {
        fill: #fac406;
      }

      .cls-4 {
        fill: #fefefe;
      }

      .cls-5 {
        fill: #fddf8d;
      }
    </style>
  </defs>
  <g id="Layer_2" data-name="Layer 2">
    <g id="Layer_1-2" data-name="Layer 1">
      <g>
        <path class="cls-1" d="M98.35,3.37c.12,2.92,2,2.72,4,2.19,7.43-2,13.91,1.41,15.77,9,1,4.31,3.06,6.26,7.46,6.46,3.44.15,6.28,2,7,5.54.62,2.89-1,5.26-3.25,6.9-1,.69-2.21,1.54-3.7.67s-1.36-2.33-1-3.52c.57-1.68,1.2-2.88-1.31-3.5-2.07-.51-3.19-.38-3.94,1.89-.64,1.93-1.26,3.53-.64,5.73,2.06,7.37-.18,11.14-7.83,13.16-5.47,1.45-11,2.46-16.58,3.65-.39.08-.8,0-1.2.06-1.12.14-2.86-1.81-3.21.26s1.77,2.86,3.52,3.06a24.68,24.68,0,0,0,5.63-.11c1.86-.21,3.65-.3,4.41,1.73.82,2.22-1.06,4-2.37,4.61-7.34,3.56-15.78,2.36-19.44-6.87-1-2.47-2.65-3.65-4.22-2.37C74,54.79,70,54.15,66.15,54.73c-4.86.73-9.61,1.94-14.64,1.92-6.54,0-12.71-.78-18.43-4.25-2.73-1.65-6.16-.73-9.18-2.15a16.43,16.43,0,0,1-5.73-4.07c-2.53-3-7.88-3.68-10.31-.74-1.11,1.33-2,3.48.61,4.83,2.35,1.21,3.07,3.14,1.36,5.25-1.49,1.82-3.51,1.25-5.31.23-2.7-1.53-4.88-3.52-4.47-7s1-6.72,4.85-8.51c1.88-.88,3.64-2.64,5.63-2.82,5.26-.48,8.16-3.65,10.68-7.75A21,21,0,0,1,33.94,20c1.83-.49,2.42-1.64,2.66-3.5.56-4.45,2-8.42,6.34-10.87a10.09,10.09,0,0,1,7.29-1.28c3.54,1.88,6.25-.14,9-1.9,7,2.84,14,1.14,21-.09,1.12,0,2.3.34,3.25-.6h.38l.3-.23A6,6,0,0,0,88.67.35C92.55-.73,95.61.81,98.35,3.37ZM80.93,4.72,70.41,5.91c3.94.69,7.8.75,11.43-1.08a17.94,17.94,0,0,0,9.47-2.6ZM50.06,28.23a15.63,15.63,0,0,0-9.57,5.89C36,39.45,37,41.91,43.91,43.46,50,45.72,56,43.53,62,43.15a2.35,2.35,0,0,0,2-1.76c2.31-7-3.9-14.54-11.38-13.85l-1.47,0C50.58,27.42,50.29,27.77,50.06,28.23Zm24.47-5c1,4.47.83,4.8-2.65,5.94A15.08,15.08,0,0,0,68,30.72c-1.07.74-3.15,1.68-2.39,3.06,1.44,2.61.41,5.45,1.18,7.79,4.35.21,8.13-1.37,12.08-2.06,7-1.21,8.22-7,9.18-12.66.33-1.93-.71-3.33-2.51-4.4-2-1.18-3.14-.23-4.54.87C79.16,24.75,77.23,26,74.53,23.22ZM40.07,20.9c-6.22.43-11.22,3.6-15.48,7.73-3.53,3.43-2.36,6.89,2.35,8.49,1.52.52,3.09.91,4.62,1.4,1.92.6,3.69.21,4.48-1.6a19.41,19.41,0,0,1,9.87-10c2.24-1.07,2-2.34.34-3.39C44.37,22.36,42.66,20.57,40.07,20.9Zm77.2,2.27c-.15-2.38-.07-4.82-1.33-7-.71-1.21-1.48-2-3.23-1.23-6.18,2.85-11.52,12-10.87,18.76.13,1.37.46,2,1.85,1.82C112.32,34.69,117.86,32.25,117.27,23.17Zm-20.62,14c.95-.16,3.41.13,2.81-1.31-2.17-5.25,1.29-9.26,2.36-13.76.14-.59.86-1.23.2-1.68-1.73-1.18-3.63-.08-5.46-.15-1.55-.06-.84,1.39-.91,2.16-.33,3.67.41,7.42-1.81,10.91C91.92,36.34,92.62,37.16,96.65,37.16ZM72,47.09c-.15-1.14.78-3.18-1.75-3.41-3.71-.34-8.87,2.43-8.53,4.69.23,1.45-1.74,4.33,2.07,4.24C70.31,52.48,71.91,51.51,72,47.09Zm33.86-4.42c-.87-1.24,1.81-4.47-2.06-4.55-5.15-.12-6.21,1.05-6.09,6.28,0,1.51-.71,3.66,2.3,3.55C104.87,47.77,105.91,47,105.84,42.67ZM51.64,54.11c5,0,6.1-1.4,5.06-6.25-.32-1.53-1.37-2.19-2.6-1.7-2.43,1-5.94-1.24-7.27,1.19C44.72,51.18,47.12,54.11,51.64,54.11Zm38.9-38.54c.21,1.31.86,2.11,2.09,2.15,5.5.16,10.88-.5,15.86-3a12.58,12.58,0,0,0,3.23-3,1.35,1.35,0,0,0-.24-1.83c-.45-.46-1-.24-1.42.1C104.34,14.6,97.38,14.87,90.54,15.57ZM83.6,13.32c4.7-.32,8.4-.46,12.07-.84s7.6-1,10.92-3.11c.64-.4,1.85-.94,1.47-2a1.78,1.78,0,0,0-2.44-.76A127.55,127.55,0,0,1,83.6,13.32Zm0-2.82c3.39-1,7-1,10.34-2.38,1-.39,2.28-.08,1.72-1.75-.38-1.13-1.24-1.89-2.47-1.45A75.53,75.53,0,0,1,82.82,7.39c-.63.13-1.77.37-1.53,1.37S82.17,10.76,83.6,10.5ZM35.35,43.92c.29,3-.9,6.51,3.42,8.23,2.09.83,2.46.58,2.64-1.51C41.78,46.47,40.78,43.59,35.35,43.92ZM116.62,40c-.22-2.29.48-4.59-2.57-4.52-2.71.06-3.34,1.77-3.15,4.09.14,1.71-.28,4.6,1.44,4.55C114.24,44.07,117.09,42.78,116.62,40ZM28.21,44c.11,2.06-.91,5.07,3.23,4.51s.89-3.55,1.5-5.29c.89-2.56-2.25-2.17-3.53-2.28C27.64,40.76,27.73,42.44,28.21,44Zm49,1.81c.31.57-1.16,3.27,1.85,2.9,3.89-.49,2.51-4.37,3.74-6.58.78-1.39-.9-1.37-1.48-1.22C79.15,41.43,76.19,41.34,77.21,45.77ZM47,10.83c-2.18-.08-3.37,1.49-3.83,3.83-.28,1.44.57,2,1.83,1.88,2.76-.19,3.6-2.56,4.44-4.52C49.82,11,48.37,10.82,47,10.83ZM60.23,21.27c3.56-1.7,6.05-4.42,8.27-7.61-3,1.32-5.11,5.38-9.32,2.75C60.43,18,59.62,19.7,60.23,21.27ZM92.28,39c-2.75,2.34-2.67,4.86-3.58,6.92-.6,1.37,0,2.14,1,2.46a1.79,1.79,0,0,0,2.53-1.7C92.37,44.41,92.28,42.16,92.28,39ZM73.63,9.14c-2.8-2-5.36-.05-7.92-.19-.6,0-.84.53-.84,1.1s.28,1.15.85,1.12C68.46,11,71.63,12.5,73.63,9.14Zm3.51,5.53c1-.26,2.77,0,2.48-1.56-.26-1.36-.79-3.47-2.7-3.35-1.66.11-2.82,1.89-2.87,3.38C74,15,76,14.27,77.14,14.67Zm8.18,38.89c1.47,4.13,4.22,5.29,7.84,5.82ZM20.41,36.43C20.84,40,19,43.17,23,46.24,22.25,42.48,24.18,39.29,20.41,36.43ZM81,17c2.76-.16,5,1.72,8.35,2.24A11.15,11.15,0,0,0,81,17ZM60,8.15c.88.52,1.87.66,1.85-.42A2.13,2.13,0,0,0,60,5.58c-1.19-.16-2.31.16-2.43,1.35C57.36,9.12,59.5,7.33,60,8.15Zm48.38,30.12a8.53,8.53,0,0,0,.52,8C109,42.82,109.76,40.49,108.42,38.27Z"/>
        <path class="cls-2" d="M74.53,23.22c2.7,2.81,4.63,1.53,6.44.1,1.4-1.1,2.56-2.05,4.54-.87,1.8,1.07,2.84,2.47,2.51,4.4-1,5.68-2.21,11.45-9.18,12.66-4,.69-7.73,2.27-12.08,2.06-.77-2.34.26-5.18-1.18-7.79-.76-1.38,1.32-2.32,2.39-3.06a15.08,15.08,0,0,1,3.91-1.56C75.36,28,75.58,27.69,74.53,23.22Z"/>
        <path class="cls-2" d="M40.07,20.9c2.59-.33,4.3,1.46,6.18,2.62,1.68,1.05,1.9,2.32-.34,3.39a19.41,19.41,0,0,0-9.87,10c-.79,1.81-2.56,2.2-4.48,1.6-1.53-.49-3.1-.88-4.62-1.4-4.71-1.6-5.88-5.06-2.35-8.49C28.85,24.5,33.85,21.33,40.07,20.9Z"/>
        <path class="cls-2" d="M117.27,23.17c.59,9.08-5,11.52-13.58,12.39-1.39.14-1.72-.45-1.85-1.82C101.19,27,106.53,17.83,112.71,15c1.75-.81,2.52,0,3.23,1.23C117.2,18.35,117.12,20.79,117.27,23.17Z"/>
        <path class="cls-2" d="M51.16,27.58l1.47,0c2.3,1.48,2.73,3.65,2.56,6.22a22.08,22.08,0,0,0,.36,6.4c.54,2.23-.4,2.46-2.17,2.65-3.15.34-6.41-.78-9.47.65-6.89-1.55-7.87-4-3.42-9.34a15.63,15.63,0,0,1,9.57-5.89Z"/>
        <path class="cls-3" d="M43.91,43.46c3.06-1.43,6.32-.31,9.47-.65,1.77-.19,2.71-.42,2.17-2.65a22.08,22.08,0,0,1-.36-6.4c.17-2.57-.26-4.74-2.56-6.22,7.48-.69,13.69,6.89,11.38,13.85a2.35,2.35,0,0,1-2,1.76C56,43.53,50,45.72,43.91,43.46Z"/>
        <path class="cls-2" d="M96.65,37.16c-4,0-4.73-.82-2.81-3.83,2.22-3.49,1.48-7.24,1.81-10.91.07-.77-.64-2.22.91-2.16,1.83.07,3.73-1,5.46.15.66.45-.06,1.09-.2,1.68-1.07,4.5-4.53,8.51-2.36,13.76C100.06,37.29,97.6,37,96.65,37.16Z"/>
        <path class="cls-4" d="M72,47.09c-.07,4.42-1.67,5.39-8.21,5.52-3.81.09-1.84-2.79-2.07-4.24-.34-2.26,4.82-5,8.53-4.69C72.76,43.91,71.83,46,72,47.09Z"/>
        <path class="cls-4" d="M105.84,42.67c.07,4.31-1,5.1-5.85,5.28-3,.11-2.27-2-2.3-3.55-.12-5.23.94-6.4,6.09-6.28C107.65,38.2,105,41.43,105.84,42.67Z"/>
        <path class="cls-4" d="M51.64,54.11c-4.52,0-6.92-2.93-4.81-6.76,1.33-2.43,4.84-.23,7.27-1.19,1.23-.49,2.28.17,2.6,1.7C57.74,52.71,56.63,54.12,51.64,54.11Z"/>
        <path class="cls-4" d="M90.54,15.57c6.84-.7,13.8-1,19.52-5.53.43-.34,1-.56,1.42-.1a1.35,1.35,0,0,1,.24,1.83,12.58,12.58,0,0,1-3.23,3c-5,2.48-10.36,3.14-15.86,3C91.4,17.68,90.75,16.88,90.54,15.57Z"/>
        <path class="cls-4" d="M83.6,13.32a127.55,127.55,0,0,0,22-6.68,1.78,1.78,0,0,1,2.44.76c.38,1-.83,1.57-1.47,2-3.32,2.08-7.12,2.71-10.92,3.11S88.3,13,83.6,13.32Z"/>
        <path class="cls-4" d="M83.6,10.5c-1.43.26-2.06-.7-2.31-1.74s.9-1.24,1.53-1.37A75.53,75.53,0,0,0,93.19,4.92c1.23-.44,2.09.32,2.47,1.45.56,1.67-.77,1.36-1.72,1.75C90.6,9.49,87,9.52,83.6,10.5Z"/>
        <path class="cls-4" d="M35.35,43.92c5.43-.33,6.43,2.55,6.06,6.72-.18,2.09-.55,2.34-2.64,1.51C34.45,50.43,35.64,47,35.35,43.92Z"/>
        <path class="cls-4" d="M116.62,40c.47,2.77-2.38,4.06-4.28,4.12-1.72,0-1.3-2.84-1.44-4.55-.19-2.32.44-4,3.15-4.09C117.1,35.42,116.4,37.72,116.62,40Z"/>
        <path class="cls-4" d="M28.21,44c-.48-1.52-.57-3.2,1.2-3.06,1.28.11,4.42-.28,3.53,2.28-.61,1.74,2.71,4.72-1.5,5.29S28.32,46,28.21,44Z"/>
        <path class="cls-4" d="M77.21,45.77c-1-4.43,1.94-4.34,4.11-4.9.58-.15,2.26-.17,1.48,1.22-1.23,2.21.15,6.09-3.74,6.58C76.05,49,77.52,46.34,77.21,45.77Z"/>
        <path class="cls-4" d="M60.23,21.27c-.61-1.57.2-3.3-1-4.86C63.39,19,65.5,15,68.5,13.66,66.28,16.85,63.79,19.57,60.23,21.27Z"/>
        <path class="cls-4" d="M92.28,39c0,3.19.09,5.44,0,7.68a1.79,1.79,0,0,1-2.53,1.7c-1.08-.32-1.63-1.09-1-2.46C89.61,43.83,89.53,41.31,92.28,39Z"/>
        <path class="cls-4" d="M73.63,9.14c-2,3.36-5.17,1.87-7.91,2-.57,0-.86-.52-.85-1.12s.24-1.13.84-1.1C68.27,9.09,70.83,7.16,73.63,9.14Z"/>
        <path class="cls-5" d="M77.14,14.67c-1.13-.4-3.16.3-3.09-1.53,0-1.49,1.21-3.27,2.87-3.38,1.91-.12,2.44,2,2.7,3.35C79.91,14.68,78.17,14.41,77.14,14.67Z"/>
        <path class="cls-4" d="M20.41,36.43c3.77,2.86,1.84,6,2.56,9.81C19,43.17,20.84,40,20.41,36.43Z"/>
        <path class="cls-4" d="M60,8.15c-.54-.82-2.68,1-2.47-1.22.12-1.19,1.24-1.51,2.43-1.35a2.13,2.13,0,0,1,1.89,2.15C61.91,8.81,60.92,8.67,60,8.15Z"/>
        <path class="cls-3" d="M51.16,27.58l-1.1.65C50.29,27.77,50.58,27.42,51.16,27.58Z"/>
      </g>
    </g>
  </g>
</svg>
