<svg xmlns="http://www.w3.org/2000/svg" width="134.05" height="80.41" viewBox="0 0 134.05 80.41">
  <defs>
    <style>
      .cls-1 {
        fill: #0c0440;
      }

      .cls-2 {
        fill: #1c0226;
      }

      .cls-3 {
        fill: #0f082c;
      }

      .cls-4 {
        fill: #010001;
      }

      .cls-5 {
        fill: #0a0323;
      }

      .cls-6 {
        fill: #fefefe;
      }

      .cls-7 {
        fill: #040204;
      }

      .cls-8 {
        fill: #0f0847;
      }

      .cls-9 {
        fill: #120636;
      }

      .cls-10 {
        fill: #280768;
      }

      .cls-11 {
        fill: #200309;
      }

      .cls-12 {
        fill: #e87995;
      }

      .cls-13 {
        fill: #e45060;
      }

      .cls-14 {
        fill: #f0697b;
      }

      .cls-15 {
        fill: #ee5f7c;
      }

      .cls-16 {
        fill: #db5f6b;
      }

      .cls-17 {
        fill: #ca4854;
      }

      .cls-18 {
        fill: #580408;
      }

      .cls-19 {
        fill: #e9557c;
      }

      .cls-20 {
        fill: #7c0104;
      }

      .cls-21 {
        fill: #ca4650;
      }

      .cls-22 {
        fill: #e57192;
      }

      .cls-23 {
        fill: #7b1e26;
      }

      .cls-24 {
        fill: #6d0f1e;
      }

      .cls-25 {
        fill: #dd5066;
      }

      .cls-26 {
        fill: #bb3544;
      }

      .cls-27 {
        fill: #f9465f;
      }

      .cls-28 {
        fill: #570002;
      }

      .cls-29 {
        fill: #d74f5b;
      }

      .cls-30 {
        fill: #e183a2;
      }

      .cls-31 {
        fill: #90090b;
      }

      .cls-32 {
        fill: #e85f6b;
      }

      .cls-33 {
        fill: #e24e53;
      }

      .cls-34 {
        fill: #d27ca0;
      }

      .cls-35 {
        fill: #ef737f;
      }

      .cls-36 {
        fill: #f57d91;
      }

      .cls-37 {
        fill: #f34144;
      }

      .cls-38 {
        fill: #750408;
      }

      .cls-39 {
        fill: #e04375;
      }

      .cls-40 {
        fill: #c84f66;
      }

      .cls-41 {
        fill: #900102;
      }

      .cls-42 {
        fill: #8e122b;
      }

      .cls-43 {
        fill: #ad263d;
      }

      .cls-44 {
        fill: #e9546b;
      }

      .cls-45 {
        fill: #b74050;
      }

      .cls-46 {
        fill: #cb4149;
      }

      .cls-47 {
        fill: #b22f44;
      }

      .cls-48 {
        fill: #f76f7f;
      }

      .cls-49 {
        fill: #e4839d;
      }

      .cls-50 {
        fill: #d65468;
      }

      .cls-51 {
        fill: #4e0001;
      }

      .cls-52 {
        fill: #ad2842;
      }

      .cls-53 {
        fill: #8f0c17;
      }

      .cls-54 {
        fill: #dc4863;
      }

      .cls-55 {
        fill: #bf3334;
      }

      .cls-56 {
        fill: #b32732;
      }

      .cls-57 {
        fill: #e15469;
      }

      .cls-58 {
        fill: #ed8ca8;
      }

      .cls-59 {
        fill: #d7536a;
      }

      .cls-60 {
        fill: #ba4b64;
      }

      .cls-61 {
        fill: #b5324c;
      }

      .cls-62 {
        fill: #4b0103;
      }

      .cls-63 {
        fill: #d4505e;
      }

      .cls-64 {
        fill: #fc7295;
      }

      .cls-65 {
        fill: #c23d4f;
      }

      .cls-66 {
        fill: #d25160;
      }

      .cls-67 {
        fill: #4b0511;
      }

      .cls-68 {
        fill: #ce4a5b;
      }

      .cls-69 {
        fill: #af2b3a;
      }

      .cls-70 {
        fill: #d47586;
      }

      .cls-71 {
        fill: #f0738a;
      }

      .cls-72 {
        fill: #de809d;
      }

      .cls-73 {
        fill: #900622;
      }

      .cls-74 {
        fill: #800f19;
      }

      .cls-75 {
        fill: #cc5d6f;
      }

      .cls-76 {
        fill: #800109;
      }

      .cls-77 {
        fill: #460002;
      }

      .cls-78 {
        fill: #a52823;
      }

      .cls-79 {
        fill: #d55569;
      }

      .cls-80 {
        fill: #7a112c;
      }

      .cls-81 {
        fill: #9a2734;
      }

      .cls-82 {
        fill: #9a2942;
      }

      .cls-83 {
        fill: #d87677;
      }

      .cls-84 {
        fill: #b0293d;
      }

      .cls-85 {
        fill: #3e0003;
      }

      .cls-86 {
        fill: #fc6b82;
      }

      .cls-87 {
        fill: #dc4a63;
      }

      .cls-88 {
        fill: #c84a67;
      }

      .cls-89 {
        fill: #430000;
      }

      .cls-90 {
        fill: #e3687b;
      }

      .cls-91 {
        fill: #aa2843;
      }

      .cls-92 {
        fill: #bb6370;
      }

      .cls-93 {
        fill: #cc3b39;
      }

      .cls-94 {
        fill: #7c080e;
      }

      .cls-95 {
        fill: #b0374a;
      }

      .cls-96 {
        fill: #9e3038;
      }

      .cls-97 {
        fill: #b93d57;
      }

      .cls-98 {
        fill: #d94162;
      }

      .cls-99 {
        fill: #5c0508;
      }

      .cls-100 {
        fill: #c94c5d;
      }

      .cls-101 {
        fill: #864251;
      }

      .cls-102 {
        fill: #800b17;
      }

      .cls-103 {
        fill: #b82338;
      }

      .cls-104 {
        fill: #810f1b;
      }

      .cls-105 {
        fill: #6f0a11;
      }

      .cls-106 {
        fill: #b64158;
      }

      .cls-107 {
        fill: #560001;
      }

      .cls-108 {
        fill: #983035;
      }

      .cls-109 {
        fill: #871d2f;
      }

      .cls-110 {
        fill: #eb7684;
      }

      .cls-111 {
        fill: #5d010c;
      }

      .cls-112 {
        fill: #ed7594;
      }

      .cls-113 {
        fill: #a63e4a;
      }

      .cls-114 {
        fill: #9d1d26;
      }

      .cls-115 {
        fill: #902133;
      }

      .cls-116 {
        fill: #a76372;
      }

      .cls-117 {
        fill: #dfa5ba;
      }

      .cls-118 {
        fill: #ded1d4;
      }

      .cls-119 {
        fill: #6f3652;
      }

      .cls-120 {
        fill: #3f0100;
      }

      .cls-121 {
        fill: #9081b5;
      }

      .cls-122 {
        fill: #cd4c5e;
      }

      .cls-123 {
        fill: #c25c6c;
      }

      .cls-124 {
        fill: #ea6f8a;
      }

      .cls-125 {
        fill: #6a4c82;
      }

      .cls-126 {
        fill: #ab2239;
      }

      .cls-127 {
        fill: #a92c2c;
      }

      .cls-128 {
        fill: #a23d69;
      }

      .cls-129 {
        fill: #dd7c93;
      }

      .cls-130 {
        fill: #ba464f;
      }

      .cls-131 {
        fill: #fa8298;
      }

      .cls-132 {
        fill: #e35569;
      }

      .cls-133 {
        fill: #570000;
      }

      .cls-134 {
        fill: #553050;
      }

      .cls-135 {
        fill: #8c0814;
      }

      .cls-136 {
        fill: #72040a;
      }

      .cls-137 {
        fill: #300d48;
      }

      .cls-138 {
        fill: #61386e;
      }

      .cls-139 {
        fill: #420f37;
      }

      .cls-140 {
        fill: #bd3550;
      }

      .cls-141 {
        fill: #76020d;
      }

      .cls-142 {
        fill: #5b040b;
      }

      .cls-143 {
        fill: #b22434;
      }

      .cls-144 {
        fill: #bf4b59;
      }

      .cls-145 {
        fill: #a33144;
      }

      .cls-146 {
        fill: #fe93ae;
      }

      .cls-147 {
        fill: #9a1231;
      }

      .cls-148 {
        fill: #df888f;
      }

      .cls-149 {
        fill: #b28481;
      }

      .cls-150 {
        fill: #ea647c;
      }
    </style>
  </defs>
  <g id="Layer_2" data-name="Layer 2">
    <g id="Layer_1-2" data-name="Layer 1">
      <g>
        <path class="cls-1" d="M96,2.76a.67.67,0,0,0,.71.14,4.43,4.43,0,0,0,2.5,1A77.19,77.19,0,0,1,117,11.67c-.24.81-.91.77-1.55.79C108,8.42,100,6,91.88,3.67c.85-.16,1.88.23,2.48-.76Z"/>
        <path class="cls-2" d="M11.25,59.28C8.66,57.6,7,55,4.77,52.92L1.53,47.09C-.73,40.44-.63,34,2.79,27.66A4.72,4.72,0,0,0,3,26.13c.93-.9,1.08-2.44,2.45-3a3.39,3.39,0,0,1,.81,2.25C3.14,30.44.87,35.56,2,41.86,3.31,49,7.65,53.94,12.72,58.52,12.5,59.29,11.84,59.24,11.25,59.28Z"/>
        <path class="cls-3" d="M131.45,47.88l-1.53,2.58-2.33,2.43-1-1c.77-1.24,1.53-2.48,2.31-3.72a21,21,0,0,0,1.74-20.17l1-1C135.41,34.05,134.28,41,131.45,47.88Z"/>
        <path class="cls-4" d="M131.68,27.08l-1,1c-3.3-6.94-8.88-11.65-15.26-15.59.64,0,1.31,0,1.55-.79C123.27,15.48,129,19.81,131.68,27.08Z"/>
        <path class="cls-5" d="M94.36,2.91c-.6,1-1.63.6-2.48.76a164,164,0,0,0-26-1.75C48,2.11,31.49,6.42,16.3,15.8l-1.09-1.09c6.28-5,13.59-7.86,21.12-10.17,4.45-1.38,9.05-2.27,13.59-3.37a12.55,12.55,0,0,0,4.46-.7,225.59,225.59,0,0,1,29.07,0c1.38,1.07,3,.63,4.5.65l1.2.17c.79.86,1.81.71,2.82.62a.77.77,0,0,0,.77.12Z"/>
        <path class="cls-4" d="M15.21,14.71,16.3,15.8a61.44,61.44,0,0,0-10,9.6,3.39,3.39,0,0,0-.81-2.25A29.15,29.15,0,0,1,15.21,14.71Z"/>
        <path class="cls-4" d="M54.38.47a12.55,12.55,0,0,1-4.46.7c.59-.94,1.65-.7,2.5-1Z"/>
        <path class="cls-4" d="M88,1.12c-1.53,0-3.12.42-4.5-.65C85,.54,86.6-.14,88,1.12Z"/>
        <path class="cls-4" d="M94.36,2.91,92.74,2c1.15,0,2.37-.33,3.28.73Z"/>
        <path class="cls-4" d="M92,1.91c-1,.09-2,.24-2.82-.62C90.15,1.23,91.19,1,92,1.91Z"/>
        <path class="cls-6" d="M6.23,25.36c6.15-8.34,17.34-14.22,26-17.29,26.29-9.32,58.34-9.14,83.2,4.39,6.38,3.94,12,8.65,15.26,15.59A21,21,0,0,1,129,48.22c-.78,1.24-1.54,2.48-2.31,3.72l-5.8,5.71a87.94,87.94,0,0,1-15.06,8.15c-8.64,3.66-17.72,5.39-27,6.71a111.52,111.52,0,0,1-28.22,0c-9.07-1-17.68-3.71-26.21-6.79-2.68-2.1-6.24-2.6-8.85-4.84l-2.78-2.34C7.65,53.94,3.31,49,2,41.85.88,35.61,2.75,30.09,6.23,25.36Zm122,12.22a7.25,7.25,0,0,0-3.7-5.4c-3.15-1.45-4.35-3.82-5-6.82-.39-3.95-4.43-4.76-6.35-7.36-5-6.72-11.76-7.24-19.1-5.84a4,4,0,0,1-3.36-.43c-4-2.7-8.46-2.82-13.09-2.54a39.92,39.92,0,0,0-8.22,1.56A3.52,3.52,0,0,1,66,9.85c-1.09-1,.48-1.51.87-2.2,1.24-2.2,0-3-1.85-3.22a5.47,5.47,0,0,0-4.89,2.31c-.56.67-.68,1.7-1.93,1.77-4.43.27-8.52,1.84-12.56,3.76-.48-2-.33-4.26-2.83-4.54S39.17,9.59,38,11.31a3.87,3.87,0,0,0-.69,2.28c.3,3.56-1.59,4.27-4.59,3.79a5.66,5.66,0,0,0-2,0C24.58,18.6,18.46,20,15.43,26.25a16.16,16.16,0,0,1-3.6,5.11c-4.29,3.93-4.36,9.6-.4,13.89,1.64,1.77,3.41,3.45,5,5.29,5,5.82,11.33,7.18,18.53,5.93,1.21-.21,2.42-.75,3,.87,1.07,2.81,3.28,2.38,5.38,1.75a15.42,15.42,0,0,0,7.4-4.54c.91-1,2.29-1.65,3-.41s-1.07,1.13-1.74,1.6c-3.8,2.62-4.24,6.49-1.14,9.92A13,13,0,0,0,56.33,69c6.6,2.37,13.48,1.83,20.29,1.62a8.51,8.51,0,0,0,6.09-2.75c1.46-1.63,2.36-1.39,4-.08,2.29,1.88,5,1,4.86-1.75-.21-3.91,1.34-2.72,3.53-2.09,8.31,2.41,16.37-1.05,19.81-6.6a16,16,0,0,1,7-6.28C127.58,48.29,129.87,43,128.25,37.58Z"/>
        <path class="cls-7" d="M24.35,65.7c8.53,3.08,17.14,5.78,26.21,6.79a111.52,111.52,0,0,0,28.22,0c9.28-1.32,18.36-3.05,27-6.71a87.94,87.94,0,0,0,15.06-8.15l1,.93c-5.73,3.37-9.46,9.17-15.57,12.21a91.33,91.33,0,0,1-30.51,8.93,16.83,16.83,0,0,0-2.3.58c-11.23.3-22.43.21-33.3-3.2-4.68-1.46-9.35-2.93-13.61-5.44l1.1-1.17,3,.92C34.45,74,39,75,43.33,75.89c19.51,3.92,38.8,3.41,57.4-4.67l1.68-.72L105.66,69c.68-.11,1.28-.56,1.09-1.16s-.76-.39-1.06.15c-1.49.38-3,.6-4.23,1.7-.88.11-1.82,0-2.43.88-1.43.3-2.87.56-4.28.93a111.62,111.62,0,0,1-62.41-1L25,67.43C25.19,66.7,23.07,66.83,24.35,65.7Z"/>
        <path class="cls-8" d="M121.79,58.58l-1-.93,5.8-5.71,1,1A21.36,21.36,0,0,1,121.79,58.58Z"/>
        <path class="cls-9" d="M27.6,70.49l-1.1,1.17c-3.11-1-5.25-3.42-7.85-5.16-.28-2.55-2.72-2.71-4.26-3.86.06-.78.21-1.52,1.11-1.78,2.61,2.24,6.17,2.74,8.85,4.84-1.28,1.13.84,1,.65,1.73-1.11.57-.8,1.11.1,1.49A4.83,4.83,0,0,1,27.6,70.49Z"/>
        <path class="cls-10" d="M15.5,60.86c-.9.26-1.05,1-1.11,1.78l-3.14-3.36c.59,0,1.25,0,1.47-.76Z"/>
        <path class="cls-4" d="M128.25,37.58c1.62,5.45-.67,10.71-6.42,13.5a16,16,0,0,0-7,6.28c-3.44,5.55-11.5,9-19.81,6.6-2.19-.63-3.74-1.82-3.53,2.09.15,2.72-2.57,3.63-4.86,1.75-1.59-1.31-2.49-1.55-4,.08a8.51,8.51,0,0,1-6.09,2.75c-6.81.21-13.69.75-20.29-1.62a13,13,0,0,1-5.42-3.35c-3.1-3.43-2.66-7.3,1.14-9.92.67-.47,2.45-.43,1.74-1.6s-2.13-.63-3,.41a15.42,15.42,0,0,1-7.4,4.54c-2.1.63-4.31,1.06-5.38-1.75-.62-1.62-1.83-1.08-3-.87-7.2,1.25-13.56-.11-18.53-5.93-1.56-1.84-3.33-3.52-5-5.29-4-4.29-3.89-10,.4-13.89a16.16,16.16,0,0,0,3.6-5.11c3-6.21,9.15-7.65,15.25-8.87a5.66,5.66,0,0,1,2,0c3,.48,4.89-.23,4.59-3.79A3.87,3.87,0,0,1,38,11.31c1.2-1.72,2.25-3.87,4.86-3.58s2.35,2.53,2.83,4.54c4-1.92,8.13-3.49,12.56-3.76,1.25-.07,1.37-1.1,1.93-1.77A5.47,5.47,0,0,1,65,4.43c1.87.23,3.09,1,1.85,3.22-.39.69-2,1.19-.87,2.2a3.52,3.52,0,0,0,3.36.9A39.92,39.92,0,0,1,77.6,9.19c4.63-.28,9.09-.16,13.09,2.54a4,4,0,0,0,3.36.43c7.34-1.4,14.13-.88,19.1,5.84,1.92,2.6,6,3.41,6.35,7.36l-1,.1-2.4-2.6c-.35-.55-1-.7-1.26-.21a1.92,1.92,0,0,0,.49,2.79h0c-1.22,1.1-1.25,1.11-1.39.28-.26-1.5.5-3.22-1-4.46-2.17-3.38-4.37-6.71-8.92-7.11-4.81-1.7-9.32-.74-13.67,1.58A16.09,16.09,0,0,0,82.2,21C80.74,22.2,80,23.9,79,25.4c-.63.93-1.57,1.9-.31,2.92.55.44,1.19.14,1.21-.74l.32-1.29c.65.14,1-.24,1.28-.73.77-.31,2-1.24,1.17.78-.39,1-.93,2,.85,2.2a2,2,0,0,0,2-.52,2.27,2.27,0,0,0,.78-2.6h0c2.43-2-1.1-3.16-.69-4.88a28.85,28.85,0,0,1,5.87-3.91A26.2,26.2,0,0,1,102.07,15c2,1,4.43,1.34,5.84,3.4-.61.81-1.46.36-2.22.43-.66-.28-1.47-1.19-2-.37s.31,1.6.93,2.23a1.27,1.27,0,0,1-.77,1.54L101,19.64a9.84,9.84,0,0,0-7.48-1.32l5.57,2.44.84.85c-.41,2.08-1.91-.14-2.64.68a7.74,7.74,0,0,0-2.09-.93c-1.64-.24-4.09-.87-4.4,1.12-.26,1.62,2.26,1,3.53,1.37.59.83,1.55.86,2.42,1.08l1.42.52c1.58,1.86,5.06,1.93,5.06,5.32a.94.94,0,0,0,.79-.57c.19-.55.07-1.24.76-1.55.48.21,1.17,0,1.39.73-.53.42-.34.73.15,1,2,1.12,3.93.19,5.89,0,.59.23.33-1.28,1.66-.49,1.56.93,2.43,3.21,4.75,2.84l1.69,1.58.8.61c2.12,1.76-.22,3.24-.3,4.87a5,5,0,0,0-1.65,2.4c-3.09,2.43-3.09,2.72.12,4.35,1,.51.09,1.08.14,1.62-1.41,2.46.52,1.65,1.43,1.32,3.75-1.36,6.42-5.64,6.5-10.16C127.55,38.66,127.57,37.94,128.25,37.58ZM24.93,25.42v1.75c1.38,1.57,2.43.91,3.29-.54.3-.51,1-1.14.38-1.71s-1.36.28-2,.49l-1.67,0,.81-1.9c3.35-2.5,7.2-2.31,11.06-2.11L51.42,26.3c1.38.82,2.67,2,4.56,1.29-.35-1.71-1.55-2-2.87-2.2-4.29-1.79-8.29-4.32-13-5C36.44,19.1,32.72,19.52,29,20c-3.64.6-6.57,2.22-7.9,5.85-.34.92-.65,2.43.68,2.75,1.57.38,1.25-1.31,1.63-2.18ZM54,65c.58,1.12,1.29,2,2.88,1.23L54,64.16,52.43,62.5c-.54-.83,0-2.25-1.44-2.79-.44,1.47-.69,2.71.53,3.71A2.66,2.66,0,0,0,54,65ZM13.66,42.36l1.58,1.52c1.1,1.15,2.17,2.35,3.88,2.61,2.11,1.83,4.67,2.28,7.34,2.37,1.26,1.13,2.82.73,4.25.74,5.07,0,10.15,0,15.23,0,3.85,1,7.79,1.69,11.6,3-3-2.83-6.85-3.25-10.61-3.86-7-1.48-14.26.08-21.29-1.33-1.65-.57-3.48-.55-5-1.62-2.07-2.16-5.34-3.57-4.61-7.46-.23-.91.38-1.53.78-2.23a29.61,29.61,0,0,1,15.86-4c1.64.94,3.44.55,5.18.62a12.09,12.09,0,0,0,5.34,1.78c2.05,1.15,3.68,3.33,6.85,2.8-1.66-2.16-3.13-3.92-5.86-3.75l-1.55-.65c-.48-1.71-1.83-1.75-3.24-1.65-7.74-1.45-15.31-1.31-22.5,2.38-2,.22-4.72-2.24-5.75,1.56-.77,1.42-1.36,2.86-.47,4.64l1.46-3.68c1.3-1,1.41,0,1.51.93a.46.46,0,0,1-.14.47C12.39,39.12,12,40.77,13.66,42.36ZM37,53.72c2,.15,3.87-.63,6-1.32-2.35-1.19-4.13.18-6,.55a3.94,3.94,0,0,0-3.59,1.17A3,3,0,0,0,37,53.72Zm28.19-7.36c-.5-.12-1-.31-1.41.18-.5.68,0,1.16.44,1.61a3.13,3.13,0,0,0,3.89,1.16ZM69.33,67.3c-.85.17-1.8-.19-2.7.65,1.59.25,3,.79,4.29-.51,1.19-.09,2.54.4,3.4-.93a5.52,5.52,0,0,0,3-3.52c.37-1.37,0-2.6-1.41-2.76s-.8,1.3-1,2.07-.37,1.25-.55,1.88A23.8,23.8,0,0,1,69.33,67.3ZM87,58.65l-5.45-1.6C73.72,55.69,65.91,54.51,58,55.94c1.93,1.47,3.82.07,5.77.13,6,.19,11.81,1.54,17.71,2.35l4.64,1.06a14.19,14.19,0,0,0,5.11,1.35l4.88,1.58a13.46,13.46,0,0,0,5.51,0,9.25,9.25,0,0,0,8.83-3.2c1.27-1.15,2.82-2.06,3.4-3.83,1.59-4.68-.2-8.8-4.63-10.64a19.74,19.74,0,0,0-14.74-.64,4.31,4.31,0,0,0-2.49.69,24.23,24.23,0,0,0-12.61,9c5-2.36,8.92-6.68,14.48-8.05,1.83-.36,3.79.17,5.53-.8A16,16,0,0,1,108,46.52l.14,1.52-2.6.09a.89.89,0,0,1-.43,0,2.55,2.55,0,0,0-2.85.77c-.34.4-.09.78.21,1,1.32,1,2.8.4,4.22.35s1.55-1.14,1.42-2.27c3.33,1.5,3,4.6,3.28,7.45-.44,1.55-1.88,2.39-2.66,3.7-2.39.92-4.65,2.18-7.21,2.62a1.28,1.28,0,0,0-.48-.09l-9-1.63C90.54,59,88.74,58.91,87,58.65ZM47.66,53,44.3,55.33c-.67.31-2,.75-1.69,1.17.68.94,1.76.48,2.55-.29A8.7,8.7,0,0,0,49,53.62c0-.33.06-.8-.13-1C48.43,52.25,48,52.68,47.66,53Zm2.23-31.56c1.74.82,3.26,2.43,5.67,1l-4.15-1.67c-.65-.41-1.3-.81-1.95-1.23s-1.24-.78-1.67-.09c-.65,1,.46,1.19,1,1.54A8.06,8.06,0,0,0,49.89,21.41ZM78.3,37.51h4c1.53.2,3,.46,4.57.59.94.08,1.79-.13,1.23-1.44-3.3-1.49-6.56-.16-9.84.11a3.61,3.61,0,0,0-2.66.42A3,3,0,0,0,78.3,37.51ZM23.05,41.64c-.72-1.13-.89-3.69-2.44-2.91s.41,2.4.92,3.62a3.85,3.85,0,0,0,.74.89c.49.83,1.43,1.79,2.07,1C25.24,43.11,24.23,42.16,23.05,41.64ZM87.9,55.27c-1.16-.79-2-2.28-3.76-1.69-.31.11-.76.59-.71.79.37,1.46,2,1,2.85,1.72,2.84,1.33,5.75,2.12,8.92,1.09C92.62,57.05,90.29,56,87.9,55.27ZM63.49,50.56c-.45-.3-.9-.57-1.32-.89-.74-.56-1.44-1.15-2.18-1.72s-2-1.43-1.82.22,2,2.59,3.74,3.09a5,5,0,0,0,.78.1c1.21,1.28,2.51,2.13,4.45,1.08A8.52,8.52,0,0,0,63.49,50.56Zm42.33-17.81c-.83,0-1.91-.48-2.13.73-.15.81.72.79,1.34.81l7.85.31c3.26,1.12,3.65,3.7,3,7.06,2-.83,3.21-1.71,3.12-3.57a3.37,3.37,0,0,0-2.44-3.25c-1.17-.42-2.13-1.4-3.52-1.26C110.76,32.32,108.29,32.5,105.82,32.75Zm-5.92-1c1.24-.76,1.22-1.51,0-2.26A12.39,12.39,0,0,0,96,27c-2.15-1.18-4.39-.81-6.68-.35a5.77,5.77,0,0,0,3.56,1.07l2.37,1.63c-.27.94-1.11.86-1.82,1l-1.24-.17c-.93-.67-2-1.25-2.89-.21-.35.43.6.9,1.23,1.05,2,.91,3,3.33,5.51,3.35,1.59-.45,2.71-1.64,4-2.55ZM55.78,32.83c2.52-.75,4.36-2.61,6.47-4a56.43,56.43,0,0,1,14.53-4.66C71,23.06,66,24.78,61.18,27.71l-6.4,4.11c-1,.93-2.9.76-3.07,3A5.24,5.24,0,0,0,55.78,32.83Zm-21,3.78c-1.49-2.29-4.07-1.12-6.26-2.4a4,4,0,0,0,2.73,2.73,28.05,28.05,0,0,0,3.15,2.84,1.83,1.83,0,0,0,2.48-.31c.57-.81-.33-1.38-.87-1.91A10.57,10.57,0,0,0,34.77,36.61ZM112.12,44c1.4,1.29,1.51,3.67,3.83,4.45.86-2.91-1.42-3.91-3-5.32-2.59-2.08-5.33-3.74-8.87-3.1C101.35,40,98.53,39.5,96,41c3.06-1,6,.69,9,.46A25.41,25.41,0,0,1,112.12,44ZM96.59,36.61A9.75,9.75,0,0,0,92,38.39a13.15,13.15,0,0,0-5.64,4.35c-.54.69-1.66,1.46-.7,2.36s1.69-.23,2.09-1C88.94,41.88,91,40.65,93,39.3l6.18-1.73c3-.34,6,.27,9,.26A17.44,17.44,0,0,0,96.59,36.61ZM29.71,38.47A3.67,3.67,0,0,0,25.4,37a3,3,0,0,0,2.79,2.12c1.83,1.23,2.19,3.19,2.58,5.14.13.64.35,1.36,1.22,1.22s.95-.8,1-1.5C33.24,41.38,31.18,40.1,29.71,38.47ZM82.15,13c1.55.37,3.09.79,4.66,1.08.62.12,1.42.08,1.6-.77.14-.62-.41-.92-.9-1.12s-1.25-.4-1.88-.6C81.2,10.19,77,11,72.79,12.6,75.91,13.67,79,13.28,82.15,13ZM71,19.85c-4,.22-7.44,2.12-11.08,3.44-.84.3-1.88,1.21-1.46,2.13.55,1.24,1.6.25,2.38-.09,1.6-.69,3.16-1.47,4.75-2.19,3.77-1.72,7.77-1.95,11.83-1.86,1.39,0,1.39-.06,1.48-1.41A28.63,28.63,0,0,0,71,19.85ZM38.92,43.3c6.82-1.75,14.13-.79,20.79-3.45-7.93-.11-15.82-.06-23.35,2.72-1.3.63-1.19,1.2.15,1.51A2.73,2.73,0,0,0,38.92,43.3ZM47.43,14A4,4,0,0,0,44.14,18c2-.69,3.12-1.95,4.38-3A21.75,21.75,0,0,1,69.6,16.16c.76.45,1.63,1.72,2.33.71.85-1.22-.76-1.72-1.52-2.23C62.89,9.65,55.22,9.36,47.43,14ZM71.14,35a6,6,0,0,0,3.1-.94A15.3,15.3,0,0,1,86,33.47a9.25,9.25,0,0,0,1.92.52c.52.06,1.15-.09,1.23-.73,0-.29-.27-.69-.53-.94C85.06,29,74.41,30.45,71.14,35Zm29.29,17.33c-2.94-1.07-5.6-2.06-8.27-3a1,1,0,0,0-1.3.57c-.27.61.23,1,.56,1.36C93.23,53.29,97.22,53.87,100.43,52.28ZM77.83,67.79a5.33,5.33,0,0,0,4.44-2.46c.94-1.15.5-2.27-.23-3.3-.46-.66-1.07-1.41-2-1.07-1.11.42-.53,1.64-.84,2.46C78.73,64.76,78.35,66.15,77.83,67.79ZM53.64,37.23c3.81.53,6.64.66,9.42-.42C60.21,36.5,57.37,33.89,53.64,37.23ZM43.49,9.94c-3.61,1.4-4.9,3.58-4.25,6.25.12.52.23,1.08.88,1.17,1,.12,1.13-.64,1.08-1.28C41.06,13.94,42.11,12.23,43.49,9.94Zm32,40c2.73,1.45,4-.32,5.58-1.18.7-.39,1.55-1.11,1-1.88s-1.67-.58-2.5,0C78.36,47.83,77.12,48.77,75.51,50ZM49.8,46a15.61,15.61,0,0,0,9.1-1.79C55.07,43.77,52.26,43.88,49.8,46ZM37.93,35.78c1,1.51,1.26,3.73,3.91,3.12.54-.12,1.09-.65.87-1.15C41.84,35.76,40.24,35.18,37.93,35.78ZM53.62,18.7c3.88.32,6.29-1.05,9.26-2.73C59.12,15.25,56.83,17,53.62,18.7ZM85.69,61.88c-.87.06-1.14.57-.86,1.08.82,1.55,1.9,2.92,3.73,3.27.51.09,1-.62.78-1.16C88.78,63.2,87.16,62.52,85.69,61.88ZM84.83,41c-2.59-1.51-5.33-1-8-.63C79.47,40.59,82,42.21,84.83,41ZM68.34,59.28A8.25,8.25,0,0,0,62,59C64.06,60.43,66.19,60.15,68.34,59.28Zm8.34-43.2C80.75,18,81.35,18,84.1,16,81.47,15.66,79.35,15,76.68,16.08Zm5.13,27.77c-2.59-1.84-5.08-1.66-7.94-1.26C76.44,44.32,78.94,44.06,81.81,43.85ZM25.27,40.78c1.15,2,1.48,3.62,3.11,4.29.5.21,1.13-.43,1-.93C29.1,42.4,27.86,41.48,25.27,40.78Zm33.3-19.9c2.68.34,4.56-1.54,7.59-2.43C62.59,17.7,60.73,19.68,58.57,20.88ZM24.78,50.93,17.53,48.2C19.37,50.17,21.35,51.77,24.78,50.93ZM47.21,32.11c3,.3,4.38-.86,6.26-2.44C50.53,28.72,49.29,30.21,47.21,32.11Zm-13.33-8.8c-1.38,1.81-3.43,2-3.63,4.09,0,.1.44.39.61.35,1.72-.4,2.08-2.16,3.18-3.19C34.09,24.51,34,24.35,33.88,23.31Zm72.19,33.88c-1.72-.15-3.19-.59-4.32.74-.24.29-.28.85.19,1C103.47,59.3,104.72,58.76,106.07,57.19ZM63.89,62.87A4.69,4.69,0,0,0,59.08,62c-.17.05-.35.86-.23,1,1.3,1,2.79.41,4.21.36C63.27,63.29,63.47,63.1,63.89,62.87ZM76.69,46A4.42,4.42,0,0,0,71.82,48,5.46,5.46,0,0,0,76.69,46ZM36.86,24.5c-1.57.76-2.67,1.18-2.73,2.62,0,.21.55.67.8.64C36.42,27.6,36.68,26.47,36.86,24.5ZM64,34c-1.9-1.43-1.9-1.43-4-.55C61.27,34.67,62.6,34.49,64,34ZM73.4,62.43c-2.56.37-4,.89-5.07,2.34C70.5,65.42,71.58,64.05,73.4,62.43ZM75.81,28c-.07-.84-.68-1-1.39-1S73,27.15,73,28a1.32,1.32,0,0,0,1.37,1.2C75.13,29.25,75.54,28.72,75.81,28ZM18.23,26.59a2.49,2.49,0,0,0-1.39,3.3.83.83,0,0,0,1.32.24A2.8,2.8,0,0,0,18.23,26.59ZM56.58,60.24c.22-.44,0-.85-.67-.94a1.4,1.4,0,0,0-1.66,1.29,1.13,1.13,0,0,0,1,1.46C56.2,62.11,56.41,61.24,56.58,60.24ZM63,43.59a8.2,8.2,0,0,0,5.14,0A8.13,8.13,0,0,0,63,43.59ZM43.72,26.2a2.11,2.11,0,0,0-1.06,2.68.58.58,0,0,0,1,.23A2,2,0,0,0,43.72,26.2Zm60.9,27.1c1.86.74,3.26,1,4.64.16.12-.06.14-.63,0-.68C107.91,52,106.61,52.64,104.62,53.3ZM63,8.5c.75-.32,1.28-.74,1.32-1.43s-.51-.84-1-.6a1.44,1.44,0,0,0-1,1.47C62.25,8.17,62.75,8.34,63,8.5ZM97.8,48c.22-.54-.17-.72-.54-.8a1.28,1.28,0,0,0-1.64.63c-.2.46.19.73.57.84A1.23,1.23,0,0,0,97.8,48Zm-9.44,5c.39-.1.81-.18.67-.75A1.4,1.4,0,0,0,87.69,51c-.48,0-.67.37-.64.8A1.18,1.18,0,0,0,88.36,53ZM52.74,16.16a2.74,2.74,0,0,0-1-.32c-.67.05-1.26.36-1.21,1.15,0,.11.67.3,1,.26A1.31,1.31,0,0,0,52.74,16.16Zm13,15.4c.53,0,.94-.26.69-.64a2.13,2.13,0,0,0-1.3-.67,1.55,1.55,0,0,0-.91.37C64.44,31.41,65.21,31.36,65.76,31.56Zm5-2.78A.81.81,0,0,0,69.64,28a1.08,1.08,0,0,0-.76.65c-.08.73.55.72,1.05.75A.69.69,0,0,0,70.72,28.78ZM42.21,45.3c1.38.31,2.22.63,3-.17A2.85,2.85,0,0,0,42.21,45.3Zm6-17.29c-.09-.41-.25-.76-.76-.71s-1.07.25-1.13.88c0,.47.34.65.76.62S48.16,28.72,48.22,28Zm-7.86-.57c-.17-.22-.37-.72-.6-.73a1.05,1.05,0,0,0-1.1.91,1,1,0,0,0,.55.82C39.79,28.53,40.12,28.07,40.36,27.44Z"/>
        <path class="cls-11" d="M128.25,37.58c-.68.36-.7,1.08-.92,1.69a10.5,10.5,0,0,0-5.13-6.1c-1.15-.56-2.06-.64-1.91,1.09l-1.69-1.58-.08-1q0-3.13,0-6.26l1-.1c.7,3,1.9,5.37,5,6.82A7.25,7.25,0,0,1,128.25,37.58Z"/>
        <path class="cls-6" d="M100.73,71.22c-18.6,8.08-37.89,8.59-57.4,4.67C39,75,34.45,74,30.58,71.41c.31-.83,1.14-.68,1.76-.92a111.62,111.62,0,0,0,62.41,1c1.41-.37,2.85-.63,4.28-.93Z"/>
        <path class="cls-6" d="M32.34,70.49c-.62.24-1.45.09-1.76.92l-3-.92a4.83,4.83,0,0,0-2.5-1.57c-.9-.38-1.21-.92-.1-1.49Z"/>
        <path class="cls-6" d="M105.66,69l-3.25,1.51-1-.82c1.19-1.1,2.74-1.32,4.23-1.7Z"/>
        <path class="cls-6" d="M101.46,69.68l1,.82-1.68.72L99,70.56C99.64,69.7,100.58,69.79,101.46,69.68Z"/>
        <path class="cls-6" d="M105.66,69l0-1c.3-.54.88-.73,1.06-.15S106.34,68.88,105.66,69Z"/>
        <path class="cls-12" d="M47.43,14c7.79-4.67,15.46-4.38,23,.61.76.51,2.37,1,1.52,2.23-.7,1-1.57-.26-2.33-.71A21.75,21.75,0,0,0,48.52,15Z"/>
        <path class="cls-13" d="M16.93,33.54c7.19-3.69,14.76-3.83,22.5-2.38a5.45,5.45,0,0,0,3.24,1.65l1.55.65-1,.95a12.09,12.09,0,0,1-5.34-1.78c-1.58-1.4-3.42-.69-5.18-.62a29.61,29.61,0,0,0-15.86,4l-1.09-1Z"/>
        <path class="cls-14" d="M94.48,44.13a19.74,19.74,0,0,1,14.74.64c4.43,1.84,6.22,6,4.63,10.64l-.21-3.69-1.4,2A7.37,7.37,0,0,0,108,46.52a16,16,0,0,0-8.59-1.59C97.81,44.3,95.94,45.46,94.48,44.13Z"/>
        <path class="cls-15" d="M120.29,34.26c-.15-1.73.76-1.65,1.91-1.09a10.5,10.5,0,0,1,5.13,6.1c-.08,4.52-2.75,8.8-6.5,10.16-.91.33-2.84,1.14-1.43-1.32,6.51-3.64,7.2-9.11,1.69-13.24Z"/>
        <path class="cls-16" d="M36.36,42.57c7.53-2.78,15.42-2.83,23.35-2.72-6.66,2.66-14,1.7-20.79,3.45C38.07,43,37,43.49,36.36,42.57Z"/>
        <path class="cls-17" d="M71.14,35c3.27-4.5,13.92-6,17.43-2.63.26.25.57.65.53.94-.08.64-.71.79-1.23.73A9.25,9.25,0,0,1,86,33.47,15.3,15.3,0,0,0,74.24,34,6,6,0,0,1,71.14,35Z"/>
        <path class="cls-18" d="M121.09,34.87c5.51,4.13,4.82,9.6-1.69,13.24-.05-.54.85-1.11-.14-1.62-3.21-1.63-3.21-1.92-.12-4.35l.3.26c-.22,1.06-2.47,1.7-1.19,2.79s2.28-.58,3.09-1.51a4.77,4.77,0,0,0,1.13-3.27c0-1.12-.78-.67-1.36-.39l-.32-.28C120.87,38.11,123.21,36.63,121.09,34.87Z"/>
        <path class="cls-19" d="M104.09,14.16c4.55.4,6.75,3.73,8.92,7.11.17,2.72.53,5.46-.94,8-1.22-.94-.51-2.2-.57-3.34-.14-3-.56-5.87-3.59-7.48-1.41-2.06-3.82-2.38-5.84-3.4C102.81,14.89,103.64,15,104.09,14.16Z"/>
        <path class="cls-20" d="M107.91,18.43c3,1.61,3.45,4.49,3.59,7.48.06,1.14-.65,2.4.57,3.34l.12,1.08c-2,.23-3.92,1.16-5.89,0,1.88.06,2.54-1,2.71-2.74.34-3.48,0-6.69-3.32-8.77C106.45,18.79,107.3,19.24,107.91,18.43Z"/>
        <path class="cls-21" d="M78.89,19.87c-.09,1.35-.09,1.44-1.48,1.41-4.06-.09-8.06.14-11.83,1.86-1.59.72-3.15,1.5-4.75,2.19-.78.34-1.83,1.33-2.38.09-.42-.92.62-1.83,1.46-2.13C63.55,22,67,20.07,71,19.85A9.83,9.83,0,0,0,78.89,19.87Z"/>
        <path class="cls-22" d="M36.76,21.44c-3.86-.2-7.71-.39-11.06,2.11a2.73,2.73,0,0,0-2.3,2.83c-.38.87-.06,2.56-1.63,2.18-1.33-.32-1-1.83-.68-2.75,1.33-3.63,4.26-5.25,7.9-5.85,2.76,1.66,6.06-.43,8.82,1.27Z"/>
        <path class="cls-23" d="M45.94,49.56c-5.08,0-10.16.08-15.23,0-1.43,0-3,.39-4.25-.74,1.49-1.46-1.21-.66-.82-1.53,7,1.41,14.26-.15,21.29,1.33Z"/>
        <path class="cls-24" d="M81.48,58.42c-5.9-.81-11.72-2.16-17.71-2.35-2-.06-3.84,1.34-5.77-.13,7.91-1.43,15.72-.25,23.53,1.11Z"/>
        <path class="cls-25" d="M36.76,21.44l1.05-.21c.88,0,1.94.6,2.29-.82,4.72.66,8.72,3.19,13,5-.28.84-1.06.74-1.69.91Z"/>
        <path class="cls-26" d="M93.86,45.73c-5.56,1.37-9.44,5.69-14.48,8.05a24.23,24.23,0,0,1,12.61-9C92.38,45.61,93.16,45.6,93.86,45.73Z"/>
        <path class="cls-27" d="M105.69,18.86c3.35,2.08,3.66,5.29,3.32,8.77-.17,1.7-.83,2.8-2.71,2.74-.49-.26-.68-.57-.15-1,1.87-3.08,1.42-5.63-1.51-8.66-.62-.63-1.38-1.51-.93-2.23S105,18.58,105.69,18.86Z"/>
        <path class="cls-28" d="M112.19,30.33l-.12-1.08c1.47-2.52,1.11-5.26.94-8,1.46,1.24.7,3,1,4.46.14.83.17.82,1.39-.28a8.72,8.72,0,0,1,1.58,5.2c0,1.09.64,1.31,1.58,1.07l.08,1c-2.32.37-3.19-1.91-4.75-2.84C112.52,29.05,112.78,30.56,112.19,30.33Z"/>
        <path class="cls-29" d="M61.18,27.71C66,24.78,71,23.06,76.78,24.13a56.43,56.43,0,0,0-14.53,4.66Z"/>
        <path class="cls-30" d="M82.15,13c-3.12.24-6.24.63-9.36-.44,4.18-1.64,8.41-2.41,12.84-1C84.6,12.41,82.44,10.43,82.15,13Z"/>
        <path class="cls-31" d="M97.27,22.29c.73-.82,2.23,1.4,2.64-.68,1.92.54,2.27,2.26,3,3.79s-.3,3.45,1.11,4.8a.94.94,0,0,1-.79.57c0-3.39-3.48-3.46-5.06-5.32.77-.26,2-.33.67-1.52C98.27,23.42,97.79,22.84,97.27,22.29Z"/>
        <path class="cls-32" d="M100.43,52.28c-3.21,1.59-7.2,1-9-1.08-.33-.38-.83-.75-.56-1.36a1,1,0,0,1,1.3-.57C94.83,50.22,97.49,51.21,100.43,52.28Z"/>
        <path class="cls-33" d="M77.83,67.79c.52-1.64.9-3,1.41-4.37.31-.82-.27-2,.84-2.46.89-.34,1.5.41,2,1.07.73,1,1.17,2.15.23,3.3A5.33,5.33,0,0,1,77.83,67.79Z"/>
        <path class="cls-34" d="M104.09,14.16c-.45.8-1.28.73-2,.87a26.2,26.2,0,0,0-10.6,1.61c-.49-.15-.92-.34-1-.9C94.77,13.42,99.28,12.46,104.09,14.16Z"/>
        <path class="cls-35" d="M97.27,22.29c.52.55,1,1.13,1.55,1.64,1.29,1.19.1,1.26-.67,1.52l-1.42-.52c-.41-1.25-1.42-1.16-2.42-1.08-1.27-.4-3.79.25-3.53-1.37.31-2,2.76-1.36,4.4-1.12A7.74,7.74,0,0,1,97.27,22.29Z"/>
        <path class="cls-36" d="M113.06,33.58c1.39-.14,2.35.84,3.52,1.26A3.37,3.37,0,0,1,119,38.09c.09,1.86-1.12,2.74-3.12,3.57.63-3.36.24-5.94-3-7.06Z"/>
        <path class="cls-37" d="M104,30.2c-1.41-1.35-.38-3.25-1.11-4.8s-1.06-3.25-3-3.79l-.84-.85c.35-.86,1.14-1,1.91-1.12l2.89,2.62c.86,2,1.51,4.13.89,6.39C104.07,29,104.19,29.65,104,30.2Z"/>
        <path class="cls-38" d="M83.5,28.54c-1.78-.16-1.24-1.21-.85-2.2.79-2-.4-1.09-1.17-.78-.06-1.46,1.17-2.2,1.81-3.27l2.31-1.74c-.41,1.72,3.12,2.88.69,4.88-.38-.46-.36-2.07-1.41-.83C84,25.64,82.81,26.83,83.5,28.54Z"/>
        <path class="cls-39" d="M118.52,31.72c-.94.24-1.55,0-1.58-1.07a8.72,8.72,0,0,0-1.58-5.2h0c.25-.86-.31-2,.77-2.58l2.4,2.6Q118.51,28.58,118.52,31.72Z"/>
        <path class="cls-40" d="M85.6,20.55l-2.31,1.74L82.2,21a16.09,16.09,0,0,1,8.22-5.28c.13.56.56.75,1,.9A28.85,28.85,0,0,0,85.6,20.55Z"/>
        <path class="cls-41" d="M104.76,28.65c.62-2.26,0-4.34-.89-6.39a1.27,1.27,0,0,0,.77-1.54c2.93,3,3.38,5.58,1.51,8.66C105.93,28.66,105.24,28.86,104.76,28.65Z"/>
        <path class="cls-42" d="M45.94,49.56l1-.9c3.76.61,7.58,1,10.61,3.86C53.73,51.25,49.79,50.6,45.94,49.56Z"/>
        <path class="cls-43" d="M93,39.3c-2,1.35-4,2.58-5.23,4.82-.4.75-1,2-2.09,1s.16-1.67.7-2.36A13.15,13.15,0,0,1,92,38.39Z"/>
        <path class="cls-44" d="M95.2,29.32l-2.37-1.63c.87-1,2.09-.43,3.12-.72a12.39,12.39,0,0,1,3.94,2.52v2.26l.1.05C97.87,32,97.13,29.51,95.2,29.32Z"/>
        <path class="cls-45" d="M53.64,37.23c3.73-3.34,6.57-.73,9.42-.42C60.28,37.89,57.45,37.76,53.64,37.23Z"/>
        <path class="cls-46" d="M29.71,38.47C31.18,40.1,33.24,41.38,33,44c-.07.7-.26,1.37-1,1.5s-1.09-.58-1.22-1.22c-.39-1.95-.75-3.91-2.58-5.14C28.44,38.36,29.1,38.47,29.71,38.47Z"/>
        <path class="cls-47" d="M96.59,36.61a17.44,17.44,0,0,1,11.6,1.22c-3,0-6-.6-9-.26C98.58,36.5,97.46,36.9,96.59,36.61Z"/>
        <path class="cls-48" d="M112.24,53.67l1.4-2,.21,3.69c-.58,1.77-2.13,2.68-3.4,3.83l-1.74-.09c.78-1.31,2.22-2.15,2.66-3.7Z"/>
        <path class="cls-49" d="M43.49,9.94c-1.38,2.29-2.43,4-2.29,6.14,0,.64-.11,1.4-1.08,1.28-.65-.09-.76-.65-.88-1.17C38.59,13.52,39.88,11.34,43.49,9.94Z"/>
        <path class="cls-50" d="M75.51,50c1.61-1.2,2.85-2.14,4.11-3,.83-.6,1.91-.89,2.5,0s-.33,1.49-1,1.88C79.54,49.65,78.24,51.42,75.51,50Z"/>
        <path class="cls-51" d="M49.8,46c2.46-2.11,5.27-2.22,9.1-1.79A15.61,15.61,0,0,1,49.8,46Z"/>
        <path class="cls-52" d="M104.12,40.06c3.54-.64,6.28,1,8.87,3.1l-.87.87a25.41,25.41,0,0,0-7.21-2.6Z"/>
        <path class="cls-53" d="M16.07,38.25c-.73,3.89,2.54,5.3,4.61,7.46-.65,0-1.27.06-1.56.78-1.71-.26-2.78-1.46-3.88-2.61,3.15-.91-.6-1.54-.1-2.35C15.32,40.4,14.77,39.07,16.07,38.25Z"/>
        <path class="cls-54" d="M34.77,36.61a10.57,10.57,0,0,1,1.23,1c.54.53,1.44,1.1.87,1.91a1.83,1.83,0,0,1-2.48.31,28.05,28.05,0,0,1-3.15-2.84C32.26,35.14,33.62,37,34.77,36.61Z"/>
        <path class="cls-55" d="M43.23,34.41l1-.95c2.73-.17,4.2,1.59,5.86,3.75C46.91,37.74,45.28,35.56,43.23,34.41Z"/>
        <path class="cls-56" d="M37.93,35.78c2.31-.6,3.91,0,4.78,2,.22.5-.33,1-.87,1.15C39.19,39.51,39,37.29,37.93,35.78Z"/>
        <path class="cls-57" d="M92.14,30.16l1.24.17c.92,1.3,3.82,1.34,2.61,4-2.51,0-3.55-2.44-5.51-3.35C90.78,30.24,91.53,30.34,92.14,30.16Z"/>
        <path class="cls-58" d="M82.15,13c.29-2.61,2.45-.63,3.48-1.41.63.2,1.27.36,1.88.6s1,.5.9,1.12c-.18.85-1,.89-1.6.77C85.24,13.83,83.7,13.41,82.15,13Z"/>
        <path class="cls-59" d="M74.31,64.18c.18-.63.37-1.25.55-1.88s-.37-2.23,1-2.07S77.67,61.62,77.3,63a5.52,5.52,0,0,1-3,3.52C73,65.74,74.6,65,74.31,64.18Z"/>
        <path class="cls-60" d="M53.62,18.7c3.21-1.74,5.5-3.45,9.26-2.73C59.91,17.65,57.5,19,53.62,18.7Z"/>
        <path class="cls-61" d="M61.18,27.71l1.07,1.08c-2.11,1.43-4,3.29-6.47,4l-1-1Z"/>
        <path class="cls-62" d="M96,34.35c1.21-2.68-1.69-2.72-2.61-4,.71-.15,1.55-.07,1.82-1,1.93.19,2.67,2.67,4.8,2.48C98.7,32.71,97.58,33.9,96,34.35Z"/>
        <path class="cls-63" d="M19.12,46.49c.29-.72.91-.78,1.56-.78,1.48,1.07,3.31,1,5,1.62-.39.87,2.31.07.82,1.53C23.79,48.77,21.23,48.32,19.12,46.49Z"/>
        <path class="cls-64" d="M16.07,38.25c-1.3.82-.75,2.15-.93,3.28l-1.42,0c-.62-1.32,0-2.7-.18-4a.46.46,0,0,0,.14-.47l2.08-2,1.09,1C16.45,36.72,15.84,37.34,16.07,38.25Z"/>
        <path class="cls-65" d="M108.71,59.15l1.74.09a9.25,9.25,0,0,1-8.83,3.2,2.55,2.55,0,0,0-.12-.67C104.06,61.33,106.32,60.07,108.71,59.15Z"/>
        <path class="cls-66" d="M113.06,33.58l-.18,1L105,34.29l.79-1.54C108.29,32.5,110.76,32.32,113.06,33.58Z"/>
        <path class="cls-67" d="M15.76,35l-2.08,2c-.1-1-.21-1.91-1.51-.93l-1-1c1-3.8,3.75-1.34,5.75-1.56Z"/>
        <path class="cls-68" d="M85.69,61.88c1.47.64,3.09,1.32,3.65,3.19.17.54-.27,1.25-.78,1.16-1.83-.35-2.91-1.72-3.73-3.27C84.55,62.45,84.82,61.94,85.69,61.88Z"/>
        <path class="cls-69" d="M84.83,41c-2.83,1.21-5.36-.41-8-.63C79.5,40,82.24,39.49,84.83,41Z"/>
        <path class="cls-70" d="M68.34,59.28c-2.15.87-4.28,1.15-6.33-.33A8.25,8.25,0,0,1,68.34,59.28Z"/>
        <path class="cls-71" d="M76.68,16.08c2.67-1.1,4.79-.42,7.42-.1C81.35,18,80.75,18,76.68,16.08Z"/>
        <path class="cls-72" d="M40.1,20.41c-.35,1.42-1.41.86-2.29.82-2.76-1.7-6.06.39-8.82-1.27C32.72,19.52,36.44,19.1,40.1,20.41Z"/>
        <path class="cls-73" d="M104.12,40.06l.79,1.37c-3,.23-5.9-1.43-9-.46C98.53,39.5,101.35,40,104.12,40.06Z"/>
        <path class="cls-74" d="M108.09,48c.13,1.13.07,2.21-1.42,2.27s-2.9.64-4.22-.35c-.3-.22-.55-.6-.21-1a2.55,2.55,0,0,1,2.85-.77l-1.37,1.21a2.89,2.89,0,0,0,2.78-.17l-1-1.06,2.6-.09Z"/>
        <path class="cls-75" d="M62.69,51.36a5,5,0,0,1-.78-.1c-1.71-.5-3.57-1.35-3.74-3.09S59.28,47.4,60,48s1.44,1.16,2.18,1.72c.42.32.87.59,1.32.89Z"/>
        <path class="cls-76" d="M112.12,44l.87-.87c1.54,1.41,3.82,2.41,3,5.32C113.63,47.7,113.52,45.32,112.12,44Z"/>
        <path class="cls-77" d="M81.81,43.85c-2.87.21-5.37.47-7.94-1.26C76.73,42.19,79.22,42,81.81,43.85Z"/>
        <path class="cls-78" d="M25.27,40.78c2.59.7,3.83,1.62,4.15,3.36.09.5-.54,1.14-1,.93C26.75,44.4,26.42,42.78,25.27,40.78Z"/>
        <path class="cls-79" d="M96.59,36.61c.87.29,2-.11,2.58,1L93,39.3l-1-.91A9.75,9.75,0,0,1,96.59,36.61Z"/>
        <path class="cls-80" d="M58.57,20.88c2.16-1.2,4-3.18,7.59-2.43C63.13,19.34,61.25,21.22,58.57,20.88Z"/>
        <path class="cls-81" d="M87.9,55.27c2.39.75,4.72,1.78,7.3,1.91-3.17,1-6.08.24-8.92-1.09C86.93,56.05,87.62,56.06,87.9,55.27Z"/>
        <path class="cls-82" d="M92.07,60.05l9,1.63c-1.58.61-3.44-.65-4.91.73l-4.88-1.58Z"/>
        <path class="cls-74" d="M112.24,53.67l-.87,1.78c-.27-2.85,0-6-3.28-7.45l0,0L108,46.52A7.37,7.37,0,0,1,112.24,53.67Z"/>
        <path class="cls-83" d="M22.27,43.24a3.85,3.85,0,0,1-.74-.89c-.51-1.22-2.5-2.83-.92-3.62s1.72,1.78,2.44,2.91A1.27,1.27,0,0,1,22.27,43.24Z"/>
        <path class="cls-84" d="M101,19.64c-.77.15-1.56.26-1.91,1.12L93.5,18.32A9.84,9.84,0,0,1,101,19.64Z"/>
        <path class="cls-85" d="M24.78,50.93c-3.43.84-5.41-.76-7.25-2.73Z"/>
        <path class="cls-86" d="M83.5,28.54c-.69-1.71.49-2.9,1.38-3.94,1.05-1.24,1,.37,1.41.83h0c-.93.67-.75,1.66-.78,2.6A2,2,0,0,1,83.5,28.54Z"/>
        <path class="cls-87" d="M47.21,32.11c2.08-1.9,3.32-3.39,6.26-2.44C51.59,31.25,50.21,32.41,47.21,32.11Z"/>
        <path class="cls-88" d="M82.33,37.5h-4a2.1,2.1,0,0,1,0-.75c3.28-.27,6.54-1.6,9.84-.11C86.22,37.08,84.1,36.06,82.33,37.5Z"/>
        <path class="cls-89" d="M33.88,23.31c.14,1,.21,1.2.16,1.25-1.1,1-1.46,2.79-3.18,3.19-.17,0-.62-.25-.61-.35C30.45,25.32,32.5,25.12,33.88,23.31Z"/>
        <path class="cls-90" d="M106.07,57.19c-1.35,1.57-2.6,2.11-4.13,1.72-.47-.13-.43-.69-.19-1C102.88,56.6,104.35,57,106.07,57.19Z"/>
        <path class="cls-91" d="M51.41,20.77l4.15,1.67c-2.41,1.4-3.93-.21-5.67-1C50.44,21.29,51.07,21.39,51.41,20.77Z"/>
        <path class="cls-92" d="M63.89,62.87c-.42.23-.62.42-.83.43-1.42.05-2.91.68-4.21-.36-.12-.1.06-.91.23-1A4.69,4.69,0,0,1,63.89,62.87Z"/>
        <path class="cls-93" d="M82.2,21l1.09,1.27c-.64,1.07-1.87,1.81-1.81,3.27-.29.49-.63.87-1.28.73.09-.76-.42-.57-.84-.53L79,25.4C80,23.9,80.74,22.2,82.2,21Z"/>
        <path class="cls-94" d="M34.77,36.61c-1.15.38-2.51-1.47-3.53.33a4,4,0,0,1-2.73-2.73C30.7,35.49,33.28,34.32,34.77,36.61Z"/>
        <path class="cls-95" d="M47.43,14l1.09,1c-1.26,1-2.37,2.29-4.38,3A4,4,0,0,1,47.43,14Z"/>
        <path class="cls-96" d="M76.69,46A5.46,5.46,0,0,1,71.82,48,4.42,4.42,0,0,1,76.69,46Z"/>
        <path class="cls-97" d="M87.9,55.27c-.28.79-1,.78-1.62.82-.88-.72-2.48-.26-2.85-1.72-.05-.2.4-.68.71-.79C85.88,53,86.74,54.48,87.9,55.27Z"/>
        <path class="cls-98" d="M26.56,25.41c.68-.21,1.29-1.17,2-.49s-.08,1.2-.38,1.71c-.86,1.45-1.91,2.11-3.29.54Z"/>
        <path class="cls-99" d="M29.71,38.47c-.61,0-1.27-.11-1.52.69A3,3,0,0,1,25.4,37,3.67,3.67,0,0,1,29.71,38.47Z"/>
        <path class="cls-100" d="M96,27c-1,.29-2.25-.29-3.12.72a5.77,5.77,0,0,1-3.56-1.07C91.56,26.16,93.8,25.79,96,27Z"/>
        <path class="cls-101" d="M44.3,55.33,47.66,53c.26.62.81.64,1.36.65a8.7,8.7,0,0,1-3.86,2.59Z"/>
        <path class="cls-102" d="M92.07,60.05l-.84.78a14.19,14.19,0,0,1-5.11-1.35l.86-.83C88.74,58.91,90.54,59,92.07,60.05Z"/>
        <path class="cls-103" d="M51.42,26.3c.63-.17,1.41-.07,1.69-.91,1.32.16,2.52.49,2.87,2.2C54.09,28.29,52.8,27.12,51.42,26.3Z"/>
        <path class="cls-104" d="M54.78,31.82l1,1a5.24,5.24,0,0,1-4.07,2C51.88,32.58,53.82,32.75,54.78,31.82Z"/>
        <path class="cls-105" d="M74.31,64.18c.29.77-1.31,1.56,0,2.33-.86,1.33-2.21.84-3.4.93l-1.59-.14A23.8,23.8,0,0,0,74.31,64.18Z"/>
        <path class="cls-106" d="M93.86,45.73c-.7-.13-1.48-.12-1.87-.91a4.31,4.31,0,0,1,2.49-.69c1.46,1.33,3.33.17,4.91.8C97.65,45.9,95.69,45.37,93.86,45.73Z"/>
        <path class="cls-107" d="M36.86,24.5c-.18,2-.44,3.1-1.93,3.26-.25,0-.81-.43-.8-.64C34.19,25.68,35.29,25.26,36.86,24.5Z"/>
        <path class="cls-108" d="M65.22,46.36l2.92,3a3.13,3.13,0,0,1-3.89-1.16C65.35,48,65.34,47.19,65.22,46.36Z"/>
        <path class="cls-109" d="M64,34c-1.44.51-2.77.69-4-.55C62.14,32.55,62.14,32.55,64,34Z"/>
        <path class="cls-110" d="M82.33,37.5c1.77-1.44,3.89-.42,5.8-.85.56,1.31-.29,1.52-1.23,1.44C85.37,38,83.86,37.7,82.33,37.5Z"/>
        <path class="cls-111" d="M73.4,62.43c-1.82,1.62-2.9,3-5.07,2.34C69.42,63.32,70.84,62.8,73.4,62.43Z"/>
        <path class="cls-112" d="M78.89,19.87a9.83,9.83,0,0,1-7.9,0A28.63,28.63,0,0,1,78.89,19.87Z"/>
        <path class="cls-113" d="M87,58.65l-.86.83-4.64-1.06,0-1.37Z"/>
        <path class="cls-114" d="M75.81,28c-.27.7-.68,1.23-1.45,1.2A1.32,1.32,0,0,1,73,28c0-.87.74-1,1.43-1S75.74,27.18,75.81,28Z"/>
        <path class="cls-115" d="M62.69,51.36l.8-.8a8.52,8.52,0,0,1,3.65,1.88C65.2,53.49,63.9,52.64,62.69,51.36Z"/>
        <path class="cls-116" d="M37.06,53c1.87-.37,3.65-1.74,6-.55-2.16.69-4,1.47-6,1.32A3.29,3.29,0,0,1,37.06,53Z"/>
        <path class="cls-117" d="M18.23,26.59a2.8,2.8,0,0,1-.07,3.54.83.83,0,0,1-1.32-.24A2.49,2.49,0,0,1,18.23,26.59Z"/>
        <path class="cls-118" d="M56.58,60.24c-.17,1-.38,1.87-1.36,1.81a1.13,1.13,0,0,1-1-1.46,1.4,1.4,0,0,1,1.66-1.29C56.57,59.39,56.8,59.8,56.58,60.24Z"/>
        <path class="cls-119" d="M37.06,53a3.29,3.29,0,0,0,0,.77,3,3,0,0,1-3.56.4A3.94,3.94,0,0,1,37.06,53Z"/>
        <path class="cls-120" d="M63,43.59a8.13,8.13,0,0,1,5.14,0A8.2,8.2,0,0,1,63,43.59Z"/>
        <path class="cls-121" d="M51.52,63.42c-1.22-1-1-2.24-.53-3.71,1.41.54.9,2,1.44,2.79Z"/>
        <path class="cls-122" d="M43.72,26.2a2,2,0,0,1-.1,2.91.58.58,0,0,1-1-.23A2.11,2.11,0,0,1,43.72,26.2Z"/>
        <path class="cls-123" d="M51.41,20.77c-.34.62-1,.52-1.52.64A8.06,8.06,0,0,1,48.83,21c-.58-.35-1.69-.5-1-1.54.43-.69,1.12-.27,1.67.09S50.76,20.36,51.41,20.77Z"/>
        <path class="cls-124" d="M104.62,53.3c2-.66,3.29-1.28,4.68-.52.1,0,.08.62,0,.68C107.88,54.25,106.48,54,104.62,53.3Z"/>
        <path class="cls-125" d="M63,8.5c-.23-.16-.73-.33-.75-.56a1.44,1.44,0,0,1,1-1.47c.53-.24,1.08-.12,1,.6S63.73,8.18,63,8.5Z"/>
        <path class="cls-126" d="M97.81,48a1.24,1.24,0,0,1-1.62.67c-.38-.11-.77-.38-.57-.84a1.28,1.28,0,0,1,1.64-.63C97.63,47.27,98,47.45,97.81,48Z"/>
        <path class="cls-127" d="M22.27,43.24a1.27,1.27,0,0,0,.78-1.6c1.18.52,2.19,1.47,1.29,2.59C23.7,45,22.76,44.07,22.27,43.24Z"/>
        <path class="cls-128" d="M11.18,35.1l1,1-1.46,3.68C9.82,38,10.41,36.52,11.18,35.1Z"/>
        <path class="cls-129" d="M96.11,62.41c1.47-1.38,3.33-.12,4.91-.73a1.28,1.28,0,0,1,.48.09,2.55,2.55,0,0,1,.12.67A13.46,13.46,0,0,1,96.11,62.41Z"/>
        <path class="cls-130" d="M88.36,53a1.18,1.18,0,0,1-1.31-1.2c0-.43.16-.81.64-.8A1.4,1.4,0,0,1,89,52.23C89.17,52.8,88.75,52.88,88.36,53Z"/>
        <path class="cls-131" d="M105.52,48.13l1,1.06a2.89,2.89,0,0,1-2.78.17l1.37-1.21A.89.89,0,0,0,105.52,48.13Z"/>
        <path class="cls-132" d="M13.72,41.5l1.42,0c-.5.81,3.25,1.44.1,2.35l-1.58-1.52Z"/>
        <path class="cls-133" d="M52.74,16.16a1.31,1.31,0,0,1-1.14,1.09c-.35,0-1-.15-1-.26,0-.79.54-1.1,1.21-1.15A2.74,2.74,0,0,1,52.74,16.16Z"/>
        <path class="cls-67" d="M13.72,41.5l-.06.86c-1.62-1.59-1.27-3.24-.12-4.9C13.75,38.8,13.1,40.18,13.72,41.5Z"/>
        <path class="cls-55" d="M32.71,32c1.76-.07,3.6-.78,5.18.62C36.15,32.56,34.35,33,32.71,32Z"/>
        <path class="cls-134" d="M69.33,67.3l1.59.14c-1.26,1.3-2.7.76-4.29.51C67.53,67.11,68.48,67.47,69.33,67.3Z"/>
        <path class="cls-135" d="M65.76,31.56c-.55-.2-1.32-.15-1.52-.94a1.55,1.55,0,0,1,.91-.37,2.13,2.13,0,0,1,1.3.67C66.7,31.3,66.29,31.59,65.76,31.56Z"/>
        <path class="cls-136" d="M70.72,28.78a.69.69,0,0,1-.79.64c-.5,0-1.13,0-1.05-.75a1.08,1.08,0,0,1,.76-.65A.81.81,0,0,1,70.72,28.78Z"/>
        <path class="cls-137" d="M54,64.16l2.86,2.08C55.28,67,54.57,66.13,54,65Z"/>
        <path class="cls-138" d="M54,64.16,54,65a2.66,2.66,0,0,1-2.47-1.59l.91-.92Z"/>
        <path class="cls-139" d="M44.3,55.33l.86.88c-.79.77-1.87,1.23-2.55.29C42.31,56.08,43.63,55.64,44.3,55.33Z"/>
        <path class="cls-51" d="M42.21,45.3a2.85,2.85,0,0,1,3-.17C44.43,45.93,43.59,45.61,42.21,45.3Z"/>
        <path class="cls-140" d="M36.36,42.57c.66.92,1.71.47,2.56.73a2.73,2.73,0,0,1-2.41.78C35.17,43.77,35.06,43.2,36.36,42.57Z"/>
        <path class="cls-28" d="M116.13,22.86c-1.08.61-.52,1.72-.77,2.58a1.92,1.92,0,0,1-.49-2.79C115.15,22.16,115.78,22.31,116.13,22.86Z"/>
        <path class="cls-141" d="M105.82,32.75,105,34.29c-.62,0-1.49,0-1.34-.81C103.91,32.27,105,32.7,105.82,32.75Z"/>
        <path class="cls-55" d="M42.67,32.81a5.45,5.45,0,0,1-3.24-1.65C40.84,31.06,42.19,31.1,42.67,32.81Z"/>
        <path class="cls-142" d="M23.4,26.38a2.73,2.73,0,0,1,2.3-2.83l-.81,1.9,0,0Z"/>
        <path class="cls-143" d="M92.14,30.16c-.61.18-1.36.08-1.66.84-.63-.15-1.58-.62-1.23-1.05C90.11,28.91,91.21,29.49,92.14,30.16Z"/>
        <path class="cls-144" d="M48.22,28c-.06.71-.62.75-1.13.79s-.81-.15-.76-.62c.06-.63.58-.82,1.13-.88S48.13,27.6,48.22,28Z"/>
        <path class="cls-145" d="M40.36,27.44c-.24.63-.57,1.09-1.15,1a1,1,0,0,1-.55-.82,1.05,1.05,0,0,1,1.1-.91C40,26.72,40.19,27.22,40.36,27.44Z"/>
        <path class="cls-93" d="M79.88,27.58c0,.88-.66,1.18-1.21.74-1.26-1-.32-2,.31-2.92l.38.36C79.28,26.44,78.37,27.35,79.88,27.58Z"/>
        <path class="cls-146" d="M79.88,27.58c-1.51-.23-.6-1.14-.52-1.82.42,0,.93-.23.84.53Z"/>
        <path class="cls-147" d="M78.29,36.76a2.1,2.1,0,0,0,0,.75,3,3,0,0,1-2.67-.33A3.61,3.61,0,0,1,78.29,36.76Z"/>
        <path class="cls-18" d="M119.14,42.14a5,5,0,0,1,1.65-2.4l.32.28a2.92,2.92,0,0,1-1.67,2.38Z"/>
        <path class="cls-148" d="M65.22,46.36c.12.83.13,1.61-1,1.79-.48-.45-.94-.93-.44-1.61C64.17,46.05,64.72,46.24,65.22,46.36Z"/>
        <path class="cls-38" d="M85.52,28c0-.94-.15-1.93.78-2.6A2.27,2.27,0,0,1,85.52,28Z"/>
        <path class="cls-142" d="M26.56,25.41l-1.63,1.76V25.42l0,0Z"/>
        <path class="cls-31" d="M94.31,23.85c1-.08,2-.17,2.42,1.08C95.86,24.71,94.9,24.68,94.31,23.85Z"/>
        <path class="cls-149" d="M49,53.62c-.55,0-1.1,0-1.36-.65.37-.29.77-.72,1.23-.31C49.08,52.82,49,53.29,49,53.62Z"/>
        <path class="cls-31" d="M99.9,31.75V29.49C101.12,30.24,101.14,31,99.9,31.75Z"/>
        <path class="cls-150" d="M119.44,42.4A2.92,2.92,0,0,0,121.11,40c.58-.28,1.31-.73,1.36.39a4.77,4.77,0,0,1-1.13,3.27c-.81.93-1.83,2.6-3.09,1.51S119.22,43.46,119.44,42.4Z"/>
      </g>
    </g>
  </g>
</svg>
