<svg xmlns="http://www.w3.org/2000/svg" width="165.89" height="102.22" viewBox="0 0 165.89 102.22">
  <defs>
    <style>
      .cls-1 {
        fill: #050105;
      }

      .cls-2 {
        fill: #03c6fd;
      }

      .cls-3 {
        fill: #fa0102;
      }

      .cls-4 {
        fill: #fb02b1;
      }

      .cls-5 {
        fill: #2622f6;
      }

      .cls-6 {
        fill: #fac406;
      }

      .cls-7 {
        fill: #710020;
      }

      .cls-8 {
        fill: #8018fa;
      }

      .cls-9 {
        fill: #fd983f;
      }
    </style>
  </defs>
  <g id="Layer_2" data-name="Layer 2">
    <g id="Layer_1-2" data-name="Layer 1">
      <g>
        <path class="cls-1" d="M113.49,94c-3.59-1.52-7.13-3.23-11.25-2.52-.58.1-1.41-.42-1.24-1.14s.19-1.57,1.11-2c2.3-1.07,4.46-2.42,7-3,5-1.16,7.43-8.87,3.9-12.69-1.72-1.87-3.26-3.6-3.53-6.26-.21-2.07-1.55-2.28-3.19-1.37-4.06,2.26-8,4.6-10.9,8.45-2.67,3.55-6.74,5.8-9,9.82-.89,1.56-2.32-.14-3.22-1.05A76.7,76.7,0,0,0,67.6,69.88c-5.82-3.43-7-3.11-8.71,3.36-.82,3.06-3.45,5.24-3.12,9.07s2,5.71,5.46,6c2.32.22,4.25,1.45,6.49,1.81a2.2,2.2,0,0,1,1.94,2.62c-.2,1.76-1.55,1.14-2.47,1.2-2.58.19-5.07-.55-6.68,3-.93,2.05-4.45,1-6.84,1.11-3.21.21-6.94-1.34-8.8,3.19a1.62,1.62,0,0,1-3.07-.4c-.55-4.21-3.59-3.44-6.28-3.87-1.59-.25-4.23.57-4.56-1.33-.44-2.46,2.42-2.9,4.15-3.62,5.08-2.14,6.71-9.39,2.76-13.62a11.82,11.82,0,0,1-2.56-4.24c-2-5.39-6.07-7.06-11.69-7.06-5.15,0-10.09,1.43-15.15,1.23.39,0,1-.53.85.43,0,.07-.23.14-.36.15-3.59.31-6.09-2.27-4.39-5,2-3.16-.5-2.59-1.91-3.13-1.28-1-3-1.69-2.61-3.8.38-1.75,1.72-2.68,3.08-3.6a13.66,13.66,0,0,1,5.21-1.68c-.81-.56-1.19-1-1.64-1.11a3.62,3.62,0,0,1-2.89-3.89c0-1.89,1.81-2.84,3.55-3.42,2.64-.88,5.34.09,8-.2.65-.07,1.31-.09,2-.13,0-1.79-.83-3.41.77-5,1.88-1.83-.89-2.27-1.5-3.32-.7-1.2-2.53-1.93-1.8-3.66s2.55-1.65,4.12-1.79a10.49,10.49,0,0,1,2,0c6.22.64,6,.6,7.47-5.46A24.73,24.73,0,0,1,40.54,7.88C53.05.62,66.4.22,79,11.29c2.54,2.23,4.1,2.58,6.65-.43,13.44-15.8,38.46-14.42,49.17,4.56a13.4,13.4,0,0,1,1.86,6c0,2.59,1.39,2.76,3,2.16,3-1.13,6.13-.43,9.19-.7,2.42,2.31,0,3.81-1,5.48-.44.74-1.86,1.59-.71,2.18,3.66,1.85.52,3.88.11,6.12,3.53-1,6.69-2,10.08-1.84a3.54,3.54,0,0,1,3.51,2.08c.82,1.64.13,2.8-.94,3.95-.5.53-1.59.65-1.2,2l4.85,1.1c2.81.36,2.34,2.65,2.19,4.3-.26,2.85-3,2.94-5.36,3.94,2.49,1.31,4.12,3.1,4.11,5.91-4.47,3.51-9.57,1.45-14.09.84-9-1.23-13.84,1.34-17,10-1.37,3.75-3.63,7-3.2,11.4.33,3.3,1.43,5.14,4.63,5.86,1.13.25,2.13,1.06,3.26,1.35,3.54.92,1.35,2,.17,3.14-2.65.33-5.66-.45-7.5,2.4-3.55,4.12-3.55,4.12-6.11.21ZM46.39,81.84a9.27,9.27,0,0,0-.15,2.39c.17.88-.66,2.59,1,2.43,1.13-.11,3-.53,2.63-2.58-.13-.78-.31-1.55-.47-2.32-.47-1,1.2-2.92-1-3C46.48,78.68,46.43,80.4,46.39,81.84Zm-3.11-3.7c1.4-.42,2.75-.83,3.35-2.44.43-1.16,1.1-2.56-.15-3.21-1.9-1-3.92,0-5.75.73a2.07,2.07,0,0,0-1.56,2.08c.24,2.35,2.4,1.62,3.67,2.33-.33.22-1.22.06-.83.76C42.27,78.85,42.9,78.51,43.28,78.14ZM31.72,55.73c-2.25.59-3,3.3-1.87,6.85a8.11,8.11,0,0,0,4.26,5.2c1.34.62,1.59.14,1.66-1,1.37-2,1.86.19,2,.68,1,2.54,2.71,3,5.28,3.11,10.26.49,17.78-3.85,23.48-13.15l-.4,2.76c-2.38,5.26-2.35,5.49,2.9,8.15a43,43,0,0,1,12.17,9c3.17,2.71,4.6,2.61,7.06-.49a53.36,53.36,0,0,1,14.12-12.38c2.72-1.65,3.13-2.71,1-5.34C97.64,52,96.14,44,100.23,35.6c1.88-3.84.15-4.3-2.78-4.67-3.35-.43-6.7-.91-10.06-1.34-1.14-.15-2.11-.51-2.42-1.74s.45-2,1.38-2.65c.65-.45,1.27-.95,1.9-1.42L96,20.19a26.61,26.61,0,0,0,7.3-3c6.79-4.53,13.83-6.44,21.54-2.31,4.52,3.22,4.79,7.81,3.61,12.91,6.71-2.68,6.64-2.67,5.15-8.87-.71-3-2.63-5-4.67-7.07-3.53-2.35-6.43-5.56-10.25-7.52-1.24-1.52-2.92-.81-4.43-.85-2.52-.08-5.22.49-7.53-.21-4.77-1.44-8.31.43-11.78,3.16L94.22,7C89,8.53,86.47,12.8,84,17.1c-1,1.46-2,1.53-3.08,0C74,7.31,64,5.34,52.93,6c-10-.34-20.77,9.82-23,20.83-.82,4,1.06,4.42,3.67,4.8,4,.59,1.6-2.6,2.14-4a6.43,6.43,0,0,0,0-2.39c5.57-8.55,13.44-10,22.22-6.33,6.7,2.77,13.78,4.05,20.54,6.45,3.2,1.13,3.57,2.86,1.12,5.68-3.43-.7-6.51.85-9.69,1.63-6.45,1.57-6.44,1.63-2.14,6.94,0,.1-.09.21-.06.28a3,3,0,0,0,.28.44c.09,1-.35,2.19.91,2.83l0,0c0,3.09.49,6.23-.82,9.31,0-6.06-1.15-11.51-5.22-16.44-1.41-1.71-1.85-5.89-1.1-8.16,1.08-3.29-.45-4.47-2.36-5.71a15.35,15.35,0,0,0-14.93-1.41c-5.46,2.42-8,6.71-5,11.2,2.12,3.16,5.63,4.39,9.14,5.46,7.42,2.25,10.17,7.2,7.91,14.22-1.74,5.43-9.18,8.75-15,6.68-3.89-1.39-4.93-.63-5.13,3.48-.06,1.16,1.51,3.14-1.28,3.29a17.52,17.52,0,0,1-.91-6.92C34.35,56.26,33.62,55.42,31.72,55.73Zm89.54-16.17c-3.43-5-3.78-5-8-.09-2.4,3.41-2.05,6.56.87,9.48,2.22,3.57,5.85,3.15,9.21,3,2.18-.09,3.79-1,2-3.73a21.35,21.35,0,0,1-1.66-4.37l-.68-1-.56-1.29ZM31.58,44.49c-2.95-4.29-7.38-3.63-12.68-4.06a28.4,28.4,0,0,0,11.77,6.39c1.66,2,4.15,2.35,6.43,3.06,1.76.55,2.69-.52,3.2-2.06.69-2-1.25-1.08-1.9-1.6C36.41,44.6,33.94,44.75,31.58,44.49Zm94.8,38.88c-1.85,5.22-7,5.86-12.43,8,3.65.54,6,.49,8-.58,3-1.66,4.77-1,5.93,2.49.14-3.07,3.73-5.55.57-8.77-.56-.57-.5-1.76-.72-2.67a11.83,11.83,0,0,0-.7-6.43C126,78.66,126.35,81,126.38,83.37ZM41.3,51.89c-1.54,2.81-.33,4.26,2.47,4.79,4.64.88,9.33-2.22,10.85-7.11,1.45-4.67,0-7.39-5.36-9.75-2.3-.84-3.16.82-3.88,2.39C43.94,45.4,42.65,48.66,41.3,51.89Zm70.47,10.49a8.08,8.08,0,0,0,5.77,1.83c2,1.52,4.27.7,6.38.59,2.57-.13,5.35-.46,5.86-3.9,1-1.56.4-3.32.61-5,.4-3.12-.76-4.07-3.68-2.6-.8.41-1.63.75-2.43,1.18-2.36,1.26-4.86,1.81-7.15-.31l-5-3.06c-5-7.36-3.06-14.06,5-17.81,1.55-.72,3-1.68,4.59-2.29,3.32-1.26,5.23-6.82,4.8-9.31-.63-3.62-3.47-5.76-8.16-6.12-2.48-2-4.81-.15-7.2.29-.52.12-1,.22-1.56.37-5.61,1.61-6.08,3.41-4.85,9,.53,2.42,1.27,6-.22,8.15-7,10-3.82,18.67,1.68,25.06C108,59.88,109.35,61.87,111.77,62.38Zm34.83-37c-2.15,0-3.91-.43-5.35.07a155.4,155.4,0,0,0-18.33,7.41c-1,.5-2.64,1.32-1.65,2.59s1.71,3.66,3.92,2.67C132.63,34.82,140.87,32.79,146.6,25.4ZM15.3,54.23c-2.84,1.14-6.61-1.4-9.5,1.7-.52.56-2.24-.24-1.9,1.33.28,1.32,1.6,1.07,2.65,1.25,6,1,12.05-.52,18.06.35,1.09.16,2.19,0,2.32-1.51C27,56,26.3,55.59,25.17,55.1,22.05,53.76,18.82,54.54,15.3,54.23ZM145.38,33.78c-7-.29-12.28,4.25-18.23,6.88a1.5,1.5,0,0,0-.49,2.12,1.55,1.55,0,0,0,2,.66A35.08,35.08,0,0,0,145.38,33.78ZM42.37,81c-.57,5.27,1.11,10.19-3.86,12.54,4.63,3.34,9.74,2,14.79,1.79C50.53,94,47.63,93.4,45.38,91,42.86,88.32,44.67,84.75,42.37,81ZM143.62,39.62,129.33,46c-1.09.48-1.87,1.18-1.14,2.47.39.67.87,1.46,1.88,1C135,47.09,140.12,44.93,143.62,39.62Zm3,13.19a14.54,14.54,0,0,0-3.27.26c-1.27.44-3.53.35-3.11,2.3.29,1.33,2.21.74,3.51.73,5.15,0,10.37-.69,15.36,1.35.55.22,1.43.38,1.64-.47a1.3,1.3,0,0,0-1.09-1.45C155.16,54.54,150.66,53.64,146.61,52.81ZM6.59,47.4c4.38,2,8.34,2.31,12.19,3,.81.14,2.18.58,2.5-.51a2.47,2.47,0,0,0-1.68-2.78C15.64,45.67,11.59,44.19,6.59,47.4ZM27.32,64.08c.15-2.84-1.41-3.69-3.72-3.12a45.53,45.53,0,0,1-8.3.9,6.85,6.85,0,0,0-3,.87c-.83.51-2.13,1.21-1.83,2.32.36,1.36,2,1,2.73.65C17.68,63.39,22.58,64.72,27.32,64.08ZM117.46,75.3c.19,6.14-1.29,11.1-8,12.76,3.91.65,7.27-.7,10.68-1.62.71-.19,1.67-1.12.77-1.76C117.54,82.34,118.58,78.76,117.46,75.3Zm40.89-36.17c.17-.92-.07-1.36-.71-1.37a27,27,0,0,0-10.79,1.71c-1,.44-.94,1.46-.92,2.42s.56,1.24,1.26,1c3.39-1,6.75-2,10.11-3.1A3.81,3.81,0,0,0,158.35,39.13ZM131.22,66.86c-3-1.06-5.48.87-8.14.57-1.4-.16-1.51.86-1.15,1.84a5.59,5.59,0,0,0,5.22,3.65c2.21.13,3.19-1.47,3.36-3.61A13.08,13.08,0,0,1,131.22,66.86Zm1.66-4.69c5.34-3.67,4.11-8.5,3.87-13.18-1.64.72-4,1-3.57,3.15C133.81,55.33,132.85,58.37,132.88,62.17ZM62,91.51c-4.61-.18-7.07-3.27-9.54-7.51-.51,2.43-.73,3.78-2,4.58-.7.46-1.26,1.09-.92,2,.43,1.13,1.45,1,2.39,1C55.28,91.5,58.62,91.51,62,91.51Zm-5.67-19.1c.5-1.65-.38-2.23-1.33-1.84-1.89.77-4.62.75-5.19,3.09-.32,1.29.62,3.53,2.62,3.23C54.83,76.52,56,74.53,56.29,72.41Zm58.47-5.55c-.86.23-2.46-.57-2,1A5.21,5.21,0,0,0,117,72c1,.12,3.09-.4,2.67-2.18C119.09,67.31,116.88,66.89,114.76,66.86ZM91,25.84c3.43-.17,5.82-.25,8.21-.43,1-.07,2.41-.05,1.45-1.79-.46-.84.17-2.36-2.09-1.82A14.57,14.57,0,0,0,91,25.84Zm-18.46.85c-2-1.69-4.36-2-6.71-2.34-1.06-.14-1.79.13-1.86,1.44s.25,2,1.71,2A25.39,25.39,0,0,0,72.55,26.69Zm51.54,51.74c-.62-1.11.79-3.32-1.45-3.37-1.55,0-1.87,2-1.91,3.28-.06,1.43,0,3.78,1.94,3.72S123.38,79.68,124.09,78.43ZM30.77,52.3c4,2.25,4.58,2.35,7.29,1.43C34.62,50.69,34,50.57,30.77,52.3Z"/>
        <path class="cls-2" d="M144.39,20.9c-.11.06-.22.17-.33.16s-.19-.14-.28-.21Z"/>
        <path class="cls-3" d="M68.82,43.13c2.09,4.85.6,9.7.05,14.56-1.21.5-.93,2.59-2.69,2.49l.4-2.76c-5.7,9.3-13.22,13.64-23.48,13.15-2.57-.12-4.32-.57-5.28-3.11-.19-.49-.68-2.64-2-.68a1.25,1.25,0,0,1-.67-1.73c2.79-.15,1.22-2.13,1.28-3.29.2-4.11,1.24-4.87,5.13-3.48,5.79,2.07,13.23-1.25,15-6.68,2.26-7-.49-12-7.91-14.22-3.51-1.07-7-2.3-9.14-5.46-3-4.49-.5-8.78,5-11.2a15.35,15.35,0,0,1,14.93,1.41c1.91,1.24,3.44,2.42,2.36,5.71-.75,2.27-.31,6.45,1.1,8.16C66.85,40.93,68,46.38,68,52.44,69.31,49.36,68.79,46.22,68.82,43.13ZM54.91,29.28c-2.07-1.05-4.17-.62-6.23-.6-.76,0-1.73-.29-1.81.94-.07.94.64,1.17,1.37,1.63C51.18,33.1,52.73,30.18,54.91,29.28ZM67.53,55.6c0,.11-.14.24-.12.34.06.44.22.46.39.06a.54.54,0,0,0,0-.37S67.61,55.61,67.53,55.6Z"/>
        <path class="cls-4" d="M146.6,25.4c-5.73,7.39-14,9.42-21.41,12.74-2.21,1-3-1.49-3.92-2.67s.63-2.09,1.65-2.59a155.4,155.4,0,0,1,18.33-7.41C142.69,25,144.45,25.4,146.6,25.4Z"/>
        <path class="cls-3" d="M15.3,54.23c3.52.31,6.75-.47,9.87.87,1.13.49,1.87.9,1.76,2.25C26.8,58.9,25.7,59,24.61,58.86c-6-.87-12,.68-18.06-.35-1-.18-2.37.07-2.65-1.25-.34-1.57,1.38-.77,1.9-1.33C8.69,52.83,12.46,55.37,15.3,54.23Z"/>
        <path class="cls-5" d="M145.38,33.78a35.08,35.08,0,0,1-16.72,9.66,1.55,1.55,0,0,1-2-.66,1.5,1.5,0,0,1,.49-2.12C133.1,38,138.33,33.49,145.38,33.78Z"/>
        <path class="cls-6" d="M42.37,81c2.3,3.8.49,7.37,3,10.06,2.25,2.39,5.15,3,7.92,4.27-5,.2-10.16,1.55-14.79-1.79C43.48,91.14,41.8,86.22,42.37,81Z"/>
        <path class="cls-6" d="M127.73,81.82c.22.91.16,2.1.72,2.67,3.16,3.22-.43,5.7-.57,8.77-1.16-3.44-2.88-4.15-5.93-2.49-2,1.07-4.35,1.12-8,.58,5.38-2.12,10.58-2.76,12.43-8Z"/>
        <path class="cls-4" d="M143.62,39.62c-3.5,5.31-8.58,7.47-13.55,9.8-1,.47-1.49-.32-1.88-1-.73-1.29.05-2,1.14-2.47Z"/>
        <path class="cls-4" d="M146.61,52.81c4,.83,8.55,1.73,13,2.72A1.3,1.3,0,0,1,160.74,57c-.21.85-1.09.69-1.64.47-5-2-10.21-1.37-15.36-1.35-1.3,0-3.22.6-3.51-.73-.42-1.95,1.84-1.86,3.11-2.3A14.54,14.54,0,0,1,146.61,52.81Z"/>
        <path class="cls-6" d="M6.59,47.4c5-3.21,9.05-1.73,13-.33a2.47,2.47,0,0,1,1.68,2.78c-.32,1.09-1.69.65-2.5.51C14.93,49.71,11,49.41,6.59,47.4Z"/>
        <path class="cls-7" d="M27.32,64.08c-4.74.64-9.64-.69-14.16,1.62-.71.36-2.37.71-2.73-.65-.3-1.11,1-1.81,1.83-2.32a6.85,6.85,0,0,1,3-.87,45.53,45.53,0,0,0,8.3-.9C25.91,60.39,27.47,61.24,27.32,64.08Z"/>
        <path class="cls-6" d="M117.46,75.3c1.12,3.46.08,7,3.41,9.38.9.64-.06,1.57-.77,1.76-3.41.92-6.77,2.27-10.68,1.62C116.17,86.4,117.65,81.44,117.46,75.3Z"/>
        <path class="cls-5" d="M158.35,39.13a3.81,3.81,0,0,1-1,.7c-3.36,1.07-6.72,2.12-10.11,3.1-.7.2-1.24-.13-1.26-1s-.13-2,.92-2.42a27,27,0,0,1,10.79-1.71C158.28,37.77,158.52,38.21,158.35,39.13Z"/>
        <path class="cls-3" d="M131.22,66.86a13.08,13.08,0,0,0-.71,2.45c-.17,2.14-1.15,3.74-3.36,3.61a5.59,5.59,0,0,1-5.22-3.65c-.36-1-.25-2,1.15-1.84C125.74,67.73,128.18,65.8,131.22,66.86Z"/>
        <path class="cls-5" d="M132.88,62.17c0-3.8.93-6.84.3-10-.41-2.1,1.93-2.43,3.57-3.15C137,53.67,138.22,58.5,132.88,62.17Z"/>
        <path class="cls-8" d="M30.67,46.82A28.4,28.4,0,0,1,18.9,40.43c5.3.43,9.73-.23,12.68,4.06A3,3,0,0,1,30.67,46.82Z"/>
        <path class="cls-6" d="M62,91.51c-3.34,0-6.68,0-10,0-.94,0-2,.18-2.39-1-.34-.9.22-1.53.92-2,1.22-.8,1.44-2.15,2-4.58C54.89,88.24,57.35,91.33,62,91.51Z"/>
        <path class="cls-4" d="M30.67,46.82a3,3,0,0,0,.91-2.33c2.36.26,4.83.11,6.82,1.73.65.52,2.59-.44,1.9,1.6-.51,1.54-1.44,2.61-3.2,2.06C34.82,49.17,32.33,48.86,30.67,46.82Z"/>
        <path class="cls-6" d="M49.26,39.82c-2.3-.84-3.16.82-3.88,2.39-1.44,3.19-2.73,6.45-4.08,9.68-1.54,2.81-.33,4.26,2.47,4.79,4.64.88,9.33-2.22,10.85-7.11C56.07,44.9,54.57,42.18,49.26,39.82Z"/>
        <path class="cls-7" d="M42.84,77.63c-1.27-.71-3.43,0-3.67-2.33a2.07,2.07,0,0,1,1.56-2.08c1.83-.7,3.85-1.7,5.75-.73,1.25.65.58,2.05.15,3.21-.6,1.61-2,2-3.35,2.44Z"/>
        <path class="cls-7" d="M56.29,72.41c-.25,2.12-1.46,4.11-3.9,4.48-2,.3-2.94-1.94-2.62-3.23.57-2.34,3.3-2.32,5.19-3.09C55.91,70.18,56.79,70.76,56.29,72.41Z"/>
        <path class="cls-3" d="M114.76,66.86c2.12,0,4.33.45,4.9,2.91.42,1.78-1.66,2.3-2.67,2.18a5.21,5.21,0,0,1-4.27-4.07C112.3,66.29,113.9,67.09,114.76,66.86Z"/>
        <path class="cls-3" d="M91,25.84a14.57,14.57,0,0,1,7.57-4c2.26-.54,1.63,1,2.09,1.82,1,1.74-.44,1.72-1.45,1.79C96.83,25.59,94.44,25.67,91,25.84Z"/>
        <path class="cls-6" d="M133.55,18.93c-.71-3-2.63-5-4.67-7.08-3.53-2.34-6.43-5.55-10.25-7.51-1.24-1.52-2.92-.81-4.43-.85-2.52-.08-5.22.49-7.53-.21-4.77-1.44-8.31.43-11.78,3.17L94.22,7C89,8.53,86.47,12.8,84,17.1c-1,1.46-2,1.53-3.08,0C74,7.31,64,5.34,52.93,6c-10-.34-20.77,9.82-23,20.83-.82,4,1.06,4.42,3.67,4.8,4,.59,1.6-2.6,2.14-4a6.43,6.43,0,0,0,0-2.39c5.57-8.55,13.44-10,22.22-6.33,6.7,2.77,13.78,4.05,20.54,6.45,3.2,1.13,3.57,2.86,1.12,5.68l-1.69,2.52,1.69-2.52c-3.43-.7-6.51.85-9.69,1.63-6.45,1.57-6.44,1.63-2.13,7,0,.09-.1.2-.07.27a3,3,0,0,0,.28.44c1,.72.88,1.8.91,2.83l0,0c2.09,4.85.6,9.7,0,14.56h0c-1.21.5-.93,2.59-2.69,2.49-2.38,5.26-2.35,5.49,2.9,8.15a42.84,42.84,0,0,1,12.17,9c3.17,2.7,4.6,2.6,7.06-.5a53.36,53.36,0,0,1,14.12-12.38c2.72-1.65,3.13-2.71,1-5.34C97.64,52,96.14,44,100.23,35.6c1.88-3.84.15-4.3-2.78-4.67-3.35-.43-6.7-.91-10.06-1.34-1.14-.15-2.11-.51-2.42-1.74s.45-2,1.38-2.65c.65-.45,1.27-.95,1.9-1.42-1-.17-.77-1-.94-1.63-1.46.91-2.67,1.2-2-1.2.38-1.32,1.89-2.23,1.58-3.87a5.2,5.2,0,0,1-1.85.33,5.2,5.2,0,0,0,1.85-.33L88,16.49h0c3.14-1,1.25,1.1,1.24,2l-1.91,3.62c.17.63,0,1.46.94,1.63L96,20.19a26.68,26.68,0,0,0,7.29-3c6.79-4.53,13.83-6.44,21.54-2.31,4.52,3.22,4.79,7.81,3.61,12.91C135.11,25.12,135,25.13,133.55,18.93ZM78.93,23a11.24,11.24,0,0,1-4.47-5.34c-.29-.8.22-1.23,1.4-1.13,1.31,1.61,2.86,3.35,4.18,5.25C80.38,22.29,79.39,23.33,78.93,23ZM77.86,33.59c1.49.29,2.57.68,1.52,2.6s-1.52,4.36-4.84,3.31C75.64,37.37,77.44,35.85,77.86,33.59Zm-6.61.8a5.23,5.23,0,0,0-.6.7A5.23,5.23,0,0,1,71.25,34.39Zm17.66-.88c.92,1.7,3.11,2.8,3.4,5.25a.85.85,0,0,1,0,.39c-.21.61-.88,1-1.18.5-1.19-1.83-3.62-2.85-3.68-5.41C87.41,33.65,87.94,33.37,88.91,33.51ZM85.14,39c0,1,0,1.64,0,2.3s.09,1.76-1,1.75c-1,0-1.21-.91-1.34-1.7a4.21,4.21,0,0,1,0-2c.55-1.63-1.39-4.64,1.06-4.72S84.3,37.81,85.14,39Z"/>
        <path class="cls-6" d="M35.1,65.05a17.52,17.52,0,0,1-.91-6.92c.16-1.87-.57-2.71-2.47-2.4-2.25.59-3,3.3-1.87,6.85a8.11,8.11,0,0,0,4.26,5.2c1.34.62,1.59.14,1.66-1A1.25,1.25,0,0,1,35.1,65.05Z"/>
        <path class="cls-3" d="M72.55,26.69a25.39,25.39,0,0,1-6.86,1.08c-1.46,0-1.79-.67-1.71-2s.8-1.58,1.86-1.44C68.19,24.66,70.54,25,72.55,26.69Z"/>
        <path class="cls-9" d="M126.71,53.33c-.8.41-1.63.75-2.43,1.18-2.36,1.26-4.86,1.81-7.15-.31l-5-3.06c-5-7.36-3.07-14.06,5-17.81,1.55-.72,3-1.68,4.59-2.29,3.32-1.26,5.23-6.82,4.8-9.31-.63-3.62-3.47-5.76-8.16-6.12-2.48-2-4.81-.15-7.2.29-.52.12-1,.22-1.56.37-5.61,1.61-6.08,3.41-4.85,9,.53,2.42,1.27,6-.22,8.15-7,10-3.82,18.67,1.68,25.06h0c1.78,1.42,3.17,3.4,5.59,3.91a8.08,8.08,0,0,0,5.77,1.83c2,1.52,4.27.7,6.38.59,2.57-.13,5.35-.46,5.86-3.9,1-1.56.4-3.32.61-5C130.79,52.81,129.63,51.86,126.71,53.33ZM110.35,22c0-.25.53-.41,1-.75,1.94,3.38,4.71,2.71,7.59,1.78.58-.19.9.4.85,1a4.94,4.94,0,0,1-2.7,4.28c-2.84,1.7-4.79-.3-6.55-1.4C109.4,26.18,110.06,23.68,110.35,22Z"/>
        <path class="cls-7" d="M30.77,52.3c3.23-1.73,3.85-1.61,7.29,1.43C35.35,54.65,34.81,54.55,30.77,52.3Z"/>
        <path class="cls-6" d="M127.73,81.82l-1.35,1.55c0-2.34-.43-4.71.65-8A11.83,11.83,0,0,1,127.73,81.82Z"/>
        <path class="cls-6" d="M125.34,48.24a21.35,21.35,0,0,1-1.66-4.37c-.22-.35-.45-.7-.68-1l-.56-1.29-1.18-2c-3.43-5-3.78-5-8-.08-2.39,3.4-2,6.55.88,9.47,2.22,3.57,5.85,3.15,9.21,3C125.52,51.88,127.13,51,125.34,48.24Z"/>
        <path class="cls-3" d="M67.94,40.35c1,.72.88,1.8.91,2.83C67.59,42.54,68,41.36,67.94,40.35Z"/>
        <path class="cls-7" d="M43.28,78.14c-.38.37-1,.71-1.27.25-.39-.7.5-.54.83-.76Z"/>
        <path class="cls-1" d="M75.86,16.55c1.31,1.61,2.86,3.35,4.18,5.25.34.49-.65,1.53-1.11,1.22a11.24,11.24,0,0,1-4.47-5.34C74.17,16.88,74.68,16.45,75.86,16.55Z"/>
        <path class="cls-1" d="M85.14,39c0,1,0,1.64,0,2.3s.09,1.76-1,1.75c-1,0-1.21-.91-1.34-1.7a4.21,4.21,0,0,1,0-2c.55-1.63-1.39-4.64,1.06-4.72S84.3,37.81,85.14,39Z"/>
        <path class="cls-1" d="M88.91,33.51c.92,1.7,3.11,2.8,3.4,5.25a.85.85,0,0,1,0,.39c-.21.61-.88,1-1.18.5-1.19-1.83-3.62-2.85-3.68-5.41C87.41,33.65,87.94,33.37,88.91,33.51Z"/>
        <path class="cls-1" d="M89.22,18.53l-1.91,3.62c-1.46.91-2.67,1.2-2-1.2.38-1.32,1.89-2.23,1.58-3.87l1.06-.6C91.12,15.5,89.23,17.59,89.22,18.53Z"/>
        <path class="cls-7" d="M77.86,33.59c1.49.29,2.57.68,1.52,2.6s-1.52,4.36-4.84,3.31c1.11-2.13,2.91-3.66,3.32-5.92Z"/>
        <path class="cls-1" d="M54.91,29.28c-2.18.9-3.73,3.82-6.67,2-.73-.46-1.44-.69-1.37-1.63.08-1.23,1.05-.94,1.81-.94C50.74,28.66,52.84,28.23,54.91,29.28Z"/>
        <path class="cls-1" d="M67.53,55.6c.08,0,.21,0,.23,0a.54.54,0,0,1,0,.37c-.17.4-.33.38-.39-.06C67.39,55.84,67.48,55.71,67.53,55.6Z"/>
        <path class="cls-1" d="M111.35,21.24c1.94,3.38,4.71,2.71,7.59,1.78.58-.19.9.4.85,1a4.94,4.94,0,0,1-2.7,4.28c-2.84,1.7-4.79-.3-6.55-1.4-1.14-.72-.48-3.22-.19-4.91C110.39,21.74,110.88,21.58,111.35,21.24Z"/>
      </g>
    </g>
  </g>
</svg>
