<svg xmlns="http://www.w3.org/2000/svg" width="116.97" height="110.96" viewBox="0 0 116.97 110.96">
  <defs>
    <style>
      .cls-1 {
        fill: #050105;
      }

      .cls-2 {
        fill: #fcc;
      }

      .cls-3 {
        fill: #fa0102;
      }

      .cls-4 {
        fill: #fefefe;
      }

      .cls-5 {
        fill: #fddf8d;
      }

      .cls-6 {
        fill: #710020;
      }

      .cls-7 {
        fill: #fdf804;
      }

      .cls-8 {
        fill: #fe4efe;
      }
    </style>
  </defs>
  <g id="Layer_2" data-name="Layer 2">
    <g id="Layer_1-2" data-name="Layer 1">
      <g>
        <path class="cls-1" d="M11.06,35.65a88.77,88.77,0,0,1,3.69-13A36.4,36.4,0,0,1,35.36,1.86c5.54-2.24,12-2.79,18,.23a7.33,7.33,0,0,0,5.82.27C70.14-1,79.5,2.05,88,9.35a49.3,49.3,0,0,1,16.26,27.71c.73,3.37.46,6.94.77,10.41a11.24,11.24,0,0,0,8.47,10.35c3.44,1.06,4.5,4.35,2.48,7.65-2.84,4.61-7.28,6.22-12.34,6.24-2.93,0-5-.07-6.2,3.59A6.85,6.85,0,0,1,89.07,80c-1.94-.39-3.95-.35-5.82-1.18a3,3,0,0,0-3.89,1.75c-.66,1.48,1.08,2,2.27,2.6,3.3,1.7,7,2.33,10.17,4.47,6.15,4.19,8,10.93,10.43,17.33a8.22,8.22,0,0,0,.89,2.12c1.59,2.14,0,2.39-1.57,2.65-2.09-.36-1.49-2-1.64-3.34s.66-3-1.54-3.41c-1.5-5.54-4.94-9.84-9.09-13.55-2.39-2.14-5.26-1.54-5.38.92-.31,6.09-.76,12.22.47,18.28-1.43,1.2-1.93-.46-2.81-.92l-.48-12.18a.29.29,0,0,0,0-.38c.21-1,.72-2-.52-2.74,0-2-.46-3.24-2.67-1.74-1.16.78-2.26,1.67-3.38,2.51a2.58,2.58,0,0,1,1.62-3.1c3.16-1.73,3.33-4.13.67-6.78A13.27,13.27,0,0,1,75,80.9c-2.22-3.51-4.59-3.48-7.24-.26-1,1.23-1.82,2.88-3.13,3.56C62.28,85.39,62.36,87.39,63,89s1.72,3.44,4.17,3.52a54.25,54.25,0,0,1,6.3.89c-2.23,2.41-5.25,1.23-7.9,1.7.72,3.45.4,6.34-3.76,7.22-3.17.14-4.84-1.93-6.31-4.29.25-1.11.5-2.22.79-3.47-4.06-.1-8,.08-11.44-2.06,1-2.27,2.8-.67,4-.52,2,.26,3.84.84,5.84.48l0,.19-.09-.14c4.08-4.23,3.26-8.37-2.37-12.06-3.78-2.48-7.68-1.69-11.16,2.51-2.8,3.39,1.13,4.39,2.5,6.22.74,1,.94,1.58-.48,1.9-3.95-1.71-3.95-1.71-3.76,3-.18,1.27.27,2.79-1.41,3.43l.19-2.41A.76.76,0,0,0,37.81,94a8.77,8.77,0,0,1-.56-1.88c-.28-3.47-2.57-5.35-5.36-3.65-2.45,1.49-5.33,3.23-5.79,6.67a7.38,7.38,0,0,1-2.05,4.63c-.68.34-.67,1-1,1.62-1.49,2.88.2,5.86-.39,8.75-1.34,0-2.54.23-2.85-1.83-.91-6.06,5.09-20.17,10.28-22.66a55.23,55.23,0,0,0,7.06-3.51c1.16-.77,2.61-1.67,2-3s-2.36-1-3.59-.44c-3.81,1.83-7.31.75-10.78-.93-1-.47-2-.78-2.36-2-1-3.71-4-3.9-7.11-4.22-5.2-.54-10.1-1.57-13.49-6.37-2.8-4-2.53-5.75,1.81-7.72,3.57-1.61,6.82-3.67,7.3-8.14Zm20,4.68,1.13-1c8.24,2.15,15.24-.43,20.7-7.63a7.7,7.7,0,0,0,1.78-4.52c.14-1.4,1.23-2.76,1.83-2.82,1.13-.11,1.75,1.32,2.21,2.45A19.35,19.35,0,0,0,68.54,37.4c4.63,2.64,9.64,2.83,14.76,2.31l1,1c-.12,3.17.14,6.2,3.24,8.07,1.39.83,1,1.92.66,3.15C86,61.23,81.39,68.55,72.31,72.46c-1.6.69-1.8,1.54-.35,2.93,3,2.84,5.82,2.43,8.85.33,2-.23,3.43,1.22,5.15,1.81,3,1,5.81.81,8.08-1.5,1.86-1.89,3-4.12,1-6.68.73-.81-1-2.17.55-2.72a2.47,2.47,0,0,1,2.59.53c3.15,3.1,6.7,2.24,10.29,1.11,2.07,0,3.35-1.14,4.56-2.75,2.49-3.33,2.33-4.5-1.5-6-6.43-2.48-8.79-7.6-9.33-14,.25-14.4-5.32-26.16-16.39-35.21-7-5.74-14.86-9.2-24.27-6.71-2.37.62-4.47,2.5-7.25,1.27C38.42-2.09,26.14,7.61,19.14,19a38.74,38.74,0,0,0-5.31,26.52c.9,6.1-2.37,12.35-7.5,13.52-4.6,1-4,2.8-1.83,5.58,4.73,5.44,9.37,6.4,15.64,2.86,2.8-1.58,2.82.07,3,2,0,6.48,4.57,9.42,10.88,7,2.53-2.13,5.14-1.89,7.81-.31,2.36.57,5.5.5,6-1.66s-2.91-2.26-4.79-3a1.35,1.35,0,0,0-.4,0C35,66.12,29,59.54,26.7,50.24,30.35,47.9,32,44.7,31.11,40.33ZM59.3,73.51c8.66-1,17.23-3.19,22.34-11.43,2.81-4.53,7.44-9.43,1.34-15A1.81,1.81,0,0,1,82.54,46C82.23,42.53,80,41.89,77,41.69c-7.44-.51-13.62-3.51-17.88-9.84-1.39-2.07-2.3-2.13-3.61.16-3.26,5.71-8.52,8.65-14.79,9.93a14,14,0,0,0-8.26,5.73,3.1,3.1,0,0,1-.81.88c-2.59,1.72-2.23,3.93-1.11,6.3C36.24,66.87,46.06,72.61,59.3,73.51Zm-4.75,1.25c-.88.06-1.91-.36-2.32.41a2.21,2.21,0,0,0,.63,2.54c1.45,1.53,2.79,3.18,4.24,4.71,1.84,1.94,3.64,3.57,5.72.09A29.56,29.56,0,0,1,66.66,78c.68-.73,1.26-1.47.84-2.45-.48-1.14-1.6-.73-2.46-.73C61.5,74.8,58,76.57,54.55,74.76Zm6,25c1.63.13,2.9-.21,3-2.19.09-1.81-.75-2.67-2.55-2.72a2.68,2.68,0,0,0-3.07,2.78C57.87,99.21,58.93,100,60.54,99.78Z"/>
        <path class="cls-1" d="M98.37,103c2.2.37,1.39,2.13,1.54,3.41s-.45,3,1.64,3.34A6.51,6.51,0,0,1,97,111q-35.66-.08-71.3-.18c-1,0-2.18.33-3-.6.59-2.89-1.1-5.87.39-8.75.3-.57.29-1.28,1-1.62.08,1.6.59,3.33.16,4.78-.93,3.1.65,3.43,3,3.4,2.62,0,5.23,0,7.85,0-2.89,1-5.91,0-9.94,1.41,4,0,6.81.13,9.61,0,3.18-.18,4.62-2.17,3.66-5.17A12,12,0,0,1,38,97.51c1.68-.64,1.23-2.16,1.41-3.43,2.09,2.34.58,5.08.66,7.58.26,8.39-.25,8.47,8.37,7.74,8.28,0,16.57.37,24.84-.29l.33,0h.33a35.77,35.77,0,0,0,4.24.33c1.35,0,3.4.93,3.43-1.77.88.46,1.38,2.12,2.81.92,4.28,1.44,8.63.2,12.95.22l-3.1-.63C98.61,107.77,98.61,107.77,98.37,103Z"/>
        <path class="cls-2" d="M59.3,73.51c-13.24-.9-23.06-6.64-28.75-18.66-1.12-2.37-1.48-4.58,1.11-6.3a3.1,3.1,0,0,0,.81-.88,14,14,0,0,1,8.26-5.73C47,40.66,52.26,37.72,55.52,32c1.31-2.29,2.22-2.23,3.61-.16,4.26,6.33,10.44,9.33,17.88,9.84,3,.2,5.22.84,5.53,4.28A1.81,1.81,0,0,0,83,47.08c6.1,5.57,1.47,10.47-1.34,15C76.53,70.32,68,72.5,59.3,73.51ZM78.09,51.67c-1.92-1-3.87-.15-5.81-.13-3.49-.38-2.82,4.5-5.89,4.66-.41,4.18-3,6.46-6.85,7.15-3.36.59-7.37-2.27-8.85-6.05-.32-.83-.58-1.48-1.5-1.65a9.09,9.09,0,0,1-3.55-3A6.76,6.76,0,0,0,36,52.13c-1.67,1.6-1,5.84,1.35,7.46s4.75,2.21,7.42.45c1-.67,1.57-2.37,3.28-1.78,4.6,8.06,15.13,10.39,20.27.7,1.16-.68,2.16.07,2.89.67,3.1,2.55,6,1.77,8.36-.74C82,56.19,79.92,53.82,78.09,51.67ZM51.62,48.1a4.13,4.13,0,0,0-4.08-2.43c-1.93.08-2.43,1.66-2.26,3.15.22,1.89,1.72,2.63,3.53,2.46S51.24,49.88,51.62,48.1Zm16.22,3.2c1.59.09,2.8-.2,3-2.26.24-2.56-1.68-3-3.26-3.09a2.54,2.54,0,0,0-2.68,2.85A2.38,2.38,0,0,0,67.84,51.3Z"/>
        <path class="cls-3" d="M98.37,103c.24,4.79.24,4.79-4.15,5.24l3.1.63c-4.32,0-8.67,1.22-12.95-.22-1.23-6.06-.78-12.19-.47-18.28.12-2.46,3-3.06,5.38-.92C93.43,93.14,96.87,97.44,98.37,103Z"/>
        <path class="cls-3" d="M38,97.51a12,12,0,0,0,.44,6.68c1,3-.48,5-3.66,5.17-2.8.16-5.62,0-9.61,0,4-1.45,7.05-.44,9.94-1.41-2.62,0-5.23,0-7.85,0-2.35,0-3.93-.3-3-3.4.43-1.45-.08-3.18-.16-4.78a7.38,7.38,0,0,0,2.05-4.63c.46-3.44,3.34-5.18,5.79-6.67,2.79-1.7,5.08.18,5.36,3.65A8.77,8.77,0,0,0,37.81,94l.33,1.06Z"/>
        <path class="cls-3" d="M54.67,92.43c-2,.36-3.89-.22-5.84-.48-1.2-.15-3-1.75-4,.51l-1.7-1.41c1.42-.32,1.22-.9.48-1.9-1.37-1.83-5.3-2.83-2.5-6.22,3.48-4.2,7.38-5,11.16-2.51,5.63,3.69,6.45,7.83,2.37,12.06Z"/>
        <path class="cls-3" d="M73.45,93.37a54.25,54.25,0,0,0-6.3-.89C64.7,92.4,63.62,90.59,63,89s-.7-3.57,1.61-4.76c1.31-.68,2.12-2.33,3.13-3.56,2.65-3.22,5-3.25,7.24.26a13.27,13.27,0,0,0,1.82,2.4c2.66,2.65,2.49,5-.67,6.78a2.57,2.57,0,0,0-1.62,3.09Z"/>
        <path class="cls-2" d="M54.55,74.76c3.42,1.81,7,0,10.49,0,.86,0,2-.41,2.46.73.42,1-.16,1.72-.84,2.45a29.56,29.56,0,0,0-3.84,4.56c-2.08,3.48-3.88,1.85-5.72-.09-1.45-1.53-2.79-3.18-4.24-4.71a2.21,2.21,0,0,1-.63-2.54C52.64,74.4,53.67,74.82,54.55,74.76Z"/>
        <path class="cls-4" d="M60.54,99.78c-1.61.19-2.67-.57-2.62-2.13A2.68,2.68,0,0,1,61,94.87c1.8,0,2.64.91,2.55,2.72C63.44,99.57,62.17,99.91,60.54,99.78Z"/>
        <path class="cls-5" d="M111.5,59.54c-6.43-2.48-8.79-7.6-9.33-14,.25-14.4-5.32-26.16-16.39-35.21-7-5.74-14.86-9.2-24.27-6.71-2.37.62-4.47,2.5-7.25,1.27C38.42-2.09,26.14,7.61,19.14,19a38.74,38.74,0,0,0-5.31,26.52c.9,6.1-2.37,12.35-7.5,13.52-4.6,1-4,2.8-1.83,5.58,4.73,5.44,9.37,6.4,15.64,2.86,2.8-1.58,2.82.07,3,2,0,6.48,4.57,9.42,10.89,7,2.52-2.13,5.13-1.89,7.8-.31,2.36.57,5.5.5,6-1.66s-2.91-2.26-4.79-3a1.42,1.42,0,0,0-.41,0C35,66.12,29,59.54,26.71,50.23h0c3.64-2.33,5.33-5.53,4.4-9.9l1.13-1c8.24,2.15,15.24-.43,20.71-7.64a7.7,7.7,0,0,0,1.77-4.51c.14-1.4,1.23-2.76,1.83-2.82,1.13-.11,1.75,1.32,2.21,2.45A19.35,19.35,0,0,0,68.54,37.4c4.63,2.64,9.64,2.83,14.76,2.31l1,1c-.12,3.17.14,6.2,3.24,8.07,1.39.83,1,1.92.66,3.15C86,61.23,81.39,68.55,72.31,72.46c-1.6.69-1.8,1.54-.35,2.93,3,2.84,5.82,2.43,8.86.33,2-.23,3.42,1.22,5.14,1.81,3,1,5.81.81,8.08-1.5,1.86-1.89,3-4.12,1-6.68.73-.81-1-2.17.55-2.72a2.47,2.47,0,0,1,2.59.53c3.15,3.1,6.7,2.24,10.3,1.1,2.06,0,3.34-1.13,4.55-2.74C115.49,62.19,115.33,61,111.5,59.54Zm-83-14.83a25.43,25.43,0,0,0,1.64-3.36A24.25,24.25,0,0,1,28.51,44.71Z"/>
        <path class="cls-5" d="M81.06,95.15c-.87-.78-.55-1.79-.52-2.74C81.78,93.11,81.27,94.16,81.06,95.15Z"/>
        <polygon class="cls-3" points="54.63 92.48 54.72 92.62 54.66 92.43 54.63 92.48"/>
        <path class="cls-6" d="M38.14,95.1,37.81,94A.76.76,0,0,1,38.14,95.1Z"/>
        <path class="cls-7" d="M48.39,109.4c.69-1.25,1.89-.8,2.87-.75,7.32.31,14.67-.66,22,.46C65,109.77,56.67,109.45,48.39,109.4Z"/>
        <path class="cls-1" d="M30.16,41.35l0-.1Z"/>
        <path class="cls-8" d="M48,58.26c-1.71-.59-2.27,1.11-3.28,1.78-2.67,1.76-5.12,1.11-7.42-.45s-3-5.86-1.35-7.46a6.76,6.76,0,0,1,9.69.48,9.13,9.13,0,0,0,3.54,3C47.88,56.11,48.19,57.3,48,58.26Z"/>
        <path class="cls-1" d="M48,58.26c.19-1-.12-2.15,1.18-2.61.93.17,1.19.82,1.51,1.65,1.48,3.78,5.49,6.64,8.85,6.05,3.89-.69,6.44-3,6.86-7.16,3.47-1,2.8.8,1.87,2.77C63.13,68.65,52.6,66.32,48,58.26Z"/>
        <path class="cls-8" d="M72.28,51.54c1.94,0,3.89-.86,5.81.13a5.6,5.6,0,0,0-.23,2.71c.24,1.35.94,3.34-.71,3.91s-4.06,1-5.69-.48-.41-2.93.23-4.39A17.09,17.09,0,0,0,72.28,51.54Z"/>
        <path class="cls-8" d="M72.28,51.54a17.09,17.09,0,0,1-.59,1.88c-.64,1.46-1.73,3-.23,4.39s3.93,1.09,5.69.48.95-2.56.71-3.91a5.6,5.6,0,0,1,.23-2.71c1.83,2.15,3.93,4.52,1.43,7.22-2.32,2.51-5.26,3.29-8.36.74-.73-.6-1.73-1.35-2.89-.67.93-2,1.6-3.76-1.87-2.77C69.46,56,68.79,51.16,72.28,51.54Z"/>
        <path class="cls-1" d="M51.62,48.1c-.38,1.78-1.09,3-2.81,3.18s-3.31-.57-3.53-2.46c-.17-1.49.33-3.07,2.26-3.15A4.13,4.13,0,0,1,51.62,48.1Z"/>
        <path class="cls-1" d="M67.84,51.3a2.38,2.38,0,0,1-3-2.5A2.54,2.54,0,0,1,67.56,46c1.58.09,3.5.53,3.26,3.09C70.64,51.1,69.43,51.39,67.84,51.3Z"/>
        <path class="cls-7" d="M81.08,95.53a.29.29,0,0,0,0-.38c-.87-.78-.55-1.79-.52-2.74,0-2-.46-3.24-2.67-1.74-1.16.78-2.26,1.67-3.38,2.5l-1,.2c-2.23,2.41-5.25,1.23-7.9,1.7.72,3.45.4,6.34-3.76,7.22-3.17.14-4.84-1.93-6.31-4.29.25-1.11.5-2.22.79-3.47-4.06-.1-8,.08-11.45-2.07l-1.7-1.41c-3.95-1.71-3.95-1.71-3.76,3,2.09,2.34.58,5.08.66,7.58.26,8.39-.25,8.47,8.37,7.74.69-1.25,1.89-.8,2.87-.75,7.32.31,14.67-.66,22,.46l.33,0h.33a5,5,0,0,1,2.77-.53,5,5,0,0,0-2.77.53,35.77,35.77,0,0,0,4.24.33c1.35,0,3.4.93,3.43-1.77Zm-11,4.7c.76-1,1.3-2.28,2.55-2.58l.4,0-.4,0C71.37,98,70.83,99.25,70.07,100.23Zm7.07,7.58h0l1.37.2Z"/>
      </g>
    </g>
  </g>
</svg>
