<svg xmlns="http://www.w3.org/2000/svg" width="148.51" height="102.66" viewBox="0 0 148.51 102.66">
  <defs>
    <style>
      .cls-1 {
        fill: #050105;
      }

      .cls-2 {
        fill: #fd983f;
      }

      .cls-3 {
        fill: #fefefe;
      }

      .cls-4 {
        fill: #ffef9f;
      }

      .cls-5 {
        fill: #ffc192;
      }

      .cls-6 {
        fill: #2622f6;
      }

      .cls-7 {
        fill: #fddf8d;
      }

      .cls-8 {
        fill: #fe94fe;
      }
    </style>
  </defs>
  <g id="Layer_2" data-name="Layer 2">
    <g id="Layer_1-2" data-name="Layer 1">
      <g>
        <path class="cls-1" d="M24.29,56.09a2.3,2.3,0,0,0,2.3-1.26c1.17-.23,2.34-.51,3.53-.67,6.66-.85,13.76.47,15.22,7.51a35.06,35.06,0,0,1-.53,4C44,68.82,40,71.05,37,70.11c-2.67-.84-3.51-3.39-2-6.76.84-1.88,0-2-1.5-2.05-3.8-.09-6.21,1.88-7.9,5.1-2,3.78.1,6.26,2.53,8.69A7.55,7.55,0,0,0,33,77.47c3.79,2.18,7.74,1,11.35-.11,1.74-.52.53-3.48.73-5.32,1-3.66,4.19-6.54,4-10.66a5.69,5.69,0,0,0,1.06-3.74c0-4.86-1.24-6.06-6.1-5.91-3,.09-6.06-.6-9,.88a2,2,0,0,1-2.13-.48c-6.25-4.94-8.13-12.31-10.15-19.3-.94-3.24-1.75-5.3-5.05-6-3.9-4.07-4.61-9.61-1.66-13,2-.85,3,1.18,4.65,1.93l-.4-2.94c2-5.39,2.35-5.5,7.72-2.85.38.19,1-.08,1.48-.08,3,0,7-1.6,6.5,4,0,.18.52.58.83.61,2.31.2,2.82,2.15,4,4.33.31-2.41,1.31-4.21,3.15-4.71,5.22-1.41,6.49-6.65,10-9.71,1.12-1,.71-2.19.7-3.36a.36.36,0,0,0,.34-.38c1-.15,1.13,1,1.69,1.28,1.82.81,1.67-1.73,2.94-2,2.64-.55.1,3.6,1.8,2.52,3-1.91,3.9.78,5.76,1.59,3,1.32,5.41,3.86,9.48,3.44,3.8-.38,5.42,3.38,6,6.72a5.11,5.11,0,0,1-3.43,5.75c-2.77,1.13-2.27,2.47-.83,4.22a7.41,7.41,0,0,1,2,4.27,16.43,16.43,0,0,0,5.7,10.28c.64.48,1.16,1.11,1.76,1.66,7.28,6.69,12.87,7,21.14,1.39a6.63,6.63,0,0,1,4.3-1.6c2.3.09,4.52-.58,3.4-4.42-1.55-5.32-.16-10.57,2.7-15.33,2.07-3.45,3.92-3.74,6.63-1a13.36,13.36,0,0,1,2.12,2.89c2.35,4.28,2.32,4.3,6.64,1.53.55-.35,1.05-.76,1.58-1.15,2.79-.69,5.4-2,8.4-2,1.41,0,2.6.1,3.57,1.16.22,6.19-2.64,11.12-6.64,15.7,1.18.72,2.2,1.33,3.2,2,3.59,2.21,3.76,3.64.66,6.35a16.55,16.55,0,0,1-3.25,2.28c-2.45,1.25-5,2.33-8,3.73a18.09,18.09,0,0,1,2.9.93c2.66,1.57,3.17,4.69,3.62,7.11.4,2.17-2.78,3-4.74,3.55-4.11,1.16-7,4.28-10.49,6.33A3.76,3.76,0,0,0,124,74.74c1.34,3.71-.54,5.86-4.17,6.57-6.38,1.26-12,3.74-16.53,8.69-1.7,1.87-3.79,1.9-6.32.93-6-2.28-9.48-7.39-13.62-11.66-2.6-2.68-3.8-2.32-6.21.08-5.64,5.61-11.6,11-20.58,9.53-1.2-.19-2,.57-2.91,1.07-9.22,5-19,8.69-28.84,12.18-1.49.53-3.06.91-4.22-.11-1.52-1.33-3.24-1.13-4.9-1.17-5.14-.15-10.28-.13-15.42-.18-.66-1.83.15-2.42,1.9-2.9,2.22-.61,4.64-.31,6.7-1.56a148.19,148.19,0,0,0,22.35-6.33c2.59-1.43,6-1.22,8.81-4.13a29.83,29.83,0,0,1-14.72-2.82L19,76.21C15.12,67.05,16.58,61.49,24.29,56.09Zm30.4-40.77c-1.77,1.22-2,2.77-.54,4.26s3.17,1.68,4.7-.11c1.49-1.38,1.56-2.83.13-4.27S56.09,14,54.69,15.32ZM27.39,80.73a24.64,24.64,0,0,0,19.28.75c-5.5-1.09-11.4.6-16.62-2.33-5.49-2.77-8-7.07-6.91-13.27,1.87-6.55,7.91-9,14.88-6.17,1.89,1.79,1.59,3.74.33,5.69-.41.63-.71,1.23,0,1.65a2,2,0,0,0,1.48-.16,4.78,4.78,0,0,0,2.85-4.35c.16-2.26-.18-4.26-2.88-4.83C29.39,53.47,16.52,61.33,20.9,74.24A10.58,10.58,0,0,0,27.39,80.73Zm9.17-45.29c.37,1.72-.11,3.88,2.63,4.2,4.39.51,8.17-.88,11.69-3.33,1.07-.74,1.52-1.85.7-2.72-1.34-1.42-.46-3.09-.95-4.55.57-4.2-2.75-1.73-4.21-2.46l-2.17-1.31-3.13-3.4a8.92,8.92,0,0,1-2.34,6C36.63,30.07,36.3,32.61,36.56,35.44ZM49,49.35c2.21,1.6,2.88,3.9,3.43,6.47,1.15,5.39-.91,9.84-3.25,14.44C46.6,75.39,48,80.87,52.05,83.81c7.15,5.13,21.86-.18,24.52-8.86.54-1.76,4.79-2.93,5.35-1.37,1.89,5.19,7.51,6.64,10.25,10.93,1.66,2.61,3.83.88,3.87-.81.06-3,1.24-3.58,3.77-3-.65-3.11-1.39-5.78-4.88-6.31a1.92,1.92,0,0,1-1.2-.91c-1.66-3.17-4.71-5.05-7-7.62s-5.29-3-8.75-2.51c-5.72.87-10.51,3.67-15.36,6.44-.86.5-1.86,1.07-2.56.29-.86-1,.31-1.83.92-2.25,2.06-1.45,1.52-3,1.2-5.15-.69-4.56-3.9-8.85-1.76-13.78.83-1.9,2.61-4.6,1.94-5.63-1-1.58-3.86-1.92-5.8-3-2.68-1.51-5.16-2.09-7.45.59a20,20,0,0,1-11,2c-2.48-1.11-3.25-3.68-3.8-5.78-.67-2.53-2-1.91-3.49-1.76-.85-1.24-1.89-2-3.34-1-.68.47-1.69.85-1,2.15,1.47,2.8,1.64,6.13,3.44,8.81,2,1.95,3.44,5.46,7.07,2.28C41.06,47.76,45.16,47.83,49,49.35Zm32.49,8.46c-1.29-5.89-4.4-11.13-6.54-16.74-.13-.33-.85-.56-1.32-.61-2.67-.32-8,3.07-9.43,5.44-3.35,5.36-.17,10.58.09,15.84.13,2.8,2,2.67,4,1.76a30,30,0,0,1,10.58-2.77C81.16,60.6,81.77,59.89,81.53,57.81Zm-14.33-36c-5.61-.06-10.26,1.82-13,7a6.59,6.59,0,0,0,2.85,9.11c5.89,3.34,11.73,2.76,17.17-.87a8.44,8.44,0,0,0,4-6.59C78.46,25.34,74.05,21.86,67.2,21.83ZM114.62,62c-5.3-.15-9.05-3.21-12.36-6.87-1.79-2-3.89-3.08-6.38-2.5-3.72.88-7.42,2-10.5,4.5-1.08.87-1.89,2-1.18,3.47,1.08,2.3,6.06,4,8.5,3.44,2.92-.67,5.68-3,8.84.86C105.62,69.81,111.68,68.15,114.62,62ZM17.41,16.12c-2.69,2.11-1.2,4.11-.18,5.75a21.09,21.09,0,0,0,8.24,7.38c5.8,3,5.79,2.9,10.2-1.64,2.1-2.15,3.31-4.57,2.82-7.56-.1-.67.56-2.2-1-2.07-1.12.09-1.45,1.12-1.28,2.13.49,3-1.06,3.89-3.69,3.42-2.35-.41-3-5.08-1-7.89.81-1.17,3-2.49,1.27-3.62-1.38-.88-2.86,1.4-3.64,2.79A5.9,5.9,0,0,0,28.2,19c.2.9.52,2.17-1.07,2.69C24.94,19.08,25.58,16,25.52,13c0-.81.77-2.1-.63-2.32-1.05-.16-1.35,1-1.71,1.86-1.07,2.56,0,4.91.61,7.3.31,1.17.78,2.66-.45,3.28-1.45.72-2.5-.7-3.19-1.74A54.57,54.57,0,0,1,17.41,16.12ZM79,37.88c-.58.14-1.55.08-2.06.54-.87.8-.14,1.66.35,2.48a39.52,39.52,0,0,1,2.05,3.85,10.79,10.79,0,0,0,13,5.93c3.54-1,7-1,9.94,1.27s4.79,1.2,6.27-1.6c.42-.8,2.12-1.38.7-2.59-.92-.8-1.73-1.51-3.38-.66a17.51,17.51,0,0,1-6.18,1.47c-6,.62-9.47-3.81-13.61-6.76C84,40.25,82,38.52,79,37.88ZM121,72.55c-2.37-1-4.25-.5-6.08-.58a1.69,1.69,0,0,1-1.61-1,1.37,1.37,0,0,1,.63-1.18c1.4-.44,2.25-1.62,1.34-2.53s-2.58-.56-3.5.67a9.36,9.36,0,0,0-2,3.38,6.25,6.25,0,0,1-4.23,5.18,4.43,4.43,0,0,0-3.21,5.23c.17,1.51.37,3.74-2.75,2.54-2.11-.82-.45,2.31-2.07,2.61-.63.11-.78.87-.09,1.52s1.79.54,2.67.45c1.33-.14,1.81-1.49,2.72-2.25,2-1.7,3.35-4.22,6.12-5,3.17-.84,6.32-1.8,9.53-2.38,1.86-.33,2.73-1.26,3.51-3-2.72-.57-5.37-.37-8-1.72C116.06,72.55,118.72,74.49,121,72.55ZM144,43c-6.57-3.85-12.93-4.44-19-.76.45,6.42,5.82,5.5,9.68,6.1C138.7,48.94,141.6,46.09,144,43Zm-5.48,17c-1.91-2.88-3.86-.82-5.65-.88-.77,0-1.82.34-2-.66s.65-1.6,1.67-1.8c1.31-.26,2.82.36,4.34-1-2.4-1.75-4.41-.58-6.41,0a2,2,0,0,1-2.2-.29c-.77-.73-.19-1.09.19-1.61.74-1,3-2.06,1.26-3.3-1.33-1-2.22,1.35-3.34,2.16-1.59,1.14-1.17,2.83-1.23,4.39,0,1.3.47,2.9-.92,3.71-3.8,2.22-3.85,5.2-1.91,8.71C126.9,65.12,132.16,61.64,138.47,59.94ZM69.93,8.51c-13.58-3.66-17.72-.34-17.65,4.78C55.91,10,58.83,12,61.86,14.61,62.4,10.16,66.16,9.74,69.93,8.51ZM106.4,72.27c-2.4-.55-3.66-2.49-5.15-4.15-1.15-1.3-6.45-1.67-7.74-.56a1,1,0,0,0-.36,1.33C94.69,73.13,103.19,75.33,106.4,72.27Zm11-30.32c-2.3.25-4.61,1-4.89,3-.32,2.28,2.43,2,3.86,2.31,2.38.54,5-.45,7.14,1.81.65.7,1.83-.08,1.1-1.4C123,44.7,120.88,42.38,117.45,42ZM71,14.67c.16-1.61-.66-2.58-2.78-2.55-2.3,0-3.64,1.15-3.65,3.34a2.88,2.88,0,0,0,3,3.11C69.78,18.62,70.9,17.34,71,14.67ZM48.27,21.6c.25-2.23-2.46-2.83-2.83-4.8-1.08.81-2.17,1.65-2,3.21.23,2.09,1.16,3.41,3.52,3.48C48.54,23.54,48.27,22.59,48.27,21.6ZM78,18c2.59-2.58,4.17-4.84.74-7.21C76.24,12.86,76.19,15.17,78,18Zm37.64,41.87c2.11,0,3.7.07,5.28,0a1.79,1.79,0,0,0,1.63-1.95,2.56,2.56,0,0,0-.74-1.75c-.89-.81-1.31.29-1.94.65C118.47,57.6,116.91,58.05,115.59,59.89Zm-64.76-41c-.76,1.71.52,3.11.87,4.67.29,1.28,1.58.76,2.33.35,1.21-.68.23-1.6-.3-1.73C51.9,21.73,52,19.7,50.83,18.91Z"/>
        <path class="cls-2" d="M30.82,35.28c1.51-.15,2.82-.77,3.49,1.76.55,2.1,1.32,4.67,3.8,5.78-.1.09-.23.16-.28.27s0,.31,0,.32c3.61,1,9.65-.4,11.25-2.62,2.29-2.68,4.77-2.1,7.45-.59,1.94,1.1,4.77,1.44,5.8,3,.67,1-1.11,3.73-1.94,5.63-2.14,4.93,1.07,9.22,1.76,13.78.32,2.18.86,3.7-1.2,5.15-.61.42-1.78,1.28-.92,2.25.7.78,1.7.21,2.56-.29C67.46,67,72.25,64.17,78,63.3c3.46-.52,6.4-.13,8.75,2.51s5.35,4.45,7,7.62a1.92,1.92,0,0,0,1.2.91c3.49.53,4.23,3.2,4.88,6.31-2.53-.53-3.71.07-3.77,3,0,1.69-2.21,3.42-3.87.81-2.74-4.29-8.36-5.74-10.25-10.93-.56-1.56-4.81-.39-5.35,1.37-2.66,8.68-17.37,14-24.52,8.86C48,80.87,46.6,75.39,49.22,70.26c2.34-4.6,4.4-9.05,3.25-14.44C51.92,53.25,51.25,51,49,49.35c-3.65-3.05-7.78-3-12.06-1.8-3.63,3.18-5.1-.33-7.07-2.29a.86.86,0,0,0,.35-1.3c-1.43-2.56-1.62-4.82,1.15-6.73C32.78,36.3,31.36,35.84,30.82,35.28Z"/>
        <path class="cls-3" d="M81.53,57.81c.24,2.08-.37,2.79-2.61,2.92A30,30,0,0,0,68.34,63.5c-2,.91-3.88,1-4-1.76-.26-5.26-3.44-10.48-.09-15.84,1.47-2.37,6.76-5.76,9.43-5.44.47,0,1.19.28,1.32.61C77.13,46.68,80.24,51.92,81.53,57.81Z"/>
        <path class="cls-4" d="M67.2,21.83c6.85,0,11.26,3.51,11,8.64a8.44,8.44,0,0,1-4,6.59c-5.44,3.63-11.28,4.21-17.17.87a6.59,6.59,0,0,1-2.85-9.11C56.94,23.65,61.59,21.77,67.2,21.83ZM55,31.23a10.55,10.55,0,0,0,9.3,4.85c4.11.07,8.17-1,10.84-4.76.67-.94,1.3-2.08.33-2.86s-1.58.6-2.08,1.22c-1.67,2.07-3.88,2.91-6.34,3.74C62.93,34.8,59.61,32.6,55,31.23Z"/>
        <path class="cls-2" d="M114.62,62c-2.94,6.17-9,7.83-13.08,2.9-3.16-3.82-5.92-1.53-8.84-.86-2.44.57-7.42-1.14-8.5-3.44-.71-1.5.1-2.6,1.18-3.47,3.08-2.46,6.78-3.62,10.5-4.5,2.49-.58,4.59.51,6.38,2.5C105.57,58.77,109.32,61.83,114.62,62Z"/>
        <path class="cls-5" d="M17.41,16.12a54.57,54.57,0,0,0,2.74,5.23c.69,1,1.74,2.46,3.19,1.74,1.23-.62.76-2.11.45-3.28-.64-2.39-1.68-4.74-.61-7.3.36-.88.66-2,1.71-1.86,1.4.22.61,1.51.63,2.32.06,3-.58,6.11,1.61,8.75,1.59-.52,1.27-1.79,1.07-2.69a5.9,5.9,0,0,1,.9-4.22c.78-1.39,2.26-3.67,3.64-2.79,1.76,1.13-.46,2.45-1.27,3.62-1.94,2.81-1.33,7.48,1,7.89,2.63.47,4.18-.39,3.69-3.42-.17-1,.16-2,1.28-2.13,1.59-.13.93,1.4,1,2.07.49,3-.72,5.41-2.82,7.56-4.41,4.54-4.4,4.66-10.2,1.64a21.09,21.09,0,0,1-8.24-7.38C16.21,20.23,14.72,18.23,17.41,16.12Zm10.11,7.35C27,23.71,26,24,26.83,25c1.47,1.67,3.18,3.09,3.84,5.38.16.58,1.14.66,1.55-.09C33,28.76,29.5,23.42,27.52,23.47Z"/>
        <path class="cls-2" d="M79,37.88c2.93.64,4.94,2.37,7.13,3.93,4.14,2.95,7.59,7.38,13.61,6.76A17.51,17.51,0,0,0,106,47.1c1.65-.85,2.46-.14,3.38.66,1.42,1.21-.28,1.79-.7,2.59-1.48,2.8-3.23,4-6.27,1.6s-6.4-2.29-9.94-1.27a10.79,10.79,0,0,1-13-5.93,39.52,39.52,0,0,0-2.05-3.85c-.49-.82-1.22-1.68-.35-2.48C77.48,38,78.45,38,79,37.88Z"/>
        <path class="cls-5" d="M121,72.55c-2.25,1.94-4.91,0-6.93,2,2.59,1.35,5.24,1.15,8,1.72-.78,1.77-1.65,2.7-3.51,3-3.21.58-6.36,1.54-9.53,2.38-2.77.73-4.12,3.25-6.12,5-.91.76-1.39,2.11-2.72,2.25-.88.09-1.84.32-2.67-.45s-.54-1.41.09-1.52c1.62-.3,0-3.43,2.07-2.61,3.12,1.2,2.92-1,2.75-2.54a4.43,4.43,0,0,1,3.21-5.23,6.25,6.25,0,0,0,4.23-5.18,9.36,9.36,0,0,1,2-3.38c.92-1.23,2.74-1.43,3.5-.67s.06,2.09-1.34,2.53a1.37,1.37,0,0,0-.63,1.18,1.69,1.69,0,0,0,1.61,1C116.72,72.05,118.6,71.59,121,72.55Z"/>
        <path class="cls-6" d="M144,43c-2.35,3.12-5.25,6-9.34,5.34-3.86-.6-9.23.32-9.68-6.1C131,38.53,137.38,39.12,144,43Z"/>
        <path class="cls-5" d="M138.47,59.94c-6.31,1.7-11.57,5.18-16.23,9.4-1.94-3.51-1.89-6.49,1.91-8.71,1.39-.81.87-2.41.92-3.71.06-1.56-.36-3.25,1.23-4.39,1.12-.81,2-3.14,3.34-2.16,1.69,1.24-.52,2.28-1.26,3.3-.38.52-1,.88-.19,1.61a2,2,0,0,0,2.2.29c2-.55,4-1.72,6.41,0-1.52,1.36-3,.74-4.34,1-1,.2-1.91.7-1.67,1.8s1.26.63,2,.66C134.61,59.12,136.56,57.06,138.47,59.94Z"/>
        <path class="cls-2" d="M69.93,8.51c-3.77,1.23-7.53,1.65-8.07,6.1-3-2.57-6-4.66-9.58-1.32C52.21,8.17,56.35,4.85,69.93,8.51Z"/>
        <path class="cls-2" d="M20.9,74.24c-4.38-12.91,8.49-20.77,18.91-16.53-.37.87-2.31.33-1.79,2-7-2.88-13-.38-14.88,6.17C20.93,68.27,23.6,72,20.9,74.24Z"/>
        <path class="cls-5" d="M117.45,42c3.43.43,5.58,2.75,7.21,5.72.73,1.32-.45,2.1-1.1,1.4-2.11-2.26-4.76-1.27-7.14-1.81-1.43-.33-4.18,0-3.86-2.31C112.84,43,115.15,42.2,117.45,42Z"/>
        <path class="cls-2" d="M30.05,79.15c5.22,2.93,11.12,1.24,16.62,2.33a24.64,24.64,0,0,1-19.28-.75C27.88,79.53,29.19,79.72,30.05,79.15Z"/>
        <path class="cls-2" d="M30.05,79.15c-.86.57-2.17.38-2.66,1.58a10.58,10.58,0,0,1-6.49-6.49c2.7-2.26,0-6,2.24-8.36C22,72.08,24.56,76.38,30.05,79.15Z"/>
        <path class="cls-3" d="M71,14.67c0,2.67-1.17,4-3.45,3.9a2.88,2.88,0,0,1-3-3.11c0-2.19,1.35-3.3,3.65-3.34C70.29,12.09,71.11,13.06,71,14.67Z"/>
        <path class="cls-2" d="M38,59.71c-.52-1.67,1.42-1.13,1.79-2,2.7.57,3,2.57,2.88,4.83a4.78,4.78,0,0,1-2.85,4.35,2,2,0,0,1-1.48.16c-.72-.42-.42-1,0-1.65C39.61,63.45,39.91,61.5,38,59.71Z"/>
        <path class="cls-7" d="M30.82,35.28c.54.56,2,1,.59,1.95-2.77,1.91-2.58,4.17-1.15,6.73a.86.86,0,0,1-.35,1.3c-1.8-2.67-2-6-3.44-8.8-.68-1.3.33-1.68,1-2.15C28.93,33.31,30,34,30.82,35.28Z"/>
        <path class="cls-3" d="M48.27,21.6c0,1,.27,1.94-1.3,1.89-2.36-.07-3.29-1.39-3.52-3.48-.18-1.56.91-2.4,2-3.21C45.81,18.77,48.52,19.37,48.27,21.6Z"/>
        <path class="cls-3" d="M78,18c-1.76-2.85-1.71-5.16.74-7.21C82.12,13.18,80.54,15.44,78,18Z"/>
        <path class="cls-8" d="M115.59,59.89c1.32-1.84,2.88-2.29,4.23-3.07.63-.36,1.05-1.46,1.94-.65a2.56,2.56,0,0,1,.74,1.75,1.79,1.79,0,0,1-1.63,1.95C119.29,60,117.7,59.89,115.59,59.89Z"/>
        <path class="cls-3" d="M58.85,19.47c-1.53,1.79-3.22,1.63-4.7.11s-1.23-3,.54-4.26l.63.64c-.22,2.13.16,3.67,2.87,2.89Z"/>
        <path class="cls-4" d="M50.83,18.91c1.19.79,1.07,2.82,2.9,3.29.53.13,1.51,1.05.3,1.73-.75.41-2,.93-2.33-.35C51.35,22,50.07,20.62,50.83,18.91Z"/>
        <path class="cls-2" d="M37,47.55c4.28-1.17,8.41-1.25,12.06,1.8C45.16,47.83,41.06,47.76,37,47.55Z"/>
        <path class="cls-2" d="M49.1,40.79c-1.6,2.22-7.64,3.63-11.25,2.62,0,0-.07-.23,0-.32s.18-.18.28-.27A20,20,0,0,0,49.1,40.79Z"/>
        <path class="cls-3" d="M54.69,15.32c1.4-1.32,2.85-1.58,4.29-.12s1.36,2.89-.13,4.27l-.66-.62c.87-2.78-.39-3.44-2.87-2.89Z"/>
        <path class="cls-1" d="M55,31.23c4.63,1.37,8,3.57,12.05,2.19,2.46-.83,4.67-1.67,6.34-3.74.5-.62,1-2.08,2.08-1.22s.34,1.92-.33,2.86c-2.67,3.75-6.73,4.83-10.84,4.76A10.55,10.55,0,0,1,55,31.23Z"/>
        <path class="cls-1" d="M27.52,23.47c2,0,5.52,5.29,4.7,6.8-.41.75-1.39.67-1.55.09C30,28.07,28.3,26.65,26.83,25,26,24,27,23.71,27.52,23.47Z"/>
        <path class="cls-1" d="M55.32,16c2.48-.55,3.74.11,2.87,2.89C55.48,19.63,55.1,18.09,55.32,16Z"/>
        <path class="cls-1" d="M66,13.73c2.48-.55,3.74.12,2.87,2.89C66.2,17.4,65.82,15.86,66,13.73Z"/>
      </g>
    </g>
  </g>
</svg>
