<?xml version="1.0" encoding="utf-8"?>
<!-- Generator: Adobe Illustrator 26.0.3, SVG Export Plug-In . SVG Version: 6.00 Build 0)  -->
<svg version="1.1" id="Layer_1" xmlns="http://www.w3.org/2000/svg" xmlns:xlink="http://www.w3.org/1999/xlink" x="0px" y="0px"
	 viewBox="0 0 156 156" style="enable-background:new 0 0 156 156;" xml:space="preserve">
<style type="text/css">
	.st0{fill:#FFF200;stroke:#CCCC00;stroke-width:3;stroke-miterlimit:10;}
	.st1{fill:#DDD700;stroke:#CCCC00;stroke-width:3;stroke-miterlimit:10;}
	.st2{fill:#A700FF;stroke:#B92CDB;stroke-width:6;stroke-miterlimit:10;}
	.st3{opacity:0.86;}
	.st4{fill:url(#SVGID_1_);}
	.st5{opacity:0.44;enable-background:new    ;}
	.st6{fill:#FFFFFF;}
	.st7{opacity:0.26;enable-background:new    ;}
</style>
<g id="Layer_2_00000142163771107412931910000004926454199462971557_">
	<g id="Layer_1-2">
		<g>
			<circle class="st0" cx="78" cy="78" r="76.5"/>
			<g>
				<circle class="st1" cx="78" cy="78" r="76.5"/>
				<g>
					<circle class="st2" cx="78" cy="78" r="60.6"/>
					<g class="st3">
						
							<radialGradient id="SVGID_1_" cx="95.06" cy="1888.61" r="136.86" gradientTransform="matrix(1 0 0 1 0 -1844)" gradientUnits="userSpaceOnUse">
							<stop  offset="0.27" style="stop-color:#FFFFFF;stop-opacity:0"/>
							<stop  offset="0.39" style="stop-color:#FFFFFF;stop-opacity:0.14"/>
							<stop  offset="0.65" style="stop-color:#FFFFFF;stop-opacity:0.49"/>
							<stop  offset="1" style="stop-color:#FFFFFF"/>
						</radialGradient>
						<circle class="st4" cx="78" cy="78" r="54.3"/>
					</g>
				</g>
			</g>
		</g>
	</g>
</g>
<g class="st5">
	<path class="st6" d="M78.5,92.1c0,0,3.3-1.3,11.9-1.1L84,103.2c0,0-8.2,0.3-30.4,4c0,0,0.7-3.6,4.4-12.7c2.2-0.9,5.8-1.6,7.8-1.6
		c3-7.1,7.2-16.2,13.2-27.7c-2.4,0-8.5,1.9-12.3,2.6c1.9-3.5,3.5-8.9,8.1-12.7c0,0,14.8-6.6,26.6-6.8
		C101.5,48.3,85.1,75.5,78.5,92.1z"/>
</g>
<g class="st7">
	<path d="M77.1,90c0,0,3.3-1.3,11.9-1.1l-6.3,12.2c0,0-8.2,0.3-30.4,4c0,0,0.7-3.6,4.4-12.7c2.2-0.9,5.8-1.6,7.8-1.6
		c3-7.1,7.2-16.2,13.2-27.7c-2.4,0-8.5,1.9-12.3,2.6c1.9-3.5,3.5-8.9,8.1-12.7c0,0,14.8-6.6,26.6-6.8C100.2,46.2,83.8,73.4,77.1,90z
		"/>
</g>
</svg>
