<?xml version="1.0" encoding="utf-8"?>
<!-- Generator: Adobe Illustrator 26.0.3, SVG Export Plug-In . SVG Version: 6.00 Build 0)  -->
<svg version="1.1" id="Layer_1" xmlns="http://www.w3.org/2000/svg" xmlns:xlink="http://www.w3.org/1999/xlink" x="0px" y="0px"
	 viewBox="0 0 156 156" style="enable-background:new 0 0 156 156;" xml:space="preserve">
<style type="text/css">
	.st0{fill:#DDD700;stroke:#CCCC00;stroke-width:3;stroke-miterlimit:10;}
	.st1{fill:#FF6700;stroke:#FFA655;stroke-width:6;stroke-miterlimit:10;}
	.st2{opacity:0.46;}
	.st3{fill:url(#SVGID_1_);}
	.st4{opacity:0.31;enable-background:new    ;}
	.st5{fill:#FFFFFF;}
	.st6{opacity:0.27;enable-background:new    ;}
</style>
<g>
	<circle class="st0" cx="78" cy="78" r="76.5"/>
	<g>
		<circle class="st1" cx="78.4" cy="78" r="60.6"/>
		<g class="st2">
			
				<radialGradient id="SVGID_1_" cx="95.29" cy="1889.71" r="136.86" gradientTransform="matrix(1 0 0 1 0 -1844)" gradientUnits="userSpaceOnUse">
				<stop  offset="0.27" style="stop-color:#FFFFFF;stop-opacity:0"/>
				<stop  offset="0.34" style="stop-color:#FFFFFF;stop-opacity:0.14"/>
				<stop  offset="0.48" style="stop-color:#FFFFFF;stop-opacity:0.49"/>
				<stop  offset="0.68" style="stop-color:#FFFFFF"/>
			</radialGradient>
			<circle class="st3" cx="78.2" cy="79.1" r="54.3"/>
		</g>
	</g>
</g>
<g class="st4">
	<path class="st5" d="M96.1,70.7l7.5-1.7c-1.3,3.7-4.5,10.7-6.8,14l-7.6,2.5c-2.9,6.6-5.5,12.8-7.2,17.9L65.6,109l8.6-20.6
		l-22.5,4.2c3.4-10.2,14.5-29.2,17.7-35.7c4.1-1.7,8.9-2.9,13-3c-2.7,4.6-9.3,16.4-10.6,19.8l9-1.7l10.9-22.1l16.3-3.6
		C104.7,52.9,100.4,61.7,96.1,70.7z"/>
</g>
<g class="st6">
	<path d="M94.7,69.6l7.5-1.7c-1.3,3.7-4.5,10.7-6.8,14l-7.6,2.5c-2.9,6.6-5.5,12.8-7.2,17.9l-16.3,5.5l8.6-20.6l-22.5,4.2
		c3.4-10.2,14.5-29.2,17.7-35.7c4.1-1.7,8.9-2.9,13-3c-2.7,4.6-9.3,16.4-10.6,19.8l9-1.7l10.9-22.1l16.3-3.6
		C103.4,51.8,99.1,60.6,94.7,69.6z"/>
</g>
</svg>
