<svg xmlns="http://www.w3.org/2000/svg" width="139.38" height="99.38" viewBox="0 0 139.38 99.38">
  <defs>
    <style>
      .cls-1 {
        fill: #050105;
      }

      .cls-2 {
        fill: #fe77fe;
      }

      .cls-3 {
        fill: #03c6fd;
      }

      .cls-4 {
        fill: #fdf804;
      }

      .cls-5 {
        fill: #fddf8d;
      }
    </style>
  </defs>
  <g id="Layer_2" data-name="Layer 2">
    <g id="Layer_1-2" data-name="Layer 1">
      <g>
        <path class="cls-1" d="M55.29,93.69C48.18,89.08,42,83.54,37.86,76,28.91,60,29.18,43.48,39.55,28.85,52.42,10.67,73.81,6.42,93.32,16c15.15,7.42,22.82,20.23,25.6,36.41l0,11a58.48,58.48,0,0,1-9.17,20.59l-.6.75-.06.06-3.05,3.19c-4,3.9-9.16,6.09-13.82,9-9.78,2.86-19.57,3.57-29.38.12-.48-.87-1.31-.72-2.09-.7Zm1.36-1.61c.83.1,1.3,1.2,2.31.81h-.2a4.37,4.37,0,0,0,2.92,1c9.23,4.4,18.59,4.27,28.05.8a5,5,0,0,0,3.7-1.58c2.33-1,4.68-1.9,6.51-3.75,5.76-4.39,10.43-9.63,13-16.51A25,25,0,0,0,115.69,63c0-6.15.87-12.34-1-18.38-3-9.77-8.23-18-17-23.59a33.68,33.68,0,0,0-19.78-6.85,42.66,42.66,0,0,1,11,8.55c6.4,6.7,8.26,17.71,3.42,25.54a18,18,0,0,1-10.06,8.06c-1.56.49-2.72,1.42-2.67,3,.05,1.21,1.57,2.54,2.5,2,1.58-1,3.57.18,4.84-1.34.74.16,1.2-.3,1.78-.64,2-1.15,4.49-1.39,5.91-.07,1.68,1.56-1.47,2.2-1.82,3.67a6.45,6.45,0,0,1-2.19,3.25c-.66.57-1.93,1.22-1.29,2.17A4.11,4.11,0,0,0,92,69.54c4.31.5,7.16-1.54,8.82-5.42.41-.94.89-1.73,2.08-1.16s.85,1.47.43,2.37c-2.19,4.74-5.84,7.09-11.11,6.8-1.67-.24-3.25-1.71-5.37-.41,2.83,2.49,2.31,4.26-.9,5.44-.23.08-.36.4-.57.57-8.6,6.73-18,10.45-29.15,8.06-4.26-.91-7.82-3.46-12.89-5.22A86,86,0,0,0,56.65,92.08ZM35,61.54c4.2,20.66,27.9,29,45.06,16.9,1.58-1.11,4.08-1.93,4.34-3.89.55-4.24.74-8.45,4.9-11.29a28.39,28.39,0,0,0-5.35,0c-3.23.26-6.66.08-7.51-3.57-.94-4,3-4.86,5.63-5.88,5.49-2.1,8.5-6.2,10.1-11.56,3.2-10.74-6.28-22.6-16.7-26.11-9.36-3.15-17.52-.73-25.11,5.05C42.34,27.24,36.89,34.92,35,45A34.86,34.86,0,0,0,35,61.54Z"/>
        <path class="cls-1" d="M6.1,75.91a6.37,6.37,0,0,1-.48-2.35c.54-2.82.25-4.81-2.84-6.3-2.09-1-1.71-3.41.68-4a10.4,10.4,0,0,0,6.89-4.73c1.57-2.47,4-1.23,5,1,1.15,2.37,2.48,3.64,5.28,3.77s3.19,2,1.29,3.76c-2.1,1.94-3,3.8-1.82,6.61.53,1.26-.43,2.91-1.72,2.3-3.53-1.66-6.43.55-9.6.9a7.62,7.62,0,0,1-2-.31Zm8.83-11.3c-.75-1.31-1.49-2.62-2.88-5.07-.45,5-3.64,5.58-6.94,6.21C6.21,67.5,8.05,67.2,9.32,68c1.69,1.81-1.16,3.67.21,5.87,2.09-3.41,4.85-1.65,8.09-.91-4.26-3.77-.22-5.1,1.35-7C17.94,64.15,16.26,64.94,14.93,64.61Z"/>
        <path class="cls-1" d="M139.24,77.52c-2.24,1.53-4.1,3-3.48,6.4.38,2.06-2.92,3.43-5.15,2-1.84-1.15-3.06-1.34-5,0-2.47,1.7-4.68.27-4.69-2.91,0-2-.15-3.58-1.78-5-1.36-1.21-1.6-3.6.24-4,4.13-.81,6.24-4.13,9.32-6.22,3.39,1.83,5.3,5.75,9.53,6.52C139.36,74.56,139.56,76.24,139.24,77.52Zm-5.27.06c.87-.29,1.93-.43,2-1.6,0-.66-.62-.82-1.16-.72-3.32.61-4.48-2.11-6.25-4.35-1.52,2.5-2.93,4.73-6.18,4.44-1.06-.1-1.26,1.41-.49,1.58,3.85.88,1.6,4,2.32,6.13a6.07,6.07,0,0,1,4.55-1.5C132.88,83.37,132,78.55,134,77.58Z"/>
        <path class="cls-1" d="M34.81,17.88c-2.34-1.13-5-.95-8,.7-2.09,1.15-3.4-.7-3.21-3.09S24,11,21,10c-1-.33-1.68-1.95-1.31-3.44S21.33,5,22.53,5c1.44,0,2.49-.34,3-1.94,1.12-3.35,3.72-4.11,5.67-1.34,1.48,2.08,3,2.41,5.2,2.59,3.46.28,4,2,2.06,5-1.06,1.65-1.66,3.22-.83,5.25S38,18,34.81,17.88Zm.34-8.94c.3-.49,1.67-1.41.68-1.39C32.51,7.63,31,5.47,28.62,2c.72,5.8-2.53,6.05-5.93,6.38,3,1.67,5.58,3.16,3.33,7.35l4.55-1.87a3.45,3.45,0,0,0,1,.63c1.12.21,2.17,1.74,3.28.67.84-.8.2-2-.37-2.93C33.62,10.84,34.6,10,35.15,8.94Z"/>
        <path class="cls-1" d="M9,32.39c-4.41,1.38-5.47.67-5.45-4a4.87,4.87,0,0,0-2-4.38c-2.47-2-1.84-4.69,1.13-5.14,2-.3,2.92-1.37,4.08-2.71,2.17-2.49,4.28-2.34,5.67.58a4.29,4.29,0,0,0,4.18,2.82c2.17.17,4.09,1.41,2,4a6.53,6.53,0,0,0-1.38,5.22c.15,1.36.13,2.65-1,3.66a5.38,5.38,0,0,1-4.13-1C10.52,30.3,9.67,30.91,9,32.39ZM11.54,21c-1.2-.65-1.72-4-2.2-2.76C8,21.66,4.68,20.53,2.06,22.35c4.45.77,5.19,3.43,4.43,7.3,1.65-1.13,2.55-2.73,4.27-1.83.89.9,1.82,1.8,3.18,1.71.25,0,.73-1.16.62-1.26-2.73-2.54.36-4,1.23-5.88C14.4,21.37,12.66,22.12,11.54,21Z"/>
        <path class="cls-1" d="M127.16,17.86c-3.46,1.94-1.92,5.51-2.59,8.49-.46,2-2.46,1.45-3.58.67-2-1.41-3.39-1.2-5.26.39-2.18,1.85-3.92.83-3.92-2.16,0-2.45.25-4.77-2.83-5.76a2.15,2.15,0,0,1-1.23-2.7,2.22,2.22,0,0,1,2.2-1.46c2.22-.1,3.39-1.32,4.43-3.31,1.87-3.56,4.16-3.61,6.09-.28,1,1.7,1.88,3,4,3.26C125.83,15.17,126.78,16.19,127.16,17.86Zm-2.88-.32c-2.67-1.1-5.41-.47-5.47-4,0-1.7-1.83-.83-2.12.08-.83,2.56-2.76,3.63-6.15,4.42,3.93,1.19,4.25,3.63,4.11,6.73,2.58-5.07,4.95-1,7.61-.2C121.89,21.8,120.79,19.13,124.28,17.54Z"/>
        <path class="cls-2" d="M109.18,84.68l.6-.75.38.7Z"/>
        <path class="cls-3" d="M35,45c1.86-10,7.31-17.71,15.33-23.81,7.59-5.78,15.75-8.2,25.11-5.05,10.42,3.51,19.9,15.37,16.7,26.11-1.6,5.36-4.61,9.46-10.1,11.56-2.67,1-6.57,1.83-5.63,5.88.85,3.65,4.28,3.83,7.51,3.57a28.39,28.39,0,0,1,5.35,0C85.14,66.1,85,70.31,84.4,74.55c-.26,2-2.76,2.78-4.34,3.89C62.9,90.57,39.2,82.2,35,61.54c.07-.6.15-1.19.22-1.79a31.46,31.46,0,0,0-.08-13.52C35.1,45.8,35.07,45.38,35,45Z"/>
        <path class="cls-1" d="M35.22,59.75c-.07.6-.15,1.19-.22,1.79A34.86,34.86,0,0,1,35,45c0,.43.07.85.11,1.28Z"/>
        <path class="cls-4" d="M56.65,92.08c1.35-1.37,2-.82,2.31.81C58,93.28,57.48,92.18,56.65,92.08Z"/>
        <path class="cls-4" d="M19,65.91c-1-1.76-2.71-1-4-1.3-.75-1.31-1.49-2.62-2.88-5.07-.45,5-3.64,5.58-6.94,6.21C6.21,67.5,8.05,67.2,9.32,68c1.69,1.81-1.16,3.67.21,5.87,2.09-3.41,4.85-1.65,8.09-.91C13.36,69.16,17.4,67.83,19,65.91Z"/>
        <path class="cls-4" d="M134.79,75.26c-3.32.61-4.48-2.11-6.25-4.35-1.52,2.5-2.93,4.73-6.18,4.44-1.06-.1-1.26,1.41-.49,1.58,3.85.88,1.6,4,2.32,6.13a6.07,6.07,0,0,1,4.55-1.5c4.14,1.81,3.22-3,5.23-4,.87-.29,1.93-.43,2-1.6C136,75.32,135.33,75.16,134.79,75.26Z"/>
        <path class="cls-4" d="M35.83,7.55C32.51,7.63,31,5.47,28.62,2c.72,5.8-2.53,6.05-5.93,6.38,3,1.67,5.58,3.16,3.33,7.35l4.55-1.87a3.45,3.45,0,0,0,1,.63c1.12.21,2.17,1.74,3.28.67.84-.8.2-2-.37-2.93-.87-1.36.11-2.25.65-3.26C35.45,8.45,36.82,7.53,35.83,7.55Z"/>
        <path class="cls-4" d="M15.79,22.39c-1.39-1-3.13-.27-4.25-1.41-1.2-.65-1.72-4-2.2-2.76C8,21.66,4.68,20.53,2.06,22.35c4.45.77,5.19,3.43,4.43,7.3,1.65-1.13,2.55-2.73,4.27-1.83.89.9,1.82,1.8,3.18,1.71.25,0,.73-1.16.62-1.26C11.83,25.73,14.92,24.23,15.79,22.39Z"/>
        <path class="cls-4" d="M124.28,17.54c-3.49,1.59-2.39,4.26-2,7-2.66-.78-5-4.87-7.61.2.14-3.1-.18-5.54-4.11-6.73,3.39-.79,5.32-1.86,6.15-4.42.29-.91,2.1-1.78,2.12-.08C118.87,17.07,121.61,16.44,124.28,17.54Z"/>
        <path class="cls-1" d="M35.22,59.75l-.08-13.52A31.46,31.46,0,0,1,35.22,59.75Z"/>
        <path class="cls-1" d="M104.7,50.39c.94-1.38,1.72-3.92,3.27-.41-1.25,3.87-4.24,4.55-7.77,4.21a6.85,6.85,0,0,1-4.4-5.4c1.59-1.82,2.4-.57,3.11.83C100.47,52.75,102.42,52.75,104.7,50.39Z"/>
        <path class="cls-1" d="M98.74,37.72c0-3.95,3-1.36,4.43-2.06.86.76,2,1.38,1.72,3.11Z"/>
        <path class="cls-4" d="M89.93,73.67c.12-1.12,1-.78,1.65-.85C91.41,73.85,90.57,73.56,89.93,73.67Z"/>
        <path class="cls-5" d="M62.82,92.88l-.27-.29c.1-.08.21-.23.31-.23s.18.18.28.27Z"/>
        <polygon class="cls-5" points="92.84 52.04 92.95 52.31 92.67 52.27 92.84 52.04"/>
        <path class="cls-4" d="M114.66,44.62c-3-9.77-8.22-18-17-23.59h0a33.68,33.68,0,0,0-19.78-6.85,42.66,42.66,0,0,1,11,8.55c6.4,6.7,8.26,17.71,3.42,25.54a18,18,0,0,1-10.06,8.06c-1.56.49-2.72,1.42-2.67,3,.05,1.21,1.57,2.54,2.5,2,1.58-1,3.57.18,4.84-1.34.73.16,1.2-.3,1.78-.64,2-1.15,4.49-1.39,5.91-.07,1.68,1.56-1.47,2.2-1.82,3.67a6.45,6.45,0,0,1-2.19,3.25c-.66.57-1.93,1.22-1.29,2.17A4.11,4.11,0,0,0,92,69.54c4.31.5,7.16-1.54,8.82-5.42.41-.94.89-1.73,2.08-1.16s.85,1.47.43,2.37c-2.19,4.74-5.84,7.09-11.11,6.8-1.67-.24-3.25-1.71-5.37-.41,2.83,2.49,2.31,4.26-.9,5.44-.23.08-.36.4-.57.57-8.6,6.73-18,10.45-29.15,8.06-4.26-.91-7.82-3.46-12.89-5.22a85.38,85.38,0,0,0,13.29,11.5c1.14-1.15,1.78-.93,2.13.14a2.56,2.56,0,0,1,0,.67,4.37,4.37,0,0,0,2.92,1c9.23,4.4,18.59,4.27,28.05.8a5,5,0,0,0,3.7-1.58c2.33-1,4.68-1.9,6.51-3.75,5.76-4.39,10.43-9.63,13-16.51A25,25,0,0,0,115.69,63C115.71,56.85,116.56,50.66,114.66,44.62Zm-22,7.65.17-.23.11.27ZM62.82,92.88l-.27-.29c.1-.08.21-.23.31-.23s.18.17.28.27Zm10.53,2.47c.83-.07,1.67-.22,2.51-.37C75,95.13,74.18,95.28,73.35,95.35ZM91.58,72.82c-.17,1-1,.74-1.65.85.12-1.12,1-.78,1.65-.85l.28-.29Zm11.59-37.16c.86.76,2,1.38,1.72,3.11l-6.15-1.05C98.7,33.77,101.7,36.36,103.17,35.66Zm.2,6.09-.22,0,.13-.21ZM100.2,54.19a2,2,0,0,1-2.37.61,2,2,0,0,0,2.37-.61,6.85,6.85,0,0,1-4.4-5.4h0c1.59-1.82,2.4-.57,3.11.83,1.56,3.13,3.51,3.13,5.79.77.94-1.38,1.72-3.92,3.27-.41C106.72,53.85,103.73,54.53,100.2,54.19Z"/>
        <polygon class="cls-5" points="103.28 41.52 103.37 41.75 103.15 41.73 103.28 41.52"/>
      </g>
    </g>
  </g>
</svg>
