<svg xmlns="http://www.w3.org/2000/svg" width="132.55" height="60.29" viewBox="0 0 132.55 60.29">
  <defs>
    <style>
      .cls-1 {
        fill: #010001;
      }

      .cls-2 {
        fill: #0cbbba;
      }

      .cls-3 {
        fill: #050105;
      }
    </style>
  </defs>
  <g id="Layer_2" data-name="Layer 2">
    <g id="Layer_1-2" data-name="Layer 1">
      <g>
        <path class="cls-1" d="M5.18,21.67,5,17.73c-.49-.8-.45-1.57.49-1.88,1.13-.37,1.63.47,2,1.38a10.14,10.14,0,0,0,1.68,1.6,8.66,8.66,0,0,0,2.12.62c.09-.61.17-1.22.28-1.83.34-2-.7-4.23.7-6.14,2.58-2.47,2.33.83,3.3,1.62a12.39,12.39,0,0,0,1,3c1.43,2.21,3.77,2,4.88-.41a18.38,18.38,0,0,1,3.79-5.93c1.07-1,2-1.13,2.5.51-.27,2.1-3.33,4.16-1.61,5.77,1.13,1.06,3.44-1.77,5.44-2.4,1.36.09,3.34-1,3.27,1.77,0,7.47-.62,8.4,4,10.17.7-1.31-.3-2.47-.37-3.72,2.12-.8,1.51,2.3,3.47,2.15.59-3.37-2.54-5.08-3.36-7.82,3.1,1.58,4.49.38,4.75-3A33.47,33.47,0,0,1,44.54,7.8c.2-.79-.55-2.15.93-2.17,1,0,1.52.91,1.49,2-.14,4.14,2,3,4.22,1.85,2.5-1.31,4.61-3.73,8-2.88C59.21,8.3,57.78,9,56.88,9.74a17.77,17.77,0,0,0-5.52,8c-.36,1.14-.6,2.31-2,2.67-1.81.79-1-.72-1.18-1.34,1.44-1.45,1.08-3.54,1.76-5-.76,1.26-.17,3.22-1.5,4.54-1,.62-1.83.14-2.56-.59a2.88,2.88,0,0,1-.51-2.15A5.48,5.48,0,0,0,45,17.5a7.29,7.29,0,0,1-.18,1A2.38,2.38,0,0,0,45,21.32c1.21,1.76,3.1.87,4.68,1.19,3-1.11,3.65-4.25,5.35-6.44a12.36,12.36,0,0,1,6.64-4.32c-1.78,2.7-4.67,4.18-3.49,7.32.45-.14.93-.36,1,.4l-2.85,5.4c3.84,0,6.26-5.39,10.08-1.7a17,17,0,0,1,1.93-2.54,2.38,2.38,0,0,0,.53-2.55c-.24,1.27-.38,2.55-1.69,3.2a1.4,1.4,0,0,1-1.54-.49c-.45-1.26-1.86-1.86-.74-4,1-2,0-5.1-.17-7.92,3.4,1.29,4.28,4.88,7.2,7.3C71.94,12.36,70.61,9.52,70,6c2.28,1.93,2.24,4.38,3.56,6.64a47.33,47.33,0,0,1,7.57-7.95c-1.68,4.4-3.58,7.62-3.93,11.88l8.17-6.25c1.3,1.15,1.63,4.55,4.17,2.94s-1.85-2.4-.48-4.41c1.7-.24,2.81,1.5,4.13,2.88,2,2.14,3.31,1.17,3.82-1.21.46-2.15-.14-4.48.85-6.89,2.57,2,2.16,5,3.37,7.35,2.15-.68,3-3.23,5.35-3.89.26,2.49-2,4.39-1,7.39C108.2,9.68,112,6.81,115.82,4c.79.7.54,1.14.2,1.6-4.19,5.73-4.13,7.91.25,13,.39.45.74.77,1.32.6,1-.27.7-1,.5-1.61s-.8-1-.74-1.37c.35-2.27-2-5.1-1.35-5.9,2.36-2.89,2.59-6.9,5.82-10.29-.15,2.46-.29,4.06-.35,5.67,0,1-.46,2.25.72,2.91,1.42.8,2-.38,2.83-1.26a12.11,12.11,0,0,1,2.62-1.64c.48.5,2.28-.32,1.46,1.47-3,3.41-6.61,6.56-6.17,11.83,2.74-.38,3.87-3,7.24-4.35l-7.64,9.19c4.08.49,6.77-2.17,10-2.11.19,1-.22,1.38-1.16,1.71A10.94,10.94,0,0,0,128.61,25c-2,1.48-5.08,2.84-4.65,5.39.39,2.36,3.7.46,5.85,1.58-2.41,2-5,3.7-6.57,6.26-.35.56-1.15,1.21-.57,2.06s1.18.05,1.77,0c1.7,0,3.42-.46,5.36.23-1.22,2.13-4.26,1.9-5.16,4.46A9.57,9.57,0,0,1,132,47.57c-1.33,1.77-7.43-1.18-4.15,4.9-3.4-2.14-6.62.13-9.75-.75-.07-1.34.48-2.68,0-4a.44.44,0,0,0-.55-.27c-.77,1-.19,3.5-2.73,2.5-1.61-2.15-3-4-5.65-.76-1.5,1.81-3.92,3.3-6.78,2.3a5.81,5.81,0,0,1-.42-.92c-.76-1.36-1.65.52-2.45-.07-2-.74-2-2.3-1.62-4,0-1.42.71-2.78.31-4.23.39,1.44-.31,2.8-.34,4.21-.13,2.41-2.48,3.53-3.22,5.59-2.12,2.39-4.8.45-7.17.92-.8-.77-.35-1.38.24-2-1.36-.47-2.49,1.34-3.9.48-.71.49-3.41-.75-1.57,2,.57.86-4.81,2.25-6.37,1.27-.75-.47-1-1.59-2.09-1.65-.81-2,.39-3.52,1-4.95C73.11,49.63,74.31,54,70,53.41c-4.35-1.15-8.73.62-13.08-.21-1-1.56,1.13-1.72,1.16-2.81-2.35.38-2.09,2.78-3.09,4.23-3.66.55-7.31,1-10.86-.63a.9.9,0,0,0-1.19.73c-1.44,1.1-3.3-.22-4.74.84l-4,0c-2.12-2.52-7.32-3.31-10-1.71-3.28,2-.59,3.62,1.22,6.48-7.17-3.07-13.39-2.41-19.61-1.67-.84-.4-1.8-.07-2.63-.35-.58-.2-1.23-.61-.28-1.25,1.15-.77,1.06-1.73.4-2.75s-1.12-1.79-1.74-2.64C.54,50.2-.64,47.89.41,47c1.69-1.38,3.32.73,4.53,2a3.38,3.38,0,0,0,2.23,1.38c.54,0,1-.7,1.09-1.48a2.05,2.05,0,0,0-1.36-2.2c-1.58-.71-4.21-.58-.75-3.06,1.37-1-.34-4.2-.54-6.41A31.5,31.5,0,0,0,4.4,32.31c2,0,2.45,1.59,3.87,2.13-.45-4.87-5.5-4.83-7.7-7.62,1.35-1.07,3.42.95,4.55-1.07A6,6,0,0,0,5.18,21.67Z"/>
        <path class="cls-2" d="M49.65,22.51c-2.31,2.09-4.46,3.06-5.87-.87a20,20,0,0,0-.1-3.28.75.75,0,0,1,.39-.63,1.54,1.54,0,0,1,2.23-.2c.77.36,1.29,1.35,2.37.91l0,0c.27.68-.2,1.62.74,2.05Z"/>
        <path class="cls-3" d="M34.85,15.44c-.63-1.44-2.3-1-3.27-1.77,2.18-1.79,4.72-1.89,7.92-1.53Z"/>
        <path class="cls-3" d="M129.1,7.15l-1.46-1.47C129,5.11,130,3.82,132.2,4,131.66,5.78,130.37,6.46,129.1,7.15Z"/>
        <path class="cls-1" d="M59.17,19.47l-1-.4c1.58-1,2.42-3.18,5.05-2.88C62.2,18,60.49,18.48,59.17,19.47Z"/>
        <path class="cls-2" d="M65.63,20.79l1.59,0c.9-.48,1.54-.41,1.64.79L66.4,23.17C66.14,22.38,65.88,21.58,65.63,20.79Z"/>
        <path class="cls-2" d="M114.78,50c2.45-.81.08-4,2.37-4.86.57.59,1.59.76,1.69,1.79,2,1.94,2.21,3.62-.73,4.82l-.91,0Z"/>
        <path class="cls-2" d="M55,54.62c.52-1.29-1.75-2.4-.93-2.86,1.7-1,2.47-2.77,4.05-3.64a2.07,2.07,0,0,1,2.57.4,2.22,2.22,0,0,1-.41,2.89c-.89,1-2.6.52-3.35,1.79C56.34,53.73,56,54.56,55,54.62Z"/>
        <path class="cls-2" d="M102.56,50.69l-.21.82c-2.55.58-5.26-.91-7.74.6-1.06-2.82,2.12-3.66,2.69-5.71.33-.45.69-.8,1.28-.43.73,1.29-1.12,3.69,1.76,4C101,50.36,102,49.81,102.56,50.69Z"/>
        <path class="cls-2" d="M70,53.41c1.26-.08,1.86-.48,2.35-1.95.78-2.38,1.54-5.11,5-6.46-1.35,3-2.49,5.58-3.63,8.12C72.54,53.72,71.36,54.57,70,53.41Z"/>
        <path class="cls-2" d="M83.78,51.48c2.59-1.65,5.25-2.74,8.36-1.21-.89,2.55-4.33-.2-4.7,2.76Z"/>
        <path class="cls-2" d="M38.22,55.56c1.35-1.57,3.2-.35,4.74-.84C41.6,56.26,39.81,55.33,38.22,55.56Z"/>
        <path class="cls-3" d="M5.18,21.67a4.5,4.5,0,0,1-.06,4.09Z"/>
        <path class="cls-2" d="M83.52,45.18a1.37,1.37,0,0,0,1-1.61c1.72-1.12.67-4.37,3.54-4.6C86.11,41.77,89,43.16,90,45a12.6,12.6,0,0,1,.83,2.07,2.57,2.57,0,0,0-1,1c-2.31-1.42-4.9-1.46-7.49-1.52C82.22,45.69,82.87,45.43,83.52,45.18Z"/>
        <path class="cls-2" d="M116.23,37c0-2.81,3.77-5.71,6.14-4.78,1.42.56.64,1.58.13,2.2a33.81,33.81,0,0,1-3.57,3.71,7.91,7.91,0,0,1-2.07,1Z"/>
        <path class="cls-2" d="M73.68,25.62l-4.15,5.16c-1.58-6-.27-8.52,4-8.39A2.31,2.31,0,0,1,73.68,25.62Z"/>
        <path class="cls-2" d="M92.7,13.69c4.08,1,2.12,7.6,7.22,7.29-.71,2-2.2,3.1-3.93,2.83-2-.31-.82-2.43-1.27-3.68C94,18.08,93.4,16,92.7,13.69Z"/>
        <path class="cls-2" d="M61.66,41.5c-1.23-1.2-2.44-2.08-3.42.25-1.05,1.59,2.64,3.1.08,4.71-5.33-.41-2.06-3.75-1.62-5.63.38-1.59,2-2.89,3.06-4.32C62.63,37.32,62.09,39.44,61.66,41.5Z"/>
        <path class="cls-2" d="M25,32.25c.32,1.55-1.11,2.33-1.61,3.51-1.1,2.57-1.23,2.51,1.38,3.93,1,.53.62,1.25-1.64,3.54-2.71-4.37-2.12-8.63.46-12.82C25.14,30.2,24.66,31.53,25,32.25Z"/>
        <path class="cls-2" d="M14.84,44.23c1.7-1,3-2,1.47-4.32a2.83,2.83,0,0,1,.49-3.64c3.72,5.17,3.66,6.34-.48,9.75C15.11,46,14.35,45.64,14.84,44.23Z"/>
        <path class="cls-2" d="M39.84,37.76c-1.09,1.49-.78,3-.94,4.38-.1,1,.48,2.28-.83,2.85s-1.79-.84-2.55-1.45a19.35,19.35,0,0,1-2-2.06C37.17,42.85,36.45,37.58,39.84,37.76Z"/>
        <path class="cls-2" d="M73.68,25.62c0-1.08-.07-2.16-.11-3.23h0c1.54-.54,2.2.82,3.2,1.46-.73,1.87.07,2.32,1.64,1.54,1-.5,2.16-2,3-.87,1,1.47-1.18,1.93-1.86,2.91a3.58,3.58,0,0,1-.92.69c-2,1.31-2.53-.39-3.3-1.62Z"/>
        <path class="cls-2" d="M28.88,45.45c-3.22.56-5.35,3.07-8.09,4.68C20.49,45.68,22,44.76,28.88,45.45Z"/>
        <path class="cls-2" d="M9.77,28.88c2.71.42.36-2.23,1.63-2.68.74-.08,1-1,1.79-1,2.23,2.93-.61,5-1.72,6.92-.7,1.19-2-1.64-3.4-2.15C8.26,29,9.22,29.27,9.77,28.88Z"/>
        <path class="cls-2" d="M113.5,25.27c-2.31-2.18-1.54-4.89-2.24-7.12-.1-.31.41-1,.8-1.21a.79.79,0,0,1,1.2.59C113.51,20,114.75,22.4,113.5,25.27Z"/>
        <path class="cls-2" d="M73.19,44.21c-.31-1.69,2-2.9-.08-4.48-.79-.57.13-1.7,1.21-1.64S77,37.92,77,39.88C76.93,42.26,75.88,43.77,73.19,44.21Z"/>
        <path class="cls-2" d="M33.06,22.1c-.14,1.49.26,3.32-1.68,3.5a1.81,1.81,0,0,1-2.07-2.26c.4-1.49.84-3.27,2.93-3.21C33.94,20.17,32.91,21.46,33.06,22.1Z"/>
        <path class="cls-2" d="M75.33,26.49c1.12.51,1.88,1.73,3.3,1.63-1.3,1.85,2.1,4.08-.53,5.78C76.94,31.58,74.4,29.7,75.33,26.49Z"/>
        <path class="cls-2" d="M64.9,38.86a12.57,12.57,0,0,1,.83-7.57c-.56,2.66,3.55,4.41,1.15,7.36A1.81,1.81,0,0,1,64.9,38.86Z"/>
        <path class="cls-2" d="M55.83,35.39c.63,2.75-1.29,4.56-2.42,7.25-1.06-2.29-1.26-4,.11-5.61C54.17,36.32,53.84,34.21,55.83,35.39Z"/>
        <path class="cls-2" d="M49.16,48.29c.89-1.51,2.21-2.76,2.59-4.67,1.46,1.94,4.37,3.71.11,5.39C51,48.73,49.84,49.36,49.16,48.29Z"/>
        <path class="cls-2" d="M28.13,19.47c-1.37,1.9-1.45,4.73-4.38,6.08.08-2.81.32-5.08,2.86-6.37A1.13,1.13,0,0,1,28.13,19.47Z"/>
        <path class="cls-2" d="M42.09,32.6c-.26,2.84.68,4.32,3.7,3.87-1.74,2.23-3.19,2.32-4.66.93C39.48,35.85,40.18,34.46,42.09,32.6Z"/>
        <path class="cls-2" d="M48.76,25c.84-1.55,2.91-.45,3.85-1.78.75.27.54,1.11.94,1.59.76.64,1,1.26-.15,1.71-1.35.53-2.72,1-4.08,1.53C48.44,27.13,49.59,25.87,48.76,25Z"/>
        <path class="cls-2" d="M53.6,32.38c-.07-2.62,2-3.46,3.94-4.93.71,2.47-1,3.84-1.71,5.5C54.8,33.89,54.18,33.21,53.6,32.38Z"/>
        <path class="cls-2" d="M88,39c-2.07.85-1.22,3.94-3.54,4.6.87-2.72,1.12-5.63,2.63-8.14.57-.54.9-.42,1,.35Z"/>
        <path class="cls-2" d="M71,33c1.37-.19,1.07.77,1.11,1.53a3,3,0,0,1-2,3.1c-.86.28-1-.89-1-1.71C69,34.44,69.27,33.27,71,33Z"/>
        <path class="cls-2" d="M48.6,42.3c-1.52.66-2.47,2.63-4.46,1.58-.28-.14-.24-1.82.18-2.17C45.7,40.54,47.2,40.7,48.6,42.3Z"/>
        <path class="cls-2" d="M61.66,41.5c-.24-1.81-.13-3.76-1.9-5,.54-.43.5-2.09,1.87-.32,1,1.33-.32,4,2.43,4.17a1.77,1.77,0,0,1,.53,1c-.11.86-.36,1.58-1.46,1.41Z"/>
        <path class="cls-2" d="M41.53,48.59c.12,1.56,1.79,3.25-.31,4.41-.43.24-1.71,0-1.78-.29C39,50.91,40.28,49.78,41.53,48.59Z"/>
        <path class="cls-2" d="M10.83,54c0-.38.08-.91-.13-1.13-1.59-1.64-.93-3.9.4-4.22,1.76-.42.4,2.21,1,2.68,1.42,1.07.92,2.27.86,3.51A2.3,2.3,0,0,1,10.83,54Z"/>
        <path class="cls-2" d="M98.58,46l-1.28.43a5.44,5.44,0,0,1,1-5.7C100.39,42.35,99.32,44.18,98.58,46Z"/>
        <path class="cls-2" d="M106.84,45.9a1.92,1.92,0,0,1,.24-.71c1-1.09,2.47-3,3.56-1.84,1.44,1.51-.75,2.48-1.92,3.38-.51.4-1,.89-1.42,1.34C106.76,47.43,107.11,46.6,106.84,45.9Z"/>
        <path class="cls-2" d="M85.85,31.35c-.11-2.43-.37-5,3.57-4.78-1,1.92-1.71,3.77-3.62,4.75Z"/>
        <path class="cls-2" d="M29.63,38.49A10.25,10.25,0,0,0,29.94,37c.11-1.64,1.19-2.75,2.53-2.11,2.37,1.11-1.48.87-.7,2.25.56,1-.15,2.28-1.53,2.71C29.58,39.57,29.56,39.05,29.63,38.49Z"/>
        <path class="cls-2" d="M120.79,24.27c-.16,1.16-.81,2.61.19,3.37s1.18,1.26.11,1.86a1.34,1.34,0,0,1-2.11-1c-.3-1.51-.67-3.13.69-4.42A.74.74,0,0,1,120.79,24.27Z"/>
        <path class="cls-2" d="M95.49,40.26c-1.49,3.46-3.23.36-4.81.06-.13,0-.29-2,1.25-1.44a3.31,3.31,0,0,0,2.58.33A1.18,1.18,0,0,1,95.49,40.26Z"/>
        <path class="cls-2" d="M76.77,23.84c-1.63.73-2.16-.92-3.2-1.46L73.9,19a.88.88,0,0,1,1.22.17C74.27,21.25,77.71,21.76,76.77,23.84Z"/>
        <path class="cls-2" d="M5.1,51.27C7,52.6,7.84,54.4,7.27,57.12L3.38,51.74C3.8,51,4.44,51.11,5.1,51.27Z"/>
        <path class="cls-2" d="M99.42,27c-.89,2.43,1.66,4.46.8,6.88C97.94,33.75,99,31.41,98,30.51a7.39,7.39,0,0,1,.37-3.84C98.88,26.18,99.23,26.28,99.42,27Z"/>
        <path class="cls-2" d="M81.27,31c.24-2,.61-3.85,2.72-5.07a16.56,16.56,0,0,1-1.34,5.54C82,31.77,81.46,32,81.27,31Z"/>
        <path class="cls-2" d="M107.71,25.28c2,1.89,2.05,3.68-.27,5.85C106.89,28.79,108.07,27.09,107.71,25.28Z"/>
        <path class="cls-2" d="M120.79,24.27l-1.12-.18.06-3.77c.27-.64.49-1.34,1.39-1.33C122.86,20.87,122.17,22.59,120.79,24.27Z"/>
        <path class="cls-2" d="M102.56,50.69c-.8,0-1.69.23-2.22-.69,1-1.33,1.12-3.31,3-3.92A6.78,6.78,0,0,1,102.56,50.69Z"/>
        <path class="cls-2" d="M92.11,28a2,2,0,0,0-.64-1.79c-.62-.67-1.39-1.39-.86-2.45.12-.24.77-.5,1-.39A3.18,3.18,0,0,1,93.06,26c0,1.47-.1,2.95-.17,4.42C91,30.18,92.08,28.93,92.11,28Z"/>
        <path class="cls-2" d="M98.49,12a3.86,3.86,0,0,1,.44,4.37c-.27.58-.92.28-1.28-.15C96.23,14.53,98.71,13.54,98.49,12Z"/>
        <path class="cls-2" d="M75.12,19.21,73.9,19c-.52-2.13-.43-4.09,1.84-5.91Z"/>
        <path class="cls-2" d="M113.15,39.29c2.26,1.63,1.72,3.42,1.46,5.71C112.88,43.17,112.87,41.5,113.15,39.29Z"/>
        <path class="cls-2" d="M8.65,37.31c.84,2.4,2.6,3.33,2.2,5.23,0,.13-.9.3-1,.15A5.41,5.41,0,0,1,8.65,37.31Z"/>
        <path class="cls-2" d="M32.49,49.59C32,50.92,30.67,51,29.58,51.35a.75.75,0,0,1-.9-1c.45-1.36,1.81-1.29,2.93-1.61C32.48,48.54,32.36,49.14,32.49,49.59Z"/>
        <path class="cls-2" d="M37.54,28.94c1,1,1,1.88-.23,2.69a1.17,1.17,0,0,1-1.44-1.17c1-1.34-3.79-2.43-.17-3.88C36.53,27.19,36.43,28.53,37.54,28.94Z"/>
        <path class="cls-2" d="M14.84,44.23c.05,1,.77,1.37,1.48,1.79-.63.83-1.19,2-2.48,1.24A2.26,2.26,0,0,1,13,45.6C13,44.45,13.68,44,14.84,44.23Z"/>
        <path class="cls-2" d="M62.7,25.67c.67,1.5,1.86,3.1-.08,4.45-1.54,1.07-1.24-.36-1.33-1.17C61.11,27.58,60.84,26.17,62.7,25.67Z"/>
        <path class="cls-2" d="M77.6,50.61a4.61,4.61,0,0,1,4.45-1.41,6.68,6.68,0,0,1-3.33,2.43C77.83,51.87,77.52,51.45,77.6,50.61Z"/>
        <path class="cls-2" d="M104.15,31.53c-1.94-1.85-2.15-3.37-.16-5.35A10.43,10.43,0,0,1,104.15,31.53Z"/>
        <path class="cls-2" d="M64.05,41a2.15,2.15,0,0,0,0-.67l.84-1.5,2-.21-1.41,4.76C63.4,43.57,65,41.56,64.05,41Z"/>
        <path class="cls-2" d="M69.57,46.73v2.81A1.12,1.12,0,0,1,68.21,49c-.83-1.58-2.1-3.13-.37-4.91C69,44.58,68.7,46,69.57,46.73Z"/>
        <path class="cls-2" d="M77.6,50.61l1.12,1c-.13.91-.13,2-1.33,2.1a1.54,1.54,0,0,1-1.13-.82C75.66,51.6,76.46,51,77.6,50.61Z"/>
        <path class="cls-2" d="M121.12,19l-1.39,1.33a5.61,5.61,0,0,1,0-1.53c.26-1-1.32-2.77.55-2.79S121.14,17.87,121.12,19Z"/>
        <path class="cls-2" d="M120,6.79c.13,1.43,1.32,3-.17,4.35-.14.13-.93-.11-1-.31A4.06,4.06,0,0,1,120,6.79Z"/>
        <path class="cls-2" d="M112.41,33c.58-1.71-1.67-2.74-.12-4.12a1.5,1.5,0,0,1,1.38.37C114.27,30.5,114.37,31.76,112.41,33Z"/>
        <path class="cls-2" d="M107.66,15.16c-.4-2.21,1.3-2.94,2.9-3.84l-.72,3.12a8.73,8.73,0,0,1-.73.76A1.22,1.22,0,0,1,107.66,15.16Z"/>
        <path class="cls-2" d="M49.16,48.29c.94.08,1.94-.06,2.7.72a18.75,18.75,0,0,0-1.75,1c-.67.46-1.37,1.16-2,.11S48.54,48.75,49.16,48.29Z"/>
        <path class="cls-2" d="M98,30.51c1.65.5,1,2.57,2.23,3.33C98.07,34.57,98.07,34.57,98,30.51Z"/>
        <path class="cls-2" d="M58.32,46.46c1.19-1.59-2-3.1-.08-4.71a23.2,23.2,0,0,1,1.62,3.75C60.16,46.7,59.46,47.14,58.32,46.46Z"/>
        <path class="cls-2" d="M85.8,31.32c-.56,2-.76,4.13-2.47,5.62l.06.06c.15-2.18-.08-4.51,2.46-5.65Z"/>
        <path class="cls-2" d="M68.21,49l1.36.54c0,1.22-.61,2-1.82,1.9a1.82,1.82,0,0,1-1.23-1.24C66.43,49.14,67.6,49.37,68.21,49Z"/>
        <path class="cls-2" d="M64.05,41l1.42,2.38c.07.69.46,1.84-.38,1.87-1.36,0-1.12-1.76-2-2.46Z"/>
        <path class="cls-2" d="M18.89,28.87c-.15,1.08.34,2.42-1.29,3-.62-1.33-1-2.6.18-3.83C18.58,27.75,18.9,28.1,18.89,28.87Z"/>
        <path class="cls-2" d="M83.52,45.18c-.42.46-.83.92-1.24,1.39-.89,0-1.86.7-2.65,0-.49-.45.18-.84.44-1.25C81.18,43.59,82.37,45.06,83.52,45.18Z"/>
        <path class="cls-2" d="M109.22,14.56a1.67,1.67,0,0,1,.62-.12,11.59,11.59,0,0,1-.08,3.18c-.35,1.17-1.16,1.92-1.91.11A7.82,7.82,0,0,1,109.22,14.56Z"/>
        <path class="cls-2" d="M13.19,25.19c-.94-.27.31,3.33-1.79,1,.32-1-1.6-2-.29-2.72S12.16,25,13.19,25.19Z"/>
        <path class="cls-2" d="M112.4,36.36A1.49,1.49,0,0,1,111,37.62c-.82,0-1.11-.64-1-1.39A1.37,1.37,0,0,1,111.38,35,1,1,0,0,1,112.4,36.36Z"/>
        <path class="cls-2" d="M83.33,36.94a8.34,8.34,0,0,1,0,1.58c-.12.69.21,1.74-1.06,1.69-.36,0-.92-.12-1-.36-.53-1,.54-1.27,1-1.8.35-.37.75-.7,1.13-1Z"/>
        <path class="cls-2" d="M43.68,18.36c1.08,1.06,1.33,2.15.1,3.28C42.72,20.58,42.39,19.49,43.68,18.36Z"/>
        <path class="cls-2" d="M48.36,34.61c1.92.51,2,1.54,1.77,2.64,0,.22-.8.54-.92.44C48.31,37,48.57,35.89,48.36,34.61Z"/>
        <path class="cls-2" d="M100.86,17.64a2.72,2.72,0,0,1,.11-.38c.54-1.12-.62-2.65.82-3.54a.73.73,0,0,1,.7.14c.84,1.44-.62,2.36-.86,3.57C101.47,17.83,101.21,17.88,100.86,17.64Z"/>
        <path class="cls-2" d="M92.28,32.29v4.24c-1.48-2.05-1.94-3.49-.71-5.1C92.23,31.36,92.81,31.36,92.28,32.29Z"/>
        <path class="cls-2" d="M64.54,50.37c.12.62-.1,1.05-.76,1.08s-1.36-.34-1.17-1.14a6.34,6.34,0,0,1,1-1.66C63.91,49.22,64.23,49.79,64.54,50.37Z"/>
        <path class="cls-2" d="M18.89,28.87,17.78,28c.12-1,.23-1.92.46-3.81C19.19,26.31,19.86,27.47,18.89,28.87Z"/>
        <path class="cls-2" d="M8.51,26.92c-1.71-1.22-.87-2.61-1.07-4.8C8.61,24.11,9.31,25.21,8.51,26.92Z"/>
        <path class="cls-2" d="M48.76,25c2.51.59.74,2,.56,3.05C45.94,27.58,49.78,25.84,48.76,25Z"/>
        <path class="cls-2" d="M62.7,25.67A4.76,4.76,0,0,0,61.29,29C60.9,27.49,59.19,25.47,62.7,25.67Z"/>
        <path class="cls-2" d="M95.49,40.26l-1-1v-2.6C95.27,37.78,97,38.71,95.49,40.26Z"/>
        <path class="cls-2" d="M106.1,20.21c.66-.1.66.54.67,1s.23,1.38-.63,1.53c-.59.11-.91-.42-1-1S105.17,20.48,106.1,20.21Z"/>
        <path class="cls-2" d="M53.55,24.78c-1.34.08-.78-1-.94-1.59l1.3-1.92C54.84,22.65,54.23,23.72,53.55,24.78Z"/>
        <path class="cls-2" d="M22.73,20.18c0,.09.14.73-.58.75s-.85-.46-.84-1,.11-1.39,1-1.31C22.88,18.67,22.79,19.33,22.73,20.18Z"/>
        <path class="cls-2" d="M55.83,35.39c-1.29-.19-1.4,1.3-2.31,1.64,0-.83.07-1.65.1-2.47.49-.9,1.05-1.61,2.16-.77Z"/>
        <path class="cls-2" d="M107.28,34.22a3.66,3.66,0,0,1,0,3.12C105.4,36.25,106.37,35.29,107.28,34.22Z"/>
        <path class="cls-2" d="M81.27,31l1.38.47c-.32.95-.63,1.89-.94,2.83A3,3,0,0,1,81.27,31Z"/>
        <path class="cls-2" d="M104.2,35.65l.27,4.08-.85.1-.41-4.06Z"/>
        <path class="cls-2" d="M69.57,46.73c-2,0-1.49-1.54-1.73-2.64C70.34,43.71,69.47,45.53,69.57,46.73Z"/>
        <path class="cls-2" d="M35.87,30.46l1.44,1.17c-.52.74-1.15,1.78-2.09,1S35.1,31,35.87,30.46Z"/>
        <path class="cls-2" d="M28.13,19.47l-1.52-.29L28.8,17C30.35,18.41,28,18.55,28.13,19.47Z"/>
        <path class="cls-2" d="M15.57,20.27c-.11.86-.5,1.28-1,.95-.33-.2-.47-.86-.5-1.33,0-.17.55-.55.83-.53A.72.72,0,0,1,15.57,20.27Z"/>
        <path class="cls-2" d="M88.14,35.78l-1-.35c.53-1.09.2-2.57,1.59-3.32C89.28,33.48,87.84,34.5,88.14,35.78Z"/>
        <path class="cls-2" d="M99.42,27l-1.06-.29c.62-.67.56-2.58,1.76-1.93C101.66,25.57,99.82,26.23,99.42,27Z"/>
        <path class="cls-2" d="M109.22,14.56c-.5,1,.78,2.84-1.37,3.17-.06-.86-.12-1.72-.19-2.57Z"/>
        <path class="cls-2" d="M118.84,46.9c-1.07-.12-1.82-.54-1.69-1.79.81.17,1.87-.49,2.37.6C119.76,46.24,119.33,46.65,118.84,46.9Z"/>
        <path class="cls-2" d="M92.28,32.29l-.71-.86c0-1.16-.76-2.44.54-3.39.41.75-.25,1.85.78,2.4C93.12,31.2,93.09,31.87,92.28,32.29Z"/>
        <path class="cls-2" d="M15.8,51.48c.43-.59,1.2-1.73,1.24-1.7,1.51.94-.4,2,.05,3C16.26,52.74,15.94,52.2,15.8,51.48Z"/>
        <path class="cls-2" d="M9.77,28.88c-.12,1.07-1.1.78-1.7,1.08-.72-.34-1.55-1-1-1.64C8,27.36,8.91,28.48,9.77,28.88Z"/>
        <path class="cls-2" d="M25,32.25c-.71-.43-.28-1.73-1.41-1.84.35-.48.79-1.4,1.3-.93A2.06,2.06,0,0,1,25,32.25Z"/>
        <path class="cls-2" d="M17,53.88c0,.74.43,1.53-.21,2.15-.12.11-.77-.08-.92-.3-.5-.73.35-1.1.55-1.65C16.54,53.76,16.73,53.71,17,53.88Z"/>
        <path class="cls-2" d="M10.83,54c.94-.3,1.48.47,2.16.84C11.86,55.65,10.76,56.38,10.83,54Z"/>
        <path class="cls-2" d="M29.63,38.49c.2.44.4.87.61,1.31-.56.38-.76,1.87-1.45,1.24C27.76,40.11,29,39.26,29.63,38.49Z"/>
        <path class="cls-2" d="M100.86,17.64c.26-.08.51-.15.77-.21.34.73.6,1.41-.29,2-.39.26-.75.27-.88-.1C100.26,18.74,100.14,18.06,100.86,17.64Z"/>
        <path class="cls-2" d="M106.84,45.9c.93.55.91,1.3.46,2.16C104.53,47.9,107,46.61,106.84,45.9Z"/>
        <path class="cls-2" d="M89.76,48.09l-.27-1h1.32l.33.94Z"/>
        <path class="cls-2" d="M37.54,28.94c-1.71.06-1.74-1.18-1.84-2.36C37.11,26.74,37.26,27.89,37.54,28.94Z"/>
        <path class="cls-2" d="M17,53.88a.78.78,0,0,0-.58.2c-1.68-.51-1-1.6-.63-2.6l1.29,1.31C17.06,53.15,17,53.52,17,53.88Z"/>
        <path class="cls-2" d="M55.78,33.79l-2.16.77c0-.73,0-1.45,0-2.18l2.23.57Z"/>
      </g>
    </g>
  </g>
</svg>
