<svg xmlns="http://www.w3.org/2000/svg" width="84.63" height="109.76" viewBox="0 0 84.63 109.76">
  <defs>
    <style>
      .cls-1 {
        fill: #050105;
      }

      .cls-2 {
        fill: #8018fa;
      }
    </style>
  </defs>
  <g id="Layer_2" data-name="Layer 2">
    <g id="Layer_1-2" data-name="Layer 1">
      <g>
        <path class="cls-1" d="M9.1,73c1.1-2.6-1.55-3-2.71-4-2.28-2-4.73-3.71-5.76-6.63C-1.06,57.56.8,53.17,4.46,49.8c3.23-3,6.8-3.85,10.38-6.13C16,42.9,17,41.86,18.2,41c3.59-2.54,8-2.59,11.6-5.91,4-3.61,4.79-7.49,6.79-12.11l.09-.2c2.4-1.76,3.17-7.17,4.32-9.82,1.54-3.56,3.49-7.22,6.81-9.49C55.91-2,75.22-1.35,80.78,8q1.93,3.24,3.85,6.48l-.3,20C83.54,37.29,84,40.15,84,43c-.08,3.7-.15,7.4-.23,11.1-.93,2.34-1.87,4.69-2.8,7-.81,1.55-2.7,2.26-3.26,4l-1.06,1c-1,.77-.49,1.82-.49,2.76q.09,16.1.19,32.19c-2.51,3.33-8.52,2.19-9.3-2-.94-5-2.1-10-3-15a21.65,21.65,0,0,0-1.17-4.66c-1-5.85-1-5.86-6.51-4.28-1.19.35-2.34.85-3.53,1.19s-1.83.74-1.94,2.2c-.64,7.76-1.71,15.5-2.14,23.27-.3,5.54-1.77,8.84-8.38,7.7l0-.08-.81-.64,0,0A5.69,5.69,0,0,1,38,105.39a38.47,38.47,0,0,0-1.29-6.26L36.62,99c-.69-5.49-1.58-11-2-16.49-.33-4.2-2.54-5.79-6.54-5.67-1.5.52-3.81-1.7-4.6,1.3q-1.5,5.7-3,11.4l-.63,2L19.63,93c-.59,2-1.07,4-1.78,6-1,2.64-2.26,5-5.73,5l-2.88-1.21a13,13,0,0,1-1-7.61C9.2,87.77,8.87,80.38,9.1,73ZM69.3,96.23c.3,1.43-.5,3.81,2,3.57,1.65-.15,2.78-1.86,2.77-3.74,0-2.47-.13-4.94-.2-7.4,0-4.48.28-9,.06-13.44-.38-7.87-.73-7.94-7.86-4.17a2.53,2.53,0,0,0-1.54,3.25Q66.93,85.27,69.3,96.23ZM81,50.07c1.13-11.5,1.09-23,1.34-34.58,0-1.56-.93-2.73-1.86-3.93C75,4.42,67.3,2.1,58.8,2.57c-5.92.32-11.44,2.66-14.15,8.5-2.4,5.17-4.34,10.55-6.62,15.78-2.46,5.66-5.54,10.72-11.66,13.58A114.58,114.58,0,0,0,6.53,51.79c-6.11,4.52-4.2,11.93.75,15.07,6.84,4.36,14.63,6.51,22.49,8.15,4.29.9,8.78,1.63,13.24.82,9.91-1.82,19.46-4.59,28.31-9.55,5-2.81,8.66-6.3,9.52-12.08Zm-33,34.64c.08-7.43.08-7.41-6.08-6.56a19.5,19.5,0,0,1-3.42.07c-1.39,0-2,.17-1.75,1.89,1.32,8,2.49,16,3.65,24,.24,1.65.89,3.16,2.6,3.1A3.35,3.35,0,0,0,46.42,104C47,97,47.52,90,47.94,84.71ZM11,89.56c0,2.61-.1,5.22,0,7.83.06,1.28-1,3.35,1.53,3.46,1.92.08,2.77-1.3,3.27-3,1.5-5.23,2.53-10.57,4.22-15.76,1.91-5.82,1.65-5.89-3.9-8.35a16.72,16.72,0,0,1-1.67-.9c-1.87-1.13-2.3-.29-2.52,1.51C11.34,79.38,11.22,84.47,11,89.56Z"/>
        <path class="cls-2" d="M47.94,84.71C47.52,90,47,97,46.42,104a3.35,3.35,0,0,1-3.48,3.22c-1.71.06-2.36-1.45-2.6-3.1-1.16-8-2.33-16-3.65-24-.29-1.72.36-1.94,1.75-1.89a19.5,19.5,0,0,0,3.42-.07C48,77.3,48,77.28,47.94,84.71Z"/>
        <path class="cls-2" d="M11,89.56c.21-5.09.33-10.18,1-15.24.22-1.8.65-2.64,2.52-1.51a16.72,16.72,0,0,0,1.67.9c5.55,2.46,5.81,2.53,3.9,8.35-1.69,5.19-2.72,10.53-4.22,15.76-.5,1.73-1.35,3.11-3.27,3-2.51-.11-1.47-2.18-1.53-3.46C10.91,94.78,11,92.17,11,89.56Z"/>
        <path class="cls-2" d="M73.85,88.66c-.56-.19-.59-.67-.63-1.15,0,.48.07,1,.63,1.15,0-4.48.28-9,.06-13.44-.38-7.87-.73-7.94-7.86-4.17a2.53,2.53,0,0,0-1.54,3.25q2.42,11,4.79,21.93c.3,1.43-.5,3.81,2,3.57,1.65-.15,2.78-1.86,2.77-3.74C74.05,93.59,73.92,91.12,73.85,88.66Z"/>
        <path class="cls-1" d="M65.54,58.39C56.68,47.45,46.35,46,34.45,51.26,39.75,41.24,63.15,45.77,65.54,58.39Z"/>
        <path class="cls-1" d="M44.36,69.08c7-.33,13.32-3.9,19.78-7,.84-.4,1.84-2.14,2.51-.25.44,1.27-.75,1.91-1.53,2.47-5,3.6-10.33,6-15.93,6-2.39,0-4.31,2.21-6.63,1.6-1.16-.3-3.13.38-3.09-1.7.07-2.69,1.94-1,3-1.25A6.07,6.07,0,0,1,44.36,69.08Z"/>
        <path class="cls-1" d="M8.9,61c.62-1.54,1.69-1.3,2.42-.81,8,5.45,16.62,6,25,8.71.72.23,1.68-.15,1.59,1.52-.07,1.21-.74,1.8-1.59,1.57-9-2.41-18-4.7-26.61-10.11A4.76,4.76,0,0,1,8.9,61Z"/>
        <path class="cls-1" d="M77.86,49.49c-5,.73-4.42-1.15-4-2.39,3.17-8.67-.16-17.47,2.46-26.14.26-.87-1.6-2.37,2-2.27,2.52.08,1.79,1.38,1.78,2.2-.09,4.12-.29,8.24-.45,12.36C77.28,38.62,79.05,44.1,78,49.51Z"/>
        <path class="cls-2" d="M80.47,11.56C75,4.42,67.3,2.1,58.8,2.57c-5.92.32-11.44,2.66-14.15,8.5-2.4,5.17-4.34,10.55-6.62,15.78-2.46,5.66-5.54,10.72-11.66,13.58A114.58,114.58,0,0,0,6.53,51.79c-6.11,4.52-4.2,11.93.75,15.07,6.84,4.36,14.63,6.51,22.49,8.15,4.29.9,8.78,1.63,13.24.82,9.91-1.82,19.46-4.59,28.31-9.55,5-2.81,8.66-6.3,9.52-12.08L81,50.07c1.13-11.5,1.09-23,1.34-34.58C82.36,13.93,81.4,12.76,80.47,11.56ZM37.14,70.36a1.34,1.34,0,0,1-1.78,1c-8.63-2.46-17.3-4.85-25.14-9.36a3.28,3.28,0,0,1-.66-.68,1.79,1.79,0,0,1,2.5-.35c7.27,4.49,15.74,5.65,23.69,8.24C36.43,69.38,37.44,69.2,37.14,70.36Zm.41-21.1c5.51-6.95,25.71-2,26.73,7.41C57.42,48.05,48.47,46.22,37.55,49.26Zm27.35,15a31.83,31.83,0,0,1-15.35,5.56c-2.38.15-4.1,2-6.46,1.64-1.19-.15-3.09.5-3.23-1.08-.17-2,1.85-.86,2.88-1.13a7.93,7.93,0,0,1,1.89,0c6.9-.71,12.93-3.82,19.09-6.56.8-.36,1.65-1.74,2.48-.35C66.75,63.24,65.62,63.8,64.9,64.27ZM75.62,46.64c1.54-8.36-.08-16.87,1.2-25.24.12-.83-.78-2.28,1-2.18,1.22.07.87,1.33.86,2.12,0,4-.14,8-.22,11.93h0c-1.19,5.19-.33,10.47-.82,15.69l-.09,0C75.09,49.65,75.4,47.84,75.62,46.64Zm-2,10.15c-.75.24-1.13-1-.83-1.19,1.66-1.1.3-4.93,3.92-4.17.74-.06,1.1-.23,1.25-.47-.15.24-.51.41-1.25.47,0,.37-.09.75-.13,1.12a3.84,3.84,0,0,0-.31.65C75.88,54.73,75.36,56.27,73.66,56.79Z"/>
        <path class="cls-1" d="M76.82,51.44c-.06.44-.12.87-.17,1.3a4.13,4.13,0,0,0-.39.75C75.73,55.25,75.07,57,73,57.63c-.94.26-1.41-1.16-1-1.38C74,55,72.29,50.57,76.82,51.44Z"/>
      </g>
    </g>
  </g>
</svg>
