<svg xmlns="http://www.w3.org/2000/svg" width="137.86" height="123.8" viewBox="0 0 137.86 123.8">
  <defs>
    <style>
      .cls-1 {
        fill: #050105;
      }

      .cls-2 {
        fill: #2622f6;
      }

      .cls-3 {
        fill: #fcc;
      }

      .cls-4 {
        fill: #fa0102;
      }

      .cls-5 {
        fill: #710020;
      }

      .cls-6 {
        fill: #fddf8d;
      }

      .cls-7 {
        fill: #8018fa;
      }
    </style>
  </defs>
  <g id="Layer_2" data-name="Layer 2">
    <g id="Layer_1-2" data-name="Layer 1">
      <g>
        <path class="cls-1" d="M101.19,116.49c.9.22,1.59.66,1.66,1.69-1.88,1.47-4.35,2.09-5.84,4.12-.9.4-1.84,1-2.43-.42,1.85-5.64,1.6-10.57-3.33-15-2.53-2.26-5.3-4.76-6.32-8.37-.66-2.37-2.16-4.28-3.53-6.26-.7-2.26-1.71-5.8-3.49-5.69-4,.26-7.88-1.47-11.78-.11-1.74.58-.84,5.45-3.92,3-2.08-1.61-3.84-1.18-5.77-1.11-6.14.22-11.71-1.17-15.83-6-2.28-2.65-4.57-2.11-7.48-1.56-4.29.82-4.72,4.83-7,7.26-.67.38-1.4.73-1,1.73l.05,0c-.69-.18-.93.15-.89.79l-.06-.07a5.89,5.89,0,0,0-4,4.94l0,0c-4.28,4.82-4.26,10.48-3.49,16.43.26,2,1.1,3,2.89,3.52l2.25,2a3.75,3.75,0,0,1-.38,3c-3.35-1.34-5.71-4.3-9.17-5.54a1.11,1.11,0,0,1-.09-2.14c2.34-.87,1.67-2.57,1.69-4.26.09-8.34,2.59-15.63,9.49-20.9.7-.53.75-1.41,1.18-2,2.42-3.39,4.34-7.35,9.67-7.15,1.29,0,2.74-1,3.23-3.58,1-5.16,0-10.1-.15-15.1-.14-6.5,1.82-12.3,4.5-18,1.41-3,4.25-4.34,6.67-6.18a23.54,23.54,0,0,0,4.08-3.2c1.57-1.88,2-3.83-1.2-4.79-5.16-1.56-8.46-4.5-7.48-10.5.22-1.34-.95-2.14-1.59-3.14-2.51-3.94-.89-8,3.57-9,.78-.18,1.91,0,2.3-.49,4.49-5.42,11-2.64,16.45-4S74.52,2.18,77.93,6.1A25.81,25.81,0,0,0,84,10.86c2.59,1.64,4.47,4,3.08,7C86,20.23,88.18,21.22,88.39,23,89,28.5,85.13,32.08,82.76,36a34.79,34.79,0,0,0-3.87,9.4c-.43,2.61.69,4.9,1.52,7.26,7.78,3.65,14.58,10,24.06,9,4.84-.53,9.36,5.41,8.29,10.64-.29,1.39-.41,2.54.68,3.68a56.79,56.79,0,0,1,6.13,6.78c2.84,4.11,7.39,3.11,11.13,3.77S136,89.4,137.46,92c1.17,2-.38,3.7-2.33,4.2a93.84,93.84,0,0,0-9.28,3.31,7.14,7.14,0,0,0-4.93,1.53,21,21,0,0,1,2.11,3.08,24.63,24.63,0,0,1,1,3.74c.42,2.15-.94,2.22-2.55,2.5-4.61.78-9.25.61-13.88.79-2.64-.33-5.28-.67-7.93-1-.6-.07-1.84-.21-1.59.44C98.89,112.64,97.61,115.88,101.19,116.49ZM64.25,12.32c-.79-1.8.9-4.33-1.68-5.6-2.3-1.11-4.88-1.46-7-3.07a2.3,2.3,0,0,0-3.6,1.29c-.49,2.67-2.19,2.78-4.13,2.63-1.76-.14-2.35,1.1-2.94,2.27s-.61,2.46.64,3.22c2.72,1.64,4.89,3.09,1.78,6.55-1,1.14.8,2.56,1.87,3.52a2.2,2.2,0,0,0,3,.16c1.19-1-.3-1.83-.49-2.74a16.88,16.88,0,0,1,.18-6.3c3.77-4.36,4.49-4.44,8.91-1a11.16,11.16,0,0,0,3.71,4.65C65.44,16,67.13,14.12,64.25,12.32ZM59.16,39.81c2.49,0,3.84,2.12,5.76,3.17s2.77.4,3.84-1.25c1.32-2,0-2.62-1.33-3.24-2.75-1.24-5.68-2.15-8.27-3.64-1.92-1.11-2.86-.18-3.54,1.09-.95,1.77.17,2.68,1.87,3,.65.13,1.34.15,1.67.88l-.1.1Zm-5.25,31.1c-5.4.39-5.36.26-9.32-.89-2.19-.64-4.13-.46-4.54,2.68A11.4,11.4,0,0,0,50.66,85.89c3.34.22,6.82.81,10-.42,6.17-2.38,12.48-1,18.73-1.22,1,0,2.08.34,3-.5s3.43-1.51,3.62-.68c.38,1.62,1.12,4-1.1,5.25-1.06.6-1.67,1.3-1.41,2.56C85,98,90.45,101.64,97.5,100.52c1.32-.21,2-1.24,3.15-1.56,7.94-2.06,7.9-2.1,4.74-9.23-1.49-3.35-3.21-6.1-7.65-5.42-2.95.45-4.66-1.17-4.42-4.14.18-2-1-2.86-2.34-3.75a13.83,13.83,0,0,0-7.93-1.85c-4.66,0-9.53,0-13.6-2.34a19.33,19.33,0,0,0-11.12-2.48c-2.26.1-4.53.14-6.8.18-.43,0-.54.08-.27.44ZM66.56,8.21C68.7,12,70.5,15.18,68,18.88c-1,1.53-1.65,2.9-3.79,3s-3.14-1.18-4-2.79a21.61,21.61,0,0,1-1.08-2.58,2.26,2.26,0,0,0-2.38-1.72c-1.14.05-1.53.91-1.91,1.8-1.38,3.21-.44,5,3.14,5.45,1.16.15,2.22.3,2.6,1.43.3.86-.45,1.46-1.2,1.84-1,.51-3-.85-2.86,1.58.1,2.09.7,3.84,2.9,4.73,3.8,1.55,7.55,3.22,11.32,4.82a8.81,8.81,0,0,0,10.44-3.18,3.67,3.67,0,0,0,.44-3.8c-.75-1.54-1.86-.3-2.73-.12-3,.61-4.08-1.59-4.28-3.59-.25-2.55,2.86-4.27,2.49-7.3-.1-.85,2.25-.05,3.27-.59,1.24-.67,3.41-.09,3.71-1.84.35-2-1.53-2.92-3.07-3.77-4.22-2.31-6.88-3-12-3.12A12.12,12.12,0,0,1,66.56,8.21Zm35.22,71.34c1.67-5.66-2.11-11.74-7.41-12A35.21,35.21,0,0,1,81,64.14C75.57,61.71,69.94,57,63.47,62.33c-.72.59-2.36.48-2.56,1.55-.28,1.5,1.34,1.8,2.33,2.34,7.12,3.84,14.6,6.48,22.83,5.9,3.76-.27,6.63,1.84,9.65,3.32,1.8.89.07,3.19.13,4.85,0,.68.31,1.41,1.09,1.46s.89-.84,1.27-1.35c1.34-1.76-.22-4.13,1.54-6.63C100.7,75.89,100.36,77.93,101.78,79.55ZM53.53,66.29c-4.12-5-4.9-16.79-1.35-22.15C53,43,54,41.68,53.12,40.57s-2.76-.76-4.13-.44a5.28,5.28,0,0,0-3.43,2.62c-2.42,4.66-4.65,9.41-4.63,14.85,0,8.16,3.24,10.67,11.41,8.89C52.72,66.4,53.11,66.36,53.53,66.29Zm-.7-12.61c-.21,2.38-.13,5.41,1.6,7.31,1.53,1.69,3.77-1.06,5.87-.88A5.44,5.44,0,0,0,61.91,60c4.14-.87,7-4.08,6-7A22.7,22.7,0,0,0,64,45.7c-3-3.47-8-2.55-9.95,1.5A14,14,0,0,0,52.83,53.68Zm58.46,37.06c3,.3,4.79-1.37,6.7-3,1.22-1.07,1.18-2,.12-3-2.39-2.26-4.12-5.18-7-7-1.42-.9-2.55-1.77-3.86.17-1.2,1.78-3.73,4.3-2.28,5.5,1.88,1.54,2.34,3.52,3.1,5.21C108.92,90.47,109.62,91.13,111.29,90.74Zm-1.37-18.38c1.64-4.44-1.18-8.37-6.37-8.15a22.28,22.28,0,0,1-12.17-3,52.28,52.28,0,0,0-6.57-2.8c-.89-.34-2-1.57-2.79-.17-.65,1.15,0,2.44,1,3.26,2.06,1.83,4.68,2.3,7.31,2.62,4.87.59,9.9.71,12.8,5.8.73,1.29.75,3.06,2.18,3.92,2.32-1.53.64-3.75,1.1-5.55C108.76,68.7,108.4,71.32,109.92,72.36ZM94.84,104.55c8.47,3.68,16.33,2.22,24.06,2.42-2-5.62-6.2-7.79-11.21-6.44A110.32,110.32,0,0,0,94.84,104.55Zm23.68-7a53.47,53.47,0,0,0,12.39-3.88c1.49-.66,2.24-1.91,0-3.18a11.58,11.58,0,0,0-12.65.8c-1.1.85-2,2.09-3.59,2.18a1.66,1.66,0,0,0-1.7,1.81c0,.9.91,1.32,1.66,1.53C115.81,97.11,117,97.25,118.52,97.53ZM69.76,47.93a21.79,21.79,0,0,0,2.77,8.67c1,1.66,2.69,2.09,4.54,1.87a1.36,1.36,0,0,0,1-1.86c-1.08-4.06-2.23-8.11-3.66-12-.09-.24-.86-2.41-2.27-1.87a3.12,3.12,0,0,0-2.28,2.94C69.88,46.3,69.81,47,69.76,47.93Zm2-43.46c-2.24-1.11-4.13-1.88-6.31-1.81-1,0-2.35.21-1.46,1.38,1,1.32,1.59,4.89,4.64,1.9C69.34,5.28,70.46,5.08,71.8,4.47ZM86,25.12c-.62-1.78-.09-4-2.94-3.88-2.7.15-4.57,1.14-5,4.26C80.79,25.4,83.09,21.58,86,25.12Z"/>
        <path class="cls-1" d="M52.18,119.83c1.06-2.44,2.53-3,5.07-1.69a18.51,18.51,0,0,0,6.06,1.55c-1.48-1.83-1.79-3.93-2.36-5.93-.31-1.12,0-2.37,1-2.7,1.43-.44,1.73.89,1.9,2a10.15,10.15,0,0,0,1.79,4.83c.62.79.73,2.2,2.21,1.9,1.25-.25,1.34-1.51,1.82-2.41.06-.12,0-.27.11-.39.54-1.1.19-3.39,1.83-3s.87,2.36.6,3.75c-.05.25.45.59.68.88,0,2.59-3.17,2.23-3.81,4.2-.13,0-.31.09-.38,0-2.73-2.24-5.7-.52-8.56-.54A31.3,31.3,0,0,0,52.18,119.83Z"/>
        <path class="cls-1" d="M36.27,118.37c-1.1-2.29-.48-3.22,1.94-2.14,3.48,1.54,5.42,1.27,4.66-3.24-.17-1-.12-2.41,1.23-2.52,1.73-.13.82,1.62,1.28,2.44.31.54.15,1.33.35,2,.27.85-.21,2.23.81,2.49,1.27.33,1.69-.71,1.83-1.94a1.1,1.1,0,0,1,1.58-.75c.81.28,1.48.67,1.3,1.71s-.41,2.36-.6,3.54c-1,2.13-2.83,1.81-4.39,1.24a3.44,3.44,0,0,0-4,.71l-1-.37c-.59-.51-1.18-1-1.76-1.54l-.27-.11Z"/>
        <path class="cls-1" d="M79.64,116.07c1,2,2.76,1.05,4.16,1.26,1-1.62-.91-4.67,1.26-4.89,2.58-.26,1.09,2.94,1.94,4.38.52.9.36,2.15,1.53,2.77a4.15,4.15,0,0,0,2.17-3.83,1.46,1.46,0,0,1,1.82-1.58c1.1.16,1.37,1,1.43,2.06.23,4.1-2.79,4.52-5.68,5.12l-2.85,0c-1.66-1.62-4.38-.15-6-2-.23-1.4-2.67-1.3-2.22-2.94C77.58,115.21,78.88,116.6,79.64,116.07Z"/>
        <path class="cls-1" d="M103.78,120.66c1.78-1.43,1.31-3.28,1-5.14-.12-.72-.31-1.81.79-1.92a1.88,1.88,0,0,1,1.52,1c.77,4,2.32,5.24,5.75,2.11.51-.46,1.79-.06,2.8-.06-2.12,4.51-7.2,7.3-11.28,6.34-.89-.21-.69-1-.86-1.6C103.59,121.17,103.69,120.92,103.78,120.66Z"/>
        <path class="cls-1" d="M25.93,121.71c-.77.32-1.84.51-2-.38a23,23,0,0,1-.05-9c.38.37.93.67,1.1,1.12,1.51,4,3.36,4.59,6,.79.6-.88,2.09-1.39,2.74-.48,1.31,1.85-1.21,2.53-1.66,3.89-1.16,2.57-4.2,2.41-6,4.11Z"/>
        <path class="cls-1" d="M1.08,111.71c2.18.67,2.31,2.31,2.33,4.1s-.25,4.23,3,2.72c1.29-.59,2.6-1.63,4.12-.65a1.24,1.24,0,0,1,0,1.11C9,120,7.88,121.77,6,121.84,3.12,122-1,115,.24,112.47.4,112.17.77,112,1.08,111.71Z"/>
        <path class="cls-1" d="M126.12,113.35c4.76,2,2.78,5.94,4,8.55.09.17-.62,1-1,1.07a1.4,1.4,0,0,1-1.4-1.21C127.2,119.22,126.75,116.65,126.12,113.35Z"/>
        <path class="cls-1" d="M118.18,120.18c.06-.25.06-.65.22-.73,1.8-.9,3.47.37,5.23.41s2,1.77,2.47,3.07c.07.21-.45.9-.6.87a19.49,19.49,0,0,1-7.22-2.86C118.14,120.85,118.21,120.44,118.18,120.18Z"/>
        <path class="cls-2" d="M53.91,70.91l-2.65-.54c-.27-.36-.16-.43.27-.44,2.27,0,4.54-.08,6.8-.18a19.33,19.33,0,0,1,11.12,2.48c4.07,2.36,8.94,2.38,13.6,2.34A13.83,13.83,0,0,1,91,76.42c1.37.89,2.52,1.7,2.34,3.75-.24,3,1.47,4.59,4.42,4.14,4.44-.68,6.16,2.07,7.65,5.42,3.16,7.13,3.2,7.17-4.74,9.23-1.2.32-1.83,1.35-3.15,1.56-7,1.12-12.51-2.56-13.94-9.64-.26-1.26.35-2,1.41-2.56,2.22-1.28,1.48-3.63,1.1-5.25-.19-.83-2.54-.27-3.62.68s-2,.46-3,.5c-6.25.27-12.56-1.16-18.73,1.22-3.19,1.23-6.67.64-10,.42A11.4,11.4,0,0,1,40.05,72.7c.41-3.14,2.35-3.32,4.54-2.68C48.55,71.17,48.51,71.3,53.91,70.91Z"/>
        <path class="cls-3" d="M66.56,8.21a12.12,12.12,0,0,0,2.49.89c5.17.15,7.83.81,12,3.12,1.54.85,3.42,1.73,3.07,3.77-.3,1.75-2.47,1.17-3.71,1.84-1,.54-3.37-.26-3.27.59.37,3-2.74,4.75-2.49,7.3.2,2,1.28,4.2,4.28,3.59.87-.18,2-1.42,2.73.12a3.67,3.67,0,0,1-.44,3.8,8.81,8.81,0,0,1-10.44,3.18c-3.77-1.6-7.52-3.27-11.32-4.82-2.2-.89-2.8-2.64-2.9-4.73-.11-2.43,1.89-1.07,2.86-1.58.75-.38,1.5-1,1.2-1.84-.38-1.13-1.44-1.28-2.6-1.43-3.58-.48-4.52-2.24-3.14-5.45.38-.89.77-1.75,1.91-1.8a2.26,2.26,0,0,1,2.38,1.72,21.61,21.61,0,0,0,1.08,2.58c.81,1.61,1.79,2.85,4,2.79s2.78-1.44,3.79-3C70.5,15.18,68.7,12,66.56,8.21Zm10.38,5.22c-.55-1.34-1.24-2.92-3.19-2.59-1.12.19-2.68.44-2.48,2.36a3.08,3.08,0,0,0,3.35,3.11C76,16.26,77,15.25,76.94,13.43Z"/>
        <path class="cls-3" d="M101.78,79.55c-1.42-1.62-1.08-3.66-2-5.78-1.76,2.5-.2,4.87-1.54,6.63-.38.51-.45,1.41-1.27,1.35s-1.06-.78-1.09-1.46c-.06-1.66,1.67-4-.13-4.85-3-1.48-5.89-3.59-9.65-3.32-8.23.58-15.71-2.06-22.83-5.9-1-.54-2.61-.84-2.33-2.34.2-1.07,1.84-1,2.56-1.55C69.94,57,75.57,61.71,81,64.14A35.21,35.21,0,0,0,94.37,67.6C99.67,67.81,103.45,73.89,101.78,79.55Z"/>
        <path class="cls-4" d="M53.53,66.29c-.42.07-.81.11-1.19.2C44.17,68.27,41,65.76,40.93,57.6c0-5.44,2.21-10.19,4.63-14.85A5.28,5.28,0,0,1,49,40.13c1.37-.32,3.19-.82,4.13.44S53,43,52.18,44.14C48.63,49.5,49.41,61.25,53.53,66.29Z"/>
        <path class="cls-4" d="M52.83,53.68A14,14,0,0,1,54,47.2c1.92-4.05,6.95-5,9.95-1.5A22.7,22.7,0,0,1,67.86,53c1,2.91-1.81,6.12-6,7a5.44,5.44,0,0,1-1.61.11c-2.1-.18-4.34,2.57-5.87.88C52.7,59.09,52.62,56.06,52.83,53.68Z"/>
        <path class="cls-2" d="M111.29,90.74c-1.67.39-2.37-.27-3.21-2.13-.76-1.69-1.22-3.67-3.1-5.21-1.45-1.2,1.08-3.72,2.28-5.5,1.31-1.94,2.44-1.07,3.86-.17,2.87,1.81,4.6,4.73,7,7,1.06,1,1.1,1.9-.12,3C116.08,89.37,114.26,91,111.29,90.74Z"/>
        <path class="cls-3" d="M109.92,72.36c-1.52-1-1.16-3.66-3.56-4.06-.46,1.8,1.22,4-1.1,5.55-1.43-.86-1.45-2.63-2.18-3.92-2.9-5.09-7.93-5.21-12.8-5.8-2.63-.32-5.25-.79-7.31-2.62-.91-.82-1.6-2.11-1-3.26.79-1.4,1.9-.17,2.79.17a52.28,52.28,0,0,1,6.57,2.8,22.28,22.28,0,0,0,12.17,3C108.74,64,111.56,67.92,109.92,72.36Z"/>
        <path class="cls-5" d="M94.84,104.55a110.32,110.32,0,0,1,12.85-4c5-1.35,9.22.82,11.21,6.44C111.17,106.77,103.31,108.23,94.84,104.55Z"/>
        <path class="cls-5" d="M118.52,97.53c-1.52-.28-2.71-.42-3.85-.74-.75-.21-1.62-.63-1.66-1.53a1.66,1.66,0,0,1,1.7-1.81c1.62-.09,2.49-1.33,3.59-2.18a11.58,11.58,0,0,1,12.65-.8c2.2,1.27,1.45,2.52,0,3.18A53.47,53.47,0,0,1,118.52,97.53Z"/>
        <path class="cls-4" d="M69.76,47.93c0-1,.12-1.63.12-2.29a3.12,3.12,0,0,1,2.28-2.94c1.41-.54,2.18,1.63,2.27,1.87,1.43,3.93,2.58,8,3.66,12a1.36,1.36,0,0,1-1,1.86c-1.85.22-3.58-.21-4.54-1.87A21.79,21.79,0,0,1,69.76,47.93Z"/>
        <path class="cls-4" d="M59.15,39.84c-.32-.74-1-.76-1.66-.89-1.7-.33-2.82-1.24-1.87-3,.68-1.27,1.62-2.2,3.54-1.09,2.59,1.49,5.52,2.4,8.27,3.64,1.36.62,2.65,1.23,1.33,3.24-1.07,1.65-2,2.26-3.84,1.25s-3.27-3.16-5.76-3.17Z"/>
        <path class="cls-6" d="M71.8,4.47c-1.34.61-2.46.81-3.13,1.47-3,3-3.64-.58-4.64-1.9-.89-1.17.48-1.34,1.46-1.38C67.67,2.59,69.56,3.36,71.8,4.47Z"/>
        <path class="cls-6" d="M86,25.12c-2.9-3.54-5.2.28-8,.38.48-3.12,2.35-4.11,5-4.26C85.9,21.09,85.37,23.34,86,25.12Z"/>
        <path class="cls-6" d="M64.25,12.32c-.79-1.8.9-4.33-1.68-5.6-2.3-1.11-4.88-1.46-7-3.07a2.3,2.3,0,0,0-3.6,1.29c-.49,2.67-2.19,2.78-4.13,2.63-1.76-.14-2.35,1.1-2.94,2.27s-.61,2.46.64,3.22c2.72,1.64,4.89,3.09,1.78,6.55-1,1.14.8,2.56,1.87,3.52a2.2,2.2,0,0,0,3,.16c1.19-1-.3-1.83-.49-2.74a16.88,16.88,0,0,1,.18-6.3c3.77-4.36,4.49-4.44,8.91-1a11.16,11.16,0,0,0,3.71,4.65C65.44,16,67.13,14.12,64.25,12.32Z"/>
        <path class="cls-2" d="M26.11,88.16c-.05.75-.05,1.53-1,1.73C24.71,88.89,25.44,88.54,26.11,88.16Z"/>
        <polygon class="cls-4" points="59.16 39.81 59.06 39.93 59.15 39.84 59.16 39.81"/>
        <path class="cls-2" d="M25.14,89.84c0,.59-.35.8-.89.79C24.21,90,24.45,89.66,25.14,89.84Z"/>
        <path class="cls-1" d="M76.94,13.43c.07,1.82-1,2.83-2.32,2.88a3.08,3.08,0,0,1-3.35-3.11c-.2-1.92,1.36-2.17,2.48-2.36C75.7,10.51,76.39,12.09,76.94,13.43Z"/>
        <g>
          <path class="cls-7" d="M91.25,106.9c-2.53-2.26-5.3-4.76-6.32-8.37-.66-2.37-2.16-4.28-3.53-6.26-.7-2.26-1.71-5.8-3.49-5.69-4,.26-7.88-1.47-11.78-.1-1.74.57-.84,5.44-3.92,3-2.08-1.61-3.84-1.18-5.77-1.11-6.14.22-11.71-1.17-15.83-6-2.28-2.65-4.57-2.11-7.48-1.56-4.29.82-4.72,4.83-7,7.26-.05.74-.05,1.5-1,1.72,0,.56-.35.76-.88.75l-.06-.07a5.88,5.88,0,0,0-4,4.93c-4.25,4.82-4.23,10.47-3.46,16.4.26,2,1.1,3,2.89,3.52l2.25,2a3.75,3.75,0,0,1-.38,3c1.6,0,1.86,4.71,4.44,1.27-.77.32-1.84.51-2-.38a23,23,0,0,1-.05-9,1.05,1.05,0,0,0-.47-.93,1.05,1.05,0,0,1,.47.93c.38.37.93.67,1.1,1.12,1.51,4,3.36,4.59,6,.79.6-.88,2.09-1.39,2.74-.48,1.31,1.85-1.21,2.53-1.66,3.9.46.67-1.28,2,.43,2.13,1.35.11,3.34,1.08,3.84-1.43-1.1-2.29-.48-3.22,1.94-2.14,3.48,1.54,5.42,1.27,4.66-3.24-.17-1-.12-2.41,1.23-2.52,1.73-.13.82,1.62,1.28,2.44.31.54.15,1.33.35,2,.27.85-.21,2.23.81,2.49,1.27.33,1.69-.71,1.83-1.94a1.1,1.1,0,0,1,1.58-.75c.81.28,1.48.67,1.3,1.71s-.41,2.36-.61,3.55l1.53-.1c1.07-2.44,2.54-3,5.08-1.69a18.51,18.51,0,0,0,6.06,1.55c-1.48-1.83-1.79-3.93-2.36-5.93-.31-1.12,0-2.37,1-2.7,1.43-.44,1.73.89,1.9,2a10.15,10.15,0,0,0,1.79,4.83c.62.79.73,2.2,2.21,1.9,1.25-.25,1.34-1.51,1.82-2.41.06-.12,0-.27.11-.39.54-1.1.19-3.39,1.83-3s.87,2.36.6,3.75c-.05.25.45.59.69.89,1,.62,2.13.19,3.2.15V113l3.49,3c1,2,2.76,1.05,4.16,1.26,1-1.62-.91-4.67,1.26-4.89,2.58-.26,1.09,2.94,1.94,4.38.52.9.36,2.15,1.53,2.77a4.15,4.15,0,0,0,2.17-3.83,1.46,1.46,0,0,1,1.82-1.58c1.1.16,1.37,1,1.43,2.06.23,4.1-2.79,4.52-5.68,5.12l.12.26,4.68-.15,1.51.41C96.43,116.24,96.18,111.31,91.25,106.9Zm-72.63-5.56c.59-1.93,1-3.91,1.59-5.86h0C19.66,97.43,19.21,99.41,18.62,101.34Z"/>
          <path class="cls-7" d="M25.09,89.89h0s0,0,0,0Z"/>
        </g>
      </g>
    </g>
  </g>
</svg>
