<svg xmlns="http://www.w3.org/2000/svg" width="139.21" height="99.51" viewBox="0 0 139.21 99.51">
  <defs>
    <style>
      .cls-1 {
        fill: #050105;
      }

      .cls-2 {
        fill: #2622f6;
      }

      .cls-3 {
        fill: #710020;
      }

      .cls-4 {
        fill: #fcc;
      }

      .cls-5 {
        fill: #fa0102;
      }

      .cls-6 {
        fill: #fefefe;
      }

      .cls-7 {
        fill: #fe4efe;
      }
    </style>
  </defs>
  <g id="Layer_2" data-name="Layer 2">
    <g id="Layer_1-2" data-name="Layer 1">
      <g>
        <path class="cls-1" d="M88.32,96.14c4-1.41,8-.52,12-.6C96.4,97,92.33,96,88.32,96.14Z"/>
        <g>
          <path class="cls-1" d="M88.32,96.14c-15.3,1.53-30.71,1.29-46,2.68-6.43.58-12.82.23-19.21.67-2.26.15-3-.53-2.91-2.89.19-6,1.27-11.7,5.54-16.33a6.77,6.77,0,0,0,1.71-4.35c.26-3.43-.39-7,1.45-10.23.86-1.54-.18-2.25-1.78-1.6-3.5,1.41-6.24,1.73-7-3.23-.32-2-2.64-2-4.39-2-6.93-.38-8.36-1.49-9.87-8a4.35,4.35,0,0,0-1.41-2.28C-1,43.24-1.45,38.56,3.16,32.4c1.09-1.45,1.65-2.65.93-4.34-2-4.71.8-8,3.85-10.63,2-1.73,3.37-2.87,3.64-5.91.51-5.6,8.37-9.73,14.76-8A4.59,4.59,0,0,0,31,2.5c3.73-2.94,7.77-3.43,11.84-.69,1.78,1.2,3.67.74,5.47.62a9.8,9.8,0,0,1,9.78,5,7.14,7.14,0,0,0,4.63,3.26c3.29,1,5.92,3.19,6,7.12.09,2.52.62,5.36-3.13,5.85-2.59,1.7-2.4,3.61.75,7.66,1-.78.39-2,.77-2.94a9.76,9.76,0,0,1,7-3.2c2.28,0,2.71-1,2.68-3a14.79,14.79,0,0,1,1.69-6.16C79.64,13.64,81.45,12.86,84,13s3.18,1.25,3.46,3.49c.17,1.42,1.28,2.07,3.09,2.31,9.56,1.25,19.12,1.15,28.71.74,3.61-.15,4.63.62,5.35,3.13-3.62-1.25-7.37-.71-11.07-.67-1,0-2.9-.41-2.74,1.62a2.42,2.42,0,0,0,3.43,2.25,19.7,19.7,0,0,1,7.47-1c1.68.08,2.34-.95,2.93-2.2,2.67,1,5.51,1.36,8.19,2.17,4.19,1.26,7.36,8.79,6.12,14-1,4-.8,8.81-6.34,9.91-4,0-8.06-.77-12,.54-1.44.12-2.89.33-4.24-.44-2.08-1-2.83.61-2.75,2s1.18,2.54,1.83,3.81c1.79,4.44,3.78,8.82,5.32,13.35,1.92,5.65,1.75,11.55.9,17.38-.29,2-2,3.19-3.82,3.79-5.93,1.88-10.76,6.72-17.47,6.47C96.34,95.62,92.27,94.73,88.32,96.14ZM50.22,47l3.37,2.61a14.54,14.54,0,0,0,8.35,2.2,3.44,3.44,0,0,0,3.55-3.07c.47-2.47-1.55-1.77-2.78-2.23-.66-.25-2.1.13-1.94-1.48,1.2-1.12,2.79-.35,4.16-.75,2-.59,3.95-1.38,4.42-3.54.44-2-1.28-3.07-2.56-4.26C64.35,34.2,61,34,58.16,32.59c-.65-.32-1.75-.16-1.49-1.38.21-.94,1-.7,1.64-.63,1.87.21,3.46-.41,3.49-2.36a4.54,4.54,0,0,0-3.12-4.47c-4.32-1.73-8.29-2.7-11,2.63a7.54,7.54,0,0,1-2.86,2.8C42.57,30.54,41.22,31.82,42,35c.56,2.36-.92,5.19,1.65,7.17a2.7,2.7,0,0,1,.29,3.1C39.55,49.39,35,48.93,31.54,44c-1.21-1.71-2-3.88-4.42-4.28-2-.33-3.77.16-4.59,2.29-1.13,2.9-.12,5.43,1.61,7.69,3,3.86,6.8,2.46,10.59,1.11-.75,3.48-.8,3.54.24,4.5,9.35,8.62,20.23,12.06,32.76,9.31,2.22-.49,4.81-1.66,4.11-4.9-.88-4.11-4.45-7.19-7.31-6.15-4.22,1.54-8,.3-11.37-1.83-2.22-1.4-4.51-2.65-6.77-4l1.28-1.53C48.71,45.85,49.37,46.72,50.22,47Zm72.44-1.56-.13.2c1.44,3,4,1,5.93,1.14,3,.17,6.33-.07,7.55-3.7,1.46-4.38,2.39-8.93-.58-13s-7.51-3.27-11.7-3.24c-.8,0-2.51.12-2,1.64C123.85,34.06,123,39.75,122.66,45.44ZM65.52,72.79c-1.82.8-3.31-.61-5-.75C52,71.31,43.42,70.67,35,69.28c-3.7-.61-4.07,1.87-4.29,3.6-.28,2.22-1.39,5.36,3.14,5.91,8,1,15.86,2,23.75-.45a8.12,8.12,0,0,1,3.51-.63c4.27.66,5.45-1.11,4.35-5A22.24,22.24,0,0,0,68.16,75c.79.5,1.87.66,2.29-.57s-.42-2.26-.94-3.29c-.63-1.23-1.85-.76-2.83-.74C64.87,70.41,66,72,65.52,72.79ZM79.33,45.51c-.41-2.18-1.64-2.79-3.89-2.86-3.13-.09-5.69.94-6.88,3.55-.72,1.58-1.49,4.16,1,5.66,2,1.79,3.22,4.2,4.57,6.48,1.13,3.46,0,6-3.21,7.62-.73.37-2.33-.26-2.12,1.18s1.82.52,2.71,1c.54,2.21,1.64,3.41,4.22,3.15a37.8,37.8,0,0,1,6.8.23c3.35.27,5.68-.37,4.93-4.57a7.53,7.53,0,0,1,.37-3.13c1-3.57,1.25-6.61-3-8.59-2.42-1.12-3.78-3.62-4.23-6.47C80.36,47.64,80.69,46.2,79.33,45.51ZM53.39,8.12l0,0a10.4,10.4,0,0,0-8.64.19c-1.53.71-4.05,3.08-6.18.16-.28-.38-1.25-.26-1.89-.41C32,7,27.11,7.49,22.29,7.34c-4-.13-6.43,1.94-6.58,5.5-.12,2.95-1.58,4.09-3.59,5.41-3.37,2.2-5.74,7.52-4.24,10,2,3.38,1.31,6-1.58,8.22-3.19,2.45-3.8,4.92-.62,7.86.74.69,1,1.86,1.7,2.66,3.23,3.81,3.74,10.75,11.4,9.59,1.26-.19,2.91,1.73,4.27,2.8.69.55,1,1.67,2.24,1-2-2.59-.5-3.5,2-3.78-.7-2.08-2.08-1.84-3.63-1.62-.64.09-2.18.83-1.94-1,.4-3.11-1.66-5.32-2.75-7.88-.36-.84-1.37-1.63-.76-2.53,2.16-3.18,4.34-6.06,8.92-6.27,3.95-.19,5.49,2,7,4.84a6.69,6.69,0,0,0,1,1.73c1.2,1.2,2.77.6,4.19.61.78,0,1.46-.74,1.07-1.3-1.95-2.79-.5-6.43-2.22-9.09-1.52-2.36-.16-3.84,1.31-4.57a17.94,17.94,0,0,0,8.09-8.31c1.37-2.61,3.32-4.6,6.44-1.66,1.93,1.83,4.15,1.86,6.71,1,1.67-.55,4-.41,3.85-2.57s-2.57-3.76-4.27-4c-2.26-.37-3.36-1-4.36-3C55.42,10,55.21,8.1,53.39,8.12ZM110.3,35.66c-.14,2.08-.23,3.24-.3,4.4s.37,2.83-1.4,2.77c-1.94-.06-1-1.87-1-2.82.12-3.46-.38-6.69-2.7-9.38-.55-.63-1.4-1.62-2.31-1.17-1.22.59-.33,1.54,0,2.38,1.14,2.81,1.1,5.77.94,8.72-.06,1.07-.17,2.42-1.67,2.18-1.25-.2-.74-1.5-.78-2.34A41,41,0,0,0,101,36c-.32-2.07-.45-4.35-2.38-5.71-1.17-.82-2.47-1.71-4-.49-1.85,1.45,0,2.36.48,3.35,2.51,4.8,1.22,11.36-2.95,14.47-1,.72-1.87,1.56-3.15.5-2-1.62-4.71-2.19-5.92-.17-1.1,1.81,1.22,3.77,2.79,5.23a3.08,3.08,0,0,0,1.34.87c3.34.66,3.64,3,3.42,5.78-.32,4-.92,8-.31,12,1.4,9.31,1.14,9.64-8.27,9.61-2.27,0-2.31.61-1.42,2.25a20,20,0,0,1,2.61,7.4c.24,2.24,1.39,2.89,3.5,2.75C91.8,93.48,96.9,93.18,102,93s7-2,7.19-7c.22-6.72-.08-13.5-3-19.6-2.8-5.84-2.58-10.08,2.65-14.68C113.62,47.56,113.73,41.79,110.3,35.66ZM49.75,96.19c9.87,1.12,19.49-2.1,29.32-1.59.79,0,1.5,0,1.85-1.06,1.13-3.39-3.33-12.63-6.8-13.1-6.6-.9-13.21-2.16-19.86.28-3.82,1.4-7.69,2.7-12,.83-2.48-1.08-5.55-.69-8.28-1.31a6.45,6.45,0,0,0-5.88,1.43c-3.59,2.79-3.73,7.1-5,10.86C22,96,23,97,26.79,97.12,34.47,97.33,42.07,95.72,49.75,96.19Zm61.81-14.11c.64,1.83-1.29,5.22,1,5.76a6.19,6.19,0,0,0,6.87-3.54,11.71,11.71,0,0,0,.81-5.49c-.87-8.41-3.74-16.24-7.56-23.73-.29-.56-.37-1.63-1.62-1.3-2.12.54-4.33,4.88-3.77,7.1C109,67.81,112,74.49,111.56,82.08ZM31.06,54.59c-1,3.6.09,6.31.22,9.06.1,2.15,1.16,3.14,3.2,3.37C43,68,51.42,68.9,59.88,69.89c1.4.16,2-.37,2-1.93C50.08,67.74,39.66,64.14,31.06,54.59ZM93.77,38a20.75,20.75,0,0,0-.47-2.62C92.44,32.62,90,32.56,88,33.08c-2.39.63-.47,2.31-.2,3.53a10,10,0,0,1-.23,5.9c-.7,1.79.3,2.15,1.75,2C93.48,44.21,93.29,41,93.77,38Zm-8.23.52c-.73-1.85-.5-5.13-3.22-5.09-3.2,0-2.79,3.51-2.8,5.65s.27,5.4,3,5.33C85.59,44.31,85,40.93,85.54,38.49ZM85.19,17c0-.27.55-1.48-.84-2-1.15-.46-1.91.1-2.84.77-2.48,1.76-1.74,4.41-2.11,6.74-.24,1.51.17,2.83,2,2.61,1.54-.19,3.57,0,3.52-2.6C84.89,20.86,85.06,19.27,85.19,17Zm11.87,8.55c0-2.39-3.48-5.36-5.75-5.2a4,4,0,0,0-3.7,2.54c-.29.77,4,5,4.71,4.59C93.9,26.66,96.4,27.6,97.06,25.52ZM74.4,34.27a5.83,5.83,0,0,0-2.26-5.78,1.37,1.37,0,0,0-2,.69c-1.24,2.31-2.35,4.77-.24,7,1,1.1,1.16,3.81,3,3.23S74.41,36.38,74.4,34.27Zm2.11,39.36c-2.07-.39-3.58.22-3.52,2.81.07,3,2.77,2.69,4.52,3.2,1.43.42,3.34-.37,3.11-2.15C80.36,75.52,79.64,73.21,76.51,73.63Zm28.88-46.45c-1.17-2.72-2.06-5.37-5.24-6a1.16,1.16,0,0,0-1.32,1.51C99.81,25.47,100.87,28.25,105.39,27.18Zm-27.85,6c.9-2.09,4.93-1.61,4.07-4.18-1-2.95-4-1-6.59-1.62A14.11,14.11,0,0,1,77.54,33.22ZM86,79c.44-1.21,3,.83,2.68-1.72s-2.32-3-4.26-3.26c-.75-.12-2.16.06-1.48,1.46S83.23,79.15,86,79Z"/>
          <path class="cls-2" d="M120.58,49.23c4-1.31,8-.51,12-.54C128.64,49.79,124.6,49.31,120.58,49.23Z"/>
          <path class="cls-3" d="M53.39,8.12c1.82,0,2,1.86,2.49,2.77,1,2,2.1,2.68,4.36,3,1.7.28,4.15,1.84,4.27,4s-2.18,2-3.85,2.57c-2.56.85-4.78.82-6.71-1-3.12-2.94-5.07-.95-6.44,1.66a17.94,17.94,0,0,1-8.09,8.31c-1.47.73-2.83,2.21-1.31,4.57,1.72,2.66.27,6.3,2.22,9.09.39.56-.29,1.3-1.07,1.3-1.42,0-3,.59-4.19-.61a6.69,6.69,0,0,1-1-1.73c-1.48-2.82-3-5-7-4.84-4.58.21-6.76,3.09-8.92,6.27-.61.9.4,1.69.76,2.53C20,48.65,22.09,50.86,21.69,54c-.24,1.81,1.3,1.07,1.94,1,1.55-.22,2.93-.46,3.63,1.62-2.47.28-4,1.19-2,3.78-1.2.71-1.55-.41-2.24-1-1.36-1.07-3-3-4.27-2.8-7.66,1.16-8.17-5.78-11.4-9.59-.68-.8-1-2-1.7-2.66-3.18-2.94-2.57-5.41.62-7.86,2.89-2.22,3.61-4.84,1.58-8.22-1.5-2.49.87-7.81,4.24-10,2-1.32,3.47-2.46,3.59-5.41.15-3.56,2.55-5.63,6.58-5.5C27.11,7.49,32,7,36.71,8.1c.64.15,1.61,0,1.89.41,2.13,2.92,4.65.55,6.18-.16a10.4,10.4,0,0,1,8.64-.19l-2.93.21C51.91,9.13,52.72,9,53.39,8.12Z"/>
          <path class="cls-4" d="M110.3,35.66c3.43,6.13,3.32,11.9-1.47,16.11-5.23,4.6-5.45,8.84-2.65,14.68,2.92,6.1,3.22,12.88,3,19.6C109,91,107,92.87,102,93s-10.19.46-15.28.81c-2.11.14-3.26-.51-3.5-2.75a20,20,0,0,0-2.61-7.4c-.89-1.64-.85-2.26,1.42-2.25,9.41,0,9.67-.3,8.27-9.61-.61-4.06,0-8,.31-12,.22-2.8-.08-5.12-3.42-5.78a3.08,3.08,0,0,1-1.34-.87c-1.57-1.46-3.89-3.42-2.79-5.23,1.21-2,4-1.45,5.92.17,1.28,1.06,2.18.22,3.15-.5,4.17-3.11,5.46-9.67,2.95-14.47-.51-1-2.33-1.9-.48-3.35,1.56-1.22,2.86-.33,4,.49,1.93,1.36,2.06,3.64,2.38,5.71a41,41,0,0,1,.07,4.44c0,.84-.47,2.14.78,2.34,1.5.24,1.61-1.11,1.67-2.18.16-3,.2-5.91-.94-8.72-.34-.84-1.23-1.79,0-2.38.91-.45,1.76.54,2.31,1.17,2.32,2.69,2.82,5.92,2.7,9.38,0,1-.92,2.76,1,2.82,1.77.06,1.32-1.63,1.4-2.77S110.16,37.74,110.3,35.66Z"/>
          <path class="cls-5" d="M49.75,96.19c-7.68-.47-15.28,1.14-23,.93C23,97,22,96,23.1,92.53c1.25-3.76,1.39-8.07,5-10.86A6.45,6.45,0,0,1,34,80.24c2.73.62,5.8.23,8.28,1.31,4.33,1.87,8.2.57,12-.83,6.65-2.44,13.26-1.18,19.86-.28,3.47.47,7.93,9.71,6.8,13.1-.35,1.07-1.06,1.1-1.85,1.06C69.24,94.09,59.62,97.31,49.75,96.19Z"/>
          <path class="cls-4" d="M46.4,47.72c2.25,1.34,4.54,2.59,6.76,4,3.38,2.13,7.15,3.37,11.37,1.83,2.86-1,6.43,2,7.31,6.15.7,3.24-1.89,4.41-4.11,4.9C55.2,67.34,44.32,63.9,35,55.28c-1-1-1-1-.24-4.5-3.79,1.35-7.62,2.75-10.59-1.11-1.73-2.26-2.74-4.79-1.61-7.69.82-2.13,2.55-2.62,4.59-2.29,2.43.4,3.21,2.57,4.42,4.28,3.5,5,8,5.42,12.37,1.3C45.23,45.59,44.79,47.7,46.4,47.72Z"/>
          <path class="cls-4" d="M43.61,42.17c-2.56-2-1.08-4.81-1.64-7.17-.75-3.18.6-4.46,2.89-5.82a7.54,7.54,0,0,0,2.86-2.8c2.67-5.33,6.64-4.36,11-2.63a4.54,4.54,0,0,1,3.12,4.47c0,2-1.62,2.57-3.49,2.36-.61-.07-1.43-.31-1.64.63-.26,1.22.84,1.06,1.49,1.38C61,34,64.35,34.2,66.79,36.48c1.28,1.19,3,2.31,2.56,4.26-.47,2.16-2.37,2.95-4.42,3.54-1.37.4-3-.37-4.16.75-.16,1.61,1.28,1.23,1.94,1.48,1.23.46,3.25-.24,2.78,2.23a3.44,3.44,0,0,1-3.55,3.07,14.54,14.54,0,0,1-8.35-2.2c-.72-1.56.91-2,1.45-2.93a5.31,5.31,0,0,0-2.49-7.83C48.59,37.33,45.92,39.27,43.61,42.17Zm8.3-7.81c-.19-1.77-1-3.34-3-3.49A1.88,1.88,0,0,0,47,33.07c.18,1.73.64,3.64,2.79,3.82C51.15,37,51.92,35.94,51.91,34.36Z"/>
          <path class="cls-5" d="M65.45,72.71c1.11,3.89-.07,5.66-4.34,5a8.12,8.12,0,0,0-3.51.63c-7.89,2.49-15.77,1.42-23.75.45-4.53-.55-3.42-3.69-3.14-5.91.22-1.73.59-4.21,4.29-3.6,8.42,1.39,17,2,25.5,2.76,1.71.14,3.2,1.55,5,.75Z"/>
          <path class="cls-4" d="M111.56,82.08c.46-7.59-2.53-14.27-4.25-21.2-.56-2.22,1.65-6.56,3.77-7.1,1.25-.33,1.33.74,1.62,1.3,3.82,7.49,6.69,15.32,7.56,23.73a11.71,11.71,0,0,1-.81,5.49,6.19,6.19,0,0,1-6.87,3.54C110.27,87.3,112.2,83.91,111.56,82.08Z"/>
          <path class="cls-2" d="M122.66,45.44c.33-5.69,1.19-11.38-.88-17-.56-1.52,1.15-1.64,2-1.64,4.19,0,8.78-.79,11.7,3.24s2,8.64.58,13c-1.22,3.63-4.56,3.87-7.55,3.7-1.93-.1-4.49,1.82-5.93-1.13,2.45.55,4.89,1.05,7.07-.71C127.24,44.65,124.86,44,122.66,45.44Z"/>
          <path class="cls-4" d="M31.06,54.59c8.6,9.55,19,13.15,30.8,13.37,0,1.56-.58,2.09-2,1.93C51.42,68.9,43,68,34.48,67c-2-.23-3.1-1.22-3.2-3.37C31.15,60.9,30.1,58.19,31.06,54.59Z"/>
          <path class="cls-2" d="M93.77,38c-.48,3-.29,6.24-4.42,6.57-1.45.12-2.45-.24-1.75-2a10,10,0,0,0,.23-5.9c-.27-1.22-2.19-2.9.2-3.53,2-.52,4.41-.46,5.27,2.27A20.75,20.75,0,0,1,93.77,38Z"/>
          <path class="cls-6" d="M85.54,38.49c-.52,2.44,0,5.82-3,5.89-2.73.07-3-3.22-3-5.33s-.4-5.61,2.8-5.65C85,33.36,84.81,36.64,85.54,38.49Z"/>
          <path class="cls-4" d="M85.19,17c-.13,2.3-.3,3.89-.28,5.48,0,2.57-2,2.41-3.52,2.6-1.82.22-2.23-1.1-2-2.61.37-2.33-.37-5,2.11-6.74.93-.67,1.69-1.23,2.84-.77C85.74,15.49,85.16,16.7,85.19,17Z"/>
          <path class="cls-4" d="M97.06,25.52c-.66,2.08-3.16,1.14-4.74,1.93-.75.38-5-3.82-4.71-4.59a4,4,0,0,1,3.7-2.54C93.58,20.16,97,23.13,97.06,25.52Z"/>
          <path class="cls-6" d="M74.4,34.27c0,2.11.39,4.55-1.54,5.16s-1.94-2.13-3-3.23c-2.11-2.25-1-4.71.24-7a1.37,1.37,0,0,1,2-.69A5.83,5.83,0,0,1,74.4,34.27Z"/>
          <path class="cls-2" d="M124.63,22.64c-.59,1.25-1.25,2.28-2.93,2.2a19.7,19.7,0,0,0-7.47,1,2.42,2.42,0,0,1-3.43-2.25c-.16-2,1.77-1.61,2.74-1.62,3.7,0,7.45-.58,11.07.67Z"/>
          <path class="cls-7" d="M50.22,47c-.85-.28-1.51-1.15-2.55-.81-1.83-1.26-2.87-2.86-1.19-4.83a5.19,5.19,0,0,1,5.14-1.51C54.66,43.62,54.36,45.11,50.22,47Z"/>
          <path class="cls-5" d="M76.51,73.63c3.13-.42,3.85,1.89,4.11,3.86.23,1.78-1.68,2.57-3.11,2.15-1.75-.51-4.45-.2-4.52-3.2C72.93,73.85,74.44,73.24,76.51,73.63Z"/>
          <path class="cls-4" d="M105.39,27.18c-4.52,1.07-5.58-1.71-6.56-4.46a1.16,1.16,0,0,1,1.32-1.51C103.33,21.81,104.22,24.46,105.39,27.18Z"/>
          <path class="cls-2" d="M77.54,33.22A14.11,14.11,0,0,0,75,27.42c2.6.58,5.62-1.33,6.59,1.62C82.47,31.61,78.44,31.13,77.54,33.22Z"/>
          <path class="cls-4" d="M86,79c-2.73.17-2.4-2.17-3.06-3.52s.73-1.58,1.48-1.46c1.94.31,4,.77,4.26,3.26S86.4,77.77,86,79Z"/>
          <path class="cls-7" d="M50.22,47c4.14-1.89,4.44-3.38,1.4-7.15.54-.13,1-.34.93-1A5.31,5.31,0,0,1,55,46.68c-.54.94-2.17,1.37-1.45,2.93Z"/>
          <path class="cls-7" d="M52.55,38.85c.05.66-.39.87-.93,1a5.19,5.19,0,0,0-5.14,1.51c-1.68,2-.64,3.57,1.19,4.83l-1.28,1.53c-1.6,0-1.16-2.13-2.48-2.45a2.7,2.7,0,0,0-.29-3.1C45.92,39.27,48.59,37.33,52.55,38.85Z"/>
          <path class="cls-5" d="M65.52,72.79c.46-.78-.65-2.38,1.16-2.41,1,0,2.2-.49,2.83.74.52,1,1.37,2,.94,3.29S69,75.48,68.16,75a22.24,22.24,0,0,1-2.7-2.27Z"/>
          <path class="cls-2" d="M122.66,45.44c2.2-1.42,4.58-.79,6.94-.5-2.18,1.76-4.62,1.26-7.07.71Z"/>
          <path class="cls-1" d="M53.39,8.12c-.67.88-1.48,1-2.9.25l2.93-.21Z"/>
          <path class="cls-1" d="M51.91,34.36c0,1.58-.76,2.65-2.11,2.53-2.15-.18-2.61-2.09-2.79-3.82a1.88,1.88,0,0,1,1.85-2.2C50.91,31,51.72,32.59,51.91,34.36Z"/>
        </g>
      </g>
    </g>
  </g>
</svg>
