<?xml version="1.0" encoding="utf-8"?>
<!-- Generator: Adobe Illustrator 26.0.3, SVG Export Plug-In . SVG Version: 6.00 Build 0)  -->
<svg version="1.1" id="Layer_1" xmlns="http://www.w3.org/2000/svg" xmlns:xlink="http://www.w3.org/1999/xlink" x="0px" y="0px"
	 viewBox="0 0 156 156" style="enable-background:new 0 0 156 156;" xml:space="preserve">
<style type="text/css">
	.st0{fill:#DDD700;stroke:#CCCC00;stroke-width:3;stroke-miterlimit:10;}
	.st1{fill:#FF00FF;stroke:#FF78FF;stroke-width:5;stroke-miterlimit:10;}
	.st2{opacity:0.63;}
	.st3{fill:url(#SVGID_1_);}
	.st4{opacity:0.6;enable-background:new    ;}
	.st5{fill:#FFFFFF;}
	.st6{opacity:0.27;enable-background:new    ;}
</style>
<circle class="st0" cx="78" cy="78" r="76.5"/>
<circle class="st1" cx="78.1" cy="78" r="60.6"/>
<g class="st2">
	
		<radialGradient id="SVGID_1_" cx="94.0779" cy="1889.6309" r="136.8647" gradientTransform="matrix(1 0 0 1 0 -1844)" gradientUnits="userSpaceOnUse">
		<stop  offset="0.271" style="stop-color:#FFFFFF;stop-opacity:0"/>
		<stop  offset="0.679" style="stop-color:#FFFFFF"/>
	</radialGradient>
	<circle class="st3" cx="77" cy="79" r="54.3"/>
</g>
<g class="st4">
	<path class="st5" d="M97.8,62.4l-16.8,2c0,0-2.7,4.8-4,7.5c5.8-0.4,8.3-0.4,12.7,2.1c7.1,4,6,14.4-4.5,23
		c-8.2,6.7-22.9,9.2-31.4,10.3c0,0,0.4-5.5,3-14c5.4-0.1,17.9-2.5,19.7-6.8c2.2-5.3-4.1-5.1-18.1-3.4c0,0,4.8-13.5,14.7-30
		c0,0,10.7-3.1,31.7-3.8L97.8,62.4z"/>
</g>
<g class="st6">
	<path d="M96.4,61.3l-16.8,2c0,0-2.7,4.8-4,7.5c5.8-0.4,8.3-0.4,12.7,2.1c7.1,4,6,14.4-4.5,23c-8.2,6.7-22.9,9.2-31.4,10.3
		c0,0,0.4-5.5,3-14c5.4-0.1,17.9-2.5,19.7-6.8C77.3,80.1,71,80.3,57,82c0,0,4.8-13.5,14.7-30c0,0,10.7-3.1,31.7-3.8L96.4,61.3z"/>
</g>
</svg>
