<svg xmlns="http://www.w3.org/2000/svg" width="137.94" height="99.87" viewBox="0 0 137.94 99.87">
  <defs>
    <style>
      .cls-1 {
        fill: #050105;
      }

      .cls-2 {
        fill: #5b1dee;
      }

      .cls-3 {
        fill: #fa0102;
      }

      .cls-4 {
        fill: #fcc;
      }

      .cls-5 {
        fill: #fb02b1;
      }

      .cls-6 {
        fill: #fefefe;
      }

      .cls-7 {
        fill: #710020;
      }
    </style>
  </defs>
  <g id="Layer_2" data-name="Layer 2">
    <g id="Layer_1-2" data-name="Layer 1">
      <g>
        <path class="cls-1" d="M46.24,87l4.45-3a4.83,4.83,0,0,0-4.13-1.5c-7.68,1.47-14.64-1.86-21.91-3-5.71-.93-4.48-5.87-4.53-9.24-.19-12,.36-24.07,3.86-35.62C27.18,24,31.71,13.89,41.86,7.91,52.7,1.53,64.1-.34,76.81,1.75c13.91,2.29,23,10.19,29.57,21.5,4,6.82,6,14.65,7.49,23,4.51-4.52,5.26-10.32,7.37-15.3,2.45-5.76,5.19-11.47,7-17.49,1-3.42,2.92-6.48,3.57-10.07.37-2.06,2.08-4,4.54-3.16s1.46,2.9.84,4.71c-3.31,9.57-6.28,19.27-9.91,28.71-2.82,7.32-4.11,15.2-8,22.12A2.72,2.72,0,0,0,121,60c2.67.61,3,2.35,3.7,4.41,1.62,5,3.25,9.92,3.1,15.31a29.14,29.14,0,0,1-.5,4.22c-3.18,1.51-3.53,3.9-2.23,6.9,1,2.25,1.54,4.54-.36,6.67l0,0-11.28,1-9.7.06c-15,.36-29.95.61-44.92,1.14a94.9,94.9,0,0,1-14.89-.18c-3.42-.41-4.25-1.87-2.88-5.17C42.16,91.44,44.21,89.22,46.24,87ZM129.7,15.14q-7.87,20.5-15.74,41a1.08,1.08,0,0,1-1.37-1c-1.71-10.05-3.88-19.84-8.27-29.25C99.82,16.23,92.86,9.13,83.39,5.79c-11-3.87-22.71-3.16-33.73.87C38,10.9,31.45,20.23,27.68,31.57,23.32,44.68,22.73,58.3,22.89,72c0,1.9,1,3.12,2.38,4.37,2.31,2.11,5.33,1.32,7.86,2.37,4.81,2,9.84.81,14.76.89,1.51,0,3-1.37,3.57-2.87.7-1.67-1.34-2.63-2-2.94-2.62-1.25-4.2-3.56-6-5.52A27.7,27.7,0,0,1,36.58,54c-.16-1-1.58-3.61,1.68-3.26,0,9.08,4.82,15.54,11.65,20.57s14.26,6.28,22.72,5.34C85.49,75.26,98,63.4,97.17,50.58c-.09-1.45.83-3.78-1.63-3.78-2.15,0-5.25-1.37-6.27,1.92-2.44,7.85-13.84,7.77-18.07,2.06-1.71-2.3-1.74-4.73-1.56-7.22a2.07,2.07,0,0,0-2.36-2.37c-1.44,0-1.92,1.43-1.29,2.68a4.57,4.57,0,0,1,.3,3.51c-1.32,4.18-3.7,7.37-8.38,8.1s-8.53-.69-11.06-4.79c-.83-1.34-1.71-3-3.22-2.24-1.84.88-3.71.14-5.44.83A2.19,2.19,0,0,1,36,46.92c1.94-.11,3.78-.28,5.63-.3,2.89,0,4.9-.72,5.52-4.15s6.4-6.82,9.86-5.64c4.52,1.54,5.86-.95,7.26-4.27.61-1.46.63-3.69,3-3.79s2.61,2,3.27,3.49c1.38,3.2,3,5.25,7.19,4a7.49,7.49,0,0,1,8.26,2.54c3.62,5,8.27,6.5,14.14,5.64a4.2,4.2,0,0,0-.45,1.38C99.94,56.08,97.4,65.05,89.07,72c-3,2.46-1.73,5.32,2.17,6.09a12.19,12.19,0,0,0,3.62,0c2.21-.24,5.17,1.16,6.44-.92,1-1.57-1.21-3.66-2-5.54-1.5-3.79.89-8.15,4.12-7.09,5.75,1.87,6.75-1.42,7.45-5.58.39-2.33,1.75-1.94,3.26-1.33,2.68.3,2.69-2,3.29-3.55,2-5.35,4.21-10.68,5.92-16.15,2.3-7.39,5.54-14.47,7.09-22.09,1.18-2.78,2.86-5.4,2.53-8.72Q131.36,11.14,129.7,15.14ZM86.77,86.62c-9.47,4.7-19.42,5-29.45,2.68-8.35-2-8.28-2.21-12.68,4.22-.73,1.08-2.36,2.08-1.52,3.4.7,1.09,2.47.6,3.77.58,15.53-.2,31-.58,46.55-1.64,3.84-.27,3.19-2.5,3.18-4.65,0-1.8-1.4-2.77-2.86-3.54C91.57,86.41,89.74,82.67,86.77,86.62ZM47.87,45.25c-.49,6.22,4.06,8.26,7.78,8.57,4.06.33,8.2-3.51,8.42-7.4.22-4.05-3.41-7.72-7.79-7.88C51.7,38.37,48,41.32,47.87,45.25Zm32.19-6.72c-5.09,0-8.15,2.67-8.17,7.09,0,3.69,4.31,7.53,8.4,7.45s8.08-3.44,7.83-6.92C87.84,42.12,84.18,37.61,80.06,38.53Zm20.2,53.23c.46,1.4-.45,2.86,1,3.21s2-.59,2.46-2c1.25-4,2.17-8.26,4.22-11.84,2.37-4.13,1.6-9.1,4.32-13,.6-.87-.2-1.61-.88-1.93-1.38-.66-1.58.8-1.86,1.46-1.48,3.52-2.82,7.09-4.19,10.65C103.62,82.93,101.88,87.53,100.26,91.76Zm10.29-10.2c-1.1,2.92-1.69,5.45-3,7.58-1.1,1.85,0,2,1.13,2.4,3.19,1,10-1.88,12-5.31C116.6,86.66,113.58,84.86,110.55,81.56Zm-32.31,3c-.26-2.1.53-5.06-3.19-5.37-2-.16-3.87-.24-3.7,2.7.16,2.77-.5,5.89,3.9,5.9C77.42,87.77,79.21,87.73,78.24,84.54ZM67.9,86c0-4.9-.76-6.33-3.5-6.37-2.19,0-3.18.82-2.92,3.18.27,2.51-.74,5.74,3.62,5.36C66.42,88.09,68.38,88.49,67.9,86Zm49.8-16.86c-2,.34-4.58.06-4.64,2.7,0,2.36,2.07,3.15,4.24,3,1.53-.12,2.85.52,4.27.79,1.18.22,2.53.25,3-1.23a2.75,2.75,0,0,0-1.06-3.17C121.81,69.72,119.65,69.74,117.7,69.18Zm2.86,14.69c1.68,0,3.6-.1,4.09-1.79.54-1.85-1.37-2.59-2.75-3.38-.58-.33-1-1.09-1.6-1.14-2.62-.27-6.19-1.28-7.19,1.67-.93,2.75,2.71,3.25,4.69,4.28A8.43,8.43,0,0,0,120.56,83.87ZM119,66.66c.5-1,3.07,2.25,3.13-1,0-2-5.58-5.94-7.63-5.43-1.66.41-3.75.6-1.75,3.52C114.36,66,115.84,67.27,119,66.66Zm-29.68,15c3,1.6,5.71,3,8.43,4.55,1.83,1,2.88-.15,3.33-1.51.29-.86,1.28-2.91-.12-3C97.25,81.53,93.47,79.62,89.36,81.64ZM72.13,39.23l-5-8.19c-1.43,3.2-3.76,5.48-3.81,9.52C66.21,38.5,69,39.71,72.13,39.23ZM58.61,82.48c-.69-1.66.9-4.74-2.42-4.88-2.58-.11-2.1,2.53-2,4,.12,1.77-.2,4.45,2.59,4.59S58.1,83.91,58.61,82.48Zm26.5-2.23h-.06c0-.53,0-1.07,0-1.6-.08-1.21.6-3.09-1.68-2.72-1.48.24-2.75,1-2,3.09a13.22,13.22,0,0,1,.36,3.54c.09,1.16-.18,2.7,1.55,2.71,1.55,0,1.8-1.32,1.79-2.61ZM106.55,95c4.56-.56,9.2.49,13.75-.32,1-.17,2.43-.19,1.65-1.91-.49-1.08-1-2.31-2.58-1.23A22.11,22.11,0,0,1,106.55,95Zm-.46-24.79c.23-2.22-.28-3.37-2.27-3.36-1.47,0-2.82.21-2.59,2.11s.93,4.15,2.77,4.37S105.8,71.17,106.09,70.18Z"/>
        <path class="cls-2" d="M.45,71.17c0,.1-.07.28-.11.28a1.46,1.46,0,0,1-.34-.1c0-.1.07-.28.11-.28A.93.93,0,0,1,.45,71.17Z"/>
        <path class="cls-3" d="M114.18,57.64c-1.51-.61-2.87-1-3.26,1.33-.7,4.16-1.7,7.45-7.45,5.58-3.23-1.06-5.62,3.3-4.12,7.09.74,1.88,2.91,4,2,5.54-1.27,2.08-4.23.68-6.44.92a12.19,12.19,0,0,1-3.62,0c-3.9-.77-5.13-3.63-2.17-6.09,8.33-6.91,10.87-15.88,10.55-26.15a4.2,4.2,0,0,1,.45-1.38c-5.87.86-10.52-.65-14.14-5.64a7.49,7.49,0,0,0-8.26-2.54c-4.15,1.26-5.81-.79-7.19-4-.66-1.53-.92-3.58-3.27-3.49s-2.38,2.33-3,3.79c-1.4,3.32-2.74,5.81-7.26,4.27-3.46-1.18-9.24,2.23-9.86,5.64s-2.63,4.12-5.52,4.15c-1.85,0-3.69.19-5.63.3a2.17,2.17,0,0,0,2.24,2.35c0,.5.05,1,.07,1.5C35,50.42,36.42,53,36.58,54a27.7,27.7,0,0,0,6.93,14.25c1.76,2,3.34,4.27,6,5.52.65.31,2.69,1.27,2,2.94-.62,1.5-2.06,2.89-3.57,2.87-4.92-.08-10,1.12-14.76-.89-2.53-1-5.55-.26-7.86-2.37C23.9,75.1,22.92,73.88,22.89,72c-.16-13.68.43-27.3,4.79-40.41C31.45,20.23,38,10.9,49.66,6.66c11-4,22.77-4.74,33.73-.87,9.47,3.34,16.43,10.44,20.93,20.09,4.39,9.41,6.56,19.2,8.27,29.25.15.85.61,1.08,1.37,1C114,56.65,114.1,57.14,114.18,57.64Z"/>
        <path class="cls-4" d="M38.26,50.77c0-.5,0-1-.07-1.5,1.73-.68,3.6.06,5.44-.82,1.51-.73,2.39.9,3.22,2.24,2.53,4.1,6.38,5.52,11.06,4.79s7.06-3.92,8.38-8.1a4.57,4.57,0,0,0-.3-3.51c-.63-1.25-.15-2.65,1.29-2.68a2.07,2.07,0,0,1,2.36,2.37c-.18,2.49-.15,4.92,1.56,7.22,4.23,5.71,15.63,5.79,18.07-2.06,1-3.29,4.12-1.92,6.27-1.92,2.46,0,1.54,2.33,1.63,3.78C98,63.4,85.49,75.26,72.63,76.68c-8.46.94-16-.42-22.72-5.34S38.21,59.85,38.26,50.77ZM79,58c-.49.13-.67.12-.73.2a3.38,3.38,0,0,0-.54,1c-1.13,4.11-3.08,7.43-7.89,7.7-5.23.3-8.8-.41-10.86-6.53-.29-.88-.61-2.12-1.81-1.51-.92.47-.52,1.7-.29,2.57,1.9,7.25,10.18,9.31,15.45,7.16C78.16,66.14,80.1,63,79,58Z"/>
        <path class="cls-5" d="M93.76,87.67c1.46.77,2.85,1.74,2.86,3.54,0,2.15.66,4.38-3.18,4.65-15.51,1.06-31,1.44-46.55,1.64-1.3,0-3.07.51-3.77-.58-.84-1.32.79-2.32,1.52-3.4C49,87.09,49,87.35,57.32,89.3c10,2.35,20,2,29.45-2.67C89,88,91.35,87.86,93.76,87.67Z"/>
        <path class="cls-6" d="M47.87,45.25c.13-3.93,3.83-6.88,8.41-6.71,4.38.16,8,3.83,7.79,7.88-.22,3.89-4.36,7.73-8.42,7.4C51.93,53.51,47.38,51.47,47.87,45.25ZM56.58,49c1.6,0,2.56-.52,2.64-2,.09-1.72-1.16-2.33-2.51-2.5s-2.91.67-2.93,2C53.76,48.14,55.31,48.8,56.58,49Z"/>
        <path class="cls-6" d="M80.06,38.53c4.12-.92,7.78,3.59,8.06,7.62.25,3.48-3.87,6.83-7.83,6.92s-8.42-3.76-8.4-7.45C71.91,41.2,75,38.54,80.06,38.53Zm-1,4.82a2.49,2.49,0,0,0-2.29,2.9C77,48.1,79,47.89,80.17,48.09c1.48.24,2.1-1.61,2-2.47C82,44.06,80.25,43.82,79.09,43.35Z"/>
        <path class="cls-6" d="M100.26,91.76c1.62-4.23,3.36-8.83,5.12-13.41,1.37-3.56,2.71-7.13,4.19-10.65.28-.66.48-2.12,1.86-1.46.68.32,1.48,1.06.88,1.93-2.72,3.89-2,8.86-4.32,13-2,3.58-3,7.83-4.22,11.84-.43,1.38-1.06,2.3-2.46,2S100.72,93.16,100.26,91.76Z"/>
        <path class="cls-6" d="M114.18,57.64c-.08-.5-.15-1-.22-1.49l15.74-41,.78.71c-1.55,7.62-4.79,14.7-7.09,22.09-1.71,5.47-3.87,10.8-5.92,16.15C116.87,55.66,116.86,57.94,114.18,57.64Z"/>
        <path class="cls-4" d="M110.55,81.56c3,3.3,6,5.1,10.12,4.67-2,3.43-8.76,6.33-12,5.31-1.13-.36-2.23-.55-1.13-2.4C108.86,87,109.45,84.48,110.55,81.56Z"/>
        <path class="cls-5" d="M78.24,84.54c1,3.19-.82,3.23-3,3.23-4.4,0-3.74-3.13-3.9-5.9-.17-2.94,1.74-2.86,3.7-2.7C78.77,79.48,78,82.44,78.24,84.54Z"/>
        <path class="cls-2" d="M67.9,86c.48,2.45-1.48,2-2.8,2.17-4.36.38-3.35-2.85-3.62-5.36-.26-2.36.73-3.21,2.92-3.18C67.14,79.71,68,81.14,67.9,86Z"/>
        <path class="cls-4" d="M117.7,69.18c2,.56,4.11.54,5.85,2.07a2.75,2.75,0,0,1,1.06,3.17c-.51,1.48-1.86,1.45-3,1.23-1.42-.27-2.74-.91-4.27-.79-2.17.17-4.29-.62-4.24-3C113.12,69.24,115.71,69.52,117.7,69.18Z"/>
        <path class="cls-4" d="M120.56,83.87a8.43,8.43,0,0,1-2.76-.36c-2-1-5.62-1.53-4.69-4.28,1-3,4.57-1.94,7.19-1.67.56,0,1,.81,1.6,1.14,1.38.79,3.29,1.53,2.75,3.38C124.16,83.77,122.24,83.92,120.56,83.87Z"/>
        <path class="cls-4" d="M119,66.66c-3.2.61-4.68-.62-6.25-2.9-2-2.92.09-3.11,1.75-3.52,2-.51,7.67,3.4,7.63,5.43C122.11,68.91,119.54,65.66,119,66.66Z"/>
        <path class="cls-6" d="M72.13,39.23c-3.09.48-5.92-.73-8.82,1.33,0-4,2.38-6.32,3.81-9.52Z"/>
        <path class="cls-7" d="M58.61,82.48c-.51,1.43.89,3.86-1.84,3.71s-2.47-2.82-2.59-4.59c-.09-1.47-.57-4.11,2-4C59.51,77.74,57.92,80.82,58.61,82.48Z"/>
        <path class="cls-7" d="M85.11,80.25v2.41c0,1.29-.24,2.61-1.79,2.61-1.73,0-1.46-1.55-1.55-2.71A13.22,13.22,0,0,0,81.41,79c-.79-2.08.48-2.85,2-3.09,2.28-.37,1.6,1.51,1.68,2.72,0,.53,0,1.07,0,1.6Z"/>
        <path class="cls-5" d="M106.55,95a22.11,22.11,0,0,0,12.82-3.46c1.61-1.08,2.09.15,2.58,1.23.78,1.72-.68,1.74-1.65,1.91C115.75,95.46,111.11,94.41,106.55,95Z"/>
        <path class="cls-4" d="M106.09,70.18c-.29,1-.37,3.32-2.09,3.12s-2.55-2.49-2.77-4.37,1.12-2.11,2.59-2.11C105.81,66.81,106.32,68,106.09,70.18Z"/>
        <path class="cls-5" d="M93.76,87.67c-2.41.19-4.81.35-7-1C89.74,82.67,91.57,86.41,93.76,87.67Z"/>
        <path class="cls-1" d="M79,58c1.11,5-.83,8.19-6.67,10.57-5.27,2.15-13.55.09-15.45-7.16-.23-.87-.63-2.1.29-2.57,1.2-.61,1.52.63,1.81,1.51,2.06,6.12,5.63,6.83,10.86,6.53,4.81-.27,6.76-3.59,7.89-7.7a3.38,3.38,0,0,1,.54-1C78.32,58.07,78.5,58.08,79,58Z"/>
        <path class="cls-1" d="M56.58,49c-1.27-.24-2.82-.9-2.8-2.46,0-1.38,1.46-2.23,2.93-2s2.6.78,2.51,2.5C59.14,48.52,58.18,49.05,56.58,49Z"/>
        <path class="cls-1" d="M79.09,43.35c1.16.47,2.92.71,3.09,2.27.09.86-.53,2.71-2,2.47-1.2-.2-3.21,0-3.37-1.84A2.49,2.49,0,0,1,79.09,43.35Z"/>
      </g>
    </g>
  </g>
</svg>
