<svg xmlns="http://www.w3.org/2000/svg" width="126.66" height="88.46" viewBox="0 0 126.66 88.46">
  <defs>
    <style>
      .cls-1 {
        fill: #050105;
      }

      .cls-2 {
        fill: #fefefe;
      }

      .cls-3 {
        fill: #fb02b1;
      }

      .cls-4 {
        fill: #fd9402;
      }

      .cls-5 {
        fill: #fd983f;
      }

      .cls-6 {
        fill: #710020;
      }
    </style>
  </defs>
  <g id="Layer_2" data-name="Layer 2">
    <g id="Layer_1-2" data-name="Layer 1">
      <g>
        <path class="cls-1" d="M121.49,47.6c-2.74,5.12-5.64,10.11-10.81,13.25a3.4,3.4,0,0,0-1.36,1.43c-3.13,7.41-9,12.62-15.51,16.47-5,3-10.45,7.94-17.61,4.43-1.27-.62-3.14,0-4.73,0-2,.1-3.81.17-5-2.24-1-2.08-3.94-1.47-5.27.87-2.17,3.82-9,6.54-13.76,5.53a12.72,12.72,0,0,0-2.76,0c-4.4-.85-8.71-3.07-13.17.44a5,5,0,0,1-5.35-.32c-1.34-1.06-2.68-1-4.14-.84-3.39.29-5.71-1.26-7.24-4.18l-.05-.16c.05-1,.1-2.07.14-3.1,1.27-4.1,4.34-6.73,7.45-9.39,4.41-3.78,4.63-6.27,1.15-10.76-4.65-6-3.27-5.79-13.78-4.46,1.21-4.31-.86-6.77-5.79-6.65C2,48,.5,48.22,2.17,45.68c1-1.44-.17-2.55-.72-3.71C-.54,37.74.08,33.39.13,28.84.24,19,1.94,16,4,18.76c.31,3.06-2.12,12.59-1.31,15.69.13,2.13-1.05,4.63,1.69,6,.91,3.22,2.93,4.2,6.06,3a12.66,12.66,0,0,1,5.15-.69c1.08,0,2.3.12,2.58-1.3.36-1.84-1.25-1.67-2.28-2.07a17.71,17.71,0,0,0-6.73-1c-1,0-2.3,0-2.33-1-.05-1.64,1.53-1,2.48-1.12,2.07-.28,3.94.52,5.89,1,2.43.64,5,1.41,7.09-.9l3.74-2.55c6.52-1.72,13-3.12,19.45.34,1.93,1.05,3.3-.3,4.87-.88,3.5-1.3,6.95-3.12,11.83-1.42C58,33.28,54.79,34.3,51.54,35.34A1.67,1.67,0,0,0,50.15,37c0,1.27,1.09,1,1.7,1.19,2.86,1,5.83.47,8.76.43.9,0,1.38-.79,1.63-1.57,1.81-5.61,1.93-11.08-1.85-16-1.37-1.78-3-3.32-2.85-5.8a28.4,28.4,0,0,0-.68-8.59C55.71,2.75,55,2.29,51.15,3.79c-2.89,1.12-5.26,3.05-8,4.44-1.59.23-3.21.61-4.76,0-6.08-2.48-11.8-1.31-17.31,1.68a4.67,4.67,0,0,1-5,0c-3.1-1.7-6.63-1.82-10-2.35-2.34-.37-2.41,1-2.31,2.59s-.11,3.35-.16,5c-.61,1.25.11,2.24.66,3.26C3.42,19.84,2,20,.52,20.17,1.64,16.1-.14,12,1,7.76c.84-3.07,3.23-3.61,4.72-3.22,3.44.89,7.13.44,10.44,2.21,1.68.9,3.6.53,5.63-.47C27.29,3.58,33.08,2.82,39,5.2a4.8,4.8,0,0,0,4.2-.51,54.59,54.59,0,0,1,9-4.14c3.85-1.16,5.77-.63,7.18,3,1.21,3.12,2.11,6.36,3.33,10.1,2.75-3.48,6.61-5,10.07-7.08,2.35-1.4,5.55-1.64,7.78.36,5.44,4.87,9.72,10.48,9.51,18.34,0,.4.14.91,0,1.2-3.31,5.18,1.33,6.52,4.3,7.8a16.81,16.81,0,0,1,6.27,5.09c1.56,1.85,3.5,2.64,5.11,1.34a3.92,3.92,0,0,0,.44-5.43,13.15,13.15,0,0,1-2.4-7.93A6.94,6.94,0,0,1,112,20.44c3.3.72,6.15,2,8,5.5s4,6.83,3.21,11c-.4,2.25,1.45,2.87,3.45,4.32-2.19-.41-4-1.08-3.59,1.64.23,1.75-.91,3.2-1.62,4.73ZM79.25,33.15l-7.15-.06c-1.81-.33-2.32.5-2.29,2.22,0,2-.26,4-.4,6-2.74,3.95-5.3,8.07-10,10.14a40.82,40.82,0,0,1-11.63,3.86c-5,.75-5,.77-2.07,5.35,4.7,6.46,2-4.87,5.34-1.57.72,2.76-1.22,4.92-3.3,7-1.79,1-2.42,3-3.71,4.78l3.69-.55c3.93-.55,6.39,2.86,9.85,3.66,1.74.4,3,.63,4-1.21a19,19,0,0,1,5.52-6.22c.73-.51,2-1.42,1.52-2.14-2.08-3.06-.39-6.46-1.12-9.64-.31-1.35-3.53-5,1.87-4.4.5,0,1.19-1.3,1.72-2.06A4.65,4.65,0,0,1,75.08,46c-4.5,8.7-10.47,17.34,2.67,23.33,4.68,1.29,9.33,1.77,13.88-.49l.21-.06c.75-.11,1.59,0,2.06-.84,1.23-.46,2.47-.91,3.69-1.4.7-.28,1.53-.91,2,.13s-.51,1.33-1.16,1.74l-1.27.83-7.27,3.18c1.29,3.66,2.94,3.33,5.33,1.23,1.27-1.12,2.75-2,3.74-3.45A12.74,12.74,0,0,0,103.62,64c4.15-13.12-2.8-25.54-16.89-30C84.35,32.62,81.78,33.05,79.25,33.15ZM70.86,11.39c-3.58,1.4-5.38,4.39-7,7.61-1.06,2.06-.26,2.58,1.62,2.77,3.49.36,5.5-1.94,7.59-4.13a2.45,2.45,0,0,0,2.63-1.49c1-2.29,4.54-4.69,2.12-7C75.77,7.28,72.89,9.58,70.86,11.39ZM42.53,39.16l2.25-2.8c-2.4-1.6-4.13-2.39-5.87.76-2.69,4.85-5.8,5.22-10,1.49-1.57-1.38-2.81-2.31-4.8-.71-2.64,2.12,1.32,2.47,1,3.93-4.17.24-5.43,1.77-4.58,5.51a4.72,4.72,0,0,0,3,3.48c3.43.65,5.63,3.4,8.77,4.38,3.51,1.1,6.63.55,9-2.34a18.25,18.25,0,0,1,5-4.39c3.87-2.19,2.24-5.76,1.32-8.76-.88-2.83-2.47.63-3.75-.05A12.7,12.7,0,0,0,42.53,39.16ZM74.15,31.3c2.93-.53,5.88-.57,8.35-1.65S88.07,27,86,23.05a47.15,47.15,0,0,1-1.66-4.82c-1.3-3.41-3.32-3.72-5.61-.94-2.64,3.21-6.19,5.18-9.7,7.24-1,.6-3-.31-3.13,1.66s1.74,2.87,3.16,3.72C70.65,30.85,72.71,30.24,74.15,31.3ZM25,79.16c-.86,4,1.15,7.35,4.07,6.88A9.61,9.61,0,0,0,36.78,80c1-2.46-1.61-6.81-3.34-5.77-2.41,1.47-3.72,0-5.36-.81-2.17-1.07-4.52-1.42-6.38,0-2.4,1.83-4.84,3.89-4.45,7.57.24,2.16,1.35,2.88,3.39,3.07s2.43-.86,2.3-2.6C22.85,80.31,23.09,79.25,25,79.16Zm95-47.48a12.12,12.12,0,0,0-5.72-8.54,5.31,5.31,0,0,0-6.42.44c-1.71,1.32-3.24,3.14-2.39,5.48,1.1,3,2.64,5.82,4,8.72,1,2.21,2.07,1.85,3.53.3.68-.73,1-2.2,2.69-1.81C118.84,37,119.85,36.08,119.93,31.68Zm.12,10c.59-1.51-.19-2-1.78-1.72a58.6,58.6,0,0,0-6.58,1.5c-3.22,1.05-6.4,5.42-5.63,7.82a23.5,23.5,0,0,1,1.22,7.9c-.06,1.89.59,2.31,2,1.18C114.63,54.06,118.51,48.76,120.05,41.69Zm-73,37.84c.26,2.54-.05,5.38,3.28,6,3,.57,7-3,7.33-6.5.27-3.31-1.38-4.71-5.66-4.76a21.92,21.92,0,0,1-2.81,0c-5.09-.7-8.79,2.06-9.35,6.95-.25,2.24,1.06,3.2,2.93,3.54,2.17.41,3-.69,2.59-2.78C45.2,81,45.39,80.1,47.06,79.53ZM32.92,63.07c1.06.13,1.4,1.47,2.19,2.48,1.49,1.93,2.87,5,5.4,4.66,2.17-.26,3.23-3.23,4.3-5.33.32-.61-3.74-8.16-4.27-8.23a2.91,2.91,0,0,0-1.17.13c-4,1.19-7.87,1-11.44-1.39-.6-.39-1.09-.69-1.76-.15a1.84,1.84,0,0,0-.79,2A7.46,7.46,0,0,0,32.92,63.07ZM78.64,74.45c-.89,2.37-3.46,4.68-.38,6.76,2.58,1.74,8-.11,9.52-2.89.33-.6.6-1.8.38-1.78-3.17.28-2.42-5.2-6.34-4.11-1.42.4-3.31-.64-4.91-1.21-3.85-1.36-8.55.94-9.41,4.93-.51,2.4.68,4.09,3.12,4.73s4,.3,4.18-2.89C74.9,76.38,75.5,73.89,78.64,74.45ZM38.1,73.54c-.38-2.78-2.66-3.77-4.1-5.43-1.71-2-6.25-1.31-7.44.63-.54.89-1.1,2.65.6,2.18C31.35,69.77,34.58,71.66,38.1,73.54ZM66,41.68c-3.42-.48-5.19,1-6.62,3.33-.5.82-1.35,1.49-.33,2.36a2.08,2.08,0,0,0,2.61-.06C63.52,46,64.62,44.06,66,41.68Zm5.13,26.16c-4.44.75-6.8,3.24-6.63,7ZM9.92,46.38c.86,1.68,2.46,2.14,3.9,2.44s3-.33,3.15-1.78c.18-2.09-1.77-1-2.67-1C12.93,46,11.45,45.52,9.92,46.38ZM35.87,35.53c.09-1.32-.92-1.17-1.62-1-.94.3-2.66-.55-2.57,1.55.05,1.06.72,1.25,1.59,1.34C34.74,37.61,35.45,36.8,35.87,35.53ZM50,51.85c2.31-.59,4.87-.58,6.41-3A10.4,10.4,0,0,0,50,51.85Z"/>
        <path class="cls-2" d="M42.53,39.16a12.7,12.7,0,0,1,1.41.5c1.28.68,2.87-2.78,3.75.05.92,3,2.55,6.57-1.32,8.76a18.25,18.25,0,0,0-5,4.39c-2.41,2.89-5.53,3.44-9,2.34-3.14-1-5.34-3.73-8.77-4.38a4.72,4.72,0,0,1-3-3.48c-.85-3.74.41-5.27,4.58-5.51.35-1.46-3.61-1.81-1-3.93,2-1.6,3.23-.67,4.8.71,4.23,3.73,7.34,3.36,10-1.49,1.74-3.15,3.47-2.36,5.87-.76Zm-19,7.74c2.82,2,5.43,4,8.21,5.69,1.92,1.18,4.43,1.54,5.94-.23A47.17,47.17,0,0,1,44.2,46c.58-.47.88-1.05.11-1.6a8.82,8.82,0,0,0-2.64-1.65c-.82-.21-.64.78-.8,1.41-.79,3.07-3,3.77-4.92,1.33s-2.16-1.59-2.75.67a2.78,2.78,0,0,1-3,2.23c-1.71-.11-2.32-1-2.21-2.65.13-2-.92-1.54-1.94-.85C25.24,45.5,24.47,46.19,23.58,46.9Z"/>
        <path class="cls-3" d="M74.15,31.3c-1.44-1.06-3.5-.45-5.07-1.39-1.42-.85-3.28-1.61-3.16-3.72s2.09-1.06,3.13-1.66c3.51-2.06,7.06-4,9.7-7.24,2.29-2.78,4.31-2.47,5.61.94A47.15,47.15,0,0,0,86,23.05c2,4-1,5.51-3.52,6.6S77.08,30.77,74.15,31.3Z"/>
        <path class="cls-2" d="M25,79.16c-1.87.09-2.11,1.15-2,2.26.13,1.74-.13,2.79-2.3,2.6s-3.15-.91-3.39-3.07c-.39-3.68,2.05-5.74,4.45-7.57,1.86-1.41,4.21-1.06,6.38,0,1.64.81,3,2.28,5.36.81,1.73-1,4.35,3.31,3.34,5.77A9.61,9.61,0,0,1,29,86C26.11,86.51,24.1,83.12,25,79.16Z"/>
        <path class="cls-2" d="M119.93,31.68c-.08,4.4-1.09,5.32-4.33,4.59-1.71-.39-2,1.08-2.69,1.81-1.46,1.55-2.52,1.91-3.53-.3-1.34-2.9-2.88-5.73-4-8.72-.85-2.34.68-4.16,2.39-5.48a5.31,5.31,0,0,1,6.42-.44A12.12,12.12,0,0,1,119.93,31.68Z"/>
        <path class="cls-4" d="M120.05,41.69c-1.54,7.07-5.42,12.37-10.78,16.68-1.4,1.13-2,.71-2-1.18a23.5,23.5,0,0,0-1.22-7.9c-.77-2.4,2.41-6.77,5.63-7.82a58.6,58.6,0,0,1,6.58-1.5C119.86,39.65,120.64,40.18,120.05,41.69Z"/>
        <path class="cls-2" d="M47.06,79.53C45.39,80.1,45.2,81,45.37,82c.37,2.09-.42,3.19-2.59,2.78-1.87-.34-3.18-1.3-2.93-3.54.56-4.89,4.26-7.65,9.35-6.95a21.92,21.92,0,0,0,2.81,0c4.28,0,5.93,1.45,5.66,4.76-.29,3.46-4.35,7.07-7.33,6.5C47,84.91,47.32,82.07,47.06,79.53Z"/>
        <path class="cls-2" d="M32.92,63.07a7.46,7.46,0,0,1-7.54-5.81,1.84,1.84,0,0,1,.79-2c.67-.54,1.16-.24,1.76.15,3.57,2.36,7.42,2.58,11.44,1.39a2.91,2.91,0,0,1,1.17-.13c.53.07,4.59,7.62,4.27,8.23-1.07,2.1-2.13,5.07-4.3,5.33-2.53.31-3.91-2.73-5.4-4.66C34.32,64.54,34,63.2,32.92,63.07Z"/>
        <path class="cls-2" d="M78.64,74.45C75.5,73.89,74.9,76.38,74.8,78c-.19,3.19-1.69,3.56-4.18,2.89S67,78.55,67.5,76.15c.86-4,5.56-6.29,9.41-4.93,1.6.57,3.49,1.61,4.91,1.21,3.92-1.09,3.17,4.39,6.34,4.11.22,0,0,1.18-.38,1.78-1.5,2.78-6.94,4.63-9.52,2.89C75.18,79.13,77.75,76.82,78.64,74.45Z"/>
        <path class="cls-3" d="M73,17.64c-2.09,2.19-4.1,4.49-7.59,4.13-1.88-.19-2.68-.71-1.62-2.77,1.66-3.22,3.46-6.21,7-7.61,2.54.9,5.29,1.69,1.61,4.76C71.86,16.66,72.23,17.37,73,17.64Z"/>
        <path class="cls-5" d="M38.1,73.54c-3.52-1.88-6.75-3.77-10.94-2.62-1.7.47-1.14-1.29-.6-2.18,1.19-1.94,5.73-2.6,7.44-.63C35.44,69.77,37.72,70.76,38.1,73.54Z"/>
        <path class="cls-6" d="M73,17.64c-.8-.27-1.17-1-.56-1.49,3.68-3.07.93-3.86-1.61-4.76,2-1.81,4.91-4.11,6.92-2.21,2.42,2.28-1.1,4.68-2.12,7A2.45,2.45,0,0,1,73,17.64Z"/>
        <path class="cls-6" d="M66,41.68c-1.33,2.38-2.43,4.33-4.34,5.63a2.08,2.08,0,0,1-2.61.06c-1-.87-.17-1.54.33-2.36C60.76,42.69,62.53,41.2,66,41.68Z"/>
        <path class="cls-5" d="M71.08,67.84l-6.63,7C64.28,71.08,66.64,68.59,71.08,67.84Z"/>
        <path class="cls-4" d="M9.92,46.38c1.53-.86,3-.37,4.38-.37.9,0,2.85-1.06,2.67,1-.13,1.45-1.82,2.06-3.15,1.78S10.78,48.06,9.92,46.38Z"/>
        <path class="cls-3" d="M35.87,35.53c-.42,1.27-1.13,2.08-2.6,1.93-.87-.09-1.54-.28-1.59-1.34-.09-2.1,1.63-1.25,2.57-1.55C35,34.36,36,34.21,35.87,35.53Z"/>
        <path class="cls-5" d="M77.75,69.34c.32-.22.72-.7,1-.63C83,70,87.34,68,91.63,68.85,87.08,71.11,82.43,70.63,77.75,69.34Z"/>
        <path class="cls-4" d="M86.73,34a14.57,14.57,0,0,1-4.22.8,14.57,14.57,0,0,0,4.22-.8c-2.38-1.35-5-.92-7.48-.82-1.69,1.31-3.69.85-5.59.94h0c-.58-.24-1.34-.19-1.56-1-1.81-.33-2.32.5-2.29,2.22,0,2-.26,4-.41,6-2.73,3.94-5.29,8.06-10,10.13a40.82,40.82,0,0,1-11.63,3.86c-5,.75-5,.77-2.07,5.35,4.7,6.46,2-4.87,5.34-1.57.72,2.76-1.22,4.92-3.3,7-1.79,1-2.42,3-3.71,4.78l3.69-.55c3.93-.55,6.39,2.86,9.85,3.66,1.74.4,3,.63,4-1.21a19,19,0,0,1,5.52-6.22c.73-.51,2-1.42,1.52-2.14-2.08-3.06-.39-6.46-1.12-9.64-.31-1.35-3.53-5,1.87-4.4.5,0,1.19-1.3,1.72-2.06A4.65,4.65,0,0,1,75.08,46c-4.5,8.7-10.47,17.34,2.67,23.33.32-.22.72-.7,1-.63C83,70,87.34,68,91.63,68.85l.21-.06c.45-.88.94-1.65,2.07-.84,1.22-.46,2.46-.91,3.68-1.4.7-.28,1.53-.91,2,.13s-.51,1.33-1.16,1.74l-1.27.83-7.27,3.18c1.29,3.66,2.94,3.33,5.33,1.23,1.27-1.12,2.75-2,3.74-3.45A12.74,12.74,0,0,0,103.62,64C107.77,50.85,100.82,38.43,86.73,34Z"/>
        <path class="cls-6" d="M50,51.85a10.4,10.4,0,0,1,6.41-3C54.83,51.27,52.27,51.26,50,51.85Z"/>
        <path class="cls-4" d="M79.25,33.15c-1.69,1.31-3.69.85-5.59.94-.58-.24-1.34-.19-1.56-1Z"/>
        <path class="cls-5" d="M91.84,68.79c.45-.88.94-1.65,2.07-.84C93.43,68.75,92.59,68.68,91.84,68.79Z"/>
        <path class="cls-1" d="M47.37,8.56c.42-.32.82-.66,1.25-1,1.78-1.21,4.06-3.24,5.74-1.87a5.08,5.08,0,0,1,.93,6.77c-.32.5-.17,1.29-.24,1.94-3,1.08-6.55-.63-8.66-4.11l0-.28C47.05,9.74,47.81,9.53,47.37,8.56Z"/>
        <path class="cls-1" d="M5.6,14.05c.43-1.25.87-2.49,1.31-3.74,3.05-1.37,5.44.28,7.86,1.74C15.16,14.26,13.52,15,12,15.8,7.11,19.24,6.1,18,5.6,14.05Z"/>
        <path class="cls-1" d="M44.45,31.52c-1.12-.24-3,.34-2.77-1.46.17-1.57.59-3.56,3.1-3.43,1.76.1,3,.94,2.89,2.63S46,31.42,44.45,31.52Z"/>
        <path class="cls-1" d="M24.06,30.87c.63,4.21-2.67,3.1-4.81,3.55-.85-1.66-1.15-3.28.71-4.48C21.59,28.89,22.93,29.52,24.06,30.87Z"/>
        <path class="cls-1" d="M21.49,20.22c-2,1.68-3.12,2.7-4.31,3.64-.67.54-1.62.77-2.17.05s.23-1.45.73-2.06C17,20.33,18.6,20.13,21.49,20.22Z"/>
        <path class="cls-1" d="M43.05,18.13c2.48-1.43,6-.59,6.83,1.42a.6.6,0,0,1-.37.86,5,5,0,0,1-1.8.37C46.87,18.79,44.48,19.69,43.05,18.13Z"/>
        <path class="cls-1" d="M23.58,46.9c.89-.71,1.66-1.4,2.51-2,1-.69,2.07-1.16,1.94.85-.11,1.62.5,2.54,2.21,2.65a2.78,2.78,0,0,0,3-2.23c.59-2.26.88-3,2.75-.67s4.13,1.74,4.92-1.33c.16-.63,0-1.62.8-1.41a8.82,8.82,0,0,1,2.64,1.65c.77.55.47,1.13-.11,1.6a47.17,47.17,0,0,0-6.47,6.33c-1.51,1.77-4,1.41-5.94.23C29,50.87,26.4,48.87,23.58,46.9Z"/>
        <path class="cls-4" d="M60.39,21.09c-1.37-1.78-3-3.32-2.85-5.8a1.26,1.26,0,0,0-.33,0,1.26,1.26,0,0,1,.33,0,28.4,28.4,0,0,0-.68-8.59C55.71,2.75,55,2.29,51.15,3.79c-2.89,1.12-5.26,3.05-8,4.44-1.59.23-3.21.61-4.76,0-6.08-2.48-11.8-1.31-17.31,1.68a4.67,4.67,0,0,1-5,0c-3.1-1.7-6.63-1.82-10-2.35-2.34-.37-2.41,1-2.31,2.59l3.13.19c3.05-1.37,5.44.28,7.86,1.74C15.16,14.26,13.52,15,12,15.8c1.05.15,2,1,1.72,1.54C14,16.79,13.06,16,12,15.8,7.11,19.24,6.1,18,5.6,14.05c.43-1.25.87-2.49,1.31-3.74l-3.13-.19c0,1.67-.11,3.35-.16,5-.61,1.25-.89,2.24-.34,3.26l.5.36a1.63,1.63,0,0,0-.48.53c-.26.42-2.21,3.47,1,4.27-5,.82-2.19,5.9-1.61,9.88a2.2,2.2,0,0,0,.38,1l-.35,0c.13,2.13-1.05,4.63,1.69,6,.91,3.22,2.93,4.2,6.06,3a12.66,12.66,0,0,1,5.15-.69c1.08,0,2.3.12,2.58-1.3.36-1.84-1.25-1.67-2.28-2.07a17.71,17.71,0,0,0-6.73-1c-1,0-2.3,0-2.33-1-.05-1.64,1.53-1,2.48-1.12,2.07-.28,3.94.52,5.89,1,2.43.64,5,1.41,7.1-.91h0l3.73-2.54c6.52-1.72,13-3.12,19.45.34,1.93,1.05,3.3-.3,4.87-.88,3.5-1.3,6.95-3.12,11.83-1.42C58,33.28,54.79,34.3,51.54,35.34A1.67,1.67,0,0,0,50.15,37c0,1.27,1.09,1,1.7,1.19,2.86,1,5.83.47,8.76.43.9,0,1.38-.79,1.63-1.57C64.05,31.48,64.17,26,60.39,21.09ZM15,23.91c-.59-.78.23-1.45.73-2.06,1.23-1.52,2.86-1.72,5.75-1.63-2,1.68-3.12,2.7-4.31,3.64C16.51,24.4,15.56,24.63,15,23.91Zm4.24,10.51c-.37.31-.58.59-.5.79-.08-.2.13-.48.5-.79-.85-1.66-1.15-3.28.71-4.48,1.63-1.05,3-.42,4.1.93C24.69,35.08,21.39,34,19.25,34.42ZM45.77,8.81l.28-.11-.28.11a2.27,2.27,0,0,1-1.51.83A2.32,2.32,0,0,0,45.77,8.81ZM44.45,31.52c-1.12-.24-3,.34-2.77-1.46.17-1.57.59-3.56,3.1-3.43,1.76.1,3,.94,2.89,2.63S46,31.42,44.45,31.52Zm5.06-11.11a5,5,0,0,1-1.8.37c-.84-2-3.23-1.09-4.66-2.65,2.48-1.43,6-.59,6.83,1.42A.6.6,0,0,1,49.51,20.41Zm6-5.35a1.21,1.21,0,0,1-.48-.62c-3,1.08-6.55-.63-8.66-4.11C42.58,11,39,9.44,35.32,8.88c3.69.56,7.26,2.1,11.07,1.45l0-.28c0-.41-.08-.82-.11-1.23l1-.26c.42-.32.82-.66,1.25-1,1.78-1.21,4.06-3.24,5.74-1.87a5.08,5.08,0,0,1,.93,6.77c-.32.5-.17,1.29-.24,1.94A1.21,1.21,0,0,0,55.53,15.06Z"/>
        <path class="cls-4" d="M47.37,8.56c.44,1-.32,1.18-.93,1.49l-.11-1.23Z"/>
      </g>
    </g>
  </g>
</svg>
