<svg xmlns="http://www.w3.org/2000/svg" width="150.97" height="93.3" viewBox="0 0 150.97 93.3">
  <defs>
    <style>
      .cls-1 {
        fill: #050105;
      }

      .cls-2 {
        fill: #e0a546;
      }
    </style>
  </defs>
  <g id="Layer_2" data-name="Layer 2">
    <g id="Layer_1-2" data-name="Layer 1">
      <g>
        <path class="cls-1" d="M19.43,65.75c-3.59-.27-6.64-1.07-9.89-.52-3.09.53-6.44-2.66-6.9-5.85A35.81,35.81,0,0,0,1.17,52.8a20.3,20.3,0,0,1,4-20.27,145.18,145.18,0,0,0,12-15.33c2-3.09,5-4.54,8.39-5.63C30.58,9.93,34.38,6,39.35,3.88,45.49,1.22,51.82,1.45,58,.16c2.91-.61,5.55.73,8.35.87a3.5,3.5,0,0,1,2.74,2.15c1.7,3.9,4.54,7.72,2.85,12.28a7.46,7.46,0,0,1-5.85,4.73c-2.77.41-2.22,1.76-1.56,3.27,1,2.24,2.49,3.69,5.23,3.59,4.83-.17,9.67-.33,14.5-.19,3.8.11,7-1.64,10.31-2.86,7.76-2.82,15.21-2.82,22.28,2,3.53,2.42,3.82-1,4.85-2.86s.07-3.53-.52-5c-1.53-3.92.71-6.65,3-8.85a8.15,8.15,0,0,1,8.72-1.32c5,2,8.84,5.22,9.76,11a4.78,4.78,0,0,1-.55,3,7.24,7.24,0,0,0-.24,5.47c1.11,3.63-.53,7.86-3,10.48-2.85,3-5.12,6.58-7.64,9.91-1.66,2.21-.07,3.78,1.55,4.29,3.63,1.13,6.86,3.29,10.93,3.42,3.16.11,7.24.62,7.22,5.12,0,5.56.63,11.25-3.11,16.35-2.62,3.56-7.2,5.38-10.83,2.91-3-2.06-5.58-1.78-8.75,0-2.83,1.56-5.36,3.68-8.61,4.63-3.77,1.1-6.58,0-8.88-2.86-2.45-3-6-4.29-9.16-6.19-1.79-1.08-2.8,1.69-4.68,1.47-5.11-.61-10.3.87-15.44-1.4a8.19,8.19,0,0,0-9.3,1.77c-3.29,3.57-7.64,5.14-11.82,6.93a16.54,16.54,0,0,0-7.74,6.14,6.94,6.94,0,0,1-9.57,1.74,5.83,5.83,0,0,0-3.7-1,3.27,3.27,0,0,1-3-1.49c-2-6.45-7.61-6.49-12.7-7.72-4.56-1.1-6.2-5.19-7.85-8.93C14.37,69.69,17.07,67.86,19.43,65.75Zm87.31,7.12c2.11,3.74,5.38,6.42,8.85,8.68A3.16,3.16,0,0,0,120.23,80c.57-1.5,1.32-2,2.93-1.74A2.22,2.22,0,0,0,126,76.62c-1.7-1.11-3.33-2.21-5.41-2.25l-.08-1.67c6.22,2.35,13.08,2.51,19.11,5.6a3.26,3.26,0,0,0,3.11-.14c2.65-1.53,2.44-3.47.78-5.62,1.64-1.26,4.6-1.23,4.46-4.19a5.28,5.28,0,0,0-1.43-2.75c-.86-1-1-1.56,0-2.67,1.92-2.29.89-5.53-1.85-5.21-5.21.6-9.12-2.67-13.76-3.57-1.38-.27-3.74-1.12-3.38-2.73.62-2.78-.84-6.21,2.62-8.32,4.35-2.65,6-7.71,9.17-11.41a3.09,3.09,0,0,0,.07-2.73c-1.59-3.14-.57-6.2-.09-9.31a8,8,0,0,0-.18-2.79c-.66-3-2.49-5.81-5.37-6-3.12-.2-7.43-2.41-9.34,2.81a8.43,8.43,0,0,0-.06,5.3c1.62,6.61-1.48,11.36-7,11l0,.05a18.84,18.84,0,0,0-15.62-5.7c-1.91.75-4.26.33-5.79,2.11-3.21.77-5.8,4.94-5.42,8.72.23,2.19,1.1,4.54-.5,6.45-3.83,4.53-12.74,6.33-17.82,3.58-2.17-1.17-3.23-.7-4.27,1.44-1.64,3.37-2.65,4.23-5,5.24,2.8-4.22,2.8-4.22.68-8.3a.89.89,0,0,1,0-.78c1.59-1.8-2.05-6.34,3.24-6.23.21,0,.53-.56.63-.92.78-2.7-4.73-12.28-7.53-11.91-6.09.8-11.5-2.63-17.5-1.89-4.84.6-8.8-1.38-12.13-5-1.48-1.62-3.23-4.08-6-2.55S19,17.69,17.62,20.84,16,26.12,19.28,28.63a12.31,12.31,0,0,1,5.09,9c.27,4.07.4,8.31,4.48,10.9,1,.62.67,1.44.31,2.43-1.85,5-1.18,6.6,4,8.54A20.33,20.33,0,0,0,41.37,61c.46.75.94.89,1.48.07,3-.31,6.08.3,9-1.41,1.21-.72,2.94-.48,2.13,1.94-.33,1-.06,1.83,1.26,2,.68.07,1.73-.7,2,.45s-.6,1.75-1.51,2.11c-3.19,1.27-6,3.42-9.55,3.83.85-3.18,5-2,6.37-4.46-2.71-2.17-5-2.61-8.78-2.19-6.34.69-12.16,1.64-17.6,5.05-1.82,1.15-4.48,0-6.29,2-.55.59-1.28.88-1,1.8a1.55,1.55,0,0,0,1.72,1.35c1.13-.21,2.07-.64,2.17,1.15.24,4.24,3.1,4.53,6.38,4.06,1.86,4.54,6,3,9.33,3.36-1.15,4.93-.52,5.84,4.32,5.59,1-.06,1.14.58,1.32.94,1.67,3.31,4,2.15,6,.69,2.17-1.61,3.73-4.34,6.09-5.35a118.84,118.84,0,0,0,11.06-5.38c2.49-1.39,5.56-2.29,6.47-5.66.32-1.19,1.57-.67,2.45-.8,3.53-.51,6.32,1.81,9.55,2.47,7.08,1.43,13.67-.52,20.27-2.6Zm-86-7.46a16.94,16.94,0,0,0,7.51-1.35c1.21-.48,1.78-.88,1.8-2.15s-.81-1.64-1.58-2.13c-1.3-.8-2.16.27-2.67,1.06C24.59,62.75,22.77,64,20.76,65.41Z"/>
        <path class="cls-2" d="M147.94,68.35a5.28,5.28,0,0,0-1.43-2.75c-.86-1-1-1.56,0-2.67,1.92-2.29.89-5.53-1.85-5.21-5.21.6-9.12-2.67-13.76-3.57-1.38-.27-3.74-1.12-3.38-2.73.62-2.78-.84-6.21,2.62-8.32,4.35-2.65,6-7.71,9.17-11.41a3.09,3.09,0,0,0,.07-2.73c-1.59-3.14-.57-6.2-.09-9.31a8,8,0,0,0-.18-2.79c-.66-3-2.49-5.81-5.37-6-3.12-.2-7.43-2.41-9.34,2.81a8.43,8.43,0,0,0-.06,5.3c1.62,6.61-1.48,11.36-7,11h0a18.83,18.83,0,0,0-15.57-5.65c-1.91.75-4.26.33-5.79,2.11-3.21.77-5.8,4.94-5.42,8.72.23,2.19,1.1,4.54-.5,6.45-3.83,4.53-12.74,6.33-17.82,3.58-2.17-1.17-3.23-.7-4.27,1.44-1.64,3.37-2.65,4.23-5,5.24,2.8-4.22,2.8-4.22.68-8.3a.89.89,0,0,1,0-.78c1.59-1.8-2.05-6.34,3.24-6.23.21,0,.53-.56.63-.92.78-2.7-4.73-12.28-7.53-11.91-6.09.8-11.5-2.63-17.5-1.89-4.84.6-8.8-1.38-12.13-5-1.48-1.62-3.23-4.08-6-2.55S19,17.69,17.62,20.84,16,26.12,19.28,28.63a12.31,12.31,0,0,1,5.09,9c.27,4.07.4,8.31,4.48,10.9,1,.62.67,1.44.31,2.43-1.85,5-1.18,6.6,4,8.54A20.33,20.33,0,0,0,41.37,61c.46.75.94.89,1.48.07,3-.31,6.08.3,9-1.41,1.21-.72,2.94-.48,2.13,1.94-.33,1-.06,1.83,1.26,2,.68.07,1.73-.7,2,.45s-.6,1.75-1.51,2.11c-3.19,1.27-6,3.42-9.55,3.83.85-3.18,5-2,6.37-4.46-2.71-2.17-5-2.61-8.78-2.19-6.34.69-12.16,1.64-17.6,5.05-1.82,1.15-4.48,0-6.29,2-.55.59-1.28.88-1,1.8a1.55,1.55,0,0,0,1.72,1.35c1.13-.21,2.07-.64,2.17,1.15.24,4.24,3.1,4.53,6.38,4.06,1.86,4.54,6,3,9.33,3.36-1.15,4.93-.52,5.84,4.32,5.59,1-.06,1.14.58,1.32.94,1.67,3.31,4,2.15,6,.69,2.17-1.61,3.73-4.34,6.09-5.35a118.84,118.84,0,0,0,11.06-5.38c2.49-1.39,5.56-2.29,6.47-5.66.32-1.19,1.57-.67,2.45-.8,3.53-.51,6.32,1.81,9.55,2.47,7.08,1.43,13.67-.52,20.27-2.6h0l.87,1c2.11,3.74,5.38,6.42,8.85,8.68A3.16,3.16,0,0,0,120.23,80c.57-1.5,1.32-2,2.93-1.74A2.22,2.22,0,0,0,126,76.62c-1.7-1.11-3.33-2.21-5.41-2.25,0-.56-.06-1.11-.08-1.67,6.22,2.35,13.08,2.51,19.11,5.6a3.26,3.26,0,0,0,3.11-.14c2.65-1.53,2.44-3.47.78-5.62C145.12,71.28,148.08,71.31,147.94,68.35ZM32.79,39.48c-.21.92-1.33,1.41-2.79,1.28-1-.09-2-.44-1.72-1.67.36-1.86,2-1.32,3.21-1.45C32.29,37.55,33.15,37.56,32.79,39.48ZM56.1,58.16A4.36,4.36,0,0,1,59,56.43Zm2-8.59c-.58,2.73-2.93,3.91-5.06,4.55-2.34.7-5.26.67-4.48-3.42a6.85,6.85,0,0,0-.94-4.18c-.59-1.3-.89-2.16-3-1.11-4.19,2.05-7.21.63-8.79-3.15-1-2.42,1.24-7.1,5-8.67,2.34-1,2.66-2,2.24-4-.23-1.13-.66-2.44.8-3.19a1.11,1.11,0,0,1,1.45.28A2.38,2.38,0,0,1,45.29,30c-1.92,2-.81,2.69,1.11,3.2,2.66.71,4,2.33,3.82,5.17-.53,6.86,2.31,9.16,9.1,7.38A14.23,14.23,0,0,0,61.15,45,6.4,6.4,0,0,0,58.1,49.57Zm17.11,8.07c-2.19.67-3.46-.39-3.62-2.91-.13-2.09,3.25-4.88,6.23-4.95,2.36-.06,3,1.71,3.07,3.64C81,56.37,79.4,57.59,75.21,57.64Zm31-5.35c-1.53,2.22-3.63,4.36-7.11,4.36-2.43-1.27-5.56-.17-8.26-1.69-4.78-2.69-5.14-4-1.91-8.2,2.47-3.19,13.08-3.57,15.46-.36C105.58,48.07,107.62,50.17,106.16,52.29Zm-7-15.79c-1.67-3.21,1.07-7.9,4.82-8.06a24.73,24.73,0,0,1,9.49,1.07c1.12.4,2.36,1.39,3.73.56a36.29,36.29,0,0,0-.17,4.29c.22,3-1.13,4.91-3.71,6.31C108.6,43.24,101.69,41.27,99.21,36.5ZM117.61,51c-2.16,0-3.69-1.37-3.44-3.53.31-2.73,2.7-3.39,5-3.54,1.72-.12,3.52.13,3.65,2.43C122.27,49.41,120.51,51,117.61,51Z"/>
        <path class="cls-1" d="M61.15,45a6.4,6.4,0,0,0-3,4.58c-.58,2.73-2.93,3.91-5.06,4.55-2.34.7-5.26.67-4.48-3.42a6.85,6.85,0,0,0-.94-4.18c-.59-1.3-.89-2.16-3-1.11-4.19,2.05-7.2.63-8.79-3.15-1-2.42,1.24-7.1,5-8.67,2.34-1,2.66-2,2.24-4-.23-1.13-.66-2.44.8-3.19a1.11,1.11,0,0,1,1.45.28A2.38,2.38,0,0,1,45.29,30c-1.92,2-.81,2.69,1.11,3.2,2.66.71,4,2.33,3.82,5.17-.53,6.86,2.31,9.16,9.1,7.38A14.23,14.23,0,0,0,61.15,45Z"/>
        <path class="cls-1" d="M117.26,30a35.73,35.73,0,0,0-.18,4.38c.22,3-1.13,4.91-3.71,6.31-4.77,2.57-11.68.6-14.16-4.17-1.67-3.21,1.07-7.9,4.82-8.06a24.73,24.73,0,0,1,9.49,1.07c1.14.41,2.39,1.43,3.79.52Z"/>
        <path class="cls-1" d="M99.05,56.65c-2.43-1.27-5.56-.17-8.26-1.69-4.78-2.69-5.14-4-1.91-8.2,2.47-3.19,13.08-3.57,15.46-.36,1.24,1.67,3.28,3.77,1.82,5.89S102.53,56.65,99.05,56.65Z"/>
        <path class="cls-1" d="M75.21,57.64c-2.19.67-3.46-.39-3.62-2.91-.13-2.09,3.25-4.88,6.23-4.95,2.36-.06,3,1.71,3.07,3.64C81,56.37,79.4,57.59,75.21,57.64Z"/>
        <path class="cls-1" d="M122.82,46.36c-.55,3-2.31,4.65-5.21,4.64-2.16,0-3.69-1.37-3.44-3.53.31-2.73,2.7-3.39,5-3.54C120.89,43.81,122.69,44.06,122.82,46.36Z"/>
        <path class="cls-1" d="M32.79,39.48c-.21.92-1.33,1.41-2.79,1.28-1-.09-2-.44-1.72-1.67.36-1.86,2-1.32,3.21-1.45C32.29,37.55,33.15,37.56,32.79,39.48Z"/>
        <path class="cls-1" d="M56.1,58.16c1-1.72,3.14-1.44,3.64-2.21Z"/>
      </g>
    </g>
  </g>
</svg>
