<svg xmlns="http://www.w3.org/2000/svg" width="126.64" height="118.97" viewBox="0 0 126.64 118.97">
  <defs>
    <style>
      .cls-1 {
        fill: #8018fa;
      }

      .cls-2 {
        fill: #050105;
      }

      .cls-3 {
        fill: #58c955;
      }

      .cls-4 {
        fill: #fe94fe;
      }

      .cls-5 {
        fill: #fe77fe;
      }

      .cls-6 {
        fill: #03c6fd;
      }

      .cls-7 {
        fill: #fa0102;
      }

      .cls-8 {
        fill: #fefefe;
      }

      .cls-9 {
        fill: #90eea0;
      }

      .cls-10 {
        fill: #710020;
      }

      .cls-11 {
        fill: #2622f6;
      }

      .cls-12 {
        fill: #8640f4;
      }

      .cls-13 {
        fill: #5b1dee;
      }
    </style>
  </defs>
  <g id="Layer_2" data-name="Layer 2">
    <g id="Layer_1-2" data-name="Layer 1">
      <g>
        <path class="cls-1" d="M121.38,80.16c-5.13-1.43-9.49-4.71-14.7-6-1.39-.35-3.27-1.37-2.57-3.22.85-2.25,2.81-1.17,4.49-.77,3.26.76,5.55,3.9,9.27,3.59,1.15-.09,1.73-.38,1.84-1.5C122.27,74.48,120.72,77.55,121.38,80.16Z"/>
        <g>
          <path class="cls-2" d="M109.66,86l.25.12h.1Z"/>
          <path class="cls-2" d="M123.9,86.77c-3.31,2.12-6.46,5-10.61,1.66-1-.71-2-1.43-3-2.13a1.7,1.7,0,0,0-.35-.19c-3.19,0-5.56-2.17-8.33-3.29-.23-.09-.58-.45-.55-.51,1.08-1.92,2.19-3.83,3.31-5.73.72-1.21,1.62-1.06,2.72-.44a18.74,18.74,0,0,0,3.61,1.67c5.3,1.69,5.49,2.23,2.26,6.92a1.64,1.64,0,0,0,2.65-.62c1.5-4.77,4.11-2.38,6.57-1.18,1.23.67,2.44,1.88,3.71.1-.49-.42-1-.87-1.44-1.31l-.1-.1L122.91,81l-1-.54a.54.54,0,0,1-.56-.29c-5.13-1.43-9.49-4.71-14.7-6-1.39-.35-3.27-1.37-2.57-3.22.85-2.25,2.81-1.17,4.49-.78,3.26.77,5.55,3.91,9.27,3.6,1.15-.09,1.73-.38,1.84-1.5,4.1-3.18,6.71-6.82,4.19-12.3a4.71,4.71,0,0,1,.81-4.95c2.48-3.16,2.07-6.38.55-9.74s-3.76-6.12-2.42-10.21c.69-2.09.15-5.06-1.73-6.31-5.26-3.5-6-9.88-9.8-14.33-1.93-2.27-3.86-4-6.67-4.06a8.63,8.63,0,0,1-6.93-3.31c-2.66-3-5.71-4.82-10.16-4-2.53.47-5.34,1.44-8-.72a11.32,11.32,0,0,0-13.83,0,6.7,6.7,0,0,1-5.46,1.44c-4.32-.49-8.69-.63-11.48,3.77,1.09.69,1.89.28,2.81-.29-.92.57-1.72,1-2.81.29-2,1.51-2.17,3.13-.29,4.87l.09.15c.23.64.47,1.28.7,1.91,1.07,1.52,1.11,3.41,2.26,5,3.18,4.44,2.65,6.75-1.47,10.54A15.53,15.53,0,0,0,47,33.66c-1.27,2.19-3.49,3.31-5.14,5.05a4.15,4.15,0,0,1-4.51.75c-1.32-.45-.61-2.13-.59-3.28.08-3.92,2.6-6.69,5.06-9.15,4.83-4.85,4.18-9.82,2.55-13.13A13.67,13.67,0,0,0,29.91,6.12c-4.7.77-6.83,5-10.32,7.17-5.61,3.52-6.35,9.12-8,14.44-.33,1.06-1.07,2.4.22,3.33s1.88-.59,2.83-.9c1.38-.45,3-1.52,4.14-.34S19,32.61,18.66,34a8.77,8.77,0,0,1-1.06,2.15,12.14,12.14,0,0,0-.76,9.72c.78,2.21.34,3.62-.73,5.46-3.5,6-4.72,12.12-.92,18.66,2,3.53,5.34,5.76,7.9,8.73a18.32,18.32,0,0,1,5.26,3.17,29.06,29.06,0,0,0,11.07,7.61c3.56,1.38,6.51,4.15,10.26,5.33C53.14,95.93,53.54,97.4,51,100a7.68,7.68,0,0,1-4.63,2.11,51.4,51.4,0,0,0-8.2,1.68c-3.39,1.09-4.67,4-3.62,7.62s3.74,2.26,6,2a15.33,15.33,0,0,0,3.83-1.09c1.74-.66,3.72-.82,5.09.07,2.47,1.61,4.67,1,7.23.55,3.16-.54,6.89-2,9.34,1.26a22,22,0,0,0,3.23,3.37c.74.66,1.07,1.88,2.56,1.24a2.6,2.6,0,0,0,1.61-2.87c-.2-3.54,1.81-4.34,4.81-4.08a25.9,25.9,0,0,0,3.63,0c1.11-.07,2.62.48,2.9-1.31a2.8,2.8,0,0,0-2.19-3.35c-2.27-.74-4.38-1.86-7-1.72-1.75.1-3.93-.79-3.72-2.81.33-3.12-1.1-6.83,2.26-9.21.71-.51,1.46-.18,2.26.14,2.12.82,4.11,1.89,6.13,2.91,6,3,12,6.34,18.74,1.68,1.21-.83,3-.42,4.63.13,3,1,10.16-.85,11-3.13a6.59,6.59,0,0,1,4.55-4,14.47,14.47,0,0,0,4.25-2.85c.39-.68,1-1.46.27-2.13S124.5,86.39,123.9,86.77ZM18.1,24.35c-.2,2.38-2.25,2-3.7,2.52.82-1.42.66-3.5,2.66-3.88C17.8,22.85,18.15,23.71,18.1,24.35Zm63.21,84.77c-2.73.07-5.67,1.06-9.11-1.05C75.86,107.79,78.61,107.66,81.31,109.12ZM97.14,79.8c-1,0-2.74-.41-1.65-1.76,1.27-1.56-.86-5.33,3.15-4.91a3.24,3.24,0,0,1,3.23,3.27C100.78,78,99.66,79.88,97.14,79.8Zm-3.53,5.57c-3.11,1.57-6,2.72-8.5-.91A9.78,9.78,0,0,0,91.54,82c1.88-1.46,3.57-.79,4.36.62C96.94,84.49,94.92,84.72,93.61,85.37Zm2.34-19,6,2.27C98.64,71.65,97.83,71.41,96,66.36Zm6.17-3.51c-1.05,4.21-3.8,1.6-5.7,1.21-2.14-.44-4.23-1.78-3.32-4.47.64-1.94.87-4.53,4.24-4.28,5.88.43,7.45,2.57,5.33,6.47C102.69,62.24,102.67,62.68,102.12,62.85ZM91.79,35.47c-2.12-1.2-4.48-2.81-5-5.28A3,3,0,0,1,90,27c2,.08,5.33,3.19,5.37,6.21C95.36,34.56,92.21,35.71,91.79,35.47Zm5.75-.39a6.05,6.05,0,0,1,4,5.22c.13,3.63-3.67,3.2-5.75,3.42-3.1.32-2.39-3.23-2.62-4.82C92.83,36.31,96.23,36.61,97.54,35.08Zm2.78,18.6c-2.51-.31-5.63.22-4.93-4.23-1.26-4.47,2.76-4.2,5-4.33,3.43-.2,3.39,3.09,3.68,5.5C104.43,53.41,102.7,54,100.32,53.68Zm16.09,9.17c-1.31,2.06-1.34,5.19-4.65,5.59l-.11-.1c0,1.23-.65.66-1.17.41-.77-.17-1.54-.37-2.31-.53-3.24-.66-5.28-1.7-2.62-5.42.94-1.31.63-3.27.56-5,0-1.43.83-.85,1.45-.25l.34,0c2.73-.79,5.47-1.79,7.83.85l0,0C117.5,59.65,118.08,61.06,116.41,62.85Zm.18-20.29c3.21-1.46,6.91,1.61,7.27,6.06a8.67,8.67,0,0,1-1.59,5.63c-1.89,2-3.84,1.26-5.81.16-.82,1.44-2.11.81-3.27.75-.52,0-1-.07-1.56,0-4.06.29-6.15-1.11-4.8-5.51-1.59-5.42-1.57-5.34,4.22-6.77A12.11,12.11,0,0,1,116.59,42.56Zm-9.7-1.2c-3.59-1.31-4.09-5.15-6.19-7.67-.68-.81,1-2,2.09-2.49,1.92-.94,3.61-3.49,6-1.9A11.59,11.59,0,0,1,114,38.2C114.06,40.08,109.41,42.29,106.89,41.36ZM97.43,18.07c.1-2.31,1.1-4.37,3.36-4.7,2.49-.37,5.39-1.11,7.39,1.54a11.35,11.35,0,0,0,.64,1c4.07,4.61,4,5.67-.65,9.34a26.38,26.38,0,0,1-2.63,1.65c-1.89,1.27-3.62,3-5.7,3.68-2.9,1-2.93-2.68-4.69-3.89-4.18-2.9-4-3.11-.53-7.06C95.43,18.71,95.93,17.59,97.43,18.07ZM83,11.82c2.57-.73,5.08.29,7.56.56,2.93.32,2.87,5.26,0,8C89.28,22,88,22.84,86,21.18c-1.07-.87-2.61-1.16-3.93-1.71-.73-.21-1.92-.14-1.94-1C80.07,15.89,80.36,13.33,83,11.82ZM81.3,21.91c2.13.65,4.67,1.11,5,3.68.12,1-2.24,3.16-2.73,2.66-1.55-1.55-4.89-.8-5.07-3.72C78.4,22.93,79.46,21.84,81.3,21.91ZM70.72,3c2.4.16,4.93,0,7.2,1.21,3,2.15.65,4.25-.06,6.36a6.3,6.3,0,0,1,.31,5c-.13.5-.32,1.33-.6,1.39-3.29.62-6.56-.61-10-.09-1.07.17-2.53-2.38-2-4.47L65.52,8l0,0C65.47,4.49,67.46,2.78,70.72,3Zm5.15,20.84c-.38,1.43-1.74.65-2.7.53-.79-.09-1.55-.51-2.33-.52-1.9,0-3.16-.61-2.91-2.77s2-2.1,3.94-2.15a4.92,4.92,0,0,1,3.32,1.23C76.57,21.18,76.18,22.67,75.87,23.84Zm-16,.8c-1.77.78-3.38.45-3.56-1.58-.3-3.39,2.86-2.41,4.61-3a2.55,2.55,0,0,1,3.66,2C65,23.77,64.46,24.06,59.92,24.64ZM52,13.47c3.26-2.91,6.93-3.35,10.94-1.86h0a24.66,24.66,0,0,1,1,3.31c.32,2-.12,3.39-2.66,3.08a11.38,11.38,0,0,0-3.54.17C53.13,19.1,52.25,18.41,52,13.47ZM22.51,53.93c-1.92,3.09-2,6.48-2.24,9.9s1.26,6.41,1.64,9.83C14.15,68.24,14.44,59,18.12,52.27a1.82,1.82,0,0,1,2.74-.74C21.72,52.06,23.18,52.86,22.51,53.93Zm-2.14-15.4c1-2,1.9-4,2.85-6A25,25,0,0,0,20.87,22c-.52-1-.76-2.13.48-2.78,1.08-.56,1.67.48,2.36,1C25.87,22,27.39,24,26.79,27.05c-.57,2.95.92,6.1-.81,9-.06,1.46-.09,2.93-.21,4.39-.15,2,1,2.21,2.52,2,.18-3,.36-6.09.55-9.14a4.1,4.1,0,0,1,.2-1.17c1.76-4.36,1.59-4.28,1-5.82-1.05-2.6-1.85-5.33-3.8-7.41-4.37-4.7-3.53-8.25,2.5-10.17a11.62,11.62,0,0,1,11.93,3.67c3,4,3.13,8.18.23,12.42-1.36,2-3.1,3.71-4.39,5.73-2.3,3.6-3.73,7.45-1.47,11.65a7.66,7.66,0,0,1,.48,2.72c.3,1.86-.39,3.24-2.16,3.78s-1.94-1.36-2.7-2.3c-.5-.62-.88-1.33-1.32-2-1.44.69-1.19,2-1,3.16C28.7,51,26.6,51,24.4,50.11,20.39,48.51,18.43,42.53,20.37,38.53Zm30.1,70.79a95.37,95.37,0,0,1-10.31.92c3.09-2.55,7.92-1,10.93-5.5-4.67.76-8.48,2.81-12.71,2.22-.11-1.49,1.12-1.55,2.06-1.78,1.55-.37,3.12-.68,4.7-.9,4.87-.69,9.65-1.45,10.6-8,1.31,3.56-.22,7,.53,10.38C56.37,107.15,52.59,108.92,50.47,109.32Zm19.85,5.8c-2.9-8.6-9.15-5.15-14.74-4.14-.37.07-.79-.09-1.57-.6,6.5-1.39,12.48-3.32,14.41-10.09-.18,5.19,3,9.75,2.8,14.64A8.24,8.24,0,0,1,70.32,115.12Zm-5.66-17c-.71,1.42,1,4.34-2.46,4.16-1.33-.07-3.44.24-3.09-2s1-4.64,4.35-4.37C65.35,96,64.57,97.16,64.66,98.13Zm4.86-10.54c-1.38-.71-2.73-1.5-4.09-2.26-.89.92-2.18-2.42-2.9.27l-.06.17a1.85,1.85,0,0,1,1.76,1.07c1.94.83,3.94,1.56,5.82,2.51,1.19.61,3.11,1.17,2.15,3.09a3.77,3.77,0,0,1-5,2.11C65.05,93.8,64,91.89,62.81,90c-1.36,3.87-6.69,5.39-11.91,3.51C46,91.73,41.65,89,37.2,86.35c-1.91-.63-3.71-1.4-4.58-3.42l-.19-.15c-1-.56-2.7-.22-2.87-2l0,0h0c-.53-2.44-2.22-4.15-3.69-6-3.32-5.63-3.68-15.09.28-19.25,1.95-2.05,4.92-3.32,7.64-4.41A6.13,6.13,0,0,0,38,45.17c.09-1.24-.52-2.65,1.53-3.1,4-.9,6.62-4,8.79-7.11,6.72-9.8,24.34-10.3,32.94-5.1C91,35.79,93.19,46.79,92.05,55.31c-.24,1.82-.69,4.5-3.84,4l-.81.94c1,1,2.58,1.51,3.21,3l.07,0c5.26,4,5.15,14.49-1.76,17.91-1.35.66-4.06.45-3.86,3.21-2.16-.87-4.33-1.76-6.35.31C76.49,88.58,73.37,89.57,69.52,87.59Zm10.79,4c-1.62.07-2.7.21-3.19-.77-.68-1.36.74-1.27,1.36-1.79.78-.67,1.21-1.76,2-2.36,1.31-1,2.53,0,3.59.68.72.48,1.79,1,1.54,2.13C85.28,91,83.84,90.81,82.7,91S80.67,91.54,80.31,91.63Zm17.24,5.09c-.85,2.19-3.45,1.52-5.37,1.17a27.24,27.24,0,0,1-4.11-1.39C86.85,95.31,84,97,83.8,94.21c-.08-1.27,5.81-3.74,7.13-3a28.56,28.56,0,0,1,3.23,2.38C94.86,95.17,98.59,94.05,97.55,96.72Zm9.7-4c-1.21,2.41-3.65,1.39-5.57,1.22a17.08,17.08,0,0,1-4-1.35c-1.23.2-1.85-.85-2.76-1.33-2.76-1.46-2.63-2.65.24-3.72.49-.18,1.16-.31,1.41-.68,2.72-4.08,5.43-1.82,8.15,0C107.56,87.9,108.63,90,107.25,92.69Z"/>
        </g>
        <path class="cls-3" d="M124.42,81.72l-.1-.1Z"/>
        <path class="cls-4" d="M0,60.17l.15-.28L0,60.15Z"/>
        <path class="cls-1" d="M122.91,81l-1-.54Z"/>
        <path class="cls-5" d="M28.29,42.37c.18-3,.36-6.09.55-9.14a4.1,4.1,0,0,1,.2-1.17c1.76-4.36,1.59-4.28,1-5.82-1.05-2.6-1.85-5.33-3.8-7.41-4.37-4.7-3.53-8.25,2.5-10.17a11.62,11.62,0,0,1,11.93,3.67c3,4,3.13,8.18.23,12.42-1.36,2-3.1,3.71-4.39,5.73-2.3,3.6-3.73,7.45-1.47,11.65a7.66,7.66,0,0,1,.48,2.72c.3,1.86-.39,3.24-2.16,3.78s-1.94-1.36-2.7-2.3c-.5-.62-.88-1.33-1.32-2Zm7.79-24.92c-.22-1.31-.45-3.19-2.71-3.28-1.68-.06-3.44.62-3.39,2.56a2.93,2.93,0,0,0,3.42,3C34.38,19.6,36.39,20.16,36.08,17.45Z"/>
        <path class="cls-3" d="M97.43,18.07c.1-2.31,1.1-4.37,3.36-4.7,2.49-.37,5.39-1.11,7.39,1.54a11.35,11.35,0,0,0,.64,1c4.07,4.61,4,5.67-.65,9.34a26.38,26.38,0,0,1-2.63,1.65c-1.64-1.43.57-4.61-2.31-5.37C100.92,20.92,99.45,19.07,97.43,18.07Z"/>
        <path class="cls-6" d="M114,38.2c0,1.88-4.62,4.09-7.14,3.16-3.59-1.31-4.09-5.15-6.19-7.67-.68-.81,1-2,2.09-2.49,1.92-.94,3.61-3.49,6-1.9A11.59,11.59,0,0,1,114,38.2Z"/>
        <path class="cls-7" d="M28.29,42.37l1,2c-1.44.69-1.19,2-1,3.16C28.7,51,26.6,51,24.4,50.11c-4-1.6-6-7.58-4-11.58,1-2,1.9-4,2.85-6C25.37,32.72,26.1,34,26,36c-.06,1.46-.09,2.93-.21,4.39C25.62,42.39,26.75,42.62,28.29,42.37Z"/>
        <path class="cls-4" d="M97.43,18.07c2,1,3.49,2.85,5.8,3.46,2.88.76.67,3.94,2.31,5.37-1.89,1.27-3.62,3-5.7,3.68-2.9,1-2.93-2.68-4.69-3.89-4.18-2.9-4-3.11-.53-7.06C95.43,18.71,95.93,17.59,97.43,18.07Z"/>
        <path class="cls-8" d="M21.91,73.66C14.15,68.24,14.44,59,18.12,52.27a1.82,1.82,0,0,1,2.74-.74c.86.53,2.32,1.33,1.65,2.4-1.92,3.09-2,6.48-2.24,9.9S21.53,70.24,21.91,73.66Z"/>
        <path class="cls-4" d="M110,86.12c-3.24,0-5.64-2.17-8.43-3.3-.23-.09-.58-.45-.55-.51,1.08-1.92,2.19-3.83,3.31-5.73.72-1.21,1.62-1.06,2.72-.44a18.74,18.74,0,0,0,3.61,1.67c5.3,1.69,5.49,2.23,2.27,6.92C112.43,86.17,111.27,86.25,110,86.12Z"/>
        <path class="cls-4" d="M77.84,10.55a6.27,6.27,0,0,1,.33,5c-.13.5-.32,1.33-.6,1.39-3.29.62-6.56-.61-10-.09-1.07.17-2.53-2.38-2-4.47,1-.58.17-1.76.83-2.44C70.36,8.4,74.17,8.23,77.84,10.55Z"/>
        <path class="cls-4" d="M40.16,110.24c3.09-2.55,7.92-1,10.93-5.5-4.67.76-8.48,2.81-12.71,2.22-.11-1.49,1.12-1.55,2.06-1.78,1.55-.37,3.12-.68,4.7-.9,4.87-.69,9.65-1.45,10.6-8,1.31,3.56-.22,7,.53,10.38.1.45-3.68,2.22-5.8,2.62A95.37,95.37,0,0,1,40.16,110.24Z"/>
        <path class="cls-6" d="M52,13.47c3.26-2.91,6.93-3.35,10.94-1.86a24.66,24.66,0,0,1,1,3.31c.32,2-.12,3.39-2.66,3.08a11.38,11.38,0,0,0-3.54.17C53.13,19.1,52.25,18.41,52,13.47Z"/>
        <path class="cls-9" d="M97.67,92.56c-1.23.2-1.85-.85-2.76-1.33-2.76-1.46-2.63-2.65.24-3.72.49-.18,1.16-.31,1.41-.68,2.72-4.08,5.43-1.82,8.15,0,1.39,1.67,1.36,2.75-.87,3.85A13.94,13.94,0,0,1,97.67,92.56Z"/>
        <path class="cls-4" d="M71.22,114.93a8.24,8.24,0,0,1-.9.19c-2.9-8.6-9.15-5.15-14.74-4.14-.37.07-.79-.09-1.57-.6,7.43-1.59,14.19-3.89,15-13.32C66.79,103.65,71.48,109.05,71.22,114.93Z"/>
        <path class="cls-10" d="M26,36c.12-2-.61-3.3-2.76-3.48A25,25,0,0,0,20.87,22c-.52-1-.76-2.13.48-2.78,1.08-.56,1.67.48,2.36,1C25.87,22,27.39,24,26.79,27.05,26.22,30,27.71,33.15,26,36Z"/>
        <path class="cls-8" d="M97.54,35.08a6.05,6.05,0,0,1,4,5.22c.13,3.63-3.67,3.2-5.75,3.42-3.1.32-2.39-3.23-2.62-4.82C92.83,36.31,96.23,36.61,97.54,35.08Z"/>
        <path class="cls-2" d="M62.53,85.6c-4.26,1.82-6.06-2.2-8.74-3.89-1.52-1-2.44-2.89-3.63-4.37.36,0,1,.15,1,0,.47-.89-.73-1.17-.78-1.91l1.36.06c3,2.63,5.78,5.49,10,6.35,1.74.36,2.91,1.85,3.71,3.47C64.54,86.25,63.25,82.91,62.53,85.6Z"/>
        <path class="cls-8" d="M95.39,33.17c0,1.39-3.18,2.54-3.6,2.3-2.12-1.2-4.48-2.81-5-5.28A3,3,0,0,1,90,27C92,27,95.35,30.15,95.39,33.17Z"/>
        <path class="cls-8" d="M71.87,18.93a4.92,4.92,0,0,1,3.32,1.23c1.38,1,1,2.51.68,3.68-.38,1.43-1.74.65-2.7.53-.79-.09-1.55-.51-2.33-.52-1.9,0-3.16-.61-2.91-2.77S69.92,19,71.87,18.93Z"/>
        <path class="cls-4" d="M59.92,24.64c-1.77.78-3.38.45-3.56-1.58-.3-3.39,2.86-2.41,4.61-3a2.55,2.55,0,0,1,3.66,2C65,23.77,64.46,24.06,59.92,24.64Z"/>
        <path class="cls-4" d="M88.07,96.5C86.85,95.31,84,97,83.8,94.21c-.08-1.27,5.81-3.74,7.13-3a28.56,28.56,0,0,1,3.23,2.38,13.37,13.37,0,0,1-4.91,1.81c-.42.35-1.2.32-1.17,1.13Z"/>
        <path class="cls-8" d="M85.06,84.46A9.74,9.74,0,0,0,91.54,82c1.88-1.46,3.57-.79,4.36.62,1,1.87-1,2.1-2.29,2.75-3.12,1.57-6,2.74-8.53-1Z"/>
        <path class="cls-8" d="M81.3,21.91c2.13.65,4.67,1.11,5,3.68.12,1-2.24,3.16-2.73,2.66-1.55-1.55-4.89-.8-5.07-3.72C78.4,22.93,79.46,21.84,81.3,21.91Z"/>
        <path class="cls-9" d="M125.86,83c-1.27,1.78-2.48.57-3.71-.1-2.46-1.2-5.07-3.59-6.57,1.18a1.63,1.63,0,0,1-2.64.62c-.51,1.44-1.67,1.52-2.93,1.39l-.35-.13a4.25,4.25,0,0,1,.6.31c1,.7,2,1.42,3,2.13,4.15,3.38,7.3.46,10.61-1.66.6-.38,1.31-1.28,2.11-.58s.12,1.45-.27,2.13C127.14,86.59,126.67,84.83,125.86,83Z"/>
        <path class="cls-9" d="M89.25,95.38a13.37,13.37,0,0,0,4.91-1.81c.7,1.6,4.43.48,3.39,3.15-.85,2.19-3.45,1.52-5.37,1.17a27.24,27.24,0,0,1-4.11-1.39h0c.85.59,1.91.62,2.35-.2S89.82,95.5,89.25,95.38Z"/>
        <path class="cls-8" d="M101.87,76.4c-1.09,1.62-2.21,3.48-4.73,3.4-1,0-2.74-.41-1.65-1.76,1.27-1.56-.86-5.33,3.15-4.91A3.24,3.24,0,0,1,101.87,76.4Z"/>
        <path class="cls-8" d="M80.31,91.63c-1.62.07-2.7.21-3.19-.77-.68-1.36.74-1.27,1.36-1.79.78-.67,1.21-1.76,2-2.36,1.31-1,2.53,0,3.59.68.72.48,1.79,1,1.54,2.13C85.28,91,83.84,90.81,82.7,91S80.67,91.54,80.31,91.63Z"/>
        <path class="cls-11" d="M97.67,92.56a13.94,13.94,0,0,0,6.17-1.93c2.23-1.1,2.26-2.18.87-3.85,2.85,1.12,3.92,3.17,2.54,5.91-1.21,2.41-3.65,1.39-5.57,1.22A17.08,17.08,0,0,1,97.67,92.56Z"/>
        <path class="cls-1" d="M64.66,98.13c-.71,1.42,1,4.34-2.46,4.16-1.33-.07-3.44.24-3.09-2s1-4.64,4.35-4.37C65.35,96,64.57,97.16,64.66,98.13Z"/>
        <path class="cls-5" d="M116.31,52.93a8.79,8.79,0,0,0-.17-7.42c-2.18-1.34-.89-2.15.45-2.95a12.11,12.11,0,0,0-5.54.28c-5.79,1.43-5.81,1.35-4.22,6.77-1.35,4.4.74,5.8,4.8,5.51.51,0,1,0,1.56,0,1.16.06,2.45.69,3.26-.77C115.5,54,115.9,53.46,116.31,52.93Z"/>
        <path class="cls-6" d="M90.53,12.38c-2.48-.27-5-1.29-7.56-.56-2.61,1.51-2.9,4.07-2.84,6.66,0,.85,1.21.78,1.94,1l.13.05L82,19.41c.25-1.29.11-2.68.72-3.87-.61,1.19-.47,2.58-.72,3.87l.21.11h0a4.46,4.46,0,0,0,1.07.39h0a4.63,4.63,0,0,0,.65.1,4.63,4.63,0,0,1-.65-.1A8.46,8.46,0,0,1,86,21.18c2,1.66,3.28.77,4.54-.84C93.4,17.64,93.46,12.7,90.53,12.38Z"/>
        <path class="cls-8" d="M96,66.36l6,2.27C98.64,71.65,97.83,71.41,96,66.36Z"/>
        <path class="cls-4" d="M81.31,109.12c-2.73.07-5.67,1.06-9.11-1.05C75.86,107.79,78.61,107.66,81.31,109.12Z"/>
        <path class="cls-2" d="M114.42,58.69l0,0c-2.29.46-4.29-.87-6.47-1.09,2.73-.79,5.47-1.79,7.83.85Z"/>
        <path class="cls-4" d="M14.4,26.87c.82-1.42.66-3.5,2.66-3.88.74-.14,1.09.72,1,1.36C17.9,26.73,15.85,26.33,14.4,26.87Z"/>
        <path class="cls-6" d="M115.68,58.44l0,0-1.31.27,0,0h0c-2.29.46-4.29-.87-6.47-1.09l-.34,0c-.62-.6-1.5-1.18-1.45.25.07,1.74.38,3.7-.56,5-2.66,3.72-.62,4.76,2.62,5.42.77.16,1.54.36,2.31.53l1.17-.41.11.1c3.31-.4,3.34-3.53,4.65-5.59C115.42,61.5,116,59.9,115.68,58.44Zm-5.41,1.23h0Zm.89-.07h0Zm2-.6c-.45.15-.9.3-1.34.43C112.31,59.3,112.76,59.15,113.21,59Z"/>
        <path class="cls-2" d="M116.41,62.85c-1-1.35-.45-3-.73-4.41C117.5,59.65,118.08,61.06,116.41,62.85Z"/>
        <path class="cls-9" d="M77.91,4.2c-2.26-1.15-4.79-1-7.19-1.2-3.26-.22-5.25,1.49-5.22,5l0,0,.12,4.34c1-.58.17-1.76.83-2.44,3.89-1.54,7.7-1.71,11.38.62C78.57,8.46,80.92,6.36,77.91,4.2Z"/>
        <path class="cls-8" d="M102.67,61.78c0,.46,0,.9-.55,1.07l-.26-.26.78-.84Z"/>
        <path class="cls-6" d="M110.48,68.75l1.17-.41C111.64,69.57,111,69,110.48,68.75Z"/>
        <path class="cls-2" d="M50.4,75.45c.05.74,1.25,1,.78,1.91-.07.13-.66,0-1,0L42.26,69c-.27-1,.28-2.47-1.46-2.69l0-.22C40,62,39.42,57.78,40.49,53.5c.78,3.68-.32,7.74,2.36,11C42.72,69.94,47.45,72.09,50.4,75.45Z"/>
        <g>
          <path class="cls-12" d="M85.08,84.42h0s0,0,0,0Z"/>
          <path class="cls-12" d="M90.68,63.29l-.07,0c-.63-1.47-2.16-2-3.21-3h0l.81-.94-.73-.45.73.45c3.15.46,3.6-2.22,3.84-4,1.14-8.52-1-19.52-10.8-25.45-8.6-5.2-26.22-4.7-32.94,5.1-2.17,3.16-4.74,6.21-8.79,7.11-2.05.45-1.44,1.86-1.53,3.1a6.13,6.13,0,0,1-4.25,5.88c-2.72,1.09-5.69,2.36-7.64,4.41-4,4.16-3.6,13.62-.28,19.25,1.47,1.86,3.16,3.58,3.69,6l0,0a5.51,5.51,0,0,0,1.67.2,5.51,5.51,0,0,1-1.67-.2c.17,1.8,1.83,1.46,2.88,2a2.65,2.65,0,0,0,0-1.09,2.65,2.65,0,0,1,0,1.09l.18.15c2.12.35,4.07.92,4.58,3.42C41.65,89,46,91.73,50.9,93.49c5.22,1.88,10.55.36,11.91-3.51,1.23,1.91,2.24,3.82,4.38,4.57a3.77,3.77,0,0,0,5-2.11c1-1.92-1-2.48-2.15-3.09-1.88-.95-3.88-1.68-5.82-2.51a1.85,1.85,0,0,0-1.76-1.07l.06-.17c-4.26,1.82-6.06-2.2-8.74-3.89-1.52-1-2.44-2.89-3.63-4.38L42.26,69a2.63,2.63,0,0,1-1.46-2.69l0-.22h0C40,62,39.42,57.78,40.49,53.5c.78,3.68-.32,7.74,2.36,11-.13,5.48,4.6,7.63,7.55,11l1.36.06a16.69,16.69,0,0,1-2-3.05,16.69,16.69,0,0,0,2,3.05c3,2.63,5.78,5.49,10,6.35,1.74.36,2.91,1.85,3.71,3.47,1.36.76,2.71,1.55,4.09,2.26,3.85,2,7,1,9.19-2.87,2-2.07,4.18-1.18,6.35-.31-.2-2.76,2.51-2.55,3.86-3.21C95.83,77.78,95.94,67.31,90.68,63.29ZM42,53.21c-.11-.81-.71-1-1.43-1.06h0c.72,0,1.32.25,1.43,1.06a9.63,9.63,0,0,0,.56,2.07A9.63,9.63,0,0,1,42,53.21Zm1,8.49s0,.11-.07.16,0-.11.07-.16a4.22,4.22,0,0,0,.38-.81A4.22,4.22,0,0,1,43,61.7Zm6.6-.87h0c.54-.27,1.19-.5,1.8-.73A18.53,18.53,0,0,0,49.55,60.83Zm32.72-2.55a1,1,0,0,0,.39.71A1,1,0,0,1,82.27,58.28Zm2.6,1.9a3,3,0,0,0-1.26-.72,3,3,0,0,1,1.26.72ZM85,58.41l-.27.26c.05.49.11,1,.17,1.46h0l-.17-1.46c-.29-.18-.69-.35-.18-.71,0,0,.29.29.45.45a2.46,2.46,0,0,1,.45-.07A2.46,2.46,0,0,0,85,58.41Z"/>
          <path class="cls-12" d="M32.62,82.94c.87,2,2.67,2.78,4.58,3.41C36.69,83.85,34.74,83.28,32.62,82.94Z"/>
        </g>
        <path class="cls-2" d="M40.8,66.34C42.54,66.56,42,68,42.26,69A2.63,2.63,0,0,1,40.8,66.34Z"/>
        <path class="cls-13" d="M84.74,58.67c-.29-.18-.69-.35-.18-.71,0,0,.29.29.45.45Z"/>
        <path class="cls-2" d="M36.08,17.45c.31,2.71-1.7,2.15-2.68,2.28a2.93,2.93,0,0,1-3.42-3c-.05-1.94,1.71-2.62,3.39-2.56C35.63,14.26,35.86,16.14,36.08,17.45Z"/>
        <path class="cls-3" d="M123.86,48.62c-.36-4.45-4.06-7.52-7.27-6.06-1.34.8-2.63,1.61-.45,3h0a8.75,8.75,0,0,1,.17,7.4c-.41.54-.81,1.07.14,1.48,2,1.11,3.93,1.79,5.82-.15A8.67,8.67,0,0,0,123.86,48.62Z"/>
        <path class="cls-8" d="M97.34,55.31c-3.37-.25-3.6,2.34-4.24,4.28-.91,2.69,1.18,4,3.32,4.47,1.9.39,4.65,3,5.7-1.21l-.26-.26.78-.84,0,0C104.79,57.88,103.22,55.74,97.34,55.31Z"/>
        <path class="cls-8" d="M104.1,50.62c-.29-2.42-.25-5.7-3.68-5.5-2.27.13-6.29-.14-5,4.33-.7,4.45,2.42,3.92,4.93,4.23S104.43,53.41,104.1,50.62Z"/>
        <path class="cls-2" d="M89.25,95.38c.57.12,1.61.13,1.18.93s-1.5.79-2.35.2C88.05,95.7,88.83,95.73,89.25,95.38Z"/>
      </g>
    </g>
  </g>
</svg>
