<svg xmlns="http://www.w3.org/2000/svg" width="148.73" height="132.3" viewBox="0 0 148.73 132.3">
  <defs>
    <style>
      .cls-1 {
        fill: #fddf8d;
      }

      .cls-2 {
        fill: #710020;
      }

      .cls-3 {
        fill: #8018fa;
      }

      .cls-4 {
        fill: #050105;
      }

      .cls-5 {
        fill: #2622f6;
      }

      .cls-6 {
        fill: #fefefe;
      }

      .cls-7 {
        fill: #fd6601;
      }
    </style>
  </defs>
  <g id="Layer_2" data-name="Layer 2">
    <g id="Layer_1-2" data-name="Layer 1">
      <g>
        <path class="cls-1" d="M96.87,44.75c-1.48,1.47.56,2.19.71,3.32-3.5-1-7.06-1.86-10.45-3.14a5,5,0,0,1-3-3.68C88.9,40.71,93,42.41,96.87,44.75Z"/>
        <path class="cls-2" d="M94.35,39.85c3,0,5.22-.61,7.23.36,1,.46,2.78.81,2.15,2.34-.42,1-1.91.65-2.92.21C98.9,41.93,97,41.05,94.35,39.85Z"/>
        <path class="cls-1" d="M110.34,44.54c-1.22-.28-2.61.47-3.67-.66.94-.77.88-2.91,2.61-2.39C110.52,41.86,110.65,43.28,110.34,44.54Z"/>
        <path class="cls-3" d="M112.09.18,111.74,0l.35.18Z"/>
        <g>
          <path class="cls-4" d="M86.3,36.57c2.27,0,4.55-.08,6.83-.08,5,0,10.15-.43,14.83,1.54a13.39,13.39,0,0,0,10.73,0c3.92-1.56,8.09-.95,11.85-.15,2.88.61,5.43,3.2,7.4,5.84A32.51,32.51,0,0,1,142,51.88c-.36,4.48.72,9-1.07,13.44-2.56,6.33-4.06,12.84-2.12,19.7.27,1-.36,1.73-.9,2.55-2.31,3.51-7.27,5-13,3.71-1.24-.28-2.76-1.42-3.46.42s-1.84,3.2-2.53,4.88c-1.74,4.22,2.24,9.92,6.81,9.94s7-2.69,6.51-8c-.3-3.6,1.38-5.22,4.39-5.24s5.88,1.27,7.12,4.29a14.63,14.63,0,0,0,3.12,4.55c2.74,2.91,2.41,3.74-1,6.09-2.39,1.65-5.69.92-7.66,3.26-5.94,7-13.94,9.22-22.53,8.34-3.73-.38-5.81.32-7.59,3.21-2.64,2.75-5.41,4.72-9.68,3.93-4.92-.9-9,1.71-13.39,3.63-6,2.64-12.44,2-18.62.22-1.31-.37-2.48-1.77-3.39-3.22-3-4.88-3.64-4.77-8.47-1.51-5.52,3.74-11.44,5.42-18.18,3.16-3.09-1-7-.59-7.52-5a20.06,20.06,0,0,1,.37-7.55,22.79,22.79,0,0,0-.52-15,4.33,4.33,0,0,0-2.3-2.48,11.6,11.6,0,0,1-5.77-5.8c-.76-1.87-2-2-3.51-1.66-8,2-15.82-4.2-17.07-11.06C-.4,78,1.42,76.1,1.32,73.69c0-.57.92-1.24,1.85-1.27,1.35,0,1.22,1,1.66,1.83,1.13,2,1.72,4.59,3.7,5.81,2.85,1.75,6.05,2.91,8.16-1.29,2-2.2.18-5,1.09-7.33l-.13,0c.91-1,.87-2.27,1-3.49l-.17-.15c.27-2.18,3.14-3.44,2.15-6.07,4.53-6.33,9-12.82,15.75-17a49.65,49.65,0,0,1,24.21-7.34c5.93-.23,11.85-1.3,17.81,1.11C80.56,39.34,84,38.69,86.3,36.57ZM54.55,76.8c-5.25-.9-10.54-.63-15.82-.53-2.55-3.66-1.28-8-1.94-11.92-.25-5,2.68-9.49,2.52-14.68-1.27.58-2.14.88-2.47,2.19-1.16,4.72-3.08,9.32-3.62,14.09s-1.61,9.62.54,14.3c2.52,1.46,5.24.66,7.88.7,4.59,1.48,9.3.8,14,.82,1.57,0,3.16,0,4.72.1,3.51.33,4.06-1.21,2.73-4.07C60.51,75,57.29,78,54.55,76.8Zm51.63-16.9c2.92-2.32,2.75-3.58-.76-5.43-2.69-.64-4.51.68-4.25,3.16C101.46,60.32,103.92,60.39,106.18,59.9ZM96.87,44.75c-3.9-2.34-8-4-12.73-3.5a5,5,0,0,0,3,3.68c3.39,1.28,7,2.12,10.45,3.14,1.08.71,2.12,1.51,3.25,2.13,4.6,2.54,9.14-.18,9.51-5.66.31-1.26.18-2.68-1.06-3-1.73-.52-1.67,1.62-2.6,2.38C103.05,48.27,103.05,48.27,96.87,44.75Zm-47,58.91c3.4.54,7,2,10.18.52,2.13-1,2.94-.29,3,1.17.19,5.51,3.68,10.44,2.42,16.26-.46,2.09,1.1,6.4,2.79,5.36a25.49,25.49,0,0,1,11-4c1.85-.22,3.84-2,6.15-2.11s3.48-1.34,3.59-3.9a29.73,29.73,0,0,0-4.32-16.72c-.36-.63-1.31-1-.72-2,1.73-3.1,6.41-4.25,5.88-8.87a3.48,3.48,0,0,1,1.46-.17c3.06,1,5.19-.19,6.69-2.93.84,1.44.13,2.47-.55,3.45a13.18,13.18,0,0,0-1.12,13.64c.34.78,1,1.9.21,2.6a2.09,2.09,0,0,1-2.89-.27c-.69-.76-1.2-1.47-2.29-.78a2.25,2.25,0,0,0-.73,2.89,10.27,10.27,0,0,1,.64,4.28c0,2.15-.81,4.77.14,6.33,1.35,2.22,4.07-.55,6.2.25a2.11,2.11,0,0,0,1.57.08c1.2-.71,2.74-1.36,3.31-2.47.88-1.7-1.23-2-2.12-2.81a15.91,15.91,0,0,1-1.75-1.62,1.1,1.1,0,0,1,.23-1.73,1,1,0,0,1,1.44.22c2.39,3.13,6.19,3.89,9.4,5.6,6.87,3.65,20,1.56,25.46-3.89,1.24-1.22,2.12-2.64,1.57-4.29-1.05-3.1,1.45-5.66,1-8.63a.78.78,0,0,1,1-.89c.41.13.72.66,1,1,.75,1,.31,3.36,2.79,2.19a26.47,26.47,0,0,0-1.65-4,3.77,3.77,0,0,0-3.79-1.82,2,2,0,0,0-2,2.54c.85,3.18-.77,5.31-2.56,7.5-.38.46-1.13.92-.53,1.7,1.85,2.36-.21,1.94-1.44,2-2.94.1-5.94-.69-8.07,2.69-1,1.55-1.46-.16-1.57-1.29-.53-5.62-4.38-7.59-9.38-4.89-.72.39-1.36,1.45-2.67.61.66-2.65,3.27-3.24,5.09-4.37s3.23-2.48,2.77-4.67c-.51-2.48-2.59-2.72-4.75-2.65-2.55.07-5.11,0-8.12,0a12.92,12.92,0,0,1,9.64-2.33c3.09.38,5.2-.16,5.69-3.7a26.06,26.06,0,0,1,1.46-6.14c4.42-11,5.25-21.79-1-32.46-1.82-3.12-4.84-3.64-7.3-1a8.37,8.37,0,0,0,2.52,13c3.5,1.63,2.25,2.89.63,4.55-2.69,2.75-6.7,3-9.82,5a1.13,1.13,0,0,1-1.78-1c-.09-3.81-1.95-3.34-4.52-2.2-1.45.65-3.35.86-4.44-.71s.18-2.74,1-4c.69-1,1.64-2,1.82-3.08.53-3.12,3.57-6.72-.5-9.26-2.1-1.31-4.47-3-7.43-2.29-1.09.25-2.47.39-3.22-.91-2.1-3.67-5.94-5-9.23-7.15a11.55,11.55,0,0,0-10.25-1.58C55.3,43.52,53.45,57.87,61,66.63c3.76,4.39,4.84,8.94,5.81,13.94.35,1.77.45,3.93-.87,5.4-1.51,1.7-1.85-2.06-3.45-1-.1.07-.27,0-.4,0-9.53.35-18.94-1.47-28.44-1.49-2.75,0-4.06-1-4-3.7.13-3.49.17-7,.5-10.47A72.86,72.86,0,0,1,33,54.84c.29-.94.66-2.26-.59-2.85-1-.49-1.44.43-2.15,1.12-14,13.44-14.17,32.45-.35,46a8.85,8.85,0,0,1,2.71,6.68,83.7,83.7,0,0,1-1.22,15.15c-.34,1.84-.43,4.91,2.91,3.13,2.61-1.39,4.79-3.27,8-1.9.47.2.91-.24,1.19-.81.94-1.87,2.64-1.57,4.23-1.23,3.22.7,4.49-.82,5-3.83.86-4.68-1.83-8.47-2.8-12.68Zm76.21-35.1c.86,4.14-1.49,8.34-2.25,12.78-.43,2.54-1.28,5.07.73,7,2.23,2.07,7.82,1.61,10.28-.3a3.7,3.7,0,0,0,1.35-4.29c-1-3.44-.3-6.73.28-10.17,1.19-7,4.76-13.43,3-21.23-2-8.93-11.83-14.87-20.2-12-2.49.87-2.4,1.8-.89,3.67C124.06,51,126.41,59.08,126.06,68.56Zm-82.12-.14c4.11-3.54,8.75-4.13,14.72-1.11-4.12-6.54-4.24-12.48-3.86-18.52.05-.84.4-2-.75-2.43-1.35-.51-1.9.52-2.42,1.49C49.88,51.14,48,54,43.47,53.72c-2-.11-3.61,1.58-1.11,3.51,2.83,2.18,3.18,4.66,1.6,7.69A3.23,3.23,0,0,0,43.94,68.42Zm7.11,6.17v.1a20.17,20.17,0,0,0,4.4-.06c1.93-.43,5.26,1.62,5.54-1.56s-3.41-3.4-5.75-4.3c-.71-.27-1.61.06-2.39-.09-3.47-.67-6.43,1.38-9.7,1.75-1.17.14-3-.64-3,1.54s1.75,2.48,3.31,2.58C46,74.7,48.51,74.59,51.05,74.59ZM13.54,90c1.85-.49,4.4-.42,4.48-2.92a3.19,3.19,0,0,0-3.94-3.34,10.6,10.6,0,0,1-6.53-.55c-.84-.29-2.09-.55-2.44.47a2.9,2.9,0,0,0,.7,2.54A16.89,16.89,0,0,0,13.54,90Zm41.34,23.29c-.19,2.07.87,3.74,2.27,4,1,.2,5.07-3.47,4.83-4.69-.38-1.94-.53-4.5-3.09-4.79C54.25,107.28,56.46,111.87,54.88,113.28ZM51.29,43c-3.6.12-7.44,3.05-7.89,5.79a2.68,2.68,0,0,0,.29,1.89c.56.72,1.44.46,2.17.05C48.79,49.11,50.43,46.5,51.29,43Zm43.06-3.19c2.66,1.2,4.55,2.08,6.46,2.91,1,.44,2.5.8,2.92-.21.63-1.53-1.19-1.88-2.15-2.34C99.57,39.24,97.37,39.82,94.35,39.85Zm44.08,65.87c3.63,2.08,5.64.82,7.85-1.54C143.16,102.92,141.22,104.93,138.43,105.72ZM76.85,129.31c-.95-1.28-.13-3.74-2.45-3.79a2.07,2.07,0,0,0-1.85,2.59C73.16,130.86,75.31,128.93,76.85,129.31ZM82.33,124c-1.09.68-1.28,2-1.67,3.17-.27.79-.16,1.59,1,1.57s2.58,0,2.4-1.66C84,126,83.91,124.6,82.33,124ZM90,102.26c2.38-3.42,2.43-3.75.81-7.36C91.08,97.32,88.59,99.22,90,102.26ZM48,125.06c-.86-.35-.15-2-1.46-1.94-1.62.1-1.86,1.61-2.21,2.83-.24.86.4,1.14,1.12,1.14A2.27,2.27,0,0,0,48,125.06Z"/>
          <path class="cls-4" d="M20.67,61.69c1,2.63-1.88,3.89-2.15,6.07C18.26,65.39,18.09,63.05,20.67,61.69Z"/>
          <path class="cls-4" d="M17.78,71.44c-.91,2.36.9,5.13-1.09,7.33C16.71,76.28,15.31,73.57,17.78,71.44Z"/>
          <path class="cls-4" d="M18.69,67.91c-.17,1.22-.13,2.49-1,3.49C17.64,70.13,17.11,68.7,18.69,67.91Z"/>
          <path class="cls-5" d="M49.9,103.61c1,4.21,3.66,8,2.8,12.68-.55,3-1.82,4.53-5,3.83-1.59-.34-3.29-.64-4.23,1.23-.28.57-.72,1-1.19.81-3.19-1.37-5.37.51-8,1.9-3.34,1.78-3.25-1.29-2.91-3.13a83.7,83.7,0,0,0,1.22-15.15,8.85,8.85,0,0,0-2.71-6.68c-13.82-13.54-13.62-32.55.35-46,.71-.69,1.14-1.61,2.15-1.12,1.25.59.88,1.91.59,2.85a72.86,72.86,0,0,0-2.8,14.47c-.33,3.47-.37,7-.5,10.47-.1,2.73,1.21,3.69,4,3.7,9.5,0,18.91,1.84,28.44,1.49.13,0,.3,0,.4,0,1.6-1,1.94,2.73,3.45,1,1.32-1.47,1.22-3.63.87-5.4-1-5-2-9.55-5.81-13.94-7.51-8.76-5.66-23.11,6.25-27a11.55,11.55,0,0,1,10.25,1.58c3.29,2.13,7.13,3.48,9.23,7.15.75,1.3,2.13,1.16,3.22.91,3-.66,5.33,1,7.43,2.29,4.07,2.54,1,6.14.5,9.26-.18,1.1-1.13,2.09-1.82,3.08-.84,1.22-2,2.48-1,4s3,1.36,4.44.71c2.57-1.14,4.43-1.61,4.52,2.2a1.13,1.13,0,0,0,1.78,1c3.12-2,7.13-2.26,9.82-5,1.62-1.66,2.87-2.92-.63-4.55a8.37,8.37,0,0,1-2.52-13c2.46-2.64,5.48-2.12,7.3,1,6.21,10.67,5.38,21.48,1,32.46a26.06,26.06,0,0,0-1.46,6.14c-.49,3.54-2.6,4.08-5.69,3.7a12.92,12.92,0,0,0-9.64,2.33c3,0,5.57.06,8.12,0,2.16-.07,4.24.17,4.75,2.65.46,2.19-.85,3.48-2.77,4.67s-4.43,1.72-5.09,4.37c1.31.84,2-.22,2.67-.61,5-2.7,8.85-.73,9.38,4.89.11,1.13.59,2.84,1.57,1.29,2.13-3.38,5.13-2.59,8.07-2.69,1.23,0,3.29.39,1.44-2-.6-.78.15-1.24.53-1.7,1.79-2.19,3.41-4.32,2.56-7.5a2,2,0,0,1,2-2.54,3.77,3.77,0,0,1,3.79,1.82,26.47,26.47,0,0,1,1.65,4c-2.48,1.17-2-1.24-2.79-2.19-.31-.38-.62-.91-1-1a.78.78,0,0,0-1,.89c.41,3-2.09,5.53-1,8.63.55,1.65-.33,3.07-1.57,4.29-5.5,5.45-18.59,7.54-25.46,3.89-3.21-1.71-7-2.47-9.4-5.6a1,1,0,0,0-1.44-.22,1.1,1.1,0,0,0-.23,1.73,15.91,15.91,0,0,0,1.75,1.62c.89.84,3,1.11,2.12,2.81-.57,1.11-2.11,1.76-3.31,2.47a2.11,2.11,0,0,1-1.57-.08c-2.13-.8-4.85,2-6.2-.25-1-1.56-.13-4.18-.14-6.33a10.27,10.27,0,0,0-.64-4.28,2.25,2.25,0,0,1,.73-2.89c1.09-.69,1.6,0,2.29.78a2.09,2.09,0,0,0,2.89.27c.82-.7.13-1.82-.21-2.6a13.18,13.18,0,0,1,1.12-13.64c.68-1,1.39-2,.55-3.45-1.5,2.74-3.63,3.92-6.69,2.93a3.48,3.48,0,0,0-1.46.17c.53,4.62-4.15,5.77-5.88,8.87-.59,1.05.36,1.38.72,2a29.73,29.73,0,0,1,4.32,16.72c-.11,2.56-1.24,3.75-3.59,3.9s-4.3,1.89-6.15,2.11a25.49,25.49,0,0,0-11,4c-1.69,1-3.25-3.27-2.79-5.36,1.26-5.82-2.23-10.75-2.42-16.26,0-1.46-.85-2.15-3-1.17-3.2,1.47-6.78,0-10.18-.52l-.21-.21Zm35-9.33c-3-4.65.56-7.86,1.68-11.47A7,7,0,0,0,87,78.94c-.18-.74-.3-1.75-1.38-1.64s-.93,1.12-.94,1.89C84.57,85.07,82,90,76.93,92.4c-4.05,1.92-9,2.23-12.66-2.71-.95,3.76,1,5,3.44,5.53,3.6.76,7.32.71,10.58-1.13C80.49,92.85,82.31,91.76,84.9,94.28Zm34.53-20.82c-.11-2.17-1.37-2.75-3.21-2.78s-2.61,1-2.49,2.7c.11,1.57.55,3.08,2.53,2.69C117.72,75.78,119.39,75.36,119.43,73.46Zm-23.16-2.2c-1.45.22-2.69.77-2.73,2.41a2.27,2.27,0,0,0,2.51,2.5c1.67,0,3-.81,3-2.48A2.8,2.8,0,0,0,96.27,71.26Z"/>
          <path class="cls-5" d="M126.06,68.56c.35-9.48-2-17.57-7.66-24.55-1.51-1.87-1.6-2.8.89-3.67,8.37-2.91,18.24,3,20.2,12,1.72,7.8-1.85,14.21-3,21.23-.58,3.44-1.29,6.73-.28,10.17A3.7,3.7,0,0,1,134.82,88c-2.46,1.91-8,2.37-10.28.3-2-1.88-1.16-4.41-.73-7C124.57,76.9,126.92,72.7,126.06,68.56Z"/>
          <path class="cls-6" d="M43.94,68.42a3.23,3.23,0,0,1,0-3.5c1.58-3,1.23-5.51-1.6-7.69-2.5-1.93-.88-3.62,1.11-3.51,4.56.24,6.41-2.58,8.16-5.87.52-1,1.07-2,2.42-1.49,1.15.44.8,1.59.75,2.43-.38,6-.26,12,3.86,18.52C52.69,64.29,48.05,64.88,43.94,68.42Z"/>
          <path class="cls-7" d="M41.64,81c-2.64,0-5.36.76-7.88-.7a32.33,32.33,0,0,1,.52-7c.64-3-1.65-7,2.51-8.93.66,4-.61,8.26,1.94,11.92,1.36,1.25,3.07.25,4.56.7a4.88,4.88,0,0,0,5.87,0l.34-.07.33.07c4.29,2.25,8.84.3,13.23.79,1.33,2.86.78,4.4-2.73,4.07-1.56-.14-3.15-.07-4.73-.1-2.51-1.16-5.05-2.07-7.91-1.64-1,.15-2.66.4-3.09-.14C42.48,77.32,42.47,80.25,41.64,81Z"/>
          <path class="cls-2" d="M51.05,74.59c-2.54,0-5.09.11-7.62,0-1.56-.1-3.39-.34-3.31-2.58s1.86-1.4,3-1.54c3.27-.37,6.23-2.42,9.7-1.75.78.15,1.68-.18,2.39.09,2.34.9,6,1.07,5.75,4.3s-3.61,1.13-5.54,1.56a20.17,20.17,0,0,1-4.4.06Z"/>
          <path class="cls-7" d="M36.79,64.35c-4.16,2-1.87,6-2.51,8.93a32.33,32.33,0,0,0-.52,7c-2.15-4.68-1.06-9.61-.54-14.3s2.46-9.37,3.62-14.09c.33-1.31,1.2-1.61,2.47-2.19C39.47,54.86,36.54,59.36,36.79,64.35Z"/>
          <path class="cls-5" d="M13.54,90a16.89,16.89,0,0,1-7.73-3.8,2.9,2.9,0,0,1-.7-2.54c.35-1,1.6-.76,2.44-.47a10.6,10.6,0,0,0,6.53.55A3.19,3.19,0,0,1,18,87.07C17.94,89.57,15.39,89.5,13.54,90Z"/>
          <path class="cls-1" d="M110.34,44.54c-.37,5.48-4.91,8.2-9.51,5.66-1.13-.62-2.17-1.42-3.25-2.13-.15-1.13-2.19-1.85-.71-3.32,6.18,3.52,6.18,3.52,9.8-.87C107.73,45,109.12,44.26,110.34,44.54Z"/>
          <path class="cls-2" d="M51.29,43c-.86,3.46-2.5,6.07-5.43,7.73-.73.41-1.61.67-2.17-.05a2.68,2.68,0,0,1-.29-1.89C43.85,46.09,47.69,43.16,51.29,43Z"/>
          <path class="cls-7" d="M41.64,81c.83-.7.84-3.63,3-1,.43.54,2,.29,3.09.14,2.86-.43,5.4.48,7.91,1.64C50.94,81.75,46.23,82.43,41.64,81Z"/>
          <path class="cls-6" d="M105.42,54.47c-2.8,3.37-2.8,3.37.76,5.43-2.26.49-4.72.42-5-2.27C100.91,55.15,102.73,53.83,105.42,54.47Z"/>
          <path class="cls-5" d="M138.43,105.72c2.79-.79,4.73-2.8,7.85-1.54C144.07,106.54,142.06,107.8,138.43,105.72Z"/>
          <path class="cls-6" d="M76.85,129.31c-1.54-.38-3.69,1.55-4.3-1.2a2.07,2.07,0,0,1,1.85-2.59C76.72,125.57,75.9,128,76.85,129.31Z"/>
          <path class="cls-6" d="M82.33,124c1.58.65,1.66,2,1.77,3.08.18,1.65-1.2,1.64-2.4,1.66s-1.31-.78-1-1.57C81.05,126,81.24,124.63,82.33,124Z"/>
          <path class="cls-7" d="M49.83,77l-.33-.07-.34.07-5.87,0c-1.49-.45-3.2.55-4.56-.7,5.28-.1,10.57-.37,15.82.53Z"/>
          <path class="cls-7" d="M49.83,77l4.72-.21c2.74,1.15,6-1.78,8.51,1C58.67,77.31,54.12,79.26,49.83,77Z"/>
          <path class="cls-4" d="M84.9,94.28c-2.59-2.52-4.41-1.43-6.61-.19-3.26,1.84-7,1.89-10.58,1.13-2.46-.52-4.39-1.77-3.44-5.53,3.66,4.94,8.61,4.63,12.66,2.71C82,90,84.57,85.07,84.64,79.19c0-.77-.17-1.77.94-1.89s1.2.9,1.38,1.64a7,7,0,0,1-.38,3.87C85.46,86.42,81.89,89.63,84.9,94.28Z"/>
          <path class="cls-4" d="M119.43,73.46c0,1.9-1.71,2.32-3.17,2.61-2,.39-2.42-1.12-2.53-2.69-.12-1.74.56-2.73,2.49-2.7S119.32,71.29,119.43,73.46Z"/>
          <path class="cls-4" d="M96.27,71.26A2.8,2.8,0,0,1,99,73.69c.07,1.67-1.31,2.5-3,2.48a2.27,2.27,0,0,1-2.51-2.5C93.58,72,94.82,71.48,96.27,71.26Z"/>
          <polygon class="cls-4" points="49.9 103.61 49.64 103.44 49.85 103.66 49.9 103.61"/>
          <path class="cls-7" d="M43.29,77l5.87,0A4.88,4.88,0,0,1,43.29,77Z"/>
          <path class="cls-6" d="M48.54,127c-1.54-.35-3.68,1.43-4.3-1.1a1.94,1.94,0,0,1,1.86-2.38C48.42,123.56,47.6,125.83,48.54,127Z"/>
        </g>
      </g>
    </g>
  </g>
</svg>
