<?xml version="1.0" encoding="utf-8"?>
<!-- Generator: Adobe Illustrator 26.0.3, SVG Export Plug-In . SVG Version: 6.00 Build 0)  -->
<svg version="1.1" id="Layer_1" xmlns="http://www.w3.org/2000/svg" xmlns:xlink="http://www.w3.org/1999/xlink" x="0px" y="0px"
	 viewBox="0 0 156 156" style="enable-background:new 0 0 156 156;" xml:space="preserve">
<style type="text/css">
	.st0{fill:#DDD700;stroke:#CCCC00;stroke-width:3;stroke-miterlimit:10;}
	.st1{fill:#00FFE6;stroke:#7BFFF2;stroke-width:5;stroke-miterlimit:10;}
	.st2{opacity:0.78;}
	.st3{fill:url(#SVGID_1_);}
	.st4{opacity:0.81;enable-background:new    ;}
	.st5{fill:#FFFFFF;}
	.st6{opacity:0.27;enable-background:new    ;}
</style>
<g id="Layer_2_00000039131925181999486280000010129012775668121248_">
	<g>
		<circle class="st0" cx="78" cy="78" r="76.5"/>
		<g>
			<circle class="st1" cx="78.6" cy="78" r="60.6"/>
			<g class="st2">
				
					<radialGradient id="SVGID_1_" cx="94.35" cy="1891.0601" r="136.86" gradientTransform="matrix(1 0 0 1 0 -1844)" gradientUnits="userSpaceOnUse">
					<stop  offset="0.27" style="stop-color:#FFFFFF;stop-opacity:0"/>
					<stop  offset="0.34" style="stop-color:#FFFFFF;stop-opacity:0.14"/>
					<stop  offset="0.48" style="stop-color:#FFFFFF;stop-opacity:0.49"/>
					<stop  offset="0.68" style="stop-color:#FFFFFF"/>
				</radialGradient>
				<circle class="st3" cx="77.3" cy="80.4" r="54.3"/>
			</g>
		</g>
	</g>
</g>
<g class="st4">
	<path class="st5" d="M76.1,91.5c0,0,6.5-1.9,24.2-4.2c0,0-4,4.8-8.1,14c0,0-29,3.7-43.6,6.8c0,0,14.8-17.9,24.3-26.9
		c5.2-4.9,10.7-10.5,13.3-14c3.5-4.8-5.9-4.6-18.6,3.2c0,0,4-9.8,5.3-13.5c11.2-7.8,41-11.3,31.3,4.2C95.1,75.2,81.6,85.2,76.1,91.5
		z"/>
</g>
<g class="st6">
	<path d="M73.8,90.4c0,0,6.5-1.9,24.2-4.2c0,0-4,4.8-8.1,14c0,0-29,3.7-43.6,6.8c0,0,14.8-17.9,24.3-26.9c5.2-4.9,10.7-10.5,13.3-14
		c3.5-4.8-5.9-4.6-18.6,3.2c0,0,4-9.8,5.3-13.5c11.2-7.8,41-11.3,31.3,4.2C92.8,74.1,79.2,84.1,73.8,90.4z"/>
</g>
</svg>
