<svg xmlns="http://www.w3.org/2000/svg" width="101.36" height="87.05" viewBox="0 0 101.36 87.05">
  <defs>
    <style>
      .cls-1 {
        fill: #050105;
      }

      .cls-2 {
        fill: #fd11fb;
      }

      .cls-3 {
        fill: #fe4efe;
      }

      .cls-4 {
        fill: #fe77fe;
      }

      .cls-5 {
        fill: #fd6601;
      }

      .cls-6 {
        fill: #5b1dee;
      }
    </style>
  </defs>
  <g id="Layer_2" data-name="Layer 2">
    <g id="Layer_1-2" data-name="Layer 1">
      <g>
        <path class="cls-1" d="M64.63,82.54C62,82,59,83.79,56.66,80.15c-1.2-1.85-4.09,1-5.17,2.68-1.65,2.54-3.31,2.58-5.56,1.29-.62-5.28-3.63-1.36-5.59-1.45-3.94-.62-7.4,1.32-11.09,2-2.62.52-5.19,1.25-6.51-3.1C21.63,85,20.6,86.72,17.26,85c-1.34-.7-4.2.51-5.79,1.38C8.81,87.8,8.58,86.88,8,84.69c-1.17-4.16-4.07-7.56-5.72-11.43-2-4.58-3-9.79-1.58-14.86,1.07-3.81,5.13-4.78,9-2.56,2.08,1.19,3.57,3.23,5.93,4s4.13.67,4.82-2.12c3.06-2.19,4.82-5.82,8.38-7.43l.33-.14c9.19-3.43,13.77,5.34,20.64,8.1,2.16-3.63.76-7.09.27-10.51-.53-3.61-2-5.74-6.37-5.58A15.13,15.13,0,0,1,28.85,30.6c-.63-2.91-.7-6.11,2.65-7.92.35,2.9-2.37,5.67.15,8.8,2.12,2.62,4,5.31,7.15,6.78,1.86.87,4.05,1.49,5.47.05,2-2,2.84-.21,4.09.6,3.65,5.49,10.51,5.45,14-.08,1.81-.09,1.84-1.67,2.59-2.79,1-1.5-.14-6.51,4.45-3.2.21.15,1.2-.28,1.37-.65,1-2.28,3.55-3.55,4.17-6.1,2.79-7.87,0-12.11-8.24-11.89-2.71.08-3.36-.67-3.88-3.23-.32-1.56-1.08-3.79-3.11-4.66a5.75,5.75,0,0,0-4.36-2.65c-4.18-1.4-8-1-11.24,2.25-2,1.33-3.6,2.89-3.69,5.48-.4,2.36-.86,4.74.16,7,.34.77.31,1.75-.3,1.72C37,20,34.68,23,31.45,22.73c-.61-2.71,2-2.95,3.3-3.53,2.08-.92,2.48-2.09,2.52-4.14C37.39,8,41.84,2.16,48.11.55,55-1.21,60.85,1.23,64.39,8c1.33,2.53,2.82,3.31,5.47,3.59,4.2.45,7.1,2.36,8,7.21.94,5.09-.54,9.16-3.55,12.85-1.62,2-3,3.94-2.4,6.46,1.92,7.55,1.14,15.15.7,22.75-.93,2.31-2.72,4.35-2.44,7.25,3.38-1.9,3.38-1.9,3-6.9,2.65-.91,5.21,3,8,.14.29-.29,1.74.82.8,2-2.34,3.07.58,3.41,2.62,5.32,0-3-.1-5.17,0-7.28.09-1.3-.49-3.25,1.35-3.59s2.06,1.72,2.69,2.83c3,5.23,2.91,5.27,8.35,2.75a1.67,1.67,0,0,0,.31-.29l.25-.11c2.22-.72,3.45-.2,3.22,2.43-.08.88-.42,1.95.59,2.64-2.1,2.28-4.3,4.36-5.52,7.46-.64,1.63-3,2.65-4.63,3.79-1.86,1.27-3.54.87-4.94-.9-.11-.15-.55,0-.82-.08-2.11-.51-4.89,1-6.31-1.18-1.11-1.72-1.23-4.08-1.83-6.27-2.2,2.75-2.7,5.89-3.19,9C70.49,79.1,67.23,79.63,64.63,82.54Zm-1.41-17.1a5.55,5.55,0,0,1,3.17-.84c.85.05,1.91-.25,1.67-1.33-.29-1.27-1.5-.56-2-.28-2.53,1.32-5.21.66-7.82.78-2.28.11-2.22-1.05-1.13-2.55,9.35-.29,11.85-1.55,12.49-6.37L63.81,57,61.39,57c-.93-.43-2.71.52-2.77-1.12s1.58-1.67,2.86-1.63A12,12,0,0,0,66.7,52.9c1.85-.81,4.4-2.3,3.61-4-1-2-2.6,1-4.16,1.06-.66,0-1.3.71-1.94.69-2.54-.06-5.57,1.57-7.6-2,3.13-.66,6-1,8.73-2,5.16-1.93,6-4.61,2.45-9.43-2.65,5.43-6.74,8.66-12.94,8.57-1.86,0-2.22,1.22-1.84,2.53.89,3.1.34,6.21.41,9.31-1.22,2.89-2,6.05-5.08,7.74-1.19.65-2.43,1.43-3.29,0-1.06-1.8,1-1.78,1.83-2.44.31-.26,1.06,0,.86-1-.75.09-1.43.14-2.11.26-3.61.68-4.32,5-7.76,6.2-.59.2-.77,3.72,0,5.13s2.08-.4,3.11-1c1.83-1,3.71-2,5.51-3,.89-.54,1.87-1.22,2.65-.35s.28,1.85-.54,2.58A3.29,3.29,0,0,0,47.78,76c.92-1.67,2.41-3.1,3.14-.78,1,3.22,2.78,1.91,4.47,1.91-1-1.2-3-.6-3.58-2.41,3.69-2.23,3.47-2.22,3.42-7.07,0-2.84,1.76-.87,2.82-.6C60.45,68.71,61.9,67.29,63.22,65.44ZM43.08,59.9c-4.13-.38-6.6,2.54-9.73,5-.33-4.43,3-5.7,5.27-7.82-1.89-.28-3.72,1.62-5.67.1.49-2.3,3.35-2.08,4.42-3.89-5.63-1.88-10.73-.58-12.68,3.55C23.42,59.5,21.13,62,22,65.46c.3,1.24-.53,2.7-1.72,1.19-3.39-4.35-3.8.27-5,1.63-.91,1.06-1,3.74-2.72,3-2.21-.92,0-2.85.18-4.35a1.5,1.5,0,0,1,.47-.7c1-1.1,1.93-2.24.59-3.68s-2.35.09-3.39.5-1.95,1.15-2.68.24c-.88-1.09-.08-2.26.93-2.82,1.84-1,.84-1.8-.1-2.47-1.15-.82-2.45-1.64-3.93-.74-1.31.8-2.45,1.55-2.49,3.54-.12,5.79,1.75,10.44,6.42,14.06,2.14,1.66,3.57,3.11,4.79-.72a5.07,5.07,0,0,1,3.17-3.41c1.76,1.69.53,4,1.75,6C20,75,23.51,75.45,23,71.67c-.09-.72,1.13-.49,1.81-.47a12.24,12.24,0,0,0,10.22-4.9c.52-.66,1-1.68,1.69-1.81C39.61,63.94,40.85,61.29,43.08,59.9Z"/>
        <path class="cls-2" d="M31.45,22.73C34.68,23,37,20,40.24,20.15c.61,0,.64-.95.3-1.72-1-2.3-.56-4.68-.16-7l.61.74c-.28,1.74-.55,3.52,2.09,1.81.8-.53,1.4-1.36,2.17-2s2.7.43,2.37-1.46c-.3-1.72-2-1.65-3.39-1.73,1.86-1.07,1.22-2-.16-2.89,3.25-3.21,7.06-3.65,11.24-2.25-.61.48-2-.31-2,.73,0,.64,1.27,1.23,2,1.84-1.79.06-3.22,1.29-3.14,2.68.13,2,2.22.68,3.37,1.08.49.17,1,.38,1.44.56-1,.36-2.71-.48-2.84.87-.08.82,1.38,1.8,2.15,2.7-1.21,2.5-1.38,4.39,2.33,4.05.76,1.66,1.78.57,2.73.26-.21,1.89-1.64,3.73-.28,5.7-.46,4.05-3.08,6.87-6.87,7-2.87.11-6.31.87-6.76-3.66.56-1.91-1-2.31-2.13-3-2.58-.69-5.16-1.34-7.44.79-2.36,3.23-2,5.94,1,9,1.25,1.27,2.41,2.51,3.6,0a3.37,3.37,0,0,1,.77-.21l.87-.66c4.62-2.68,3.91,2.1,5.38,3.84-.85.24-.94,1-1.13,1.69-1.25-.81-2.08-2.63-4.09-.6-1.42,1.44-3.61.82-5.47-.05-3.16-1.47-5-4.16-7.15-6.78-2.52-3.13.2-5.9-.15-8.8Zm17.37-4.52c-.45-.81-1.06-1.73-2.39-1.52A1.94,1.94,0,0,0,44.62,19c.12,1,.41,2,1.7,1.88C47.79,20.82,48.48,19.86,48.82,18.21Z"/>
        <path class="cls-2" d="M43.08,59.9c-2.23,1.39-3.47,4-6.32,4.59-.66.13-1.17,1.15-1.69,1.81a12.24,12.24,0,0,1-10.22,4.9c-.68,0-1.9-.25-1.81.47.47,3.78-3,3.3-4.74,5.08-1.22-2,0-4.33-1.75-6a5.07,5.07,0,0,0-3.17,3.41c-1.22,3.83-2.65,2.38-4.79.72C3.92,71.24,2.05,66.59,2.17,60.8c0-2,1.18-2.74,2.49-3.54,1.48-.9,2.78-.08,3.93.74.94.67,1.94,1.46.1,2.47-1,.56-1.81,1.73-.93,2.82.73.91,1.74.14,2.68-.24s2.07-1.92,3.39-.5.43,2.58-.59,3.68a1.5,1.5,0,0,0-.47.7c-.19,1.5-2.39,3.43-.18,4.35,1.77.74,1.81-1.94,2.72-3,1.15-1.36,1.56-6,5-1.63,1.19,1.51,2,0,1.72-1.19-.85-3.48,1.44-6,2.71-8.66,1.95-4.13,7-5.43,12.68-3.55-1.07,1.81-3.93,1.59-4.42,3.89,1.95,1.52,3.78-.38,5.67-.1-2.24,2.12-5.6,3.39-5.27,7.82C36.48,62.44,39,59.52,43.08,59.9Z"/>
        <path class="cls-2" d="M57.08,61.22c-1.09,1.5-1.15,2.66,1.13,2.55,2.61-.12,5.29.54,7.82-.78.53-.28,1.74-1,2,.28.24,1.08-.82,1.38-1.67,1.33a5.55,5.55,0,0,0-3.17.84C58.75,64,57.8,64.31,58.05,67c-1.06-.27-2.85-2.24-2.82.6.05,4.85.27,4.84-3.42,7.07.59,1.81,2.6,1.21,3.58,2.41-1.69,0-3.48,1.31-4.47-1.91-.73-2.32-2.22-.89-3.14.78a3.29,3.29,0,0,1,.79-4.23c.82-.73,1.27-1.77.54-2.58s-1.76-.19-2.65.35c-1.8,1.08-3.68,2-5.51,3-1,.59-2.42,2.31-3.11,1s-.56-4.93,0-5.13c3.44-1.16,4.15-5.52,7.76-6.2.68-.12,1.36-.17,2.11-.26.2,1-.55.74-.86,1-.81.66-2.89.64-1.83,2.44.86,1.46,2.1.68,3.29,0,3.1-1.69,3.86-4.85,5.08-7.74C56,56,58.88,59,61.39,57L63.81,57c.13,2.52-1.2,3.32-3.57,3.37C59.22,60.37,57.64,59.25,57.08,61.22Z"/>
        <path class="cls-3" d="M61.39,57c-2.51,2-5.43-1-8,.65-.07-3.1.48-6.21-.41-9.31-.38-1.31,0-2.56,1.84-2.53,6.2.09,10.29-3.14,12.94-8.57,3.57,4.82,2.71,7.5-2.45,9.43-2.74,1-5.6,1.33-8.73,2,2,3.55,5.06,1.92,7.6,2,.64,0,1.28-.65,1.94-.69,1.56-.1,3.18-3.1,4.16-1.06.79,1.67-1.76,3.16-3.61,4a12,12,0,0,1-5.22,1.39c-1.28,0-2.93-.09-2.86,1.63S60.46,56.61,61.39,57Z"/>
        <path class="cls-2" d="M56.29,14.12c-.77-.9-2.23-1.88-2.15-2.7.13-1.35,1.86-.51,2.84-.87,1-.09,2.4.15,2.74-.35.75-1.11-.9-1.83-1.12-2.89.35-.34.71-.67,1.07-1,2,.87,2.79,3.1,3.11,4.66.52,2.56,1.17,3.31,3.88,3.23,8.21-.22,11,4,8.24,11.89-2.06-.32-1.44-2-1.53-3.2-.1-1.48.16-3.13-2-3.39-2.21-2.34-4.58-3.87-7.73-1.58-1-.77-1.56.25-2.31.51-1,.31-2,1.4-2.73-.26.09-1.25,2.77-1.46,1.37-3.29C59,13.6,57.87,12.69,56.29,14.12Z"/>
        <path class="cls-2" d="M71.39,19.5c2.14.26,1.88,1.91,2,3.39.09,1.24-.53,2.88,1.53,3.2-.62,2.55-3.13,3.82-4.17,6.1-.17.37-1.16.8-1.37.65-4.59-3.31-3.45,1.7-4.45,3.2-.75,1.12-.78,2.7-2.59,2.79l-.69-1.63c.5-1.9,1.61-3.89,1.37-5.7-.54-4.24,1.42-5.06,4.93-4.54,1.51-.61,3-1.27,2.7-3.33C72.27,22.51,71.51,20.94,71.39,19.5Z"/>
        <path class="cls-3" d="M61.63,37.2l.69,1.63c-3.45,5.53-10.31,5.57-14,.08.19-.69.28-1.45,1.13-1.7C55.25,42.09,57.29,42.08,61.63,37.2Z"/>
        <path class="cls-3" d="M57.08,61.22c.56-2,2.14-.85,3.16-.88,2.37-.05,3.7-.85,3.57-3.37l5.76-2.12C68.93,59.67,66.43,60.93,57.08,61.22Z"/>
        <path class="cls-2" d="M44.07,5.91c1.38.89,2,1.82.16,2.89L41,12.14l-.61-.74C40.47,8.8,42.09,7.24,44.07,5.91Z"/>
        <path class="cls-4" d="M58.05,67c-.25-2.71.7-3,5.17-1.58C61.9,67.29,60.45,68.71,58.05,67Z"/>
        <path class="cls-2" d="M59.67,6.31c-.36.33-.72.66-1.07,1L55.31,6.23c-.7-.61-1.94-1.2-2-1.84,0-1,1.36-.25,2-.73A5.75,5.75,0,0,1,59.67,6.31Z"/>
        <path class="cls-5" d="M77.09,59.84l-.28.18-.24-.39a.85.85,0,0,1,.34,0C77,59.62,77,59.76,77.09,59.84Z"/>
        <path class="cls-1" d="M61.63,37.2c-4.34,4.88-6.38,4.89-12.14,0-1.47-1.73-.76-6.51-5.37-3.84-.33.17-1.25-.42-.88.67a3.37,3.37,0,0,0-.77.21c-1.8-.76-2.25-1.24-1.75-1.61C43,31,43.94,27.55,47.44,27.49c.45,4.53,3.89,3.77,6.76,3.66,3.79-.15,6.41-3,6.87-7,4.31-4,5.05.73,6.86,2.82-3.51-.52-5.47.3-4.93,4.54C63.24,33.31,62.13,35.3,61.63,37.2Zm-6.06.15a4.3,4.3,0,0,0,4.51-3.15c.42-1.16-.71-1.62-1.5-1.31-2,.76-4.64.85-5.46,3C52.62,37.24,54.45,37.32,55.57,37.35Z"/>
        <path class="cls-6" d="M47.44,27.49c-3.5.06-4.45,3.47-6.72,5.15-.5.37,0,.85,1.75,1.61-1.19,2.52-2.35,1.28-3.6,0-3-3.08-3.36-5.79-1-9,1.73.23,3.5-.39,5.23.67,1,.62,2.21.15,2.21-1.46C46.42,25.18,48,25.58,47.44,27.49Z"/>
        <path class="cls-6" d="M67.93,27c-1.81-2.09-2.55-6.78-6.86-2.82-1.36-2,.07-3.82.28-5.71.75-.26,1.33-1.28,2.31-.52-.13.8-.92,2.58.71,1.84,4.39-2,5.21.94,6.26,3.88C70.9,25.69,69.44,26.35,67.93,27Z"/>
        <path class="cls-1" d="M55.31,6.23,58.6,7.31c.22,1.06,1.87,1.78,1.12,2.89-.34.5-1.79.26-2.74.35-.48-.18-.95-.39-1.44-.56-1.15-.4-3.24,1-3.37-1.08C52.09,7.52,53.52,6.29,55.31,6.23Z"/>
        <path class="cls-1" d="M41,12.14,44.23,8.8c1.4.08,3.09,0,3.39,1.73C48,12.42,46,11.41,45.25,12s-1.37,1.43-2.17,2C40.44,15.66,40.71,13.88,41,12.14Z"/>
        <path class="cls-1" d="M56.29,14.12c1.58-1.43,2.72-.52,3.7.76,1.4,1.83-1.28,2-1.37,3.29C54.91,18.51,55.08,16.62,56.29,14.12Z"/>
        <path class="cls-1" d="M48.82,18.21c-.34,1.65-1,2.61-2.5,2.7C45,21,44.74,20.06,44.62,19a1.94,1.94,0,0,1,1.81-2.34C47.76,16.48,48.37,17.4,48.82,18.21Z"/>
        <path class="cls-1" d="M45.31,24.45c0,1.61-1.2,2.08-2.21,1.46-1.73-1.06-3.5-.44-5.23-.67C40.15,23.11,42.73,23.76,45.31,24.45Z"/>
        <path class="cls-6" d="M43.24,34c-.37-1.09.55-.5.88-.67Z"/>
        <path class="cls-1" d="M70.63,23.63c-1-2.94-1.87-5.84-6.26-3.88-1.63.74-.84-1-.71-1.84,3.15-2.28,5.52-.75,7.73,1.59C71.51,20.94,72.27,22.51,70.63,23.63Z"/>
        <path class="cls-6" d="M55.57,37.35c-1.12,0-3-.11-2.45-1.42.82-2.19,3.49-2.28,5.46-3,.79-.31,1.92.15,1.5,1.31A4.3,4.3,0,0,1,55.57,37.35Z"/>
      </g>
    </g>
  </g>
</svg>
